  0
SECTION
  2
HEADER
  9
$ACADVER
  1
AC1009
  9
$DWGCODEPAGE
  3
ansi_1252
  9
$INSBASE
 10
0.0
 20
0.0
 30
0.0
  9
$EXTMIN
 10
25.0
 20
25.0
 30
0.0
  9
$EXTMAX
 10
284.9999999999999
 20
265.0
 30
0.0
  9
$LIMMIN
 10
0.0
 20
0.0
  9
$LIMMAX
 10
12.0
 20
9.0
  9
$ORTHOMODE
 70
     0
  9
$REGENMODE
 70
     1
  9
$FILLMODE
 70
     1
  9
$QTEXTMODE
 70
     0
  9
$MIRRTEXT
 70
     1
  9
$DRAGMODE
 70
     2
  9
$LTSCALE
 40
1.0
  9
$OSMODE
 70
    37
  9
$ATTMODE
 70
     1
  9
$TEXTSIZE
 40
0.2
  9
$TRACEWID
 40
0.05
  9
$TEXTSTYLE
  7
STANDARD
  9
$CLAYER
  8
0
  9
$CELTYPE
  6
BYLAYER
  9
$CECOLOR
 62
   256
  9
$DIMSCALE
 40
1.0
  9
$DIMASZ
 40
0.18
  9
$DIMEXO
 40
0.0625
  9
$DIMDLI
 40
0.38
  9
$DIMRND
 40
0.0
  9
$DIMDLE
 40
0.0
  9
$DIMEXE
 40
0.18
  9
$DIMTP
 40
0.0
  9
$DIMTM
 40
0.0
  9
$DIMTXT
 40
0.18
  9
$DIMCEN
 40
0.09
  9
$DIMTSZ
 40
0.0
  9
$DIMTOL
 70
     0
  9
$DIMLIM
 70
     0
  9
$DIMTIH
 70
     1
  9
$DIMTOH
 70
     1
  9
$DIMSE1
 70
     0
  9
$DIMSE2
 70
     0
  9
$DIMTAD
 70
     0
  9
$DIMZIN
 70
     0
  9
$DIMBLK
  1

  9
$DIMASO
 70
     1
  9
$DIMSHO
 70
     1
  9
$DIMPOST
  1

  9
$DIMAPOST
  1

  9
$DIMALT
 70
     0
  9
$DIMALTD
 70
     2
  9
$DIMALTF
 40
25.4
  9
$DIMLFAC
 40
1.0
  9
$DIMTOFL
 70
     0
  9
$DIMTVP
 40
0.0
  9
$DIMTIX
 70
     0
  9
$DIMSOXD
 70
     0
  9
$DIMSAH
 70
     0
  9
$DIMBLK1
  1

  9
$DIMBLK2
  1

  9
$DIMSTYLE
  2
STANDARD
  9
$DIMCLRD
 70
     0
  9
$DIMCLRE
 70
     0
  9
$DIMCLRT
 70
     0
  9
$DIMTFAC
 40
1.0
  9
$DIMGAP
 40
0.09
  9
$LUNITS
 70
     2
  9
$LUPREC
 70
     4
  9
$SKETCHINC
 40
0.1
  9
$FILLETRAD
 40
0.0
  9
$AUNITS
 70
     0
  9
$AUPREC
 70
     0
  9
$MENU
  1
.
  9
$ELEVATION
 40
0.0
  9
$PELEVATION
 40
0.0
  9
$THICKNESS
 40
0.0
  9
$LIMCHECK
 70
     0
  9
$CHAMFERA
 40
0.0
  9
$CHAMFERB
 40
0.0
  9
$SKPOLY
 70
     0
  9
$TDCREATE
 40
2454910.5
  9
$TDUPDATE
 40
2459612.434075984
  9
$TDINDWG
 40
0.0000000116
  9
$TDUSRTIMER
 40
0.0000000116
  9
$USRTIMER
 70
     1
  9
$ANGBASE
 50
0.0
  9
$ANGDIR
 70
     0
  9
$PDMODE
 70
     0
  9
$PDSIZE
 40
0.0
  9
$PLINEWID
 40
0.0
  9
$COORDS
 70
     1
  9
$SPLFRAME
 70
     0
  9
$SPLINETYPE
 70
     6
  9
$SPLINESEGS
 70
     8
  9
$ATTDIA
 70
     0
  9
$ATTREQ
 70
     1
  9
$HANDLING
 70
     1
  9
$HANDSEED
  5
CB
  9
$SURFTAB1
 70
     6
  9
$SURFTAB2
 70
     6
  9
$SURFTYPE
 70
     6
  9
$SURFU
 70
     6
  9
$SURFV
 70
     6
  9
$UCSNAME
  2

  9
$UCSORG
 10
0.0
 20
0.0
 30
0.0
  9
$UCSXDIR
 10
1.0
 20
0.0
 30
0.0
  9
$UCSYDIR
 10
0.0
 20
1.0
 30
0.0
  9
$PUCSNAME
  2

  9
$PUCSORG
 10
0.0
 20
0.0
 30
0.0
  9
$PUCSXDIR
 10
1.0
 20
0.0
 30
0.0
  9
$PUCSYDIR
 10
0.0
 20
1.0
 30
0.0
  9
$USERI1
 70
     0
  9
$USERI2
 70
     0
  9
$USERI3
 70
     0
  9
$USERI4
 70
     0
  9
$USERI5
 70
     0
  9
$USERR1
 40
0.0
  9
$USERR2
 40
0.0
  9
$USERR3
 40
0.0
  9
$USERR4
 40
0.0
  9
$USERR5
 40
0.0
  9
$WORLDVIEW
 70
     1
  9
$SHADEDGE
 70
     3
  9
$SHADEDIF
 70
    70
  9
$TILEMODE
 70
     1
  9
$MAXACTVP
 70
    64
  9
$PLIMCHECK
 70
     0
  9
$PEXTMIN
 10
1.000000000000000E+20
 20
1.000000000000000E+20
 30
1.000000000000000E+20
  9
$PEXTMAX
 10
-1.000000000000000E+20
 20
-1.000000000000000E+20
 30
-1.000000000000000E+20
  9
$PLIMMIN
 10
0.0
 20
0.0
  9
$PLIMMAX
 10
12.0
 20
9.0
  9
$UNITMODE
 70
     0
  9
$VISRETAIN
 70
     1
  9
$PLINEGEN
 70
     0
  9
$PSLTSCALE
 70
     1
  0
ENDSEC
  0
SECTION
  2
TABLES
  0
TABLE
  2
VPORT
 70
     1
  0
VPORT
  2
*ACTIVE
 70
     0
 10
0.0
 20
0.0
 11
1.0
 21
1.0
 12
10.42990654205607
 22
4.5
 13
0.0
 23
0.0
 14
0.5
 24
0.5
 15
0.5
 25
0.5
 16
0.0
 26
0.0
 36
1.0
 17
0.0
 27
0.0
 37
0.0
 40
9.0
 41
1.972972972850329
 42
50.0
 43
0.0
 44
0.0
 50
0.0
 51
0.0
 71
     0
 72
   100
 73
     1
 74
     3
 75
     0
 76
     0
 77
     0
 78
     0
  0
ENDTAB
  0
TABLE
  2
LTYPE
 70
     2
  0
LTYPE
  2
CONTINUOUS
 70
     0
  3
Solid line
 72
    65
 73
     0
 40
0.0
  0
LTYPE
  2
CONTINUOUS2
 70
     0
  3
Solid Line
 72
    65
 73
     0
 40
0.0
  0
ENDTAB
  0
TABLE
  2
LAYER
 70
     2
  0
LAYER
  2
0
 70
     0
 62
     7
  6
CONTINUOUS
  0
LAYER
  2
LAYER0
 70
     0
 62
    13
  6
CONTINUOUS
  0
ENDTAB
  0
TABLE
  2
STYLE
 70
     1
  0
STYLE
  2
STANDARD
 70
     0
 40
0.0
 41
1.0
 50
0.0
 71
     0
 42
0.2
  3
txt
  4

  0
ENDTAB
  0
TABLE
  2
VIEW
 70
     0
  0
ENDTAB
  0
TABLE
  2
UCS
 70
     0
  0
ENDTAB
  0
TABLE
  2
APPID
 70
     1
  0
APPID
  2
ACAD
 70
     0
  0
ENDTAB
  0
TABLE
  2
DIMSTYLE
 70
     1
  0
DIMSTYLE
  2
STANDARD
 70
     0
  3

  4

  5

  6

  7

 40
1.0
 41
0.18
 42
0.0625
 43
0.38
 44
0.18
 45
0.0
 46
0.0
 47
0.0
 48
0.0
140
0.18
141
0.09
142
0.0
143
25.4
144
1.0
145
0.0
146
1.0
147
0.09
 71
     0
 72
     0
 73
     1
 74
     1
 75
     0
 76
     0
 77
     0
 78
     0
170
     0
171
     2
172
     0
173
     0
174
     0
175
     0
176
     0
177
     0
178
     0
  0
ENDTAB
  0
ENDSEC
  0
SECTION
  2
BLOCKS
  0
BLOCK
  8
0
  2
$MODEL_SPACE
 70
     0
 10
0.0
 20
0.0
 30
0.0
  3
$MODEL_SPACE
  1

  0
ENDBLK
  5
21
  8
0
  0
BLOCK
 67
     1
  8
0
  2
$PAPER_SPACE
 70
     0
 10
0.0
 20
0.0
 30
0.0
  3
$PAPER_SPACE
  1

  0
ENDBLK
  5
1D
 67
     1
  8
0
  0
ENDSEC
  0
SECTION
  2
ENTITIES
  0
POLYLINE
  5
60
  8
LAYER0
 66
     1
 10
0.0
 20
0.0
 30
0.0
 70
     1
  0
VERTEX
  5
77
  8
LAYER0
 10
45.0
 20
25.0
 30
0.0
  0
VERTEX
  5
78
  8
LAYER0
 10
264.9999999999999
 20
25.0
 30
0.0
  0
VERTEX
  5
79
  8
LAYER0
 10
284.9999999999999
 20
45.0
 30
0.0
  0
VERTEX
  5
7A
  8
LAYER0
 10
284.9999999999999
 20
244.9999999999999
 30
0.0
  0
VERTEX
  5
7B
  8
LAYER0
 10
264.9999999999999
 20
265.0
 30
0.0
  0
VERTEX
  5
7C
  8
LAYER0
 10
45.0
 20
265.0
 30
0.0
  0
VERTEX
  5
7D
  8
LAYER0
 10
25.0
 20
244.9999999999999
 30
0.0
  0
VERTEX
  5
7E
  8
LAYER0
 10
25.0
 20
45.0
 30
0.0
  0
SEQEND
  5
BB
  8
LAYER0
  0
POLYLINE
  5
61
  8
LAYER0
 66
     1
 10
0.0
 20
0.0
 30
0.0
 70
     1
  0
VERTEX
  5
7F
  8
LAYER0
 10
101.1703028697007
 20
145.0997174569139
 30
0.0
 42
-0.4142135623730951
  0
VERTEX
  5
80
  8
LAYER0
 10
99.67030286972465
 20
143.5997174569378
 30
0.0
 42
-0.4142135623730951
  0
VERTEX
  5
81
  8
LAYER0
 10
98.17030286974858
 20
145.0997174569139
 30
0.0
 42
-0.4142135623730951
  0
VERTEX
  5
82
  8
LAYER0
 10
99.67030286972465
 20
146.5997174568899
 30
0.0
 42
-0.4142135623730951
  0
SEQEND
  5
BC
  8
LAYER0
  0
POLYLINE
  5
62
  8
LAYER0
 66
     1
 10
0.0
 20
0.0
 30
0.0
 70
     1
  0
VERTEX
  5
83
  8
LAYER0
 10
210.4008674090717
 20
194.6504343451838
 30
0.0
 42
-0.4142135623730951
  0
VERTEX
  5
84
  8
LAYER0
 10
208.9008674090879
 20
196.1504343451675
 30
0.0
 42
-0.4142135623730951
  0
VERTEX
  5
85
  8
LAYER0
 10
210.4008674090717
 20
197.6504343451513
 30
0.0
 42
-0.4142135623730951
  0
VERTEX
  5
86
  8
LAYER0
 10
211.9008674090554
 20
196.1504343451675
 30
0.0
 42
-0.4142135623730951
  0
SEQEND
  5
BD
  8
LAYER0
  0
POLYLINE
  5
63
  8
LAYER0
 66
     1
 10
0.0
 20
0.0
 30
0.0
 70
     1
  0
VERTEX
  5
87
  8
LAYER0
 10
99.36459805097905
 20
194.6524221901112
 30
0.0
 42
-0.4142135623730951
  0
VERTEX
  5
88
  8
LAYER0
 10
97.86459805098696
 20
196.1524221901033
 30
0.0
 42
-0.4142135623730951
  0
VERTEX
  5
89
  8
LAYER0
 10
99.36459805097905
 20
197.6524221900954
 30
0.0
 42
-0.4142135623730951
  0
VERTEX
  5
8A
  8
LAYER0
 10
100.8645980509712
 20
196.1524221901033
 30
0.0
 42
-0.4142135623730951
  0
SEQEND
  5
BE
  8
LAYER0
  0
POLYLINE
  5
64
  8
LAYER0
 66
     1
 10
0.0
 20
0.0
 30
0.0
 70
     1
  0
VERTEX
  5
8B
  8
LAYER0
 10
212.053719818472
 20
144.9448772025925
 30
0.0
 42
-0.4142135623730951
  0
VERTEX
  5
8C
  8
LAYER0
 10
210.5537198184703
 20
143.4448772025908
 30
0.0
 42
-0.4142135623730951
  0
VERTEX
  5
8D
  8
LAYER0
 10
209.0537198184687
 20
144.9448772025925
 30
0.0
 42
-0.4142135623730951
  0
VERTEX
  5
8E
  8
LAYER0
 10
210.5537198184703
 20
146.4448772025941
 30
0.0
 42
-0.4142135623730951
  0
SEQEND
  5
BF
  8
LAYER0
  0
POLYLINE
  5
65
  8
LAYER0
 66
     1
 10
0.0
 20
0.0
 30
0.0
 70
     1
  0
VERTEX
  5
8F
  8
LAYER0
 10
210.3813079565704
 20
92.55895583424646
 30
0.0
 42
-0.4142135623730951
  0
VERTEX
  5
90
  8
LAYER0
 10
208.8813079565692
 20
94.05895583424768
 30
0.0
 42
-0.4142135623730951
  0
VERTEX
  5
91
  8
LAYER0
 10
210.3813079565704
 20
95.5589558342489
 30
0.0
 42
-0.4142135623730951
  0
VERTEX
  5
92
  8
LAYER0
 10
211.8813079565716
 20
94.05895583424768
 30
0.0
 42
-0.4142135623730951
  0
SEQEND
  5
C0
  8
LAYER0
  0
POLYLINE
  5
66
  8
LAYER0
 66
     1
 10
0.0
 20
0.0
 30
0.0
 70
     1
  0
VERTEX
  5
93
  8
LAYER0
 10
99.51745046034301
 20
92.5470127237457
 30
0.0
 42
-0.4142135623730951
  0
VERTEX
  5
94
  8
LAYER0
 10
98.01745046036774
 20
94.04701272372097
 30
0.0
 42
-0.4142135623730951
  0
VERTEX
  5
95
  8
LAYER0
 10
99.51745046034301
 20
95.54701272369624
 30
0.0
 42
-0.4142135623730951
  0
VERTEX
  5
96
  8
LAYER0
 10
101.0174504603183
 20
94.04701272372097
 30
0.0
 42
-0.4142135623730951
  0
SEQEND
  5
C1
  8
LAYER0
  0
POLYLINE
  5
67
  8
LAYER0
 66
     1
 10
0.0
 20
0.0
 30
0.0
 70
     1
  0
VERTEX
  5
97
  8
LAYER0
 10
177.9999999999996
 20
145.0
 30
0.0
 42
-0.4142135623730951
  0
VERTEX
  5
98
  8
LAYER0
 10
154.9999999999998
 20
122.0000000000002
 30
0.0
 42
-0.4142135623730951
  0
VERTEX
  5
99
  8
LAYER0
 10
131.9999999999999
 20
145.0
 30
0.0
 42
-0.4142135623730951
  0
VERTEX
  5
9A
  8
LAYER0
 10
154.9999999999998
 20
167.9999999999998
 30
0.0
 42
-0.4142135623730951
  0
SEQEND
  5
C2
  8
LAYER0
  0
POLYLINE
  5
68
  8
LAYER0
 66
     1
 10
0.0
 20
0.0
 30
0.0
 70
     1
  0
VERTEX
  5
9B
  8
LAYER0
 10
219.9999999999954
 20
253.500000000009
 30
0.0
 42
-0.4142135623730951
  0
VERTEX
  5
9C
  8
LAYER0
 10
218.4999999999999
 20
255.0000000000045
 30
0.0
 42
-0.4142135623730951
  0
VERTEX
  5
9D
  8
LAYER0
 10
219.9999999999954
 20
256.5
 30
0.0
 42
-0.4142135623730951
  0
VERTEX
  5
9E
  8
LAYER0
 10
221.4999999999909
 20
255.0000000000045
 30
0.0
 42
-0.4142135623730951
  0
SEQEND
  5
C3
  8
LAYER0
  0
POLYLINE
  5
69
  8
LAYER0
 66
     1
 10
0.0
 20
0.0
 30
0.0
 70
     1
  0
VERTEX
  5
9F
  8
LAYER0
 10
90.00000000014205
 20
253.4999999998047
 30
0.0
 42
-0.4142135623730951
  0
VERTEX
  5
A0
  8
LAYER0
 10
88.49999999999994
 20
254.9999999999468
 30
0.0
 42
-0.4142135623730951
  0
VERTEX
  5
A1
  8
LAYER0
 10
90.00000000014205
 20
256.5000000000889
 30
0.0
 42
-0.4142135623730951
  0
VERTEX
  5
A2
  8
LAYER0
 10
91.50000000028416
 20
254.9999999999468
 30
0.0
 42
-0.4142135623730951
  0
SEQEND
  5
C4
  8
LAYER0
  0
POLYLINE
  5
6A
  8
LAYER0
 66
     1
 10
0.0
 20
0.0
 30
0.0
 70
     1
  0
VERTEX
  5
A3
  8
LAYER0
 10
54.99999999996561
 20
66.99999999996118
 30
0.0
 42
-0.4142135623730951
  0
VERTEX
  5
A4
  8
LAYER0
 10
52.49999999993202
 20
69.49999999999474
 30
0.0
 42
-0.4142135623730951
  0
VERTEX
  5
A5
  8
LAYER0
 10
54.99999999996561
 20
72.00000000002831
 30
0.0
 42
-0.4142135623730951
  0
VERTEX
  5
A6
  8
LAYER0
 10
57.4999999999992
 20
69.49999999999474
 30
0.0
 42
-0.4142135623730951
  0
SEQEND
  5
C5
  8
LAYER0
  0
POLYLINE
  5
6B
  8
LAYER0
 66
     1
 10
0.0
 20
0.0
 30
0.0
 70
     1
  0
VERTEX
  5
A7
  8
LAYER0
 10
55.00000000002473
 20
217.0
 30
0.0
 42
-0.4142135623730951
  0
VERTEX
  5
A8
  8
LAYER0
 10
52.50000000002956
 20
219.4999999999952
 30
0.0
 42
-0.4142135623730951
  0
VERTEX
  5
A9
  8
LAYER0
 10
55.00000000002473
 20
221.9999999999903
 30
0.0
 42
-0.4142135623730951
  0
VERTEX
  5
AA
  8
LAYER0
 10
57.5000000000199
 20
219.4999999999952
 30
0.0
 42
-0.4142135623730951
  0
SEQEND
  5
C6
  8
LAYER0
  0
POLYLINE
  5
6C
  8
LAYER0
 66
     1
 10
0.0
 20
0.0
 30
0.0
 70
     1
  0
VERTEX
  5
AB
  8
LAYER0
 10
255.0000000000059
 20
67.00000000000375
 30
0.0
 42
-0.4142135623730951
  0
VERTEX
  5
AC
  8
LAYER0
 10
252.5000000000075
 20
69.50000000000216
 30
0.0
 42
-0.4142135623730951
  0
VERTEX
  5
AD
  8
LAYER0
 10
255.0000000000059
 20
72.00000000000054
 30
0.0
 42
-0.4142135623730951
  0
VERTEX
  5
AE
  8
LAYER0
 10
257.5000000000043
 20
69.50000000000216
 30
0.0
 42
-0.4142135623730951
  0
SEQEND
  5
C7
  8
LAYER0
  0
POLYLINE
  5
6D
  8
LAYER0
 66
     1
 10
0.0
 20
0.0
 30
0.0
 70
     1
  0
VERTEX
  5
AF
  8
LAYER0
 10
255.0000000000155
 20
216.9999999999769
 30
0.0
 42
-0.4142135623730951
  0
VERTEX
  5
B0
  8
LAYER0
 10
252.4999999999999
 20
219.4999999999925
 30
0.0
 42
-0.4142135623730951
  0
VERTEX
  5
B1
  8
LAYER0
 10
255.0000000000155
 20
222.0000000000081
 30
0.0
 42
-0.4142135623730951
  0
VERTEX
  5
B2
  8
LAYER0
 10
257.5000000000312
 20
219.4999999999925
 30
0.0
 42
-0.4142135623730951
  0
SEQEND
  5
C8
  8
LAYER0
  0
POLYLINE
  5
6E
  8
LAYER0
 66
     1
 10
0.0
 20
0.0
 30
0.0
 70
     1
  0
VERTEX
  5
B3
  8
LAYER0
 10
230.2350138584505
 20
242.1788021523056
 30
0.0
 42
-0.4142135623730951
  0
VERTEX
  5
B4
  8
LAYER0
 10
227.7350138584684
 20
244.6788021522877
 30
0.0
 42
-0.4142135623730951
  0
VERTEX
  5
B5
  8
LAYER0
 10
230.2350138584505
 20
247.1788021522698
 30
0.0
 42
-0.4142135623730951
  0
VERTEX
  5
B6
  8
LAYER0
 10
232.7350138584326
 20
244.6788021522877
 30
0.0
 42
-0.4142135623730951
  0
SEQEND
  5
C9
  8
LAYER0
  0
POLYLINE
  5
6F
  8
LAYER0
 66
     1
 10
0.0
 20
0.0
 30
0.0
 70
     1
  0
VERTEX
  5
B7
  8
LAYER0
 10
79.64541771560408
 20
41.74598282483916
 30
0.0
 42
-0.4142135623730951
  0
VERTEX
  5
B8
  8
LAYER0
 10
77.14541771558243
 20
44.24598282486082
 30
0.0
 42
-0.4142135623730951
  0
VERTEX
  5
B9
  8
LAYER0
 10
79.64541771560408
 20
46.74598282488247
 30
0.0
 42
-0.4142135623730951
  0
VERTEX
  5
BA
  8
LAYER0
 10
82.14541771562574
 20
44.24598282486082
 30
0.0
 42
-0.4142135623730951
  0
SEQEND
  5
CA
  8
LAYER0
  0
ENDSEC
  0
EOF
