G04 #@! TF.GenerationSoftware,KiCad,Pcbnew,(5.1.5-0-10_14)*
G04 #@! TF.CreationDate,2020-03-01T16:55:33-06:00*
G04 #@! TF.ProjectId,Electronic Target,456c6563-7472-46f6-9e69-632054617267,rev?*
G04 #@! TF.SameCoordinates,Original*
G04 #@! TF.FileFunction,Copper,L2,Bot*
G04 #@! TF.FilePolarity,Positive*
%FSLAX46Y46*%
G04 Gerber Fmt 4.6, Leading zero omitted, Abs format (unit mm)*
G04 Created by KiCad (PCBNEW (5.1.5-0-10_14)) date 2020-03-01 16:55:33*
%MOMM*%
%LPD*%
G04 APERTURE LIST*
%ADD10O,1.727200X1.727200*%
%ADD11R,1.700000X1.700000*%
%ADD12O,1.700000X1.700000*%
%ADD13R,1.600000X1.600000*%
%ADD14O,1.600000X1.600000*%
%ADD15C,0.800000*%
%ADD16C,0.250000*%
%ADD17C,0.254000*%
G04 APERTURE END LIST*
D10*
X167640000Y-133350000D03*
X162560000Y-133350000D03*
X160020000Y-133350000D03*
X157480000Y-133350000D03*
X154940000Y-133350000D03*
X152400000Y-133350000D03*
X149860000Y-133350000D03*
X147320000Y-133350000D03*
X203200000Y-85090000D03*
X200660000Y-85090000D03*
X198120000Y-85090000D03*
X195580000Y-85090000D03*
X193040000Y-85090000D03*
X190500000Y-85090000D03*
X187960000Y-85090000D03*
X185420000Y-85090000D03*
X180340000Y-85090000D03*
X177800000Y-85090000D03*
X175260000Y-85090000D03*
X172720000Y-85090000D03*
X170180000Y-85090000D03*
X167640000Y-85090000D03*
X165100000Y-85090000D03*
X162560000Y-85090000D03*
X143256000Y-85090000D03*
X158496000Y-85090000D03*
X155956000Y-85090000D03*
X153416000Y-85090000D03*
X135636000Y-85090000D03*
X138176000Y-85090000D03*
X140716000Y-85090000D03*
X145796000Y-85090000D03*
X148336000Y-85090000D03*
X150876000Y-85090000D03*
X144780000Y-133350000D03*
X170180000Y-133350000D03*
X172720000Y-133350000D03*
X175260000Y-133350000D03*
X177800000Y-133350000D03*
X180340000Y-133350000D03*
X182880000Y-133350000D03*
X185420000Y-133350000D03*
X190500000Y-133350000D03*
X193040000Y-133350000D03*
X195580000Y-133350000D03*
X198120000Y-133350000D03*
X200660000Y-133350000D03*
X203200000Y-133350000D03*
X205740000Y-133350000D03*
X208280000Y-133350000D03*
X210820000Y-85090000D03*
X213360000Y-85090000D03*
X210820000Y-87630000D03*
X213360000Y-87630000D03*
X210820000Y-90170000D03*
X213360000Y-90170000D03*
X210820000Y-92710000D03*
X213360000Y-92710000D03*
X210820000Y-95250000D03*
X213360000Y-95250000D03*
X210820000Y-97790000D03*
X213360000Y-97790000D03*
X210820000Y-100330000D03*
X213360000Y-100330000D03*
X210820000Y-102870000D03*
X213360000Y-102870000D03*
X210820000Y-105410000D03*
X213360000Y-105410000D03*
X210820000Y-107950000D03*
X213360000Y-107950000D03*
X210820000Y-110490000D03*
X213360000Y-110490000D03*
X210820000Y-113030000D03*
X213360000Y-113030000D03*
X210820000Y-115570000D03*
X213360000Y-115570000D03*
X210820000Y-118110000D03*
X213360000Y-118110000D03*
X210820000Y-120650000D03*
X213360000Y-120650000D03*
X210820000Y-123190000D03*
X213360000Y-123190000D03*
X210820000Y-125730000D03*
X213360000Y-125730000D03*
X210820000Y-128270000D03*
X213360000Y-128270000D03*
D11*
X121920000Y-106680000D03*
D12*
X124460000Y-106680000D03*
X121920000Y-109220000D03*
X124460000Y-109220000D03*
X121920000Y-111760000D03*
X124460000Y-111760000D03*
X121920000Y-114300000D03*
X124460000Y-114300000D03*
X121920000Y-116840000D03*
X124460000Y-116840000D03*
D11*
X156210000Y-92710000D03*
D12*
X156210000Y-90170000D03*
X153670000Y-92710000D03*
X153670000Y-90170000D03*
X151130000Y-92710000D03*
X151130000Y-90170000D03*
X148590000Y-92710000D03*
X148590000Y-90170000D03*
D11*
X144780000Y-106680000D03*
X129540000Y-96520000D03*
X143510000Y-97790000D03*
X133350000Y-93980000D03*
X160020000Y-100330000D03*
X157480000Y-110490000D03*
X179070000Y-106680000D03*
X158750000Y-125730000D03*
X119380000Y-86360000D03*
X124460000Y-86360000D03*
D13*
X163830000Y-119380000D03*
D14*
X171450000Y-127000000D03*
X163830000Y-121920000D03*
X171450000Y-124460000D03*
X163830000Y-124460000D03*
X171450000Y-121920000D03*
X163830000Y-127000000D03*
X171450000Y-119380000D03*
D15*
X135890000Y-107950000D03*
X127000000Y-119380000D03*
X125730000Y-99060000D03*
X135890000Y-105410000D03*
X144780000Y-90170000D03*
X118230000Y-126880000D03*
X165100000Y-114300000D03*
X165100000Y-97790000D03*
X119380000Y-101600000D03*
X152400000Y-115570000D03*
X153670000Y-96520000D03*
X167640000Y-111760000D03*
X195580000Y-90170000D03*
X181610000Y-124460000D03*
X181610000Y-107950000D03*
X181610000Y-111760000D03*
X208280000Y-130810000D03*
X138430000Y-93980000D03*
X146050000Y-115570000D03*
X191770000Y-95250000D03*
X191770000Y-95250000D03*
X190500000Y-88900000D03*
X193040000Y-113030000D03*
X135890000Y-106680000D03*
X135890000Y-101600000D03*
X142240000Y-107950000D03*
X142240000Y-119380000D03*
X142240000Y-105410000D03*
X139700000Y-93980000D03*
X139700000Y-99060000D03*
X151130000Y-105410000D03*
X162560000Y-100330000D03*
X186690000Y-91440000D03*
X181610000Y-102870000D03*
X184150000Y-93980000D03*
X177800000Y-130810000D03*
X187960000Y-93980000D03*
X177800000Y-101600000D03*
X175260000Y-129540000D03*
X158750000Y-125730000D03*
X157480000Y-105410000D03*
X160020000Y-120650000D03*
X156210000Y-102870000D03*
X146050000Y-102870000D03*
X146050000Y-121920000D03*
X156210000Y-121920000D03*
X151130000Y-106680000D03*
X162560000Y-105410000D03*
X172720000Y-105410000D03*
X172720000Y-101600000D03*
X162560000Y-101600000D03*
X175260000Y-99060000D03*
X175260000Y-107950000D03*
X175260000Y-110490000D03*
X175260000Y-114300000D03*
X173990000Y-105410000D03*
X175260000Y-115570000D03*
X189230000Y-96520000D03*
X180340000Y-123190000D03*
X189230000Y-99060000D03*
X186690000Y-123190000D03*
X190500000Y-100330000D03*
X187960000Y-119380000D03*
X189230016Y-102870000D03*
X190500000Y-104140000D03*
X190500000Y-123190000D03*
X190500000Y-110490000D03*
X190500000Y-110490000D03*
X191770000Y-106680000D03*
X191770000Y-125730000D03*
X191770000Y-110490000D03*
X205740000Y-105410000D03*
X205740000Y-124460000D03*
X204470000Y-104140000D03*
X204470000Y-123190000D03*
X203200000Y-102870000D03*
X203200000Y-121920000D03*
X203200000Y-99060000D03*
X201930000Y-101600000D03*
X201930000Y-120650000D03*
X201930000Y-97790000D03*
X200660000Y-100330000D03*
X200660000Y-119380000D03*
X199390000Y-99060000D03*
X199390000Y-118110000D03*
X198120000Y-97790000D03*
X198120000Y-116840000D03*
X198120000Y-107950000D03*
X196850000Y-96520000D03*
X196850000Y-115570000D03*
X196850000Y-109220000D03*
X187960000Y-120650000D03*
X186690000Y-119380000D03*
X187960000Y-115570000D03*
X215900000Y-119380000D03*
X165001501Y-113128499D03*
X143510000Y-113030000D03*
X181610000Y-104140000D03*
X166150000Y-120650000D03*
X177800000Y-120650000D03*
X144780000Y-123190000D03*
D16*
X135890000Y-107950000D02*
X135890000Y-118110000D01*
X135890000Y-118110000D02*
X127000000Y-118110000D01*
X127000000Y-118110000D02*
X127000000Y-119380000D01*
X125730000Y-99060000D02*
X125730000Y-101600000D01*
X129540000Y-105410000D02*
X135890000Y-105410000D01*
X125730000Y-101600000D02*
X129540000Y-105410000D01*
X144780000Y-90170000D02*
X144780000Y-92710000D01*
X144780000Y-92710000D02*
X156210000Y-92710000D01*
X143256000Y-87376000D02*
X143256000Y-85090000D01*
X144780000Y-90170000D02*
X144780000Y-88900000D01*
X144780000Y-88900000D02*
X143510000Y-87630000D01*
X143510000Y-87630000D02*
X143256000Y-87376000D01*
X144780000Y-90170000D02*
X139700000Y-90170000D01*
X139700000Y-90170000D02*
X138430000Y-91440000D01*
X118110000Y-110490000D02*
X118110000Y-114300000D01*
X118110000Y-126760000D02*
X118230000Y-126880000D01*
X118110000Y-114300000D02*
X118110000Y-126760000D01*
X125560000Y-86360000D02*
X130640000Y-91440000D01*
X124460000Y-86360000D02*
X125560000Y-86360000D01*
X130810000Y-91440000D02*
X118110000Y-91440000D01*
X130640000Y-91440000D02*
X130810000Y-91440000D01*
X130810000Y-91440000D02*
X138430000Y-91440000D01*
X118110000Y-114300000D02*
X121920000Y-114300000D01*
X121920000Y-116840000D02*
X118110000Y-116840000D01*
X165100000Y-114300000D02*
X165100000Y-127000000D01*
X165100000Y-127000000D02*
X163830000Y-127000000D01*
X163830000Y-129540000D02*
X160020000Y-133350000D01*
X163830000Y-127000000D02*
X163830000Y-129540000D01*
X160020000Y-133350000D02*
X157480000Y-133350000D01*
X160020000Y-92710000D02*
X165100000Y-97790000D01*
X156210000Y-92710000D02*
X160020000Y-92710000D01*
X118110000Y-101600000D02*
X119380000Y-101600000D01*
X118110000Y-91440000D02*
X118110000Y-101600000D01*
X118110000Y-101600000D02*
X118110000Y-110490000D01*
X165100000Y-97790000D02*
X163830000Y-97790000D01*
X163830000Y-97790000D02*
X161290000Y-100330000D01*
X161290000Y-100330000D02*
X161290000Y-110490000D01*
X161290000Y-110490000D02*
X162560000Y-111760000D01*
X162560000Y-111760000D02*
X167640000Y-111760000D01*
X195580000Y-90170000D02*
X195580000Y-87630000D01*
X195580000Y-87630000D02*
X162560000Y-87630000D01*
X162560000Y-90170000D02*
X160020000Y-92710000D01*
X162560000Y-87630000D02*
X162560000Y-90170000D01*
X181610000Y-107950000D02*
X181610000Y-124460000D01*
X181610000Y-128270000D02*
X181610000Y-124460000D01*
X208280000Y-130810000D02*
X208280000Y-130810000D01*
X184150000Y-130810000D02*
X181610000Y-128270000D01*
X208280000Y-130810000D02*
X184150000Y-130810000D01*
X138430000Y-93980000D02*
X138430000Y-91440000D01*
X154940000Y-133350000D02*
X151130000Y-129540000D01*
X151130000Y-129540000D02*
X143510000Y-129540000D01*
X143510000Y-129540000D02*
X143510000Y-118110000D01*
X143510000Y-118110000D02*
X146050000Y-115570000D01*
X191770000Y-95250000D02*
X191770000Y-93980000D01*
X190500000Y-92710000D02*
X190500000Y-88900000D01*
X191770000Y-93980000D02*
X190500000Y-92710000D01*
X191770000Y-95250000D02*
X193040000Y-96520000D01*
X193040000Y-96520000D02*
X193040000Y-113030000D01*
X193040000Y-113030000D02*
X193040000Y-113030000D01*
X135890000Y-106680000D02*
X134620000Y-106680000D01*
X134620000Y-106680000D02*
X133350000Y-107950000D01*
X133350000Y-107950000D02*
X133350000Y-111760000D01*
X133350000Y-111760000D02*
X124460000Y-111760000D01*
X138430000Y-106680000D02*
X144780000Y-106680000D01*
X135890000Y-104140000D02*
X138430000Y-106680000D01*
X135890000Y-101600000D02*
X135890000Y-104140000D01*
X142240000Y-107950000D02*
X142240000Y-119380000D01*
X142240000Y-119380000D02*
X142240000Y-119380000D01*
X139700000Y-104140000D02*
X140970000Y-105410000D01*
X140970000Y-105410000D02*
X142240000Y-105410000D01*
X142240000Y-105410000D02*
X142240000Y-105410000D01*
X135175001Y-94705001D02*
X134450000Y-93980000D01*
X138974999Y-94705001D02*
X135175001Y-94705001D01*
X134450000Y-93980000D02*
X133350000Y-93980000D01*
X139700000Y-93980000D02*
X138974999Y-94705001D01*
X139700000Y-104140000D02*
X139700000Y-99060000D01*
X160020000Y-100330000D02*
X160020000Y-101600000D01*
X160020000Y-101600000D02*
X157480000Y-104140000D01*
X157480000Y-104140000D02*
X152400000Y-104140000D01*
X152400000Y-104140000D02*
X151130000Y-105410000D01*
X166370000Y-100330000D02*
X162560000Y-100330000D01*
X175260000Y-91440000D02*
X166370000Y-100330000D01*
X186690000Y-91440000D02*
X175260000Y-91440000D01*
X184150000Y-100330000D02*
X181610000Y-102870000D01*
X184150000Y-93980000D02*
X184150000Y-100330000D01*
X179070000Y-106680000D02*
X179070000Y-129540000D01*
X179070000Y-129540000D02*
X177800000Y-130810000D01*
X177800000Y-130810000D02*
X177800000Y-130810000D01*
X180170000Y-106680000D02*
X187960000Y-98890000D01*
X179070000Y-106680000D02*
X180170000Y-106680000D01*
X187960000Y-98890000D02*
X187960000Y-93980000D01*
X177800000Y-101600000D02*
X176530000Y-102870000D01*
X176530000Y-102870000D02*
X176530000Y-128270000D01*
X176530000Y-128270000D02*
X175260000Y-129540000D01*
X175260000Y-129540000D02*
X175260000Y-129540000D01*
X157480000Y-105410000D02*
X157480000Y-106680000D01*
X157480000Y-106680000D02*
X160020000Y-109220000D01*
X160020000Y-109220000D02*
X160020000Y-120650000D01*
X160020000Y-120650000D02*
X160020000Y-120650000D01*
X156210000Y-102870000D02*
X146050000Y-102870000D01*
X146050000Y-121920000D02*
X156210000Y-121920000D01*
X151130000Y-106680000D02*
X151130000Y-116840000D01*
X151130000Y-116840000D02*
X151130000Y-121920000D01*
X162560000Y-105410000D02*
X172720000Y-105410000D01*
X172720000Y-101600000D02*
X162560000Y-101600000D01*
X172720000Y-101600000D02*
X172720000Y-105410000D01*
X171450000Y-127000000D02*
X172720000Y-127000000D01*
X172720000Y-105410000D02*
X172720000Y-116840000D01*
X172720000Y-116840000D02*
X173990000Y-118110000D01*
X173990000Y-118110000D02*
X173990000Y-125730000D01*
X173990000Y-125730000D02*
X172720000Y-127000000D01*
X175260000Y-107950000D02*
X175260000Y-99060000D01*
X175260000Y-110490000D02*
X175260000Y-114300000D01*
X174440010Y-105860010D02*
X174440010Y-114750010D01*
X173990000Y-105410000D02*
X174440010Y-105860010D01*
X174440010Y-114750010D02*
X175260000Y-115570000D01*
X188504999Y-97245001D02*
X189230000Y-96520000D01*
X188504999Y-99981999D02*
X188504999Y-97245001D01*
X180340000Y-108146998D02*
X188504999Y-99981999D01*
X180340000Y-108146998D02*
X180340000Y-111760000D01*
X180340000Y-111760000D02*
X180340000Y-123190000D01*
X180340000Y-123190000D02*
X180340000Y-123190000D01*
X189230000Y-99060000D02*
X189230000Y-101600000D01*
X189230000Y-101600000D02*
X187960000Y-101600000D01*
X187960000Y-101600000D02*
X184150000Y-105410000D01*
X184150000Y-105410000D02*
X184150000Y-120650000D01*
X184150000Y-120650000D02*
X186690000Y-123190000D01*
X186690000Y-123190000D02*
X186690000Y-123190000D01*
X188685001Y-103792015D02*
X188685001Y-118654999D01*
X188882015Y-102144999D02*
X187960000Y-103067014D01*
X187960000Y-103067014D02*
X188685001Y-103792015D01*
X189578017Y-102144999D02*
X188882015Y-102144999D01*
X190500000Y-101223016D02*
X189578017Y-102144999D01*
X190500000Y-100330000D02*
X190500000Y-101223016D01*
X188685001Y-118654999D02*
X187960000Y-119380000D01*
X187960000Y-119380000D02*
X187960000Y-119380000D01*
X210820000Y-120650000D02*
X204470000Y-127000000D01*
X204470000Y-127000000D02*
X189230000Y-127000000D01*
X189230016Y-102870000D02*
X189230016Y-124459984D01*
X189230000Y-127000000D02*
X189230000Y-124460000D01*
X189230000Y-124460000D02*
X189230016Y-124459984D01*
X190500000Y-104140000D02*
X190500000Y-110490000D01*
X190500000Y-110490000D02*
X190500000Y-110490000D01*
X190500000Y-110490000D02*
X190500000Y-123190000D01*
X191770000Y-106680000D02*
X191770000Y-125730000D01*
X205740000Y-105410000D02*
X205740000Y-124460000D01*
X210820000Y-97790000D02*
X205740000Y-97790000D01*
X205740000Y-97790000D02*
X205740000Y-105410000D01*
X204470000Y-123190000D02*
X204470000Y-104140000D01*
X213360000Y-97790000D02*
X212090000Y-96520000D01*
X212090000Y-96520000D02*
X204470000Y-96520000D01*
X204470000Y-96520000D02*
X204470000Y-104140000D01*
X203200000Y-102870000D02*
X203200000Y-121920000D01*
X203200000Y-102870000D02*
X203200000Y-99060000D01*
X201930000Y-120650000D02*
X201930000Y-101600000D01*
X201930000Y-97790000D02*
X201930000Y-101600000D01*
X200660000Y-101796998D02*
X200660000Y-100330000D01*
X200660000Y-119380000D02*
X200660000Y-101796998D01*
X199390000Y-99060000D02*
X199390000Y-118110000D01*
X198120000Y-99256998D02*
X198120000Y-97790000D01*
X198120000Y-116840000D02*
X198120000Y-99256998D01*
X196850000Y-96520000D02*
X196850000Y-115570000D01*
X187960000Y-128270000D02*
X187960000Y-120650000D01*
X210330870Y-127000000D02*
X209060870Y-128270000D01*
X217170000Y-127000000D02*
X210330870Y-127000000D01*
X217170000Y-111760000D02*
X217170000Y-127000000D01*
X209060870Y-128270000D02*
X187960000Y-128270000D01*
X215900000Y-110490000D02*
X217170000Y-111760000D01*
X213360000Y-110490000D02*
X215900000Y-110490000D01*
X186690000Y-119380000D02*
X186690000Y-116840000D01*
X186690000Y-116840000D02*
X187960000Y-115570000D01*
X187960000Y-115570000D02*
X187960000Y-115570000D01*
X213360000Y-113030000D02*
X214630000Y-113030000D01*
X214630000Y-113030000D02*
X215900000Y-114300000D01*
X215900000Y-114300000D02*
X215900000Y-119380000D01*
X215900000Y-119380000D02*
X215900000Y-119380000D01*
X167640000Y-133350000D02*
X167640000Y-127000000D01*
X167640000Y-115766998D02*
X165001501Y-113128499D01*
X167640000Y-127000000D02*
X167640000Y-115766998D01*
X165001501Y-113128499D02*
X164903002Y-113030000D01*
X135890000Y-105410000D02*
X137160000Y-106680000D01*
X142588001Y-107224999D02*
X141695001Y-107224999D01*
X143510000Y-108146998D02*
X142588001Y-107224999D01*
X143510000Y-113030000D02*
X143510000Y-108146998D01*
X140970000Y-107950000D02*
X137160000Y-107950000D01*
X141695001Y-107224999D02*
X140970000Y-107950000D01*
X137160000Y-106680000D02*
X137160000Y-107950000D01*
X181610000Y-104140000D02*
X177800000Y-104140000D01*
X177800000Y-104140000D02*
X177800000Y-111760000D01*
X177800000Y-111760000D02*
X177800000Y-120650000D01*
X177800000Y-120650000D02*
X177800000Y-120650000D01*
X144780000Y-123190000D02*
X144780000Y-123190000D01*
X146775001Y-106135001D02*
X146775001Y-118654999D01*
X144780000Y-104140000D02*
X146775001Y-106135001D01*
X144780000Y-120650000D02*
X144780000Y-123190000D01*
X143510000Y-104140000D02*
X144780000Y-104140000D01*
X146775001Y-118654999D02*
X144780000Y-120650000D01*
X143510000Y-97790000D02*
X143510000Y-104140000D01*
D17*
G36*
X130099369Y-84031331D02*
G01*
X129930890Y-84438075D01*
X129845000Y-84869872D01*
X129845000Y-85310128D01*
X129930890Y-85741925D01*
X130099369Y-86148669D01*
X130343962Y-86514729D01*
X130655271Y-86826038D01*
X131021331Y-87070631D01*
X131428075Y-87239110D01*
X131859872Y-87325000D01*
X132300128Y-87325000D01*
X132731925Y-87239110D01*
X133138669Y-87070631D01*
X133504729Y-86826038D01*
X133816038Y-86514729D01*
X134060631Y-86148669D01*
X134229110Y-85741925D01*
X134246906Y-85652460D01*
X134307958Y-85799853D01*
X134471961Y-86045302D01*
X134680698Y-86254039D01*
X134926147Y-86418042D01*
X135198875Y-86531010D01*
X135488401Y-86588600D01*
X135783599Y-86588600D01*
X136073125Y-86531010D01*
X136345853Y-86418042D01*
X136591302Y-86254039D01*
X136800039Y-86045302D01*
X136906000Y-85886719D01*
X137011961Y-86045302D01*
X137220698Y-86254039D01*
X137466147Y-86418042D01*
X137738875Y-86531010D01*
X138028401Y-86588600D01*
X138323599Y-86588600D01*
X138613125Y-86531010D01*
X138885853Y-86418042D01*
X139131302Y-86254039D01*
X139340039Y-86045302D01*
X139446000Y-85886719D01*
X139551961Y-86045302D01*
X139760698Y-86254039D01*
X140006147Y-86418042D01*
X140278875Y-86531010D01*
X140568401Y-86588600D01*
X140863599Y-86588600D01*
X141153125Y-86531010D01*
X141425853Y-86418042D01*
X141671302Y-86254039D01*
X141880039Y-86045302D01*
X141987692Y-85884187D01*
X142149146Y-86100293D01*
X142367512Y-86296817D01*
X142620022Y-86446964D01*
X142896973Y-86544963D01*
X143129000Y-86424464D01*
X143129000Y-85217000D01*
X143109000Y-85217000D01*
X143109000Y-84963000D01*
X143129000Y-84963000D01*
X143129000Y-84943000D01*
X143383000Y-84943000D01*
X143383000Y-84963000D01*
X143403000Y-84963000D01*
X143403000Y-85217000D01*
X143383000Y-85217000D01*
X143383000Y-86424464D01*
X143615027Y-86544963D01*
X143891978Y-86446964D01*
X144144488Y-86296817D01*
X144362854Y-86100293D01*
X144524308Y-85884187D01*
X144631961Y-86045302D01*
X144840698Y-86254039D01*
X145086147Y-86418042D01*
X145358875Y-86531010D01*
X145648401Y-86588600D01*
X145943599Y-86588600D01*
X146233125Y-86531010D01*
X146505853Y-86418042D01*
X146751302Y-86254039D01*
X146960039Y-86045302D01*
X147066000Y-85886719D01*
X147171961Y-86045302D01*
X147380698Y-86254039D01*
X147626147Y-86418042D01*
X147898875Y-86531010D01*
X148188401Y-86588600D01*
X148483599Y-86588600D01*
X148773125Y-86531010D01*
X149045853Y-86418042D01*
X149291302Y-86254039D01*
X149500039Y-86045302D01*
X149606000Y-85886719D01*
X149711961Y-86045302D01*
X149920698Y-86254039D01*
X150166147Y-86418042D01*
X150438875Y-86531010D01*
X150728401Y-86588600D01*
X151023599Y-86588600D01*
X151313125Y-86531010D01*
X151585853Y-86418042D01*
X151831302Y-86254039D01*
X152040039Y-86045302D01*
X152146000Y-85886719D01*
X152251961Y-86045302D01*
X152460698Y-86254039D01*
X152706147Y-86418042D01*
X152978875Y-86531010D01*
X153268401Y-86588600D01*
X153563599Y-86588600D01*
X153853125Y-86531010D01*
X154125853Y-86418042D01*
X154371302Y-86254039D01*
X154580039Y-86045302D01*
X154686000Y-85886719D01*
X154791961Y-86045302D01*
X155000698Y-86254039D01*
X155246147Y-86418042D01*
X155518875Y-86531010D01*
X155808401Y-86588600D01*
X156103599Y-86588600D01*
X156393125Y-86531010D01*
X156665853Y-86418042D01*
X156911302Y-86254039D01*
X157120039Y-86045302D01*
X157226000Y-85886719D01*
X157331961Y-86045302D01*
X157540698Y-86254039D01*
X157786147Y-86418042D01*
X158058875Y-86531010D01*
X158348401Y-86588600D01*
X158643599Y-86588600D01*
X158933125Y-86531010D01*
X159205853Y-86418042D01*
X159451302Y-86254039D01*
X159660039Y-86045302D01*
X159824042Y-85799853D01*
X159937010Y-85527125D01*
X159994600Y-85237599D01*
X159994600Y-84942401D01*
X159937010Y-84652875D01*
X159824042Y-84380147D01*
X159660039Y-84134698D01*
X159472341Y-83947000D01*
X161583659Y-83947000D01*
X161395961Y-84134698D01*
X161231958Y-84380147D01*
X161118990Y-84652875D01*
X161061400Y-84942401D01*
X161061400Y-85237599D01*
X161118990Y-85527125D01*
X161231958Y-85799853D01*
X161395961Y-86045302D01*
X161604698Y-86254039D01*
X161850147Y-86418042D01*
X162122875Y-86531010D01*
X162412401Y-86588600D01*
X162707599Y-86588600D01*
X162997125Y-86531010D01*
X163269853Y-86418042D01*
X163515302Y-86254039D01*
X163724039Y-86045302D01*
X163830000Y-85886719D01*
X163935961Y-86045302D01*
X164144698Y-86254039D01*
X164390147Y-86418042D01*
X164662875Y-86531010D01*
X164952401Y-86588600D01*
X165247599Y-86588600D01*
X165537125Y-86531010D01*
X165809853Y-86418042D01*
X166055302Y-86254039D01*
X166264039Y-86045302D01*
X166370000Y-85886719D01*
X166475961Y-86045302D01*
X166684698Y-86254039D01*
X166930147Y-86418042D01*
X167202875Y-86531010D01*
X167492401Y-86588600D01*
X167787599Y-86588600D01*
X168077125Y-86531010D01*
X168349853Y-86418042D01*
X168595302Y-86254039D01*
X168804039Y-86045302D01*
X168910000Y-85886719D01*
X169015961Y-86045302D01*
X169224698Y-86254039D01*
X169470147Y-86418042D01*
X169742875Y-86531010D01*
X170032401Y-86588600D01*
X170327599Y-86588600D01*
X170617125Y-86531010D01*
X170889853Y-86418042D01*
X171135302Y-86254039D01*
X171344039Y-86045302D01*
X171450000Y-85886719D01*
X171555961Y-86045302D01*
X171764698Y-86254039D01*
X172010147Y-86418042D01*
X172282875Y-86531010D01*
X172572401Y-86588600D01*
X172867599Y-86588600D01*
X173157125Y-86531010D01*
X173429853Y-86418042D01*
X173675302Y-86254039D01*
X173884039Y-86045302D01*
X173990000Y-85886719D01*
X174095961Y-86045302D01*
X174304698Y-86254039D01*
X174550147Y-86418042D01*
X174822875Y-86531010D01*
X175112401Y-86588600D01*
X175407599Y-86588600D01*
X175697125Y-86531010D01*
X175969853Y-86418042D01*
X176215302Y-86254039D01*
X176424039Y-86045302D01*
X176530000Y-85886719D01*
X176635961Y-86045302D01*
X176844698Y-86254039D01*
X177090147Y-86418042D01*
X177362875Y-86531010D01*
X177652401Y-86588600D01*
X177947599Y-86588600D01*
X178237125Y-86531010D01*
X178509853Y-86418042D01*
X178755302Y-86254039D01*
X178964039Y-86045302D01*
X179070000Y-85886719D01*
X179175961Y-86045302D01*
X179384698Y-86254039D01*
X179630147Y-86418042D01*
X179902875Y-86531010D01*
X180192401Y-86588600D01*
X180487599Y-86588600D01*
X180777125Y-86531010D01*
X181049853Y-86418042D01*
X181295302Y-86254039D01*
X181504039Y-86045302D01*
X181668042Y-85799853D01*
X181781010Y-85527125D01*
X181838600Y-85237599D01*
X181838600Y-84942401D01*
X181781010Y-84652875D01*
X181668042Y-84380147D01*
X181504039Y-84134698D01*
X181316341Y-83947000D01*
X184443659Y-83947000D01*
X184255961Y-84134698D01*
X184091958Y-84380147D01*
X183978990Y-84652875D01*
X183921400Y-84942401D01*
X183921400Y-85237599D01*
X183978990Y-85527125D01*
X184091958Y-85799853D01*
X184255961Y-86045302D01*
X184464698Y-86254039D01*
X184710147Y-86418042D01*
X184982875Y-86531010D01*
X185272401Y-86588600D01*
X185567599Y-86588600D01*
X185857125Y-86531010D01*
X186129853Y-86418042D01*
X186375302Y-86254039D01*
X186584039Y-86045302D01*
X186690000Y-85886719D01*
X186795961Y-86045302D01*
X187004698Y-86254039D01*
X187250147Y-86418042D01*
X187522875Y-86531010D01*
X187812401Y-86588600D01*
X188107599Y-86588600D01*
X188397125Y-86531010D01*
X188669853Y-86418042D01*
X188915302Y-86254039D01*
X189124039Y-86045302D01*
X189230000Y-85886719D01*
X189335961Y-86045302D01*
X189544698Y-86254039D01*
X189790147Y-86418042D01*
X190062875Y-86531010D01*
X190352401Y-86588600D01*
X190647599Y-86588600D01*
X190937125Y-86531010D01*
X191209853Y-86418042D01*
X191455302Y-86254039D01*
X191664039Y-86045302D01*
X191770000Y-85886719D01*
X191875961Y-86045302D01*
X192084698Y-86254039D01*
X192330147Y-86418042D01*
X192602875Y-86531010D01*
X192892401Y-86588600D01*
X193187599Y-86588600D01*
X193477125Y-86531010D01*
X193749853Y-86418042D01*
X193995302Y-86254039D01*
X194204039Y-86045302D01*
X194310000Y-85886719D01*
X194415961Y-86045302D01*
X194624698Y-86254039D01*
X194870147Y-86418042D01*
X195142875Y-86531010D01*
X195432401Y-86588600D01*
X195727599Y-86588600D01*
X196017125Y-86531010D01*
X196289853Y-86418042D01*
X196535302Y-86254039D01*
X196744039Y-86045302D01*
X196850000Y-85886719D01*
X196955961Y-86045302D01*
X197164698Y-86254039D01*
X197410147Y-86418042D01*
X197682875Y-86531010D01*
X197972401Y-86588600D01*
X198267599Y-86588600D01*
X198557125Y-86531010D01*
X198829853Y-86418042D01*
X199075302Y-86254039D01*
X199284039Y-86045302D01*
X199390000Y-85886719D01*
X199495961Y-86045302D01*
X199704698Y-86254039D01*
X199950147Y-86418042D01*
X200222875Y-86531010D01*
X200512401Y-86588600D01*
X200807599Y-86588600D01*
X201097125Y-86531010D01*
X201369853Y-86418042D01*
X201615302Y-86254039D01*
X201824039Y-86045302D01*
X201930000Y-85886719D01*
X202035961Y-86045302D01*
X202244698Y-86254039D01*
X202490147Y-86418042D01*
X202762875Y-86531010D01*
X203052401Y-86588600D01*
X203347599Y-86588600D01*
X203637125Y-86531010D01*
X203909853Y-86418042D01*
X204155302Y-86254039D01*
X204364039Y-86045302D01*
X204528042Y-85799853D01*
X204641010Y-85527125D01*
X204698600Y-85237599D01*
X204698600Y-84942401D01*
X204641010Y-84652875D01*
X204528042Y-84380147D01*
X204364039Y-84134698D01*
X204176341Y-83947000D01*
X205085717Y-83947000D01*
X205029369Y-84031331D01*
X204860890Y-84438075D01*
X204775000Y-84869872D01*
X204775000Y-85310128D01*
X204860890Y-85741925D01*
X205029369Y-86148669D01*
X205273962Y-86514729D01*
X205585271Y-86826038D01*
X205951331Y-87070631D01*
X206358075Y-87239110D01*
X206789872Y-87325000D01*
X207230128Y-87325000D01*
X207661925Y-87239110D01*
X208068669Y-87070631D01*
X208434729Y-86826038D01*
X208746038Y-86514729D01*
X208990631Y-86148669D01*
X209159110Y-85741925D01*
X209245000Y-85310128D01*
X209245000Y-84869872D01*
X209159110Y-84438075D01*
X208990631Y-84031331D01*
X208934283Y-83947000D01*
X209843659Y-83947000D01*
X209655961Y-84134698D01*
X209491958Y-84380147D01*
X209378990Y-84652875D01*
X209321400Y-84942401D01*
X209321400Y-85237599D01*
X209378990Y-85527125D01*
X209491958Y-85799853D01*
X209655961Y-86045302D01*
X209864698Y-86254039D01*
X210023281Y-86360000D01*
X209864698Y-86465961D01*
X209655961Y-86674698D01*
X209491958Y-86920147D01*
X209378990Y-87192875D01*
X209321400Y-87482401D01*
X209321400Y-87777599D01*
X209378990Y-88067125D01*
X209491958Y-88339853D01*
X209655961Y-88585302D01*
X209864698Y-88794039D01*
X210023281Y-88900000D01*
X209864698Y-89005961D01*
X209655961Y-89214698D01*
X209491958Y-89460147D01*
X209378990Y-89732875D01*
X209321400Y-90022401D01*
X209321400Y-90317599D01*
X209378990Y-90607125D01*
X209491958Y-90879853D01*
X209655961Y-91125302D01*
X209864698Y-91334039D01*
X210023281Y-91440000D01*
X209864698Y-91545961D01*
X209655961Y-91754698D01*
X209491958Y-92000147D01*
X209378990Y-92272875D01*
X209321400Y-92562401D01*
X209321400Y-92857599D01*
X209378990Y-93147125D01*
X209491958Y-93419853D01*
X209655961Y-93665302D01*
X209864698Y-93874039D01*
X210023281Y-93980000D01*
X209864698Y-94085961D01*
X209655961Y-94294698D01*
X209491958Y-94540147D01*
X209378990Y-94812875D01*
X209321400Y-95102401D01*
X209321400Y-95397599D01*
X209378990Y-95687125D01*
X209409176Y-95760000D01*
X204507333Y-95760000D01*
X204470000Y-95756323D01*
X204432667Y-95760000D01*
X204321014Y-95770997D01*
X204177753Y-95814454D01*
X204045724Y-95885026D01*
X203929999Y-95979999D01*
X203835026Y-96095724D01*
X203764454Y-96227753D01*
X203720997Y-96371014D01*
X203706323Y-96520000D01*
X203710000Y-96557333D01*
X203710000Y-98155988D01*
X203690256Y-98142795D01*
X203501898Y-98064774D01*
X203301939Y-98025000D01*
X203098061Y-98025000D01*
X202931961Y-98058039D01*
X202965000Y-97891939D01*
X202965000Y-97688061D01*
X202925226Y-97488102D01*
X202847205Y-97299744D01*
X202733937Y-97130226D01*
X202589774Y-96986063D01*
X202420256Y-96872795D01*
X202231898Y-96794774D01*
X202031939Y-96755000D01*
X201828061Y-96755000D01*
X201628102Y-96794774D01*
X201439744Y-96872795D01*
X201270226Y-96986063D01*
X201126063Y-97130226D01*
X201012795Y-97299744D01*
X200934774Y-97488102D01*
X200895000Y-97688061D01*
X200895000Y-97891939D01*
X200934774Y-98091898D01*
X201012795Y-98280256D01*
X201126063Y-98449774D01*
X201170000Y-98493711D01*
X201170000Y-99425988D01*
X201150256Y-99412795D01*
X200961898Y-99334774D01*
X200761939Y-99295000D01*
X200558061Y-99295000D01*
X200391961Y-99328039D01*
X200425000Y-99161939D01*
X200425000Y-98958061D01*
X200385226Y-98758102D01*
X200307205Y-98569744D01*
X200193937Y-98400226D01*
X200049774Y-98256063D01*
X199880256Y-98142795D01*
X199691898Y-98064774D01*
X199491939Y-98025000D01*
X199288061Y-98025000D01*
X199121961Y-98058039D01*
X199155000Y-97891939D01*
X199155000Y-97688061D01*
X199115226Y-97488102D01*
X199037205Y-97299744D01*
X198923937Y-97130226D01*
X198779774Y-96986063D01*
X198610256Y-96872795D01*
X198421898Y-96794774D01*
X198221939Y-96755000D01*
X198018061Y-96755000D01*
X197851961Y-96788039D01*
X197885000Y-96621939D01*
X197885000Y-96418061D01*
X197845226Y-96218102D01*
X197767205Y-96029744D01*
X197653937Y-95860226D01*
X197509774Y-95716063D01*
X197340256Y-95602795D01*
X197151898Y-95524774D01*
X196951939Y-95485000D01*
X196748061Y-95485000D01*
X196548102Y-95524774D01*
X196359744Y-95602795D01*
X196190226Y-95716063D01*
X196046063Y-95860226D01*
X195932795Y-96029744D01*
X195854774Y-96218102D01*
X195815000Y-96418061D01*
X195815000Y-96621939D01*
X195854774Y-96821898D01*
X195932795Y-97010256D01*
X196046063Y-97179774D01*
X196090000Y-97223711D01*
X196090001Y-108516288D01*
X196046063Y-108560226D01*
X195932795Y-108729744D01*
X195854774Y-108918102D01*
X195815000Y-109118061D01*
X195815000Y-109321939D01*
X195854774Y-109521898D01*
X195932795Y-109710256D01*
X196046063Y-109879774D01*
X196090001Y-109923712D01*
X196090001Y-114866288D01*
X196046063Y-114910226D01*
X195932795Y-115079744D01*
X195854774Y-115268102D01*
X195815000Y-115468061D01*
X195815000Y-115671939D01*
X195854774Y-115871898D01*
X195932795Y-116060256D01*
X196046063Y-116229774D01*
X196190226Y-116373937D01*
X196359744Y-116487205D01*
X196548102Y-116565226D01*
X196748061Y-116605000D01*
X196951939Y-116605000D01*
X197118039Y-116571961D01*
X197085000Y-116738061D01*
X197085000Y-116941939D01*
X197124774Y-117141898D01*
X197202795Y-117330256D01*
X197316063Y-117499774D01*
X197460226Y-117643937D01*
X197629744Y-117757205D01*
X197818102Y-117835226D01*
X198018061Y-117875000D01*
X198221939Y-117875000D01*
X198388039Y-117841961D01*
X198355000Y-118008061D01*
X198355000Y-118211939D01*
X198394774Y-118411898D01*
X198472795Y-118600256D01*
X198586063Y-118769774D01*
X198730226Y-118913937D01*
X198899744Y-119027205D01*
X199088102Y-119105226D01*
X199288061Y-119145000D01*
X199491939Y-119145000D01*
X199658039Y-119111961D01*
X199625000Y-119278061D01*
X199625000Y-119481939D01*
X199664774Y-119681898D01*
X199742795Y-119870256D01*
X199856063Y-120039774D01*
X200000226Y-120183937D01*
X200169744Y-120297205D01*
X200358102Y-120375226D01*
X200558061Y-120415000D01*
X200761939Y-120415000D01*
X200928039Y-120381961D01*
X200895000Y-120548061D01*
X200895000Y-120751939D01*
X200934774Y-120951898D01*
X201012795Y-121140256D01*
X201126063Y-121309774D01*
X201270226Y-121453937D01*
X201439744Y-121567205D01*
X201628102Y-121645226D01*
X201828061Y-121685000D01*
X202031939Y-121685000D01*
X202198039Y-121651961D01*
X202165000Y-121818061D01*
X202165000Y-122021939D01*
X202204774Y-122221898D01*
X202282795Y-122410256D01*
X202396063Y-122579774D01*
X202540226Y-122723937D01*
X202709744Y-122837205D01*
X202898102Y-122915226D01*
X203098061Y-122955000D01*
X203301939Y-122955000D01*
X203468039Y-122921961D01*
X203435000Y-123088061D01*
X203435000Y-123291939D01*
X203474774Y-123491898D01*
X203552795Y-123680256D01*
X203666063Y-123849774D01*
X203810226Y-123993937D01*
X203979744Y-124107205D01*
X204168102Y-124185226D01*
X204368061Y-124225000D01*
X204571939Y-124225000D01*
X204738039Y-124191961D01*
X204705000Y-124358061D01*
X204705000Y-124561939D01*
X204744774Y-124761898D01*
X204822795Y-124950256D01*
X204936063Y-125119774D01*
X205080226Y-125263937D01*
X205110820Y-125284379D01*
X204155199Y-126240000D01*
X192674013Y-126240000D01*
X192687205Y-126220256D01*
X192765226Y-126031898D01*
X192805000Y-125831939D01*
X192805000Y-125628061D01*
X192765226Y-125428102D01*
X192687205Y-125239744D01*
X192573937Y-125070226D01*
X192530000Y-125026289D01*
X192530000Y-113934013D01*
X192549744Y-113947205D01*
X192738102Y-114025226D01*
X192938061Y-114065000D01*
X193141939Y-114065000D01*
X193341898Y-114025226D01*
X193530256Y-113947205D01*
X193699774Y-113833937D01*
X193843937Y-113689774D01*
X193957205Y-113520256D01*
X194035226Y-113331898D01*
X194075000Y-113131939D01*
X194075000Y-112928061D01*
X194035226Y-112728102D01*
X193957205Y-112539744D01*
X193843937Y-112370226D01*
X193800000Y-112326289D01*
X193800000Y-96557322D01*
X193803676Y-96519999D01*
X193800000Y-96482676D01*
X193800000Y-96482667D01*
X193789003Y-96371014D01*
X193745546Y-96227753D01*
X193674974Y-96095724D01*
X193580001Y-95979999D01*
X193551003Y-95956201D01*
X192805000Y-95210199D01*
X192805000Y-95148061D01*
X192765226Y-94948102D01*
X192687205Y-94759744D01*
X192573937Y-94590226D01*
X192530000Y-94546289D01*
X192530000Y-94017322D01*
X192533676Y-93979999D01*
X192530000Y-93942676D01*
X192530000Y-93942667D01*
X192519003Y-93831014D01*
X192475546Y-93687753D01*
X192404974Y-93555724D01*
X192310001Y-93439999D01*
X192281003Y-93416201D01*
X191260000Y-92395199D01*
X191260000Y-89603711D01*
X191303937Y-89559774D01*
X191417205Y-89390256D01*
X191495226Y-89201898D01*
X191535000Y-89001939D01*
X191535000Y-88798061D01*
X191495226Y-88598102D01*
X191417205Y-88409744D01*
X191303937Y-88240226D01*
X191159774Y-88096063D01*
X190990256Y-87982795D01*
X190801898Y-87904774D01*
X190601939Y-87865000D01*
X190398061Y-87865000D01*
X190198102Y-87904774D01*
X190009744Y-87982795D01*
X189840226Y-88096063D01*
X189696063Y-88240226D01*
X189582795Y-88409744D01*
X189504774Y-88598102D01*
X189465000Y-88798061D01*
X189465000Y-89001939D01*
X189504774Y-89201898D01*
X189582795Y-89390256D01*
X189696063Y-89559774D01*
X189740001Y-89603712D01*
X189740000Y-92672677D01*
X189736324Y-92710000D01*
X189740000Y-92747322D01*
X189740000Y-92747332D01*
X189750997Y-92858985D01*
X189794454Y-93002246D01*
X189865026Y-93134276D01*
X189899320Y-93176063D01*
X189959999Y-93250001D01*
X189989003Y-93273804D01*
X191010001Y-94294803D01*
X191010001Y-94546288D01*
X190966063Y-94590226D01*
X190852795Y-94759744D01*
X190774774Y-94948102D01*
X190735000Y-95148061D01*
X190735000Y-95351939D01*
X190774774Y-95551898D01*
X190852795Y-95740256D01*
X190966063Y-95909774D01*
X191110226Y-96053937D01*
X191279744Y-96167205D01*
X191468102Y-96245226D01*
X191668061Y-96285000D01*
X191730199Y-96285000D01*
X192280000Y-96834802D01*
X192280001Y-105775988D01*
X192260256Y-105762795D01*
X192071898Y-105684774D01*
X191871939Y-105645000D01*
X191668061Y-105645000D01*
X191468102Y-105684774D01*
X191279744Y-105762795D01*
X191260000Y-105775987D01*
X191260000Y-104843711D01*
X191303937Y-104799774D01*
X191417205Y-104630256D01*
X191495226Y-104441898D01*
X191535000Y-104241939D01*
X191535000Y-104038061D01*
X191495226Y-103838102D01*
X191417205Y-103649744D01*
X191303937Y-103480226D01*
X191159774Y-103336063D01*
X190990256Y-103222795D01*
X190801898Y-103144774D01*
X190601939Y-103105000D01*
X190398061Y-103105000D01*
X190231978Y-103138036D01*
X190265016Y-102971939D01*
X190265016Y-102768061D01*
X190225984Y-102571833D01*
X191011003Y-101786815D01*
X191040001Y-101763017D01*
X191134974Y-101647292D01*
X191205546Y-101515263D01*
X191249003Y-101372002D01*
X191260000Y-101260349D01*
X191260000Y-101260339D01*
X191263676Y-101223016D01*
X191260000Y-101185693D01*
X191260000Y-101033711D01*
X191303937Y-100989774D01*
X191417205Y-100820256D01*
X191495226Y-100631898D01*
X191535000Y-100431939D01*
X191535000Y-100228061D01*
X191495226Y-100028102D01*
X191417205Y-99839744D01*
X191303937Y-99670226D01*
X191159774Y-99526063D01*
X190990256Y-99412795D01*
X190801898Y-99334774D01*
X190601939Y-99295000D01*
X190398061Y-99295000D01*
X190231961Y-99328039D01*
X190265000Y-99161939D01*
X190265000Y-98958061D01*
X190225226Y-98758102D01*
X190147205Y-98569744D01*
X190033937Y-98400226D01*
X189889774Y-98256063D01*
X189720256Y-98142795D01*
X189531898Y-98064774D01*
X189331939Y-98025000D01*
X189264999Y-98025000D01*
X189264999Y-97559802D01*
X189269801Y-97555000D01*
X189331939Y-97555000D01*
X189531898Y-97515226D01*
X189720256Y-97437205D01*
X189889774Y-97323937D01*
X190033937Y-97179774D01*
X190147205Y-97010256D01*
X190225226Y-96821898D01*
X190265000Y-96621939D01*
X190265000Y-96418061D01*
X190225226Y-96218102D01*
X190147205Y-96029744D01*
X190033937Y-95860226D01*
X189889774Y-95716063D01*
X189720256Y-95602795D01*
X189531898Y-95524774D01*
X189331939Y-95485000D01*
X189128061Y-95485000D01*
X188928102Y-95524774D01*
X188739744Y-95602795D01*
X188720000Y-95615987D01*
X188720000Y-94683711D01*
X188763937Y-94639774D01*
X188877205Y-94470256D01*
X188955226Y-94281898D01*
X188995000Y-94081939D01*
X188995000Y-93878061D01*
X188955226Y-93678102D01*
X188877205Y-93489744D01*
X188763937Y-93320226D01*
X188619774Y-93176063D01*
X188450256Y-93062795D01*
X188261898Y-92984774D01*
X188061939Y-92945000D01*
X187858061Y-92945000D01*
X187658102Y-92984774D01*
X187469744Y-93062795D01*
X187300226Y-93176063D01*
X187156063Y-93320226D01*
X187042795Y-93489744D01*
X186964774Y-93678102D01*
X186925000Y-93878061D01*
X186925000Y-94081939D01*
X186964774Y-94281898D01*
X187042795Y-94470256D01*
X187156063Y-94639774D01*
X187200001Y-94683712D01*
X187200000Y-98575198D01*
X182605704Y-103169495D01*
X182645000Y-102971939D01*
X182645000Y-102909801D01*
X184661008Y-100893795D01*
X184690001Y-100870001D01*
X184713795Y-100841008D01*
X184713799Y-100841004D01*
X184784973Y-100754277D01*
X184784974Y-100754276D01*
X184855546Y-100622247D01*
X184899003Y-100478986D01*
X184910000Y-100367333D01*
X184910000Y-100367324D01*
X184913676Y-100330001D01*
X184910000Y-100292678D01*
X184910000Y-94683711D01*
X184953937Y-94639774D01*
X185067205Y-94470256D01*
X185145226Y-94281898D01*
X185185000Y-94081939D01*
X185185000Y-93878061D01*
X185145226Y-93678102D01*
X185067205Y-93489744D01*
X184953937Y-93320226D01*
X184809774Y-93176063D01*
X184640256Y-93062795D01*
X184451898Y-92984774D01*
X184251939Y-92945000D01*
X184048061Y-92945000D01*
X183848102Y-92984774D01*
X183659744Y-93062795D01*
X183490226Y-93176063D01*
X183346063Y-93320226D01*
X183232795Y-93489744D01*
X183154774Y-93678102D01*
X183115000Y-93878061D01*
X183115000Y-94081939D01*
X183154774Y-94281898D01*
X183232795Y-94470256D01*
X183346063Y-94639774D01*
X183390000Y-94683711D01*
X183390001Y-100015196D01*
X181570199Y-101835000D01*
X181508061Y-101835000D01*
X181308102Y-101874774D01*
X181119744Y-101952795D01*
X180950226Y-102066063D01*
X180806063Y-102210226D01*
X180692795Y-102379744D01*
X180614774Y-102568102D01*
X180575000Y-102768061D01*
X180575000Y-102971939D01*
X180614774Y-103171898D01*
X180692795Y-103360256D01*
X180705987Y-103380000D01*
X177837333Y-103380000D01*
X177800000Y-103376323D01*
X177762667Y-103380000D01*
X177651014Y-103390997D01*
X177507753Y-103434454D01*
X177375724Y-103505026D01*
X177290000Y-103575378D01*
X177290000Y-103184801D01*
X177839802Y-102635000D01*
X177901939Y-102635000D01*
X178101898Y-102595226D01*
X178290256Y-102517205D01*
X178459774Y-102403937D01*
X178603937Y-102259774D01*
X178717205Y-102090256D01*
X178795226Y-101901898D01*
X178835000Y-101701939D01*
X178835000Y-101498061D01*
X178795226Y-101298102D01*
X178717205Y-101109744D01*
X178603937Y-100940226D01*
X178459774Y-100796063D01*
X178290256Y-100682795D01*
X178101898Y-100604774D01*
X177901939Y-100565000D01*
X177698061Y-100565000D01*
X177498102Y-100604774D01*
X177309744Y-100682795D01*
X177140226Y-100796063D01*
X176996063Y-100940226D01*
X176882795Y-101109744D01*
X176804774Y-101298102D01*
X176765000Y-101498061D01*
X176765000Y-101560198D01*
X176020000Y-102305199D01*
X176020000Y-99763711D01*
X176063937Y-99719774D01*
X176177205Y-99550256D01*
X176255226Y-99361898D01*
X176295000Y-99161939D01*
X176295000Y-98958061D01*
X176255226Y-98758102D01*
X176177205Y-98569744D01*
X176063937Y-98400226D01*
X175919774Y-98256063D01*
X175750256Y-98142795D01*
X175561898Y-98064774D01*
X175361939Y-98025000D01*
X175158061Y-98025000D01*
X174958102Y-98064774D01*
X174769744Y-98142795D01*
X174600226Y-98256063D01*
X174456063Y-98400226D01*
X174342795Y-98569744D01*
X174264774Y-98758102D01*
X174225000Y-98958061D01*
X174225000Y-99161939D01*
X174264774Y-99361898D01*
X174342795Y-99550256D01*
X174456063Y-99719774D01*
X174500001Y-99763712D01*
X174500000Y-104505988D01*
X174480256Y-104492795D01*
X174291898Y-104414774D01*
X174091939Y-104375000D01*
X173888061Y-104375000D01*
X173688102Y-104414774D01*
X173499744Y-104492795D01*
X173480000Y-104505987D01*
X173480000Y-102303711D01*
X173523937Y-102259774D01*
X173637205Y-102090256D01*
X173715226Y-101901898D01*
X173755000Y-101701939D01*
X173755000Y-101498061D01*
X173715226Y-101298102D01*
X173637205Y-101109744D01*
X173523937Y-100940226D01*
X173379774Y-100796063D01*
X173210256Y-100682795D01*
X173021898Y-100604774D01*
X172821939Y-100565000D01*
X172618061Y-100565000D01*
X172418102Y-100604774D01*
X172229744Y-100682795D01*
X172060226Y-100796063D01*
X172016289Y-100840000D01*
X166934801Y-100840000D01*
X175574802Y-92200000D01*
X185986289Y-92200000D01*
X186030226Y-92243937D01*
X186199744Y-92357205D01*
X186388102Y-92435226D01*
X186588061Y-92475000D01*
X186791939Y-92475000D01*
X186991898Y-92435226D01*
X187180256Y-92357205D01*
X187349774Y-92243937D01*
X187493937Y-92099774D01*
X187607205Y-91930256D01*
X187685226Y-91741898D01*
X187725000Y-91541939D01*
X187725000Y-91338061D01*
X187685226Y-91138102D01*
X187607205Y-90949744D01*
X187493937Y-90780226D01*
X187349774Y-90636063D01*
X187180256Y-90522795D01*
X186991898Y-90444774D01*
X186791939Y-90405000D01*
X186588061Y-90405000D01*
X186388102Y-90444774D01*
X186199744Y-90522795D01*
X186030226Y-90636063D01*
X185986289Y-90680000D01*
X175297333Y-90680000D01*
X175260000Y-90676323D01*
X175222667Y-90680000D01*
X175111014Y-90690997D01*
X174967753Y-90734454D01*
X174835724Y-90805026D01*
X174719999Y-90899999D01*
X174696201Y-90928997D01*
X166055199Y-99570000D01*
X163263711Y-99570000D01*
X163219774Y-99526063D01*
X163050256Y-99412795D01*
X162861898Y-99334774D01*
X162661939Y-99295000D01*
X162458061Y-99295000D01*
X162258102Y-99334774D01*
X162069744Y-99412795D01*
X161900226Y-99526063D01*
X161756063Y-99670226D01*
X161642795Y-99839744D01*
X161564774Y-100028102D01*
X161525000Y-100228061D01*
X161525000Y-100431939D01*
X161564774Y-100631898D01*
X161642795Y-100820256D01*
X161739510Y-100965000D01*
X161642795Y-101109744D01*
X161564774Y-101298102D01*
X161525000Y-101498061D01*
X161525000Y-101701939D01*
X161564774Y-101901898D01*
X161642795Y-102090256D01*
X161756063Y-102259774D01*
X161900226Y-102403937D01*
X162069744Y-102517205D01*
X162258102Y-102595226D01*
X162458061Y-102635000D01*
X162661939Y-102635000D01*
X162861898Y-102595226D01*
X163050256Y-102517205D01*
X163219774Y-102403937D01*
X163263711Y-102360000D01*
X171960000Y-102360000D01*
X171960001Y-104650000D01*
X163263711Y-104650000D01*
X163219774Y-104606063D01*
X163050256Y-104492795D01*
X162861898Y-104414774D01*
X162661939Y-104375000D01*
X162458061Y-104375000D01*
X162258102Y-104414774D01*
X162069744Y-104492795D01*
X161900226Y-104606063D01*
X161756063Y-104750226D01*
X161642795Y-104919744D01*
X161564774Y-105108102D01*
X161525000Y-105308061D01*
X161525000Y-105511939D01*
X161564774Y-105711898D01*
X161642795Y-105900256D01*
X161756063Y-106069774D01*
X161900226Y-106213937D01*
X162069744Y-106327205D01*
X162258102Y-106405226D01*
X162458061Y-106445000D01*
X162661939Y-106445000D01*
X162861898Y-106405226D01*
X163050256Y-106327205D01*
X163219774Y-106213937D01*
X163263711Y-106170000D01*
X171960000Y-106170000D01*
X171960001Y-116802667D01*
X171956324Y-116840000D01*
X171970998Y-116988985D01*
X172014454Y-117132246D01*
X172085026Y-117264276D01*
X172139175Y-117330256D01*
X172180000Y-117380001D01*
X172208998Y-117403799D01*
X173230000Y-118424802D01*
X173230001Y-125415197D01*
X172562297Y-126082901D01*
X172364759Y-125885363D01*
X172132241Y-125730000D01*
X172364759Y-125574637D01*
X172564637Y-125374759D01*
X172721680Y-125139727D01*
X172829853Y-124878574D01*
X172885000Y-124601335D01*
X172885000Y-124318665D01*
X172829853Y-124041426D01*
X172721680Y-123780273D01*
X172564637Y-123545241D01*
X172364759Y-123345363D01*
X172132241Y-123190000D01*
X172364759Y-123034637D01*
X172564637Y-122834759D01*
X172721680Y-122599727D01*
X172829853Y-122338574D01*
X172885000Y-122061335D01*
X172885000Y-121778665D01*
X172829853Y-121501426D01*
X172721680Y-121240273D01*
X172564637Y-121005241D01*
X172364759Y-120805363D01*
X172132241Y-120650000D01*
X172364759Y-120494637D01*
X172564637Y-120294759D01*
X172721680Y-120059727D01*
X172829853Y-119798574D01*
X172885000Y-119521335D01*
X172885000Y-119238665D01*
X172829853Y-118961426D01*
X172721680Y-118700273D01*
X172564637Y-118465241D01*
X172364759Y-118265363D01*
X172129727Y-118108320D01*
X171868574Y-118000147D01*
X171591335Y-117945000D01*
X171308665Y-117945000D01*
X171031426Y-118000147D01*
X170770273Y-118108320D01*
X170535241Y-118265363D01*
X170335363Y-118465241D01*
X170178320Y-118700273D01*
X170070147Y-118961426D01*
X170015000Y-119238665D01*
X170015000Y-119521335D01*
X170070147Y-119798574D01*
X170178320Y-120059727D01*
X170335363Y-120294759D01*
X170535241Y-120494637D01*
X170767759Y-120650000D01*
X170535241Y-120805363D01*
X170335363Y-121005241D01*
X170178320Y-121240273D01*
X170070147Y-121501426D01*
X170015000Y-121778665D01*
X170015000Y-122061335D01*
X170070147Y-122338574D01*
X170178320Y-122599727D01*
X170335363Y-122834759D01*
X170535241Y-123034637D01*
X170767759Y-123190000D01*
X170535241Y-123345363D01*
X170335363Y-123545241D01*
X170178320Y-123780273D01*
X170070147Y-124041426D01*
X170015000Y-124318665D01*
X170015000Y-124601335D01*
X170070147Y-124878574D01*
X170178320Y-125139727D01*
X170335363Y-125374759D01*
X170535241Y-125574637D01*
X170767759Y-125730000D01*
X170535241Y-125885363D01*
X170335363Y-126085241D01*
X170178320Y-126320273D01*
X170070147Y-126581426D01*
X170015000Y-126858665D01*
X170015000Y-127141335D01*
X170070147Y-127418574D01*
X170178320Y-127679727D01*
X170335363Y-127914759D01*
X170535241Y-128114637D01*
X170770273Y-128271680D01*
X171031426Y-128379853D01*
X171308665Y-128435000D01*
X171591335Y-128435000D01*
X171868574Y-128379853D01*
X172129727Y-128271680D01*
X172364759Y-128114637D01*
X172564637Y-127914759D01*
X172668043Y-127760000D01*
X172682678Y-127760000D01*
X172720000Y-127763676D01*
X172757322Y-127760000D01*
X172757333Y-127760000D01*
X172868986Y-127749003D01*
X173012247Y-127705546D01*
X173144276Y-127634974D01*
X173260001Y-127540001D01*
X173283804Y-127510997D01*
X174501003Y-126293799D01*
X174530001Y-126270001D01*
X174624974Y-126154276D01*
X174695546Y-126022247D01*
X174739003Y-125878986D01*
X174750000Y-125767333D01*
X174750000Y-125767324D01*
X174753676Y-125730001D01*
X174750000Y-125692678D01*
X174750000Y-118147322D01*
X174753676Y-118109999D01*
X174750000Y-118072676D01*
X174750000Y-118072667D01*
X174739003Y-117961014D01*
X174695546Y-117817753D01*
X174624974Y-117685724D01*
X174530001Y-117569999D01*
X174501004Y-117546202D01*
X173480000Y-116525199D01*
X173480000Y-106314013D01*
X173499744Y-106327205D01*
X173680010Y-106401874D01*
X173680011Y-114712678D01*
X173676334Y-114750010D01*
X173680011Y-114787343D01*
X173681881Y-114806324D01*
X173691008Y-114898995D01*
X173734464Y-115042256D01*
X173805036Y-115174286D01*
X173864410Y-115246632D01*
X173900010Y-115290011D01*
X173929008Y-115313809D01*
X174225000Y-115609801D01*
X174225000Y-115671939D01*
X174264774Y-115871898D01*
X174342795Y-116060256D01*
X174456063Y-116229774D01*
X174600226Y-116373937D01*
X174769744Y-116487205D01*
X174958102Y-116565226D01*
X175158061Y-116605000D01*
X175361939Y-116605000D01*
X175561898Y-116565226D01*
X175750256Y-116487205D01*
X175770001Y-116474012D01*
X175770001Y-127955197D01*
X175220199Y-128505000D01*
X175158061Y-128505000D01*
X174958102Y-128544774D01*
X174769744Y-128622795D01*
X174600226Y-128736063D01*
X174456063Y-128880226D01*
X174342795Y-129049744D01*
X174264774Y-129238102D01*
X174225000Y-129438061D01*
X174225000Y-129641939D01*
X174264774Y-129841898D01*
X174342795Y-130030256D01*
X174456063Y-130199774D01*
X174600226Y-130343937D01*
X174769744Y-130457205D01*
X174958102Y-130535226D01*
X175158061Y-130575000D01*
X175361939Y-130575000D01*
X175561898Y-130535226D01*
X175750256Y-130457205D01*
X175919774Y-130343937D01*
X176063937Y-130199774D01*
X176177205Y-130030256D01*
X176255226Y-129841898D01*
X176295000Y-129641939D01*
X176295000Y-129579801D01*
X177041003Y-128833799D01*
X177070001Y-128810001D01*
X177164974Y-128694276D01*
X177235546Y-128562247D01*
X177279003Y-128418986D01*
X177290000Y-128307333D01*
X177290000Y-128307324D01*
X177293676Y-128270001D01*
X177290000Y-128232678D01*
X177290000Y-121554013D01*
X177309744Y-121567205D01*
X177498102Y-121645226D01*
X177698061Y-121685000D01*
X177901939Y-121685000D01*
X178101898Y-121645226D01*
X178290256Y-121567205D01*
X178310001Y-121554012D01*
X178310001Y-129225197D01*
X177760199Y-129775000D01*
X177698061Y-129775000D01*
X177498102Y-129814774D01*
X177309744Y-129892795D01*
X177140226Y-130006063D01*
X176996063Y-130150226D01*
X176882795Y-130319744D01*
X176804774Y-130508102D01*
X176765000Y-130708061D01*
X176765000Y-130911939D01*
X176804774Y-131111898D01*
X176882795Y-131300256D01*
X176996063Y-131469774D01*
X177140226Y-131613937D01*
X177309744Y-131727205D01*
X177498102Y-131805226D01*
X177698061Y-131845000D01*
X177901939Y-131845000D01*
X178101898Y-131805226D01*
X178290256Y-131727205D01*
X178459774Y-131613937D01*
X178603937Y-131469774D01*
X178717205Y-131300256D01*
X178795226Y-131111898D01*
X178835000Y-130911939D01*
X178835000Y-130849801D01*
X179581003Y-130103799D01*
X179610001Y-130080001D01*
X179704974Y-129964276D01*
X179775546Y-129832247D01*
X179819003Y-129688986D01*
X179830000Y-129577333D01*
X179830000Y-129577324D01*
X179833676Y-129540001D01*
X179830000Y-129502678D01*
X179830000Y-124094013D01*
X179849744Y-124107205D01*
X180038102Y-124185226D01*
X180238061Y-124225000D01*
X180441939Y-124225000D01*
X180641898Y-124185226D01*
X180830256Y-124107205D01*
X180999774Y-123993937D01*
X181143937Y-123849774D01*
X181257205Y-123680256D01*
X181335226Y-123491898D01*
X181375000Y-123291939D01*
X181375000Y-123088061D01*
X181335226Y-122888102D01*
X181257205Y-122699744D01*
X181143937Y-122530226D01*
X181100000Y-122486289D01*
X181100000Y-108461799D01*
X183390000Y-106171799D01*
X183390001Y-120612667D01*
X183386324Y-120650000D01*
X183390001Y-120687332D01*
X183390001Y-120687333D01*
X183400998Y-120798986D01*
X183403069Y-120805812D01*
X183444454Y-120942246D01*
X183515026Y-121074276D01*
X183569175Y-121140256D01*
X183610000Y-121190001D01*
X183638998Y-121213799D01*
X185655000Y-123229803D01*
X185655000Y-123291939D01*
X185694774Y-123491898D01*
X185772795Y-123680256D01*
X185886063Y-123849774D01*
X186030226Y-123993937D01*
X186199744Y-124107205D01*
X186388102Y-124185226D01*
X186588061Y-124225000D01*
X186791939Y-124225000D01*
X186991898Y-124185226D01*
X187180256Y-124107205D01*
X187200001Y-124094012D01*
X187200000Y-128232667D01*
X187196323Y-128270000D01*
X187210997Y-128418986D01*
X187254454Y-128562247D01*
X187325026Y-128694276D01*
X187359320Y-128736063D01*
X187419999Y-128810001D01*
X187535724Y-128904974D01*
X187667753Y-128975546D01*
X187811014Y-129019003D01*
X187960000Y-129033677D01*
X187997333Y-129030000D01*
X209023548Y-129030000D01*
X209060870Y-129033676D01*
X209098192Y-129030000D01*
X209098203Y-129030000D01*
X209209856Y-129019003D01*
X209353117Y-128975546D01*
X209473487Y-128911206D01*
X209537316Y-129044944D01*
X209713146Y-129280293D01*
X209931512Y-129476817D01*
X210184022Y-129626964D01*
X210460973Y-129724963D01*
X210693000Y-129604464D01*
X210693000Y-128397000D01*
X210673000Y-128397000D01*
X210673000Y-128143000D01*
X210693000Y-128143000D01*
X210693000Y-128123000D01*
X210947000Y-128123000D01*
X210947000Y-128143000D01*
X210967000Y-128143000D01*
X210967000Y-128397000D01*
X210947000Y-128397000D01*
X210947000Y-129604464D01*
X211179027Y-129724963D01*
X211455978Y-129626964D01*
X211708488Y-129476817D01*
X211926854Y-129280293D01*
X212088308Y-129064187D01*
X212195961Y-129225302D01*
X212404698Y-129434039D01*
X212650147Y-129598042D01*
X212922875Y-129711010D01*
X213212401Y-129768600D01*
X213507599Y-129768600D01*
X213797125Y-129711010D01*
X214069853Y-129598042D01*
X214315302Y-129434039D01*
X214524039Y-129225302D01*
X214688042Y-128979853D01*
X214801010Y-128707125D01*
X214858600Y-128417599D01*
X214858600Y-128122401D01*
X214801010Y-127832875D01*
X214770824Y-127760000D01*
X217043000Y-127760000D01*
X217043000Y-132027394D01*
X215595000Y-133475394D01*
X215595000Y-133129872D01*
X215509110Y-132698075D01*
X215340631Y-132291331D01*
X215096038Y-131925271D01*
X214784729Y-131613962D01*
X214418669Y-131369369D01*
X214011925Y-131200890D01*
X213580128Y-131115000D01*
X213139872Y-131115000D01*
X212708075Y-131200890D01*
X212301331Y-131369369D01*
X211935271Y-131613962D01*
X211623962Y-131925271D01*
X211379369Y-132291331D01*
X211210890Y-132698075D01*
X211125000Y-133129872D01*
X211125000Y-133570128D01*
X211210890Y-134001925D01*
X211379369Y-134408669D01*
X211435717Y-134493000D01*
X209256341Y-134493000D01*
X209444039Y-134305302D01*
X209608042Y-134059853D01*
X209721010Y-133787125D01*
X209778600Y-133497599D01*
X209778600Y-133202401D01*
X209721010Y-132912875D01*
X209608042Y-132640147D01*
X209444039Y-132394698D01*
X209235302Y-132185961D01*
X208989853Y-132021958D01*
X208717125Y-131908990D01*
X208427599Y-131851400D01*
X208132401Y-131851400D01*
X207842875Y-131908990D01*
X207570147Y-132021958D01*
X207324698Y-132185961D01*
X207115961Y-132394698D01*
X207010000Y-132553281D01*
X206904039Y-132394698D01*
X206695302Y-132185961D01*
X206449853Y-132021958D01*
X206177125Y-131908990D01*
X205887599Y-131851400D01*
X205592401Y-131851400D01*
X205302875Y-131908990D01*
X205030147Y-132021958D01*
X204784698Y-132185961D01*
X204575961Y-132394698D01*
X204470000Y-132553281D01*
X204364039Y-132394698D01*
X204155302Y-132185961D01*
X203909853Y-132021958D01*
X203637125Y-131908990D01*
X203347599Y-131851400D01*
X203052401Y-131851400D01*
X202762875Y-131908990D01*
X202490147Y-132021958D01*
X202244698Y-132185961D01*
X202035961Y-132394698D01*
X201930000Y-132553281D01*
X201824039Y-132394698D01*
X201615302Y-132185961D01*
X201369853Y-132021958D01*
X201097125Y-131908990D01*
X200807599Y-131851400D01*
X200512401Y-131851400D01*
X200222875Y-131908990D01*
X199950147Y-132021958D01*
X199704698Y-132185961D01*
X199495961Y-132394698D01*
X199390000Y-132553281D01*
X199284039Y-132394698D01*
X199075302Y-132185961D01*
X198829853Y-132021958D01*
X198557125Y-131908990D01*
X198267599Y-131851400D01*
X197972401Y-131851400D01*
X197682875Y-131908990D01*
X197410147Y-132021958D01*
X197164698Y-132185961D01*
X196955961Y-132394698D01*
X196850000Y-132553281D01*
X196744039Y-132394698D01*
X196535302Y-132185961D01*
X196289853Y-132021958D01*
X196017125Y-131908990D01*
X195727599Y-131851400D01*
X195432401Y-131851400D01*
X195142875Y-131908990D01*
X194870147Y-132021958D01*
X194624698Y-132185961D01*
X194415961Y-132394698D01*
X194310000Y-132553281D01*
X194204039Y-132394698D01*
X193995302Y-132185961D01*
X193749853Y-132021958D01*
X193477125Y-131908990D01*
X193187599Y-131851400D01*
X192892401Y-131851400D01*
X192602875Y-131908990D01*
X192330147Y-132021958D01*
X192084698Y-132185961D01*
X191875961Y-132394698D01*
X191770000Y-132553281D01*
X191664039Y-132394698D01*
X191455302Y-132185961D01*
X191209853Y-132021958D01*
X190937125Y-131908990D01*
X190647599Y-131851400D01*
X190352401Y-131851400D01*
X190062875Y-131908990D01*
X189790147Y-132021958D01*
X189544698Y-132185961D01*
X189335961Y-132394698D01*
X189171958Y-132640147D01*
X189058990Y-132912875D01*
X189001400Y-133202401D01*
X189001400Y-133497599D01*
X189058990Y-133787125D01*
X189171958Y-134059853D01*
X189335961Y-134305302D01*
X189523659Y-134493000D01*
X186396341Y-134493000D01*
X186584039Y-134305302D01*
X186748042Y-134059853D01*
X186861010Y-133787125D01*
X186918600Y-133497599D01*
X186918600Y-133202401D01*
X186861010Y-132912875D01*
X186748042Y-132640147D01*
X186584039Y-132394698D01*
X186375302Y-132185961D01*
X186129853Y-132021958D01*
X185857125Y-131908990D01*
X185567599Y-131851400D01*
X185272401Y-131851400D01*
X184982875Y-131908990D01*
X184710147Y-132021958D01*
X184464698Y-132185961D01*
X184255961Y-132394698D01*
X184150000Y-132553281D01*
X184044039Y-132394698D01*
X183835302Y-132185961D01*
X183589853Y-132021958D01*
X183317125Y-131908990D01*
X183027599Y-131851400D01*
X182732401Y-131851400D01*
X182442875Y-131908990D01*
X182170147Y-132021958D01*
X181924698Y-132185961D01*
X181715961Y-132394698D01*
X181610000Y-132553281D01*
X181504039Y-132394698D01*
X181295302Y-132185961D01*
X181049853Y-132021958D01*
X180777125Y-131908990D01*
X180487599Y-131851400D01*
X180192401Y-131851400D01*
X179902875Y-131908990D01*
X179630147Y-132021958D01*
X179384698Y-132185961D01*
X179175961Y-132394698D01*
X179070000Y-132553281D01*
X178964039Y-132394698D01*
X178755302Y-132185961D01*
X178509853Y-132021958D01*
X178237125Y-131908990D01*
X177947599Y-131851400D01*
X177652401Y-131851400D01*
X177362875Y-131908990D01*
X177090147Y-132021958D01*
X176844698Y-132185961D01*
X176635961Y-132394698D01*
X176530000Y-132553281D01*
X176424039Y-132394698D01*
X176215302Y-132185961D01*
X175969853Y-132021958D01*
X175697125Y-131908990D01*
X175407599Y-131851400D01*
X175112401Y-131851400D01*
X174822875Y-131908990D01*
X174550147Y-132021958D01*
X174304698Y-132185961D01*
X174095961Y-132394698D01*
X173990000Y-132553281D01*
X173884039Y-132394698D01*
X173675302Y-132185961D01*
X173429853Y-132021958D01*
X173157125Y-131908990D01*
X172867599Y-131851400D01*
X172572401Y-131851400D01*
X172282875Y-131908990D01*
X172010147Y-132021958D01*
X171764698Y-132185961D01*
X171555961Y-132394698D01*
X171450000Y-132553281D01*
X171344039Y-132394698D01*
X171135302Y-132185961D01*
X170889853Y-132021958D01*
X170617125Y-131908990D01*
X170327599Y-131851400D01*
X170032401Y-131851400D01*
X169742875Y-131908990D01*
X169470147Y-132021958D01*
X169224698Y-132185961D01*
X169015961Y-132394698D01*
X168910000Y-132553281D01*
X168804039Y-132394698D01*
X168595302Y-132185961D01*
X168400000Y-132055465D01*
X168400000Y-115804320D01*
X168403676Y-115766997D01*
X168400000Y-115729674D01*
X168400000Y-115729665D01*
X168389003Y-115618012D01*
X168345546Y-115474751D01*
X168281537Y-115355000D01*
X168274974Y-115342721D01*
X168203799Y-115255995D01*
X168180001Y-115226997D01*
X168151003Y-115203199D01*
X166036501Y-113088698D01*
X166036501Y-113026560D01*
X165996727Y-112826601D01*
X165918706Y-112638243D01*
X165805438Y-112468725D01*
X165661275Y-112324562D01*
X165491757Y-112211294D01*
X165303399Y-112133273D01*
X165103440Y-112093499D01*
X164899562Y-112093499D01*
X164699603Y-112133273D01*
X164511245Y-112211294D01*
X164341727Y-112324562D01*
X164197564Y-112468725D01*
X164084296Y-112638243D01*
X164006275Y-112826601D01*
X163966501Y-113026560D01*
X163966501Y-113230438D01*
X164006275Y-113430397D01*
X164084296Y-113618755D01*
X164197564Y-113788273D01*
X164341727Y-113932436D01*
X164511245Y-114045704D01*
X164699603Y-114123725D01*
X164899562Y-114163499D01*
X164961700Y-114163499D01*
X166880001Y-116081801D01*
X166880001Y-119916290D01*
X166809774Y-119846063D01*
X166640256Y-119732795D01*
X166451898Y-119654774D01*
X166251939Y-119615000D01*
X166048061Y-119615000D01*
X165848102Y-119654774D01*
X165659744Y-119732795D01*
X165490226Y-119846063D01*
X165346063Y-119990226D01*
X165268072Y-120106948D01*
X165268072Y-118580000D01*
X165255812Y-118455518D01*
X165219502Y-118335820D01*
X165160537Y-118225506D01*
X165081185Y-118128815D01*
X164984494Y-118049463D01*
X164874180Y-117990498D01*
X164754482Y-117954188D01*
X164630000Y-117941928D01*
X163030000Y-117941928D01*
X162905518Y-117954188D01*
X162785820Y-117990498D01*
X162675506Y-118049463D01*
X162578815Y-118128815D01*
X162499463Y-118225506D01*
X162440498Y-118335820D01*
X162404188Y-118455518D01*
X162391928Y-118580000D01*
X162391928Y-120180000D01*
X162404188Y-120304482D01*
X162440498Y-120424180D01*
X162499463Y-120534494D01*
X162578815Y-120631185D01*
X162675506Y-120710537D01*
X162785820Y-120769502D01*
X162905518Y-120805812D01*
X162913961Y-120806643D01*
X162715363Y-121005241D01*
X162558320Y-121240273D01*
X162450147Y-121501426D01*
X162395000Y-121778665D01*
X162395000Y-122061335D01*
X162450147Y-122338574D01*
X162558320Y-122599727D01*
X162715363Y-122834759D01*
X162915241Y-123034637D01*
X163147759Y-123190000D01*
X162915241Y-123345363D01*
X162715363Y-123545241D01*
X162558320Y-123780273D01*
X162450147Y-124041426D01*
X162395000Y-124318665D01*
X162395000Y-124601335D01*
X162450147Y-124878574D01*
X162558320Y-125139727D01*
X162715363Y-125374759D01*
X162915241Y-125574637D01*
X163150273Y-125731680D01*
X163160865Y-125736067D01*
X162974869Y-125847615D01*
X162766481Y-126036586D01*
X162598963Y-126262580D01*
X162478754Y-126516913D01*
X162438096Y-126650961D01*
X162560085Y-126873000D01*
X163703000Y-126873000D01*
X163703000Y-126853000D01*
X163957000Y-126853000D01*
X163957000Y-126873000D01*
X165099915Y-126873000D01*
X165221904Y-126650961D01*
X165181246Y-126516913D01*
X165061037Y-126262580D01*
X164893519Y-126036586D01*
X164685131Y-125847615D01*
X164499135Y-125736067D01*
X164509727Y-125731680D01*
X164744759Y-125574637D01*
X164944637Y-125374759D01*
X165101680Y-125139727D01*
X165209853Y-124878574D01*
X165265000Y-124601335D01*
X165265000Y-124318665D01*
X165209853Y-124041426D01*
X165101680Y-123780273D01*
X164944637Y-123545241D01*
X164744759Y-123345363D01*
X164512241Y-123190000D01*
X164744759Y-123034637D01*
X164944637Y-122834759D01*
X165101680Y-122599727D01*
X165209853Y-122338574D01*
X165265000Y-122061335D01*
X165265000Y-121778665D01*
X165209853Y-121501426D01*
X165101680Y-121240273D01*
X164944637Y-121005241D01*
X164746039Y-120806643D01*
X164754482Y-120805812D01*
X164874180Y-120769502D01*
X164984494Y-120710537D01*
X165081185Y-120631185D01*
X165115000Y-120589981D01*
X165115000Y-120751939D01*
X165154774Y-120951898D01*
X165232795Y-121140256D01*
X165346063Y-121309774D01*
X165490226Y-121453937D01*
X165659744Y-121567205D01*
X165848102Y-121645226D01*
X166048061Y-121685000D01*
X166251939Y-121685000D01*
X166451898Y-121645226D01*
X166640256Y-121567205D01*
X166809774Y-121453937D01*
X166880000Y-121383711D01*
X166880000Y-127037332D01*
X166880001Y-127037342D01*
X166880000Y-132055465D01*
X166684698Y-132185961D01*
X166475961Y-132394698D01*
X166311958Y-132640147D01*
X166198990Y-132912875D01*
X166141400Y-133202401D01*
X166141400Y-133497599D01*
X166198990Y-133787125D01*
X166311958Y-134059853D01*
X166475961Y-134305302D01*
X166663659Y-134493000D01*
X163536341Y-134493000D01*
X163724039Y-134305302D01*
X163888042Y-134059853D01*
X164001010Y-133787125D01*
X164058600Y-133497599D01*
X164058600Y-133202401D01*
X164001010Y-132912875D01*
X163888042Y-132640147D01*
X163724039Y-132394698D01*
X163515302Y-132185961D01*
X163269853Y-132021958D01*
X162997125Y-131908990D01*
X162707599Y-131851400D01*
X162412401Y-131851400D01*
X162122875Y-131908990D01*
X161850147Y-132021958D01*
X161604698Y-132185961D01*
X161395961Y-132394698D01*
X161288308Y-132555813D01*
X161126854Y-132339707D01*
X160908488Y-132143183D01*
X160655978Y-131993036D01*
X160379027Y-131895037D01*
X160147000Y-132015536D01*
X160147000Y-133223000D01*
X160167000Y-133223000D01*
X160167000Y-133477000D01*
X160147000Y-133477000D01*
X160147000Y-133497000D01*
X159893000Y-133497000D01*
X159893000Y-133477000D01*
X157607000Y-133477000D01*
X157607000Y-133497000D01*
X157353000Y-133497000D01*
X157353000Y-133477000D01*
X157333000Y-133477000D01*
X157333000Y-133223000D01*
X157353000Y-133223000D01*
X157353000Y-132015536D01*
X157607000Y-132015536D01*
X157607000Y-133223000D01*
X159893000Y-133223000D01*
X159893000Y-132015536D01*
X159660973Y-131895037D01*
X159384022Y-131993036D01*
X159131512Y-132143183D01*
X158913146Y-132339707D01*
X158750000Y-132558078D01*
X158586854Y-132339707D01*
X158368488Y-132143183D01*
X158115978Y-131993036D01*
X157839027Y-131895037D01*
X157607000Y-132015536D01*
X157353000Y-132015536D01*
X157120973Y-131895037D01*
X156844022Y-131993036D01*
X156591512Y-132143183D01*
X156373146Y-132339707D01*
X156211692Y-132555813D01*
X156104039Y-132394698D01*
X155895302Y-132185961D01*
X155649853Y-132021958D01*
X155377125Y-131908990D01*
X155087599Y-131851400D01*
X154792401Y-131851400D01*
X154562026Y-131897224D01*
X151693804Y-129029003D01*
X151670001Y-128999999D01*
X151554276Y-128905026D01*
X151422247Y-128834454D01*
X151278986Y-128790997D01*
X151167333Y-128780000D01*
X151167322Y-128780000D01*
X151130000Y-128776324D01*
X151092678Y-128780000D01*
X144270000Y-128780000D01*
X144270000Y-127349039D01*
X162438096Y-127349039D01*
X162478754Y-127483087D01*
X162598963Y-127737420D01*
X162766481Y-127963414D01*
X162974869Y-128152385D01*
X163216119Y-128297070D01*
X163480960Y-128391909D01*
X163703000Y-128270624D01*
X163703000Y-127127000D01*
X163957000Y-127127000D01*
X163957000Y-128270624D01*
X164179040Y-128391909D01*
X164443881Y-128297070D01*
X164685131Y-128152385D01*
X164893519Y-127963414D01*
X165061037Y-127737420D01*
X165181246Y-127483087D01*
X165221904Y-127349039D01*
X165099915Y-127127000D01*
X163957000Y-127127000D01*
X163703000Y-127127000D01*
X162560085Y-127127000D01*
X162438096Y-127349039D01*
X144270000Y-127349039D01*
X144270000Y-124880000D01*
X157261928Y-124880000D01*
X157261928Y-126580000D01*
X157274188Y-126704482D01*
X157310498Y-126824180D01*
X157369463Y-126934494D01*
X157448815Y-127031185D01*
X157545506Y-127110537D01*
X157655820Y-127169502D01*
X157775518Y-127205812D01*
X157900000Y-127218072D01*
X159600000Y-127218072D01*
X159724482Y-127205812D01*
X159844180Y-127169502D01*
X159954494Y-127110537D01*
X160051185Y-127031185D01*
X160130537Y-126934494D01*
X160189502Y-126824180D01*
X160225812Y-126704482D01*
X160238072Y-126580000D01*
X160238072Y-124880000D01*
X160225812Y-124755518D01*
X160189502Y-124635820D01*
X160130537Y-124525506D01*
X160051185Y-124428815D01*
X159954494Y-124349463D01*
X159844180Y-124290498D01*
X159724482Y-124254188D01*
X159600000Y-124241928D01*
X157900000Y-124241928D01*
X157775518Y-124254188D01*
X157655820Y-124290498D01*
X157545506Y-124349463D01*
X157448815Y-124428815D01*
X157369463Y-124525506D01*
X157310498Y-124635820D01*
X157274188Y-124755518D01*
X157261928Y-124880000D01*
X144270000Y-124880000D01*
X144270000Y-124094013D01*
X144289744Y-124107205D01*
X144478102Y-124185226D01*
X144678061Y-124225000D01*
X144881939Y-124225000D01*
X145081898Y-124185226D01*
X145270256Y-124107205D01*
X145439774Y-123993937D01*
X145583937Y-123849774D01*
X145697205Y-123680256D01*
X145775226Y-123491898D01*
X145815000Y-123291939D01*
X145815000Y-123088061D01*
X145781961Y-122921961D01*
X145948061Y-122955000D01*
X146151939Y-122955000D01*
X146351898Y-122915226D01*
X146540256Y-122837205D01*
X146709774Y-122723937D01*
X146753711Y-122680000D01*
X151092667Y-122680000D01*
X151130000Y-122683677D01*
X151167333Y-122680000D01*
X155506289Y-122680000D01*
X155550226Y-122723937D01*
X155719744Y-122837205D01*
X155908102Y-122915226D01*
X156108061Y-122955000D01*
X156311939Y-122955000D01*
X156511898Y-122915226D01*
X156700256Y-122837205D01*
X156869774Y-122723937D01*
X157013937Y-122579774D01*
X157127205Y-122410256D01*
X157205226Y-122221898D01*
X157245000Y-122021939D01*
X157245000Y-121818061D01*
X157205226Y-121618102D01*
X157127205Y-121429744D01*
X157013937Y-121260226D01*
X156869774Y-121116063D01*
X156700256Y-121002795D01*
X156511898Y-120924774D01*
X156311939Y-120885000D01*
X156108061Y-120885000D01*
X155908102Y-120924774D01*
X155719744Y-121002795D01*
X155550226Y-121116063D01*
X155506289Y-121160000D01*
X151890000Y-121160000D01*
X151890000Y-109640000D01*
X155991928Y-109640000D01*
X155991928Y-111340000D01*
X156004188Y-111464482D01*
X156040498Y-111584180D01*
X156099463Y-111694494D01*
X156178815Y-111791185D01*
X156275506Y-111870537D01*
X156385820Y-111929502D01*
X156505518Y-111965812D01*
X156630000Y-111978072D01*
X158330000Y-111978072D01*
X158454482Y-111965812D01*
X158574180Y-111929502D01*
X158684494Y-111870537D01*
X158781185Y-111791185D01*
X158860537Y-111694494D01*
X158919502Y-111584180D01*
X158955812Y-111464482D01*
X158968072Y-111340000D01*
X158968072Y-109640000D01*
X158955812Y-109515518D01*
X158919502Y-109395820D01*
X158860537Y-109285506D01*
X158781185Y-109188815D01*
X158684494Y-109109463D01*
X158574180Y-109050498D01*
X158454482Y-109014188D01*
X158330000Y-109001928D01*
X156630000Y-109001928D01*
X156505518Y-109014188D01*
X156385820Y-109050498D01*
X156275506Y-109109463D01*
X156178815Y-109188815D01*
X156099463Y-109285506D01*
X156040498Y-109395820D01*
X156004188Y-109515518D01*
X155991928Y-109640000D01*
X151890000Y-109640000D01*
X151890000Y-107383711D01*
X151933937Y-107339774D01*
X152047205Y-107170256D01*
X152125226Y-106981898D01*
X152165000Y-106781939D01*
X152165000Y-106578061D01*
X152125226Y-106378102D01*
X152047205Y-106189744D01*
X151950490Y-106045000D01*
X152047205Y-105900256D01*
X152125226Y-105711898D01*
X152165000Y-105511939D01*
X152165000Y-105449801D01*
X152714802Y-104900000D01*
X156575987Y-104900000D01*
X156562795Y-104919744D01*
X156484774Y-105108102D01*
X156445000Y-105308061D01*
X156445000Y-105511939D01*
X156484774Y-105711898D01*
X156562795Y-105900256D01*
X156676063Y-106069774D01*
X156720001Y-106113712D01*
X156720001Y-106642667D01*
X156716324Y-106680000D01*
X156720001Y-106717333D01*
X156730998Y-106828986D01*
X156734505Y-106840546D01*
X156774454Y-106972246D01*
X156845026Y-107104276D01*
X156899175Y-107170256D01*
X156940000Y-107220001D01*
X156968998Y-107243799D01*
X159260000Y-109534803D01*
X159260001Y-119946288D01*
X159216063Y-119990226D01*
X159102795Y-120159744D01*
X159024774Y-120348102D01*
X158985000Y-120548061D01*
X158985000Y-120751939D01*
X159024774Y-120951898D01*
X159102795Y-121140256D01*
X159216063Y-121309774D01*
X159360226Y-121453937D01*
X159529744Y-121567205D01*
X159718102Y-121645226D01*
X159918061Y-121685000D01*
X160121939Y-121685000D01*
X160321898Y-121645226D01*
X160510256Y-121567205D01*
X160679774Y-121453937D01*
X160823937Y-121309774D01*
X160937205Y-121140256D01*
X161015226Y-120951898D01*
X161055000Y-120751939D01*
X161055000Y-120548061D01*
X161015226Y-120348102D01*
X160937205Y-120159744D01*
X160823937Y-119990226D01*
X160780000Y-119946289D01*
X160780000Y-109257322D01*
X160783676Y-109219999D01*
X160780000Y-109182676D01*
X160780000Y-109182667D01*
X160769003Y-109071014D01*
X160725546Y-108927753D01*
X160654974Y-108795724D01*
X160641811Y-108779685D01*
X160583799Y-108708996D01*
X160583795Y-108708992D01*
X160560001Y-108679999D01*
X160531009Y-108656206D01*
X158240000Y-106365199D01*
X158240000Y-106113711D01*
X158283937Y-106069774D01*
X158397205Y-105900256D01*
X158475226Y-105711898D01*
X158515000Y-105511939D01*
X158515000Y-105308061D01*
X158475226Y-105108102D01*
X158397205Y-104919744D01*
X158283937Y-104750226D01*
X158139774Y-104606063D01*
X158109180Y-104585621D01*
X160531008Y-102163795D01*
X160560001Y-102140001D01*
X160583795Y-102111008D01*
X160583799Y-102111004D01*
X160654973Y-102024277D01*
X160654974Y-102024276D01*
X160725546Y-101892247D01*
X160748046Y-101818072D01*
X160870000Y-101818072D01*
X160994482Y-101805812D01*
X161114180Y-101769502D01*
X161224494Y-101710537D01*
X161321185Y-101631185D01*
X161400537Y-101534494D01*
X161459502Y-101424180D01*
X161495812Y-101304482D01*
X161508072Y-101180000D01*
X161508072Y-99480000D01*
X161495812Y-99355518D01*
X161459502Y-99235820D01*
X161400537Y-99125506D01*
X161321185Y-99028815D01*
X161224494Y-98949463D01*
X161114180Y-98890498D01*
X160994482Y-98854188D01*
X160870000Y-98841928D01*
X159170000Y-98841928D01*
X159045518Y-98854188D01*
X158925820Y-98890498D01*
X158815506Y-98949463D01*
X158718815Y-99028815D01*
X158639463Y-99125506D01*
X158580498Y-99235820D01*
X158544188Y-99355518D01*
X158531928Y-99480000D01*
X158531928Y-101180000D01*
X158544188Y-101304482D01*
X158580498Y-101424180D01*
X158639463Y-101534494D01*
X158718815Y-101631185D01*
X158815506Y-101710537D01*
X158827988Y-101717209D01*
X157165199Y-103380000D01*
X157114013Y-103380000D01*
X157127205Y-103360256D01*
X157205226Y-103171898D01*
X157245000Y-102971939D01*
X157245000Y-102768061D01*
X157205226Y-102568102D01*
X157127205Y-102379744D01*
X157013937Y-102210226D01*
X156869774Y-102066063D01*
X156700256Y-101952795D01*
X156511898Y-101874774D01*
X156311939Y-101835000D01*
X156108061Y-101835000D01*
X155908102Y-101874774D01*
X155719744Y-101952795D01*
X155550226Y-102066063D01*
X155506289Y-102110000D01*
X146753711Y-102110000D01*
X146709774Y-102066063D01*
X146540256Y-101952795D01*
X146351898Y-101874774D01*
X146151939Y-101835000D01*
X145948061Y-101835000D01*
X145748102Y-101874774D01*
X145559744Y-101952795D01*
X145390226Y-102066063D01*
X145246063Y-102210226D01*
X145132795Y-102379744D01*
X145054774Y-102568102D01*
X145015000Y-102768061D01*
X145015000Y-102971939D01*
X145054774Y-103171898D01*
X145132795Y-103360256D01*
X145246063Y-103529774D01*
X145299295Y-103583006D01*
X145204276Y-103505026D01*
X145072247Y-103434454D01*
X144928986Y-103390997D01*
X144817333Y-103380000D01*
X144817322Y-103380000D01*
X144780000Y-103376324D01*
X144742678Y-103380000D01*
X144270000Y-103380000D01*
X144270000Y-99278072D01*
X144360000Y-99278072D01*
X144484482Y-99265812D01*
X144604180Y-99229502D01*
X144714494Y-99170537D01*
X144811185Y-99091185D01*
X144890537Y-98994494D01*
X144949502Y-98884180D01*
X144985812Y-98764482D01*
X144998072Y-98640000D01*
X144998072Y-96940000D01*
X144985812Y-96815518D01*
X144949502Y-96695820D01*
X144890537Y-96585506D01*
X144811185Y-96488815D01*
X144714494Y-96409463D01*
X144604180Y-96350498D01*
X144484482Y-96314188D01*
X144360000Y-96301928D01*
X142660000Y-96301928D01*
X142535518Y-96314188D01*
X142415820Y-96350498D01*
X142305506Y-96409463D01*
X142208815Y-96488815D01*
X142129463Y-96585506D01*
X142070498Y-96695820D01*
X142034188Y-96815518D01*
X142021928Y-96940000D01*
X142021928Y-98640000D01*
X142034188Y-98764482D01*
X142070498Y-98884180D01*
X142129463Y-98994494D01*
X142208815Y-99091185D01*
X142305506Y-99170537D01*
X142415820Y-99229502D01*
X142535518Y-99265812D01*
X142660000Y-99278072D01*
X142750000Y-99278072D01*
X142750001Y-104102657D01*
X142746323Y-104140000D01*
X142760997Y-104288986D01*
X142804454Y-104432247D01*
X142875026Y-104564276D01*
X142953006Y-104659295D01*
X142899774Y-104606063D01*
X142730256Y-104492795D01*
X142541898Y-104414774D01*
X142341939Y-104375000D01*
X142138061Y-104375000D01*
X141938102Y-104414774D01*
X141749744Y-104492795D01*
X141580226Y-104606063D01*
X141536289Y-104650000D01*
X141284802Y-104650000D01*
X140460000Y-103825199D01*
X140460000Y-99763711D01*
X140503937Y-99719774D01*
X140617205Y-99550256D01*
X140695226Y-99361898D01*
X140735000Y-99161939D01*
X140735000Y-98958061D01*
X140695226Y-98758102D01*
X140617205Y-98569744D01*
X140503937Y-98400226D01*
X140359774Y-98256063D01*
X140190256Y-98142795D01*
X140001898Y-98064774D01*
X139801939Y-98025000D01*
X139598061Y-98025000D01*
X139398102Y-98064774D01*
X139209744Y-98142795D01*
X139040226Y-98256063D01*
X138896063Y-98400226D01*
X138782795Y-98569744D01*
X138704774Y-98758102D01*
X138665000Y-98958061D01*
X138665000Y-99161939D01*
X138704774Y-99361898D01*
X138782795Y-99550256D01*
X138896063Y-99719774D01*
X138940001Y-99763712D01*
X138940000Y-104102677D01*
X138936324Y-104140000D01*
X138940000Y-104177322D01*
X138940000Y-104177332D01*
X138950997Y-104288985D01*
X138975148Y-104368600D01*
X138994454Y-104432246D01*
X139065026Y-104564276D01*
X139099320Y-104606063D01*
X139159999Y-104680001D01*
X139189003Y-104703804D01*
X140405198Y-105920000D01*
X138744803Y-105920000D01*
X136650000Y-103825199D01*
X136650000Y-102303711D01*
X136693937Y-102259774D01*
X136807205Y-102090256D01*
X136885226Y-101901898D01*
X136925000Y-101701939D01*
X136925000Y-101498061D01*
X136885226Y-101298102D01*
X136807205Y-101109744D01*
X136693937Y-100940226D01*
X136549774Y-100796063D01*
X136380256Y-100682795D01*
X136191898Y-100604774D01*
X135991939Y-100565000D01*
X135788061Y-100565000D01*
X135588102Y-100604774D01*
X135399744Y-100682795D01*
X135230226Y-100796063D01*
X135086063Y-100940226D01*
X134972795Y-101109744D01*
X134894774Y-101298102D01*
X134855000Y-101498061D01*
X134855000Y-101701939D01*
X134894774Y-101901898D01*
X134972795Y-102090256D01*
X135086063Y-102259774D01*
X135130000Y-102303711D01*
X135130001Y-104102667D01*
X135126324Y-104140000D01*
X135130001Y-104177332D01*
X135130001Y-104177333D01*
X135140998Y-104288986D01*
X135147679Y-104311010D01*
X135184454Y-104432246D01*
X135255026Y-104564276D01*
X135268391Y-104580562D01*
X135230226Y-104606063D01*
X135186289Y-104650000D01*
X129854802Y-104650000D01*
X126490000Y-101285199D01*
X126490000Y-99763711D01*
X126533937Y-99719774D01*
X126647205Y-99550256D01*
X126725226Y-99361898D01*
X126765000Y-99161939D01*
X126765000Y-98958061D01*
X126725226Y-98758102D01*
X126647205Y-98569744D01*
X126533937Y-98400226D01*
X126389774Y-98256063D01*
X126220256Y-98142795D01*
X126031898Y-98064774D01*
X125831939Y-98025000D01*
X125628061Y-98025000D01*
X125428102Y-98064774D01*
X125239744Y-98142795D01*
X125070226Y-98256063D01*
X124926063Y-98400226D01*
X124812795Y-98569744D01*
X124734774Y-98758102D01*
X124695000Y-98958061D01*
X124695000Y-99161939D01*
X124734774Y-99361898D01*
X124812795Y-99550256D01*
X124926063Y-99719774D01*
X124970000Y-99763711D01*
X124970001Y-101562667D01*
X124966324Y-101600000D01*
X124970001Y-101637333D01*
X124980998Y-101748986D01*
X124987679Y-101771010D01*
X125024454Y-101892246D01*
X125095026Y-102024276D01*
X125149175Y-102090256D01*
X125190000Y-102140001D01*
X125218998Y-102163799D01*
X128976200Y-105921002D01*
X128999999Y-105950001D01*
X129115724Y-106044974D01*
X129247753Y-106115546D01*
X129391014Y-106159003D01*
X129502667Y-106170000D01*
X129502675Y-106170000D01*
X129540000Y-106173676D01*
X129577325Y-106170000D01*
X134055198Y-106170000D01*
X132839003Y-107386196D01*
X132809999Y-107409999D01*
X132769175Y-107459744D01*
X132715026Y-107525724D01*
X132661089Y-107626632D01*
X132644454Y-107657754D01*
X132600997Y-107801015D01*
X132590000Y-107912668D01*
X132590000Y-107912678D01*
X132586324Y-107950000D01*
X132590000Y-107987323D01*
X132590001Y-111000000D01*
X125738178Y-111000000D01*
X125613475Y-110813368D01*
X125406632Y-110606525D01*
X125232240Y-110490000D01*
X125406632Y-110373475D01*
X125613475Y-110166632D01*
X125775990Y-109923411D01*
X125887932Y-109653158D01*
X125945000Y-109366260D01*
X125945000Y-109073740D01*
X125887932Y-108786842D01*
X125775990Y-108516589D01*
X125613475Y-108273368D01*
X125406632Y-108066525D01*
X125232240Y-107950000D01*
X125406632Y-107833475D01*
X125613475Y-107626632D01*
X125775990Y-107383411D01*
X125887932Y-107113158D01*
X125945000Y-106826260D01*
X125945000Y-106533740D01*
X125887932Y-106246842D01*
X125775990Y-105976589D01*
X125613475Y-105733368D01*
X125406632Y-105526525D01*
X125163411Y-105364010D01*
X124893158Y-105252068D01*
X124606260Y-105195000D01*
X124313740Y-105195000D01*
X124026842Y-105252068D01*
X123756589Y-105364010D01*
X123513368Y-105526525D01*
X123381513Y-105658380D01*
X123359502Y-105585820D01*
X123300537Y-105475506D01*
X123221185Y-105378815D01*
X123124494Y-105299463D01*
X123014180Y-105240498D01*
X122894482Y-105204188D01*
X122770000Y-105191928D01*
X121070000Y-105191928D01*
X120945518Y-105204188D01*
X120825820Y-105240498D01*
X120715506Y-105299463D01*
X120618815Y-105378815D01*
X120539463Y-105475506D01*
X120480498Y-105585820D01*
X120444188Y-105705518D01*
X120431928Y-105830000D01*
X120431928Y-107530000D01*
X120444188Y-107654482D01*
X120480498Y-107774180D01*
X120539463Y-107884494D01*
X120618815Y-107981185D01*
X120715506Y-108060537D01*
X120825820Y-108119502D01*
X120898380Y-108141513D01*
X120766525Y-108273368D01*
X120604010Y-108516589D01*
X120492068Y-108786842D01*
X120435000Y-109073740D01*
X120435000Y-109366260D01*
X120492068Y-109653158D01*
X120604010Y-109923411D01*
X120766525Y-110166632D01*
X120973368Y-110373475D01*
X121147760Y-110490000D01*
X120973368Y-110606525D01*
X120766525Y-110813368D01*
X120604010Y-111056589D01*
X120492068Y-111326842D01*
X120435000Y-111613740D01*
X120435000Y-111906260D01*
X120492068Y-112193158D01*
X120604010Y-112463411D01*
X120766525Y-112706632D01*
X120973368Y-112913475D01*
X121155534Y-113035195D01*
X121038645Y-113104822D01*
X120822412Y-113299731D01*
X120648359Y-113533080D01*
X120523175Y-113795901D01*
X120478524Y-113943110D01*
X120599845Y-114173000D01*
X121793000Y-114173000D01*
X121793000Y-114153000D01*
X122047000Y-114153000D01*
X122047000Y-114173000D01*
X122067000Y-114173000D01*
X122067000Y-114427000D01*
X122047000Y-114427000D01*
X122047000Y-116713000D01*
X122067000Y-116713000D01*
X122067000Y-116967000D01*
X122047000Y-116967000D01*
X122047000Y-118160814D01*
X122276891Y-118281481D01*
X122551252Y-118184157D01*
X122801355Y-118035178D01*
X123017588Y-117840269D01*
X123188900Y-117610594D01*
X123306525Y-117786632D01*
X123513368Y-117993475D01*
X123756589Y-118155990D01*
X124026842Y-118267932D01*
X124313740Y-118325000D01*
X124606260Y-118325000D01*
X124893158Y-118267932D01*
X125163411Y-118155990D01*
X125406632Y-117993475D01*
X125613475Y-117786632D01*
X125775990Y-117543411D01*
X125887932Y-117273158D01*
X125945000Y-116986260D01*
X125945000Y-116693740D01*
X125887932Y-116406842D01*
X125775990Y-116136589D01*
X125613475Y-115893368D01*
X125406632Y-115686525D01*
X125232240Y-115570000D01*
X125406632Y-115453475D01*
X125613475Y-115246632D01*
X125775990Y-115003411D01*
X125887932Y-114733158D01*
X125945000Y-114446260D01*
X125945000Y-114153740D01*
X125887932Y-113866842D01*
X125775990Y-113596589D01*
X125613475Y-113353368D01*
X125406632Y-113146525D01*
X125232240Y-113030000D01*
X125406632Y-112913475D01*
X125613475Y-112706632D01*
X125738178Y-112520000D01*
X133312667Y-112520000D01*
X133350000Y-112523677D01*
X133498986Y-112509003D01*
X133642247Y-112465546D01*
X133774276Y-112394974D01*
X133890001Y-112300001D01*
X133984974Y-112184276D01*
X134055546Y-112052247D01*
X134099003Y-111908986D01*
X134110000Y-111797333D01*
X134113677Y-111760000D01*
X134110000Y-111722667D01*
X134110000Y-108264801D01*
X134934802Y-107440000D01*
X134985987Y-107440000D01*
X134972795Y-107459744D01*
X134894774Y-107648102D01*
X134855000Y-107848061D01*
X134855000Y-108051939D01*
X134894774Y-108251898D01*
X134972795Y-108440256D01*
X135086063Y-108609774D01*
X135130000Y-108653711D01*
X135130001Y-117350000D01*
X127037333Y-117350000D01*
X127000000Y-117346323D01*
X126962667Y-117350000D01*
X126851014Y-117360997D01*
X126707753Y-117404454D01*
X126575724Y-117475026D01*
X126459999Y-117569999D01*
X126365026Y-117685724D01*
X126294454Y-117817753D01*
X126250997Y-117961014D01*
X126236323Y-118110000D01*
X126240000Y-118147333D01*
X126240000Y-118676289D01*
X126196063Y-118720226D01*
X126082795Y-118889744D01*
X126004774Y-119078102D01*
X125965000Y-119278061D01*
X125965000Y-119481939D01*
X126004774Y-119681898D01*
X126082795Y-119870256D01*
X126196063Y-120039774D01*
X126340226Y-120183937D01*
X126509744Y-120297205D01*
X126698102Y-120375226D01*
X126898061Y-120415000D01*
X127101939Y-120415000D01*
X127301898Y-120375226D01*
X127490256Y-120297205D01*
X127659774Y-120183937D01*
X127803937Y-120039774D01*
X127917205Y-119870256D01*
X127995226Y-119681898D01*
X128035000Y-119481939D01*
X128035000Y-119278061D01*
X127995226Y-119078102D01*
X127917205Y-118889744D01*
X127904013Y-118870000D01*
X135852667Y-118870000D01*
X135890000Y-118873677D01*
X136038986Y-118859003D01*
X136182247Y-118815546D01*
X136314276Y-118744974D01*
X136430001Y-118650001D01*
X136524974Y-118534276D01*
X136595546Y-118402247D01*
X136639003Y-118258986D01*
X136650000Y-118147333D01*
X136653677Y-118110000D01*
X136650000Y-118072667D01*
X136650000Y-108653711D01*
X136693937Y-108609774D01*
X136719438Y-108571609D01*
X136735724Y-108584974D01*
X136867753Y-108655546D01*
X137011014Y-108699003D01*
X137122667Y-108710000D01*
X137160000Y-108713677D01*
X137197333Y-108710000D01*
X140932678Y-108710000D01*
X140970000Y-108713676D01*
X141007322Y-108710000D01*
X141007333Y-108710000D01*
X141118986Y-108699003D01*
X141262247Y-108655546D01*
X141394276Y-108584974D01*
X141410562Y-108571609D01*
X141436063Y-108609774D01*
X141480000Y-108653711D01*
X141480001Y-118676288D01*
X141436063Y-118720226D01*
X141322795Y-118889744D01*
X141244774Y-119078102D01*
X141205000Y-119278061D01*
X141205000Y-119481939D01*
X141244774Y-119681898D01*
X141322795Y-119870256D01*
X141436063Y-120039774D01*
X141580226Y-120183937D01*
X141749744Y-120297205D01*
X141938102Y-120375226D01*
X142138061Y-120415000D01*
X142341939Y-120415000D01*
X142541898Y-120375226D01*
X142730256Y-120297205D01*
X142750001Y-120284012D01*
X142750000Y-129502667D01*
X142746323Y-129540000D01*
X142760997Y-129688986D01*
X142804454Y-129832247D01*
X142875026Y-129964276D01*
X142945378Y-130050000D01*
X142969999Y-130080001D01*
X143085724Y-130174974D01*
X143217753Y-130245546D01*
X143361014Y-130289003D01*
X143510000Y-130303677D01*
X143547333Y-130300000D01*
X150815199Y-130300000D01*
X152366599Y-131851400D01*
X152252401Y-131851400D01*
X151962875Y-131908990D01*
X151690147Y-132021958D01*
X151444698Y-132185961D01*
X151235961Y-132394698D01*
X151130000Y-132553281D01*
X151024039Y-132394698D01*
X150815302Y-132185961D01*
X150569853Y-132021958D01*
X150297125Y-131908990D01*
X150007599Y-131851400D01*
X149712401Y-131851400D01*
X149422875Y-131908990D01*
X149150147Y-132021958D01*
X148904698Y-132185961D01*
X148695961Y-132394698D01*
X148590000Y-132553281D01*
X148484039Y-132394698D01*
X148275302Y-132185961D01*
X148029853Y-132021958D01*
X147757125Y-131908990D01*
X147467599Y-131851400D01*
X147172401Y-131851400D01*
X146882875Y-131908990D01*
X146610147Y-132021958D01*
X146364698Y-132185961D01*
X146155961Y-132394698D01*
X146050000Y-132553281D01*
X145944039Y-132394698D01*
X145735302Y-132185961D01*
X145489853Y-132021958D01*
X145217125Y-131908990D01*
X144927599Y-131851400D01*
X144632401Y-131851400D01*
X144342875Y-131908990D01*
X144070147Y-132021958D01*
X143824698Y-132185961D01*
X143615961Y-132394698D01*
X143451958Y-132640147D01*
X143338990Y-132912875D01*
X143281400Y-133202401D01*
X143281400Y-133497599D01*
X143338990Y-133787125D01*
X143451958Y-134059853D01*
X143615961Y-134305302D01*
X143803659Y-134493000D01*
X132734283Y-134493000D01*
X132790631Y-134408669D01*
X132959110Y-134001925D01*
X133045000Y-133570128D01*
X133045000Y-133129872D01*
X132959110Y-132698075D01*
X132790631Y-132291331D01*
X132546038Y-131925271D01*
X132234729Y-131613962D01*
X131868669Y-131369369D01*
X131461925Y-131200890D01*
X131030128Y-131115000D01*
X130589872Y-131115000D01*
X130158075Y-131200890D01*
X129751331Y-131369369D01*
X129385271Y-131613962D01*
X129073962Y-131925271D01*
X128829369Y-132291331D01*
X128660890Y-132698075D01*
X128575000Y-133129872D01*
X128575000Y-133570128D01*
X128660890Y-134001925D01*
X128829369Y-134408669D01*
X128885717Y-134493000D01*
X118237000Y-134493000D01*
X118237000Y-117196890D01*
X120478524Y-117196890D01*
X120523175Y-117344099D01*
X120648359Y-117606920D01*
X120822412Y-117840269D01*
X121038645Y-118035178D01*
X121288748Y-118184157D01*
X121563109Y-118281481D01*
X121793000Y-118160814D01*
X121793000Y-116967000D01*
X120599845Y-116967000D01*
X120478524Y-117196890D01*
X118237000Y-117196890D01*
X118237000Y-114656890D01*
X120478524Y-114656890D01*
X120523175Y-114804099D01*
X120648359Y-115066920D01*
X120822412Y-115300269D01*
X121038645Y-115495178D01*
X121164255Y-115570000D01*
X121038645Y-115644822D01*
X120822412Y-115839731D01*
X120648359Y-116073080D01*
X120523175Y-116335901D01*
X120478524Y-116483110D01*
X120599845Y-116713000D01*
X121793000Y-116713000D01*
X121793000Y-114427000D01*
X120599845Y-114427000D01*
X120478524Y-114656890D01*
X118237000Y-114656890D01*
X118237000Y-95670000D01*
X128051928Y-95670000D01*
X128051928Y-97370000D01*
X128064188Y-97494482D01*
X128100498Y-97614180D01*
X128159463Y-97724494D01*
X128238815Y-97821185D01*
X128335506Y-97900537D01*
X128445820Y-97959502D01*
X128565518Y-97995812D01*
X128690000Y-98008072D01*
X130390000Y-98008072D01*
X130514482Y-97995812D01*
X130634180Y-97959502D01*
X130744494Y-97900537D01*
X130841185Y-97821185D01*
X130920537Y-97724494D01*
X130979502Y-97614180D01*
X131015812Y-97494482D01*
X131028072Y-97370000D01*
X131028072Y-95670000D01*
X131015812Y-95545518D01*
X130979502Y-95425820D01*
X130920537Y-95315506D01*
X130841185Y-95218815D01*
X130744494Y-95139463D01*
X130634180Y-95080498D01*
X130514482Y-95044188D01*
X130390000Y-95031928D01*
X128690000Y-95031928D01*
X128565518Y-95044188D01*
X128445820Y-95080498D01*
X128335506Y-95139463D01*
X128238815Y-95218815D01*
X128159463Y-95315506D01*
X128100498Y-95425820D01*
X128064188Y-95545518D01*
X128051928Y-95670000D01*
X118237000Y-95670000D01*
X118237000Y-93130000D01*
X131861928Y-93130000D01*
X131861928Y-94830000D01*
X131874188Y-94954482D01*
X131910498Y-95074180D01*
X131969463Y-95184494D01*
X132048815Y-95281185D01*
X132145506Y-95360537D01*
X132255820Y-95419502D01*
X132375518Y-95455812D01*
X132500000Y-95468072D01*
X134200000Y-95468072D01*
X134324482Y-95455812D01*
X134444180Y-95419502D01*
X134554494Y-95360537D01*
X134651185Y-95281185D01*
X134662415Y-95267501D01*
X134750725Y-95339975D01*
X134882754Y-95410547D01*
X135026015Y-95454004D01*
X135137668Y-95465001D01*
X135137677Y-95465001D01*
X135175000Y-95468677D01*
X135212323Y-95465001D01*
X138937677Y-95465001D01*
X138974999Y-95468677D01*
X139012321Y-95465001D01*
X139012332Y-95465001D01*
X139123985Y-95454004D01*
X139267246Y-95410547D01*
X139399275Y-95339975D01*
X139515000Y-95245002D01*
X139538802Y-95215999D01*
X139739801Y-95015000D01*
X139801939Y-95015000D01*
X140001898Y-94975226D01*
X140190256Y-94897205D01*
X140359774Y-94783937D01*
X140503937Y-94639774D01*
X140617205Y-94470256D01*
X140695226Y-94281898D01*
X140735000Y-94081939D01*
X140735000Y-93878061D01*
X140695226Y-93678102D01*
X140617205Y-93489744D01*
X140503937Y-93320226D01*
X140359774Y-93176063D01*
X140196387Y-93066891D01*
X147148519Y-93066891D01*
X147245843Y-93341252D01*
X147394822Y-93591355D01*
X147589731Y-93807588D01*
X147823080Y-93981641D01*
X148085901Y-94106825D01*
X148233110Y-94151476D01*
X148463000Y-94030155D01*
X148463000Y-92837000D01*
X148717000Y-92837000D01*
X148717000Y-94030155D01*
X148946890Y-94151476D01*
X149094099Y-94106825D01*
X149356920Y-93981641D01*
X149590269Y-93807588D01*
X149785178Y-93591355D01*
X149860000Y-93465745D01*
X149934822Y-93591355D01*
X150129731Y-93807588D01*
X150363080Y-93981641D01*
X150625901Y-94106825D01*
X150773110Y-94151476D01*
X151003000Y-94030155D01*
X151003000Y-92837000D01*
X151257000Y-92837000D01*
X151257000Y-94030155D01*
X151486890Y-94151476D01*
X151634099Y-94106825D01*
X151896920Y-93981641D01*
X152130269Y-93807588D01*
X152325178Y-93591355D01*
X152400000Y-93465745D01*
X152474822Y-93591355D01*
X152669731Y-93807588D01*
X152903080Y-93981641D01*
X153165901Y-94106825D01*
X153313110Y-94151476D01*
X153543000Y-94030155D01*
X153543000Y-92837000D01*
X153797000Y-92837000D01*
X153797000Y-94030155D01*
X154026890Y-94151476D01*
X154174099Y-94106825D01*
X154436920Y-93981641D01*
X154670269Y-93807588D01*
X154746034Y-93723534D01*
X154770498Y-93804180D01*
X154829463Y-93914494D01*
X154908815Y-94011185D01*
X155005506Y-94090537D01*
X155115820Y-94149502D01*
X155235518Y-94185812D01*
X155360000Y-94198072D01*
X155924250Y-94195000D01*
X156083000Y-94036250D01*
X156083000Y-92837000D01*
X156337000Y-92837000D01*
X156337000Y-94036250D01*
X156495750Y-94195000D01*
X157060000Y-94198072D01*
X157184482Y-94185812D01*
X157304180Y-94149502D01*
X157414494Y-94090537D01*
X157511185Y-94011185D01*
X157590537Y-93914494D01*
X157649502Y-93804180D01*
X157685812Y-93684482D01*
X157698072Y-93560000D01*
X157695000Y-92995750D01*
X157536250Y-92837000D01*
X156337000Y-92837000D01*
X156083000Y-92837000D01*
X153797000Y-92837000D01*
X153543000Y-92837000D01*
X151257000Y-92837000D01*
X151003000Y-92837000D01*
X148717000Y-92837000D01*
X148463000Y-92837000D01*
X147269186Y-92837000D01*
X147148519Y-93066891D01*
X140196387Y-93066891D01*
X140190256Y-93062795D01*
X140001898Y-92984774D01*
X139801939Y-92945000D01*
X139598061Y-92945000D01*
X139398102Y-92984774D01*
X139209744Y-93062795D01*
X139040226Y-93176063D01*
X138896063Y-93320226D01*
X138782795Y-93489744D01*
X138704774Y-93678102D01*
X138665000Y-93878061D01*
X138665000Y-93940199D01*
X138660198Y-93945001D01*
X135489803Y-93945001D01*
X135013803Y-93469002D01*
X134990001Y-93439999D01*
X134874276Y-93345026D01*
X134838072Y-93325674D01*
X134838072Y-93130000D01*
X134825812Y-93005518D01*
X134789502Y-92885820D01*
X134730537Y-92775506D01*
X134651185Y-92678815D01*
X134554494Y-92599463D01*
X134444180Y-92540498D01*
X134324482Y-92504188D01*
X134200000Y-92491928D01*
X132500000Y-92491928D01*
X132375518Y-92504188D01*
X132255820Y-92540498D01*
X132145506Y-92599463D01*
X132048815Y-92678815D01*
X131969463Y-92775506D01*
X131910498Y-92885820D01*
X131874188Y-93005518D01*
X131861928Y-93130000D01*
X118237000Y-93130000D01*
X118237000Y-90023740D01*
X147105000Y-90023740D01*
X147105000Y-90316260D01*
X147162068Y-90603158D01*
X147274010Y-90873411D01*
X147436525Y-91116632D01*
X147643368Y-91323475D01*
X147819406Y-91441100D01*
X147589731Y-91612412D01*
X147394822Y-91828645D01*
X147245843Y-92078748D01*
X147148519Y-92353109D01*
X147269186Y-92583000D01*
X148463000Y-92583000D01*
X148463000Y-92563000D01*
X148717000Y-92563000D01*
X148717000Y-92583000D01*
X151003000Y-92583000D01*
X151003000Y-92563000D01*
X151257000Y-92563000D01*
X151257000Y-92583000D01*
X153543000Y-92583000D01*
X153543000Y-92563000D01*
X153797000Y-92563000D01*
X153797000Y-92583000D01*
X156083000Y-92583000D01*
X156083000Y-92563000D01*
X156337000Y-92563000D01*
X156337000Y-92583000D01*
X157536250Y-92583000D01*
X157695000Y-92424250D01*
X157698072Y-91860000D01*
X157685812Y-91735518D01*
X157649502Y-91615820D01*
X157590537Y-91505506D01*
X157511185Y-91408815D01*
X157414494Y-91329463D01*
X157304180Y-91270498D01*
X157231620Y-91248487D01*
X157363475Y-91116632D01*
X157525990Y-90873411D01*
X157637932Y-90603158D01*
X157695000Y-90316260D01*
X157695000Y-90023740D01*
X157637932Y-89736842D01*
X157525990Y-89466589D01*
X157363475Y-89223368D01*
X157156632Y-89016525D01*
X156913411Y-88854010D01*
X156643158Y-88742068D01*
X156356260Y-88685000D01*
X156063740Y-88685000D01*
X155776842Y-88742068D01*
X155506589Y-88854010D01*
X155263368Y-89016525D01*
X155056525Y-89223368D01*
X154940000Y-89397760D01*
X154823475Y-89223368D01*
X154616632Y-89016525D01*
X154373411Y-88854010D01*
X154103158Y-88742068D01*
X153816260Y-88685000D01*
X153523740Y-88685000D01*
X153236842Y-88742068D01*
X152966589Y-88854010D01*
X152723368Y-89016525D01*
X152516525Y-89223368D01*
X152400000Y-89397760D01*
X152283475Y-89223368D01*
X152076632Y-89016525D01*
X151833411Y-88854010D01*
X151563158Y-88742068D01*
X151276260Y-88685000D01*
X150983740Y-88685000D01*
X150696842Y-88742068D01*
X150426589Y-88854010D01*
X150183368Y-89016525D01*
X149976525Y-89223368D01*
X149860000Y-89397760D01*
X149743475Y-89223368D01*
X149536632Y-89016525D01*
X149293411Y-88854010D01*
X149023158Y-88742068D01*
X148736260Y-88685000D01*
X148443740Y-88685000D01*
X148156842Y-88742068D01*
X147886589Y-88854010D01*
X147643368Y-89016525D01*
X147436525Y-89223368D01*
X147274010Y-89466589D01*
X147162068Y-89736842D01*
X147105000Y-90023740D01*
X118237000Y-90023740D01*
X118237000Y-87773407D01*
X118285820Y-87799502D01*
X118405518Y-87835812D01*
X118530000Y-87848072D01*
X120230000Y-87848072D01*
X120354482Y-87835812D01*
X120474180Y-87799502D01*
X120584494Y-87740537D01*
X120681185Y-87661185D01*
X120760537Y-87564494D01*
X120819502Y-87454180D01*
X120855812Y-87334482D01*
X120868072Y-87210000D01*
X122971928Y-87210000D01*
X122984188Y-87334482D01*
X123020498Y-87454180D01*
X123079463Y-87564494D01*
X123158815Y-87661185D01*
X123255506Y-87740537D01*
X123365820Y-87799502D01*
X123485518Y-87835812D01*
X123610000Y-87848072D01*
X124174250Y-87845000D01*
X124333000Y-87686250D01*
X124333000Y-86487000D01*
X124587000Y-86487000D01*
X124587000Y-87686250D01*
X124745750Y-87845000D01*
X125310000Y-87848072D01*
X125434482Y-87835812D01*
X125554180Y-87799502D01*
X125664494Y-87740537D01*
X125761185Y-87661185D01*
X125840537Y-87564494D01*
X125899502Y-87454180D01*
X125935812Y-87334482D01*
X125948072Y-87210000D01*
X125945000Y-86645750D01*
X125786250Y-86487000D01*
X124587000Y-86487000D01*
X124333000Y-86487000D01*
X123133750Y-86487000D01*
X122975000Y-86645750D01*
X122971928Y-87210000D01*
X120868072Y-87210000D01*
X120868072Y-85510000D01*
X122971928Y-85510000D01*
X122975000Y-86074250D01*
X123133750Y-86233000D01*
X124333000Y-86233000D01*
X124333000Y-85033750D01*
X124587000Y-85033750D01*
X124587000Y-86233000D01*
X125786250Y-86233000D01*
X125945000Y-86074250D01*
X125948072Y-85510000D01*
X125935812Y-85385518D01*
X125899502Y-85265820D01*
X125840537Y-85155506D01*
X125761185Y-85058815D01*
X125664494Y-84979463D01*
X125554180Y-84920498D01*
X125434482Y-84884188D01*
X125310000Y-84871928D01*
X124745750Y-84875000D01*
X124587000Y-85033750D01*
X124333000Y-85033750D01*
X124174250Y-84875000D01*
X123610000Y-84871928D01*
X123485518Y-84884188D01*
X123365820Y-84920498D01*
X123255506Y-84979463D01*
X123158815Y-85058815D01*
X123079463Y-85155506D01*
X123020498Y-85265820D01*
X122984188Y-85385518D01*
X122971928Y-85510000D01*
X120868072Y-85510000D01*
X120855812Y-85385518D01*
X120819502Y-85265820D01*
X120760537Y-85155506D01*
X120681185Y-85058815D01*
X120584494Y-84979463D01*
X120474180Y-84920498D01*
X120354482Y-84884188D01*
X120230000Y-84871928D01*
X118530000Y-84871928D01*
X118405518Y-84884188D01*
X118285820Y-84920498D01*
X118237000Y-84946593D01*
X118237000Y-83947000D01*
X130155717Y-83947000D01*
X130099369Y-84031331D01*
G37*
X130099369Y-84031331D02*
X129930890Y-84438075D01*
X129845000Y-84869872D01*
X129845000Y-85310128D01*
X129930890Y-85741925D01*
X130099369Y-86148669D01*
X130343962Y-86514729D01*
X130655271Y-86826038D01*
X131021331Y-87070631D01*
X131428075Y-87239110D01*
X131859872Y-87325000D01*
X132300128Y-87325000D01*
X132731925Y-87239110D01*
X133138669Y-87070631D01*
X133504729Y-86826038D01*
X133816038Y-86514729D01*
X134060631Y-86148669D01*
X134229110Y-85741925D01*
X134246906Y-85652460D01*
X134307958Y-85799853D01*
X134471961Y-86045302D01*
X134680698Y-86254039D01*
X134926147Y-86418042D01*
X135198875Y-86531010D01*
X135488401Y-86588600D01*
X135783599Y-86588600D01*
X136073125Y-86531010D01*
X136345853Y-86418042D01*
X136591302Y-86254039D01*
X136800039Y-86045302D01*
X136906000Y-85886719D01*
X137011961Y-86045302D01*
X137220698Y-86254039D01*
X137466147Y-86418042D01*
X137738875Y-86531010D01*
X138028401Y-86588600D01*
X138323599Y-86588600D01*
X138613125Y-86531010D01*
X138885853Y-86418042D01*
X139131302Y-86254039D01*
X139340039Y-86045302D01*
X139446000Y-85886719D01*
X139551961Y-86045302D01*
X139760698Y-86254039D01*
X140006147Y-86418042D01*
X140278875Y-86531010D01*
X140568401Y-86588600D01*
X140863599Y-86588600D01*
X141153125Y-86531010D01*
X141425853Y-86418042D01*
X141671302Y-86254039D01*
X141880039Y-86045302D01*
X141987692Y-85884187D01*
X142149146Y-86100293D01*
X142367512Y-86296817D01*
X142620022Y-86446964D01*
X142896973Y-86544963D01*
X143129000Y-86424464D01*
X143129000Y-85217000D01*
X143109000Y-85217000D01*
X143109000Y-84963000D01*
X143129000Y-84963000D01*
X143129000Y-84943000D01*
X143383000Y-84943000D01*
X143383000Y-84963000D01*
X143403000Y-84963000D01*
X143403000Y-85217000D01*
X143383000Y-85217000D01*
X143383000Y-86424464D01*
X143615027Y-86544963D01*
X143891978Y-86446964D01*
X144144488Y-86296817D01*
X144362854Y-86100293D01*
X144524308Y-85884187D01*
X144631961Y-86045302D01*
X144840698Y-86254039D01*
X145086147Y-86418042D01*
X145358875Y-86531010D01*
X145648401Y-86588600D01*
X145943599Y-86588600D01*
X146233125Y-86531010D01*
X146505853Y-86418042D01*
X146751302Y-86254039D01*
X146960039Y-86045302D01*
X147066000Y-85886719D01*
X147171961Y-86045302D01*
X147380698Y-86254039D01*
X147626147Y-86418042D01*
X147898875Y-86531010D01*
X148188401Y-86588600D01*
X148483599Y-86588600D01*
X148773125Y-86531010D01*
X149045853Y-86418042D01*
X149291302Y-86254039D01*
X149500039Y-86045302D01*
X149606000Y-85886719D01*
X149711961Y-86045302D01*
X149920698Y-86254039D01*
X150166147Y-86418042D01*
X150438875Y-86531010D01*
X150728401Y-86588600D01*
X151023599Y-86588600D01*
X151313125Y-86531010D01*
X151585853Y-86418042D01*
X151831302Y-86254039D01*
X152040039Y-86045302D01*
X152146000Y-85886719D01*
X152251961Y-86045302D01*
X152460698Y-86254039D01*
X152706147Y-86418042D01*
X152978875Y-86531010D01*
X153268401Y-86588600D01*
X153563599Y-86588600D01*
X153853125Y-86531010D01*
X154125853Y-86418042D01*
X154371302Y-86254039D01*
X154580039Y-86045302D01*
X154686000Y-85886719D01*
X154791961Y-86045302D01*
X155000698Y-86254039D01*
X155246147Y-86418042D01*
X155518875Y-86531010D01*
X155808401Y-86588600D01*
X156103599Y-86588600D01*
X156393125Y-86531010D01*
X156665853Y-86418042D01*
X156911302Y-86254039D01*
X157120039Y-86045302D01*
X157226000Y-85886719D01*
X157331961Y-86045302D01*
X157540698Y-86254039D01*
X157786147Y-86418042D01*
X158058875Y-86531010D01*
X158348401Y-86588600D01*
X158643599Y-86588600D01*
X158933125Y-86531010D01*
X159205853Y-86418042D01*
X159451302Y-86254039D01*
X159660039Y-86045302D01*
X159824042Y-85799853D01*
X159937010Y-85527125D01*
X159994600Y-85237599D01*
X159994600Y-84942401D01*
X159937010Y-84652875D01*
X159824042Y-84380147D01*
X159660039Y-84134698D01*
X159472341Y-83947000D01*
X161583659Y-83947000D01*
X161395961Y-84134698D01*
X161231958Y-84380147D01*
X161118990Y-84652875D01*
X161061400Y-84942401D01*
X161061400Y-85237599D01*
X161118990Y-85527125D01*
X161231958Y-85799853D01*
X161395961Y-86045302D01*
X161604698Y-86254039D01*
X161850147Y-86418042D01*
X162122875Y-86531010D01*
X162412401Y-86588600D01*
X162707599Y-86588600D01*
X162997125Y-86531010D01*
X163269853Y-86418042D01*
X163515302Y-86254039D01*
X163724039Y-86045302D01*
X163830000Y-85886719D01*
X163935961Y-86045302D01*
X164144698Y-86254039D01*
X164390147Y-86418042D01*
X164662875Y-86531010D01*
X164952401Y-86588600D01*
X165247599Y-86588600D01*
X165537125Y-86531010D01*
X165809853Y-86418042D01*
X166055302Y-86254039D01*
X166264039Y-86045302D01*
X166370000Y-85886719D01*
X166475961Y-86045302D01*
X166684698Y-86254039D01*
X166930147Y-86418042D01*
X167202875Y-86531010D01*
X167492401Y-86588600D01*
X167787599Y-86588600D01*
X168077125Y-86531010D01*
X168349853Y-86418042D01*
X168595302Y-86254039D01*
X168804039Y-86045302D01*
X168910000Y-85886719D01*
X169015961Y-86045302D01*
X169224698Y-86254039D01*
X169470147Y-86418042D01*
X169742875Y-86531010D01*
X170032401Y-86588600D01*
X170327599Y-86588600D01*
X170617125Y-86531010D01*
X170889853Y-86418042D01*
X171135302Y-86254039D01*
X171344039Y-86045302D01*
X171450000Y-85886719D01*
X171555961Y-86045302D01*
X171764698Y-86254039D01*
X172010147Y-86418042D01*
X172282875Y-86531010D01*
X172572401Y-86588600D01*
X172867599Y-86588600D01*
X173157125Y-86531010D01*
X173429853Y-86418042D01*
X173675302Y-86254039D01*
X173884039Y-86045302D01*
X173990000Y-85886719D01*
X174095961Y-86045302D01*
X174304698Y-86254039D01*
X174550147Y-86418042D01*
X174822875Y-86531010D01*
X175112401Y-86588600D01*
X175407599Y-86588600D01*
X175697125Y-86531010D01*
X175969853Y-86418042D01*
X176215302Y-86254039D01*
X176424039Y-86045302D01*
X176530000Y-85886719D01*
X176635961Y-86045302D01*
X176844698Y-86254039D01*
X177090147Y-86418042D01*
X177362875Y-86531010D01*
X177652401Y-86588600D01*
X177947599Y-86588600D01*
X178237125Y-86531010D01*
X178509853Y-86418042D01*
X178755302Y-86254039D01*
X178964039Y-86045302D01*
X179070000Y-85886719D01*
X179175961Y-86045302D01*
X179384698Y-86254039D01*
X179630147Y-86418042D01*
X179902875Y-86531010D01*
X180192401Y-86588600D01*
X180487599Y-86588600D01*
X180777125Y-86531010D01*
X181049853Y-86418042D01*
X181295302Y-86254039D01*
X181504039Y-86045302D01*
X181668042Y-85799853D01*
X181781010Y-85527125D01*
X181838600Y-85237599D01*
X181838600Y-84942401D01*
X181781010Y-84652875D01*
X181668042Y-84380147D01*
X181504039Y-84134698D01*
X181316341Y-83947000D01*
X184443659Y-83947000D01*
X184255961Y-84134698D01*
X184091958Y-84380147D01*
X183978990Y-84652875D01*
X183921400Y-84942401D01*
X183921400Y-85237599D01*
X183978990Y-85527125D01*
X184091958Y-85799853D01*
X184255961Y-86045302D01*
X184464698Y-86254039D01*
X184710147Y-86418042D01*
X184982875Y-86531010D01*
X185272401Y-86588600D01*
X185567599Y-86588600D01*
X185857125Y-86531010D01*
X186129853Y-86418042D01*
X186375302Y-86254039D01*
X186584039Y-86045302D01*
X186690000Y-85886719D01*
X186795961Y-86045302D01*
X187004698Y-86254039D01*
X187250147Y-86418042D01*
X187522875Y-86531010D01*
X187812401Y-86588600D01*
X188107599Y-86588600D01*
X188397125Y-86531010D01*
X188669853Y-86418042D01*
X188915302Y-86254039D01*
X189124039Y-86045302D01*
X189230000Y-85886719D01*
X189335961Y-86045302D01*
X189544698Y-86254039D01*
X189790147Y-86418042D01*
X190062875Y-86531010D01*
X190352401Y-86588600D01*
X190647599Y-86588600D01*
X190937125Y-86531010D01*
X191209853Y-86418042D01*
X191455302Y-86254039D01*
X191664039Y-86045302D01*
X191770000Y-85886719D01*
X191875961Y-86045302D01*
X192084698Y-86254039D01*
X192330147Y-86418042D01*
X192602875Y-86531010D01*
X192892401Y-86588600D01*
X193187599Y-86588600D01*
X193477125Y-86531010D01*
X193749853Y-86418042D01*
X193995302Y-86254039D01*
X194204039Y-86045302D01*
X194310000Y-85886719D01*
X194415961Y-86045302D01*
X194624698Y-86254039D01*
X194870147Y-86418042D01*
X195142875Y-86531010D01*
X195432401Y-86588600D01*
X195727599Y-86588600D01*
X196017125Y-86531010D01*
X196289853Y-86418042D01*
X196535302Y-86254039D01*
X196744039Y-86045302D01*
X196850000Y-85886719D01*
X196955961Y-86045302D01*
X197164698Y-86254039D01*
X197410147Y-86418042D01*
X197682875Y-86531010D01*
X197972401Y-86588600D01*
X198267599Y-86588600D01*
X198557125Y-86531010D01*
X198829853Y-86418042D01*
X199075302Y-86254039D01*
X199284039Y-86045302D01*
X199390000Y-85886719D01*
X199495961Y-86045302D01*
X199704698Y-86254039D01*
X199950147Y-86418042D01*
X200222875Y-86531010D01*
X200512401Y-86588600D01*
X200807599Y-86588600D01*
X201097125Y-86531010D01*
X201369853Y-86418042D01*
X201615302Y-86254039D01*
X201824039Y-86045302D01*
X201930000Y-85886719D01*
X202035961Y-86045302D01*
X202244698Y-86254039D01*
X202490147Y-86418042D01*
X202762875Y-86531010D01*
X203052401Y-86588600D01*
X203347599Y-86588600D01*
X203637125Y-86531010D01*
X203909853Y-86418042D01*
X204155302Y-86254039D01*
X204364039Y-86045302D01*
X204528042Y-85799853D01*
X204641010Y-85527125D01*
X204698600Y-85237599D01*
X204698600Y-84942401D01*
X204641010Y-84652875D01*
X204528042Y-84380147D01*
X204364039Y-84134698D01*
X204176341Y-83947000D01*
X205085717Y-83947000D01*
X205029369Y-84031331D01*
X204860890Y-84438075D01*
X204775000Y-84869872D01*
X204775000Y-85310128D01*
X204860890Y-85741925D01*
X205029369Y-86148669D01*
X205273962Y-86514729D01*
X205585271Y-86826038D01*
X205951331Y-87070631D01*
X206358075Y-87239110D01*
X206789872Y-87325000D01*
X207230128Y-87325000D01*
X207661925Y-87239110D01*
X208068669Y-87070631D01*
X208434729Y-86826038D01*
X208746038Y-86514729D01*
X208990631Y-86148669D01*
X209159110Y-85741925D01*
X209245000Y-85310128D01*
X209245000Y-84869872D01*
X209159110Y-84438075D01*
X208990631Y-84031331D01*
X208934283Y-83947000D01*
X209843659Y-83947000D01*
X209655961Y-84134698D01*
X209491958Y-84380147D01*
X209378990Y-84652875D01*
X209321400Y-84942401D01*
X209321400Y-85237599D01*
X209378990Y-85527125D01*
X209491958Y-85799853D01*
X209655961Y-86045302D01*
X209864698Y-86254039D01*
X210023281Y-86360000D01*
X209864698Y-86465961D01*
X209655961Y-86674698D01*
X209491958Y-86920147D01*
X209378990Y-87192875D01*
X209321400Y-87482401D01*
X209321400Y-87777599D01*
X209378990Y-88067125D01*
X209491958Y-88339853D01*
X209655961Y-88585302D01*
X209864698Y-88794039D01*
X210023281Y-88900000D01*
X209864698Y-89005961D01*
X209655961Y-89214698D01*
X209491958Y-89460147D01*
X209378990Y-89732875D01*
X209321400Y-90022401D01*
X209321400Y-90317599D01*
X209378990Y-90607125D01*
X209491958Y-90879853D01*
X209655961Y-91125302D01*
X209864698Y-91334039D01*
X210023281Y-91440000D01*
X209864698Y-91545961D01*
X209655961Y-91754698D01*
X209491958Y-92000147D01*
X209378990Y-92272875D01*
X209321400Y-92562401D01*
X209321400Y-92857599D01*
X209378990Y-93147125D01*
X209491958Y-93419853D01*
X209655961Y-93665302D01*
X209864698Y-93874039D01*
X210023281Y-93980000D01*
X209864698Y-94085961D01*
X209655961Y-94294698D01*
X209491958Y-94540147D01*
X209378990Y-94812875D01*
X209321400Y-95102401D01*
X209321400Y-95397599D01*
X209378990Y-95687125D01*
X209409176Y-95760000D01*
X204507333Y-95760000D01*
X204470000Y-95756323D01*
X204432667Y-95760000D01*
X204321014Y-95770997D01*
X204177753Y-95814454D01*
X204045724Y-95885026D01*
X203929999Y-95979999D01*
X203835026Y-96095724D01*
X203764454Y-96227753D01*
X203720997Y-96371014D01*
X203706323Y-96520000D01*
X203710000Y-96557333D01*
X203710000Y-98155988D01*
X203690256Y-98142795D01*
X203501898Y-98064774D01*
X203301939Y-98025000D01*
X203098061Y-98025000D01*
X202931961Y-98058039D01*
X202965000Y-97891939D01*
X202965000Y-97688061D01*
X202925226Y-97488102D01*
X202847205Y-97299744D01*
X202733937Y-97130226D01*
X202589774Y-96986063D01*
X202420256Y-96872795D01*
X202231898Y-96794774D01*
X202031939Y-96755000D01*
X201828061Y-96755000D01*
X201628102Y-96794774D01*
X201439744Y-96872795D01*
X201270226Y-96986063D01*
X201126063Y-97130226D01*
X201012795Y-97299744D01*
X200934774Y-97488102D01*
X200895000Y-97688061D01*
X200895000Y-97891939D01*
X200934774Y-98091898D01*
X201012795Y-98280256D01*
X201126063Y-98449774D01*
X201170000Y-98493711D01*
X201170000Y-99425988D01*
X201150256Y-99412795D01*
X200961898Y-99334774D01*
X200761939Y-99295000D01*
X200558061Y-99295000D01*
X200391961Y-99328039D01*
X200425000Y-99161939D01*
X200425000Y-98958061D01*
X200385226Y-98758102D01*
X200307205Y-98569744D01*
X200193937Y-98400226D01*
X200049774Y-98256063D01*
X199880256Y-98142795D01*
X199691898Y-98064774D01*
X199491939Y-98025000D01*
X199288061Y-98025000D01*
X199121961Y-98058039D01*
X199155000Y-97891939D01*
X199155000Y-97688061D01*
X199115226Y-97488102D01*
X199037205Y-97299744D01*
X198923937Y-97130226D01*
X198779774Y-96986063D01*
X198610256Y-96872795D01*
X198421898Y-96794774D01*
X198221939Y-96755000D01*
X198018061Y-96755000D01*
X197851961Y-96788039D01*
X197885000Y-96621939D01*
X197885000Y-96418061D01*
X197845226Y-96218102D01*
X197767205Y-96029744D01*
X197653937Y-95860226D01*
X197509774Y-95716063D01*
X197340256Y-95602795D01*
X197151898Y-95524774D01*
X196951939Y-95485000D01*
X196748061Y-95485000D01*
X196548102Y-95524774D01*
X196359744Y-95602795D01*
X196190226Y-95716063D01*
X196046063Y-95860226D01*
X195932795Y-96029744D01*
X195854774Y-96218102D01*
X195815000Y-96418061D01*
X195815000Y-96621939D01*
X195854774Y-96821898D01*
X195932795Y-97010256D01*
X196046063Y-97179774D01*
X196090000Y-97223711D01*
X196090001Y-108516288D01*
X196046063Y-108560226D01*
X195932795Y-108729744D01*
X195854774Y-108918102D01*
X195815000Y-109118061D01*
X195815000Y-109321939D01*
X195854774Y-109521898D01*
X195932795Y-109710256D01*
X196046063Y-109879774D01*
X196090001Y-109923712D01*
X196090001Y-114866288D01*
X196046063Y-114910226D01*
X195932795Y-115079744D01*
X195854774Y-115268102D01*
X195815000Y-115468061D01*
X195815000Y-115671939D01*
X195854774Y-115871898D01*
X195932795Y-116060256D01*
X196046063Y-116229774D01*
X196190226Y-116373937D01*
X196359744Y-116487205D01*
X196548102Y-116565226D01*
X196748061Y-116605000D01*
X196951939Y-116605000D01*
X197118039Y-116571961D01*
X197085000Y-116738061D01*
X197085000Y-116941939D01*
X197124774Y-117141898D01*
X197202795Y-117330256D01*
X197316063Y-117499774D01*
X197460226Y-117643937D01*
X197629744Y-117757205D01*
X197818102Y-117835226D01*
X198018061Y-117875000D01*
X198221939Y-117875000D01*
X198388039Y-117841961D01*
X198355000Y-118008061D01*
X198355000Y-118211939D01*
X198394774Y-118411898D01*
X198472795Y-118600256D01*
X198586063Y-118769774D01*
X198730226Y-118913937D01*
X198899744Y-119027205D01*
X199088102Y-119105226D01*
X199288061Y-119145000D01*
X199491939Y-119145000D01*
X199658039Y-119111961D01*
X199625000Y-119278061D01*
X199625000Y-119481939D01*
X199664774Y-119681898D01*
X199742795Y-119870256D01*
X199856063Y-120039774D01*
X200000226Y-120183937D01*
X200169744Y-120297205D01*
X200358102Y-120375226D01*
X200558061Y-120415000D01*
X200761939Y-120415000D01*
X200928039Y-120381961D01*
X200895000Y-120548061D01*
X200895000Y-120751939D01*
X200934774Y-120951898D01*
X201012795Y-121140256D01*
X201126063Y-121309774D01*
X201270226Y-121453937D01*
X201439744Y-121567205D01*
X201628102Y-121645226D01*
X201828061Y-121685000D01*
X202031939Y-121685000D01*
X202198039Y-121651961D01*
X202165000Y-121818061D01*
X202165000Y-122021939D01*
X202204774Y-122221898D01*
X202282795Y-122410256D01*
X202396063Y-122579774D01*
X202540226Y-122723937D01*
X202709744Y-122837205D01*
X202898102Y-122915226D01*
X203098061Y-122955000D01*
X203301939Y-122955000D01*
X203468039Y-122921961D01*
X203435000Y-123088061D01*
X203435000Y-123291939D01*
X203474774Y-123491898D01*
X203552795Y-123680256D01*
X203666063Y-123849774D01*
X203810226Y-123993937D01*
X203979744Y-124107205D01*
X204168102Y-124185226D01*
X204368061Y-124225000D01*
X204571939Y-124225000D01*
X204738039Y-124191961D01*
X204705000Y-124358061D01*
X204705000Y-124561939D01*
X204744774Y-124761898D01*
X204822795Y-124950256D01*
X204936063Y-125119774D01*
X205080226Y-125263937D01*
X205110820Y-125284379D01*
X204155199Y-126240000D01*
X192674013Y-126240000D01*
X192687205Y-126220256D01*
X192765226Y-126031898D01*
X192805000Y-125831939D01*
X192805000Y-125628061D01*
X192765226Y-125428102D01*
X192687205Y-125239744D01*
X192573937Y-125070226D01*
X192530000Y-125026289D01*
X192530000Y-113934013D01*
X192549744Y-113947205D01*
X192738102Y-114025226D01*
X192938061Y-114065000D01*
X193141939Y-114065000D01*
X193341898Y-114025226D01*
X193530256Y-113947205D01*
X193699774Y-113833937D01*
X193843937Y-113689774D01*
X193957205Y-113520256D01*
X194035226Y-113331898D01*
X194075000Y-113131939D01*
X194075000Y-112928061D01*
X194035226Y-112728102D01*
X193957205Y-112539744D01*
X193843937Y-112370226D01*
X193800000Y-112326289D01*
X193800000Y-96557322D01*
X193803676Y-96519999D01*
X193800000Y-96482676D01*
X193800000Y-96482667D01*
X193789003Y-96371014D01*
X193745546Y-96227753D01*
X193674974Y-96095724D01*
X193580001Y-95979999D01*
X193551003Y-95956201D01*
X192805000Y-95210199D01*
X192805000Y-95148061D01*
X192765226Y-94948102D01*
X192687205Y-94759744D01*
X192573937Y-94590226D01*
X192530000Y-94546289D01*
X192530000Y-94017322D01*
X192533676Y-93979999D01*
X192530000Y-93942676D01*
X192530000Y-93942667D01*
X192519003Y-93831014D01*
X192475546Y-93687753D01*
X192404974Y-93555724D01*
X192310001Y-93439999D01*
X192281003Y-93416201D01*
X191260000Y-92395199D01*
X191260000Y-89603711D01*
X191303937Y-89559774D01*
X191417205Y-89390256D01*
X191495226Y-89201898D01*
X191535000Y-89001939D01*
X191535000Y-88798061D01*
X191495226Y-88598102D01*
X191417205Y-88409744D01*
X191303937Y-88240226D01*
X191159774Y-88096063D01*
X190990256Y-87982795D01*
X190801898Y-87904774D01*
X190601939Y-87865000D01*
X190398061Y-87865000D01*
X190198102Y-87904774D01*
X190009744Y-87982795D01*
X189840226Y-88096063D01*
X189696063Y-88240226D01*
X189582795Y-88409744D01*
X189504774Y-88598102D01*
X189465000Y-88798061D01*
X189465000Y-89001939D01*
X189504774Y-89201898D01*
X189582795Y-89390256D01*
X189696063Y-89559774D01*
X189740001Y-89603712D01*
X189740000Y-92672677D01*
X189736324Y-92710000D01*
X189740000Y-92747322D01*
X189740000Y-92747332D01*
X189750997Y-92858985D01*
X189794454Y-93002246D01*
X189865026Y-93134276D01*
X189899320Y-93176063D01*
X189959999Y-93250001D01*
X189989003Y-93273804D01*
X191010001Y-94294803D01*
X191010001Y-94546288D01*
X190966063Y-94590226D01*
X190852795Y-94759744D01*
X190774774Y-94948102D01*
X190735000Y-95148061D01*
X190735000Y-95351939D01*
X190774774Y-95551898D01*
X190852795Y-95740256D01*
X190966063Y-95909774D01*
X191110226Y-96053937D01*
X191279744Y-96167205D01*
X191468102Y-96245226D01*
X191668061Y-96285000D01*
X191730199Y-96285000D01*
X192280000Y-96834802D01*
X192280001Y-105775988D01*
X192260256Y-105762795D01*
X192071898Y-105684774D01*
X191871939Y-105645000D01*
X191668061Y-105645000D01*
X191468102Y-105684774D01*
X191279744Y-105762795D01*
X191260000Y-105775987D01*
X191260000Y-104843711D01*
X191303937Y-104799774D01*
X191417205Y-104630256D01*
X191495226Y-104441898D01*
X191535000Y-104241939D01*
X191535000Y-104038061D01*
X191495226Y-103838102D01*
X191417205Y-103649744D01*
X191303937Y-103480226D01*
X191159774Y-103336063D01*
X190990256Y-103222795D01*
X190801898Y-103144774D01*
X190601939Y-103105000D01*
X190398061Y-103105000D01*
X190231978Y-103138036D01*
X190265016Y-102971939D01*
X190265016Y-102768061D01*
X190225984Y-102571833D01*
X191011003Y-101786815D01*
X191040001Y-101763017D01*
X191134974Y-101647292D01*
X191205546Y-101515263D01*
X191249003Y-101372002D01*
X191260000Y-101260349D01*
X191260000Y-101260339D01*
X191263676Y-101223016D01*
X191260000Y-101185693D01*
X191260000Y-101033711D01*
X191303937Y-100989774D01*
X191417205Y-100820256D01*
X191495226Y-100631898D01*
X191535000Y-100431939D01*
X191535000Y-100228061D01*
X191495226Y-100028102D01*
X191417205Y-99839744D01*
X191303937Y-99670226D01*
X191159774Y-99526063D01*
X190990256Y-99412795D01*
X190801898Y-99334774D01*
X190601939Y-99295000D01*
X190398061Y-99295000D01*
X190231961Y-99328039D01*
X190265000Y-99161939D01*
X190265000Y-98958061D01*
X190225226Y-98758102D01*
X190147205Y-98569744D01*
X190033937Y-98400226D01*
X189889774Y-98256063D01*
X189720256Y-98142795D01*
X189531898Y-98064774D01*
X189331939Y-98025000D01*
X189264999Y-98025000D01*
X189264999Y-97559802D01*
X189269801Y-97555000D01*
X189331939Y-97555000D01*
X189531898Y-97515226D01*
X189720256Y-97437205D01*
X189889774Y-97323937D01*
X190033937Y-97179774D01*
X190147205Y-97010256D01*
X190225226Y-96821898D01*
X190265000Y-96621939D01*
X190265000Y-96418061D01*
X190225226Y-96218102D01*
X190147205Y-96029744D01*
X190033937Y-95860226D01*
X189889774Y-95716063D01*
X189720256Y-95602795D01*
X189531898Y-95524774D01*
X189331939Y-95485000D01*
X189128061Y-95485000D01*
X188928102Y-95524774D01*
X188739744Y-95602795D01*
X188720000Y-95615987D01*
X188720000Y-94683711D01*
X188763937Y-94639774D01*
X188877205Y-94470256D01*
X188955226Y-94281898D01*
X188995000Y-94081939D01*
X188995000Y-93878061D01*
X188955226Y-93678102D01*
X188877205Y-93489744D01*
X188763937Y-93320226D01*
X188619774Y-93176063D01*
X188450256Y-93062795D01*
X188261898Y-92984774D01*
X188061939Y-92945000D01*
X187858061Y-92945000D01*
X187658102Y-92984774D01*
X187469744Y-93062795D01*
X187300226Y-93176063D01*
X187156063Y-93320226D01*
X187042795Y-93489744D01*
X186964774Y-93678102D01*
X186925000Y-93878061D01*
X186925000Y-94081939D01*
X186964774Y-94281898D01*
X187042795Y-94470256D01*
X187156063Y-94639774D01*
X187200001Y-94683712D01*
X187200000Y-98575198D01*
X182605704Y-103169495D01*
X182645000Y-102971939D01*
X182645000Y-102909801D01*
X184661008Y-100893795D01*
X184690001Y-100870001D01*
X184713795Y-100841008D01*
X184713799Y-100841004D01*
X184784973Y-100754277D01*
X184784974Y-100754276D01*
X184855546Y-100622247D01*
X184899003Y-100478986D01*
X184910000Y-100367333D01*
X184910000Y-100367324D01*
X184913676Y-100330001D01*
X184910000Y-100292678D01*
X184910000Y-94683711D01*
X184953937Y-94639774D01*
X185067205Y-94470256D01*
X185145226Y-94281898D01*
X185185000Y-94081939D01*
X185185000Y-93878061D01*
X185145226Y-93678102D01*
X185067205Y-93489744D01*
X184953937Y-93320226D01*
X184809774Y-93176063D01*
X184640256Y-93062795D01*
X184451898Y-92984774D01*
X184251939Y-92945000D01*
X184048061Y-92945000D01*
X183848102Y-92984774D01*
X183659744Y-93062795D01*
X183490226Y-93176063D01*
X183346063Y-93320226D01*
X183232795Y-93489744D01*
X183154774Y-93678102D01*
X183115000Y-93878061D01*
X183115000Y-94081939D01*
X183154774Y-94281898D01*
X183232795Y-94470256D01*
X183346063Y-94639774D01*
X183390000Y-94683711D01*
X183390001Y-100015196D01*
X181570199Y-101835000D01*
X181508061Y-101835000D01*
X181308102Y-101874774D01*
X181119744Y-101952795D01*
X180950226Y-102066063D01*
X180806063Y-102210226D01*
X180692795Y-102379744D01*
X180614774Y-102568102D01*
X180575000Y-102768061D01*
X180575000Y-102971939D01*
X180614774Y-103171898D01*
X180692795Y-103360256D01*
X180705987Y-103380000D01*
X177837333Y-103380000D01*
X177800000Y-103376323D01*
X177762667Y-103380000D01*
X177651014Y-103390997D01*
X177507753Y-103434454D01*
X177375724Y-103505026D01*
X177290000Y-103575378D01*
X177290000Y-103184801D01*
X177839802Y-102635000D01*
X177901939Y-102635000D01*
X178101898Y-102595226D01*
X178290256Y-102517205D01*
X178459774Y-102403937D01*
X178603937Y-102259774D01*
X178717205Y-102090256D01*
X178795226Y-101901898D01*
X178835000Y-101701939D01*
X178835000Y-101498061D01*
X178795226Y-101298102D01*
X178717205Y-101109744D01*
X178603937Y-100940226D01*
X178459774Y-100796063D01*
X178290256Y-100682795D01*
X178101898Y-100604774D01*
X177901939Y-100565000D01*
X177698061Y-100565000D01*
X177498102Y-100604774D01*
X177309744Y-100682795D01*
X177140226Y-100796063D01*
X176996063Y-100940226D01*
X176882795Y-101109744D01*
X176804774Y-101298102D01*
X176765000Y-101498061D01*
X176765000Y-101560198D01*
X176020000Y-102305199D01*
X176020000Y-99763711D01*
X176063937Y-99719774D01*
X176177205Y-99550256D01*
X176255226Y-99361898D01*
X176295000Y-99161939D01*
X176295000Y-98958061D01*
X176255226Y-98758102D01*
X176177205Y-98569744D01*
X176063937Y-98400226D01*
X175919774Y-98256063D01*
X175750256Y-98142795D01*
X175561898Y-98064774D01*
X175361939Y-98025000D01*
X175158061Y-98025000D01*
X174958102Y-98064774D01*
X174769744Y-98142795D01*
X174600226Y-98256063D01*
X174456063Y-98400226D01*
X174342795Y-98569744D01*
X174264774Y-98758102D01*
X174225000Y-98958061D01*
X174225000Y-99161939D01*
X174264774Y-99361898D01*
X174342795Y-99550256D01*
X174456063Y-99719774D01*
X174500001Y-99763712D01*
X174500000Y-104505988D01*
X174480256Y-104492795D01*
X174291898Y-104414774D01*
X174091939Y-104375000D01*
X173888061Y-104375000D01*
X173688102Y-104414774D01*
X173499744Y-104492795D01*
X173480000Y-104505987D01*
X173480000Y-102303711D01*
X173523937Y-102259774D01*
X173637205Y-102090256D01*
X173715226Y-101901898D01*
X173755000Y-101701939D01*
X173755000Y-101498061D01*
X173715226Y-101298102D01*
X173637205Y-101109744D01*
X173523937Y-100940226D01*
X173379774Y-100796063D01*
X173210256Y-100682795D01*
X173021898Y-100604774D01*
X172821939Y-100565000D01*
X172618061Y-100565000D01*
X172418102Y-100604774D01*
X172229744Y-100682795D01*
X172060226Y-100796063D01*
X172016289Y-100840000D01*
X166934801Y-100840000D01*
X175574802Y-92200000D01*
X185986289Y-92200000D01*
X186030226Y-92243937D01*
X186199744Y-92357205D01*
X186388102Y-92435226D01*
X186588061Y-92475000D01*
X186791939Y-92475000D01*
X186991898Y-92435226D01*
X187180256Y-92357205D01*
X187349774Y-92243937D01*
X187493937Y-92099774D01*
X187607205Y-91930256D01*
X187685226Y-91741898D01*
X187725000Y-91541939D01*
X187725000Y-91338061D01*
X187685226Y-91138102D01*
X187607205Y-90949744D01*
X187493937Y-90780226D01*
X187349774Y-90636063D01*
X187180256Y-90522795D01*
X186991898Y-90444774D01*
X186791939Y-90405000D01*
X186588061Y-90405000D01*
X186388102Y-90444774D01*
X186199744Y-90522795D01*
X186030226Y-90636063D01*
X185986289Y-90680000D01*
X175297333Y-90680000D01*
X175260000Y-90676323D01*
X175222667Y-90680000D01*
X175111014Y-90690997D01*
X174967753Y-90734454D01*
X174835724Y-90805026D01*
X174719999Y-90899999D01*
X174696201Y-90928997D01*
X166055199Y-99570000D01*
X163263711Y-99570000D01*
X163219774Y-99526063D01*
X163050256Y-99412795D01*
X162861898Y-99334774D01*
X162661939Y-99295000D01*
X162458061Y-99295000D01*
X162258102Y-99334774D01*
X162069744Y-99412795D01*
X161900226Y-99526063D01*
X161756063Y-99670226D01*
X161642795Y-99839744D01*
X161564774Y-100028102D01*
X161525000Y-100228061D01*
X161525000Y-100431939D01*
X161564774Y-100631898D01*
X161642795Y-100820256D01*
X161739510Y-100965000D01*
X161642795Y-101109744D01*
X161564774Y-101298102D01*
X161525000Y-101498061D01*
X161525000Y-101701939D01*
X161564774Y-101901898D01*
X161642795Y-102090256D01*
X161756063Y-102259774D01*
X161900226Y-102403937D01*
X162069744Y-102517205D01*
X162258102Y-102595226D01*
X162458061Y-102635000D01*
X162661939Y-102635000D01*
X162861898Y-102595226D01*
X163050256Y-102517205D01*
X163219774Y-102403937D01*
X163263711Y-102360000D01*
X171960000Y-102360000D01*
X171960001Y-104650000D01*
X163263711Y-104650000D01*
X163219774Y-104606063D01*
X163050256Y-104492795D01*
X162861898Y-104414774D01*
X162661939Y-104375000D01*
X162458061Y-104375000D01*
X162258102Y-104414774D01*
X162069744Y-104492795D01*
X161900226Y-104606063D01*
X161756063Y-104750226D01*
X161642795Y-104919744D01*
X161564774Y-105108102D01*
X161525000Y-105308061D01*
X161525000Y-105511939D01*
X161564774Y-105711898D01*
X161642795Y-105900256D01*
X161756063Y-106069774D01*
X161900226Y-106213937D01*
X162069744Y-106327205D01*
X162258102Y-106405226D01*
X162458061Y-106445000D01*
X162661939Y-106445000D01*
X162861898Y-106405226D01*
X163050256Y-106327205D01*
X163219774Y-106213937D01*
X163263711Y-106170000D01*
X171960000Y-106170000D01*
X171960001Y-116802667D01*
X171956324Y-116840000D01*
X171970998Y-116988985D01*
X172014454Y-117132246D01*
X172085026Y-117264276D01*
X172139175Y-117330256D01*
X172180000Y-117380001D01*
X172208998Y-117403799D01*
X173230000Y-118424802D01*
X173230001Y-125415197D01*
X172562297Y-126082901D01*
X172364759Y-125885363D01*
X172132241Y-125730000D01*
X172364759Y-125574637D01*
X172564637Y-125374759D01*
X172721680Y-125139727D01*
X172829853Y-124878574D01*
X172885000Y-124601335D01*
X172885000Y-124318665D01*
X172829853Y-124041426D01*
X172721680Y-123780273D01*
X172564637Y-123545241D01*
X172364759Y-123345363D01*
X172132241Y-123190000D01*
X172364759Y-123034637D01*
X172564637Y-122834759D01*
X172721680Y-122599727D01*
X172829853Y-122338574D01*
X172885000Y-122061335D01*
X172885000Y-121778665D01*
X172829853Y-121501426D01*
X172721680Y-121240273D01*
X172564637Y-121005241D01*
X172364759Y-120805363D01*
X172132241Y-120650000D01*
X172364759Y-120494637D01*
X172564637Y-120294759D01*
X172721680Y-120059727D01*
X172829853Y-119798574D01*
X172885000Y-119521335D01*
X172885000Y-119238665D01*
X172829853Y-118961426D01*
X172721680Y-118700273D01*
X172564637Y-118465241D01*
X172364759Y-118265363D01*
X172129727Y-118108320D01*
X171868574Y-118000147D01*
X171591335Y-117945000D01*
X171308665Y-117945000D01*
X171031426Y-118000147D01*
X170770273Y-118108320D01*
X170535241Y-118265363D01*
X170335363Y-118465241D01*
X170178320Y-118700273D01*
X170070147Y-118961426D01*
X170015000Y-119238665D01*
X170015000Y-119521335D01*
X170070147Y-119798574D01*
X170178320Y-120059727D01*
X170335363Y-120294759D01*
X170535241Y-120494637D01*
X170767759Y-120650000D01*
X170535241Y-120805363D01*
X170335363Y-121005241D01*
X170178320Y-121240273D01*
X170070147Y-121501426D01*
X170015000Y-121778665D01*
X170015000Y-122061335D01*
X170070147Y-122338574D01*
X170178320Y-122599727D01*
X170335363Y-122834759D01*
X170535241Y-123034637D01*
X170767759Y-123190000D01*
X170535241Y-123345363D01*
X170335363Y-123545241D01*
X170178320Y-123780273D01*
X170070147Y-124041426D01*
X170015000Y-124318665D01*
X170015000Y-124601335D01*
X170070147Y-124878574D01*
X170178320Y-125139727D01*
X170335363Y-125374759D01*
X170535241Y-125574637D01*
X170767759Y-125730000D01*
X170535241Y-125885363D01*
X170335363Y-126085241D01*
X170178320Y-126320273D01*
X170070147Y-126581426D01*
X170015000Y-126858665D01*
X170015000Y-127141335D01*
X170070147Y-127418574D01*
X170178320Y-127679727D01*
X170335363Y-127914759D01*
X170535241Y-128114637D01*
X170770273Y-128271680D01*
X171031426Y-128379853D01*
X171308665Y-128435000D01*
X171591335Y-128435000D01*
X171868574Y-128379853D01*
X172129727Y-128271680D01*
X172364759Y-128114637D01*
X172564637Y-127914759D01*
X172668043Y-127760000D01*
X172682678Y-127760000D01*
X172720000Y-127763676D01*
X172757322Y-127760000D01*
X172757333Y-127760000D01*
X172868986Y-127749003D01*
X173012247Y-127705546D01*
X173144276Y-127634974D01*
X173260001Y-127540001D01*
X173283804Y-127510997D01*
X174501003Y-126293799D01*
X174530001Y-126270001D01*
X174624974Y-126154276D01*
X174695546Y-126022247D01*
X174739003Y-125878986D01*
X174750000Y-125767333D01*
X174750000Y-125767324D01*
X174753676Y-125730001D01*
X174750000Y-125692678D01*
X174750000Y-118147322D01*
X174753676Y-118109999D01*
X174750000Y-118072676D01*
X174750000Y-118072667D01*
X174739003Y-117961014D01*
X174695546Y-117817753D01*
X174624974Y-117685724D01*
X174530001Y-117569999D01*
X174501004Y-117546202D01*
X173480000Y-116525199D01*
X173480000Y-106314013D01*
X173499744Y-106327205D01*
X173680010Y-106401874D01*
X173680011Y-114712678D01*
X173676334Y-114750010D01*
X173680011Y-114787343D01*
X173681881Y-114806324D01*
X173691008Y-114898995D01*
X173734464Y-115042256D01*
X173805036Y-115174286D01*
X173864410Y-115246632D01*
X173900010Y-115290011D01*
X173929008Y-115313809D01*
X174225000Y-115609801D01*
X174225000Y-115671939D01*
X174264774Y-115871898D01*
X174342795Y-116060256D01*
X174456063Y-116229774D01*
X174600226Y-116373937D01*
X174769744Y-116487205D01*
X174958102Y-116565226D01*
X175158061Y-116605000D01*
X175361939Y-116605000D01*
X175561898Y-116565226D01*
X175750256Y-116487205D01*
X175770001Y-116474012D01*
X175770001Y-127955197D01*
X175220199Y-128505000D01*
X175158061Y-128505000D01*
X174958102Y-128544774D01*
X174769744Y-128622795D01*
X174600226Y-128736063D01*
X174456063Y-128880226D01*
X174342795Y-129049744D01*
X174264774Y-129238102D01*
X174225000Y-129438061D01*
X174225000Y-129641939D01*
X174264774Y-129841898D01*
X174342795Y-130030256D01*
X174456063Y-130199774D01*
X174600226Y-130343937D01*
X174769744Y-130457205D01*
X174958102Y-130535226D01*
X175158061Y-130575000D01*
X175361939Y-130575000D01*
X175561898Y-130535226D01*
X175750256Y-130457205D01*
X175919774Y-130343937D01*
X176063937Y-130199774D01*
X176177205Y-130030256D01*
X176255226Y-129841898D01*
X176295000Y-129641939D01*
X176295000Y-129579801D01*
X177041003Y-128833799D01*
X177070001Y-128810001D01*
X177164974Y-128694276D01*
X177235546Y-128562247D01*
X177279003Y-128418986D01*
X177290000Y-128307333D01*
X177290000Y-128307324D01*
X177293676Y-128270001D01*
X177290000Y-128232678D01*
X177290000Y-121554013D01*
X177309744Y-121567205D01*
X177498102Y-121645226D01*
X177698061Y-121685000D01*
X177901939Y-121685000D01*
X178101898Y-121645226D01*
X178290256Y-121567205D01*
X178310001Y-121554012D01*
X178310001Y-129225197D01*
X177760199Y-129775000D01*
X177698061Y-129775000D01*
X177498102Y-129814774D01*
X177309744Y-129892795D01*
X177140226Y-130006063D01*
X176996063Y-130150226D01*
X176882795Y-130319744D01*
X176804774Y-130508102D01*
X176765000Y-130708061D01*
X176765000Y-130911939D01*
X176804774Y-131111898D01*
X176882795Y-131300256D01*
X176996063Y-131469774D01*
X177140226Y-131613937D01*
X177309744Y-131727205D01*
X177498102Y-131805226D01*
X177698061Y-131845000D01*
X177901939Y-131845000D01*
X178101898Y-131805226D01*
X178290256Y-131727205D01*
X178459774Y-131613937D01*
X178603937Y-131469774D01*
X178717205Y-131300256D01*
X178795226Y-131111898D01*
X178835000Y-130911939D01*
X178835000Y-130849801D01*
X179581003Y-130103799D01*
X179610001Y-130080001D01*
X179704974Y-129964276D01*
X179775546Y-129832247D01*
X179819003Y-129688986D01*
X179830000Y-129577333D01*
X179830000Y-129577324D01*
X179833676Y-129540001D01*
X179830000Y-129502678D01*
X179830000Y-124094013D01*
X179849744Y-124107205D01*
X180038102Y-124185226D01*
X180238061Y-124225000D01*
X180441939Y-124225000D01*
X180641898Y-124185226D01*
X180830256Y-124107205D01*
X180999774Y-123993937D01*
X181143937Y-123849774D01*
X181257205Y-123680256D01*
X181335226Y-123491898D01*
X181375000Y-123291939D01*
X181375000Y-123088061D01*
X181335226Y-122888102D01*
X181257205Y-122699744D01*
X181143937Y-122530226D01*
X181100000Y-122486289D01*
X181100000Y-108461799D01*
X183390000Y-106171799D01*
X183390001Y-120612667D01*
X183386324Y-120650000D01*
X183390001Y-120687332D01*
X183390001Y-120687333D01*
X183400998Y-120798986D01*
X183403069Y-120805812D01*
X183444454Y-120942246D01*
X183515026Y-121074276D01*
X183569175Y-121140256D01*
X183610000Y-121190001D01*
X183638998Y-121213799D01*
X185655000Y-123229803D01*
X185655000Y-123291939D01*
X185694774Y-123491898D01*
X185772795Y-123680256D01*
X185886063Y-123849774D01*
X186030226Y-123993937D01*
X186199744Y-124107205D01*
X186388102Y-124185226D01*
X186588061Y-124225000D01*
X186791939Y-124225000D01*
X186991898Y-124185226D01*
X187180256Y-124107205D01*
X187200001Y-124094012D01*
X187200000Y-128232667D01*
X187196323Y-128270000D01*
X187210997Y-128418986D01*
X187254454Y-128562247D01*
X187325026Y-128694276D01*
X187359320Y-128736063D01*
X187419999Y-128810001D01*
X187535724Y-128904974D01*
X187667753Y-128975546D01*
X187811014Y-129019003D01*
X187960000Y-129033677D01*
X187997333Y-129030000D01*
X209023548Y-129030000D01*
X209060870Y-129033676D01*
X209098192Y-129030000D01*
X209098203Y-129030000D01*
X209209856Y-129019003D01*
X209353117Y-128975546D01*
X209473487Y-128911206D01*
X209537316Y-129044944D01*
X209713146Y-129280293D01*
X209931512Y-129476817D01*
X210184022Y-129626964D01*
X210460973Y-129724963D01*
X210693000Y-129604464D01*
X210693000Y-128397000D01*
X210673000Y-128397000D01*
X210673000Y-128143000D01*
X210693000Y-128143000D01*
X210693000Y-128123000D01*
X210947000Y-128123000D01*
X210947000Y-128143000D01*
X210967000Y-128143000D01*
X210967000Y-128397000D01*
X210947000Y-128397000D01*
X210947000Y-129604464D01*
X211179027Y-129724963D01*
X211455978Y-129626964D01*
X211708488Y-129476817D01*
X211926854Y-129280293D01*
X212088308Y-129064187D01*
X212195961Y-129225302D01*
X212404698Y-129434039D01*
X212650147Y-129598042D01*
X212922875Y-129711010D01*
X213212401Y-129768600D01*
X213507599Y-129768600D01*
X213797125Y-129711010D01*
X214069853Y-129598042D01*
X214315302Y-129434039D01*
X214524039Y-129225302D01*
X214688042Y-128979853D01*
X214801010Y-128707125D01*
X214858600Y-128417599D01*
X214858600Y-128122401D01*
X214801010Y-127832875D01*
X214770824Y-127760000D01*
X217043000Y-127760000D01*
X217043000Y-132027394D01*
X215595000Y-133475394D01*
X215595000Y-133129872D01*
X215509110Y-132698075D01*
X215340631Y-132291331D01*
X215096038Y-131925271D01*
X214784729Y-131613962D01*
X214418669Y-131369369D01*
X214011925Y-131200890D01*
X213580128Y-131115000D01*
X213139872Y-131115000D01*
X212708075Y-131200890D01*
X212301331Y-131369369D01*
X211935271Y-131613962D01*
X211623962Y-131925271D01*
X211379369Y-132291331D01*
X211210890Y-132698075D01*
X211125000Y-133129872D01*
X211125000Y-133570128D01*
X211210890Y-134001925D01*
X211379369Y-134408669D01*
X211435717Y-134493000D01*
X209256341Y-134493000D01*
X209444039Y-134305302D01*
X209608042Y-134059853D01*
X209721010Y-133787125D01*
X209778600Y-133497599D01*
X209778600Y-133202401D01*
X209721010Y-132912875D01*
X209608042Y-132640147D01*
X209444039Y-132394698D01*
X209235302Y-132185961D01*
X208989853Y-132021958D01*
X208717125Y-131908990D01*
X208427599Y-131851400D01*
X208132401Y-131851400D01*
X207842875Y-131908990D01*
X207570147Y-132021958D01*
X207324698Y-132185961D01*
X207115961Y-132394698D01*
X207010000Y-132553281D01*
X206904039Y-132394698D01*
X206695302Y-132185961D01*
X206449853Y-132021958D01*
X206177125Y-131908990D01*
X205887599Y-131851400D01*
X205592401Y-131851400D01*
X205302875Y-131908990D01*
X205030147Y-132021958D01*
X204784698Y-132185961D01*
X204575961Y-132394698D01*
X204470000Y-132553281D01*
X204364039Y-132394698D01*
X204155302Y-132185961D01*
X203909853Y-132021958D01*
X203637125Y-131908990D01*
X203347599Y-131851400D01*
X203052401Y-131851400D01*
X202762875Y-131908990D01*
X202490147Y-132021958D01*
X202244698Y-132185961D01*
X202035961Y-132394698D01*
X201930000Y-132553281D01*
X201824039Y-132394698D01*
X201615302Y-132185961D01*
X201369853Y-132021958D01*
X201097125Y-131908990D01*
X200807599Y-131851400D01*
X200512401Y-131851400D01*
X200222875Y-131908990D01*
X199950147Y-132021958D01*
X199704698Y-132185961D01*
X199495961Y-132394698D01*
X199390000Y-132553281D01*
X199284039Y-132394698D01*
X199075302Y-132185961D01*
X198829853Y-132021958D01*
X198557125Y-131908990D01*
X198267599Y-131851400D01*
X197972401Y-131851400D01*
X197682875Y-131908990D01*
X197410147Y-132021958D01*
X197164698Y-132185961D01*
X196955961Y-132394698D01*
X196850000Y-132553281D01*
X196744039Y-132394698D01*
X196535302Y-132185961D01*
X196289853Y-132021958D01*
X196017125Y-131908990D01*
X195727599Y-131851400D01*
X195432401Y-131851400D01*
X195142875Y-131908990D01*
X194870147Y-132021958D01*
X194624698Y-132185961D01*
X194415961Y-132394698D01*
X194310000Y-132553281D01*
X194204039Y-132394698D01*
X193995302Y-132185961D01*
X193749853Y-132021958D01*
X193477125Y-131908990D01*
X193187599Y-131851400D01*
X192892401Y-131851400D01*
X192602875Y-131908990D01*
X192330147Y-132021958D01*
X192084698Y-132185961D01*
X191875961Y-132394698D01*
X191770000Y-132553281D01*
X191664039Y-132394698D01*
X191455302Y-132185961D01*
X191209853Y-132021958D01*
X190937125Y-131908990D01*
X190647599Y-131851400D01*
X190352401Y-131851400D01*
X190062875Y-131908990D01*
X189790147Y-132021958D01*
X189544698Y-132185961D01*
X189335961Y-132394698D01*
X189171958Y-132640147D01*
X189058990Y-132912875D01*
X189001400Y-133202401D01*
X189001400Y-133497599D01*
X189058990Y-133787125D01*
X189171958Y-134059853D01*
X189335961Y-134305302D01*
X189523659Y-134493000D01*
X186396341Y-134493000D01*
X186584039Y-134305302D01*
X186748042Y-134059853D01*
X186861010Y-133787125D01*
X186918600Y-133497599D01*
X186918600Y-133202401D01*
X186861010Y-132912875D01*
X186748042Y-132640147D01*
X186584039Y-132394698D01*
X186375302Y-132185961D01*
X186129853Y-132021958D01*
X185857125Y-131908990D01*
X185567599Y-131851400D01*
X185272401Y-131851400D01*
X184982875Y-131908990D01*
X184710147Y-132021958D01*
X184464698Y-132185961D01*
X184255961Y-132394698D01*
X184150000Y-132553281D01*
X184044039Y-132394698D01*
X183835302Y-132185961D01*
X183589853Y-132021958D01*
X183317125Y-131908990D01*
X183027599Y-131851400D01*
X182732401Y-131851400D01*
X182442875Y-131908990D01*
X182170147Y-132021958D01*
X181924698Y-132185961D01*
X181715961Y-132394698D01*
X181610000Y-132553281D01*
X181504039Y-132394698D01*
X181295302Y-132185961D01*
X181049853Y-132021958D01*
X180777125Y-131908990D01*
X180487599Y-131851400D01*
X180192401Y-131851400D01*
X179902875Y-131908990D01*
X179630147Y-132021958D01*
X179384698Y-132185961D01*
X179175961Y-132394698D01*
X179070000Y-132553281D01*
X178964039Y-132394698D01*
X178755302Y-132185961D01*
X178509853Y-132021958D01*
X178237125Y-131908990D01*
X177947599Y-131851400D01*
X177652401Y-131851400D01*
X177362875Y-131908990D01*
X177090147Y-132021958D01*
X176844698Y-132185961D01*
X176635961Y-132394698D01*
X176530000Y-132553281D01*
X176424039Y-132394698D01*
X176215302Y-132185961D01*
X175969853Y-132021958D01*
X175697125Y-131908990D01*
X175407599Y-131851400D01*
X175112401Y-131851400D01*
X174822875Y-131908990D01*
X174550147Y-132021958D01*
X174304698Y-132185961D01*
X174095961Y-132394698D01*
X173990000Y-132553281D01*
X173884039Y-132394698D01*
X173675302Y-132185961D01*
X173429853Y-132021958D01*
X173157125Y-131908990D01*
X172867599Y-131851400D01*
X172572401Y-131851400D01*
X172282875Y-131908990D01*
X172010147Y-132021958D01*
X171764698Y-132185961D01*
X171555961Y-132394698D01*
X171450000Y-132553281D01*
X171344039Y-132394698D01*
X171135302Y-132185961D01*
X170889853Y-132021958D01*
X170617125Y-131908990D01*
X170327599Y-131851400D01*
X170032401Y-131851400D01*
X169742875Y-131908990D01*
X169470147Y-132021958D01*
X169224698Y-132185961D01*
X169015961Y-132394698D01*
X168910000Y-132553281D01*
X168804039Y-132394698D01*
X168595302Y-132185961D01*
X168400000Y-132055465D01*
X168400000Y-115804320D01*
X168403676Y-115766997D01*
X168400000Y-115729674D01*
X168400000Y-115729665D01*
X168389003Y-115618012D01*
X168345546Y-115474751D01*
X168281537Y-115355000D01*
X168274974Y-115342721D01*
X168203799Y-115255995D01*
X168180001Y-115226997D01*
X168151003Y-115203199D01*
X166036501Y-113088698D01*
X166036501Y-113026560D01*
X165996727Y-112826601D01*
X165918706Y-112638243D01*
X165805438Y-112468725D01*
X165661275Y-112324562D01*
X165491757Y-112211294D01*
X165303399Y-112133273D01*
X165103440Y-112093499D01*
X164899562Y-112093499D01*
X164699603Y-112133273D01*
X164511245Y-112211294D01*
X164341727Y-112324562D01*
X164197564Y-112468725D01*
X164084296Y-112638243D01*
X164006275Y-112826601D01*
X163966501Y-113026560D01*
X163966501Y-113230438D01*
X164006275Y-113430397D01*
X164084296Y-113618755D01*
X164197564Y-113788273D01*
X164341727Y-113932436D01*
X164511245Y-114045704D01*
X164699603Y-114123725D01*
X164899562Y-114163499D01*
X164961700Y-114163499D01*
X166880001Y-116081801D01*
X166880001Y-119916290D01*
X166809774Y-119846063D01*
X166640256Y-119732795D01*
X166451898Y-119654774D01*
X166251939Y-119615000D01*
X166048061Y-119615000D01*
X165848102Y-119654774D01*
X165659744Y-119732795D01*
X165490226Y-119846063D01*
X165346063Y-119990226D01*
X165268072Y-120106948D01*
X165268072Y-118580000D01*
X165255812Y-118455518D01*
X165219502Y-118335820D01*
X165160537Y-118225506D01*
X165081185Y-118128815D01*
X164984494Y-118049463D01*
X164874180Y-117990498D01*
X164754482Y-117954188D01*
X164630000Y-117941928D01*
X163030000Y-117941928D01*
X162905518Y-117954188D01*
X162785820Y-117990498D01*
X162675506Y-118049463D01*
X162578815Y-118128815D01*
X162499463Y-118225506D01*
X162440498Y-118335820D01*
X162404188Y-118455518D01*
X162391928Y-118580000D01*
X162391928Y-120180000D01*
X162404188Y-120304482D01*
X162440498Y-120424180D01*
X162499463Y-120534494D01*
X162578815Y-120631185D01*
X162675506Y-120710537D01*
X162785820Y-120769502D01*
X162905518Y-120805812D01*
X162913961Y-120806643D01*
X162715363Y-121005241D01*
X162558320Y-121240273D01*
X162450147Y-121501426D01*
X162395000Y-121778665D01*
X162395000Y-122061335D01*
X162450147Y-122338574D01*
X162558320Y-122599727D01*
X162715363Y-122834759D01*
X162915241Y-123034637D01*
X163147759Y-123190000D01*
X162915241Y-123345363D01*
X162715363Y-123545241D01*
X162558320Y-123780273D01*
X162450147Y-124041426D01*
X162395000Y-124318665D01*
X162395000Y-124601335D01*
X162450147Y-124878574D01*
X162558320Y-125139727D01*
X162715363Y-125374759D01*
X162915241Y-125574637D01*
X163150273Y-125731680D01*
X163160865Y-125736067D01*
X162974869Y-125847615D01*
X162766481Y-126036586D01*
X162598963Y-126262580D01*
X162478754Y-126516913D01*
X162438096Y-126650961D01*
X162560085Y-126873000D01*
X163703000Y-126873000D01*
X163703000Y-126853000D01*
X163957000Y-126853000D01*
X163957000Y-126873000D01*
X165099915Y-126873000D01*
X165221904Y-126650961D01*
X165181246Y-126516913D01*
X165061037Y-126262580D01*
X164893519Y-126036586D01*
X164685131Y-125847615D01*
X164499135Y-125736067D01*
X164509727Y-125731680D01*
X164744759Y-125574637D01*
X164944637Y-125374759D01*
X165101680Y-125139727D01*
X165209853Y-124878574D01*
X165265000Y-124601335D01*
X165265000Y-124318665D01*
X165209853Y-124041426D01*
X165101680Y-123780273D01*
X164944637Y-123545241D01*
X164744759Y-123345363D01*
X164512241Y-123190000D01*
X164744759Y-123034637D01*
X164944637Y-122834759D01*
X165101680Y-122599727D01*
X165209853Y-122338574D01*
X165265000Y-122061335D01*
X165265000Y-121778665D01*
X165209853Y-121501426D01*
X165101680Y-121240273D01*
X164944637Y-121005241D01*
X164746039Y-120806643D01*
X164754482Y-120805812D01*
X164874180Y-120769502D01*
X164984494Y-120710537D01*
X165081185Y-120631185D01*
X165115000Y-120589981D01*
X165115000Y-120751939D01*
X165154774Y-120951898D01*
X165232795Y-121140256D01*
X165346063Y-121309774D01*
X165490226Y-121453937D01*
X165659744Y-121567205D01*
X165848102Y-121645226D01*
X166048061Y-121685000D01*
X166251939Y-121685000D01*
X166451898Y-121645226D01*
X166640256Y-121567205D01*
X166809774Y-121453937D01*
X166880000Y-121383711D01*
X166880000Y-127037332D01*
X166880001Y-127037342D01*
X166880000Y-132055465D01*
X166684698Y-132185961D01*
X166475961Y-132394698D01*
X166311958Y-132640147D01*
X166198990Y-132912875D01*
X166141400Y-133202401D01*
X166141400Y-133497599D01*
X166198990Y-133787125D01*
X166311958Y-134059853D01*
X166475961Y-134305302D01*
X166663659Y-134493000D01*
X163536341Y-134493000D01*
X163724039Y-134305302D01*
X163888042Y-134059853D01*
X164001010Y-133787125D01*
X164058600Y-133497599D01*
X164058600Y-133202401D01*
X164001010Y-132912875D01*
X163888042Y-132640147D01*
X163724039Y-132394698D01*
X163515302Y-132185961D01*
X163269853Y-132021958D01*
X162997125Y-131908990D01*
X162707599Y-131851400D01*
X162412401Y-131851400D01*
X162122875Y-131908990D01*
X161850147Y-132021958D01*
X161604698Y-132185961D01*
X161395961Y-132394698D01*
X161288308Y-132555813D01*
X161126854Y-132339707D01*
X160908488Y-132143183D01*
X160655978Y-131993036D01*
X160379027Y-131895037D01*
X160147000Y-132015536D01*
X160147000Y-133223000D01*
X160167000Y-133223000D01*
X160167000Y-133477000D01*
X160147000Y-133477000D01*
X160147000Y-133497000D01*
X159893000Y-133497000D01*
X159893000Y-133477000D01*
X157607000Y-133477000D01*
X157607000Y-133497000D01*
X157353000Y-133497000D01*
X157353000Y-133477000D01*
X157333000Y-133477000D01*
X157333000Y-133223000D01*
X157353000Y-133223000D01*
X157353000Y-132015536D01*
X157607000Y-132015536D01*
X157607000Y-133223000D01*
X159893000Y-133223000D01*
X159893000Y-132015536D01*
X159660973Y-131895037D01*
X159384022Y-131993036D01*
X159131512Y-132143183D01*
X158913146Y-132339707D01*
X158750000Y-132558078D01*
X158586854Y-132339707D01*
X158368488Y-132143183D01*
X158115978Y-131993036D01*
X157839027Y-131895037D01*
X157607000Y-132015536D01*
X157353000Y-132015536D01*
X157120973Y-131895037D01*
X156844022Y-131993036D01*
X156591512Y-132143183D01*
X156373146Y-132339707D01*
X156211692Y-132555813D01*
X156104039Y-132394698D01*
X155895302Y-132185961D01*
X155649853Y-132021958D01*
X155377125Y-131908990D01*
X155087599Y-131851400D01*
X154792401Y-131851400D01*
X154562026Y-131897224D01*
X151693804Y-129029003D01*
X151670001Y-128999999D01*
X151554276Y-128905026D01*
X151422247Y-128834454D01*
X151278986Y-128790997D01*
X151167333Y-128780000D01*
X151167322Y-128780000D01*
X151130000Y-128776324D01*
X151092678Y-128780000D01*
X144270000Y-128780000D01*
X144270000Y-127349039D01*
X162438096Y-127349039D01*
X162478754Y-127483087D01*
X162598963Y-127737420D01*
X162766481Y-127963414D01*
X162974869Y-128152385D01*
X163216119Y-128297070D01*
X163480960Y-128391909D01*
X163703000Y-128270624D01*
X163703000Y-127127000D01*
X163957000Y-127127000D01*
X163957000Y-128270624D01*
X164179040Y-128391909D01*
X164443881Y-128297070D01*
X164685131Y-128152385D01*
X164893519Y-127963414D01*
X165061037Y-127737420D01*
X165181246Y-127483087D01*
X165221904Y-127349039D01*
X165099915Y-127127000D01*
X163957000Y-127127000D01*
X163703000Y-127127000D01*
X162560085Y-127127000D01*
X162438096Y-127349039D01*
X144270000Y-127349039D01*
X144270000Y-124880000D01*
X157261928Y-124880000D01*
X157261928Y-126580000D01*
X157274188Y-126704482D01*
X157310498Y-126824180D01*
X157369463Y-126934494D01*
X157448815Y-127031185D01*
X157545506Y-127110537D01*
X157655820Y-127169502D01*
X157775518Y-127205812D01*
X157900000Y-127218072D01*
X159600000Y-127218072D01*
X159724482Y-127205812D01*
X159844180Y-127169502D01*
X159954494Y-127110537D01*
X160051185Y-127031185D01*
X160130537Y-126934494D01*
X160189502Y-126824180D01*
X160225812Y-126704482D01*
X160238072Y-126580000D01*
X160238072Y-124880000D01*
X160225812Y-124755518D01*
X160189502Y-124635820D01*
X160130537Y-124525506D01*
X160051185Y-124428815D01*
X159954494Y-124349463D01*
X159844180Y-124290498D01*
X159724482Y-124254188D01*
X159600000Y-124241928D01*
X157900000Y-124241928D01*
X157775518Y-124254188D01*
X157655820Y-124290498D01*
X157545506Y-124349463D01*
X157448815Y-124428815D01*
X157369463Y-124525506D01*
X157310498Y-124635820D01*
X157274188Y-124755518D01*
X157261928Y-124880000D01*
X144270000Y-124880000D01*
X144270000Y-124094013D01*
X144289744Y-124107205D01*
X144478102Y-124185226D01*
X144678061Y-124225000D01*
X144881939Y-124225000D01*
X145081898Y-124185226D01*
X145270256Y-124107205D01*
X145439774Y-123993937D01*
X145583937Y-123849774D01*
X145697205Y-123680256D01*
X145775226Y-123491898D01*
X145815000Y-123291939D01*
X145815000Y-123088061D01*
X145781961Y-122921961D01*
X145948061Y-122955000D01*
X146151939Y-122955000D01*
X146351898Y-122915226D01*
X146540256Y-122837205D01*
X146709774Y-122723937D01*
X146753711Y-122680000D01*
X151092667Y-122680000D01*
X151130000Y-122683677D01*
X151167333Y-122680000D01*
X155506289Y-122680000D01*
X155550226Y-122723937D01*
X155719744Y-122837205D01*
X155908102Y-122915226D01*
X156108061Y-122955000D01*
X156311939Y-122955000D01*
X156511898Y-122915226D01*
X156700256Y-122837205D01*
X156869774Y-122723937D01*
X157013937Y-122579774D01*
X157127205Y-122410256D01*
X157205226Y-122221898D01*
X157245000Y-122021939D01*
X157245000Y-121818061D01*
X157205226Y-121618102D01*
X157127205Y-121429744D01*
X157013937Y-121260226D01*
X156869774Y-121116063D01*
X156700256Y-121002795D01*
X156511898Y-120924774D01*
X156311939Y-120885000D01*
X156108061Y-120885000D01*
X155908102Y-120924774D01*
X155719744Y-121002795D01*
X155550226Y-121116063D01*
X155506289Y-121160000D01*
X151890000Y-121160000D01*
X151890000Y-109640000D01*
X155991928Y-109640000D01*
X155991928Y-111340000D01*
X156004188Y-111464482D01*
X156040498Y-111584180D01*
X156099463Y-111694494D01*
X156178815Y-111791185D01*
X156275506Y-111870537D01*
X156385820Y-111929502D01*
X156505518Y-111965812D01*
X156630000Y-111978072D01*
X158330000Y-111978072D01*
X158454482Y-111965812D01*
X158574180Y-111929502D01*
X158684494Y-111870537D01*
X158781185Y-111791185D01*
X158860537Y-111694494D01*
X158919502Y-111584180D01*
X158955812Y-111464482D01*
X158968072Y-111340000D01*
X158968072Y-109640000D01*
X158955812Y-109515518D01*
X158919502Y-109395820D01*
X158860537Y-109285506D01*
X158781185Y-109188815D01*
X158684494Y-109109463D01*
X158574180Y-109050498D01*
X158454482Y-109014188D01*
X158330000Y-109001928D01*
X156630000Y-109001928D01*
X156505518Y-109014188D01*
X156385820Y-109050498D01*
X156275506Y-109109463D01*
X156178815Y-109188815D01*
X156099463Y-109285506D01*
X156040498Y-109395820D01*
X156004188Y-109515518D01*
X155991928Y-109640000D01*
X151890000Y-109640000D01*
X151890000Y-107383711D01*
X151933937Y-107339774D01*
X152047205Y-107170256D01*
X152125226Y-106981898D01*
X152165000Y-106781939D01*
X152165000Y-106578061D01*
X152125226Y-106378102D01*
X152047205Y-106189744D01*
X151950490Y-106045000D01*
X152047205Y-105900256D01*
X152125226Y-105711898D01*
X152165000Y-105511939D01*
X152165000Y-105449801D01*
X152714802Y-104900000D01*
X156575987Y-104900000D01*
X156562795Y-104919744D01*
X156484774Y-105108102D01*
X156445000Y-105308061D01*
X156445000Y-105511939D01*
X156484774Y-105711898D01*
X156562795Y-105900256D01*
X156676063Y-106069774D01*
X156720001Y-106113712D01*
X156720001Y-106642667D01*
X156716324Y-106680000D01*
X156720001Y-106717333D01*
X156730998Y-106828986D01*
X156734505Y-106840546D01*
X156774454Y-106972246D01*
X156845026Y-107104276D01*
X156899175Y-107170256D01*
X156940000Y-107220001D01*
X156968998Y-107243799D01*
X159260000Y-109534803D01*
X159260001Y-119946288D01*
X159216063Y-119990226D01*
X159102795Y-120159744D01*
X159024774Y-120348102D01*
X158985000Y-120548061D01*
X158985000Y-120751939D01*
X159024774Y-120951898D01*
X159102795Y-121140256D01*
X159216063Y-121309774D01*
X159360226Y-121453937D01*
X159529744Y-121567205D01*
X159718102Y-121645226D01*
X159918061Y-121685000D01*
X160121939Y-121685000D01*
X160321898Y-121645226D01*
X160510256Y-121567205D01*
X160679774Y-121453937D01*
X160823937Y-121309774D01*
X160937205Y-121140256D01*
X161015226Y-120951898D01*
X161055000Y-120751939D01*
X161055000Y-120548061D01*
X161015226Y-120348102D01*
X160937205Y-120159744D01*
X160823937Y-119990226D01*
X160780000Y-119946289D01*
X160780000Y-109257322D01*
X160783676Y-109219999D01*
X160780000Y-109182676D01*
X160780000Y-109182667D01*
X160769003Y-109071014D01*
X160725546Y-108927753D01*
X160654974Y-108795724D01*
X160641811Y-108779685D01*
X160583799Y-108708996D01*
X160583795Y-108708992D01*
X160560001Y-108679999D01*
X160531009Y-108656206D01*
X158240000Y-106365199D01*
X158240000Y-106113711D01*
X158283937Y-106069774D01*
X158397205Y-105900256D01*
X158475226Y-105711898D01*
X158515000Y-105511939D01*
X158515000Y-105308061D01*
X158475226Y-105108102D01*
X158397205Y-104919744D01*
X158283937Y-104750226D01*
X158139774Y-104606063D01*
X158109180Y-104585621D01*
X160531008Y-102163795D01*
X160560001Y-102140001D01*
X160583795Y-102111008D01*
X160583799Y-102111004D01*
X160654973Y-102024277D01*
X160654974Y-102024276D01*
X160725546Y-101892247D01*
X160748046Y-101818072D01*
X160870000Y-101818072D01*
X160994482Y-101805812D01*
X161114180Y-101769502D01*
X161224494Y-101710537D01*
X161321185Y-101631185D01*
X161400537Y-101534494D01*
X161459502Y-101424180D01*
X161495812Y-101304482D01*
X161508072Y-101180000D01*
X161508072Y-99480000D01*
X161495812Y-99355518D01*
X161459502Y-99235820D01*
X161400537Y-99125506D01*
X161321185Y-99028815D01*
X161224494Y-98949463D01*
X161114180Y-98890498D01*
X160994482Y-98854188D01*
X160870000Y-98841928D01*
X159170000Y-98841928D01*
X159045518Y-98854188D01*
X158925820Y-98890498D01*
X158815506Y-98949463D01*
X158718815Y-99028815D01*
X158639463Y-99125506D01*
X158580498Y-99235820D01*
X158544188Y-99355518D01*
X158531928Y-99480000D01*
X158531928Y-101180000D01*
X158544188Y-101304482D01*
X158580498Y-101424180D01*
X158639463Y-101534494D01*
X158718815Y-101631185D01*
X158815506Y-101710537D01*
X158827988Y-101717209D01*
X157165199Y-103380000D01*
X157114013Y-103380000D01*
X157127205Y-103360256D01*
X157205226Y-103171898D01*
X157245000Y-102971939D01*
X157245000Y-102768061D01*
X157205226Y-102568102D01*
X157127205Y-102379744D01*
X157013937Y-102210226D01*
X156869774Y-102066063D01*
X156700256Y-101952795D01*
X156511898Y-101874774D01*
X156311939Y-101835000D01*
X156108061Y-101835000D01*
X155908102Y-101874774D01*
X155719744Y-101952795D01*
X155550226Y-102066063D01*
X155506289Y-102110000D01*
X146753711Y-102110000D01*
X146709774Y-102066063D01*
X146540256Y-101952795D01*
X146351898Y-101874774D01*
X146151939Y-101835000D01*
X145948061Y-101835000D01*
X145748102Y-101874774D01*
X145559744Y-101952795D01*
X145390226Y-102066063D01*
X145246063Y-102210226D01*
X145132795Y-102379744D01*
X145054774Y-102568102D01*
X145015000Y-102768061D01*
X145015000Y-102971939D01*
X145054774Y-103171898D01*
X145132795Y-103360256D01*
X145246063Y-103529774D01*
X145299295Y-103583006D01*
X145204276Y-103505026D01*
X145072247Y-103434454D01*
X144928986Y-103390997D01*
X144817333Y-103380000D01*
X144817322Y-103380000D01*
X144780000Y-103376324D01*
X144742678Y-103380000D01*
X144270000Y-103380000D01*
X144270000Y-99278072D01*
X144360000Y-99278072D01*
X144484482Y-99265812D01*
X144604180Y-99229502D01*
X144714494Y-99170537D01*
X144811185Y-99091185D01*
X144890537Y-98994494D01*
X144949502Y-98884180D01*
X144985812Y-98764482D01*
X144998072Y-98640000D01*
X144998072Y-96940000D01*
X144985812Y-96815518D01*
X144949502Y-96695820D01*
X144890537Y-96585506D01*
X144811185Y-96488815D01*
X144714494Y-96409463D01*
X144604180Y-96350498D01*
X144484482Y-96314188D01*
X144360000Y-96301928D01*
X142660000Y-96301928D01*
X142535518Y-96314188D01*
X142415820Y-96350498D01*
X142305506Y-96409463D01*
X142208815Y-96488815D01*
X142129463Y-96585506D01*
X142070498Y-96695820D01*
X142034188Y-96815518D01*
X142021928Y-96940000D01*
X142021928Y-98640000D01*
X142034188Y-98764482D01*
X142070498Y-98884180D01*
X142129463Y-98994494D01*
X142208815Y-99091185D01*
X142305506Y-99170537D01*
X142415820Y-99229502D01*
X142535518Y-99265812D01*
X142660000Y-99278072D01*
X142750000Y-99278072D01*
X142750001Y-104102657D01*
X142746323Y-104140000D01*
X142760997Y-104288986D01*
X142804454Y-104432247D01*
X142875026Y-104564276D01*
X142953006Y-104659295D01*
X142899774Y-104606063D01*
X142730256Y-104492795D01*
X142541898Y-104414774D01*
X142341939Y-104375000D01*
X142138061Y-104375000D01*
X141938102Y-104414774D01*
X141749744Y-104492795D01*
X141580226Y-104606063D01*
X141536289Y-104650000D01*
X141284802Y-104650000D01*
X140460000Y-103825199D01*
X140460000Y-99763711D01*
X140503937Y-99719774D01*
X140617205Y-99550256D01*
X140695226Y-99361898D01*
X140735000Y-99161939D01*
X140735000Y-98958061D01*
X140695226Y-98758102D01*
X140617205Y-98569744D01*
X140503937Y-98400226D01*
X140359774Y-98256063D01*
X140190256Y-98142795D01*
X140001898Y-98064774D01*
X139801939Y-98025000D01*
X139598061Y-98025000D01*
X139398102Y-98064774D01*
X139209744Y-98142795D01*
X139040226Y-98256063D01*
X138896063Y-98400226D01*
X138782795Y-98569744D01*
X138704774Y-98758102D01*
X138665000Y-98958061D01*
X138665000Y-99161939D01*
X138704774Y-99361898D01*
X138782795Y-99550256D01*
X138896063Y-99719774D01*
X138940001Y-99763712D01*
X138940000Y-104102677D01*
X138936324Y-104140000D01*
X138940000Y-104177322D01*
X138940000Y-104177332D01*
X138950997Y-104288985D01*
X138975148Y-104368600D01*
X138994454Y-104432246D01*
X139065026Y-104564276D01*
X139099320Y-104606063D01*
X139159999Y-104680001D01*
X139189003Y-104703804D01*
X140405198Y-105920000D01*
X138744803Y-105920000D01*
X136650000Y-103825199D01*
X136650000Y-102303711D01*
X136693937Y-102259774D01*
X136807205Y-102090256D01*
X136885226Y-101901898D01*
X136925000Y-101701939D01*
X136925000Y-101498061D01*
X136885226Y-101298102D01*
X136807205Y-101109744D01*
X136693937Y-100940226D01*
X136549774Y-100796063D01*
X136380256Y-100682795D01*
X136191898Y-100604774D01*
X135991939Y-100565000D01*
X135788061Y-100565000D01*
X135588102Y-100604774D01*
X135399744Y-100682795D01*
X135230226Y-100796063D01*
X135086063Y-100940226D01*
X134972795Y-101109744D01*
X134894774Y-101298102D01*
X134855000Y-101498061D01*
X134855000Y-101701939D01*
X134894774Y-101901898D01*
X134972795Y-102090256D01*
X135086063Y-102259774D01*
X135130000Y-102303711D01*
X135130001Y-104102667D01*
X135126324Y-104140000D01*
X135130001Y-104177332D01*
X135130001Y-104177333D01*
X135140998Y-104288986D01*
X135147679Y-104311010D01*
X135184454Y-104432246D01*
X135255026Y-104564276D01*
X135268391Y-104580562D01*
X135230226Y-104606063D01*
X135186289Y-104650000D01*
X129854802Y-104650000D01*
X126490000Y-101285199D01*
X126490000Y-99763711D01*
X126533937Y-99719774D01*
X126647205Y-99550256D01*
X126725226Y-99361898D01*
X126765000Y-99161939D01*
X126765000Y-98958061D01*
X126725226Y-98758102D01*
X126647205Y-98569744D01*
X126533937Y-98400226D01*
X126389774Y-98256063D01*
X126220256Y-98142795D01*
X126031898Y-98064774D01*
X125831939Y-98025000D01*
X125628061Y-98025000D01*
X125428102Y-98064774D01*
X125239744Y-98142795D01*
X125070226Y-98256063D01*
X124926063Y-98400226D01*
X124812795Y-98569744D01*
X124734774Y-98758102D01*
X124695000Y-98958061D01*
X124695000Y-99161939D01*
X124734774Y-99361898D01*
X124812795Y-99550256D01*
X124926063Y-99719774D01*
X124970000Y-99763711D01*
X124970001Y-101562667D01*
X124966324Y-101600000D01*
X124970001Y-101637333D01*
X124980998Y-101748986D01*
X124987679Y-101771010D01*
X125024454Y-101892246D01*
X125095026Y-102024276D01*
X125149175Y-102090256D01*
X125190000Y-102140001D01*
X125218998Y-102163799D01*
X128976200Y-105921002D01*
X128999999Y-105950001D01*
X129115724Y-106044974D01*
X129247753Y-106115546D01*
X129391014Y-106159003D01*
X129502667Y-106170000D01*
X129502675Y-106170000D01*
X129540000Y-106173676D01*
X129577325Y-106170000D01*
X134055198Y-106170000D01*
X132839003Y-107386196D01*
X132809999Y-107409999D01*
X132769175Y-107459744D01*
X132715026Y-107525724D01*
X132661089Y-107626632D01*
X132644454Y-107657754D01*
X132600997Y-107801015D01*
X132590000Y-107912668D01*
X132590000Y-107912678D01*
X132586324Y-107950000D01*
X132590000Y-107987323D01*
X132590001Y-111000000D01*
X125738178Y-111000000D01*
X125613475Y-110813368D01*
X125406632Y-110606525D01*
X125232240Y-110490000D01*
X125406632Y-110373475D01*
X125613475Y-110166632D01*
X125775990Y-109923411D01*
X125887932Y-109653158D01*
X125945000Y-109366260D01*
X125945000Y-109073740D01*
X125887932Y-108786842D01*
X125775990Y-108516589D01*
X125613475Y-108273368D01*
X125406632Y-108066525D01*
X125232240Y-107950000D01*
X125406632Y-107833475D01*
X125613475Y-107626632D01*
X125775990Y-107383411D01*
X125887932Y-107113158D01*
X125945000Y-106826260D01*
X125945000Y-106533740D01*
X125887932Y-106246842D01*
X125775990Y-105976589D01*
X125613475Y-105733368D01*
X125406632Y-105526525D01*
X125163411Y-105364010D01*
X124893158Y-105252068D01*
X124606260Y-105195000D01*
X124313740Y-105195000D01*
X124026842Y-105252068D01*
X123756589Y-105364010D01*
X123513368Y-105526525D01*
X123381513Y-105658380D01*
X123359502Y-105585820D01*
X123300537Y-105475506D01*
X123221185Y-105378815D01*
X123124494Y-105299463D01*
X123014180Y-105240498D01*
X122894482Y-105204188D01*
X122770000Y-105191928D01*
X121070000Y-105191928D01*
X120945518Y-105204188D01*
X120825820Y-105240498D01*
X120715506Y-105299463D01*
X120618815Y-105378815D01*
X120539463Y-105475506D01*
X120480498Y-105585820D01*
X120444188Y-105705518D01*
X120431928Y-105830000D01*
X120431928Y-107530000D01*
X120444188Y-107654482D01*
X120480498Y-107774180D01*
X120539463Y-107884494D01*
X120618815Y-107981185D01*
X120715506Y-108060537D01*
X120825820Y-108119502D01*
X120898380Y-108141513D01*
X120766525Y-108273368D01*
X120604010Y-108516589D01*
X120492068Y-108786842D01*
X120435000Y-109073740D01*
X120435000Y-109366260D01*
X120492068Y-109653158D01*
X120604010Y-109923411D01*
X120766525Y-110166632D01*
X120973368Y-110373475D01*
X121147760Y-110490000D01*
X120973368Y-110606525D01*
X120766525Y-110813368D01*
X120604010Y-111056589D01*
X120492068Y-111326842D01*
X120435000Y-111613740D01*
X120435000Y-111906260D01*
X120492068Y-112193158D01*
X120604010Y-112463411D01*
X120766525Y-112706632D01*
X120973368Y-112913475D01*
X121155534Y-113035195D01*
X121038645Y-113104822D01*
X120822412Y-113299731D01*
X120648359Y-113533080D01*
X120523175Y-113795901D01*
X120478524Y-113943110D01*
X120599845Y-114173000D01*
X121793000Y-114173000D01*
X121793000Y-114153000D01*
X122047000Y-114153000D01*
X122047000Y-114173000D01*
X122067000Y-114173000D01*
X122067000Y-114427000D01*
X122047000Y-114427000D01*
X122047000Y-116713000D01*
X122067000Y-116713000D01*
X122067000Y-116967000D01*
X122047000Y-116967000D01*
X122047000Y-118160814D01*
X122276891Y-118281481D01*
X122551252Y-118184157D01*
X122801355Y-118035178D01*
X123017588Y-117840269D01*
X123188900Y-117610594D01*
X123306525Y-117786632D01*
X123513368Y-117993475D01*
X123756589Y-118155990D01*
X124026842Y-118267932D01*
X124313740Y-118325000D01*
X124606260Y-118325000D01*
X124893158Y-118267932D01*
X125163411Y-118155990D01*
X125406632Y-117993475D01*
X125613475Y-117786632D01*
X125775990Y-117543411D01*
X125887932Y-117273158D01*
X125945000Y-116986260D01*
X125945000Y-116693740D01*
X125887932Y-116406842D01*
X125775990Y-116136589D01*
X125613475Y-115893368D01*
X125406632Y-115686525D01*
X125232240Y-115570000D01*
X125406632Y-115453475D01*
X125613475Y-115246632D01*
X125775990Y-115003411D01*
X125887932Y-114733158D01*
X125945000Y-114446260D01*
X125945000Y-114153740D01*
X125887932Y-113866842D01*
X125775990Y-113596589D01*
X125613475Y-113353368D01*
X125406632Y-113146525D01*
X125232240Y-113030000D01*
X125406632Y-112913475D01*
X125613475Y-112706632D01*
X125738178Y-112520000D01*
X133312667Y-112520000D01*
X133350000Y-112523677D01*
X133498986Y-112509003D01*
X133642247Y-112465546D01*
X133774276Y-112394974D01*
X133890001Y-112300001D01*
X133984974Y-112184276D01*
X134055546Y-112052247D01*
X134099003Y-111908986D01*
X134110000Y-111797333D01*
X134113677Y-111760000D01*
X134110000Y-111722667D01*
X134110000Y-108264801D01*
X134934802Y-107440000D01*
X134985987Y-107440000D01*
X134972795Y-107459744D01*
X134894774Y-107648102D01*
X134855000Y-107848061D01*
X134855000Y-108051939D01*
X134894774Y-108251898D01*
X134972795Y-108440256D01*
X135086063Y-108609774D01*
X135130000Y-108653711D01*
X135130001Y-117350000D01*
X127037333Y-117350000D01*
X127000000Y-117346323D01*
X126962667Y-117350000D01*
X126851014Y-117360997D01*
X126707753Y-117404454D01*
X126575724Y-117475026D01*
X126459999Y-117569999D01*
X126365026Y-117685724D01*
X126294454Y-117817753D01*
X126250997Y-117961014D01*
X126236323Y-118110000D01*
X126240000Y-118147333D01*
X126240000Y-118676289D01*
X126196063Y-118720226D01*
X126082795Y-118889744D01*
X126004774Y-119078102D01*
X125965000Y-119278061D01*
X125965000Y-119481939D01*
X126004774Y-119681898D01*
X126082795Y-119870256D01*
X126196063Y-120039774D01*
X126340226Y-120183937D01*
X126509744Y-120297205D01*
X126698102Y-120375226D01*
X126898061Y-120415000D01*
X127101939Y-120415000D01*
X127301898Y-120375226D01*
X127490256Y-120297205D01*
X127659774Y-120183937D01*
X127803937Y-120039774D01*
X127917205Y-119870256D01*
X127995226Y-119681898D01*
X128035000Y-119481939D01*
X128035000Y-119278061D01*
X127995226Y-119078102D01*
X127917205Y-118889744D01*
X127904013Y-118870000D01*
X135852667Y-118870000D01*
X135890000Y-118873677D01*
X136038986Y-118859003D01*
X136182247Y-118815546D01*
X136314276Y-118744974D01*
X136430001Y-118650001D01*
X136524974Y-118534276D01*
X136595546Y-118402247D01*
X136639003Y-118258986D01*
X136650000Y-118147333D01*
X136653677Y-118110000D01*
X136650000Y-118072667D01*
X136650000Y-108653711D01*
X136693937Y-108609774D01*
X136719438Y-108571609D01*
X136735724Y-108584974D01*
X136867753Y-108655546D01*
X137011014Y-108699003D01*
X137122667Y-108710000D01*
X137160000Y-108713677D01*
X137197333Y-108710000D01*
X140932678Y-108710000D01*
X140970000Y-108713676D01*
X141007322Y-108710000D01*
X141007333Y-108710000D01*
X141118986Y-108699003D01*
X141262247Y-108655546D01*
X141394276Y-108584974D01*
X141410562Y-108571609D01*
X141436063Y-108609774D01*
X141480000Y-108653711D01*
X141480001Y-118676288D01*
X141436063Y-118720226D01*
X141322795Y-118889744D01*
X141244774Y-119078102D01*
X141205000Y-119278061D01*
X141205000Y-119481939D01*
X141244774Y-119681898D01*
X141322795Y-119870256D01*
X141436063Y-120039774D01*
X141580226Y-120183937D01*
X141749744Y-120297205D01*
X141938102Y-120375226D01*
X142138061Y-120415000D01*
X142341939Y-120415000D01*
X142541898Y-120375226D01*
X142730256Y-120297205D01*
X142750001Y-120284012D01*
X142750000Y-129502667D01*
X142746323Y-129540000D01*
X142760997Y-129688986D01*
X142804454Y-129832247D01*
X142875026Y-129964276D01*
X142945378Y-130050000D01*
X142969999Y-130080001D01*
X143085724Y-130174974D01*
X143217753Y-130245546D01*
X143361014Y-130289003D01*
X143510000Y-130303677D01*
X143547333Y-130300000D01*
X150815199Y-130300000D01*
X152366599Y-131851400D01*
X152252401Y-131851400D01*
X151962875Y-131908990D01*
X151690147Y-132021958D01*
X151444698Y-132185961D01*
X151235961Y-132394698D01*
X151130000Y-132553281D01*
X151024039Y-132394698D01*
X150815302Y-132185961D01*
X150569853Y-132021958D01*
X150297125Y-131908990D01*
X150007599Y-131851400D01*
X149712401Y-131851400D01*
X149422875Y-131908990D01*
X149150147Y-132021958D01*
X148904698Y-132185961D01*
X148695961Y-132394698D01*
X148590000Y-132553281D01*
X148484039Y-132394698D01*
X148275302Y-132185961D01*
X148029853Y-132021958D01*
X147757125Y-131908990D01*
X147467599Y-131851400D01*
X147172401Y-131851400D01*
X146882875Y-131908990D01*
X146610147Y-132021958D01*
X146364698Y-132185961D01*
X146155961Y-132394698D01*
X146050000Y-132553281D01*
X145944039Y-132394698D01*
X145735302Y-132185961D01*
X145489853Y-132021958D01*
X145217125Y-131908990D01*
X144927599Y-131851400D01*
X144632401Y-131851400D01*
X144342875Y-131908990D01*
X144070147Y-132021958D01*
X143824698Y-132185961D01*
X143615961Y-132394698D01*
X143451958Y-132640147D01*
X143338990Y-132912875D01*
X143281400Y-133202401D01*
X143281400Y-133497599D01*
X143338990Y-133787125D01*
X143451958Y-134059853D01*
X143615961Y-134305302D01*
X143803659Y-134493000D01*
X132734283Y-134493000D01*
X132790631Y-134408669D01*
X132959110Y-134001925D01*
X133045000Y-133570128D01*
X133045000Y-133129872D01*
X132959110Y-132698075D01*
X132790631Y-132291331D01*
X132546038Y-131925271D01*
X132234729Y-131613962D01*
X131868669Y-131369369D01*
X131461925Y-131200890D01*
X131030128Y-131115000D01*
X130589872Y-131115000D01*
X130158075Y-131200890D01*
X129751331Y-131369369D01*
X129385271Y-131613962D01*
X129073962Y-131925271D01*
X128829369Y-132291331D01*
X128660890Y-132698075D01*
X128575000Y-133129872D01*
X128575000Y-133570128D01*
X128660890Y-134001925D01*
X128829369Y-134408669D01*
X128885717Y-134493000D01*
X118237000Y-134493000D01*
X118237000Y-117196890D01*
X120478524Y-117196890D01*
X120523175Y-117344099D01*
X120648359Y-117606920D01*
X120822412Y-117840269D01*
X121038645Y-118035178D01*
X121288748Y-118184157D01*
X121563109Y-118281481D01*
X121793000Y-118160814D01*
X121793000Y-116967000D01*
X120599845Y-116967000D01*
X120478524Y-117196890D01*
X118237000Y-117196890D01*
X118237000Y-114656890D01*
X120478524Y-114656890D01*
X120523175Y-114804099D01*
X120648359Y-115066920D01*
X120822412Y-115300269D01*
X121038645Y-115495178D01*
X121164255Y-115570000D01*
X121038645Y-115644822D01*
X120822412Y-115839731D01*
X120648359Y-116073080D01*
X120523175Y-116335901D01*
X120478524Y-116483110D01*
X120599845Y-116713000D01*
X121793000Y-116713000D01*
X121793000Y-114427000D01*
X120599845Y-114427000D01*
X120478524Y-114656890D01*
X118237000Y-114656890D01*
X118237000Y-95670000D01*
X128051928Y-95670000D01*
X128051928Y-97370000D01*
X128064188Y-97494482D01*
X128100498Y-97614180D01*
X128159463Y-97724494D01*
X128238815Y-97821185D01*
X128335506Y-97900537D01*
X128445820Y-97959502D01*
X128565518Y-97995812D01*
X128690000Y-98008072D01*
X130390000Y-98008072D01*
X130514482Y-97995812D01*
X130634180Y-97959502D01*
X130744494Y-97900537D01*
X130841185Y-97821185D01*
X130920537Y-97724494D01*
X130979502Y-97614180D01*
X131015812Y-97494482D01*
X131028072Y-97370000D01*
X131028072Y-95670000D01*
X131015812Y-95545518D01*
X130979502Y-95425820D01*
X130920537Y-95315506D01*
X130841185Y-95218815D01*
X130744494Y-95139463D01*
X130634180Y-95080498D01*
X130514482Y-95044188D01*
X130390000Y-95031928D01*
X128690000Y-95031928D01*
X128565518Y-95044188D01*
X128445820Y-95080498D01*
X128335506Y-95139463D01*
X128238815Y-95218815D01*
X128159463Y-95315506D01*
X128100498Y-95425820D01*
X128064188Y-95545518D01*
X128051928Y-95670000D01*
X118237000Y-95670000D01*
X118237000Y-93130000D01*
X131861928Y-93130000D01*
X131861928Y-94830000D01*
X131874188Y-94954482D01*
X131910498Y-95074180D01*
X131969463Y-95184494D01*
X132048815Y-95281185D01*
X132145506Y-95360537D01*
X132255820Y-95419502D01*
X132375518Y-95455812D01*
X132500000Y-95468072D01*
X134200000Y-95468072D01*
X134324482Y-95455812D01*
X134444180Y-95419502D01*
X134554494Y-95360537D01*
X134651185Y-95281185D01*
X134662415Y-95267501D01*
X134750725Y-95339975D01*
X134882754Y-95410547D01*
X135026015Y-95454004D01*
X135137668Y-95465001D01*
X135137677Y-95465001D01*
X135175000Y-95468677D01*
X135212323Y-95465001D01*
X138937677Y-95465001D01*
X138974999Y-95468677D01*
X139012321Y-95465001D01*
X139012332Y-95465001D01*
X139123985Y-95454004D01*
X139267246Y-95410547D01*
X139399275Y-95339975D01*
X139515000Y-95245002D01*
X139538802Y-95215999D01*
X139739801Y-95015000D01*
X139801939Y-95015000D01*
X140001898Y-94975226D01*
X140190256Y-94897205D01*
X140359774Y-94783937D01*
X140503937Y-94639774D01*
X140617205Y-94470256D01*
X140695226Y-94281898D01*
X140735000Y-94081939D01*
X140735000Y-93878061D01*
X140695226Y-93678102D01*
X140617205Y-93489744D01*
X140503937Y-93320226D01*
X140359774Y-93176063D01*
X140196387Y-93066891D01*
X147148519Y-93066891D01*
X147245843Y-93341252D01*
X147394822Y-93591355D01*
X147589731Y-93807588D01*
X147823080Y-93981641D01*
X148085901Y-94106825D01*
X148233110Y-94151476D01*
X148463000Y-94030155D01*
X148463000Y-92837000D01*
X148717000Y-92837000D01*
X148717000Y-94030155D01*
X148946890Y-94151476D01*
X149094099Y-94106825D01*
X149356920Y-93981641D01*
X149590269Y-93807588D01*
X149785178Y-93591355D01*
X149860000Y-93465745D01*
X149934822Y-93591355D01*
X150129731Y-93807588D01*
X150363080Y-93981641D01*
X150625901Y-94106825D01*
X150773110Y-94151476D01*
X151003000Y-94030155D01*
X151003000Y-92837000D01*
X151257000Y-92837000D01*
X151257000Y-94030155D01*
X151486890Y-94151476D01*
X151634099Y-94106825D01*
X151896920Y-93981641D01*
X152130269Y-93807588D01*
X152325178Y-93591355D01*
X152400000Y-93465745D01*
X152474822Y-93591355D01*
X152669731Y-93807588D01*
X152903080Y-93981641D01*
X153165901Y-94106825D01*
X153313110Y-94151476D01*
X153543000Y-94030155D01*
X153543000Y-92837000D01*
X153797000Y-92837000D01*
X153797000Y-94030155D01*
X154026890Y-94151476D01*
X154174099Y-94106825D01*
X154436920Y-93981641D01*
X154670269Y-93807588D01*
X154746034Y-93723534D01*
X154770498Y-93804180D01*
X154829463Y-93914494D01*
X154908815Y-94011185D01*
X155005506Y-94090537D01*
X155115820Y-94149502D01*
X155235518Y-94185812D01*
X155360000Y-94198072D01*
X155924250Y-94195000D01*
X156083000Y-94036250D01*
X156083000Y-92837000D01*
X156337000Y-92837000D01*
X156337000Y-94036250D01*
X156495750Y-94195000D01*
X157060000Y-94198072D01*
X157184482Y-94185812D01*
X157304180Y-94149502D01*
X157414494Y-94090537D01*
X157511185Y-94011185D01*
X157590537Y-93914494D01*
X157649502Y-93804180D01*
X157685812Y-93684482D01*
X157698072Y-93560000D01*
X157695000Y-92995750D01*
X157536250Y-92837000D01*
X156337000Y-92837000D01*
X156083000Y-92837000D01*
X153797000Y-92837000D01*
X153543000Y-92837000D01*
X151257000Y-92837000D01*
X151003000Y-92837000D01*
X148717000Y-92837000D01*
X148463000Y-92837000D01*
X147269186Y-92837000D01*
X147148519Y-93066891D01*
X140196387Y-93066891D01*
X140190256Y-93062795D01*
X140001898Y-92984774D01*
X139801939Y-92945000D01*
X139598061Y-92945000D01*
X139398102Y-92984774D01*
X139209744Y-93062795D01*
X139040226Y-93176063D01*
X138896063Y-93320226D01*
X138782795Y-93489744D01*
X138704774Y-93678102D01*
X138665000Y-93878061D01*
X138665000Y-93940199D01*
X138660198Y-93945001D01*
X135489803Y-93945001D01*
X135013803Y-93469002D01*
X134990001Y-93439999D01*
X134874276Y-93345026D01*
X134838072Y-93325674D01*
X134838072Y-93130000D01*
X134825812Y-93005518D01*
X134789502Y-92885820D01*
X134730537Y-92775506D01*
X134651185Y-92678815D01*
X134554494Y-92599463D01*
X134444180Y-92540498D01*
X134324482Y-92504188D01*
X134200000Y-92491928D01*
X132500000Y-92491928D01*
X132375518Y-92504188D01*
X132255820Y-92540498D01*
X132145506Y-92599463D01*
X132048815Y-92678815D01*
X131969463Y-92775506D01*
X131910498Y-92885820D01*
X131874188Y-93005518D01*
X131861928Y-93130000D01*
X118237000Y-93130000D01*
X118237000Y-90023740D01*
X147105000Y-90023740D01*
X147105000Y-90316260D01*
X147162068Y-90603158D01*
X147274010Y-90873411D01*
X147436525Y-91116632D01*
X147643368Y-91323475D01*
X147819406Y-91441100D01*
X147589731Y-91612412D01*
X147394822Y-91828645D01*
X147245843Y-92078748D01*
X147148519Y-92353109D01*
X147269186Y-92583000D01*
X148463000Y-92583000D01*
X148463000Y-92563000D01*
X148717000Y-92563000D01*
X148717000Y-92583000D01*
X151003000Y-92583000D01*
X151003000Y-92563000D01*
X151257000Y-92563000D01*
X151257000Y-92583000D01*
X153543000Y-92583000D01*
X153543000Y-92563000D01*
X153797000Y-92563000D01*
X153797000Y-92583000D01*
X156083000Y-92583000D01*
X156083000Y-92563000D01*
X156337000Y-92563000D01*
X156337000Y-92583000D01*
X157536250Y-92583000D01*
X157695000Y-92424250D01*
X157698072Y-91860000D01*
X157685812Y-91735518D01*
X157649502Y-91615820D01*
X157590537Y-91505506D01*
X157511185Y-91408815D01*
X157414494Y-91329463D01*
X157304180Y-91270498D01*
X157231620Y-91248487D01*
X157363475Y-91116632D01*
X157525990Y-90873411D01*
X157637932Y-90603158D01*
X157695000Y-90316260D01*
X157695000Y-90023740D01*
X157637932Y-89736842D01*
X157525990Y-89466589D01*
X157363475Y-89223368D01*
X157156632Y-89016525D01*
X156913411Y-88854010D01*
X156643158Y-88742068D01*
X156356260Y-88685000D01*
X156063740Y-88685000D01*
X155776842Y-88742068D01*
X155506589Y-88854010D01*
X155263368Y-89016525D01*
X155056525Y-89223368D01*
X154940000Y-89397760D01*
X154823475Y-89223368D01*
X154616632Y-89016525D01*
X154373411Y-88854010D01*
X154103158Y-88742068D01*
X153816260Y-88685000D01*
X153523740Y-88685000D01*
X153236842Y-88742068D01*
X152966589Y-88854010D01*
X152723368Y-89016525D01*
X152516525Y-89223368D01*
X152400000Y-89397760D01*
X152283475Y-89223368D01*
X152076632Y-89016525D01*
X151833411Y-88854010D01*
X151563158Y-88742068D01*
X151276260Y-88685000D01*
X150983740Y-88685000D01*
X150696842Y-88742068D01*
X150426589Y-88854010D01*
X150183368Y-89016525D01*
X149976525Y-89223368D01*
X149860000Y-89397760D01*
X149743475Y-89223368D01*
X149536632Y-89016525D01*
X149293411Y-88854010D01*
X149023158Y-88742068D01*
X148736260Y-88685000D01*
X148443740Y-88685000D01*
X148156842Y-88742068D01*
X147886589Y-88854010D01*
X147643368Y-89016525D01*
X147436525Y-89223368D01*
X147274010Y-89466589D01*
X147162068Y-89736842D01*
X147105000Y-90023740D01*
X118237000Y-90023740D01*
X118237000Y-87773407D01*
X118285820Y-87799502D01*
X118405518Y-87835812D01*
X118530000Y-87848072D01*
X120230000Y-87848072D01*
X120354482Y-87835812D01*
X120474180Y-87799502D01*
X120584494Y-87740537D01*
X120681185Y-87661185D01*
X120760537Y-87564494D01*
X120819502Y-87454180D01*
X120855812Y-87334482D01*
X120868072Y-87210000D01*
X122971928Y-87210000D01*
X122984188Y-87334482D01*
X123020498Y-87454180D01*
X123079463Y-87564494D01*
X123158815Y-87661185D01*
X123255506Y-87740537D01*
X123365820Y-87799502D01*
X123485518Y-87835812D01*
X123610000Y-87848072D01*
X124174250Y-87845000D01*
X124333000Y-87686250D01*
X124333000Y-86487000D01*
X124587000Y-86487000D01*
X124587000Y-87686250D01*
X124745750Y-87845000D01*
X125310000Y-87848072D01*
X125434482Y-87835812D01*
X125554180Y-87799502D01*
X125664494Y-87740537D01*
X125761185Y-87661185D01*
X125840537Y-87564494D01*
X125899502Y-87454180D01*
X125935812Y-87334482D01*
X125948072Y-87210000D01*
X125945000Y-86645750D01*
X125786250Y-86487000D01*
X124587000Y-86487000D01*
X124333000Y-86487000D01*
X123133750Y-86487000D01*
X122975000Y-86645750D01*
X122971928Y-87210000D01*
X120868072Y-87210000D01*
X120868072Y-85510000D01*
X122971928Y-85510000D01*
X122975000Y-86074250D01*
X123133750Y-86233000D01*
X124333000Y-86233000D01*
X124333000Y-85033750D01*
X124587000Y-85033750D01*
X124587000Y-86233000D01*
X125786250Y-86233000D01*
X125945000Y-86074250D01*
X125948072Y-85510000D01*
X125935812Y-85385518D01*
X125899502Y-85265820D01*
X125840537Y-85155506D01*
X125761185Y-85058815D01*
X125664494Y-84979463D01*
X125554180Y-84920498D01*
X125434482Y-84884188D01*
X125310000Y-84871928D01*
X124745750Y-84875000D01*
X124587000Y-85033750D01*
X124333000Y-85033750D01*
X124174250Y-84875000D01*
X123610000Y-84871928D01*
X123485518Y-84884188D01*
X123365820Y-84920498D01*
X123255506Y-84979463D01*
X123158815Y-85058815D01*
X123079463Y-85155506D01*
X123020498Y-85265820D01*
X122984188Y-85385518D01*
X122971928Y-85510000D01*
X120868072Y-85510000D01*
X120855812Y-85385518D01*
X120819502Y-85265820D01*
X120760537Y-85155506D01*
X120681185Y-85058815D01*
X120584494Y-84979463D01*
X120474180Y-84920498D01*
X120354482Y-84884188D01*
X120230000Y-84871928D01*
X118530000Y-84871928D01*
X118405518Y-84884188D01*
X118285820Y-84920498D01*
X118237000Y-84946593D01*
X118237000Y-83947000D01*
X130155717Y-83947000D01*
X130099369Y-84031331D01*
M02*
