G04 #@! TF.GenerationSoftware,KiCad,Pcbnew,(5.1.5-0-10_14)*
G04 #@! TF.CreationDate,2020-04-21T20:51:53-05:00*
G04 #@! TF.ProjectId,Electronic Target,456c6563-7472-46f6-9e69-632054617267,rev?*
G04 #@! TF.SameCoordinates,Original*
G04 #@! TF.FileFunction,Copper,L2,Bot*
G04 #@! TF.FilePolarity,Positive*
%FSLAX46Y46*%
G04 Gerber Fmt 4.6, Leading zero omitted, Abs format (unit mm)*
G04 Created by KiCad (PCBNEW (5.1.5-0-10_14)) date 2020-04-21 20:51:53*
%MOMM*%
%LPD*%
G04 APERTURE LIST*
%ADD10O,1.727200X1.727200*%
%ADD11C,1.180000*%
%ADD12R,1.180000X1.180000*%
%ADD13O,1.700000X1.700000*%
%ADD14R,1.700000X1.700000*%
%ADD15R,1.600000X1.600000*%
%ADD16O,1.600000X1.600000*%
%ADD17C,0.800000*%
%ADD18C,0.250000*%
%ADD19C,0.635000*%
%ADD20C,0.254000*%
G04 APERTURE END LIST*
D10*
X167640000Y-133350000D03*
X162560000Y-133350000D03*
X160020000Y-133350000D03*
X157480000Y-133350000D03*
X154940000Y-133350000D03*
X152400000Y-133350000D03*
X149860000Y-133350000D03*
X147320000Y-133350000D03*
X203200000Y-85090000D03*
X200660000Y-85090000D03*
X198120000Y-85090000D03*
X195580000Y-85090000D03*
X193040000Y-85090000D03*
X190500000Y-85090000D03*
X187960000Y-85090000D03*
X185420000Y-85090000D03*
X180340000Y-85090000D03*
X177800000Y-85090000D03*
X175260000Y-85090000D03*
X172720000Y-85090000D03*
X170180000Y-85090000D03*
X167640000Y-85090000D03*
X165100000Y-85090000D03*
X162560000Y-85090000D03*
X143256000Y-85090000D03*
X158496000Y-85090000D03*
X155956000Y-85090000D03*
X153416000Y-85090000D03*
X135636000Y-85090000D03*
X138176000Y-85090000D03*
X140716000Y-85090000D03*
X145796000Y-85090000D03*
X148336000Y-85090000D03*
X150876000Y-85090000D03*
X144780000Y-133350000D03*
X170180000Y-133350000D03*
X172720000Y-133350000D03*
X175260000Y-133350000D03*
X177800000Y-133350000D03*
X180340000Y-133350000D03*
X182880000Y-133350000D03*
X185420000Y-133350000D03*
X190500000Y-133350000D03*
X193040000Y-133350000D03*
X195580000Y-133350000D03*
X198120000Y-133350000D03*
X200660000Y-133350000D03*
X203200000Y-133350000D03*
X205740000Y-133350000D03*
X208280000Y-133350000D03*
X210820000Y-85090000D03*
X213360000Y-85090000D03*
X210820000Y-87630000D03*
X213360000Y-87630000D03*
X210820000Y-90170000D03*
X213360000Y-90170000D03*
X210820000Y-92710000D03*
X213360000Y-92710000D03*
X210820000Y-95250000D03*
X213360000Y-95250000D03*
X210820000Y-97790000D03*
X213360000Y-97790000D03*
X210820000Y-100330000D03*
X213360000Y-100330000D03*
X210820000Y-102870000D03*
X213360000Y-102870000D03*
X210820000Y-105410000D03*
X213360000Y-105410000D03*
X210820000Y-107950000D03*
X213360000Y-107950000D03*
X210820000Y-110490000D03*
X213360000Y-110490000D03*
X210820000Y-113030000D03*
X213360000Y-113030000D03*
X210820000Y-115570000D03*
X213360000Y-115570000D03*
X210820000Y-118110000D03*
X213360000Y-118110000D03*
X210820000Y-120650000D03*
X213360000Y-120650000D03*
X210820000Y-123190000D03*
X213360000Y-123190000D03*
X210820000Y-125730000D03*
X213360000Y-125730000D03*
X210820000Y-128270000D03*
X213360000Y-128270000D03*
D11*
X135890000Y-114300000D03*
X135890000Y-116840000D03*
X135890000Y-119380000D03*
X135890000Y-124460000D03*
D12*
X135890000Y-127000000D03*
D13*
X124460000Y-119380000D03*
X121920000Y-119380000D03*
X124460000Y-116840000D03*
X121920000Y-116840000D03*
X124460000Y-114300000D03*
X121920000Y-114300000D03*
X124460000Y-111760000D03*
X121920000Y-111760000D03*
X124460000Y-109220000D03*
X121920000Y-109220000D03*
X124460000Y-106680000D03*
D14*
X121920000Y-106680000D03*
X156210000Y-92710000D03*
D13*
X156210000Y-90170000D03*
X153670000Y-92710000D03*
X153670000Y-90170000D03*
X151130000Y-92710000D03*
X151130000Y-90170000D03*
X148590000Y-92710000D03*
X148590000Y-90170000D03*
D14*
X144780000Y-106680000D03*
X129540000Y-96520000D03*
X143510000Y-97790000D03*
X133350000Y-93980000D03*
X160020000Y-100330000D03*
X157480000Y-110490000D03*
X179070000Y-106680000D03*
X158750000Y-125730000D03*
X119380000Y-86360000D03*
X124460000Y-86360000D03*
D15*
X163830000Y-119380000D03*
D16*
X171450000Y-127000000D03*
X163830000Y-121920000D03*
X171450000Y-124460000D03*
X163830000Y-124460000D03*
X171450000Y-121920000D03*
X163830000Y-127000000D03*
X171450000Y-119380000D03*
D17*
X161290000Y-107950000D03*
X144780000Y-90170000D03*
X165100000Y-97790000D03*
X153670000Y-96520000D03*
X167640000Y-111760000D03*
X195580000Y-90170000D03*
X181610000Y-111760000D03*
X208280000Y-130810000D03*
X138430000Y-93980000D03*
X120650000Y-95250000D03*
X181610000Y-123190000D03*
X184150000Y-104140000D03*
X156210000Y-102870000D03*
X146050000Y-102870000D03*
X146050000Y-121920000D03*
X156210000Y-121920000D03*
X156210000Y-115570000D03*
X151130000Y-127000000D03*
X138430000Y-97790000D03*
X135890000Y-102870000D03*
X129540000Y-125730000D03*
X151130000Y-107950000D03*
X121920000Y-127000000D03*
X190500000Y-88900000D03*
X193040000Y-113030000D03*
X194310000Y-116840000D03*
X190500000Y-99060000D03*
X173052500Y-96187500D03*
X133350000Y-97790000D03*
X130810000Y-102870000D03*
X143510000Y-127000000D03*
X143510000Y-115570000D03*
X172720000Y-100330000D03*
X130810000Y-106680000D03*
X166370000Y-116840000D03*
X138430000Y-114300000D03*
X138430000Y-110490000D03*
X135890000Y-106680000D03*
X133350000Y-111760000D03*
X160020000Y-109220000D03*
X139700000Y-113030000D03*
X140970000Y-109220000D03*
X165100000Y-111760000D03*
X135890000Y-101600000D03*
X132080000Y-119380000D03*
X142240000Y-107950000D03*
X142240000Y-119380000D03*
X142240000Y-105410000D03*
X139700000Y-93980000D03*
X139700000Y-99060000D03*
X151130000Y-105410000D03*
X162560000Y-100330000D03*
X186690000Y-91440000D03*
X181610000Y-102870000D03*
X184150000Y-93980000D03*
X156210000Y-106680000D03*
X177800000Y-130810000D03*
X187960000Y-93980000D03*
X175260000Y-129540000D03*
X181610000Y-96520000D03*
X177800000Y-101600000D03*
X157480000Y-105410000D03*
X158750000Y-120650000D03*
X162560000Y-105410000D03*
X172720000Y-105410000D03*
X172720000Y-101600000D03*
X162560000Y-101600000D03*
X175260000Y-99060000D03*
X175260000Y-107950000D03*
X175260000Y-110490000D03*
X175260000Y-116840000D03*
X173990000Y-105410000D03*
X175260000Y-118110000D03*
X180340000Y-124460000D03*
X180340000Y-110490000D03*
X184150000Y-125730000D03*
X187960000Y-100330000D03*
X205740000Y-97790000D03*
X205740000Y-97790000D03*
X189230000Y-101600000D03*
X190500000Y-104140000D03*
X190500000Y-123190000D03*
X190500000Y-110490000D03*
X194310000Y-124460000D03*
X195580000Y-110490000D03*
X205740000Y-118110000D03*
X205740000Y-99060000D03*
X204470000Y-118110000D03*
X204470000Y-99060000D03*
X203200000Y-118110000D03*
X203200000Y-99060000D03*
X203200000Y-104140000D03*
X201930000Y-118110000D03*
X201930000Y-99060000D03*
X201930000Y-104140000D03*
X200660000Y-118110000D03*
X200660000Y-99060000D03*
X200660000Y-106680000D03*
X199390000Y-118110000D03*
X199390000Y-99060000D03*
X199390000Y-105410000D03*
X198120000Y-118110000D03*
X198120000Y-99060000D03*
X198120000Y-107950000D03*
X196850000Y-99060000D03*
X196850000Y-118110000D03*
X196850000Y-109220000D03*
X187960000Y-120650000D03*
X182880000Y-114300000D03*
X182880000Y-120650000D03*
X187960000Y-119380000D03*
X186690000Y-115570000D03*
X127000000Y-119380000D03*
X125730000Y-99060000D03*
X135890000Y-105410000D03*
X143510000Y-113030000D03*
X160020000Y-113030000D03*
X135890000Y-107950000D03*
X177800000Y-120650000D03*
X184150000Y-96520000D03*
X144780000Y-123190000D03*
X129540000Y-116840000D03*
X132080000Y-125730000D03*
X135890000Y-134620000D03*
D18*
X144780000Y-90170000D02*
X144780000Y-92710000D01*
X144780000Y-92710000D02*
X156210000Y-92710000D01*
X143256000Y-87376000D02*
X143256000Y-85090000D01*
X144780000Y-90170000D02*
X144780000Y-88900000D01*
X144780000Y-88900000D02*
X143256000Y-87376000D01*
X144780000Y-90170000D02*
X139700000Y-90170000D01*
X139700000Y-90170000D02*
X138430000Y-91440000D01*
X125560000Y-86360000D02*
X130640000Y-91440000D01*
X124460000Y-86360000D02*
X125560000Y-86360000D01*
X130640000Y-91440000D02*
X130810000Y-91440000D01*
X130810000Y-91440000D02*
X138430000Y-91440000D01*
X163830000Y-129540000D02*
X160020000Y-133350000D01*
X163830000Y-127000000D02*
X163830000Y-129540000D01*
X160020000Y-133350000D02*
X157480000Y-133350000D01*
X160020000Y-92710000D02*
X165100000Y-97790000D01*
X156210000Y-92710000D02*
X160020000Y-92710000D01*
X165100000Y-97790000D02*
X163830000Y-97790000D01*
X195580000Y-90170000D02*
X195580000Y-87630000D01*
X195580000Y-87630000D02*
X162560000Y-87630000D01*
X162560000Y-90170000D02*
X160020000Y-92710000D01*
X162560000Y-87630000D02*
X162560000Y-90170000D01*
X138430000Y-93980000D02*
X138430000Y-91440000D01*
X181610000Y-128270000D02*
X181610000Y-106680000D01*
X181610000Y-106680000D02*
X184150000Y-104140000D01*
X184150000Y-130810000D02*
X181610000Y-128270000D01*
X208280000Y-130810000D02*
X184150000Y-130810000D01*
X156210000Y-102870000D02*
X146050000Y-102870000D01*
X146050000Y-121920000D02*
X156210000Y-121920000D01*
X151130000Y-106680000D02*
X151130000Y-121920000D01*
X156210000Y-121920000D02*
X156210000Y-115570000D01*
X156210000Y-115570000D02*
X156210000Y-115570000D01*
X151130000Y-121920000D02*
X151130000Y-127000000D01*
X129939999Y-126129999D02*
X129540000Y-125730000D01*
X130265001Y-126455001D02*
X129939999Y-126129999D01*
X133894999Y-126455001D02*
X130265001Y-126455001D01*
X135890000Y-124460000D02*
X133894999Y-126455001D01*
X135890000Y-116840000D02*
X134620000Y-118110000D01*
X134620000Y-118110000D02*
X134620000Y-123190000D01*
X134620000Y-123190000D02*
X135890000Y-124460000D01*
X156210000Y-121920000D02*
X158750000Y-121920000D01*
X163830000Y-107950000D02*
X161290000Y-107950000D01*
X167640000Y-111760000D02*
X163830000Y-107950000D01*
X161290000Y-100330000D02*
X161290000Y-107950000D01*
X138430000Y-97790000D02*
X138430000Y-101600000D01*
X138430000Y-101600000D02*
X137160000Y-102870000D01*
X137160000Y-102870000D02*
X135890000Y-102870000D01*
X121920000Y-116840000D02*
X121920000Y-114300000D01*
X123095001Y-91534999D02*
X123190000Y-91440000D01*
X123095001Y-113124999D02*
X123095001Y-91534999D01*
X121920000Y-114300000D02*
X123095001Y-113124999D01*
X130810000Y-91440000D02*
X123190000Y-91440000D01*
X120650000Y-95250000D02*
X123190000Y-95250000D01*
X120744999Y-118015001D02*
X120744999Y-125824999D01*
X121920000Y-116840000D02*
X120744999Y-118015001D01*
X120744999Y-125824999D02*
X121920000Y-127000000D01*
X121920000Y-127000000D02*
X121920000Y-127000000D01*
X163830000Y-97790000D02*
X162560000Y-97790000D01*
X162560000Y-97790000D02*
X161290000Y-99060000D01*
X161290000Y-99060000D02*
X161290000Y-100330000D01*
X163830000Y-127000000D02*
X161290000Y-127000000D01*
X161290000Y-124460000D02*
X158750000Y-121920000D01*
X161290000Y-127000000D02*
X161290000Y-124460000D01*
D19*
X154940000Y-133350000D02*
X151130000Y-129540000D01*
D18*
X193040000Y-96520000D02*
X193040000Y-96520000D01*
D19*
X193040000Y-113030000D02*
X194310000Y-114300000D01*
X194310000Y-114300000D02*
X194310000Y-116840000D01*
D18*
X194310000Y-116840000D02*
X194310000Y-116840000D01*
D19*
X190500000Y-99060000D02*
X193040000Y-99060000D01*
X193040000Y-99060000D02*
X193040000Y-113030000D01*
X173052500Y-96187500D02*
X173052500Y-99997500D01*
X151130000Y-129540000D02*
X144780000Y-129540000D01*
X144780000Y-129540000D02*
X143510000Y-128270000D01*
X143510000Y-128270000D02*
X143510000Y-118110000D01*
X143510000Y-118110000D02*
X143510000Y-115570000D01*
D18*
X143510000Y-115570000D02*
X143510000Y-115570000D01*
X133350000Y-97790000D02*
X133350000Y-101600000D01*
X133350000Y-101600000D02*
X132080000Y-102870000D01*
X132080000Y-102870000D02*
X130810000Y-102870000D01*
D19*
X190500000Y-92710000D02*
X190500000Y-88900000D01*
X193040000Y-95250000D02*
X190500000Y-92710000D01*
X193040000Y-99060000D02*
X193040000Y-95250000D01*
X172720000Y-100330000D02*
X172720000Y-100330000D01*
X172720000Y-100330000D02*
X173052500Y-99997500D01*
D18*
X168910000Y-134620000D02*
X170180000Y-133350000D01*
X142240000Y-134620000D02*
X168910000Y-134620000D01*
X135541999Y-112485001D02*
X138626998Y-115570000D01*
X131535001Y-112485001D02*
X135541999Y-112485001D01*
X140970000Y-115570000D02*
X140970000Y-133350000D01*
X138626998Y-115570000D02*
X140970000Y-115570000D01*
X140970000Y-133350000D02*
X142240000Y-134620000D01*
X130810000Y-111760000D02*
X131535001Y-112485001D01*
X130810000Y-106680000D02*
X130810000Y-111760000D01*
X172720000Y-133350000D02*
X171450000Y-132080000D01*
X171450000Y-132080000D02*
X170813590Y-132080000D01*
X170813590Y-132080000D02*
X167640000Y-132080000D01*
X167640000Y-132080000D02*
X166370000Y-130810000D01*
X166370000Y-130810000D02*
X166370000Y-116840000D01*
X166370000Y-116840000D02*
X166370000Y-116840000D01*
X138430000Y-110490000D02*
X138430000Y-114300000D01*
X135890000Y-106680000D02*
X134620000Y-106680000D01*
X134620000Y-106680000D02*
X133350000Y-107950000D01*
X133350000Y-107950000D02*
X133350000Y-111760000D01*
X133350000Y-111760000D02*
X133350000Y-111760000D01*
X175260000Y-133350000D02*
X172720000Y-130810000D01*
X172720000Y-130810000D02*
X169543590Y-130810000D01*
X169543590Y-130810000D02*
X168910000Y-130810000D01*
X168910000Y-130810000D02*
X167640000Y-129540000D01*
X167640000Y-129540000D02*
X167640000Y-125730000D01*
X167640000Y-125730000D02*
X167640000Y-125730000D01*
X167640000Y-125730000D02*
X167640000Y-117036998D01*
X160020000Y-109220000D02*
X160020000Y-109220000D01*
X167640000Y-116840000D02*
X167640000Y-117036998D01*
X160020000Y-109220000D02*
X167640000Y-116840000D01*
X177800000Y-133350000D02*
X175260000Y-130810000D01*
X173990000Y-129540000D02*
X175260000Y-130810000D01*
X173990000Y-129540000D02*
X170180000Y-129540000D01*
X170180000Y-129540000D02*
X168910000Y-128270000D01*
X168910000Y-128270000D02*
X168910000Y-121920000D01*
X168910000Y-114300000D02*
X168910000Y-121920000D01*
X140970000Y-111760000D02*
X139700000Y-113030000D01*
X140970000Y-109220000D02*
X140970000Y-111760000D01*
X166370000Y-111760000D02*
X167640000Y-113030000D01*
X165100000Y-111760000D02*
X166370000Y-111760000D01*
X167640000Y-113030000D02*
X167013498Y-112403498D01*
X168910000Y-114300000D02*
X167640000Y-113030000D01*
X138430000Y-106680000D02*
X144780000Y-106680000D01*
X135164999Y-103414999D02*
X138430000Y-106680000D01*
X135164999Y-102325001D02*
X135164999Y-103414999D01*
X135890000Y-101600000D02*
X135164999Y-102325001D01*
X142240000Y-107950000D02*
X142240000Y-119380000D01*
X135175001Y-94705001D02*
X134450000Y-93980000D01*
X138974999Y-94705001D02*
X135175001Y-94705001D01*
X134450000Y-93980000D02*
X133350000Y-93980000D01*
X139700000Y-93980000D02*
X138974999Y-94705001D01*
X139700000Y-99060000D02*
X142240000Y-99060000D01*
X142240000Y-99060000D02*
X142240000Y-105410000D01*
X160020000Y-100330000D02*
X160020000Y-101600000D01*
X160020000Y-101600000D02*
X157480000Y-104140000D01*
X157480000Y-104140000D02*
X152400000Y-104140000D01*
X152400000Y-104140000D02*
X151130000Y-105410000D01*
X166370000Y-100330000D02*
X162560000Y-100330000D01*
X175260000Y-91440000D02*
X166370000Y-100330000D01*
X186690000Y-91440000D02*
X175260000Y-91440000D01*
X184150000Y-93980000D02*
X182880000Y-95250000D01*
X182880000Y-95250000D02*
X182880000Y-100330000D01*
X182880000Y-100330000D02*
X181610000Y-101600000D01*
X181610000Y-101600000D02*
X181610000Y-102870000D01*
X157480000Y-110490000D02*
X157480000Y-107950000D01*
X157480000Y-107950000D02*
X156210000Y-106680000D01*
X156210000Y-106680000D02*
X156210000Y-106680000D01*
X179070000Y-106680000D02*
X179070000Y-129540000D01*
X179070000Y-129540000D02*
X177800000Y-130810000D01*
X180170000Y-106680000D02*
X187960000Y-98890000D01*
X179070000Y-106680000D02*
X180170000Y-106680000D01*
X187960000Y-98890000D02*
X187960000Y-93980000D01*
X177800000Y-101600000D02*
X176530000Y-102870000D01*
X176530000Y-102870000D02*
X176530000Y-128270000D01*
X176530000Y-128270000D02*
X175260000Y-129540000D01*
X181610000Y-97790000D02*
X177800000Y-101600000D01*
X181610000Y-96520000D02*
X181610000Y-97790000D01*
X157480000Y-105410000D02*
X157480000Y-106680000D01*
X157480000Y-106680000D02*
X158750000Y-107950000D01*
X158750000Y-107950000D02*
X158750000Y-120650000D01*
X158750000Y-120650000D02*
X158750000Y-120650000D01*
X162560000Y-105410000D02*
X172720000Y-105410000D01*
X172720000Y-101600000D02*
X162560000Y-101600000D01*
X172720000Y-101600000D02*
X172720000Y-105410000D01*
X172720000Y-127000000D02*
X171450000Y-127000000D01*
X172720000Y-105410000D02*
X172720000Y-127000000D01*
X175260000Y-107950000D02*
X175260000Y-99060000D01*
X175260000Y-110490000D02*
X175260000Y-114300000D01*
X175260000Y-114300000D02*
X175260000Y-116840000D01*
X175260000Y-116840000D02*
X175260000Y-116840000D01*
X174440010Y-105860010D02*
X174440010Y-114750010D01*
X173990000Y-105410000D02*
X174440010Y-105860010D01*
X174440010Y-114750010D02*
X174440010Y-117290010D01*
X174440010Y-117290010D02*
X175260000Y-118110000D01*
X175260000Y-118110000D02*
X175260000Y-118110000D01*
X180340000Y-110490000D02*
X180340000Y-124460000D01*
X184150000Y-115570000D02*
X184150000Y-125730000D01*
X187960000Y-101600000D02*
X187960000Y-100330000D01*
X187960000Y-101600000D02*
X187960000Y-104140000D01*
X187960000Y-104140000D02*
X184150000Y-107950000D01*
X184150000Y-107950000D02*
X184150000Y-115570000D01*
X205740000Y-97790000D02*
X205740000Y-97790000D01*
X205740000Y-97790000D02*
X205740000Y-97790000D01*
X208280000Y-119380000D02*
X208280000Y-100330000D01*
X208280000Y-100330000D02*
X205740000Y-97790000D01*
X208361399Y-119461399D02*
X208280000Y-119380000D01*
X212171399Y-119461399D02*
X208361399Y-119461399D01*
X213360000Y-120650000D02*
X212171399Y-119461399D01*
X189230016Y-102870000D02*
X189230016Y-101600016D01*
X190500000Y-125730000D02*
X189230000Y-124460000D01*
X189230000Y-123190000D02*
X189230016Y-102870000D01*
X205740000Y-125730000D02*
X190500000Y-125730000D01*
X189230000Y-124460000D02*
X189230000Y-123190000D01*
X210820000Y-120650000D02*
X205740000Y-125730000D01*
X190500000Y-104140000D02*
X190500000Y-110490000D01*
X190500000Y-110490000D02*
X190500000Y-123190000D01*
X194310000Y-124460000D02*
X195580000Y-123190000D01*
X195580000Y-123190000D02*
X195580000Y-110490000D01*
X195580000Y-110490000D02*
X195580000Y-110490000D01*
X205740000Y-118110000D02*
X205740000Y-99060000D01*
X213360000Y-97790000D02*
X212090000Y-96520000D01*
X204470000Y-99060000D02*
X204470000Y-118110000D01*
X212090000Y-96520000D02*
X205740000Y-96520000D01*
X205740000Y-96520000D02*
X204470000Y-97790000D01*
X204470000Y-97790000D02*
X204470000Y-99060000D01*
X203200000Y-118110000D02*
X203200000Y-99060000D01*
X201930000Y-99060000D02*
X201930000Y-118110000D01*
X200660000Y-118110000D02*
X200660000Y-99060000D01*
X199390000Y-99060000D02*
X199390000Y-118110000D01*
X198120000Y-99256998D02*
X198120000Y-99060000D01*
X198120000Y-118110000D02*
X198120000Y-99256998D01*
X196850000Y-99060000D02*
X196850000Y-118110000D01*
X214630000Y-126219130D02*
X213849130Y-127000000D01*
X189230000Y-127000000D02*
X187960000Y-125730000D01*
X187960000Y-125730000D02*
X187960000Y-120650000D01*
X213849130Y-127000000D02*
X189230000Y-127000000D01*
X214630000Y-111760000D02*
X214630000Y-126219130D01*
X213360000Y-110490000D02*
X214630000Y-111760000D01*
X182880000Y-114300000D02*
X182880000Y-120650000D01*
X187960000Y-119380000D02*
X187960000Y-116840000D01*
X187960000Y-116840000D02*
X186690000Y-115570000D01*
X186690000Y-115570000D02*
X186690000Y-115570000D01*
X165001501Y-130711501D02*
X167640000Y-133350000D01*
X165001501Y-121426499D02*
X164225002Y-120650000D01*
X165001501Y-130711501D02*
X165001501Y-121426499D01*
X164225002Y-120650000D02*
X161290000Y-120650000D01*
X161290000Y-120650000D02*
X160020000Y-119380000D01*
X160020000Y-119380000D02*
X160020000Y-115570000D01*
X160020000Y-115570000D02*
X160020000Y-113030000D01*
X160020000Y-113030000D02*
X160020000Y-113030000D01*
X143510000Y-108146998D02*
X142588001Y-107224999D01*
X143510000Y-113030000D02*
X143510000Y-108146998D01*
X135890000Y-107950000D02*
X140970000Y-107950000D01*
X140970000Y-107950000D02*
X141695001Y-107224999D01*
X141695001Y-107224999D02*
X142588001Y-107224999D01*
X129540000Y-105410000D02*
X135890000Y-105410000D01*
X127000000Y-105410000D02*
X129540000Y-105410000D01*
X125730000Y-104140000D02*
X127000000Y-105410000D01*
X125730000Y-99060000D02*
X125730000Y-104140000D01*
X127000000Y-113030000D02*
X127000000Y-105410000D01*
X127000000Y-119380000D02*
X127000000Y-113030000D01*
X177800000Y-105410000D02*
X177800000Y-120650000D01*
X179070000Y-104140000D02*
X177800000Y-105410000D01*
X181610000Y-104140000D02*
X179070000Y-104140000D01*
X184150000Y-101600000D02*
X181610000Y-104140000D01*
X184150000Y-96520000D02*
X184150000Y-101600000D01*
X144780000Y-120650000D02*
X144780000Y-123190000D01*
X146775001Y-118654999D02*
X144780000Y-120650000D01*
X146775001Y-106135001D02*
X146775001Y-118654999D01*
X143510000Y-102870000D02*
X146775001Y-106135001D01*
X143510000Y-97790000D02*
X143510000Y-102870000D01*
X129540000Y-123190000D02*
X132080000Y-125730000D01*
X129540000Y-116840000D02*
X129540000Y-123190000D01*
X125420998Y-130810000D02*
X124460000Y-129849002D01*
X124460000Y-129849002D02*
X124460000Y-119380000D01*
X132080000Y-130810000D02*
X125420998Y-130810000D01*
X135890000Y-134620000D02*
X132080000Y-130810000D01*
D20*
G36*
X130099369Y-84031331D02*
G01*
X129930890Y-84438075D01*
X129845000Y-84869872D01*
X129845000Y-85310128D01*
X129930890Y-85741925D01*
X130099369Y-86148669D01*
X130343962Y-86514729D01*
X130655271Y-86826038D01*
X131021331Y-87070631D01*
X131428075Y-87239110D01*
X131859872Y-87325000D01*
X132300128Y-87325000D01*
X132731925Y-87239110D01*
X133138669Y-87070631D01*
X133504729Y-86826038D01*
X133816038Y-86514729D01*
X134060631Y-86148669D01*
X134229110Y-85741925D01*
X134246906Y-85652460D01*
X134307958Y-85799853D01*
X134471961Y-86045302D01*
X134680698Y-86254039D01*
X134926147Y-86418042D01*
X135198875Y-86531010D01*
X135488401Y-86588600D01*
X135783599Y-86588600D01*
X136073125Y-86531010D01*
X136345853Y-86418042D01*
X136591302Y-86254039D01*
X136800039Y-86045302D01*
X136906000Y-85886719D01*
X137011961Y-86045302D01*
X137220698Y-86254039D01*
X137466147Y-86418042D01*
X137738875Y-86531010D01*
X138028401Y-86588600D01*
X138323599Y-86588600D01*
X138613125Y-86531010D01*
X138885853Y-86418042D01*
X139131302Y-86254039D01*
X139340039Y-86045302D01*
X139446000Y-85886719D01*
X139551961Y-86045302D01*
X139760698Y-86254039D01*
X140006147Y-86418042D01*
X140278875Y-86531010D01*
X140568401Y-86588600D01*
X140863599Y-86588600D01*
X141153125Y-86531010D01*
X141425853Y-86418042D01*
X141671302Y-86254039D01*
X141880039Y-86045302D01*
X141987692Y-85884187D01*
X142149146Y-86100293D01*
X142367512Y-86296817D01*
X142620022Y-86446964D01*
X142896973Y-86544963D01*
X143129000Y-86424464D01*
X143129000Y-85217000D01*
X143109000Y-85217000D01*
X143109000Y-84963000D01*
X143129000Y-84963000D01*
X143129000Y-84943000D01*
X143383000Y-84943000D01*
X143383000Y-84963000D01*
X143403000Y-84963000D01*
X143403000Y-85217000D01*
X143383000Y-85217000D01*
X143383000Y-86424464D01*
X143615027Y-86544963D01*
X143891978Y-86446964D01*
X144144488Y-86296817D01*
X144362854Y-86100293D01*
X144524308Y-85884187D01*
X144631961Y-86045302D01*
X144840698Y-86254039D01*
X145086147Y-86418042D01*
X145358875Y-86531010D01*
X145648401Y-86588600D01*
X145943599Y-86588600D01*
X146233125Y-86531010D01*
X146505853Y-86418042D01*
X146751302Y-86254039D01*
X146960039Y-86045302D01*
X147066000Y-85886719D01*
X147171961Y-86045302D01*
X147380698Y-86254039D01*
X147626147Y-86418042D01*
X147898875Y-86531010D01*
X148188401Y-86588600D01*
X148483599Y-86588600D01*
X148773125Y-86531010D01*
X149045853Y-86418042D01*
X149291302Y-86254039D01*
X149500039Y-86045302D01*
X149606000Y-85886719D01*
X149711961Y-86045302D01*
X149920698Y-86254039D01*
X150166147Y-86418042D01*
X150438875Y-86531010D01*
X150728401Y-86588600D01*
X151023599Y-86588600D01*
X151313125Y-86531010D01*
X151585853Y-86418042D01*
X151831302Y-86254039D01*
X152040039Y-86045302D01*
X152146000Y-85886719D01*
X152251961Y-86045302D01*
X152460698Y-86254039D01*
X152706147Y-86418042D01*
X152978875Y-86531010D01*
X153268401Y-86588600D01*
X153563599Y-86588600D01*
X153853125Y-86531010D01*
X154125853Y-86418042D01*
X154371302Y-86254039D01*
X154580039Y-86045302D01*
X154686000Y-85886719D01*
X154791961Y-86045302D01*
X155000698Y-86254039D01*
X155246147Y-86418042D01*
X155518875Y-86531010D01*
X155808401Y-86588600D01*
X156103599Y-86588600D01*
X156393125Y-86531010D01*
X156665853Y-86418042D01*
X156911302Y-86254039D01*
X157120039Y-86045302D01*
X157226000Y-85886719D01*
X157331961Y-86045302D01*
X157540698Y-86254039D01*
X157786147Y-86418042D01*
X158058875Y-86531010D01*
X158348401Y-86588600D01*
X158643599Y-86588600D01*
X158933125Y-86531010D01*
X159205853Y-86418042D01*
X159451302Y-86254039D01*
X159660039Y-86045302D01*
X159824042Y-85799853D01*
X159937010Y-85527125D01*
X159994600Y-85237599D01*
X159994600Y-84942401D01*
X159937010Y-84652875D01*
X159824042Y-84380147D01*
X159660039Y-84134698D01*
X159472341Y-83947000D01*
X161583659Y-83947000D01*
X161395961Y-84134698D01*
X161231958Y-84380147D01*
X161118990Y-84652875D01*
X161061400Y-84942401D01*
X161061400Y-85237599D01*
X161118990Y-85527125D01*
X161231958Y-85799853D01*
X161395961Y-86045302D01*
X161604698Y-86254039D01*
X161850147Y-86418042D01*
X162122875Y-86531010D01*
X162412401Y-86588600D01*
X162707599Y-86588600D01*
X162997125Y-86531010D01*
X163269853Y-86418042D01*
X163515302Y-86254039D01*
X163724039Y-86045302D01*
X163830000Y-85886719D01*
X163935961Y-86045302D01*
X164144698Y-86254039D01*
X164390147Y-86418042D01*
X164662875Y-86531010D01*
X164952401Y-86588600D01*
X165247599Y-86588600D01*
X165537125Y-86531010D01*
X165809853Y-86418042D01*
X166055302Y-86254039D01*
X166264039Y-86045302D01*
X166370000Y-85886719D01*
X166475961Y-86045302D01*
X166684698Y-86254039D01*
X166930147Y-86418042D01*
X167202875Y-86531010D01*
X167492401Y-86588600D01*
X167787599Y-86588600D01*
X168077125Y-86531010D01*
X168349853Y-86418042D01*
X168595302Y-86254039D01*
X168804039Y-86045302D01*
X168910000Y-85886719D01*
X169015961Y-86045302D01*
X169224698Y-86254039D01*
X169470147Y-86418042D01*
X169742875Y-86531010D01*
X170032401Y-86588600D01*
X170327599Y-86588600D01*
X170617125Y-86531010D01*
X170889853Y-86418042D01*
X171135302Y-86254039D01*
X171344039Y-86045302D01*
X171450000Y-85886719D01*
X171555961Y-86045302D01*
X171764698Y-86254039D01*
X172010147Y-86418042D01*
X172282875Y-86531010D01*
X172572401Y-86588600D01*
X172867599Y-86588600D01*
X173157125Y-86531010D01*
X173429853Y-86418042D01*
X173675302Y-86254039D01*
X173884039Y-86045302D01*
X173990000Y-85886719D01*
X174095961Y-86045302D01*
X174304698Y-86254039D01*
X174550147Y-86418042D01*
X174822875Y-86531010D01*
X175112401Y-86588600D01*
X175407599Y-86588600D01*
X175697125Y-86531010D01*
X175969853Y-86418042D01*
X176215302Y-86254039D01*
X176424039Y-86045302D01*
X176530000Y-85886719D01*
X176635961Y-86045302D01*
X176844698Y-86254039D01*
X177090147Y-86418042D01*
X177362875Y-86531010D01*
X177652401Y-86588600D01*
X177947599Y-86588600D01*
X178237125Y-86531010D01*
X178509853Y-86418042D01*
X178755302Y-86254039D01*
X178964039Y-86045302D01*
X179070000Y-85886719D01*
X179175961Y-86045302D01*
X179384698Y-86254039D01*
X179630147Y-86418042D01*
X179902875Y-86531010D01*
X180192401Y-86588600D01*
X180487599Y-86588600D01*
X180777125Y-86531010D01*
X181049853Y-86418042D01*
X181295302Y-86254039D01*
X181504039Y-86045302D01*
X181668042Y-85799853D01*
X181781010Y-85527125D01*
X181838600Y-85237599D01*
X181838600Y-84942401D01*
X181781010Y-84652875D01*
X181668042Y-84380147D01*
X181504039Y-84134698D01*
X181316341Y-83947000D01*
X184443659Y-83947000D01*
X184255961Y-84134698D01*
X184091958Y-84380147D01*
X183978990Y-84652875D01*
X183921400Y-84942401D01*
X183921400Y-85237599D01*
X183978990Y-85527125D01*
X184091958Y-85799853D01*
X184255961Y-86045302D01*
X184464698Y-86254039D01*
X184710147Y-86418042D01*
X184982875Y-86531010D01*
X185272401Y-86588600D01*
X185567599Y-86588600D01*
X185857125Y-86531010D01*
X186129853Y-86418042D01*
X186375302Y-86254039D01*
X186584039Y-86045302D01*
X186690000Y-85886719D01*
X186795961Y-86045302D01*
X187004698Y-86254039D01*
X187250147Y-86418042D01*
X187522875Y-86531010D01*
X187812401Y-86588600D01*
X188107599Y-86588600D01*
X188397125Y-86531010D01*
X188669853Y-86418042D01*
X188915302Y-86254039D01*
X189124039Y-86045302D01*
X189230000Y-85886719D01*
X189335961Y-86045302D01*
X189544698Y-86254039D01*
X189790147Y-86418042D01*
X190062875Y-86531010D01*
X190352401Y-86588600D01*
X190647599Y-86588600D01*
X190937125Y-86531010D01*
X191209853Y-86418042D01*
X191455302Y-86254039D01*
X191664039Y-86045302D01*
X191770000Y-85886719D01*
X191875961Y-86045302D01*
X192084698Y-86254039D01*
X192330147Y-86418042D01*
X192602875Y-86531010D01*
X192892401Y-86588600D01*
X193187599Y-86588600D01*
X193477125Y-86531010D01*
X193749853Y-86418042D01*
X193995302Y-86254039D01*
X194204039Y-86045302D01*
X194310000Y-85886719D01*
X194415961Y-86045302D01*
X194624698Y-86254039D01*
X194870147Y-86418042D01*
X195142875Y-86531010D01*
X195432401Y-86588600D01*
X195727599Y-86588600D01*
X196017125Y-86531010D01*
X196289853Y-86418042D01*
X196535302Y-86254039D01*
X196744039Y-86045302D01*
X196850000Y-85886719D01*
X196955961Y-86045302D01*
X197164698Y-86254039D01*
X197410147Y-86418042D01*
X197682875Y-86531010D01*
X197972401Y-86588600D01*
X198267599Y-86588600D01*
X198557125Y-86531010D01*
X198829853Y-86418042D01*
X199075302Y-86254039D01*
X199284039Y-86045302D01*
X199390000Y-85886719D01*
X199495961Y-86045302D01*
X199704698Y-86254039D01*
X199950147Y-86418042D01*
X200222875Y-86531010D01*
X200512401Y-86588600D01*
X200807599Y-86588600D01*
X201097125Y-86531010D01*
X201369853Y-86418042D01*
X201615302Y-86254039D01*
X201824039Y-86045302D01*
X201930000Y-85886719D01*
X202035961Y-86045302D01*
X202244698Y-86254039D01*
X202490147Y-86418042D01*
X202762875Y-86531010D01*
X203052401Y-86588600D01*
X203347599Y-86588600D01*
X203637125Y-86531010D01*
X203909853Y-86418042D01*
X204155302Y-86254039D01*
X204364039Y-86045302D01*
X204528042Y-85799853D01*
X204641010Y-85527125D01*
X204698600Y-85237599D01*
X204698600Y-84942401D01*
X204641010Y-84652875D01*
X204528042Y-84380147D01*
X204364039Y-84134698D01*
X204176341Y-83947000D01*
X205085717Y-83947000D01*
X205029369Y-84031331D01*
X204860890Y-84438075D01*
X204775000Y-84869872D01*
X204775000Y-85310128D01*
X204860890Y-85741925D01*
X205029369Y-86148669D01*
X205273962Y-86514729D01*
X205585271Y-86826038D01*
X205951331Y-87070631D01*
X206358075Y-87239110D01*
X206789872Y-87325000D01*
X207230128Y-87325000D01*
X207661925Y-87239110D01*
X208068669Y-87070631D01*
X208434729Y-86826038D01*
X208746038Y-86514729D01*
X208990631Y-86148669D01*
X209159110Y-85741925D01*
X209245000Y-85310128D01*
X209245000Y-84869872D01*
X209159110Y-84438075D01*
X208990631Y-84031331D01*
X208934283Y-83947000D01*
X209843659Y-83947000D01*
X209655961Y-84134698D01*
X209491958Y-84380147D01*
X209378990Y-84652875D01*
X209321400Y-84942401D01*
X209321400Y-85237599D01*
X209378990Y-85527125D01*
X209491958Y-85799853D01*
X209655961Y-86045302D01*
X209864698Y-86254039D01*
X210023281Y-86360000D01*
X209864698Y-86465961D01*
X209655961Y-86674698D01*
X209491958Y-86920147D01*
X209378990Y-87192875D01*
X209321400Y-87482401D01*
X209321400Y-87777599D01*
X209378990Y-88067125D01*
X209491958Y-88339853D01*
X209655961Y-88585302D01*
X209864698Y-88794039D01*
X210023281Y-88900000D01*
X209864698Y-89005961D01*
X209655961Y-89214698D01*
X209491958Y-89460147D01*
X209378990Y-89732875D01*
X209321400Y-90022401D01*
X209321400Y-90317599D01*
X209378990Y-90607125D01*
X209491958Y-90879853D01*
X209655961Y-91125302D01*
X209864698Y-91334039D01*
X210023281Y-91440000D01*
X209864698Y-91545961D01*
X209655961Y-91754698D01*
X209491958Y-92000147D01*
X209378990Y-92272875D01*
X209321400Y-92562401D01*
X209321400Y-92857599D01*
X209378990Y-93147125D01*
X209491958Y-93419853D01*
X209655961Y-93665302D01*
X209864698Y-93874039D01*
X210023281Y-93980000D01*
X209864698Y-94085961D01*
X209655961Y-94294698D01*
X209491958Y-94540147D01*
X209378990Y-94812875D01*
X209321400Y-95102401D01*
X209321400Y-95397599D01*
X209378990Y-95687125D01*
X209409176Y-95760000D01*
X205777322Y-95760000D01*
X205739999Y-95756324D01*
X205702676Y-95760000D01*
X205702667Y-95760000D01*
X205591014Y-95770997D01*
X205447753Y-95814454D01*
X205315724Y-95885026D01*
X205199999Y-95979999D01*
X205176201Y-96008997D01*
X203959003Y-97226196D01*
X203929999Y-97249999D01*
X203889175Y-97299744D01*
X203835026Y-97365724D01*
X203769613Y-97488102D01*
X203764454Y-97497754D01*
X203720997Y-97641015D01*
X203710000Y-97752668D01*
X203710000Y-97752678D01*
X203706324Y-97790000D01*
X203710000Y-97827323D01*
X203710000Y-98155988D01*
X203690256Y-98142795D01*
X203501898Y-98064774D01*
X203301939Y-98025000D01*
X203098061Y-98025000D01*
X202898102Y-98064774D01*
X202709744Y-98142795D01*
X202565000Y-98239510D01*
X202420256Y-98142795D01*
X202231898Y-98064774D01*
X202031939Y-98025000D01*
X201828061Y-98025000D01*
X201628102Y-98064774D01*
X201439744Y-98142795D01*
X201295000Y-98239510D01*
X201150256Y-98142795D01*
X200961898Y-98064774D01*
X200761939Y-98025000D01*
X200558061Y-98025000D01*
X200358102Y-98064774D01*
X200169744Y-98142795D01*
X200025000Y-98239510D01*
X199880256Y-98142795D01*
X199691898Y-98064774D01*
X199491939Y-98025000D01*
X199288061Y-98025000D01*
X199088102Y-98064774D01*
X198899744Y-98142795D01*
X198755000Y-98239510D01*
X198610256Y-98142795D01*
X198421898Y-98064774D01*
X198221939Y-98025000D01*
X198018061Y-98025000D01*
X197818102Y-98064774D01*
X197629744Y-98142795D01*
X197485000Y-98239510D01*
X197340256Y-98142795D01*
X197151898Y-98064774D01*
X196951939Y-98025000D01*
X196748061Y-98025000D01*
X196548102Y-98064774D01*
X196359744Y-98142795D01*
X196190226Y-98256063D01*
X196046063Y-98400226D01*
X195932795Y-98569744D01*
X195854774Y-98758102D01*
X195815000Y-98958061D01*
X195815000Y-99161939D01*
X195854774Y-99361898D01*
X195932795Y-99550256D01*
X196046063Y-99719774D01*
X196090000Y-99763711D01*
X196090000Y-108516289D01*
X196046063Y-108560226D01*
X195932795Y-108729744D01*
X195854774Y-108918102D01*
X195815000Y-109118061D01*
X195815000Y-109321939D01*
X195848039Y-109488039D01*
X195681939Y-109455000D01*
X195478061Y-109455000D01*
X195278102Y-109494774D01*
X195089744Y-109572795D01*
X194920226Y-109686063D01*
X194776063Y-109830226D01*
X194662795Y-109999744D01*
X194584774Y-110188102D01*
X194545000Y-110388061D01*
X194545000Y-110591939D01*
X194584774Y-110791898D01*
X194662795Y-110980256D01*
X194776063Y-111149774D01*
X194820001Y-111193712D01*
X194820001Y-113462962D01*
X193999931Y-112642893D01*
X193992500Y-112624953D01*
X193992500Y-99106784D01*
X193997108Y-99060000D01*
X193992500Y-99013215D01*
X193992500Y-95296784D01*
X193997108Y-95249999D01*
X193978717Y-95063277D01*
X193952007Y-94975226D01*
X193924252Y-94883731D01*
X193835806Y-94718259D01*
X193716778Y-94573222D01*
X193680431Y-94543393D01*
X191452500Y-92315462D01*
X191452500Y-89305047D01*
X191495226Y-89201898D01*
X191535000Y-89001939D01*
X191535000Y-88798061D01*
X191495226Y-88598102D01*
X191417205Y-88409744D01*
X191303937Y-88240226D01*
X191159774Y-88096063D01*
X190990256Y-87982795D01*
X190801898Y-87904774D01*
X190601939Y-87865000D01*
X190398061Y-87865000D01*
X190198102Y-87904774D01*
X190009744Y-87982795D01*
X189840226Y-88096063D01*
X189696063Y-88240226D01*
X189582795Y-88409744D01*
X189504774Y-88598102D01*
X189465000Y-88798061D01*
X189465000Y-89001939D01*
X189504774Y-89201898D01*
X189547501Y-89305049D01*
X189547500Y-92663215D01*
X189542892Y-92710000D01*
X189547500Y-92756784D01*
X189561283Y-92896722D01*
X189615748Y-93076268D01*
X189704194Y-93241741D01*
X189823222Y-93386778D01*
X189859569Y-93416607D01*
X192087501Y-95644539D01*
X192087500Y-98107500D01*
X190905047Y-98107500D01*
X190801898Y-98064774D01*
X190601939Y-98025000D01*
X190398061Y-98025000D01*
X190198102Y-98064774D01*
X190009744Y-98142795D01*
X189840226Y-98256063D01*
X189696063Y-98400226D01*
X189582795Y-98569744D01*
X189504774Y-98758102D01*
X189465000Y-98958061D01*
X189465000Y-99161939D01*
X189504774Y-99361898D01*
X189582795Y-99550256D01*
X189696063Y-99719774D01*
X189840226Y-99863937D01*
X190009744Y-99977205D01*
X190198102Y-100055226D01*
X190398061Y-100095000D01*
X190601939Y-100095000D01*
X190801898Y-100055226D01*
X190905047Y-100012500D01*
X192087500Y-100012500D01*
X192087501Y-112624951D01*
X192044774Y-112728102D01*
X192005000Y-112928061D01*
X192005000Y-113131939D01*
X192044774Y-113331898D01*
X192122795Y-113520256D01*
X192236063Y-113689774D01*
X192380226Y-113833937D01*
X192549744Y-113947205D01*
X192652893Y-113989931D01*
X193357500Y-114694539D01*
X193357501Y-116434951D01*
X193314774Y-116538102D01*
X193275000Y-116738061D01*
X193275000Y-116941939D01*
X193314774Y-117141898D01*
X193392795Y-117330256D01*
X193506063Y-117499774D01*
X193650226Y-117643937D01*
X193819744Y-117757205D01*
X194008102Y-117835226D01*
X194208061Y-117875000D01*
X194411939Y-117875000D01*
X194611898Y-117835226D01*
X194800256Y-117757205D01*
X194820000Y-117744012D01*
X194820000Y-122875198D01*
X194270199Y-123425000D01*
X194208061Y-123425000D01*
X194008102Y-123464774D01*
X193819744Y-123542795D01*
X193650226Y-123656063D01*
X193506063Y-123800226D01*
X193392795Y-123969744D01*
X193314774Y-124158102D01*
X193275000Y-124358061D01*
X193275000Y-124561939D01*
X193314774Y-124761898D01*
X193392795Y-124950256D01*
X193405987Y-124970000D01*
X190814802Y-124970000D01*
X189990000Y-124145199D01*
X189990000Y-124094013D01*
X190009744Y-124107205D01*
X190198102Y-124185226D01*
X190398061Y-124225000D01*
X190601939Y-124225000D01*
X190801898Y-124185226D01*
X190990256Y-124107205D01*
X191159774Y-123993937D01*
X191303937Y-123849774D01*
X191417205Y-123680256D01*
X191495226Y-123491898D01*
X191535000Y-123291939D01*
X191535000Y-123088061D01*
X191495226Y-122888102D01*
X191417205Y-122699744D01*
X191303937Y-122530226D01*
X191260000Y-122486289D01*
X191260000Y-111193711D01*
X191303937Y-111149774D01*
X191417205Y-110980256D01*
X191495226Y-110791898D01*
X191535000Y-110591939D01*
X191535000Y-110388061D01*
X191495226Y-110188102D01*
X191417205Y-109999744D01*
X191303937Y-109830226D01*
X191260000Y-109786289D01*
X191260000Y-104843711D01*
X191303937Y-104799774D01*
X191417205Y-104630256D01*
X191495226Y-104441898D01*
X191535000Y-104241939D01*
X191535000Y-104038061D01*
X191495226Y-103838102D01*
X191417205Y-103649744D01*
X191303937Y-103480226D01*
X191159774Y-103336063D01*
X190990256Y-103222795D01*
X190801898Y-103144774D01*
X190601939Y-103105000D01*
X190398061Y-103105000D01*
X190198102Y-103144774D01*
X190009744Y-103222795D01*
X189990016Y-103235977D01*
X189990016Y-102303695D01*
X190033937Y-102259774D01*
X190147205Y-102090256D01*
X190225226Y-101901898D01*
X190265000Y-101701939D01*
X190265000Y-101498061D01*
X190225226Y-101298102D01*
X190147205Y-101109744D01*
X190033937Y-100940226D01*
X189889774Y-100796063D01*
X189720256Y-100682795D01*
X189531898Y-100604774D01*
X189331939Y-100565000D01*
X189128061Y-100565000D01*
X188961961Y-100598039D01*
X188995000Y-100431939D01*
X188995000Y-100228061D01*
X188955226Y-100028102D01*
X188877205Y-99839744D01*
X188763937Y-99670226D01*
X188619774Y-99526063D01*
X188489233Y-99438838D01*
X188500001Y-99430001D01*
X188594974Y-99314276D01*
X188665546Y-99182247D01*
X188709003Y-99038986D01*
X188720000Y-98927333D01*
X188720000Y-98927325D01*
X188723676Y-98890000D01*
X188720000Y-98852675D01*
X188720000Y-94683711D01*
X188763937Y-94639774D01*
X188877205Y-94470256D01*
X188955226Y-94281898D01*
X188995000Y-94081939D01*
X188995000Y-93878061D01*
X188955226Y-93678102D01*
X188877205Y-93489744D01*
X188763937Y-93320226D01*
X188619774Y-93176063D01*
X188450256Y-93062795D01*
X188261898Y-92984774D01*
X188061939Y-92945000D01*
X187858061Y-92945000D01*
X187658102Y-92984774D01*
X187469744Y-93062795D01*
X187300226Y-93176063D01*
X187156063Y-93320226D01*
X187042795Y-93489744D01*
X186964774Y-93678102D01*
X186925000Y-93878061D01*
X186925000Y-94081939D01*
X186964774Y-94281898D01*
X187042795Y-94470256D01*
X187156063Y-94639774D01*
X187200001Y-94683712D01*
X187200000Y-98575198D01*
X184910000Y-100865198D01*
X184910000Y-97223711D01*
X184953937Y-97179774D01*
X185067205Y-97010256D01*
X185145226Y-96821898D01*
X185185000Y-96621939D01*
X185185000Y-96418061D01*
X185145226Y-96218102D01*
X185067205Y-96029744D01*
X184953937Y-95860226D01*
X184809774Y-95716063D01*
X184640256Y-95602795D01*
X184451898Y-95524774D01*
X184251939Y-95485000D01*
X184048061Y-95485000D01*
X183848102Y-95524774D01*
X183659744Y-95602795D01*
X183640000Y-95615987D01*
X183640000Y-95564801D01*
X184189802Y-95015000D01*
X184251939Y-95015000D01*
X184451898Y-94975226D01*
X184640256Y-94897205D01*
X184809774Y-94783937D01*
X184953937Y-94639774D01*
X185067205Y-94470256D01*
X185145226Y-94281898D01*
X185185000Y-94081939D01*
X185185000Y-93878061D01*
X185145226Y-93678102D01*
X185067205Y-93489744D01*
X184953937Y-93320226D01*
X184809774Y-93176063D01*
X184640256Y-93062795D01*
X184451898Y-92984774D01*
X184251939Y-92945000D01*
X184048061Y-92945000D01*
X183848102Y-92984774D01*
X183659744Y-93062795D01*
X183490226Y-93176063D01*
X183346063Y-93320226D01*
X183232795Y-93489744D01*
X183154774Y-93678102D01*
X183115000Y-93878061D01*
X183115000Y-93940198D01*
X182369003Y-94686196D01*
X182339999Y-94709999D01*
X182284871Y-94777174D01*
X182245026Y-94825724D01*
X182176203Y-94954482D01*
X182174454Y-94957754D01*
X182130997Y-95101015D01*
X182120000Y-95212668D01*
X182120000Y-95212678D01*
X182116324Y-95250000D01*
X182120000Y-95287323D01*
X182120000Y-95615988D01*
X182100256Y-95602795D01*
X181911898Y-95524774D01*
X181711939Y-95485000D01*
X181508061Y-95485000D01*
X181308102Y-95524774D01*
X181119744Y-95602795D01*
X180950226Y-95716063D01*
X180806063Y-95860226D01*
X180692795Y-96029744D01*
X180614774Y-96218102D01*
X180575000Y-96418061D01*
X180575000Y-96621939D01*
X180614774Y-96821898D01*
X180692795Y-97010256D01*
X180806063Y-97179774D01*
X180850001Y-97223712D01*
X180850001Y-97475197D01*
X177760199Y-100565000D01*
X177698061Y-100565000D01*
X177498102Y-100604774D01*
X177309744Y-100682795D01*
X177140226Y-100796063D01*
X176996063Y-100940226D01*
X176882795Y-101109744D01*
X176804774Y-101298102D01*
X176765000Y-101498061D01*
X176765000Y-101560198D01*
X176020000Y-102305199D01*
X176020000Y-99763711D01*
X176063937Y-99719774D01*
X176177205Y-99550256D01*
X176255226Y-99361898D01*
X176295000Y-99161939D01*
X176295000Y-98958061D01*
X176255226Y-98758102D01*
X176177205Y-98569744D01*
X176063937Y-98400226D01*
X175919774Y-98256063D01*
X175750256Y-98142795D01*
X175561898Y-98064774D01*
X175361939Y-98025000D01*
X175158061Y-98025000D01*
X174958102Y-98064774D01*
X174769744Y-98142795D01*
X174600226Y-98256063D01*
X174456063Y-98400226D01*
X174342795Y-98569744D01*
X174264774Y-98758102D01*
X174225000Y-98958061D01*
X174225000Y-99161939D01*
X174264774Y-99361898D01*
X174342795Y-99550256D01*
X174456063Y-99719774D01*
X174500001Y-99763712D01*
X174500000Y-104505988D01*
X174480256Y-104492795D01*
X174291898Y-104414774D01*
X174091939Y-104375000D01*
X173888061Y-104375000D01*
X173688102Y-104414774D01*
X173499744Y-104492795D01*
X173480000Y-104505987D01*
X173480000Y-102303711D01*
X173523937Y-102259774D01*
X173637205Y-102090256D01*
X173715226Y-101901898D01*
X173755000Y-101701939D01*
X173755000Y-101498061D01*
X173715226Y-101298102D01*
X173637205Y-101109744D01*
X173540490Y-100965000D01*
X173637205Y-100820256D01*
X173679931Y-100717107D01*
X173692931Y-100704107D01*
X173729278Y-100674278D01*
X173848306Y-100529241D01*
X173936752Y-100363769D01*
X173991217Y-100184223D01*
X174005000Y-100044285D01*
X174009608Y-99997501D01*
X174005000Y-99950716D01*
X174005000Y-96592547D01*
X174047726Y-96489398D01*
X174087500Y-96289439D01*
X174087500Y-96085561D01*
X174047726Y-95885602D01*
X173969705Y-95697244D01*
X173856437Y-95527726D01*
X173712274Y-95383563D01*
X173542756Y-95270295D01*
X173354398Y-95192274D01*
X173154439Y-95152500D01*
X172950561Y-95152500D01*
X172750602Y-95192274D01*
X172562244Y-95270295D01*
X172392726Y-95383563D01*
X172248563Y-95527726D01*
X172135295Y-95697244D01*
X172057274Y-95885602D01*
X172017500Y-96085561D01*
X172017500Y-96289439D01*
X172057274Y-96489398D01*
X172100000Y-96592547D01*
X172100001Y-99499486D01*
X172060226Y-99526063D01*
X171916063Y-99670226D01*
X171802795Y-99839744D01*
X171724774Y-100028102D01*
X171685000Y-100228061D01*
X171685000Y-100431939D01*
X171724774Y-100631898D01*
X171802795Y-100820256D01*
X171815987Y-100840000D01*
X166934801Y-100840000D01*
X175574802Y-92200000D01*
X185986289Y-92200000D01*
X186030226Y-92243937D01*
X186199744Y-92357205D01*
X186388102Y-92435226D01*
X186588061Y-92475000D01*
X186791939Y-92475000D01*
X186991898Y-92435226D01*
X187180256Y-92357205D01*
X187349774Y-92243937D01*
X187493937Y-92099774D01*
X187607205Y-91930256D01*
X187685226Y-91741898D01*
X187725000Y-91541939D01*
X187725000Y-91338061D01*
X187685226Y-91138102D01*
X187607205Y-90949744D01*
X187493937Y-90780226D01*
X187349774Y-90636063D01*
X187180256Y-90522795D01*
X186991898Y-90444774D01*
X186791939Y-90405000D01*
X186588061Y-90405000D01*
X186388102Y-90444774D01*
X186199744Y-90522795D01*
X186030226Y-90636063D01*
X185986289Y-90680000D01*
X175297333Y-90680000D01*
X175260000Y-90676323D01*
X175222667Y-90680000D01*
X175111014Y-90690997D01*
X174967753Y-90734454D01*
X174835724Y-90805026D01*
X174719999Y-90899999D01*
X174696201Y-90928997D01*
X166055199Y-99570000D01*
X163263711Y-99570000D01*
X163219774Y-99526063D01*
X163050256Y-99412795D01*
X162861898Y-99334774D01*
X162661939Y-99295000D01*
X162458061Y-99295000D01*
X162258102Y-99334774D01*
X162069744Y-99412795D01*
X161900226Y-99526063D01*
X161756063Y-99670226D01*
X161642795Y-99839744D01*
X161564774Y-100028102D01*
X161525000Y-100228061D01*
X161525000Y-100431939D01*
X161564774Y-100631898D01*
X161642795Y-100820256D01*
X161739510Y-100965000D01*
X161642795Y-101109744D01*
X161564774Y-101298102D01*
X161525000Y-101498061D01*
X161525000Y-101701939D01*
X161564774Y-101901898D01*
X161642795Y-102090256D01*
X161756063Y-102259774D01*
X161900226Y-102403937D01*
X162069744Y-102517205D01*
X162258102Y-102595226D01*
X162458061Y-102635000D01*
X162661939Y-102635000D01*
X162861898Y-102595226D01*
X163050256Y-102517205D01*
X163219774Y-102403937D01*
X163263711Y-102360000D01*
X171960000Y-102360000D01*
X171960001Y-104650000D01*
X163263711Y-104650000D01*
X163219774Y-104606063D01*
X163050256Y-104492795D01*
X162861898Y-104414774D01*
X162661939Y-104375000D01*
X162458061Y-104375000D01*
X162258102Y-104414774D01*
X162069744Y-104492795D01*
X161900226Y-104606063D01*
X161756063Y-104750226D01*
X161642795Y-104919744D01*
X161564774Y-105108102D01*
X161525000Y-105308061D01*
X161525000Y-105511939D01*
X161564774Y-105711898D01*
X161642795Y-105900256D01*
X161756063Y-106069774D01*
X161900226Y-106213937D01*
X162069744Y-106327205D01*
X162258102Y-106405226D01*
X162458061Y-106445000D01*
X162661939Y-106445000D01*
X162861898Y-106405226D01*
X163050256Y-106327205D01*
X163219774Y-106213937D01*
X163263711Y-106170000D01*
X171960000Y-106170000D01*
X171960001Y-118038017D01*
X171868574Y-118000147D01*
X171591335Y-117945000D01*
X171308665Y-117945000D01*
X171031426Y-118000147D01*
X170770273Y-118108320D01*
X170535241Y-118265363D01*
X170335363Y-118465241D01*
X170178320Y-118700273D01*
X170070147Y-118961426D01*
X170015000Y-119238665D01*
X170015000Y-119521335D01*
X170070147Y-119798574D01*
X170178320Y-120059727D01*
X170335363Y-120294759D01*
X170535241Y-120494637D01*
X170767759Y-120650000D01*
X170535241Y-120805363D01*
X170335363Y-121005241D01*
X170178320Y-121240273D01*
X170070147Y-121501426D01*
X170015000Y-121778665D01*
X170015000Y-122061335D01*
X170070147Y-122338574D01*
X170178320Y-122599727D01*
X170335363Y-122834759D01*
X170535241Y-123034637D01*
X170767759Y-123190000D01*
X170535241Y-123345363D01*
X170335363Y-123545241D01*
X170178320Y-123780273D01*
X170070147Y-124041426D01*
X170015000Y-124318665D01*
X170015000Y-124601335D01*
X170070147Y-124878574D01*
X170178320Y-125139727D01*
X170335363Y-125374759D01*
X170535241Y-125574637D01*
X170767759Y-125730000D01*
X170535241Y-125885363D01*
X170335363Y-126085241D01*
X170178320Y-126320273D01*
X170070147Y-126581426D01*
X170015000Y-126858665D01*
X170015000Y-127141335D01*
X170070147Y-127418574D01*
X170178320Y-127679727D01*
X170335363Y-127914759D01*
X170535241Y-128114637D01*
X170770273Y-128271680D01*
X171031426Y-128379853D01*
X171308665Y-128435000D01*
X171591335Y-128435000D01*
X171868574Y-128379853D01*
X172129727Y-128271680D01*
X172364759Y-128114637D01*
X172564637Y-127914759D01*
X172668043Y-127760000D01*
X172682667Y-127760000D01*
X172720000Y-127763677D01*
X172868986Y-127749003D01*
X173012247Y-127705546D01*
X173144276Y-127634974D01*
X173260001Y-127540001D01*
X173354974Y-127424276D01*
X173425546Y-127292247D01*
X173469003Y-127148986D01*
X173480000Y-127037333D01*
X173483677Y-127000000D01*
X173480000Y-126962667D01*
X173480000Y-106314013D01*
X173499744Y-106327205D01*
X173680010Y-106401874D01*
X173680011Y-114712668D01*
X173680010Y-114712678D01*
X173680011Y-117252678D01*
X173676334Y-117290010D01*
X173691008Y-117438995D01*
X173734464Y-117582256D01*
X173805036Y-117714286D01*
X173876211Y-117801012D01*
X173900010Y-117830011D01*
X173929008Y-117853809D01*
X174225000Y-118149801D01*
X174225000Y-118211939D01*
X174264774Y-118411898D01*
X174342795Y-118600256D01*
X174456063Y-118769774D01*
X174600226Y-118913937D01*
X174769744Y-119027205D01*
X174958102Y-119105226D01*
X175158061Y-119145000D01*
X175361939Y-119145000D01*
X175561898Y-119105226D01*
X175750256Y-119027205D01*
X175770001Y-119014012D01*
X175770001Y-127955197D01*
X175220199Y-128505000D01*
X175158061Y-128505000D01*
X174958102Y-128544774D01*
X174769744Y-128622795D01*
X174600226Y-128736063D01*
X174456063Y-128880226D01*
X174430562Y-128918391D01*
X174414276Y-128905026D01*
X174282247Y-128834454D01*
X174138986Y-128790997D01*
X174027333Y-128780000D01*
X174027322Y-128780000D01*
X173990000Y-128776324D01*
X173952678Y-128780000D01*
X170494802Y-128780000D01*
X169670000Y-127955199D01*
X169670000Y-114337322D01*
X169673676Y-114299999D01*
X169670000Y-114262676D01*
X169670000Y-114262667D01*
X169659003Y-114151014D01*
X169615546Y-114007753D01*
X169544974Y-113875724D01*
X169450001Y-113759999D01*
X169421004Y-113736202D01*
X168203803Y-112519002D01*
X168203799Y-112518997D01*
X167869077Y-112184275D01*
X166933804Y-111249003D01*
X166910001Y-111219999D01*
X166794276Y-111125026D01*
X166662247Y-111054454D01*
X166518986Y-111010997D01*
X166407333Y-111000000D01*
X166407322Y-111000000D01*
X166370000Y-110996324D01*
X166332678Y-111000000D01*
X165803711Y-111000000D01*
X165759774Y-110956063D01*
X165590256Y-110842795D01*
X165401898Y-110764774D01*
X165201939Y-110725000D01*
X164998061Y-110725000D01*
X164798102Y-110764774D01*
X164609744Y-110842795D01*
X164440226Y-110956063D01*
X164296063Y-111100226D01*
X164182795Y-111269744D01*
X164104774Y-111458102D01*
X164065000Y-111658061D01*
X164065000Y-111861939D01*
X164104774Y-112061898D01*
X164182795Y-112250256D01*
X164296063Y-112419774D01*
X164440226Y-112563937D01*
X164609744Y-112677205D01*
X164798102Y-112755226D01*
X164998061Y-112795000D01*
X165201939Y-112795000D01*
X165401898Y-112755226D01*
X165590256Y-112677205D01*
X165759774Y-112563937D01*
X165803711Y-112520000D01*
X166055199Y-112520000D01*
X166800198Y-113265000D01*
X167128997Y-113593799D01*
X167129002Y-113593803D01*
X168150000Y-114614802D01*
X168150000Y-116275198D01*
X161055000Y-109180199D01*
X161055000Y-109118061D01*
X161015226Y-108918102D01*
X160937205Y-108729744D01*
X160823937Y-108560226D01*
X160679774Y-108416063D01*
X160510256Y-108302795D01*
X160321898Y-108224774D01*
X160121939Y-108185000D01*
X159918061Y-108185000D01*
X159718102Y-108224774D01*
X159529744Y-108302795D01*
X159510000Y-108315987D01*
X159510000Y-107987322D01*
X159513676Y-107949999D01*
X159510000Y-107912676D01*
X159510000Y-107912667D01*
X159499003Y-107801014D01*
X159455546Y-107657753D01*
X159384974Y-107525724D01*
X159290001Y-107409999D01*
X159261004Y-107386202D01*
X158240000Y-106365199D01*
X158240000Y-106113711D01*
X158283937Y-106069774D01*
X158397205Y-105900256D01*
X158475226Y-105711898D01*
X158515000Y-105511939D01*
X158515000Y-105308061D01*
X158475226Y-105108102D01*
X158397205Y-104919744D01*
X158283937Y-104750226D01*
X158139774Y-104606063D01*
X158109180Y-104585621D01*
X160531008Y-102163795D01*
X160560001Y-102140001D01*
X160583795Y-102111008D01*
X160583799Y-102111004D01*
X160654973Y-102024277D01*
X160654974Y-102024276D01*
X160725546Y-101892247D01*
X160748046Y-101818072D01*
X160870000Y-101818072D01*
X160994482Y-101805812D01*
X161114180Y-101769502D01*
X161224494Y-101710537D01*
X161321185Y-101631185D01*
X161400537Y-101534494D01*
X161459502Y-101424180D01*
X161495812Y-101304482D01*
X161508072Y-101180000D01*
X161508072Y-99480000D01*
X161495812Y-99355518D01*
X161459502Y-99235820D01*
X161400537Y-99125506D01*
X161321185Y-99028815D01*
X161224494Y-98949463D01*
X161114180Y-98890498D01*
X160994482Y-98854188D01*
X160870000Y-98841928D01*
X159170000Y-98841928D01*
X159045518Y-98854188D01*
X158925820Y-98890498D01*
X158815506Y-98949463D01*
X158718815Y-99028815D01*
X158639463Y-99125506D01*
X158580498Y-99235820D01*
X158544188Y-99355518D01*
X158531928Y-99480000D01*
X158531928Y-101180000D01*
X158544188Y-101304482D01*
X158580498Y-101424180D01*
X158639463Y-101534494D01*
X158718815Y-101631185D01*
X158815506Y-101710537D01*
X158827988Y-101717209D01*
X157165199Y-103380000D01*
X152437322Y-103380000D01*
X152399999Y-103376324D01*
X152362676Y-103380000D01*
X152362667Y-103380000D01*
X152251014Y-103390997D01*
X152107753Y-103434454D01*
X151975724Y-103505026D01*
X151859999Y-103599999D01*
X151836201Y-103628997D01*
X151090199Y-104375000D01*
X151028061Y-104375000D01*
X150828102Y-104414774D01*
X150639744Y-104492795D01*
X150470226Y-104606063D01*
X150326063Y-104750226D01*
X150212795Y-104919744D01*
X150134774Y-105108102D01*
X150095000Y-105308061D01*
X150095000Y-105511939D01*
X150134774Y-105711898D01*
X150212795Y-105900256D01*
X150326063Y-106069774D01*
X150470226Y-106213937D01*
X150639744Y-106327205D01*
X150828102Y-106405226D01*
X151028061Y-106445000D01*
X151231939Y-106445000D01*
X151431898Y-106405226D01*
X151620256Y-106327205D01*
X151789774Y-106213937D01*
X151933937Y-106069774D01*
X152047205Y-105900256D01*
X152125226Y-105711898D01*
X152165000Y-105511939D01*
X152165000Y-105449801D01*
X152714802Y-104900000D01*
X156575987Y-104900000D01*
X156562795Y-104919744D01*
X156484774Y-105108102D01*
X156445000Y-105308061D01*
X156445000Y-105511939D01*
X156478039Y-105678039D01*
X156311939Y-105645000D01*
X156108061Y-105645000D01*
X155908102Y-105684774D01*
X155719744Y-105762795D01*
X155550226Y-105876063D01*
X155406063Y-106020226D01*
X155292795Y-106189744D01*
X155214774Y-106378102D01*
X155175000Y-106578061D01*
X155175000Y-106781939D01*
X155214774Y-106981898D01*
X155292795Y-107170256D01*
X155406063Y-107339774D01*
X155550226Y-107483937D01*
X155719744Y-107597205D01*
X155908102Y-107675226D01*
X156108061Y-107715000D01*
X156170199Y-107715000D01*
X156720001Y-108264803D01*
X156720001Y-109001928D01*
X156630000Y-109001928D01*
X156505518Y-109014188D01*
X156385820Y-109050498D01*
X156275506Y-109109463D01*
X156178815Y-109188815D01*
X156099463Y-109285506D01*
X156040498Y-109395820D01*
X156004188Y-109515518D01*
X155991928Y-109640000D01*
X155991928Y-111340000D01*
X156004188Y-111464482D01*
X156040498Y-111584180D01*
X156099463Y-111694494D01*
X156178815Y-111791185D01*
X156275506Y-111870537D01*
X156385820Y-111929502D01*
X156505518Y-111965812D01*
X156630000Y-111978072D01*
X157990000Y-111978072D01*
X157990001Y-119946288D01*
X157946063Y-119990226D01*
X157832795Y-120159744D01*
X157754774Y-120348102D01*
X157715000Y-120548061D01*
X157715000Y-120751939D01*
X157754774Y-120951898D01*
X157832795Y-121140256D01*
X157946063Y-121309774D01*
X158090226Y-121453937D01*
X158259744Y-121567205D01*
X158448102Y-121645226D01*
X158648061Y-121685000D01*
X158851939Y-121685000D01*
X159051898Y-121645226D01*
X159240256Y-121567205D01*
X159409774Y-121453937D01*
X159553937Y-121309774D01*
X159667205Y-121140256D01*
X159745226Y-120951898D01*
X159785000Y-120751939D01*
X159785000Y-120548061D01*
X159745226Y-120348102D01*
X159667205Y-120159744D01*
X159553937Y-119990226D01*
X159510000Y-119946289D01*
X159510000Y-119944801D01*
X160726200Y-121161002D01*
X160749999Y-121190001D01*
X160865724Y-121284974D01*
X160997753Y-121355546D01*
X161141014Y-121399003D01*
X161252667Y-121410000D01*
X161252676Y-121410000D01*
X161289999Y-121413676D01*
X161327322Y-121410000D01*
X162488017Y-121410000D01*
X162450147Y-121501426D01*
X162395000Y-121778665D01*
X162395000Y-122061335D01*
X162450147Y-122338574D01*
X162558320Y-122599727D01*
X162715363Y-122834759D01*
X162915241Y-123034637D01*
X163147759Y-123190000D01*
X162915241Y-123345363D01*
X162715363Y-123545241D01*
X162558320Y-123780273D01*
X162450147Y-124041426D01*
X162395000Y-124318665D01*
X162395000Y-124601335D01*
X162450147Y-124878574D01*
X162558320Y-125139727D01*
X162715363Y-125374759D01*
X162915241Y-125574637D01*
X163150273Y-125731680D01*
X163160865Y-125736067D01*
X162974869Y-125847615D01*
X162766481Y-126036586D01*
X162598963Y-126262580D01*
X162478754Y-126516913D01*
X162438096Y-126650961D01*
X162560085Y-126873000D01*
X163703000Y-126873000D01*
X163703000Y-126853000D01*
X163957000Y-126853000D01*
X163957000Y-126873000D01*
X163977000Y-126873000D01*
X163977000Y-127127000D01*
X163957000Y-127127000D01*
X163957000Y-128270624D01*
X164179040Y-128391909D01*
X164241501Y-128369542D01*
X164241501Y-130674179D01*
X164237825Y-130711501D01*
X164241501Y-130748823D01*
X164241501Y-130748833D01*
X164252498Y-130860486D01*
X164268106Y-130911939D01*
X164295955Y-131003747D01*
X164366527Y-131135777D01*
X164406372Y-131184327D01*
X164461500Y-131251502D01*
X164490504Y-131275305D01*
X166187224Y-132972026D01*
X166141400Y-133202401D01*
X166141400Y-133497599D01*
X166198990Y-133787125D01*
X166229176Y-133860000D01*
X163970824Y-133860000D01*
X164001010Y-133787125D01*
X164058600Y-133497599D01*
X164058600Y-133202401D01*
X164001010Y-132912875D01*
X163888042Y-132640147D01*
X163724039Y-132394698D01*
X163515302Y-132185961D01*
X163269853Y-132021958D01*
X162997125Y-131908990D01*
X162707599Y-131851400D01*
X162412401Y-131851400D01*
X162122875Y-131908990D01*
X161850147Y-132021958D01*
X161604698Y-132185961D01*
X161395961Y-132394698D01*
X161288308Y-132555813D01*
X161126854Y-132339707D01*
X160908488Y-132143183D01*
X160655978Y-131993036D01*
X160379027Y-131895037D01*
X160147000Y-132015536D01*
X160147000Y-133223000D01*
X160167000Y-133223000D01*
X160167000Y-133477000D01*
X160147000Y-133477000D01*
X160147000Y-133497000D01*
X159893000Y-133497000D01*
X159893000Y-133477000D01*
X157607000Y-133477000D01*
X157607000Y-133497000D01*
X157353000Y-133497000D01*
X157353000Y-133477000D01*
X157333000Y-133477000D01*
X157333000Y-133223000D01*
X157353000Y-133223000D01*
X157353000Y-132015536D01*
X157607000Y-132015536D01*
X157607000Y-133223000D01*
X159893000Y-133223000D01*
X159893000Y-132015536D01*
X159660973Y-131895037D01*
X159384022Y-131993036D01*
X159131512Y-132143183D01*
X158913146Y-132339707D01*
X158750000Y-132558078D01*
X158586854Y-132339707D01*
X158368488Y-132143183D01*
X158115978Y-131993036D01*
X157839027Y-131895037D01*
X157607000Y-132015536D01*
X157353000Y-132015536D01*
X157120973Y-131895037D01*
X156844022Y-131993036D01*
X156591512Y-132143183D01*
X156373146Y-132339707D01*
X156211692Y-132555813D01*
X156104039Y-132394698D01*
X155895302Y-132185961D01*
X155649853Y-132021958D01*
X155377125Y-131908990D01*
X155087599Y-131851400D01*
X154792401Y-131851400D01*
X154789096Y-131852058D01*
X151836607Y-128899569D01*
X151806778Y-128863222D01*
X151661741Y-128744194D01*
X151496269Y-128655748D01*
X151316723Y-128601283D01*
X151176785Y-128587500D01*
X151130000Y-128582892D01*
X151083215Y-128587500D01*
X145174539Y-128587500D01*
X144462500Y-127875462D01*
X144462500Y-127405047D01*
X144485699Y-127349039D01*
X162438096Y-127349039D01*
X162478754Y-127483087D01*
X162598963Y-127737420D01*
X162766481Y-127963414D01*
X162974869Y-128152385D01*
X163216119Y-128297070D01*
X163480960Y-128391909D01*
X163703000Y-128270624D01*
X163703000Y-127127000D01*
X162560085Y-127127000D01*
X162438096Y-127349039D01*
X144485699Y-127349039D01*
X144505226Y-127301898D01*
X144545000Y-127101939D01*
X144545000Y-126898061D01*
X144505226Y-126698102D01*
X144462500Y-126594953D01*
X144462500Y-124880000D01*
X157261928Y-124880000D01*
X157261928Y-126580000D01*
X157274188Y-126704482D01*
X157310498Y-126824180D01*
X157369463Y-126934494D01*
X157448815Y-127031185D01*
X157545506Y-127110537D01*
X157655820Y-127169502D01*
X157775518Y-127205812D01*
X157900000Y-127218072D01*
X159600000Y-127218072D01*
X159724482Y-127205812D01*
X159844180Y-127169502D01*
X159954494Y-127110537D01*
X160051185Y-127031185D01*
X160130537Y-126934494D01*
X160189502Y-126824180D01*
X160225812Y-126704482D01*
X160238072Y-126580000D01*
X160238072Y-124880000D01*
X160225812Y-124755518D01*
X160189502Y-124635820D01*
X160130537Y-124525506D01*
X160051185Y-124428815D01*
X159954494Y-124349463D01*
X159844180Y-124290498D01*
X159724482Y-124254188D01*
X159600000Y-124241928D01*
X157900000Y-124241928D01*
X157775518Y-124254188D01*
X157655820Y-124290498D01*
X157545506Y-124349463D01*
X157448815Y-124428815D01*
X157369463Y-124525506D01*
X157310498Y-124635820D01*
X157274188Y-124755518D01*
X157261928Y-124880000D01*
X144462500Y-124880000D01*
X144462500Y-124178763D01*
X144478102Y-124185226D01*
X144678061Y-124225000D01*
X144881939Y-124225000D01*
X145081898Y-124185226D01*
X145270256Y-124107205D01*
X145439774Y-123993937D01*
X145583937Y-123849774D01*
X145697205Y-123680256D01*
X145775226Y-123491898D01*
X145815000Y-123291939D01*
X145815000Y-123088061D01*
X145775226Y-122888102D01*
X145697205Y-122699744D01*
X145583937Y-122530226D01*
X145540000Y-122486289D01*
X145540000Y-120964801D01*
X147286009Y-119218794D01*
X147315002Y-119195000D01*
X147338796Y-119166007D01*
X147338800Y-119166003D01*
X147409974Y-119079276D01*
X147416478Y-119067108D01*
X147480547Y-118947246D01*
X147524004Y-118803985D01*
X147535001Y-118692332D01*
X147535001Y-118692323D01*
X147538677Y-118655000D01*
X147535001Y-118617677D01*
X147535001Y-106172326D01*
X147538677Y-106135001D01*
X147535001Y-106097676D01*
X147535001Y-106097668D01*
X147524004Y-105986015D01*
X147480547Y-105842754D01*
X147409975Y-105710725D01*
X147315002Y-105595000D01*
X147286005Y-105571203D01*
X144270000Y-102555199D01*
X144270000Y-99278072D01*
X144360000Y-99278072D01*
X144484482Y-99265812D01*
X144604180Y-99229502D01*
X144714494Y-99170537D01*
X144811185Y-99091185D01*
X144890537Y-98994494D01*
X144949502Y-98884180D01*
X144985812Y-98764482D01*
X144998072Y-98640000D01*
X144998072Y-96940000D01*
X144985812Y-96815518D01*
X144949502Y-96695820D01*
X144890537Y-96585506D01*
X144811185Y-96488815D01*
X144714494Y-96409463D01*
X144604180Y-96350498D01*
X144484482Y-96314188D01*
X144360000Y-96301928D01*
X142660000Y-96301928D01*
X142535518Y-96314188D01*
X142415820Y-96350498D01*
X142305506Y-96409463D01*
X142208815Y-96488815D01*
X142129463Y-96585506D01*
X142070498Y-96695820D01*
X142034188Y-96815518D01*
X142021928Y-96940000D01*
X142021928Y-98300000D01*
X140403711Y-98300000D01*
X140359774Y-98256063D01*
X140190256Y-98142795D01*
X140001898Y-98064774D01*
X139801939Y-98025000D01*
X139598061Y-98025000D01*
X139398102Y-98064774D01*
X139209744Y-98142795D01*
X139040226Y-98256063D01*
X138896063Y-98400226D01*
X138782795Y-98569744D01*
X138704774Y-98758102D01*
X138665000Y-98958061D01*
X138665000Y-99161939D01*
X138704774Y-99361898D01*
X138782795Y-99550256D01*
X138896063Y-99719774D01*
X139040226Y-99863937D01*
X139209744Y-99977205D01*
X139398102Y-100055226D01*
X139598061Y-100095000D01*
X139801939Y-100095000D01*
X140001898Y-100055226D01*
X140190256Y-99977205D01*
X140359774Y-99863937D01*
X140403711Y-99820000D01*
X141480000Y-99820000D01*
X141480001Y-104706288D01*
X141436063Y-104750226D01*
X141322795Y-104919744D01*
X141244774Y-105108102D01*
X141205000Y-105308061D01*
X141205000Y-105511939D01*
X141244774Y-105711898D01*
X141322795Y-105900256D01*
X141335987Y-105920000D01*
X138744802Y-105920000D01*
X135924999Y-103100198D01*
X135924999Y-102639802D01*
X135929801Y-102635000D01*
X135991939Y-102635000D01*
X136191898Y-102595226D01*
X136380256Y-102517205D01*
X136549774Y-102403937D01*
X136693937Y-102259774D01*
X136807205Y-102090256D01*
X136885226Y-101901898D01*
X136925000Y-101701939D01*
X136925000Y-101498061D01*
X136885226Y-101298102D01*
X136807205Y-101109744D01*
X136693937Y-100940226D01*
X136549774Y-100796063D01*
X136380256Y-100682795D01*
X136191898Y-100604774D01*
X135991939Y-100565000D01*
X135788061Y-100565000D01*
X135588102Y-100604774D01*
X135399744Y-100682795D01*
X135230226Y-100796063D01*
X135086063Y-100940226D01*
X134972795Y-101109744D01*
X134894774Y-101298102D01*
X134855000Y-101498061D01*
X134855000Y-101560199D01*
X134654001Y-101761198D01*
X134624998Y-101785000D01*
X134569870Y-101852175D01*
X134530025Y-101900725D01*
X134502193Y-101952795D01*
X134459453Y-102032755D01*
X134415996Y-102176016D01*
X134404999Y-102287669D01*
X134404999Y-102287679D01*
X134401323Y-102325001D01*
X134404999Y-102362324D01*
X134405000Y-103377667D01*
X134401323Y-103414999D01*
X134405000Y-103452332D01*
X134415997Y-103563985D01*
X134426922Y-103599999D01*
X134459453Y-103707245D01*
X134530025Y-103839275D01*
X134551323Y-103865226D01*
X134624999Y-103955000D01*
X134653997Y-103978798D01*
X135260820Y-104585621D01*
X135230226Y-104606063D01*
X135186289Y-104650000D01*
X127314802Y-104650000D01*
X126490000Y-103825199D01*
X126490000Y-102768061D01*
X129775000Y-102768061D01*
X129775000Y-102971939D01*
X129814774Y-103171898D01*
X129892795Y-103360256D01*
X130006063Y-103529774D01*
X130150226Y-103673937D01*
X130319744Y-103787205D01*
X130508102Y-103865226D01*
X130708061Y-103905000D01*
X130911939Y-103905000D01*
X131111898Y-103865226D01*
X131300256Y-103787205D01*
X131469774Y-103673937D01*
X131513711Y-103630000D01*
X132042678Y-103630000D01*
X132080000Y-103633676D01*
X132117322Y-103630000D01*
X132117333Y-103630000D01*
X132228986Y-103619003D01*
X132372247Y-103575546D01*
X132504276Y-103504974D01*
X132620001Y-103410001D01*
X132643804Y-103380997D01*
X133861003Y-102163799D01*
X133890001Y-102140001D01*
X133984974Y-102024276D01*
X134055546Y-101892247D01*
X134099003Y-101748986D01*
X134110000Y-101637333D01*
X134110000Y-101637324D01*
X134113676Y-101600001D01*
X134110000Y-101562678D01*
X134110000Y-98493711D01*
X134153937Y-98449774D01*
X134267205Y-98280256D01*
X134345226Y-98091898D01*
X134385000Y-97891939D01*
X134385000Y-97688061D01*
X134345226Y-97488102D01*
X134267205Y-97299744D01*
X134153937Y-97130226D01*
X134009774Y-96986063D01*
X133840256Y-96872795D01*
X133651898Y-96794774D01*
X133451939Y-96755000D01*
X133248061Y-96755000D01*
X133048102Y-96794774D01*
X132859744Y-96872795D01*
X132690226Y-96986063D01*
X132546063Y-97130226D01*
X132432795Y-97299744D01*
X132354774Y-97488102D01*
X132315000Y-97688061D01*
X132315000Y-97891939D01*
X132354774Y-98091898D01*
X132432795Y-98280256D01*
X132546063Y-98449774D01*
X132590000Y-98493711D01*
X132590001Y-101285197D01*
X131765199Y-102110000D01*
X131513711Y-102110000D01*
X131469774Y-102066063D01*
X131300256Y-101952795D01*
X131111898Y-101874774D01*
X130911939Y-101835000D01*
X130708061Y-101835000D01*
X130508102Y-101874774D01*
X130319744Y-101952795D01*
X130150226Y-102066063D01*
X130006063Y-102210226D01*
X129892795Y-102379744D01*
X129814774Y-102568102D01*
X129775000Y-102768061D01*
X126490000Y-102768061D01*
X126490000Y-99763711D01*
X126533937Y-99719774D01*
X126647205Y-99550256D01*
X126725226Y-99361898D01*
X126765000Y-99161939D01*
X126765000Y-98958061D01*
X126725226Y-98758102D01*
X126647205Y-98569744D01*
X126533937Y-98400226D01*
X126389774Y-98256063D01*
X126220256Y-98142795D01*
X126031898Y-98064774D01*
X125831939Y-98025000D01*
X125628061Y-98025000D01*
X125428102Y-98064774D01*
X125239744Y-98142795D01*
X125070226Y-98256063D01*
X124926063Y-98400226D01*
X124812795Y-98569744D01*
X124734774Y-98758102D01*
X124695000Y-98958061D01*
X124695000Y-99161939D01*
X124734774Y-99361898D01*
X124812795Y-99550256D01*
X124926063Y-99719774D01*
X124970000Y-99763711D01*
X124970001Y-104102667D01*
X124966324Y-104140000D01*
X124970001Y-104177333D01*
X124980998Y-104288986D01*
X124987679Y-104311010D01*
X125024454Y-104432246D01*
X125095026Y-104564276D01*
X125149175Y-104630256D01*
X125190000Y-104680001D01*
X125218998Y-104703799D01*
X126240001Y-105724803D01*
X126240000Y-113067332D01*
X126240001Y-113067342D01*
X126240000Y-118676289D01*
X126196063Y-118720226D01*
X126082795Y-118889744D01*
X126004774Y-119078102D01*
X125965000Y-119278061D01*
X125965000Y-119481939D01*
X126004774Y-119681898D01*
X126082795Y-119870256D01*
X126196063Y-120039774D01*
X126340226Y-120183937D01*
X126509744Y-120297205D01*
X126698102Y-120375226D01*
X126898061Y-120415000D01*
X127101939Y-120415000D01*
X127301898Y-120375226D01*
X127490256Y-120297205D01*
X127659774Y-120183937D01*
X127803937Y-120039774D01*
X127917205Y-119870256D01*
X127995226Y-119681898D01*
X128035000Y-119481939D01*
X128035000Y-119278061D01*
X127995226Y-119078102D01*
X127917205Y-118889744D01*
X127803937Y-118720226D01*
X127760000Y-118676289D01*
X127760000Y-116738061D01*
X128505000Y-116738061D01*
X128505000Y-116941939D01*
X128544774Y-117141898D01*
X128622795Y-117330256D01*
X128736063Y-117499774D01*
X128780000Y-117543711D01*
X128780001Y-123152667D01*
X128776324Y-123190000D01*
X128780001Y-123227332D01*
X128780001Y-123227333D01*
X128790998Y-123338986D01*
X128795856Y-123355000D01*
X128834454Y-123482246D01*
X128905026Y-123614276D01*
X128959175Y-123680256D01*
X129000000Y-123730001D01*
X129028998Y-123753799D01*
X131045000Y-125769803D01*
X131045000Y-125831939D01*
X131084774Y-126031898D01*
X131162795Y-126220256D01*
X131276063Y-126389774D01*
X131420226Y-126533937D01*
X131589744Y-126647205D01*
X131778102Y-126725226D01*
X131978061Y-126765000D01*
X132181939Y-126765000D01*
X132381898Y-126725226D01*
X132570256Y-126647205D01*
X132739774Y-126533937D01*
X132863711Y-126410000D01*
X134661928Y-126410000D01*
X134661928Y-127590000D01*
X134674188Y-127714482D01*
X134710498Y-127834180D01*
X134769463Y-127944494D01*
X134848815Y-128041185D01*
X134945506Y-128120537D01*
X135055820Y-128179502D01*
X135175518Y-128215812D01*
X135300000Y-128228072D01*
X136480000Y-128228072D01*
X136604482Y-128215812D01*
X136724180Y-128179502D01*
X136834494Y-128120537D01*
X136931185Y-128041185D01*
X137010537Y-127944494D01*
X137069502Y-127834180D01*
X137105812Y-127714482D01*
X137118072Y-127590000D01*
X137118072Y-126410000D01*
X137105812Y-126285518D01*
X137069502Y-126165820D01*
X137010537Y-126055506D01*
X136931185Y-125958815D01*
X136834494Y-125879463D01*
X136724180Y-125820498D01*
X136604482Y-125784188D01*
X136480000Y-125771928D01*
X135300000Y-125771928D01*
X135175518Y-125784188D01*
X135055820Y-125820498D01*
X134945506Y-125879463D01*
X134848815Y-125958815D01*
X134769463Y-126055506D01*
X134710498Y-126165820D01*
X134674188Y-126285518D01*
X134661928Y-126410000D01*
X132863711Y-126410000D01*
X132883937Y-126389774D01*
X132997205Y-126220256D01*
X133075226Y-126031898D01*
X133115000Y-125831939D01*
X133115000Y-125628061D01*
X133075226Y-125428102D01*
X133023245Y-125302609D01*
X135226996Y-125302609D01*
X135273085Y-125525175D01*
X135492745Y-125625062D01*
X135727670Y-125680176D01*
X135968833Y-125688399D01*
X136206967Y-125649417D01*
X136432920Y-125564725D01*
X136506915Y-125525175D01*
X136553004Y-125302609D01*
X135890000Y-124639605D01*
X135226996Y-125302609D01*
X133023245Y-125302609D01*
X132997205Y-125239744D01*
X132883937Y-125070226D01*
X132739774Y-124926063D01*
X132570256Y-124812795D01*
X132381898Y-124734774D01*
X132181939Y-124695000D01*
X132119803Y-124695000D01*
X131963636Y-124538833D01*
X134661601Y-124538833D01*
X134700583Y-124776967D01*
X134785275Y-125002920D01*
X134824825Y-125076915D01*
X135047391Y-125123004D01*
X135710395Y-124460000D01*
X136069605Y-124460000D01*
X136732609Y-125123004D01*
X136955175Y-125076915D01*
X137055062Y-124857255D01*
X137110176Y-124622330D01*
X137118399Y-124381167D01*
X137079417Y-124143033D01*
X136994725Y-123917080D01*
X136955175Y-123843085D01*
X136732609Y-123796996D01*
X136069605Y-124460000D01*
X135710395Y-124460000D01*
X135047391Y-123796996D01*
X134824825Y-123843085D01*
X134724938Y-124062745D01*
X134669824Y-124297670D01*
X134661601Y-124538833D01*
X131963636Y-124538833D01*
X131042193Y-123617391D01*
X135226996Y-123617391D01*
X135890000Y-124280395D01*
X136553004Y-123617391D01*
X136506915Y-123394825D01*
X136287255Y-123294938D01*
X136052330Y-123239824D01*
X135811167Y-123231601D01*
X135573033Y-123270583D01*
X135347080Y-123355275D01*
X135273085Y-123394825D01*
X135226996Y-123617391D01*
X131042193Y-123617391D01*
X130300000Y-122875199D01*
X130300000Y-119278061D01*
X131045000Y-119278061D01*
X131045000Y-119481939D01*
X131084774Y-119681898D01*
X131162795Y-119870256D01*
X131276063Y-120039774D01*
X131420226Y-120183937D01*
X131589744Y-120297205D01*
X131778102Y-120375226D01*
X131978061Y-120415000D01*
X132181939Y-120415000D01*
X132381898Y-120375226D01*
X132570256Y-120297205D01*
X132739774Y-120183937D01*
X132883937Y-120039774D01*
X132997205Y-119870256D01*
X133075226Y-119681898D01*
X133115000Y-119481939D01*
X133115000Y-119278061D01*
X133111278Y-119259348D01*
X134665000Y-119259348D01*
X134665000Y-119500652D01*
X134712076Y-119737319D01*
X134804419Y-119960255D01*
X134938481Y-120160892D01*
X135109108Y-120331519D01*
X135309745Y-120465581D01*
X135532681Y-120557924D01*
X135769348Y-120605000D01*
X136010652Y-120605000D01*
X136247319Y-120557924D01*
X136470255Y-120465581D01*
X136670892Y-120331519D01*
X136841519Y-120160892D01*
X136975581Y-119960255D01*
X137067924Y-119737319D01*
X137115000Y-119500652D01*
X137115000Y-119259348D01*
X137067924Y-119022681D01*
X136975581Y-118799745D01*
X136841519Y-118599108D01*
X136670892Y-118428481D01*
X136470255Y-118294419D01*
X136247319Y-118202076D01*
X136010652Y-118155000D01*
X135769348Y-118155000D01*
X135532681Y-118202076D01*
X135309745Y-118294419D01*
X135109108Y-118428481D01*
X134938481Y-118599108D01*
X134804419Y-118799745D01*
X134712076Y-119022681D01*
X134665000Y-119259348D01*
X133111278Y-119259348D01*
X133075226Y-119078102D01*
X132997205Y-118889744D01*
X132883937Y-118720226D01*
X132739774Y-118576063D01*
X132570256Y-118462795D01*
X132381898Y-118384774D01*
X132181939Y-118345000D01*
X131978061Y-118345000D01*
X131778102Y-118384774D01*
X131589744Y-118462795D01*
X131420226Y-118576063D01*
X131276063Y-118720226D01*
X131162795Y-118889744D01*
X131084774Y-119078102D01*
X131045000Y-119278061D01*
X130300000Y-119278061D01*
X130300000Y-117682609D01*
X135226996Y-117682609D01*
X135273085Y-117905175D01*
X135492745Y-118005062D01*
X135727670Y-118060176D01*
X135968833Y-118068399D01*
X136206967Y-118029417D01*
X136432920Y-117944725D01*
X136506915Y-117905175D01*
X136553004Y-117682609D01*
X135890000Y-117019605D01*
X135226996Y-117682609D01*
X130300000Y-117682609D01*
X130300000Y-117543711D01*
X130343937Y-117499774D01*
X130457205Y-117330256D01*
X130535226Y-117141898D01*
X130575000Y-116941939D01*
X130575000Y-116918833D01*
X134661601Y-116918833D01*
X134700583Y-117156967D01*
X134785275Y-117382920D01*
X134824825Y-117456915D01*
X135047391Y-117503004D01*
X135710395Y-116840000D01*
X136069605Y-116840000D01*
X136732609Y-117503004D01*
X136955175Y-117456915D01*
X137055062Y-117237255D01*
X137110176Y-117002330D01*
X137118399Y-116761167D01*
X137079417Y-116523033D01*
X136994725Y-116297080D01*
X136955175Y-116223085D01*
X136732609Y-116176996D01*
X136069605Y-116840000D01*
X135710395Y-116840000D01*
X135047391Y-116176996D01*
X134824825Y-116223085D01*
X134724938Y-116442745D01*
X134669824Y-116677670D01*
X134661601Y-116918833D01*
X130575000Y-116918833D01*
X130575000Y-116738061D01*
X130535226Y-116538102D01*
X130457205Y-116349744D01*
X130343937Y-116180226D01*
X130199774Y-116036063D01*
X130141898Y-115997391D01*
X135226996Y-115997391D01*
X135890000Y-116660395D01*
X136553004Y-115997391D01*
X136506915Y-115774825D01*
X136287255Y-115674938D01*
X136052330Y-115619824D01*
X135811167Y-115611601D01*
X135573033Y-115650583D01*
X135347080Y-115735275D01*
X135273085Y-115774825D01*
X135226996Y-115997391D01*
X130141898Y-115997391D01*
X130030256Y-115922795D01*
X129841898Y-115844774D01*
X129641939Y-115805000D01*
X129438061Y-115805000D01*
X129238102Y-115844774D01*
X129049744Y-115922795D01*
X128880226Y-116036063D01*
X128736063Y-116180226D01*
X128622795Y-116349744D01*
X128544774Y-116538102D01*
X128505000Y-116738061D01*
X127760000Y-116738061D01*
X127760000Y-106170000D01*
X129905987Y-106170000D01*
X129892795Y-106189744D01*
X129814774Y-106378102D01*
X129775000Y-106578061D01*
X129775000Y-106781939D01*
X129814774Y-106981898D01*
X129892795Y-107170256D01*
X130006063Y-107339774D01*
X130050000Y-107383711D01*
X130050001Y-111722667D01*
X130046324Y-111760000D01*
X130050001Y-111797333D01*
X130060998Y-111908986D01*
X130067679Y-111931010D01*
X130104454Y-112052246D01*
X130175026Y-112184276D01*
X130229175Y-112250256D01*
X130270000Y-112300001D01*
X130298998Y-112323799D01*
X130971202Y-112996003D01*
X130995000Y-113025002D01*
X131110725Y-113119975D01*
X131242754Y-113190547D01*
X131386015Y-113234004D01*
X131497668Y-113245001D01*
X131497677Y-113245001D01*
X131535000Y-113248677D01*
X131572323Y-113245001D01*
X135227198Y-113245001D01*
X135241929Y-113259732D01*
X135109108Y-113348481D01*
X134938481Y-113519108D01*
X134804419Y-113719745D01*
X134712076Y-113942681D01*
X134665000Y-114179348D01*
X134665000Y-114420652D01*
X134712076Y-114657319D01*
X134804419Y-114880255D01*
X134938481Y-115080892D01*
X135109108Y-115251519D01*
X135309745Y-115385581D01*
X135532681Y-115477924D01*
X135769348Y-115525000D01*
X136010652Y-115525000D01*
X136247319Y-115477924D01*
X136470255Y-115385581D01*
X136670892Y-115251519D01*
X136841519Y-115080892D01*
X136930267Y-114948071D01*
X138063203Y-116081008D01*
X138086997Y-116110001D01*
X138115990Y-116133795D01*
X138115994Y-116133799D01*
X138172566Y-116180226D01*
X138202722Y-116204974D01*
X138334751Y-116275546D01*
X138478012Y-116319003D01*
X138589665Y-116330000D01*
X138589674Y-116330000D01*
X138626997Y-116333676D01*
X138664320Y-116330000D01*
X140210000Y-116330000D01*
X140210001Y-133312667D01*
X140206324Y-133350000D01*
X140210001Y-133387333D01*
X140220998Y-133498986D01*
X140232445Y-133536722D01*
X140264454Y-133642246D01*
X140335026Y-133774276D01*
X140405226Y-133859814D01*
X140430000Y-133890001D01*
X140458998Y-133913799D01*
X141038199Y-134493000D01*
X136920015Y-134493000D01*
X136885226Y-134318102D01*
X136807205Y-134129744D01*
X136693937Y-133960226D01*
X136549774Y-133816063D01*
X136380256Y-133702795D01*
X136191898Y-133624774D01*
X135991939Y-133585000D01*
X135929802Y-133585000D01*
X132643804Y-130299003D01*
X132620001Y-130269999D01*
X132504276Y-130175026D01*
X132372247Y-130104454D01*
X132228986Y-130060997D01*
X132117333Y-130050000D01*
X132117322Y-130050000D01*
X132080000Y-130046324D01*
X132042678Y-130050000D01*
X125735801Y-130050000D01*
X125220000Y-129534201D01*
X125220000Y-120658178D01*
X125406632Y-120533475D01*
X125613475Y-120326632D01*
X125775990Y-120083411D01*
X125887932Y-119813158D01*
X125945000Y-119526260D01*
X125945000Y-119233740D01*
X125887932Y-118946842D01*
X125775990Y-118676589D01*
X125613475Y-118433368D01*
X125406632Y-118226525D01*
X125232240Y-118110000D01*
X125406632Y-117993475D01*
X125613475Y-117786632D01*
X125775990Y-117543411D01*
X125887932Y-117273158D01*
X125945000Y-116986260D01*
X125945000Y-116693740D01*
X125887932Y-116406842D01*
X125775990Y-116136589D01*
X125613475Y-115893368D01*
X125406632Y-115686525D01*
X125232240Y-115570000D01*
X125406632Y-115453475D01*
X125613475Y-115246632D01*
X125775990Y-115003411D01*
X125887932Y-114733158D01*
X125945000Y-114446260D01*
X125945000Y-114153740D01*
X125887932Y-113866842D01*
X125775990Y-113596589D01*
X125613475Y-113353368D01*
X125406632Y-113146525D01*
X125232240Y-113030000D01*
X125406632Y-112913475D01*
X125613475Y-112706632D01*
X125775990Y-112463411D01*
X125887932Y-112193158D01*
X125945000Y-111906260D01*
X125945000Y-111613740D01*
X125887932Y-111326842D01*
X125775990Y-111056589D01*
X125613475Y-110813368D01*
X125406632Y-110606525D01*
X125232240Y-110490000D01*
X125406632Y-110373475D01*
X125613475Y-110166632D01*
X125775990Y-109923411D01*
X125887932Y-109653158D01*
X125945000Y-109366260D01*
X125945000Y-109073740D01*
X125887932Y-108786842D01*
X125775990Y-108516589D01*
X125613475Y-108273368D01*
X125406632Y-108066525D01*
X125232240Y-107950000D01*
X125406632Y-107833475D01*
X125613475Y-107626632D01*
X125775990Y-107383411D01*
X125887932Y-107113158D01*
X125945000Y-106826260D01*
X125945000Y-106533740D01*
X125887932Y-106246842D01*
X125775990Y-105976589D01*
X125613475Y-105733368D01*
X125406632Y-105526525D01*
X125163411Y-105364010D01*
X124893158Y-105252068D01*
X124606260Y-105195000D01*
X124313740Y-105195000D01*
X124026842Y-105252068D01*
X123756589Y-105364010D01*
X123513368Y-105526525D01*
X123381513Y-105658380D01*
X123359502Y-105585820D01*
X123300537Y-105475506D01*
X123221185Y-105378815D01*
X123124494Y-105299463D01*
X123014180Y-105240498D01*
X122894482Y-105204188D01*
X122770000Y-105191928D01*
X121070000Y-105191928D01*
X120945518Y-105204188D01*
X120825820Y-105240498D01*
X120715506Y-105299463D01*
X120618815Y-105378815D01*
X120539463Y-105475506D01*
X120480498Y-105585820D01*
X120444188Y-105705518D01*
X120431928Y-105830000D01*
X120431928Y-107530000D01*
X120444188Y-107654482D01*
X120480498Y-107774180D01*
X120539463Y-107884494D01*
X120618815Y-107981185D01*
X120715506Y-108060537D01*
X120825820Y-108119502D01*
X120898380Y-108141513D01*
X120766525Y-108273368D01*
X120604010Y-108516589D01*
X120492068Y-108786842D01*
X120435000Y-109073740D01*
X120435000Y-109366260D01*
X120492068Y-109653158D01*
X120604010Y-109923411D01*
X120766525Y-110166632D01*
X120973368Y-110373475D01*
X121147760Y-110490000D01*
X120973368Y-110606525D01*
X120766525Y-110813368D01*
X120604010Y-111056589D01*
X120492068Y-111326842D01*
X120435000Y-111613740D01*
X120435000Y-111906260D01*
X120492068Y-112193158D01*
X120604010Y-112463411D01*
X120766525Y-112706632D01*
X120973368Y-112913475D01*
X121155534Y-113035195D01*
X121038645Y-113104822D01*
X120822412Y-113299731D01*
X120648359Y-113533080D01*
X120523175Y-113795901D01*
X120478524Y-113943110D01*
X120599845Y-114173000D01*
X121793000Y-114173000D01*
X121793000Y-114153000D01*
X122047000Y-114153000D01*
X122047000Y-114173000D01*
X122067000Y-114173000D01*
X122067000Y-114427000D01*
X122047000Y-114427000D01*
X122047000Y-116713000D01*
X122067000Y-116713000D01*
X122067000Y-116967000D01*
X122047000Y-116967000D01*
X122047000Y-116987000D01*
X121793000Y-116987000D01*
X121793000Y-116967000D01*
X120599845Y-116967000D01*
X120478524Y-117196890D01*
X120523175Y-117344099D01*
X120648359Y-117606920D01*
X120822412Y-117840269D01*
X121038645Y-118035178D01*
X121155534Y-118104805D01*
X120973368Y-118226525D01*
X120766525Y-118433368D01*
X120604010Y-118676589D01*
X120492068Y-118946842D01*
X120435000Y-119233740D01*
X120435000Y-119526260D01*
X120492068Y-119813158D01*
X120604010Y-120083411D01*
X120766525Y-120326632D01*
X120973368Y-120533475D01*
X121216589Y-120695990D01*
X121486842Y-120807932D01*
X121773740Y-120865000D01*
X122066260Y-120865000D01*
X122353158Y-120807932D01*
X122623411Y-120695990D01*
X122866632Y-120533475D01*
X123073475Y-120326632D01*
X123190000Y-120152240D01*
X123306525Y-120326632D01*
X123513368Y-120533475D01*
X123700001Y-120658179D01*
X123700000Y-129811680D01*
X123696324Y-129849002D01*
X123700000Y-129886324D01*
X123700000Y-129886334D01*
X123710997Y-129997987D01*
X123743094Y-130103799D01*
X123754454Y-130141248D01*
X123825026Y-130273278D01*
X123849974Y-130303677D01*
X123919999Y-130389003D01*
X123949002Y-130412805D01*
X124857203Y-131321008D01*
X124880997Y-131350001D01*
X124909990Y-131373795D01*
X124909994Y-131373799D01*
X124962693Y-131417047D01*
X124996722Y-131444974D01*
X125128751Y-131515546D01*
X125272012Y-131559003D01*
X125383665Y-131570000D01*
X125383674Y-131570000D01*
X125420997Y-131573676D01*
X125458320Y-131570000D01*
X129451065Y-131570000D01*
X129385271Y-131613962D01*
X129073962Y-131925271D01*
X128829369Y-132291331D01*
X128660890Y-132698075D01*
X128575000Y-133129872D01*
X128575000Y-133570128D01*
X128660890Y-134001925D01*
X128829369Y-134408669D01*
X128885717Y-134493000D01*
X118237000Y-134493000D01*
X118237000Y-114656890D01*
X120478524Y-114656890D01*
X120523175Y-114804099D01*
X120648359Y-115066920D01*
X120822412Y-115300269D01*
X121038645Y-115495178D01*
X121164255Y-115570000D01*
X121038645Y-115644822D01*
X120822412Y-115839731D01*
X120648359Y-116073080D01*
X120523175Y-116335901D01*
X120478524Y-116483110D01*
X120599845Y-116713000D01*
X121793000Y-116713000D01*
X121793000Y-114427000D01*
X120599845Y-114427000D01*
X120478524Y-114656890D01*
X118237000Y-114656890D01*
X118237000Y-95670000D01*
X128051928Y-95670000D01*
X128051928Y-97370000D01*
X128064188Y-97494482D01*
X128100498Y-97614180D01*
X128159463Y-97724494D01*
X128238815Y-97821185D01*
X128335506Y-97900537D01*
X128445820Y-97959502D01*
X128565518Y-97995812D01*
X128690000Y-98008072D01*
X130390000Y-98008072D01*
X130514482Y-97995812D01*
X130634180Y-97959502D01*
X130744494Y-97900537D01*
X130841185Y-97821185D01*
X130920537Y-97724494D01*
X130979502Y-97614180D01*
X131015812Y-97494482D01*
X131028072Y-97370000D01*
X131028072Y-95670000D01*
X131015812Y-95545518D01*
X130979502Y-95425820D01*
X130920537Y-95315506D01*
X130841185Y-95218815D01*
X130744494Y-95139463D01*
X130634180Y-95080498D01*
X130514482Y-95044188D01*
X130390000Y-95031928D01*
X128690000Y-95031928D01*
X128565518Y-95044188D01*
X128445820Y-95080498D01*
X128335506Y-95139463D01*
X128238815Y-95218815D01*
X128159463Y-95315506D01*
X128100498Y-95425820D01*
X128064188Y-95545518D01*
X128051928Y-95670000D01*
X118237000Y-95670000D01*
X118237000Y-93130000D01*
X131861928Y-93130000D01*
X131861928Y-94830000D01*
X131874188Y-94954482D01*
X131910498Y-95074180D01*
X131969463Y-95184494D01*
X132048815Y-95281185D01*
X132145506Y-95360537D01*
X132255820Y-95419502D01*
X132375518Y-95455812D01*
X132500000Y-95468072D01*
X134200000Y-95468072D01*
X134324482Y-95455812D01*
X134444180Y-95419502D01*
X134554494Y-95360537D01*
X134651185Y-95281185D01*
X134662415Y-95267501D01*
X134750725Y-95339975D01*
X134882754Y-95410547D01*
X135026015Y-95454004D01*
X135137668Y-95465001D01*
X135137677Y-95465001D01*
X135175000Y-95468677D01*
X135212323Y-95465001D01*
X138937677Y-95465001D01*
X138974999Y-95468677D01*
X139012321Y-95465001D01*
X139012332Y-95465001D01*
X139123985Y-95454004D01*
X139267246Y-95410547D01*
X139399275Y-95339975D01*
X139515000Y-95245002D01*
X139538802Y-95215999D01*
X139739801Y-95015000D01*
X139801939Y-95015000D01*
X140001898Y-94975226D01*
X140190256Y-94897205D01*
X140359774Y-94783937D01*
X140503937Y-94639774D01*
X140617205Y-94470256D01*
X140695226Y-94281898D01*
X140735000Y-94081939D01*
X140735000Y-93878061D01*
X140695226Y-93678102D01*
X140617205Y-93489744D01*
X140503937Y-93320226D01*
X140359774Y-93176063D01*
X140196387Y-93066891D01*
X147148519Y-93066891D01*
X147245843Y-93341252D01*
X147394822Y-93591355D01*
X147589731Y-93807588D01*
X147823080Y-93981641D01*
X148085901Y-94106825D01*
X148233110Y-94151476D01*
X148463000Y-94030155D01*
X148463000Y-92837000D01*
X148717000Y-92837000D01*
X148717000Y-94030155D01*
X148946890Y-94151476D01*
X149094099Y-94106825D01*
X149356920Y-93981641D01*
X149590269Y-93807588D01*
X149785178Y-93591355D01*
X149860000Y-93465745D01*
X149934822Y-93591355D01*
X150129731Y-93807588D01*
X150363080Y-93981641D01*
X150625901Y-94106825D01*
X150773110Y-94151476D01*
X151003000Y-94030155D01*
X151003000Y-92837000D01*
X151257000Y-92837000D01*
X151257000Y-94030155D01*
X151486890Y-94151476D01*
X151634099Y-94106825D01*
X151896920Y-93981641D01*
X152130269Y-93807588D01*
X152325178Y-93591355D01*
X152400000Y-93465745D01*
X152474822Y-93591355D01*
X152669731Y-93807588D01*
X152903080Y-93981641D01*
X153165901Y-94106825D01*
X153313110Y-94151476D01*
X153543000Y-94030155D01*
X153543000Y-92837000D01*
X153797000Y-92837000D01*
X153797000Y-94030155D01*
X154026890Y-94151476D01*
X154174099Y-94106825D01*
X154436920Y-93981641D01*
X154670269Y-93807588D01*
X154746034Y-93723534D01*
X154770498Y-93804180D01*
X154829463Y-93914494D01*
X154908815Y-94011185D01*
X155005506Y-94090537D01*
X155115820Y-94149502D01*
X155235518Y-94185812D01*
X155360000Y-94198072D01*
X155924250Y-94195000D01*
X156083000Y-94036250D01*
X156083000Y-92837000D01*
X156337000Y-92837000D01*
X156337000Y-94036250D01*
X156495750Y-94195000D01*
X157060000Y-94198072D01*
X157184482Y-94185812D01*
X157304180Y-94149502D01*
X157414494Y-94090537D01*
X157511185Y-94011185D01*
X157590537Y-93914494D01*
X157649502Y-93804180D01*
X157685812Y-93684482D01*
X157698072Y-93560000D01*
X157695000Y-92995750D01*
X157536250Y-92837000D01*
X156337000Y-92837000D01*
X156083000Y-92837000D01*
X153797000Y-92837000D01*
X153543000Y-92837000D01*
X151257000Y-92837000D01*
X151003000Y-92837000D01*
X148717000Y-92837000D01*
X148463000Y-92837000D01*
X147269186Y-92837000D01*
X147148519Y-93066891D01*
X140196387Y-93066891D01*
X140190256Y-93062795D01*
X140001898Y-92984774D01*
X139801939Y-92945000D01*
X139598061Y-92945000D01*
X139398102Y-92984774D01*
X139209744Y-93062795D01*
X139040226Y-93176063D01*
X138896063Y-93320226D01*
X138782795Y-93489744D01*
X138704774Y-93678102D01*
X138665000Y-93878061D01*
X138665000Y-93940199D01*
X138660198Y-93945001D01*
X135489803Y-93945001D01*
X135013803Y-93469002D01*
X134990001Y-93439999D01*
X134874276Y-93345026D01*
X134838072Y-93325674D01*
X134838072Y-93130000D01*
X134825812Y-93005518D01*
X134789502Y-92885820D01*
X134730537Y-92775506D01*
X134651185Y-92678815D01*
X134554494Y-92599463D01*
X134444180Y-92540498D01*
X134324482Y-92504188D01*
X134200000Y-92491928D01*
X132500000Y-92491928D01*
X132375518Y-92504188D01*
X132255820Y-92540498D01*
X132145506Y-92599463D01*
X132048815Y-92678815D01*
X131969463Y-92775506D01*
X131910498Y-92885820D01*
X131874188Y-93005518D01*
X131861928Y-93130000D01*
X118237000Y-93130000D01*
X118237000Y-90023740D01*
X147105000Y-90023740D01*
X147105000Y-90316260D01*
X147162068Y-90603158D01*
X147274010Y-90873411D01*
X147436525Y-91116632D01*
X147643368Y-91323475D01*
X147819406Y-91441100D01*
X147589731Y-91612412D01*
X147394822Y-91828645D01*
X147245843Y-92078748D01*
X147148519Y-92353109D01*
X147269186Y-92583000D01*
X148463000Y-92583000D01*
X148463000Y-92563000D01*
X148717000Y-92563000D01*
X148717000Y-92583000D01*
X151003000Y-92583000D01*
X151003000Y-92563000D01*
X151257000Y-92563000D01*
X151257000Y-92583000D01*
X153543000Y-92583000D01*
X153543000Y-92563000D01*
X153797000Y-92563000D01*
X153797000Y-92583000D01*
X156083000Y-92583000D01*
X156083000Y-92563000D01*
X156337000Y-92563000D01*
X156337000Y-92583000D01*
X157536250Y-92583000D01*
X157695000Y-92424250D01*
X157698072Y-91860000D01*
X157685812Y-91735518D01*
X157649502Y-91615820D01*
X157590537Y-91505506D01*
X157511185Y-91408815D01*
X157414494Y-91329463D01*
X157304180Y-91270498D01*
X157231620Y-91248487D01*
X157363475Y-91116632D01*
X157525990Y-90873411D01*
X157637932Y-90603158D01*
X157695000Y-90316260D01*
X157695000Y-90023740D01*
X157637932Y-89736842D01*
X157525990Y-89466589D01*
X157363475Y-89223368D01*
X157156632Y-89016525D01*
X156913411Y-88854010D01*
X156643158Y-88742068D01*
X156356260Y-88685000D01*
X156063740Y-88685000D01*
X155776842Y-88742068D01*
X155506589Y-88854010D01*
X155263368Y-89016525D01*
X155056525Y-89223368D01*
X154940000Y-89397760D01*
X154823475Y-89223368D01*
X154616632Y-89016525D01*
X154373411Y-88854010D01*
X154103158Y-88742068D01*
X153816260Y-88685000D01*
X153523740Y-88685000D01*
X153236842Y-88742068D01*
X152966589Y-88854010D01*
X152723368Y-89016525D01*
X152516525Y-89223368D01*
X152400000Y-89397760D01*
X152283475Y-89223368D01*
X152076632Y-89016525D01*
X151833411Y-88854010D01*
X151563158Y-88742068D01*
X151276260Y-88685000D01*
X150983740Y-88685000D01*
X150696842Y-88742068D01*
X150426589Y-88854010D01*
X150183368Y-89016525D01*
X149976525Y-89223368D01*
X149860000Y-89397760D01*
X149743475Y-89223368D01*
X149536632Y-89016525D01*
X149293411Y-88854010D01*
X149023158Y-88742068D01*
X148736260Y-88685000D01*
X148443740Y-88685000D01*
X148156842Y-88742068D01*
X147886589Y-88854010D01*
X147643368Y-89016525D01*
X147436525Y-89223368D01*
X147274010Y-89466589D01*
X147162068Y-89736842D01*
X147105000Y-90023740D01*
X118237000Y-90023740D01*
X118237000Y-87773407D01*
X118285820Y-87799502D01*
X118405518Y-87835812D01*
X118530000Y-87848072D01*
X120230000Y-87848072D01*
X120354482Y-87835812D01*
X120474180Y-87799502D01*
X120584494Y-87740537D01*
X120681185Y-87661185D01*
X120760537Y-87564494D01*
X120819502Y-87454180D01*
X120855812Y-87334482D01*
X120868072Y-87210000D01*
X122971928Y-87210000D01*
X122984188Y-87334482D01*
X123020498Y-87454180D01*
X123079463Y-87564494D01*
X123158815Y-87661185D01*
X123255506Y-87740537D01*
X123365820Y-87799502D01*
X123485518Y-87835812D01*
X123610000Y-87848072D01*
X124174250Y-87845000D01*
X124333000Y-87686250D01*
X124333000Y-86487000D01*
X124587000Y-86487000D01*
X124587000Y-87686250D01*
X124745750Y-87845000D01*
X125310000Y-87848072D01*
X125434482Y-87835812D01*
X125554180Y-87799502D01*
X125664494Y-87740537D01*
X125761185Y-87661185D01*
X125840537Y-87564494D01*
X125899502Y-87454180D01*
X125935812Y-87334482D01*
X125948072Y-87210000D01*
X125945000Y-86645750D01*
X125786250Y-86487000D01*
X124587000Y-86487000D01*
X124333000Y-86487000D01*
X123133750Y-86487000D01*
X122975000Y-86645750D01*
X122971928Y-87210000D01*
X120868072Y-87210000D01*
X120868072Y-85510000D01*
X122971928Y-85510000D01*
X122975000Y-86074250D01*
X123133750Y-86233000D01*
X124333000Y-86233000D01*
X124333000Y-85033750D01*
X124587000Y-85033750D01*
X124587000Y-86233000D01*
X125786250Y-86233000D01*
X125945000Y-86074250D01*
X125948072Y-85510000D01*
X125935812Y-85385518D01*
X125899502Y-85265820D01*
X125840537Y-85155506D01*
X125761185Y-85058815D01*
X125664494Y-84979463D01*
X125554180Y-84920498D01*
X125434482Y-84884188D01*
X125310000Y-84871928D01*
X124745750Y-84875000D01*
X124587000Y-85033750D01*
X124333000Y-85033750D01*
X124174250Y-84875000D01*
X123610000Y-84871928D01*
X123485518Y-84884188D01*
X123365820Y-84920498D01*
X123255506Y-84979463D01*
X123158815Y-85058815D01*
X123079463Y-85155506D01*
X123020498Y-85265820D01*
X122984188Y-85385518D01*
X122971928Y-85510000D01*
X120868072Y-85510000D01*
X120855812Y-85385518D01*
X120819502Y-85265820D01*
X120760537Y-85155506D01*
X120681185Y-85058815D01*
X120584494Y-84979463D01*
X120474180Y-84920498D01*
X120354482Y-84884188D01*
X120230000Y-84871928D01*
X118530000Y-84871928D01*
X118405518Y-84884188D01*
X118285820Y-84920498D01*
X118237000Y-84946593D01*
X118237000Y-83947000D01*
X130155717Y-83947000D01*
X130099369Y-84031331D01*
G37*
X130099369Y-84031331D02*
X129930890Y-84438075D01*
X129845000Y-84869872D01*
X129845000Y-85310128D01*
X129930890Y-85741925D01*
X130099369Y-86148669D01*
X130343962Y-86514729D01*
X130655271Y-86826038D01*
X131021331Y-87070631D01*
X131428075Y-87239110D01*
X131859872Y-87325000D01*
X132300128Y-87325000D01*
X132731925Y-87239110D01*
X133138669Y-87070631D01*
X133504729Y-86826038D01*
X133816038Y-86514729D01*
X134060631Y-86148669D01*
X134229110Y-85741925D01*
X134246906Y-85652460D01*
X134307958Y-85799853D01*
X134471961Y-86045302D01*
X134680698Y-86254039D01*
X134926147Y-86418042D01*
X135198875Y-86531010D01*
X135488401Y-86588600D01*
X135783599Y-86588600D01*
X136073125Y-86531010D01*
X136345853Y-86418042D01*
X136591302Y-86254039D01*
X136800039Y-86045302D01*
X136906000Y-85886719D01*
X137011961Y-86045302D01*
X137220698Y-86254039D01*
X137466147Y-86418042D01*
X137738875Y-86531010D01*
X138028401Y-86588600D01*
X138323599Y-86588600D01*
X138613125Y-86531010D01*
X138885853Y-86418042D01*
X139131302Y-86254039D01*
X139340039Y-86045302D01*
X139446000Y-85886719D01*
X139551961Y-86045302D01*
X139760698Y-86254039D01*
X140006147Y-86418042D01*
X140278875Y-86531010D01*
X140568401Y-86588600D01*
X140863599Y-86588600D01*
X141153125Y-86531010D01*
X141425853Y-86418042D01*
X141671302Y-86254039D01*
X141880039Y-86045302D01*
X141987692Y-85884187D01*
X142149146Y-86100293D01*
X142367512Y-86296817D01*
X142620022Y-86446964D01*
X142896973Y-86544963D01*
X143129000Y-86424464D01*
X143129000Y-85217000D01*
X143109000Y-85217000D01*
X143109000Y-84963000D01*
X143129000Y-84963000D01*
X143129000Y-84943000D01*
X143383000Y-84943000D01*
X143383000Y-84963000D01*
X143403000Y-84963000D01*
X143403000Y-85217000D01*
X143383000Y-85217000D01*
X143383000Y-86424464D01*
X143615027Y-86544963D01*
X143891978Y-86446964D01*
X144144488Y-86296817D01*
X144362854Y-86100293D01*
X144524308Y-85884187D01*
X144631961Y-86045302D01*
X144840698Y-86254039D01*
X145086147Y-86418042D01*
X145358875Y-86531010D01*
X145648401Y-86588600D01*
X145943599Y-86588600D01*
X146233125Y-86531010D01*
X146505853Y-86418042D01*
X146751302Y-86254039D01*
X146960039Y-86045302D01*
X147066000Y-85886719D01*
X147171961Y-86045302D01*
X147380698Y-86254039D01*
X147626147Y-86418042D01*
X147898875Y-86531010D01*
X148188401Y-86588600D01*
X148483599Y-86588600D01*
X148773125Y-86531010D01*
X149045853Y-86418042D01*
X149291302Y-86254039D01*
X149500039Y-86045302D01*
X149606000Y-85886719D01*
X149711961Y-86045302D01*
X149920698Y-86254039D01*
X150166147Y-86418042D01*
X150438875Y-86531010D01*
X150728401Y-86588600D01*
X151023599Y-86588600D01*
X151313125Y-86531010D01*
X151585853Y-86418042D01*
X151831302Y-86254039D01*
X152040039Y-86045302D01*
X152146000Y-85886719D01*
X152251961Y-86045302D01*
X152460698Y-86254039D01*
X152706147Y-86418042D01*
X152978875Y-86531010D01*
X153268401Y-86588600D01*
X153563599Y-86588600D01*
X153853125Y-86531010D01*
X154125853Y-86418042D01*
X154371302Y-86254039D01*
X154580039Y-86045302D01*
X154686000Y-85886719D01*
X154791961Y-86045302D01*
X155000698Y-86254039D01*
X155246147Y-86418042D01*
X155518875Y-86531010D01*
X155808401Y-86588600D01*
X156103599Y-86588600D01*
X156393125Y-86531010D01*
X156665853Y-86418042D01*
X156911302Y-86254039D01*
X157120039Y-86045302D01*
X157226000Y-85886719D01*
X157331961Y-86045302D01*
X157540698Y-86254039D01*
X157786147Y-86418042D01*
X158058875Y-86531010D01*
X158348401Y-86588600D01*
X158643599Y-86588600D01*
X158933125Y-86531010D01*
X159205853Y-86418042D01*
X159451302Y-86254039D01*
X159660039Y-86045302D01*
X159824042Y-85799853D01*
X159937010Y-85527125D01*
X159994600Y-85237599D01*
X159994600Y-84942401D01*
X159937010Y-84652875D01*
X159824042Y-84380147D01*
X159660039Y-84134698D01*
X159472341Y-83947000D01*
X161583659Y-83947000D01*
X161395961Y-84134698D01*
X161231958Y-84380147D01*
X161118990Y-84652875D01*
X161061400Y-84942401D01*
X161061400Y-85237599D01*
X161118990Y-85527125D01*
X161231958Y-85799853D01*
X161395961Y-86045302D01*
X161604698Y-86254039D01*
X161850147Y-86418042D01*
X162122875Y-86531010D01*
X162412401Y-86588600D01*
X162707599Y-86588600D01*
X162997125Y-86531010D01*
X163269853Y-86418042D01*
X163515302Y-86254039D01*
X163724039Y-86045302D01*
X163830000Y-85886719D01*
X163935961Y-86045302D01*
X164144698Y-86254039D01*
X164390147Y-86418042D01*
X164662875Y-86531010D01*
X164952401Y-86588600D01*
X165247599Y-86588600D01*
X165537125Y-86531010D01*
X165809853Y-86418042D01*
X166055302Y-86254039D01*
X166264039Y-86045302D01*
X166370000Y-85886719D01*
X166475961Y-86045302D01*
X166684698Y-86254039D01*
X166930147Y-86418042D01*
X167202875Y-86531010D01*
X167492401Y-86588600D01*
X167787599Y-86588600D01*
X168077125Y-86531010D01*
X168349853Y-86418042D01*
X168595302Y-86254039D01*
X168804039Y-86045302D01*
X168910000Y-85886719D01*
X169015961Y-86045302D01*
X169224698Y-86254039D01*
X169470147Y-86418042D01*
X169742875Y-86531010D01*
X170032401Y-86588600D01*
X170327599Y-86588600D01*
X170617125Y-86531010D01*
X170889853Y-86418042D01*
X171135302Y-86254039D01*
X171344039Y-86045302D01*
X171450000Y-85886719D01*
X171555961Y-86045302D01*
X171764698Y-86254039D01*
X172010147Y-86418042D01*
X172282875Y-86531010D01*
X172572401Y-86588600D01*
X172867599Y-86588600D01*
X173157125Y-86531010D01*
X173429853Y-86418042D01*
X173675302Y-86254039D01*
X173884039Y-86045302D01*
X173990000Y-85886719D01*
X174095961Y-86045302D01*
X174304698Y-86254039D01*
X174550147Y-86418042D01*
X174822875Y-86531010D01*
X175112401Y-86588600D01*
X175407599Y-86588600D01*
X175697125Y-86531010D01*
X175969853Y-86418042D01*
X176215302Y-86254039D01*
X176424039Y-86045302D01*
X176530000Y-85886719D01*
X176635961Y-86045302D01*
X176844698Y-86254039D01*
X177090147Y-86418042D01*
X177362875Y-86531010D01*
X177652401Y-86588600D01*
X177947599Y-86588600D01*
X178237125Y-86531010D01*
X178509853Y-86418042D01*
X178755302Y-86254039D01*
X178964039Y-86045302D01*
X179070000Y-85886719D01*
X179175961Y-86045302D01*
X179384698Y-86254039D01*
X179630147Y-86418042D01*
X179902875Y-86531010D01*
X180192401Y-86588600D01*
X180487599Y-86588600D01*
X180777125Y-86531010D01*
X181049853Y-86418042D01*
X181295302Y-86254039D01*
X181504039Y-86045302D01*
X181668042Y-85799853D01*
X181781010Y-85527125D01*
X181838600Y-85237599D01*
X181838600Y-84942401D01*
X181781010Y-84652875D01*
X181668042Y-84380147D01*
X181504039Y-84134698D01*
X181316341Y-83947000D01*
X184443659Y-83947000D01*
X184255961Y-84134698D01*
X184091958Y-84380147D01*
X183978990Y-84652875D01*
X183921400Y-84942401D01*
X183921400Y-85237599D01*
X183978990Y-85527125D01*
X184091958Y-85799853D01*
X184255961Y-86045302D01*
X184464698Y-86254039D01*
X184710147Y-86418042D01*
X184982875Y-86531010D01*
X185272401Y-86588600D01*
X185567599Y-86588600D01*
X185857125Y-86531010D01*
X186129853Y-86418042D01*
X186375302Y-86254039D01*
X186584039Y-86045302D01*
X186690000Y-85886719D01*
X186795961Y-86045302D01*
X187004698Y-86254039D01*
X187250147Y-86418042D01*
X187522875Y-86531010D01*
X187812401Y-86588600D01*
X188107599Y-86588600D01*
X188397125Y-86531010D01*
X188669853Y-86418042D01*
X188915302Y-86254039D01*
X189124039Y-86045302D01*
X189230000Y-85886719D01*
X189335961Y-86045302D01*
X189544698Y-86254039D01*
X189790147Y-86418042D01*
X190062875Y-86531010D01*
X190352401Y-86588600D01*
X190647599Y-86588600D01*
X190937125Y-86531010D01*
X191209853Y-86418042D01*
X191455302Y-86254039D01*
X191664039Y-86045302D01*
X191770000Y-85886719D01*
X191875961Y-86045302D01*
X192084698Y-86254039D01*
X192330147Y-86418042D01*
X192602875Y-86531010D01*
X192892401Y-86588600D01*
X193187599Y-86588600D01*
X193477125Y-86531010D01*
X193749853Y-86418042D01*
X193995302Y-86254039D01*
X194204039Y-86045302D01*
X194310000Y-85886719D01*
X194415961Y-86045302D01*
X194624698Y-86254039D01*
X194870147Y-86418042D01*
X195142875Y-86531010D01*
X195432401Y-86588600D01*
X195727599Y-86588600D01*
X196017125Y-86531010D01*
X196289853Y-86418042D01*
X196535302Y-86254039D01*
X196744039Y-86045302D01*
X196850000Y-85886719D01*
X196955961Y-86045302D01*
X197164698Y-86254039D01*
X197410147Y-86418042D01*
X197682875Y-86531010D01*
X197972401Y-86588600D01*
X198267599Y-86588600D01*
X198557125Y-86531010D01*
X198829853Y-86418042D01*
X199075302Y-86254039D01*
X199284039Y-86045302D01*
X199390000Y-85886719D01*
X199495961Y-86045302D01*
X199704698Y-86254039D01*
X199950147Y-86418042D01*
X200222875Y-86531010D01*
X200512401Y-86588600D01*
X200807599Y-86588600D01*
X201097125Y-86531010D01*
X201369853Y-86418042D01*
X201615302Y-86254039D01*
X201824039Y-86045302D01*
X201930000Y-85886719D01*
X202035961Y-86045302D01*
X202244698Y-86254039D01*
X202490147Y-86418042D01*
X202762875Y-86531010D01*
X203052401Y-86588600D01*
X203347599Y-86588600D01*
X203637125Y-86531010D01*
X203909853Y-86418042D01*
X204155302Y-86254039D01*
X204364039Y-86045302D01*
X204528042Y-85799853D01*
X204641010Y-85527125D01*
X204698600Y-85237599D01*
X204698600Y-84942401D01*
X204641010Y-84652875D01*
X204528042Y-84380147D01*
X204364039Y-84134698D01*
X204176341Y-83947000D01*
X205085717Y-83947000D01*
X205029369Y-84031331D01*
X204860890Y-84438075D01*
X204775000Y-84869872D01*
X204775000Y-85310128D01*
X204860890Y-85741925D01*
X205029369Y-86148669D01*
X205273962Y-86514729D01*
X205585271Y-86826038D01*
X205951331Y-87070631D01*
X206358075Y-87239110D01*
X206789872Y-87325000D01*
X207230128Y-87325000D01*
X207661925Y-87239110D01*
X208068669Y-87070631D01*
X208434729Y-86826038D01*
X208746038Y-86514729D01*
X208990631Y-86148669D01*
X209159110Y-85741925D01*
X209245000Y-85310128D01*
X209245000Y-84869872D01*
X209159110Y-84438075D01*
X208990631Y-84031331D01*
X208934283Y-83947000D01*
X209843659Y-83947000D01*
X209655961Y-84134698D01*
X209491958Y-84380147D01*
X209378990Y-84652875D01*
X209321400Y-84942401D01*
X209321400Y-85237599D01*
X209378990Y-85527125D01*
X209491958Y-85799853D01*
X209655961Y-86045302D01*
X209864698Y-86254039D01*
X210023281Y-86360000D01*
X209864698Y-86465961D01*
X209655961Y-86674698D01*
X209491958Y-86920147D01*
X209378990Y-87192875D01*
X209321400Y-87482401D01*
X209321400Y-87777599D01*
X209378990Y-88067125D01*
X209491958Y-88339853D01*
X209655961Y-88585302D01*
X209864698Y-88794039D01*
X210023281Y-88900000D01*
X209864698Y-89005961D01*
X209655961Y-89214698D01*
X209491958Y-89460147D01*
X209378990Y-89732875D01*
X209321400Y-90022401D01*
X209321400Y-90317599D01*
X209378990Y-90607125D01*
X209491958Y-90879853D01*
X209655961Y-91125302D01*
X209864698Y-91334039D01*
X210023281Y-91440000D01*
X209864698Y-91545961D01*
X209655961Y-91754698D01*
X209491958Y-92000147D01*
X209378990Y-92272875D01*
X209321400Y-92562401D01*
X209321400Y-92857599D01*
X209378990Y-93147125D01*
X209491958Y-93419853D01*
X209655961Y-93665302D01*
X209864698Y-93874039D01*
X210023281Y-93980000D01*
X209864698Y-94085961D01*
X209655961Y-94294698D01*
X209491958Y-94540147D01*
X209378990Y-94812875D01*
X209321400Y-95102401D01*
X209321400Y-95397599D01*
X209378990Y-95687125D01*
X209409176Y-95760000D01*
X205777322Y-95760000D01*
X205739999Y-95756324D01*
X205702676Y-95760000D01*
X205702667Y-95760000D01*
X205591014Y-95770997D01*
X205447753Y-95814454D01*
X205315724Y-95885026D01*
X205199999Y-95979999D01*
X205176201Y-96008997D01*
X203959003Y-97226196D01*
X203929999Y-97249999D01*
X203889175Y-97299744D01*
X203835026Y-97365724D01*
X203769613Y-97488102D01*
X203764454Y-97497754D01*
X203720997Y-97641015D01*
X203710000Y-97752668D01*
X203710000Y-97752678D01*
X203706324Y-97790000D01*
X203710000Y-97827323D01*
X203710000Y-98155988D01*
X203690256Y-98142795D01*
X203501898Y-98064774D01*
X203301939Y-98025000D01*
X203098061Y-98025000D01*
X202898102Y-98064774D01*
X202709744Y-98142795D01*
X202565000Y-98239510D01*
X202420256Y-98142795D01*
X202231898Y-98064774D01*
X202031939Y-98025000D01*
X201828061Y-98025000D01*
X201628102Y-98064774D01*
X201439744Y-98142795D01*
X201295000Y-98239510D01*
X201150256Y-98142795D01*
X200961898Y-98064774D01*
X200761939Y-98025000D01*
X200558061Y-98025000D01*
X200358102Y-98064774D01*
X200169744Y-98142795D01*
X200025000Y-98239510D01*
X199880256Y-98142795D01*
X199691898Y-98064774D01*
X199491939Y-98025000D01*
X199288061Y-98025000D01*
X199088102Y-98064774D01*
X198899744Y-98142795D01*
X198755000Y-98239510D01*
X198610256Y-98142795D01*
X198421898Y-98064774D01*
X198221939Y-98025000D01*
X198018061Y-98025000D01*
X197818102Y-98064774D01*
X197629744Y-98142795D01*
X197485000Y-98239510D01*
X197340256Y-98142795D01*
X197151898Y-98064774D01*
X196951939Y-98025000D01*
X196748061Y-98025000D01*
X196548102Y-98064774D01*
X196359744Y-98142795D01*
X196190226Y-98256063D01*
X196046063Y-98400226D01*
X195932795Y-98569744D01*
X195854774Y-98758102D01*
X195815000Y-98958061D01*
X195815000Y-99161939D01*
X195854774Y-99361898D01*
X195932795Y-99550256D01*
X196046063Y-99719774D01*
X196090000Y-99763711D01*
X196090000Y-108516289D01*
X196046063Y-108560226D01*
X195932795Y-108729744D01*
X195854774Y-108918102D01*
X195815000Y-109118061D01*
X195815000Y-109321939D01*
X195848039Y-109488039D01*
X195681939Y-109455000D01*
X195478061Y-109455000D01*
X195278102Y-109494774D01*
X195089744Y-109572795D01*
X194920226Y-109686063D01*
X194776063Y-109830226D01*
X194662795Y-109999744D01*
X194584774Y-110188102D01*
X194545000Y-110388061D01*
X194545000Y-110591939D01*
X194584774Y-110791898D01*
X194662795Y-110980256D01*
X194776063Y-111149774D01*
X194820001Y-111193712D01*
X194820001Y-113462962D01*
X193999931Y-112642893D01*
X193992500Y-112624953D01*
X193992500Y-99106784D01*
X193997108Y-99060000D01*
X193992500Y-99013215D01*
X193992500Y-95296784D01*
X193997108Y-95249999D01*
X193978717Y-95063277D01*
X193952007Y-94975226D01*
X193924252Y-94883731D01*
X193835806Y-94718259D01*
X193716778Y-94573222D01*
X193680431Y-94543393D01*
X191452500Y-92315462D01*
X191452500Y-89305047D01*
X191495226Y-89201898D01*
X191535000Y-89001939D01*
X191535000Y-88798061D01*
X191495226Y-88598102D01*
X191417205Y-88409744D01*
X191303937Y-88240226D01*
X191159774Y-88096063D01*
X190990256Y-87982795D01*
X190801898Y-87904774D01*
X190601939Y-87865000D01*
X190398061Y-87865000D01*
X190198102Y-87904774D01*
X190009744Y-87982795D01*
X189840226Y-88096063D01*
X189696063Y-88240226D01*
X189582795Y-88409744D01*
X189504774Y-88598102D01*
X189465000Y-88798061D01*
X189465000Y-89001939D01*
X189504774Y-89201898D01*
X189547501Y-89305049D01*
X189547500Y-92663215D01*
X189542892Y-92710000D01*
X189547500Y-92756784D01*
X189561283Y-92896722D01*
X189615748Y-93076268D01*
X189704194Y-93241741D01*
X189823222Y-93386778D01*
X189859569Y-93416607D01*
X192087501Y-95644539D01*
X192087500Y-98107500D01*
X190905047Y-98107500D01*
X190801898Y-98064774D01*
X190601939Y-98025000D01*
X190398061Y-98025000D01*
X190198102Y-98064774D01*
X190009744Y-98142795D01*
X189840226Y-98256063D01*
X189696063Y-98400226D01*
X189582795Y-98569744D01*
X189504774Y-98758102D01*
X189465000Y-98958061D01*
X189465000Y-99161939D01*
X189504774Y-99361898D01*
X189582795Y-99550256D01*
X189696063Y-99719774D01*
X189840226Y-99863937D01*
X190009744Y-99977205D01*
X190198102Y-100055226D01*
X190398061Y-100095000D01*
X190601939Y-100095000D01*
X190801898Y-100055226D01*
X190905047Y-100012500D01*
X192087500Y-100012500D01*
X192087501Y-112624951D01*
X192044774Y-112728102D01*
X192005000Y-112928061D01*
X192005000Y-113131939D01*
X192044774Y-113331898D01*
X192122795Y-113520256D01*
X192236063Y-113689774D01*
X192380226Y-113833937D01*
X192549744Y-113947205D01*
X192652893Y-113989931D01*
X193357500Y-114694539D01*
X193357501Y-116434951D01*
X193314774Y-116538102D01*
X193275000Y-116738061D01*
X193275000Y-116941939D01*
X193314774Y-117141898D01*
X193392795Y-117330256D01*
X193506063Y-117499774D01*
X193650226Y-117643937D01*
X193819744Y-117757205D01*
X194008102Y-117835226D01*
X194208061Y-117875000D01*
X194411939Y-117875000D01*
X194611898Y-117835226D01*
X194800256Y-117757205D01*
X194820000Y-117744012D01*
X194820000Y-122875198D01*
X194270199Y-123425000D01*
X194208061Y-123425000D01*
X194008102Y-123464774D01*
X193819744Y-123542795D01*
X193650226Y-123656063D01*
X193506063Y-123800226D01*
X193392795Y-123969744D01*
X193314774Y-124158102D01*
X193275000Y-124358061D01*
X193275000Y-124561939D01*
X193314774Y-124761898D01*
X193392795Y-124950256D01*
X193405987Y-124970000D01*
X190814802Y-124970000D01*
X189990000Y-124145199D01*
X189990000Y-124094013D01*
X190009744Y-124107205D01*
X190198102Y-124185226D01*
X190398061Y-124225000D01*
X190601939Y-124225000D01*
X190801898Y-124185226D01*
X190990256Y-124107205D01*
X191159774Y-123993937D01*
X191303937Y-123849774D01*
X191417205Y-123680256D01*
X191495226Y-123491898D01*
X191535000Y-123291939D01*
X191535000Y-123088061D01*
X191495226Y-122888102D01*
X191417205Y-122699744D01*
X191303937Y-122530226D01*
X191260000Y-122486289D01*
X191260000Y-111193711D01*
X191303937Y-111149774D01*
X191417205Y-110980256D01*
X191495226Y-110791898D01*
X191535000Y-110591939D01*
X191535000Y-110388061D01*
X191495226Y-110188102D01*
X191417205Y-109999744D01*
X191303937Y-109830226D01*
X191260000Y-109786289D01*
X191260000Y-104843711D01*
X191303937Y-104799774D01*
X191417205Y-104630256D01*
X191495226Y-104441898D01*
X191535000Y-104241939D01*
X191535000Y-104038061D01*
X191495226Y-103838102D01*
X191417205Y-103649744D01*
X191303937Y-103480226D01*
X191159774Y-103336063D01*
X190990256Y-103222795D01*
X190801898Y-103144774D01*
X190601939Y-103105000D01*
X190398061Y-103105000D01*
X190198102Y-103144774D01*
X190009744Y-103222795D01*
X189990016Y-103235977D01*
X189990016Y-102303695D01*
X190033937Y-102259774D01*
X190147205Y-102090256D01*
X190225226Y-101901898D01*
X190265000Y-101701939D01*
X190265000Y-101498061D01*
X190225226Y-101298102D01*
X190147205Y-101109744D01*
X190033937Y-100940226D01*
X189889774Y-100796063D01*
X189720256Y-100682795D01*
X189531898Y-100604774D01*
X189331939Y-100565000D01*
X189128061Y-100565000D01*
X188961961Y-100598039D01*
X188995000Y-100431939D01*
X188995000Y-100228061D01*
X188955226Y-100028102D01*
X188877205Y-99839744D01*
X188763937Y-99670226D01*
X188619774Y-99526063D01*
X188489233Y-99438838D01*
X188500001Y-99430001D01*
X188594974Y-99314276D01*
X188665546Y-99182247D01*
X188709003Y-99038986D01*
X188720000Y-98927333D01*
X188720000Y-98927325D01*
X188723676Y-98890000D01*
X188720000Y-98852675D01*
X188720000Y-94683711D01*
X188763937Y-94639774D01*
X188877205Y-94470256D01*
X188955226Y-94281898D01*
X188995000Y-94081939D01*
X188995000Y-93878061D01*
X188955226Y-93678102D01*
X188877205Y-93489744D01*
X188763937Y-93320226D01*
X188619774Y-93176063D01*
X188450256Y-93062795D01*
X188261898Y-92984774D01*
X188061939Y-92945000D01*
X187858061Y-92945000D01*
X187658102Y-92984774D01*
X187469744Y-93062795D01*
X187300226Y-93176063D01*
X187156063Y-93320226D01*
X187042795Y-93489744D01*
X186964774Y-93678102D01*
X186925000Y-93878061D01*
X186925000Y-94081939D01*
X186964774Y-94281898D01*
X187042795Y-94470256D01*
X187156063Y-94639774D01*
X187200001Y-94683712D01*
X187200000Y-98575198D01*
X184910000Y-100865198D01*
X184910000Y-97223711D01*
X184953937Y-97179774D01*
X185067205Y-97010256D01*
X185145226Y-96821898D01*
X185185000Y-96621939D01*
X185185000Y-96418061D01*
X185145226Y-96218102D01*
X185067205Y-96029744D01*
X184953937Y-95860226D01*
X184809774Y-95716063D01*
X184640256Y-95602795D01*
X184451898Y-95524774D01*
X184251939Y-95485000D01*
X184048061Y-95485000D01*
X183848102Y-95524774D01*
X183659744Y-95602795D01*
X183640000Y-95615987D01*
X183640000Y-95564801D01*
X184189802Y-95015000D01*
X184251939Y-95015000D01*
X184451898Y-94975226D01*
X184640256Y-94897205D01*
X184809774Y-94783937D01*
X184953937Y-94639774D01*
X185067205Y-94470256D01*
X185145226Y-94281898D01*
X185185000Y-94081939D01*
X185185000Y-93878061D01*
X185145226Y-93678102D01*
X185067205Y-93489744D01*
X184953937Y-93320226D01*
X184809774Y-93176063D01*
X184640256Y-93062795D01*
X184451898Y-92984774D01*
X184251939Y-92945000D01*
X184048061Y-92945000D01*
X183848102Y-92984774D01*
X183659744Y-93062795D01*
X183490226Y-93176063D01*
X183346063Y-93320226D01*
X183232795Y-93489744D01*
X183154774Y-93678102D01*
X183115000Y-93878061D01*
X183115000Y-93940198D01*
X182369003Y-94686196D01*
X182339999Y-94709999D01*
X182284871Y-94777174D01*
X182245026Y-94825724D01*
X182176203Y-94954482D01*
X182174454Y-94957754D01*
X182130997Y-95101015D01*
X182120000Y-95212668D01*
X182120000Y-95212678D01*
X182116324Y-95250000D01*
X182120000Y-95287323D01*
X182120000Y-95615988D01*
X182100256Y-95602795D01*
X181911898Y-95524774D01*
X181711939Y-95485000D01*
X181508061Y-95485000D01*
X181308102Y-95524774D01*
X181119744Y-95602795D01*
X180950226Y-95716063D01*
X180806063Y-95860226D01*
X180692795Y-96029744D01*
X180614774Y-96218102D01*
X180575000Y-96418061D01*
X180575000Y-96621939D01*
X180614774Y-96821898D01*
X180692795Y-97010256D01*
X180806063Y-97179774D01*
X180850001Y-97223712D01*
X180850001Y-97475197D01*
X177760199Y-100565000D01*
X177698061Y-100565000D01*
X177498102Y-100604774D01*
X177309744Y-100682795D01*
X177140226Y-100796063D01*
X176996063Y-100940226D01*
X176882795Y-101109744D01*
X176804774Y-101298102D01*
X176765000Y-101498061D01*
X176765000Y-101560198D01*
X176020000Y-102305199D01*
X176020000Y-99763711D01*
X176063937Y-99719774D01*
X176177205Y-99550256D01*
X176255226Y-99361898D01*
X176295000Y-99161939D01*
X176295000Y-98958061D01*
X176255226Y-98758102D01*
X176177205Y-98569744D01*
X176063937Y-98400226D01*
X175919774Y-98256063D01*
X175750256Y-98142795D01*
X175561898Y-98064774D01*
X175361939Y-98025000D01*
X175158061Y-98025000D01*
X174958102Y-98064774D01*
X174769744Y-98142795D01*
X174600226Y-98256063D01*
X174456063Y-98400226D01*
X174342795Y-98569744D01*
X174264774Y-98758102D01*
X174225000Y-98958061D01*
X174225000Y-99161939D01*
X174264774Y-99361898D01*
X174342795Y-99550256D01*
X174456063Y-99719774D01*
X174500001Y-99763712D01*
X174500000Y-104505988D01*
X174480256Y-104492795D01*
X174291898Y-104414774D01*
X174091939Y-104375000D01*
X173888061Y-104375000D01*
X173688102Y-104414774D01*
X173499744Y-104492795D01*
X173480000Y-104505987D01*
X173480000Y-102303711D01*
X173523937Y-102259774D01*
X173637205Y-102090256D01*
X173715226Y-101901898D01*
X173755000Y-101701939D01*
X173755000Y-101498061D01*
X173715226Y-101298102D01*
X173637205Y-101109744D01*
X173540490Y-100965000D01*
X173637205Y-100820256D01*
X173679931Y-100717107D01*
X173692931Y-100704107D01*
X173729278Y-100674278D01*
X173848306Y-100529241D01*
X173936752Y-100363769D01*
X173991217Y-100184223D01*
X174005000Y-100044285D01*
X174009608Y-99997501D01*
X174005000Y-99950716D01*
X174005000Y-96592547D01*
X174047726Y-96489398D01*
X174087500Y-96289439D01*
X174087500Y-96085561D01*
X174047726Y-95885602D01*
X173969705Y-95697244D01*
X173856437Y-95527726D01*
X173712274Y-95383563D01*
X173542756Y-95270295D01*
X173354398Y-95192274D01*
X173154439Y-95152500D01*
X172950561Y-95152500D01*
X172750602Y-95192274D01*
X172562244Y-95270295D01*
X172392726Y-95383563D01*
X172248563Y-95527726D01*
X172135295Y-95697244D01*
X172057274Y-95885602D01*
X172017500Y-96085561D01*
X172017500Y-96289439D01*
X172057274Y-96489398D01*
X172100000Y-96592547D01*
X172100001Y-99499486D01*
X172060226Y-99526063D01*
X171916063Y-99670226D01*
X171802795Y-99839744D01*
X171724774Y-100028102D01*
X171685000Y-100228061D01*
X171685000Y-100431939D01*
X171724774Y-100631898D01*
X171802795Y-100820256D01*
X171815987Y-100840000D01*
X166934801Y-100840000D01*
X175574802Y-92200000D01*
X185986289Y-92200000D01*
X186030226Y-92243937D01*
X186199744Y-92357205D01*
X186388102Y-92435226D01*
X186588061Y-92475000D01*
X186791939Y-92475000D01*
X186991898Y-92435226D01*
X187180256Y-92357205D01*
X187349774Y-92243937D01*
X187493937Y-92099774D01*
X187607205Y-91930256D01*
X187685226Y-91741898D01*
X187725000Y-91541939D01*
X187725000Y-91338061D01*
X187685226Y-91138102D01*
X187607205Y-90949744D01*
X187493937Y-90780226D01*
X187349774Y-90636063D01*
X187180256Y-90522795D01*
X186991898Y-90444774D01*
X186791939Y-90405000D01*
X186588061Y-90405000D01*
X186388102Y-90444774D01*
X186199744Y-90522795D01*
X186030226Y-90636063D01*
X185986289Y-90680000D01*
X175297333Y-90680000D01*
X175260000Y-90676323D01*
X175222667Y-90680000D01*
X175111014Y-90690997D01*
X174967753Y-90734454D01*
X174835724Y-90805026D01*
X174719999Y-90899999D01*
X174696201Y-90928997D01*
X166055199Y-99570000D01*
X163263711Y-99570000D01*
X163219774Y-99526063D01*
X163050256Y-99412795D01*
X162861898Y-99334774D01*
X162661939Y-99295000D01*
X162458061Y-99295000D01*
X162258102Y-99334774D01*
X162069744Y-99412795D01*
X161900226Y-99526063D01*
X161756063Y-99670226D01*
X161642795Y-99839744D01*
X161564774Y-100028102D01*
X161525000Y-100228061D01*
X161525000Y-100431939D01*
X161564774Y-100631898D01*
X161642795Y-100820256D01*
X161739510Y-100965000D01*
X161642795Y-101109744D01*
X161564774Y-101298102D01*
X161525000Y-101498061D01*
X161525000Y-101701939D01*
X161564774Y-101901898D01*
X161642795Y-102090256D01*
X161756063Y-102259774D01*
X161900226Y-102403937D01*
X162069744Y-102517205D01*
X162258102Y-102595226D01*
X162458061Y-102635000D01*
X162661939Y-102635000D01*
X162861898Y-102595226D01*
X163050256Y-102517205D01*
X163219774Y-102403937D01*
X163263711Y-102360000D01*
X171960000Y-102360000D01*
X171960001Y-104650000D01*
X163263711Y-104650000D01*
X163219774Y-104606063D01*
X163050256Y-104492795D01*
X162861898Y-104414774D01*
X162661939Y-104375000D01*
X162458061Y-104375000D01*
X162258102Y-104414774D01*
X162069744Y-104492795D01*
X161900226Y-104606063D01*
X161756063Y-104750226D01*
X161642795Y-104919744D01*
X161564774Y-105108102D01*
X161525000Y-105308061D01*
X161525000Y-105511939D01*
X161564774Y-105711898D01*
X161642795Y-105900256D01*
X161756063Y-106069774D01*
X161900226Y-106213937D01*
X162069744Y-106327205D01*
X162258102Y-106405226D01*
X162458061Y-106445000D01*
X162661939Y-106445000D01*
X162861898Y-106405226D01*
X163050256Y-106327205D01*
X163219774Y-106213937D01*
X163263711Y-106170000D01*
X171960000Y-106170000D01*
X171960001Y-118038017D01*
X171868574Y-118000147D01*
X171591335Y-117945000D01*
X171308665Y-117945000D01*
X171031426Y-118000147D01*
X170770273Y-118108320D01*
X170535241Y-118265363D01*
X170335363Y-118465241D01*
X170178320Y-118700273D01*
X170070147Y-118961426D01*
X170015000Y-119238665D01*
X170015000Y-119521335D01*
X170070147Y-119798574D01*
X170178320Y-120059727D01*
X170335363Y-120294759D01*
X170535241Y-120494637D01*
X170767759Y-120650000D01*
X170535241Y-120805363D01*
X170335363Y-121005241D01*
X170178320Y-121240273D01*
X170070147Y-121501426D01*
X170015000Y-121778665D01*
X170015000Y-122061335D01*
X170070147Y-122338574D01*
X170178320Y-122599727D01*
X170335363Y-122834759D01*
X170535241Y-123034637D01*
X170767759Y-123190000D01*
X170535241Y-123345363D01*
X170335363Y-123545241D01*
X170178320Y-123780273D01*
X170070147Y-124041426D01*
X170015000Y-124318665D01*
X170015000Y-124601335D01*
X170070147Y-124878574D01*
X170178320Y-125139727D01*
X170335363Y-125374759D01*
X170535241Y-125574637D01*
X170767759Y-125730000D01*
X170535241Y-125885363D01*
X170335363Y-126085241D01*
X170178320Y-126320273D01*
X170070147Y-126581426D01*
X170015000Y-126858665D01*
X170015000Y-127141335D01*
X170070147Y-127418574D01*
X170178320Y-127679727D01*
X170335363Y-127914759D01*
X170535241Y-128114637D01*
X170770273Y-128271680D01*
X171031426Y-128379853D01*
X171308665Y-128435000D01*
X171591335Y-128435000D01*
X171868574Y-128379853D01*
X172129727Y-128271680D01*
X172364759Y-128114637D01*
X172564637Y-127914759D01*
X172668043Y-127760000D01*
X172682667Y-127760000D01*
X172720000Y-127763677D01*
X172868986Y-127749003D01*
X173012247Y-127705546D01*
X173144276Y-127634974D01*
X173260001Y-127540001D01*
X173354974Y-127424276D01*
X173425546Y-127292247D01*
X173469003Y-127148986D01*
X173480000Y-127037333D01*
X173483677Y-127000000D01*
X173480000Y-126962667D01*
X173480000Y-106314013D01*
X173499744Y-106327205D01*
X173680010Y-106401874D01*
X173680011Y-114712668D01*
X173680010Y-114712678D01*
X173680011Y-117252678D01*
X173676334Y-117290010D01*
X173691008Y-117438995D01*
X173734464Y-117582256D01*
X173805036Y-117714286D01*
X173876211Y-117801012D01*
X173900010Y-117830011D01*
X173929008Y-117853809D01*
X174225000Y-118149801D01*
X174225000Y-118211939D01*
X174264774Y-118411898D01*
X174342795Y-118600256D01*
X174456063Y-118769774D01*
X174600226Y-118913937D01*
X174769744Y-119027205D01*
X174958102Y-119105226D01*
X175158061Y-119145000D01*
X175361939Y-119145000D01*
X175561898Y-119105226D01*
X175750256Y-119027205D01*
X175770001Y-119014012D01*
X175770001Y-127955197D01*
X175220199Y-128505000D01*
X175158061Y-128505000D01*
X174958102Y-128544774D01*
X174769744Y-128622795D01*
X174600226Y-128736063D01*
X174456063Y-128880226D01*
X174430562Y-128918391D01*
X174414276Y-128905026D01*
X174282247Y-128834454D01*
X174138986Y-128790997D01*
X174027333Y-128780000D01*
X174027322Y-128780000D01*
X173990000Y-128776324D01*
X173952678Y-128780000D01*
X170494802Y-128780000D01*
X169670000Y-127955199D01*
X169670000Y-114337322D01*
X169673676Y-114299999D01*
X169670000Y-114262676D01*
X169670000Y-114262667D01*
X169659003Y-114151014D01*
X169615546Y-114007753D01*
X169544974Y-113875724D01*
X169450001Y-113759999D01*
X169421004Y-113736202D01*
X168203803Y-112519002D01*
X168203799Y-112518997D01*
X167869077Y-112184275D01*
X166933804Y-111249003D01*
X166910001Y-111219999D01*
X166794276Y-111125026D01*
X166662247Y-111054454D01*
X166518986Y-111010997D01*
X166407333Y-111000000D01*
X166407322Y-111000000D01*
X166370000Y-110996324D01*
X166332678Y-111000000D01*
X165803711Y-111000000D01*
X165759774Y-110956063D01*
X165590256Y-110842795D01*
X165401898Y-110764774D01*
X165201939Y-110725000D01*
X164998061Y-110725000D01*
X164798102Y-110764774D01*
X164609744Y-110842795D01*
X164440226Y-110956063D01*
X164296063Y-111100226D01*
X164182795Y-111269744D01*
X164104774Y-111458102D01*
X164065000Y-111658061D01*
X164065000Y-111861939D01*
X164104774Y-112061898D01*
X164182795Y-112250256D01*
X164296063Y-112419774D01*
X164440226Y-112563937D01*
X164609744Y-112677205D01*
X164798102Y-112755226D01*
X164998061Y-112795000D01*
X165201939Y-112795000D01*
X165401898Y-112755226D01*
X165590256Y-112677205D01*
X165759774Y-112563937D01*
X165803711Y-112520000D01*
X166055199Y-112520000D01*
X166800198Y-113265000D01*
X167128997Y-113593799D01*
X167129002Y-113593803D01*
X168150000Y-114614802D01*
X168150000Y-116275198D01*
X161055000Y-109180199D01*
X161055000Y-109118061D01*
X161015226Y-108918102D01*
X160937205Y-108729744D01*
X160823937Y-108560226D01*
X160679774Y-108416063D01*
X160510256Y-108302795D01*
X160321898Y-108224774D01*
X160121939Y-108185000D01*
X159918061Y-108185000D01*
X159718102Y-108224774D01*
X159529744Y-108302795D01*
X159510000Y-108315987D01*
X159510000Y-107987322D01*
X159513676Y-107949999D01*
X159510000Y-107912676D01*
X159510000Y-107912667D01*
X159499003Y-107801014D01*
X159455546Y-107657753D01*
X159384974Y-107525724D01*
X159290001Y-107409999D01*
X159261004Y-107386202D01*
X158240000Y-106365199D01*
X158240000Y-106113711D01*
X158283937Y-106069774D01*
X158397205Y-105900256D01*
X158475226Y-105711898D01*
X158515000Y-105511939D01*
X158515000Y-105308061D01*
X158475226Y-105108102D01*
X158397205Y-104919744D01*
X158283937Y-104750226D01*
X158139774Y-104606063D01*
X158109180Y-104585621D01*
X160531008Y-102163795D01*
X160560001Y-102140001D01*
X160583795Y-102111008D01*
X160583799Y-102111004D01*
X160654973Y-102024277D01*
X160654974Y-102024276D01*
X160725546Y-101892247D01*
X160748046Y-101818072D01*
X160870000Y-101818072D01*
X160994482Y-101805812D01*
X161114180Y-101769502D01*
X161224494Y-101710537D01*
X161321185Y-101631185D01*
X161400537Y-101534494D01*
X161459502Y-101424180D01*
X161495812Y-101304482D01*
X161508072Y-101180000D01*
X161508072Y-99480000D01*
X161495812Y-99355518D01*
X161459502Y-99235820D01*
X161400537Y-99125506D01*
X161321185Y-99028815D01*
X161224494Y-98949463D01*
X161114180Y-98890498D01*
X160994482Y-98854188D01*
X160870000Y-98841928D01*
X159170000Y-98841928D01*
X159045518Y-98854188D01*
X158925820Y-98890498D01*
X158815506Y-98949463D01*
X158718815Y-99028815D01*
X158639463Y-99125506D01*
X158580498Y-99235820D01*
X158544188Y-99355518D01*
X158531928Y-99480000D01*
X158531928Y-101180000D01*
X158544188Y-101304482D01*
X158580498Y-101424180D01*
X158639463Y-101534494D01*
X158718815Y-101631185D01*
X158815506Y-101710537D01*
X158827988Y-101717209D01*
X157165199Y-103380000D01*
X152437322Y-103380000D01*
X152399999Y-103376324D01*
X152362676Y-103380000D01*
X152362667Y-103380000D01*
X152251014Y-103390997D01*
X152107753Y-103434454D01*
X151975724Y-103505026D01*
X151859999Y-103599999D01*
X151836201Y-103628997D01*
X151090199Y-104375000D01*
X151028061Y-104375000D01*
X150828102Y-104414774D01*
X150639744Y-104492795D01*
X150470226Y-104606063D01*
X150326063Y-104750226D01*
X150212795Y-104919744D01*
X150134774Y-105108102D01*
X150095000Y-105308061D01*
X150095000Y-105511939D01*
X150134774Y-105711898D01*
X150212795Y-105900256D01*
X150326063Y-106069774D01*
X150470226Y-106213937D01*
X150639744Y-106327205D01*
X150828102Y-106405226D01*
X151028061Y-106445000D01*
X151231939Y-106445000D01*
X151431898Y-106405226D01*
X151620256Y-106327205D01*
X151789774Y-106213937D01*
X151933937Y-106069774D01*
X152047205Y-105900256D01*
X152125226Y-105711898D01*
X152165000Y-105511939D01*
X152165000Y-105449801D01*
X152714802Y-104900000D01*
X156575987Y-104900000D01*
X156562795Y-104919744D01*
X156484774Y-105108102D01*
X156445000Y-105308061D01*
X156445000Y-105511939D01*
X156478039Y-105678039D01*
X156311939Y-105645000D01*
X156108061Y-105645000D01*
X155908102Y-105684774D01*
X155719744Y-105762795D01*
X155550226Y-105876063D01*
X155406063Y-106020226D01*
X155292795Y-106189744D01*
X155214774Y-106378102D01*
X155175000Y-106578061D01*
X155175000Y-106781939D01*
X155214774Y-106981898D01*
X155292795Y-107170256D01*
X155406063Y-107339774D01*
X155550226Y-107483937D01*
X155719744Y-107597205D01*
X155908102Y-107675226D01*
X156108061Y-107715000D01*
X156170199Y-107715000D01*
X156720001Y-108264803D01*
X156720001Y-109001928D01*
X156630000Y-109001928D01*
X156505518Y-109014188D01*
X156385820Y-109050498D01*
X156275506Y-109109463D01*
X156178815Y-109188815D01*
X156099463Y-109285506D01*
X156040498Y-109395820D01*
X156004188Y-109515518D01*
X155991928Y-109640000D01*
X155991928Y-111340000D01*
X156004188Y-111464482D01*
X156040498Y-111584180D01*
X156099463Y-111694494D01*
X156178815Y-111791185D01*
X156275506Y-111870537D01*
X156385820Y-111929502D01*
X156505518Y-111965812D01*
X156630000Y-111978072D01*
X157990000Y-111978072D01*
X157990001Y-119946288D01*
X157946063Y-119990226D01*
X157832795Y-120159744D01*
X157754774Y-120348102D01*
X157715000Y-120548061D01*
X157715000Y-120751939D01*
X157754774Y-120951898D01*
X157832795Y-121140256D01*
X157946063Y-121309774D01*
X158090226Y-121453937D01*
X158259744Y-121567205D01*
X158448102Y-121645226D01*
X158648061Y-121685000D01*
X158851939Y-121685000D01*
X159051898Y-121645226D01*
X159240256Y-121567205D01*
X159409774Y-121453937D01*
X159553937Y-121309774D01*
X159667205Y-121140256D01*
X159745226Y-120951898D01*
X159785000Y-120751939D01*
X159785000Y-120548061D01*
X159745226Y-120348102D01*
X159667205Y-120159744D01*
X159553937Y-119990226D01*
X159510000Y-119946289D01*
X159510000Y-119944801D01*
X160726200Y-121161002D01*
X160749999Y-121190001D01*
X160865724Y-121284974D01*
X160997753Y-121355546D01*
X161141014Y-121399003D01*
X161252667Y-121410000D01*
X161252676Y-121410000D01*
X161289999Y-121413676D01*
X161327322Y-121410000D01*
X162488017Y-121410000D01*
X162450147Y-121501426D01*
X162395000Y-121778665D01*
X162395000Y-122061335D01*
X162450147Y-122338574D01*
X162558320Y-122599727D01*
X162715363Y-122834759D01*
X162915241Y-123034637D01*
X163147759Y-123190000D01*
X162915241Y-123345363D01*
X162715363Y-123545241D01*
X162558320Y-123780273D01*
X162450147Y-124041426D01*
X162395000Y-124318665D01*
X162395000Y-124601335D01*
X162450147Y-124878574D01*
X162558320Y-125139727D01*
X162715363Y-125374759D01*
X162915241Y-125574637D01*
X163150273Y-125731680D01*
X163160865Y-125736067D01*
X162974869Y-125847615D01*
X162766481Y-126036586D01*
X162598963Y-126262580D01*
X162478754Y-126516913D01*
X162438096Y-126650961D01*
X162560085Y-126873000D01*
X163703000Y-126873000D01*
X163703000Y-126853000D01*
X163957000Y-126853000D01*
X163957000Y-126873000D01*
X163977000Y-126873000D01*
X163977000Y-127127000D01*
X163957000Y-127127000D01*
X163957000Y-128270624D01*
X164179040Y-128391909D01*
X164241501Y-128369542D01*
X164241501Y-130674179D01*
X164237825Y-130711501D01*
X164241501Y-130748823D01*
X164241501Y-130748833D01*
X164252498Y-130860486D01*
X164268106Y-130911939D01*
X164295955Y-131003747D01*
X164366527Y-131135777D01*
X164406372Y-131184327D01*
X164461500Y-131251502D01*
X164490504Y-131275305D01*
X166187224Y-132972026D01*
X166141400Y-133202401D01*
X166141400Y-133497599D01*
X166198990Y-133787125D01*
X166229176Y-133860000D01*
X163970824Y-133860000D01*
X164001010Y-133787125D01*
X164058600Y-133497599D01*
X164058600Y-133202401D01*
X164001010Y-132912875D01*
X163888042Y-132640147D01*
X163724039Y-132394698D01*
X163515302Y-132185961D01*
X163269853Y-132021958D01*
X162997125Y-131908990D01*
X162707599Y-131851400D01*
X162412401Y-131851400D01*
X162122875Y-131908990D01*
X161850147Y-132021958D01*
X161604698Y-132185961D01*
X161395961Y-132394698D01*
X161288308Y-132555813D01*
X161126854Y-132339707D01*
X160908488Y-132143183D01*
X160655978Y-131993036D01*
X160379027Y-131895037D01*
X160147000Y-132015536D01*
X160147000Y-133223000D01*
X160167000Y-133223000D01*
X160167000Y-133477000D01*
X160147000Y-133477000D01*
X160147000Y-133497000D01*
X159893000Y-133497000D01*
X159893000Y-133477000D01*
X157607000Y-133477000D01*
X157607000Y-133497000D01*
X157353000Y-133497000D01*
X157353000Y-133477000D01*
X157333000Y-133477000D01*
X157333000Y-133223000D01*
X157353000Y-133223000D01*
X157353000Y-132015536D01*
X157607000Y-132015536D01*
X157607000Y-133223000D01*
X159893000Y-133223000D01*
X159893000Y-132015536D01*
X159660973Y-131895037D01*
X159384022Y-131993036D01*
X159131512Y-132143183D01*
X158913146Y-132339707D01*
X158750000Y-132558078D01*
X158586854Y-132339707D01*
X158368488Y-132143183D01*
X158115978Y-131993036D01*
X157839027Y-131895037D01*
X157607000Y-132015536D01*
X157353000Y-132015536D01*
X157120973Y-131895037D01*
X156844022Y-131993036D01*
X156591512Y-132143183D01*
X156373146Y-132339707D01*
X156211692Y-132555813D01*
X156104039Y-132394698D01*
X155895302Y-132185961D01*
X155649853Y-132021958D01*
X155377125Y-131908990D01*
X155087599Y-131851400D01*
X154792401Y-131851400D01*
X154789096Y-131852058D01*
X151836607Y-128899569D01*
X151806778Y-128863222D01*
X151661741Y-128744194D01*
X151496269Y-128655748D01*
X151316723Y-128601283D01*
X151176785Y-128587500D01*
X151130000Y-128582892D01*
X151083215Y-128587500D01*
X145174539Y-128587500D01*
X144462500Y-127875462D01*
X144462500Y-127405047D01*
X144485699Y-127349039D01*
X162438096Y-127349039D01*
X162478754Y-127483087D01*
X162598963Y-127737420D01*
X162766481Y-127963414D01*
X162974869Y-128152385D01*
X163216119Y-128297070D01*
X163480960Y-128391909D01*
X163703000Y-128270624D01*
X163703000Y-127127000D01*
X162560085Y-127127000D01*
X162438096Y-127349039D01*
X144485699Y-127349039D01*
X144505226Y-127301898D01*
X144545000Y-127101939D01*
X144545000Y-126898061D01*
X144505226Y-126698102D01*
X144462500Y-126594953D01*
X144462500Y-124880000D01*
X157261928Y-124880000D01*
X157261928Y-126580000D01*
X157274188Y-126704482D01*
X157310498Y-126824180D01*
X157369463Y-126934494D01*
X157448815Y-127031185D01*
X157545506Y-127110537D01*
X157655820Y-127169502D01*
X157775518Y-127205812D01*
X157900000Y-127218072D01*
X159600000Y-127218072D01*
X159724482Y-127205812D01*
X159844180Y-127169502D01*
X159954494Y-127110537D01*
X160051185Y-127031185D01*
X160130537Y-126934494D01*
X160189502Y-126824180D01*
X160225812Y-126704482D01*
X160238072Y-126580000D01*
X160238072Y-124880000D01*
X160225812Y-124755518D01*
X160189502Y-124635820D01*
X160130537Y-124525506D01*
X160051185Y-124428815D01*
X159954494Y-124349463D01*
X159844180Y-124290498D01*
X159724482Y-124254188D01*
X159600000Y-124241928D01*
X157900000Y-124241928D01*
X157775518Y-124254188D01*
X157655820Y-124290498D01*
X157545506Y-124349463D01*
X157448815Y-124428815D01*
X157369463Y-124525506D01*
X157310498Y-124635820D01*
X157274188Y-124755518D01*
X157261928Y-124880000D01*
X144462500Y-124880000D01*
X144462500Y-124178763D01*
X144478102Y-124185226D01*
X144678061Y-124225000D01*
X144881939Y-124225000D01*
X145081898Y-124185226D01*
X145270256Y-124107205D01*
X145439774Y-123993937D01*
X145583937Y-123849774D01*
X145697205Y-123680256D01*
X145775226Y-123491898D01*
X145815000Y-123291939D01*
X145815000Y-123088061D01*
X145775226Y-122888102D01*
X145697205Y-122699744D01*
X145583937Y-122530226D01*
X145540000Y-122486289D01*
X145540000Y-120964801D01*
X147286009Y-119218794D01*
X147315002Y-119195000D01*
X147338796Y-119166007D01*
X147338800Y-119166003D01*
X147409974Y-119079276D01*
X147416478Y-119067108D01*
X147480547Y-118947246D01*
X147524004Y-118803985D01*
X147535001Y-118692332D01*
X147535001Y-118692323D01*
X147538677Y-118655000D01*
X147535001Y-118617677D01*
X147535001Y-106172326D01*
X147538677Y-106135001D01*
X147535001Y-106097676D01*
X147535001Y-106097668D01*
X147524004Y-105986015D01*
X147480547Y-105842754D01*
X147409975Y-105710725D01*
X147315002Y-105595000D01*
X147286005Y-105571203D01*
X144270000Y-102555199D01*
X144270000Y-99278072D01*
X144360000Y-99278072D01*
X144484482Y-99265812D01*
X144604180Y-99229502D01*
X144714494Y-99170537D01*
X144811185Y-99091185D01*
X144890537Y-98994494D01*
X144949502Y-98884180D01*
X144985812Y-98764482D01*
X144998072Y-98640000D01*
X144998072Y-96940000D01*
X144985812Y-96815518D01*
X144949502Y-96695820D01*
X144890537Y-96585506D01*
X144811185Y-96488815D01*
X144714494Y-96409463D01*
X144604180Y-96350498D01*
X144484482Y-96314188D01*
X144360000Y-96301928D01*
X142660000Y-96301928D01*
X142535518Y-96314188D01*
X142415820Y-96350498D01*
X142305506Y-96409463D01*
X142208815Y-96488815D01*
X142129463Y-96585506D01*
X142070498Y-96695820D01*
X142034188Y-96815518D01*
X142021928Y-96940000D01*
X142021928Y-98300000D01*
X140403711Y-98300000D01*
X140359774Y-98256063D01*
X140190256Y-98142795D01*
X140001898Y-98064774D01*
X139801939Y-98025000D01*
X139598061Y-98025000D01*
X139398102Y-98064774D01*
X139209744Y-98142795D01*
X139040226Y-98256063D01*
X138896063Y-98400226D01*
X138782795Y-98569744D01*
X138704774Y-98758102D01*
X138665000Y-98958061D01*
X138665000Y-99161939D01*
X138704774Y-99361898D01*
X138782795Y-99550256D01*
X138896063Y-99719774D01*
X139040226Y-99863937D01*
X139209744Y-99977205D01*
X139398102Y-100055226D01*
X139598061Y-100095000D01*
X139801939Y-100095000D01*
X140001898Y-100055226D01*
X140190256Y-99977205D01*
X140359774Y-99863937D01*
X140403711Y-99820000D01*
X141480000Y-99820000D01*
X141480001Y-104706288D01*
X141436063Y-104750226D01*
X141322795Y-104919744D01*
X141244774Y-105108102D01*
X141205000Y-105308061D01*
X141205000Y-105511939D01*
X141244774Y-105711898D01*
X141322795Y-105900256D01*
X141335987Y-105920000D01*
X138744802Y-105920000D01*
X135924999Y-103100198D01*
X135924999Y-102639802D01*
X135929801Y-102635000D01*
X135991939Y-102635000D01*
X136191898Y-102595226D01*
X136380256Y-102517205D01*
X136549774Y-102403937D01*
X136693937Y-102259774D01*
X136807205Y-102090256D01*
X136885226Y-101901898D01*
X136925000Y-101701939D01*
X136925000Y-101498061D01*
X136885226Y-101298102D01*
X136807205Y-101109744D01*
X136693937Y-100940226D01*
X136549774Y-100796063D01*
X136380256Y-100682795D01*
X136191898Y-100604774D01*
X135991939Y-100565000D01*
X135788061Y-100565000D01*
X135588102Y-100604774D01*
X135399744Y-100682795D01*
X135230226Y-100796063D01*
X135086063Y-100940226D01*
X134972795Y-101109744D01*
X134894774Y-101298102D01*
X134855000Y-101498061D01*
X134855000Y-101560199D01*
X134654001Y-101761198D01*
X134624998Y-101785000D01*
X134569870Y-101852175D01*
X134530025Y-101900725D01*
X134502193Y-101952795D01*
X134459453Y-102032755D01*
X134415996Y-102176016D01*
X134404999Y-102287669D01*
X134404999Y-102287679D01*
X134401323Y-102325001D01*
X134404999Y-102362324D01*
X134405000Y-103377667D01*
X134401323Y-103414999D01*
X134405000Y-103452332D01*
X134415997Y-103563985D01*
X134426922Y-103599999D01*
X134459453Y-103707245D01*
X134530025Y-103839275D01*
X134551323Y-103865226D01*
X134624999Y-103955000D01*
X134653997Y-103978798D01*
X135260820Y-104585621D01*
X135230226Y-104606063D01*
X135186289Y-104650000D01*
X127314802Y-104650000D01*
X126490000Y-103825199D01*
X126490000Y-102768061D01*
X129775000Y-102768061D01*
X129775000Y-102971939D01*
X129814774Y-103171898D01*
X129892795Y-103360256D01*
X130006063Y-103529774D01*
X130150226Y-103673937D01*
X130319744Y-103787205D01*
X130508102Y-103865226D01*
X130708061Y-103905000D01*
X130911939Y-103905000D01*
X131111898Y-103865226D01*
X131300256Y-103787205D01*
X131469774Y-103673937D01*
X131513711Y-103630000D01*
X132042678Y-103630000D01*
X132080000Y-103633676D01*
X132117322Y-103630000D01*
X132117333Y-103630000D01*
X132228986Y-103619003D01*
X132372247Y-103575546D01*
X132504276Y-103504974D01*
X132620001Y-103410001D01*
X132643804Y-103380997D01*
X133861003Y-102163799D01*
X133890001Y-102140001D01*
X133984974Y-102024276D01*
X134055546Y-101892247D01*
X134099003Y-101748986D01*
X134110000Y-101637333D01*
X134110000Y-101637324D01*
X134113676Y-101600001D01*
X134110000Y-101562678D01*
X134110000Y-98493711D01*
X134153937Y-98449774D01*
X134267205Y-98280256D01*
X134345226Y-98091898D01*
X134385000Y-97891939D01*
X134385000Y-97688061D01*
X134345226Y-97488102D01*
X134267205Y-97299744D01*
X134153937Y-97130226D01*
X134009774Y-96986063D01*
X133840256Y-96872795D01*
X133651898Y-96794774D01*
X133451939Y-96755000D01*
X133248061Y-96755000D01*
X133048102Y-96794774D01*
X132859744Y-96872795D01*
X132690226Y-96986063D01*
X132546063Y-97130226D01*
X132432795Y-97299744D01*
X132354774Y-97488102D01*
X132315000Y-97688061D01*
X132315000Y-97891939D01*
X132354774Y-98091898D01*
X132432795Y-98280256D01*
X132546063Y-98449774D01*
X132590000Y-98493711D01*
X132590001Y-101285197D01*
X131765199Y-102110000D01*
X131513711Y-102110000D01*
X131469774Y-102066063D01*
X131300256Y-101952795D01*
X131111898Y-101874774D01*
X130911939Y-101835000D01*
X130708061Y-101835000D01*
X130508102Y-101874774D01*
X130319744Y-101952795D01*
X130150226Y-102066063D01*
X130006063Y-102210226D01*
X129892795Y-102379744D01*
X129814774Y-102568102D01*
X129775000Y-102768061D01*
X126490000Y-102768061D01*
X126490000Y-99763711D01*
X126533937Y-99719774D01*
X126647205Y-99550256D01*
X126725226Y-99361898D01*
X126765000Y-99161939D01*
X126765000Y-98958061D01*
X126725226Y-98758102D01*
X126647205Y-98569744D01*
X126533937Y-98400226D01*
X126389774Y-98256063D01*
X126220256Y-98142795D01*
X126031898Y-98064774D01*
X125831939Y-98025000D01*
X125628061Y-98025000D01*
X125428102Y-98064774D01*
X125239744Y-98142795D01*
X125070226Y-98256063D01*
X124926063Y-98400226D01*
X124812795Y-98569744D01*
X124734774Y-98758102D01*
X124695000Y-98958061D01*
X124695000Y-99161939D01*
X124734774Y-99361898D01*
X124812795Y-99550256D01*
X124926063Y-99719774D01*
X124970000Y-99763711D01*
X124970001Y-104102667D01*
X124966324Y-104140000D01*
X124970001Y-104177333D01*
X124980998Y-104288986D01*
X124987679Y-104311010D01*
X125024454Y-104432246D01*
X125095026Y-104564276D01*
X125149175Y-104630256D01*
X125190000Y-104680001D01*
X125218998Y-104703799D01*
X126240001Y-105724803D01*
X126240000Y-113067332D01*
X126240001Y-113067342D01*
X126240000Y-118676289D01*
X126196063Y-118720226D01*
X126082795Y-118889744D01*
X126004774Y-119078102D01*
X125965000Y-119278061D01*
X125965000Y-119481939D01*
X126004774Y-119681898D01*
X126082795Y-119870256D01*
X126196063Y-120039774D01*
X126340226Y-120183937D01*
X126509744Y-120297205D01*
X126698102Y-120375226D01*
X126898061Y-120415000D01*
X127101939Y-120415000D01*
X127301898Y-120375226D01*
X127490256Y-120297205D01*
X127659774Y-120183937D01*
X127803937Y-120039774D01*
X127917205Y-119870256D01*
X127995226Y-119681898D01*
X128035000Y-119481939D01*
X128035000Y-119278061D01*
X127995226Y-119078102D01*
X127917205Y-118889744D01*
X127803937Y-118720226D01*
X127760000Y-118676289D01*
X127760000Y-116738061D01*
X128505000Y-116738061D01*
X128505000Y-116941939D01*
X128544774Y-117141898D01*
X128622795Y-117330256D01*
X128736063Y-117499774D01*
X128780000Y-117543711D01*
X128780001Y-123152667D01*
X128776324Y-123190000D01*
X128780001Y-123227332D01*
X128780001Y-123227333D01*
X128790998Y-123338986D01*
X128795856Y-123355000D01*
X128834454Y-123482246D01*
X128905026Y-123614276D01*
X128959175Y-123680256D01*
X129000000Y-123730001D01*
X129028998Y-123753799D01*
X131045000Y-125769803D01*
X131045000Y-125831939D01*
X131084774Y-126031898D01*
X131162795Y-126220256D01*
X131276063Y-126389774D01*
X131420226Y-126533937D01*
X131589744Y-126647205D01*
X131778102Y-126725226D01*
X131978061Y-126765000D01*
X132181939Y-126765000D01*
X132381898Y-126725226D01*
X132570256Y-126647205D01*
X132739774Y-126533937D01*
X132863711Y-126410000D01*
X134661928Y-126410000D01*
X134661928Y-127590000D01*
X134674188Y-127714482D01*
X134710498Y-127834180D01*
X134769463Y-127944494D01*
X134848815Y-128041185D01*
X134945506Y-128120537D01*
X135055820Y-128179502D01*
X135175518Y-128215812D01*
X135300000Y-128228072D01*
X136480000Y-128228072D01*
X136604482Y-128215812D01*
X136724180Y-128179502D01*
X136834494Y-128120537D01*
X136931185Y-128041185D01*
X137010537Y-127944494D01*
X137069502Y-127834180D01*
X137105812Y-127714482D01*
X137118072Y-127590000D01*
X137118072Y-126410000D01*
X137105812Y-126285518D01*
X137069502Y-126165820D01*
X137010537Y-126055506D01*
X136931185Y-125958815D01*
X136834494Y-125879463D01*
X136724180Y-125820498D01*
X136604482Y-125784188D01*
X136480000Y-125771928D01*
X135300000Y-125771928D01*
X135175518Y-125784188D01*
X135055820Y-125820498D01*
X134945506Y-125879463D01*
X134848815Y-125958815D01*
X134769463Y-126055506D01*
X134710498Y-126165820D01*
X134674188Y-126285518D01*
X134661928Y-126410000D01*
X132863711Y-126410000D01*
X132883937Y-126389774D01*
X132997205Y-126220256D01*
X133075226Y-126031898D01*
X133115000Y-125831939D01*
X133115000Y-125628061D01*
X133075226Y-125428102D01*
X133023245Y-125302609D01*
X135226996Y-125302609D01*
X135273085Y-125525175D01*
X135492745Y-125625062D01*
X135727670Y-125680176D01*
X135968833Y-125688399D01*
X136206967Y-125649417D01*
X136432920Y-125564725D01*
X136506915Y-125525175D01*
X136553004Y-125302609D01*
X135890000Y-124639605D01*
X135226996Y-125302609D01*
X133023245Y-125302609D01*
X132997205Y-125239744D01*
X132883937Y-125070226D01*
X132739774Y-124926063D01*
X132570256Y-124812795D01*
X132381898Y-124734774D01*
X132181939Y-124695000D01*
X132119803Y-124695000D01*
X131963636Y-124538833D01*
X134661601Y-124538833D01*
X134700583Y-124776967D01*
X134785275Y-125002920D01*
X134824825Y-125076915D01*
X135047391Y-125123004D01*
X135710395Y-124460000D01*
X136069605Y-124460000D01*
X136732609Y-125123004D01*
X136955175Y-125076915D01*
X137055062Y-124857255D01*
X137110176Y-124622330D01*
X137118399Y-124381167D01*
X137079417Y-124143033D01*
X136994725Y-123917080D01*
X136955175Y-123843085D01*
X136732609Y-123796996D01*
X136069605Y-124460000D01*
X135710395Y-124460000D01*
X135047391Y-123796996D01*
X134824825Y-123843085D01*
X134724938Y-124062745D01*
X134669824Y-124297670D01*
X134661601Y-124538833D01*
X131963636Y-124538833D01*
X131042193Y-123617391D01*
X135226996Y-123617391D01*
X135890000Y-124280395D01*
X136553004Y-123617391D01*
X136506915Y-123394825D01*
X136287255Y-123294938D01*
X136052330Y-123239824D01*
X135811167Y-123231601D01*
X135573033Y-123270583D01*
X135347080Y-123355275D01*
X135273085Y-123394825D01*
X135226996Y-123617391D01*
X131042193Y-123617391D01*
X130300000Y-122875199D01*
X130300000Y-119278061D01*
X131045000Y-119278061D01*
X131045000Y-119481939D01*
X131084774Y-119681898D01*
X131162795Y-119870256D01*
X131276063Y-120039774D01*
X131420226Y-120183937D01*
X131589744Y-120297205D01*
X131778102Y-120375226D01*
X131978061Y-120415000D01*
X132181939Y-120415000D01*
X132381898Y-120375226D01*
X132570256Y-120297205D01*
X132739774Y-120183937D01*
X132883937Y-120039774D01*
X132997205Y-119870256D01*
X133075226Y-119681898D01*
X133115000Y-119481939D01*
X133115000Y-119278061D01*
X133111278Y-119259348D01*
X134665000Y-119259348D01*
X134665000Y-119500652D01*
X134712076Y-119737319D01*
X134804419Y-119960255D01*
X134938481Y-120160892D01*
X135109108Y-120331519D01*
X135309745Y-120465581D01*
X135532681Y-120557924D01*
X135769348Y-120605000D01*
X136010652Y-120605000D01*
X136247319Y-120557924D01*
X136470255Y-120465581D01*
X136670892Y-120331519D01*
X136841519Y-120160892D01*
X136975581Y-119960255D01*
X137067924Y-119737319D01*
X137115000Y-119500652D01*
X137115000Y-119259348D01*
X137067924Y-119022681D01*
X136975581Y-118799745D01*
X136841519Y-118599108D01*
X136670892Y-118428481D01*
X136470255Y-118294419D01*
X136247319Y-118202076D01*
X136010652Y-118155000D01*
X135769348Y-118155000D01*
X135532681Y-118202076D01*
X135309745Y-118294419D01*
X135109108Y-118428481D01*
X134938481Y-118599108D01*
X134804419Y-118799745D01*
X134712076Y-119022681D01*
X134665000Y-119259348D01*
X133111278Y-119259348D01*
X133075226Y-119078102D01*
X132997205Y-118889744D01*
X132883937Y-118720226D01*
X132739774Y-118576063D01*
X132570256Y-118462795D01*
X132381898Y-118384774D01*
X132181939Y-118345000D01*
X131978061Y-118345000D01*
X131778102Y-118384774D01*
X131589744Y-118462795D01*
X131420226Y-118576063D01*
X131276063Y-118720226D01*
X131162795Y-118889744D01*
X131084774Y-119078102D01*
X131045000Y-119278061D01*
X130300000Y-119278061D01*
X130300000Y-117682609D01*
X135226996Y-117682609D01*
X135273085Y-117905175D01*
X135492745Y-118005062D01*
X135727670Y-118060176D01*
X135968833Y-118068399D01*
X136206967Y-118029417D01*
X136432920Y-117944725D01*
X136506915Y-117905175D01*
X136553004Y-117682609D01*
X135890000Y-117019605D01*
X135226996Y-117682609D01*
X130300000Y-117682609D01*
X130300000Y-117543711D01*
X130343937Y-117499774D01*
X130457205Y-117330256D01*
X130535226Y-117141898D01*
X130575000Y-116941939D01*
X130575000Y-116918833D01*
X134661601Y-116918833D01*
X134700583Y-117156967D01*
X134785275Y-117382920D01*
X134824825Y-117456915D01*
X135047391Y-117503004D01*
X135710395Y-116840000D01*
X136069605Y-116840000D01*
X136732609Y-117503004D01*
X136955175Y-117456915D01*
X137055062Y-117237255D01*
X137110176Y-117002330D01*
X137118399Y-116761167D01*
X137079417Y-116523033D01*
X136994725Y-116297080D01*
X136955175Y-116223085D01*
X136732609Y-116176996D01*
X136069605Y-116840000D01*
X135710395Y-116840000D01*
X135047391Y-116176996D01*
X134824825Y-116223085D01*
X134724938Y-116442745D01*
X134669824Y-116677670D01*
X134661601Y-116918833D01*
X130575000Y-116918833D01*
X130575000Y-116738061D01*
X130535226Y-116538102D01*
X130457205Y-116349744D01*
X130343937Y-116180226D01*
X130199774Y-116036063D01*
X130141898Y-115997391D01*
X135226996Y-115997391D01*
X135890000Y-116660395D01*
X136553004Y-115997391D01*
X136506915Y-115774825D01*
X136287255Y-115674938D01*
X136052330Y-115619824D01*
X135811167Y-115611601D01*
X135573033Y-115650583D01*
X135347080Y-115735275D01*
X135273085Y-115774825D01*
X135226996Y-115997391D01*
X130141898Y-115997391D01*
X130030256Y-115922795D01*
X129841898Y-115844774D01*
X129641939Y-115805000D01*
X129438061Y-115805000D01*
X129238102Y-115844774D01*
X129049744Y-115922795D01*
X128880226Y-116036063D01*
X128736063Y-116180226D01*
X128622795Y-116349744D01*
X128544774Y-116538102D01*
X128505000Y-116738061D01*
X127760000Y-116738061D01*
X127760000Y-106170000D01*
X129905987Y-106170000D01*
X129892795Y-106189744D01*
X129814774Y-106378102D01*
X129775000Y-106578061D01*
X129775000Y-106781939D01*
X129814774Y-106981898D01*
X129892795Y-107170256D01*
X130006063Y-107339774D01*
X130050000Y-107383711D01*
X130050001Y-111722667D01*
X130046324Y-111760000D01*
X130050001Y-111797333D01*
X130060998Y-111908986D01*
X130067679Y-111931010D01*
X130104454Y-112052246D01*
X130175026Y-112184276D01*
X130229175Y-112250256D01*
X130270000Y-112300001D01*
X130298998Y-112323799D01*
X130971202Y-112996003D01*
X130995000Y-113025002D01*
X131110725Y-113119975D01*
X131242754Y-113190547D01*
X131386015Y-113234004D01*
X131497668Y-113245001D01*
X131497677Y-113245001D01*
X131535000Y-113248677D01*
X131572323Y-113245001D01*
X135227198Y-113245001D01*
X135241929Y-113259732D01*
X135109108Y-113348481D01*
X134938481Y-113519108D01*
X134804419Y-113719745D01*
X134712076Y-113942681D01*
X134665000Y-114179348D01*
X134665000Y-114420652D01*
X134712076Y-114657319D01*
X134804419Y-114880255D01*
X134938481Y-115080892D01*
X135109108Y-115251519D01*
X135309745Y-115385581D01*
X135532681Y-115477924D01*
X135769348Y-115525000D01*
X136010652Y-115525000D01*
X136247319Y-115477924D01*
X136470255Y-115385581D01*
X136670892Y-115251519D01*
X136841519Y-115080892D01*
X136930267Y-114948071D01*
X138063203Y-116081008D01*
X138086997Y-116110001D01*
X138115990Y-116133795D01*
X138115994Y-116133799D01*
X138172566Y-116180226D01*
X138202722Y-116204974D01*
X138334751Y-116275546D01*
X138478012Y-116319003D01*
X138589665Y-116330000D01*
X138589674Y-116330000D01*
X138626997Y-116333676D01*
X138664320Y-116330000D01*
X140210000Y-116330000D01*
X140210001Y-133312667D01*
X140206324Y-133350000D01*
X140210001Y-133387333D01*
X140220998Y-133498986D01*
X140232445Y-133536722D01*
X140264454Y-133642246D01*
X140335026Y-133774276D01*
X140405226Y-133859814D01*
X140430000Y-133890001D01*
X140458998Y-133913799D01*
X141038199Y-134493000D01*
X136920015Y-134493000D01*
X136885226Y-134318102D01*
X136807205Y-134129744D01*
X136693937Y-133960226D01*
X136549774Y-133816063D01*
X136380256Y-133702795D01*
X136191898Y-133624774D01*
X135991939Y-133585000D01*
X135929802Y-133585000D01*
X132643804Y-130299003D01*
X132620001Y-130269999D01*
X132504276Y-130175026D01*
X132372247Y-130104454D01*
X132228986Y-130060997D01*
X132117333Y-130050000D01*
X132117322Y-130050000D01*
X132080000Y-130046324D01*
X132042678Y-130050000D01*
X125735801Y-130050000D01*
X125220000Y-129534201D01*
X125220000Y-120658178D01*
X125406632Y-120533475D01*
X125613475Y-120326632D01*
X125775990Y-120083411D01*
X125887932Y-119813158D01*
X125945000Y-119526260D01*
X125945000Y-119233740D01*
X125887932Y-118946842D01*
X125775990Y-118676589D01*
X125613475Y-118433368D01*
X125406632Y-118226525D01*
X125232240Y-118110000D01*
X125406632Y-117993475D01*
X125613475Y-117786632D01*
X125775990Y-117543411D01*
X125887932Y-117273158D01*
X125945000Y-116986260D01*
X125945000Y-116693740D01*
X125887932Y-116406842D01*
X125775990Y-116136589D01*
X125613475Y-115893368D01*
X125406632Y-115686525D01*
X125232240Y-115570000D01*
X125406632Y-115453475D01*
X125613475Y-115246632D01*
X125775990Y-115003411D01*
X125887932Y-114733158D01*
X125945000Y-114446260D01*
X125945000Y-114153740D01*
X125887932Y-113866842D01*
X125775990Y-113596589D01*
X125613475Y-113353368D01*
X125406632Y-113146525D01*
X125232240Y-113030000D01*
X125406632Y-112913475D01*
X125613475Y-112706632D01*
X125775990Y-112463411D01*
X125887932Y-112193158D01*
X125945000Y-111906260D01*
X125945000Y-111613740D01*
X125887932Y-111326842D01*
X125775990Y-111056589D01*
X125613475Y-110813368D01*
X125406632Y-110606525D01*
X125232240Y-110490000D01*
X125406632Y-110373475D01*
X125613475Y-110166632D01*
X125775990Y-109923411D01*
X125887932Y-109653158D01*
X125945000Y-109366260D01*
X125945000Y-109073740D01*
X125887932Y-108786842D01*
X125775990Y-108516589D01*
X125613475Y-108273368D01*
X125406632Y-108066525D01*
X125232240Y-107950000D01*
X125406632Y-107833475D01*
X125613475Y-107626632D01*
X125775990Y-107383411D01*
X125887932Y-107113158D01*
X125945000Y-106826260D01*
X125945000Y-106533740D01*
X125887932Y-106246842D01*
X125775990Y-105976589D01*
X125613475Y-105733368D01*
X125406632Y-105526525D01*
X125163411Y-105364010D01*
X124893158Y-105252068D01*
X124606260Y-105195000D01*
X124313740Y-105195000D01*
X124026842Y-105252068D01*
X123756589Y-105364010D01*
X123513368Y-105526525D01*
X123381513Y-105658380D01*
X123359502Y-105585820D01*
X123300537Y-105475506D01*
X123221185Y-105378815D01*
X123124494Y-105299463D01*
X123014180Y-105240498D01*
X122894482Y-105204188D01*
X122770000Y-105191928D01*
X121070000Y-105191928D01*
X120945518Y-105204188D01*
X120825820Y-105240498D01*
X120715506Y-105299463D01*
X120618815Y-105378815D01*
X120539463Y-105475506D01*
X120480498Y-105585820D01*
X120444188Y-105705518D01*
X120431928Y-105830000D01*
X120431928Y-107530000D01*
X120444188Y-107654482D01*
X120480498Y-107774180D01*
X120539463Y-107884494D01*
X120618815Y-107981185D01*
X120715506Y-108060537D01*
X120825820Y-108119502D01*
X120898380Y-108141513D01*
X120766525Y-108273368D01*
X120604010Y-108516589D01*
X120492068Y-108786842D01*
X120435000Y-109073740D01*
X120435000Y-109366260D01*
X120492068Y-109653158D01*
X120604010Y-109923411D01*
X120766525Y-110166632D01*
X120973368Y-110373475D01*
X121147760Y-110490000D01*
X120973368Y-110606525D01*
X120766525Y-110813368D01*
X120604010Y-111056589D01*
X120492068Y-111326842D01*
X120435000Y-111613740D01*
X120435000Y-111906260D01*
X120492068Y-112193158D01*
X120604010Y-112463411D01*
X120766525Y-112706632D01*
X120973368Y-112913475D01*
X121155534Y-113035195D01*
X121038645Y-113104822D01*
X120822412Y-113299731D01*
X120648359Y-113533080D01*
X120523175Y-113795901D01*
X120478524Y-113943110D01*
X120599845Y-114173000D01*
X121793000Y-114173000D01*
X121793000Y-114153000D01*
X122047000Y-114153000D01*
X122047000Y-114173000D01*
X122067000Y-114173000D01*
X122067000Y-114427000D01*
X122047000Y-114427000D01*
X122047000Y-116713000D01*
X122067000Y-116713000D01*
X122067000Y-116967000D01*
X122047000Y-116967000D01*
X122047000Y-116987000D01*
X121793000Y-116987000D01*
X121793000Y-116967000D01*
X120599845Y-116967000D01*
X120478524Y-117196890D01*
X120523175Y-117344099D01*
X120648359Y-117606920D01*
X120822412Y-117840269D01*
X121038645Y-118035178D01*
X121155534Y-118104805D01*
X120973368Y-118226525D01*
X120766525Y-118433368D01*
X120604010Y-118676589D01*
X120492068Y-118946842D01*
X120435000Y-119233740D01*
X120435000Y-119526260D01*
X120492068Y-119813158D01*
X120604010Y-120083411D01*
X120766525Y-120326632D01*
X120973368Y-120533475D01*
X121216589Y-120695990D01*
X121486842Y-120807932D01*
X121773740Y-120865000D01*
X122066260Y-120865000D01*
X122353158Y-120807932D01*
X122623411Y-120695990D01*
X122866632Y-120533475D01*
X123073475Y-120326632D01*
X123190000Y-120152240D01*
X123306525Y-120326632D01*
X123513368Y-120533475D01*
X123700001Y-120658179D01*
X123700000Y-129811680D01*
X123696324Y-129849002D01*
X123700000Y-129886324D01*
X123700000Y-129886334D01*
X123710997Y-129997987D01*
X123743094Y-130103799D01*
X123754454Y-130141248D01*
X123825026Y-130273278D01*
X123849974Y-130303677D01*
X123919999Y-130389003D01*
X123949002Y-130412805D01*
X124857203Y-131321008D01*
X124880997Y-131350001D01*
X124909990Y-131373795D01*
X124909994Y-131373799D01*
X124962693Y-131417047D01*
X124996722Y-131444974D01*
X125128751Y-131515546D01*
X125272012Y-131559003D01*
X125383665Y-131570000D01*
X125383674Y-131570000D01*
X125420997Y-131573676D01*
X125458320Y-131570000D01*
X129451065Y-131570000D01*
X129385271Y-131613962D01*
X129073962Y-131925271D01*
X128829369Y-132291331D01*
X128660890Y-132698075D01*
X128575000Y-133129872D01*
X128575000Y-133570128D01*
X128660890Y-134001925D01*
X128829369Y-134408669D01*
X128885717Y-134493000D01*
X118237000Y-134493000D01*
X118237000Y-114656890D01*
X120478524Y-114656890D01*
X120523175Y-114804099D01*
X120648359Y-115066920D01*
X120822412Y-115300269D01*
X121038645Y-115495178D01*
X121164255Y-115570000D01*
X121038645Y-115644822D01*
X120822412Y-115839731D01*
X120648359Y-116073080D01*
X120523175Y-116335901D01*
X120478524Y-116483110D01*
X120599845Y-116713000D01*
X121793000Y-116713000D01*
X121793000Y-114427000D01*
X120599845Y-114427000D01*
X120478524Y-114656890D01*
X118237000Y-114656890D01*
X118237000Y-95670000D01*
X128051928Y-95670000D01*
X128051928Y-97370000D01*
X128064188Y-97494482D01*
X128100498Y-97614180D01*
X128159463Y-97724494D01*
X128238815Y-97821185D01*
X128335506Y-97900537D01*
X128445820Y-97959502D01*
X128565518Y-97995812D01*
X128690000Y-98008072D01*
X130390000Y-98008072D01*
X130514482Y-97995812D01*
X130634180Y-97959502D01*
X130744494Y-97900537D01*
X130841185Y-97821185D01*
X130920537Y-97724494D01*
X130979502Y-97614180D01*
X131015812Y-97494482D01*
X131028072Y-97370000D01*
X131028072Y-95670000D01*
X131015812Y-95545518D01*
X130979502Y-95425820D01*
X130920537Y-95315506D01*
X130841185Y-95218815D01*
X130744494Y-95139463D01*
X130634180Y-95080498D01*
X130514482Y-95044188D01*
X130390000Y-95031928D01*
X128690000Y-95031928D01*
X128565518Y-95044188D01*
X128445820Y-95080498D01*
X128335506Y-95139463D01*
X128238815Y-95218815D01*
X128159463Y-95315506D01*
X128100498Y-95425820D01*
X128064188Y-95545518D01*
X128051928Y-95670000D01*
X118237000Y-95670000D01*
X118237000Y-93130000D01*
X131861928Y-93130000D01*
X131861928Y-94830000D01*
X131874188Y-94954482D01*
X131910498Y-95074180D01*
X131969463Y-95184494D01*
X132048815Y-95281185D01*
X132145506Y-95360537D01*
X132255820Y-95419502D01*
X132375518Y-95455812D01*
X132500000Y-95468072D01*
X134200000Y-95468072D01*
X134324482Y-95455812D01*
X134444180Y-95419502D01*
X134554494Y-95360537D01*
X134651185Y-95281185D01*
X134662415Y-95267501D01*
X134750725Y-95339975D01*
X134882754Y-95410547D01*
X135026015Y-95454004D01*
X135137668Y-95465001D01*
X135137677Y-95465001D01*
X135175000Y-95468677D01*
X135212323Y-95465001D01*
X138937677Y-95465001D01*
X138974999Y-95468677D01*
X139012321Y-95465001D01*
X139012332Y-95465001D01*
X139123985Y-95454004D01*
X139267246Y-95410547D01*
X139399275Y-95339975D01*
X139515000Y-95245002D01*
X139538802Y-95215999D01*
X139739801Y-95015000D01*
X139801939Y-95015000D01*
X140001898Y-94975226D01*
X140190256Y-94897205D01*
X140359774Y-94783937D01*
X140503937Y-94639774D01*
X140617205Y-94470256D01*
X140695226Y-94281898D01*
X140735000Y-94081939D01*
X140735000Y-93878061D01*
X140695226Y-93678102D01*
X140617205Y-93489744D01*
X140503937Y-93320226D01*
X140359774Y-93176063D01*
X140196387Y-93066891D01*
X147148519Y-93066891D01*
X147245843Y-93341252D01*
X147394822Y-93591355D01*
X147589731Y-93807588D01*
X147823080Y-93981641D01*
X148085901Y-94106825D01*
X148233110Y-94151476D01*
X148463000Y-94030155D01*
X148463000Y-92837000D01*
X148717000Y-92837000D01*
X148717000Y-94030155D01*
X148946890Y-94151476D01*
X149094099Y-94106825D01*
X149356920Y-93981641D01*
X149590269Y-93807588D01*
X149785178Y-93591355D01*
X149860000Y-93465745D01*
X149934822Y-93591355D01*
X150129731Y-93807588D01*
X150363080Y-93981641D01*
X150625901Y-94106825D01*
X150773110Y-94151476D01*
X151003000Y-94030155D01*
X151003000Y-92837000D01*
X151257000Y-92837000D01*
X151257000Y-94030155D01*
X151486890Y-94151476D01*
X151634099Y-94106825D01*
X151896920Y-93981641D01*
X152130269Y-93807588D01*
X152325178Y-93591355D01*
X152400000Y-93465745D01*
X152474822Y-93591355D01*
X152669731Y-93807588D01*
X152903080Y-93981641D01*
X153165901Y-94106825D01*
X153313110Y-94151476D01*
X153543000Y-94030155D01*
X153543000Y-92837000D01*
X153797000Y-92837000D01*
X153797000Y-94030155D01*
X154026890Y-94151476D01*
X154174099Y-94106825D01*
X154436920Y-93981641D01*
X154670269Y-93807588D01*
X154746034Y-93723534D01*
X154770498Y-93804180D01*
X154829463Y-93914494D01*
X154908815Y-94011185D01*
X155005506Y-94090537D01*
X155115820Y-94149502D01*
X155235518Y-94185812D01*
X155360000Y-94198072D01*
X155924250Y-94195000D01*
X156083000Y-94036250D01*
X156083000Y-92837000D01*
X156337000Y-92837000D01*
X156337000Y-94036250D01*
X156495750Y-94195000D01*
X157060000Y-94198072D01*
X157184482Y-94185812D01*
X157304180Y-94149502D01*
X157414494Y-94090537D01*
X157511185Y-94011185D01*
X157590537Y-93914494D01*
X157649502Y-93804180D01*
X157685812Y-93684482D01*
X157698072Y-93560000D01*
X157695000Y-92995750D01*
X157536250Y-92837000D01*
X156337000Y-92837000D01*
X156083000Y-92837000D01*
X153797000Y-92837000D01*
X153543000Y-92837000D01*
X151257000Y-92837000D01*
X151003000Y-92837000D01*
X148717000Y-92837000D01*
X148463000Y-92837000D01*
X147269186Y-92837000D01*
X147148519Y-93066891D01*
X140196387Y-93066891D01*
X140190256Y-93062795D01*
X140001898Y-92984774D01*
X139801939Y-92945000D01*
X139598061Y-92945000D01*
X139398102Y-92984774D01*
X139209744Y-93062795D01*
X139040226Y-93176063D01*
X138896063Y-93320226D01*
X138782795Y-93489744D01*
X138704774Y-93678102D01*
X138665000Y-93878061D01*
X138665000Y-93940199D01*
X138660198Y-93945001D01*
X135489803Y-93945001D01*
X135013803Y-93469002D01*
X134990001Y-93439999D01*
X134874276Y-93345026D01*
X134838072Y-93325674D01*
X134838072Y-93130000D01*
X134825812Y-93005518D01*
X134789502Y-92885820D01*
X134730537Y-92775506D01*
X134651185Y-92678815D01*
X134554494Y-92599463D01*
X134444180Y-92540498D01*
X134324482Y-92504188D01*
X134200000Y-92491928D01*
X132500000Y-92491928D01*
X132375518Y-92504188D01*
X132255820Y-92540498D01*
X132145506Y-92599463D01*
X132048815Y-92678815D01*
X131969463Y-92775506D01*
X131910498Y-92885820D01*
X131874188Y-93005518D01*
X131861928Y-93130000D01*
X118237000Y-93130000D01*
X118237000Y-90023740D01*
X147105000Y-90023740D01*
X147105000Y-90316260D01*
X147162068Y-90603158D01*
X147274010Y-90873411D01*
X147436525Y-91116632D01*
X147643368Y-91323475D01*
X147819406Y-91441100D01*
X147589731Y-91612412D01*
X147394822Y-91828645D01*
X147245843Y-92078748D01*
X147148519Y-92353109D01*
X147269186Y-92583000D01*
X148463000Y-92583000D01*
X148463000Y-92563000D01*
X148717000Y-92563000D01*
X148717000Y-92583000D01*
X151003000Y-92583000D01*
X151003000Y-92563000D01*
X151257000Y-92563000D01*
X151257000Y-92583000D01*
X153543000Y-92583000D01*
X153543000Y-92563000D01*
X153797000Y-92563000D01*
X153797000Y-92583000D01*
X156083000Y-92583000D01*
X156083000Y-92563000D01*
X156337000Y-92563000D01*
X156337000Y-92583000D01*
X157536250Y-92583000D01*
X157695000Y-92424250D01*
X157698072Y-91860000D01*
X157685812Y-91735518D01*
X157649502Y-91615820D01*
X157590537Y-91505506D01*
X157511185Y-91408815D01*
X157414494Y-91329463D01*
X157304180Y-91270498D01*
X157231620Y-91248487D01*
X157363475Y-91116632D01*
X157525990Y-90873411D01*
X157637932Y-90603158D01*
X157695000Y-90316260D01*
X157695000Y-90023740D01*
X157637932Y-89736842D01*
X157525990Y-89466589D01*
X157363475Y-89223368D01*
X157156632Y-89016525D01*
X156913411Y-88854010D01*
X156643158Y-88742068D01*
X156356260Y-88685000D01*
X156063740Y-88685000D01*
X155776842Y-88742068D01*
X155506589Y-88854010D01*
X155263368Y-89016525D01*
X155056525Y-89223368D01*
X154940000Y-89397760D01*
X154823475Y-89223368D01*
X154616632Y-89016525D01*
X154373411Y-88854010D01*
X154103158Y-88742068D01*
X153816260Y-88685000D01*
X153523740Y-88685000D01*
X153236842Y-88742068D01*
X152966589Y-88854010D01*
X152723368Y-89016525D01*
X152516525Y-89223368D01*
X152400000Y-89397760D01*
X152283475Y-89223368D01*
X152076632Y-89016525D01*
X151833411Y-88854010D01*
X151563158Y-88742068D01*
X151276260Y-88685000D01*
X150983740Y-88685000D01*
X150696842Y-88742068D01*
X150426589Y-88854010D01*
X150183368Y-89016525D01*
X149976525Y-89223368D01*
X149860000Y-89397760D01*
X149743475Y-89223368D01*
X149536632Y-89016525D01*
X149293411Y-88854010D01*
X149023158Y-88742068D01*
X148736260Y-88685000D01*
X148443740Y-88685000D01*
X148156842Y-88742068D01*
X147886589Y-88854010D01*
X147643368Y-89016525D01*
X147436525Y-89223368D01*
X147274010Y-89466589D01*
X147162068Y-89736842D01*
X147105000Y-90023740D01*
X118237000Y-90023740D01*
X118237000Y-87773407D01*
X118285820Y-87799502D01*
X118405518Y-87835812D01*
X118530000Y-87848072D01*
X120230000Y-87848072D01*
X120354482Y-87835812D01*
X120474180Y-87799502D01*
X120584494Y-87740537D01*
X120681185Y-87661185D01*
X120760537Y-87564494D01*
X120819502Y-87454180D01*
X120855812Y-87334482D01*
X120868072Y-87210000D01*
X122971928Y-87210000D01*
X122984188Y-87334482D01*
X123020498Y-87454180D01*
X123079463Y-87564494D01*
X123158815Y-87661185D01*
X123255506Y-87740537D01*
X123365820Y-87799502D01*
X123485518Y-87835812D01*
X123610000Y-87848072D01*
X124174250Y-87845000D01*
X124333000Y-87686250D01*
X124333000Y-86487000D01*
X124587000Y-86487000D01*
X124587000Y-87686250D01*
X124745750Y-87845000D01*
X125310000Y-87848072D01*
X125434482Y-87835812D01*
X125554180Y-87799502D01*
X125664494Y-87740537D01*
X125761185Y-87661185D01*
X125840537Y-87564494D01*
X125899502Y-87454180D01*
X125935812Y-87334482D01*
X125948072Y-87210000D01*
X125945000Y-86645750D01*
X125786250Y-86487000D01*
X124587000Y-86487000D01*
X124333000Y-86487000D01*
X123133750Y-86487000D01*
X122975000Y-86645750D01*
X122971928Y-87210000D01*
X120868072Y-87210000D01*
X120868072Y-85510000D01*
X122971928Y-85510000D01*
X122975000Y-86074250D01*
X123133750Y-86233000D01*
X124333000Y-86233000D01*
X124333000Y-85033750D01*
X124587000Y-85033750D01*
X124587000Y-86233000D01*
X125786250Y-86233000D01*
X125945000Y-86074250D01*
X125948072Y-85510000D01*
X125935812Y-85385518D01*
X125899502Y-85265820D01*
X125840537Y-85155506D01*
X125761185Y-85058815D01*
X125664494Y-84979463D01*
X125554180Y-84920498D01*
X125434482Y-84884188D01*
X125310000Y-84871928D01*
X124745750Y-84875000D01*
X124587000Y-85033750D01*
X124333000Y-85033750D01*
X124174250Y-84875000D01*
X123610000Y-84871928D01*
X123485518Y-84884188D01*
X123365820Y-84920498D01*
X123255506Y-84979463D01*
X123158815Y-85058815D01*
X123079463Y-85155506D01*
X123020498Y-85265820D01*
X122984188Y-85385518D01*
X122971928Y-85510000D01*
X120868072Y-85510000D01*
X120855812Y-85385518D01*
X120819502Y-85265820D01*
X120760537Y-85155506D01*
X120681185Y-85058815D01*
X120584494Y-84979463D01*
X120474180Y-84920498D01*
X120354482Y-84884188D01*
X120230000Y-84871928D01*
X118530000Y-84871928D01*
X118405518Y-84884188D01*
X118285820Y-84920498D01*
X118237000Y-84946593D01*
X118237000Y-83947000D01*
X130155717Y-83947000D01*
X130099369Y-84031331D01*
G36*
X214503000Y-96520000D02*
G01*
X214505440Y-96544776D01*
X214512667Y-96568601D01*
X214524403Y-96590557D01*
X214540197Y-96609803D01*
X214559443Y-96625597D01*
X214573204Y-96633592D01*
X217043000Y-97868490D01*
X217043000Y-132027394D01*
X215595000Y-133475394D01*
X215595000Y-133129872D01*
X215509110Y-132698075D01*
X215340631Y-132291331D01*
X215096038Y-131925271D01*
X214784729Y-131613962D01*
X214418669Y-131369369D01*
X214011925Y-131200890D01*
X213580128Y-131115000D01*
X213139872Y-131115000D01*
X212708075Y-131200890D01*
X212301331Y-131369369D01*
X211935271Y-131613962D01*
X211623962Y-131925271D01*
X211379369Y-132291331D01*
X211210890Y-132698075D01*
X211125000Y-133129872D01*
X211125000Y-133570128D01*
X211210890Y-134001925D01*
X211379369Y-134408669D01*
X211435717Y-134493000D01*
X209256341Y-134493000D01*
X209444039Y-134305302D01*
X209608042Y-134059853D01*
X209721010Y-133787125D01*
X209778600Y-133497599D01*
X209778600Y-133202401D01*
X209721010Y-132912875D01*
X209608042Y-132640147D01*
X209444039Y-132394698D01*
X209235302Y-132185961D01*
X208989853Y-132021958D01*
X208717125Y-131908990D01*
X208427599Y-131851400D01*
X208132401Y-131851400D01*
X207842875Y-131908990D01*
X207570147Y-132021958D01*
X207324698Y-132185961D01*
X207115961Y-132394698D01*
X207010000Y-132553281D01*
X206904039Y-132394698D01*
X206695302Y-132185961D01*
X206449853Y-132021958D01*
X206177125Y-131908990D01*
X205887599Y-131851400D01*
X205592401Y-131851400D01*
X205302875Y-131908990D01*
X205030147Y-132021958D01*
X204784698Y-132185961D01*
X204575961Y-132394698D01*
X204470000Y-132553281D01*
X204364039Y-132394698D01*
X204155302Y-132185961D01*
X203909853Y-132021958D01*
X203637125Y-131908990D01*
X203347599Y-131851400D01*
X203052401Y-131851400D01*
X202762875Y-131908990D01*
X202490147Y-132021958D01*
X202244698Y-132185961D01*
X202035961Y-132394698D01*
X201930000Y-132553281D01*
X201824039Y-132394698D01*
X201615302Y-132185961D01*
X201369853Y-132021958D01*
X201097125Y-131908990D01*
X200807599Y-131851400D01*
X200512401Y-131851400D01*
X200222875Y-131908990D01*
X199950147Y-132021958D01*
X199704698Y-132185961D01*
X199495961Y-132394698D01*
X199390000Y-132553281D01*
X199284039Y-132394698D01*
X199075302Y-132185961D01*
X198829853Y-132021958D01*
X198557125Y-131908990D01*
X198267599Y-131851400D01*
X197972401Y-131851400D01*
X197682875Y-131908990D01*
X197410147Y-132021958D01*
X197164698Y-132185961D01*
X196955961Y-132394698D01*
X196850000Y-132553281D01*
X196744039Y-132394698D01*
X196535302Y-132185961D01*
X196289853Y-132021958D01*
X196017125Y-131908990D01*
X195727599Y-131851400D01*
X195432401Y-131851400D01*
X195142875Y-131908990D01*
X194870147Y-132021958D01*
X194624698Y-132185961D01*
X194415961Y-132394698D01*
X194310000Y-132553281D01*
X194204039Y-132394698D01*
X193995302Y-132185961D01*
X193749853Y-132021958D01*
X193477125Y-131908990D01*
X193187599Y-131851400D01*
X192892401Y-131851400D01*
X192602875Y-131908990D01*
X192330147Y-132021958D01*
X192084698Y-132185961D01*
X191875961Y-132394698D01*
X191770000Y-132553281D01*
X191664039Y-132394698D01*
X191455302Y-132185961D01*
X191209853Y-132021958D01*
X190937125Y-131908990D01*
X190647599Y-131851400D01*
X190352401Y-131851400D01*
X190062875Y-131908990D01*
X189790147Y-132021958D01*
X189544698Y-132185961D01*
X189335961Y-132394698D01*
X189171958Y-132640147D01*
X189058990Y-132912875D01*
X189001400Y-133202401D01*
X189001400Y-133497599D01*
X189058990Y-133787125D01*
X189171958Y-134059853D01*
X189335961Y-134305302D01*
X189523659Y-134493000D01*
X186396341Y-134493000D01*
X186584039Y-134305302D01*
X186748042Y-134059853D01*
X186861010Y-133787125D01*
X186918600Y-133497599D01*
X186918600Y-133202401D01*
X186861010Y-132912875D01*
X186748042Y-132640147D01*
X186584039Y-132394698D01*
X186375302Y-132185961D01*
X186129853Y-132021958D01*
X185857125Y-131908990D01*
X185567599Y-131851400D01*
X185272401Y-131851400D01*
X184982875Y-131908990D01*
X184710147Y-132021958D01*
X184464698Y-132185961D01*
X184255961Y-132394698D01*
X184150000Y-132553281D01*
X184044039Y-132394698D01*
X183835302Y-132185961D01*
X183589853Y-132021958D01*
X183317125Y-131908990D01*
X183027599Y-131851400D01*
X182732401Y-131851400D01*
X182442875Y-131908990D01*
X182170147Y-132021958D01*
X181924698Y-132185961D01*
X181715961Y-132394698D01*
X181610000Y-132553281D01*
X181504039Y-132394698D01*
X181295302Y-132185961D01*
X181049853Y-132021958D01*
X180777125Y-131908990D01*
X180487599Y-131851400D01*
X180192401Y-131851400D01*
X179902875Y-131908990D01*
X179630147Y-132021958D01*
X179384698Y-132185961D01*
X179175961Y-132394698D01*
X179070000Y-132553281D01*
X178964039Y-132394698D01*
X178755302Y-132185961D01*
X178509853Y-132021958D01*
X178237125Y-131908990D01*
X177947599Y-131851400D01*
X177652401Y-131851400D01*
X177422026Y-131897224D01*
X175889180Y-130364379D01*
X175919774Y-130343937D01*
X176063937Y-130199774D01*
X176177205Y-130030256D01*
X176255226Y-129841898D01*
X176295000Y-129641939D01*
X176295000Y-129579801D01*
X177041003Y-128833799D01*
X177070001Y-128810001D01*
X177164974Y-128694276D01*
X177235546Y-128562247D01*
X177279003Y-128418986D01*
X177290000Y-128307333D01*
X177290000Y-128307324D01*
X177293676Y-128270001D01*
X177290000Y-128232678D01*
X177290000Y-121554013D01*
X177309744Y-121567205D01*
X177498102Y-121645226D01*
X177698061Y-121685000D01*
X177901939Y-121685000D01*
X178101898Y-121645226D01*
X178290256Y-121567205D01*
X178310001Y-121554012D01*
X178310001Y-129225197D01*
X177760199Y-129775000D01*
X177698061Y-129775000D01*
X177498102Y-129814774D01*
X177309744Y-129892795D01*
X177140226Y-130006063D01*
X176996063Y-130150226D01*
X176882795Y-130319744D01*
X176804774Y-130508102D01*
X176765000Y-130708061D01*
X176765000Y-130911939D01*
X176804774Y-131111898D01*
X176882795Y-131300256D01*
X176996063Y-131469774D01*
X177140226Y-131613937D01*
X177309744Y-131727205D01*
X177498102Y-131805226D01*
X177698061Y-131845000D01*
X177901939Y-131845000D01*
X178101898Y-131805226D01*
X178290256Y-131727205D01*
X178459774Y-131613937D01*
X178603937Y-131469774D01*
X178717205Y-131300256D01*
X178795226Y-131111898D01*
X178835000Y-130911939D01*
X178835000Y-130849801D01*
X179581003Y-130103799D01*
X179610001Y-130080001D01*
X179704974Y-129964276D01*
X179775546Y-129832247D01*
X179819003Y-129688986D01*
X179830000Y-129577333D01*
X179830000Y-129577324D01*
X179833676Y-129540001D01*
X179830000Y-129502678D01*
X179830000Y-128629026D01*
X209365042Y-128629026D01*
X209410778Y-128779814D01*
X209537316Y-129044944D01*
X209713146Y-129280293D01*
X209931512Y-129476817D01*
X210184022Y-129626964D01*
X210460973Y-129724963D01*
X210693000Y-129604464D01*
X210693000Y-128397000D01*
X209486183Y-128397000D01*
X209365042Y-128629026D01*
X179830000Y-128629026D01*
X179830000Y-125364013D01*
X179849744Y-125377205D01*
X180038102Y-125455226D01*
X180238061Y-125495000D01*
X180441939Y-125495000D01*
X180641898Y-125455226D01*
X180830256Y-125377205D01*
X180999774Y-125263937D01*
X181143937Y-125119774D01*
X181257205Y-124950256D01*
X181335226Y-124761898D01*
X181375000Y-124561939D01*
X181375000Y-124358061D01*
X181335226Y-124158102D01*
X181257205Y-123969744D01*
X181143937Y-123800226D01*
X181100000Y-123756289D01*
X181100000Y-111193711D01*
X181143937Y-111149774D01*
X181257205Y-110980256D01*
X181335226Y-110791898D01*
X181375000Y-110591939D01*
X181375000Y-110388061D01*
X181335226Y-110188102D01*
X181257205Y-109999744D01*
X181143937Y-109830226D01*
X180999774Y-109686063D01*
X180830256Y-109572795D01*
X180641898Y-109494774D01*
X180441939Y-109455000D01*
X180238061Y-109455000D01*
X180038102Y-109494774D01*
X179849744Y-109572795D01*
X179830000Y-109585987D01*
X179830000Y-108168072D01*
X179920000Y-108168072D01*
X180044482Y-108155812D01*
X180164180Y-108119502D01*
X180274494Y-108060537D01*
X180371185Y-107981185D01*
X180450537Y-107884494D01*
X180509502Y-107774180D01*
X180545812Y-107654482D01*
X180558072Y-107530000D01*
X180558072Y-107334326D01*
X180594276Y-107314974D01*
X180710001Y-107220001D01*
X180733804Y-107190997D01*
X187067529Y-100857273D01*
X187156063Y-100989774D01*
X187200000Y-101033711D01*
X187200000Y-101562668D01*
X187200001Y-103825197D01*
X183639003Y-107386196D01*
X183609999Y-107409999D01*
X183569175Y-107459744D01*
X183515026Y-107525724D01*
X183461089Y-107626632D01*
X183444454Y-107657754D01*
X183400997Y-107801015D01*
X183390000Y-107912668D01*
X183390000Y-107912678D01*
X183386324Y-107950000D01*
X183390000Y-107987322D01*
X183390001Y-113395988D01*
X183370256Y-113382795D01*
X183181898Y-113304774D01*
X182981939Y-113265000D01*
X182778061Y-113265000D01*
X182578102Y-113304774D01*
X182389744Y-113382795D01*
X182220226Y-113496063D01*
X182076063Y-113640226D01*
X181962795Y-113809744D01*
X181884774Y-113998102D01*
X181845000Y-114198061D01*
X181845000Y-114401939D01*
X181884774Y-114601898D01*
X181962795Y-114790256D01*
X182076063Y-114959774D01*
X182120000Y-115003711D01*
X182120001Y-119946288D01*
X182076063Y-119990226D01*
X181962795Y-120159744D01*
X181884774Y-120348102D01*
X181845000Y-120548061D01*
X181845000Y-120751939D01*
X181884774Y-120951898D01*
X181962795Y-121140256D01*
X182076063Y-121309774D01*
X182220226Y-121453937D01*
X182389744Y-121567205D01*
X182578102Y-121645226D01*
X182778061Y-121685000D01*
X182981939Y-121685000D01*
X183181898Y-121645226D01*
X183370256Y-121567205D01*
X183390001Y-121554012D01*
X183390001Y-125026288D01*
X183346063Y-125070226D01*
X183232795Y-125239744D01*
X183154774Y-125428102D01*
X183115000Y-125628061D01*
X183115000Y-125831939D01*
X183154774Y-126031898D01*
X183232795Y-126220256D01*
X183346063Y-126389774D01*
X183490226Y-126533937D01*
X183659744Y-126647205D01*
X183848102Y-126725226D01*
X184048061Y-126765000D01*
X184251939Y-126765000D01*
X184451898Y-126725226D01*
X184640256Y-126647205D01*
X184809774Y-126533937D01*
X184953937Y-126389774D01*
X185067205Y-126220256D01*
X185145226Y-126031898D01*
X185185000Y-125831939D01*
X185185000Y-125628061D01*
X185145226Y-125428102D01*
X185067205Y-125239744D01*
X184953937Y-125070226D01*
X184910000Y-125026289D01*
X184910000Y-108264801D01*
X188470015Y-104704787D01*
X188470006Y-116275204D01*
X187725000Y-115530199D01*
X187725000Y-115468061D01*
X187685226Y-115268102D01*
X187607205Y-115079744D01*
X187493937Y-114910226D01*
X187349774Y-114766063D01*
X187180256Y-114652795D01*
X186991898Y-114574774D01*
X186791939Y-114535000D01*
X186588061Y-114535000D01*
X186388102Y-114574774D01*
X186199744Y-114652795D01*
X186030226Y-114766063D01*
X185886063Y-114910226D01*
X185772795Y-115079744D01*
X185694774Y-115268102D01*
X185655000Y-115468061D01*
X185655000Y-115671939D01*
X185694774Y-115871898D01*
X185772795Y-116060256D01*
X185886063Y-116229774D01*
X186030226Y-116373937D01*
X186199744Y-116487205D01*
X186388102Y-116565226D01*
X186588061Y-116605000D01*
X186650199Y-116605000D01*
X187200001Y-117154803D01*
X187200000Y-118676289D01*
X187156063Y-118720226D01*
X187042795Y-118889744D01*
X186964774Y-119078102D01*
X186925000Y-119278061D01*
X186925000Y-119481939D01*
X186964774Y-119681898D01*
X187042795Y-119870256D01*
X187139510Y-120015000D01*
X187042795Y-120159744D01*
X186964774Y-120348102D01*
X186925000Y-120548061D01*
X186925000Y-120751939D01*
X186964774Y-120951898D01*
X187042795Y-121140256D01*
X187156063Y-121309774D01*
X187200001Y-121353712D01*
X187200000Y-125692677D01*
X187196324Y-125730000D01*
X187200000Y-125767322D01*
X187200000Y-125767332D01*
X187210997Y-125878985D01*
X187225527Y-125926884D01*
X187254454Y-126022246D01*
X187325026Y-126154276D01*
X187359320Y-126196063D01*
X187419999Y-126270001D01*
X187449003Y-126293804D01*
X188666201Y-127511003D01*
X188689999Y-127540001D01*
X188805724Y-127634974D01*
X188937753Y-127705546D01*
X189081014Y-127749003D01*
X189192667Y-127760000D01*
X189192676Y-127760000D01*
X189229999Y-127763676D01*
X189267322Y-127760000D01*
X209410867Y-127760000D01*
X209410778Y-127760186D01*
X209365042Y-127910974D01*
X209486183Y-128143000D01*
X210693000Y-128143000D01*
X210693000Y-128123000D01*
X210947000Y-128123000D01*
X210947000Y-128143000D01*
X210967000Y-128143000D01*
X210967000Y-128397000D01*
X210947000Y-128397000D01*
X210947000Y-129604464D01*
X211179027Y-129724963D01*
X211455978Y-129626964D01*
X211708488Y-129476817D01*
X211926854Y-129280293D01*
X212088308Y-129064187D01*
X212195961Y-129225302D01*
X212404698Y-129434039D01*
X212650147Y-129598042D01*
X212922875Y-129711010D01*
X213212401Y-129768600D01*
X213507599Y-129768600D01*
X213797125Y-129711010D01*
X214069853Y-129598042D01*
X214315302Y-129434039D01*
X214524039Y-129225302D01*
X214688042Y-128979853D01*
X214801010Y-128707125D01*
X214858600Y-128417599D01*
X214858600Y-128122401D01*
X214801010Y-127832875D01*
X214688042Y-127560147D01*
X214558163Y-127365768D01*
X215141002Y-126782929D01*
X215170001Y-126759131D01*
X215230591Y-126685302D01*
X215264974Y-126643407D01*
X215335546Y-126511377D01*
X215340915Y-126493676D01*
X215379003Y-126368116D01*
X215390000Y-126256463D01*
X215390000Y-126256453D01*
X215393676Y-126219130D01*
X215390000Y-126181807D01*
X215390000Y-111797322D01*
X215393676Y-111759999D01*
X215390000Y-111722676D01*
X215390000Y-111722667D01*
X215379003Y-111611014D01*
X215335546Y-111467753D01*
X215264974Y-111335724D01*
X215170001Y-111219999D01*
X215141003Y-111196201D01*
X214812776Y-110867974D01*
X214858600Y-110637599D01*
X214858600Y-110342401D01*
X214801010Y-110052875D01*
X214688042Y-109780147D01*
X214524039Y-109534698D01*
X214315302Y-109325961D01*
X214156719Y-109220000D01*
X214315302Y-109114039D01*
X214524039Y-108905302D01*
X214688042Y-108659853D01*
X214801010Y-108387125D01*
X214858600Y-108097599D01*
X214858600Y-107802401D01*
X214801010Y-107512875D01*
X214688042Y-107240147D01*
X214524039Y-106994698D01*
X214315302Y-106785961D01*
X214156719Y-106680000D01*
X214315302Y-106574039D01*
X214524039Y-106365302D01*
X214688042Y-106119853D01*
X214801010Y-105847125D01*
X214858600Y-105557599D01*
X214858600Y-105262401D01*
X214801010Y-104972875D01*
X214688042Y-104700147D01*
X214524039Y-104454698D01*
X214315302Y-104245961D01*
X214156719Y-104140000D01*
X214315302Y-104034039D01*
X214524039Y-103825302D01*
X214688042Y-103579853D01*
X214801010Y-103307125D01*
X214858600Y-103017599D01*
X214858600Y-102722401D01*
X214801010Y-102432875D01*
X214688042Y-102160147D01*
X214524039Y-101914698D01*
X214315302Y-101705961D01*
X214156719Y-101600000D01*
X214315302Y-101494039D01*
X214524039Y-101285302D01*
X214688042Y-101039853D01*
X214801010Y-100767125D01*
X214858600Y-100477599D01*
X214858600Y-100182401D01*
X214801010Y-99892875D01*
X214688042Y-99620147D01*
X214524039Y-99374698D01*
X214315302Y-99165961D01*
X214156719Y-99060000D01*
X214315302Y-98954039D01*
X214524039Y-98745302D01*
X214688042Y-98499853D01*
X214801010Y-98227125D01*
X214858600Y-97937599D01*
X214858600Y-97642401D01*
X214801010Y-97352875D01*
X214688042Y-97080147D01*
X214524039Y-96834698D01*
X214315302Y-96625961D01*
X214156719Y-96520000D01*
X214315302Y-96414039D01*
X214503000Y-96226341D01*
X214503000Y-96520000D01*
G37*
X214503000Y-96520000D02*
X214505440Y-96544776D01*
X214512667Y-96568601D01*
X214524403Y-96590557D01*
X214540197Y-96609803D01*
X214559443Y-96625597D01*
X214573204Y-96633592D01*
X217043000Y-97868490D01*
X217043000Y-132027394D01*
X215595000Y-133475394D01*
X215595000Y-133129872D01*
X215509110Y-132698075D01*
X215340631Y-132291331D01*
X215096038Y-131925271D01*
X214784729Y-131613962D01*
X214418669Y-131369369D01*
X214011925Y-131200890D01*
X213580128Y-131115000D01*
X213139872Y-131115000D01*
X212708075Y-131200890D01*
X212301331Y-131369369D01*
X211935271Y-131613962D01*
X211623962Y-131925271D01*
X211379369Y-132291331D01*
X211210890Y-132698075D01*
X211125000Y-133129872D01*
X211125000Y-133570128D01*
X211210890Y-134001925D01*
X211379369Y-134408669D01*
X211435717Y-134493000D01*
X209256341Y-134493000D01*
X209444039Y-134305302D01*
X209608042Y-134059853D01*
X209721010Y-133787125D01*
X209778600Y-133497599D01*
X209778600Y-133202401D01*
X209721010Y-132912875D01*
X209608042Y-132640147D01*
X209444039Y-132394698D01*
X209235302Y-132185961D01*
X208989853Y-132021958D01*
X208717125Y-131908990D01*
X208427599Y-131851400D01*
X208132401Y-131851400D01*
X207842875Y-131908990D01*
X207570147Y-132021958D01*
X207324698Y-132185961D01*
X207115961Y-132394698D01*
X207010000Y-132553281D01*
X206904039Y-132394698D01*
X206695302Y-132185961D01*
X206449853Y-132021958D01*
X206177125Y-131908990D01*
X205887599Y-131851400D01*
X205592401Y-131851400D01*
X205302875Y-131908990D01*
X205030147Y-132021958D01*
X204784698Y-132185961D01*
X204575961Y-132394698D01*
X204470000Y-132553281D01*
X204364039Y-132394698D01*
X204155302Y-132185961D01*
X203909853Y-132021958D01*
X203637125Y-131908990D01*
X203347599Y-131851400D01*
X203052401Y-131851400D01*
X202762875Y-131908990D01*
X202490147Y-132021958D01*
X202244698Y-132185961D01*
X202035961Y-132394698D01*
X201930000Y-132553281D01*
X201824039Y-132394698D01*
X201615302Y-132185961D01*
X201369853Y-132021958D01*
X201097125Y-131908990D01*
X200807599Y-131851400D01*
X200512401Y-131851400D01*
X200222875Y-131908990D01*
X199950147Y-132021958D01*
X199704698Y-132185961D01*
X199495961Y-132394698D01*
X199390000Y-132553281D01*
X199284039Y-132394698D01*
X199075302Y-132185961D01*
X198829853Y-132021958D01*
X198557125Y-131908990D01*
X198267599Y-131851400D01*
X197972401Y-131851400D01*
X197682875Y-131908990D01*
X197410147Y-132021958D01*
X197164698Y-132185961D01*
X196955961Y-132394698D01*
X196850000Y-132553281D01*
X196744039Y-132394698D01*
X196535302Y-132185961D01*
X196289853Y-132021958D01*
X196017125Y-131908990D01*
X195727599Y-131851400D01*
X195432401Y-131851400D01*
X195142875Y-131908990D01*
X194870147Y-132021958D01*
X194624698Y-132185961D01*
X194415961Y-132394698D01*
X194310000Y-132553281D01*
X194204039Y-132394698D01*
X193995302Y-132185961D01*
X193749853Y-132021958D01*
X193477125Y-131908990D01*
X193187599Y-131851400D01*
X192892401Y-131851400D01*
X192602875Y-131908990D01*
X192330147Y-132021958D01*
X192084698Y-132185961D01*
X191875961Y-132394698D01*
X191770000Y-132553281D01*
X191664039Y-132394698D01*
X191455302Y-132185961D01*
X191209853Y-132021958D01*
X190937125Y-131908990D01*
X190647599Y-131851400D01*
X190352401Y-131851400D01*
X190062875Y-131908990D01*
X189790147Y-132021958D01*
X189544698Y-132185961D01*
X189335961Y-132394698D01*
X189171958Y-132640147D01*
X189058990Y-132912875D01*
X189001400Y-133202401D01*
X189001400Y-133497599D01*
X189058990Y-133787125D01*
X189171958Y-134059853D01*
X189335961Y-134305302D01*
X189523659Y-134493000D01*
X186396341Y-134493000D01*
X186584039Y-134305302D01*
X186748042Y-134059853D01*
X186861010Y-133787125D01*
X186918600Y-133497599D01*
X186918600Y-133202401D01*
X186861010Y-132912875D01*
X186748042Y-132640147D01*
X186584039Y-132394698D01*
X186375302Y-132185961D01*
X186129853Y-132021958D01*
X185857125Y-131908990D01*
X185567599Y-131851400D01*
X185272401Y-131851400D01*
X184982875Y-131908990D01*
X184710147Y-132021958D01*
X184464698Y-132185961D01*
X184255961Y-132394698D01*
X184150000Y-132553281D01*
X184044039Y-132394698D01*
X183835302Y-132185961D01*
X183589853Y-132021958D01*
X183317125Y-131908990D01*
X183027599Y-131851400D01*
X182732401Y-131851400D01*
X182442875Y-131908990D01*
X182170147Y-132021958D01*
X181924698Y-132185961D01*
X181715961Y-132394698D01*
X181610000Y-132553281D01*
X181504039Y-132394698D01*
X181295302Y-132185961D01*
X181049853Y-132021958D01*
X180777125Y-131908990D01*
X180487599Y-131851400D01*
X180192401Y-131851400D01*
X179902875Y-131908990D01*
X179630147Y-132021958D01*
X179384698Y-132185961D01*
X179175961Y-132394698D01*
X179070000Y-132553281D01*
X178964039Y-132394698D01*
X178755302Y-132185961D01*
X178509853Y-132021958D01*
X178237125Y-131908990D01*
X177947599Y-131851400D01*
X177652401Y-131851400D01*
X177422026Y-131897224D01*
X175889180Y-130364379D01*
X175919774Y-130343937D01*
X176063937Y-130199774D01*
X176177205Y-130030256D01*
X176255226Y-129841898D01*
X176295000Y-129641939D01*
X176295000Y-129579801D01*
X177041003Y-128833799D01*
X177070001Y-128810001D01*
X177164974Y-128694276D01*
X177235546Y-128562247D01*
X177279003Y-128418986D01*
X177290000Y-128307333D01*
X177290000Y-128307324D01*
X177293676Y-128270001D01*
X177290000Y-128232678D01*
X177290000Y-121554013D01*
X177309744Y-121567205D01*
X177498102Y-121645226D01*
X177698061Y-121685000D01*
X177901939Y-121685000D01*
X178101898Y-121645226D01*
X178290256Y-121567205D01*
X178310001Y-121554012D01*
X178310001Y-129225197D01*
X177760199Y-129775000D01*
X177698061Y-129775000D01*
X177498102Y-129814774D01*
X177309744Y-129892795D01*
X177140226Y-130006063D01*
X176996063Y-130150226D01*
X176882795Y-130319744D01*
X176804774Y-130508102D01*
X176765000Y-130708061D01*
X176765000Y-130911939D01*
X176804774Y-131111898D01*
X176882795Y-131300256D01*
X176996063Y-131469774D01*
X177140226Y-131613937D01*
X177309744Y-131727205D01*
X177498102Y-131805226D01*
X177698061Y-131845000D01*
X177901939Y-131845000D01*
X178101898Y-131805226D01*
X178290256Y-131727205D01*
X178459774Y-131613937D01*
X178603937Y-131469774D01*
X178717205Y-131300256D01*
X178795226Y-131111898D01*
X178835000Y-130911939D01*
X178835000Y-130849801D01*
X179581003Y-130103799D01*
X179610001Y-130080001D01*
X179704974Y-129964276D01*
X179775546Y-129832247D01*
X179819003Y-129688986D01*
X179830000Y-129577333D01*
X179830000Y-129577324D01*
X179833676Y-129540001D01*
X179830000Y-129502678D01*
X179830000Y-128629026D01*
X209365042Y-128629026D01*
X209410778Y-128779814D01*
X209537316Y-129044944D01*
X209713146Y-129280293D01*
X209931512Y-129476817D01*
X210184022Y-129626964D01*
X210460973Y-129724963D01*
X210693000Y-129604464D01*
X210693000Y-128397000D01*
X209486183Y-128397000D01*
X209365042Y-128629026D01*
X179830000Y-128629026D01*
X179830000Y-125364013D01*
X179849744Y-125377205D01*
X180038102Y-125455226D01*
X180238061Y-125495000D01*
X180441939Y-125495000D01*
X180641898Y-125455226D01*
X180830256Y-125377205D01*
X180999774Y-125263937D01*
X181143937Y-125119774D01*
X181257205Y-124950256D01*
X181335226Y-124761898D01*
X181375000Y-124561939D01*
X181375000Y-124358061D01*
X181335226Y-124158102D01*
X181257205Y-123969744D01*
X181143937Y-123800226D01*
X181100000Y-123756289D01*
X181100000Y-111193711D01*
X181143937Y-111149774D01*
X181257205Y-110980256D01*
X181335226Y-110791898D01*
X181375000Y-110591939D01*
X181375000Y-110388061D01*
X181335226Y-110188102D01*
X181257205Y-109999744D01*
X181143937Y-109830226D01*
X180999774Y-109686063D01*
X180830256Y-109572795D01*
X180641898Y-109494774D01*
X180441939Y-109455000D01*
X180238061Y-109455000D01*
X180038102Y-109494774D01*
X179849744Y-109572795D01*
X179830000Y-109585987D01*
X179830000Y-108168072D01*
X179920000Y-108168072D01*
X180044482Y-108155812D01*
X180164180Y-108119502D01*
X180274494Y-108060537D01*
X180371185Y-107981185D01*
X180450537Y-107884494D01*
X180509502Y-107774180D01*
X180545812Y-107654482D01*
X180558072Y-107530000D01*
X180558072Y-107334326D01*
X180594276Y-107314974D01*
X180710001Y-107220001D01*
X180733804Y-107190997D01*
X187067529Y-100857273D01*
X187156063Y-100989774D01*
X187200000Y-101033711D01*
X187200000Y-101562668D01*
X187200001Y-103825197D01*
X183639003Y-107386196D01*
X183609999Y-107409999D01*
X183569175Y-107459744D01*
X183515026Y-107525724D01*
X183461089Y-107626632D01*
X183444454Y-107657754D01*
X183400997Y-107801015D01*
X183390000Y-107912668D01*
X183390000Y-107912678D01*
X183386324Y-107950000D01*
X183390000Y-107987322D01*
X183390001Y-113395988D01*
X183370256Y-113382795D01*
X183181898Y-113304774D01*
X182981939Y-113265000D01*
X182778061Y-113265000D01*
X182578102Y-113304774D01*
X182389744Y-113382795D01*
X182220226Y-113496063D01*
X182076063Y-113640226D01*
X181962795Y-113809744D01*
X181884774Y-113998102D01*
X181845000Y-114198061D01*
X181845000Y-114401939D01*
X181884774Y-114601898D01*
X181962795Y-114790256D01*
X182076063Y-114959774D01*
X182120000Y-115003711D01*
X182120001Y-119946288D01*
X182076063Y-119990226D01*
X181962795Y-120159744D01*
X181884774Y-120348102D01*
X181845000Y-120548061D01*
X181845000Y-120751939D01*
X181884774Y-120951898D01*
X181962795Y-121140256D01*
X182076063Y-121309774D01*
X182220226Y-121453937D01*
X182389744Y-121567205D01*
X182578102Y-121645226D01*
X182778061Y-121685000D01*
X182981939Y-121685000D01*
X183181898Y-121645226D01*
X183370256Y-121567205D01*
X183390001Y-121554012D01*
X183390001Y-125026288D01*
X183346063Y-125070226D01*
X183232795Y-125239744D01*
X183154774Y-125428102D01*
X183115000Y-125628061D01*
X183115000Y-125831939D01*
X183154774Y-126031898D01*
X183232795Y-126220256D01*
X183346063Y-126389774D01*
X183490226Y-126533937D01*
X183659744Y-126647205D01*
X183848102Y-126725226D01*
X184048061Y-126765000D01*
X184251939Y-126765000D01*
X184451898Y-126725226D01*
X184640256Y-126647205D01*
X184809774Y-126533937D01*
X184953937Y-126389774D01*
X185067205Y-126220256D01*
X185145226Y-126031898D01*
X185185000Y-125831939D01*
X185185000Y-125628061D01*
X185145226Y-125428102D01*
X185067205Y-125239744D01*
X184953937Y-125070226D01*
X184910000Y-125026289D01*
X184910000Y-108264801D01*
X188470015Y-104704787D01*
X188470006Y-116275204D01*
X187725000Y-115530199D01*
X187725000Y-115468061D01*
X187685226Y-115268102D01*
X187607205Y-115079744D01*
X187493937Y-114910226D01*
X187349774Y-114766063D01*
X187180256Y-114652795D01*
X186991898Y-114574774D01*
X186791939Y-114535000D01*
X186588061Y-114535000D01*
X186388102Y-114574774D01*
X186199744Y-114652795D01*
X186030226Y-114766063D01*
X185886063Y-114910226D01*
X185772795Y-115079744D01*
X185694774Y-115268102D01*
X185655000Y-115468061D01*
X185655000Y-115671939D01*
X185694774Y-115871898D01*
X185772795Y-116060256D01*
X185886063Y-116229774D01*
X186030226Y-116373937D01*
X186199744Y-116487205D01*
X186388102Y-116565226D01*
X186588061Y-116605000D01*
X186650199Y-116605000D01*
X187200001Y-117154803D01*
X187200000Y-118676289D01*
X187156063Y-118720226D01*
X187042795Y-118889744D01*
X186964774Y-119078102D01*
X186925000Y-119278061D01*
X186925000Y-119481939D01*
X186964774Y-119681898D01*
X187042795Y-119870256D01*
X187139510Y-120015000D01*
X187042795Y-120159744D01*
X186964774Y-120348102D01*
X186925000Y-120548061D01*
X186925000Y-120751939D01*
X186964774Y-120951898D01*
X187042795Y-121140256D01*
X187156063Y-121309774D01*
X187200001Y-121353712D01*
X187200000Y-125692677D01*
X187196324Y-125730000D01*
X187200000Y-125767322D01*
X187200000Y-125767332D01*
X187210997Y-125878985D01*
X187225527Y-125926884D01*
X187254454Y-126022246D01*
X187325026Y-126154276D01*
X187359320Y-126196063D01*
X187419999Y-126270001D01*
X187449003Y-126293804D01*
X188666201Y-127511003D01*
X188689999Y-127540001D01*
X188805724Y-127634974D01*
X188937753Y-127705546D01*
X189081014Y-127749003D01*
X189192667Y-127760000D01*
X189192676Y-127760000D01*
X189229999Y-127763676D01*
X189267322Y-127760000D01*
X209410867Y-127760000D01*
X209410778Y-127760186D01*
X209365042Y-127910974D01*
X209486183Y-128143000D01*
X210693000Y-128143000D01*
X210693000Y-128123000D01*
X210947000Y-128123000D01*
X210947000Y-128143000D01*
X210967000Y-128143000D01*
X210967000Y-128397000D01*
X210947000Y-128397000D01*
X210947000Y-129604464D01*
X211179027Y-129724963D01*
X211455978Y-129626964D01*
X211708488Y-129476817D01*
X211926854Y-129280293D01*
X212088308Y-129064187D01*
X212195961Y-129225302D01*
X212404698Y-129434039D01*
X212650147Y-129598042D01*
X212922875Y-129711010D01*
X213212401Y-129768600D01*
X213507599Y-129768600D01*
X213797125Y-129711010D01*
X214069853Y-129598042D01*
X214315302Y-129434039D01*
X214524039Y-129225302D01*
X214688042Y-128979853D01*
X214801010Y-128707125D01*
X214858600Y-128417599D01*
X214858600Y-128122401D01*
X214801010Y-127832875D01*
X214688042Y-127560147D01*
X214558163Y-127365768D01*
X215141002Y-126782929D01*
X215170001Y-126759131D01*
X215230591Y-126685302D01*
X215264974Y-126643407D01*
X215335546Y-126511377D01*
X215340915Y-126493676D01*
X215379003Y-126368116D01*
X215390000Y-126256463D01*
X215390000Y-126256453D01*
X215393676Y-126219130D01*
X215390000Y-126181807D01*
X215390000Y-111797322D01*
X215393676Y-111759999D01*
X215390000Y-111722676D01*
X215390000Y-111722667D01*
X215379003Y-111611014D01*
X215335546Y-111467753D01*
X215264974Y-111335724D01*
X215170001Y-111219999D01*
X215141003Y-111196201D01*
X214812776Y-110867974D01*
X214858600Y-110637599D01*
X214858600Y-110342401D01*
X214801010Y-110052875D01*
X214688042Y-109780147D01*
X214524039Y-109534698D01*
X214315302Y-109325961D01*
X214156719Y-109220000D01*
X214315302Y-109114039D01*
X214524039Y-108905302D01*
X214688042Y-108659853D01*
X214801010Y-108387125D01*
X214858600Y-108097599D01*
X214858600Y-107802401D01*
X214801010Y-107512875D01*
X214688042Y-107240147D01*
X214524039Y-106994698D01*
X214315302Y-106785961D01*
X214156719Y-106680000D01*
X214315302Y-106574039D01*
X214524039Y-106365302D01*
X214688042Y-106119853D01*
X214801010Y-105847125D01*
X214858600Y-105557599D01*
X214858600Y-105262401D01*
X214801010Y-104972875D01*
X214688042Y-104700147D01*
X214524039Y-104454698D01*
X214315302Y-104245961D01*
X214156719Y-104140000D01*
X214315302Y-104034039D01*
X214524039Y-103825302D01*
X214688042Y-103579853D01*
X214801010Y-103307125D01*
X214858600Y-103017599D01*
X214858600Y-102722401D01*
X214801010Y-102432875D01*
X214688042Y-102160147D01*
X214524039Y-101914698D01*
X214315302Y-101705961D01*
X214156719Y-101600000D01*
X214315302Y-101494039D01*
X214524039Y-101285302D01*
X214688042Y-101039853D01*
X214801010Y-100767125D01*
X214858600Y-100477599D01*
X214858600Y-100182401D01*
X214801010Y-99892875D01*
X214688042Y-99620147D01*
X214524039Y-99374698D01*
X214315302Y-99165961D01*
X214156719Y-99060000D01*
X214315302Y-98954039D01*
X214524039Y-98745302D01*
X214688042Y-98499853D01*
X214801010Y-98227125D01*
X214858600Y-97937599D01*
X214858600Y-97642401D01*
X214801010Y-97352875D01*
X214688042Y-97080147D01*
X214524039Y-96834698D01*
X214315302Y-96625961D01*
X214156719Y-96520000D01*
X214315302Y-96414039D01*
X214503000Y-96226341D01*
X214503000Y-96520000D01*
G36*
X123306525Y-112706632D02*
G01*
X123513368Y-112913475D01*
X123687760Y-113030000D01*
X123513368Y-113146525D01*
X123306525Y-113353368D01*
X123188900Y-113529406D01*
X123017588Y-113299731D01*
X122801355Y-113104822D01*
X122684466Y-113035195D01*
X122866632Y-112913475D01*
X123073475Y-112706632D01*
X123190000Y-112532240D01*
X123306525Y-112706632D01*
G37*
X123306525Y-112706632D02*
X123513368Y-112913475D01*
X123687760Y-113030000D01*
X123513368Y-113146525D01*
X123306525Y-113353368D01*
X123188900Y-113529406D01*
X123017588Y-113299731D01*
X122801355Y-113104822D01*
X122684466Y-113035195D01*
X122866632Y-112913475D01*
X123073475Y-112706632D01*
X123190000Y-112532240D01*
X123306525Y-112706632D01*
M02*
