M48
; DRILL file {KiCad (5.1.5-0-10_14)} date Sunday, March 01, 2020 at 04:55:36 PM
; FORMAT={-:-/ absolute / inch / decimal}
; #@! TF.CreationDate,2020-03-01T16:55:36-06:00
; #@! TF.GenerationSoftware,Kicad,Pcbnew,(5.1.5-0-10_14)
; #@! TF.FileFunction,Plated,1,2,PTH
FMAT,2
INCH
T1C0.0157
T2C0.0315
T3C0.0394
T4C0.0400
%
G90
G05
T1
X4.6547Y-4.9953
X4.7Y-4.0
X4.95Y-3.9
X5.0Y-4.7
X5.35Y-4.0
X5.35Y-4.15
X5.35Y-4.2
X5.35Y-4.25
X5.45Y-3.7
X5.5Y-3.7
X5.5Y-3.9
X5.6Y-4.15
X5.6Y-4.25
X5.6Y-4.7
X5.65Y-4.45
X5.7Y-3.55
X5.7Y-4.85
X5.75Y-4.05
X5.75Y-4.55
X5.75Y-4.8
X5.95Y-4.15
X5.95Y-4.2
X6.0Y-4.55
X6.05Y-3.8
X6.15Y-4.05
X6.15Y-4.8
X6.2Y-4.15
X6.25Y-4.95
X6.3Y-4.75
X6.4Y-3.95
X6.4Y-4.0
X6.4Y-4.15
X6.4961Y-4.4539
X6.5Y-3.85
X6.5Y-4.5
X6.5413Y-4.75
X6.6Y-4.4
X6.8Y-4.0
X6.8Y-4.15
X6.85Y-4.15
X6.9Y-3.9
X6.9Y-4.25
X6.9Y-4.35
X6.9Y-4.5
X6.9Y-4.55
X6.9Y-5.1
X7.0Y-4.0
X7.0Y-4.75
X7.0Y-5.15
X7.1Y-4.85
X7.15Y-4.05
X7.15Y-4.1
X7.15Y-4.25
X7.15Y-4.4
X7.15Y-4.9
X7.25Y-3.7
X7.35Y-3.6
X7.35Y-4.7
X7.35Y-4.85
X7.4Y-3.7
X7.4Y-4.55
X7.4Y-4.7
X7.4Y-4.75
X7.45Y-3.8
X7.45Y-3.9
X7.45Y-4.05
X7.5Y-3.5
X7.5Y-3.95
X7.5Y-4.1
X7.5Y-4.35
X7.5Y-4.35
X7.5Y-4.85
X7.55Y-3.75
X7.55Y-3.75
X7.55Y-4.2
X7.55Y-4.35
X7.55Y-4.95
X7.6Y-4.45
X7.7Y-3.55
X7.75Y-3.8
X7.75Y-4.3
X7.75Y-4.55
X7.8Y-3.85
X7.8Y-4.25
X7.8Y-4.6
X7.85Y-3.9
X7.85Y-4.65
X7.9Y-3.95
X7.9Y-4.7
X7.95Y-3.85
X7.95Y-4.0
X7.95Y-4.75
X8.0Y-3.9
X8.0Y-4.05
X8.0Y-4.8
X8.05Y-4.1
X8.05Y-4.85
X8.1Y-4.15
X8.1Y-4.9
X8.2Y-5.15
X8.5Y-4.7
T2
X6.45Y-4.7
X6.45Y-4.8
X6.45Y-4.9
X6.45Y-5.0
X6.75Y-4.7
X6.75Y-4.8
X6.75Y-4.9
X6.75Y-5.0
T3
X6.3Y-3.95
X7.05Y-4.2
X4.7Y-3.4
X5.1Y-3.8
X5.25Y-3.7
X5.85Y-3.55
X5.85Y-3.65
X5.95Y-3.55
X5.95Y-3.65
X6.05Y-3.55
X6.05Y-3.65
X6.15Y-3.55
X6.15Y-3.65
X6.2Y-4.35
X4.8Y-4.2
X4.8Y-4.3
X4.8Y-4.4
X4.8Y-4.5
X4.8Y-4.6
X4.9Y-4.2
X4.9Y-4.3
X4.9Y-4.4
X4.9Y-4.5
X4.9Y-4.6
X6.25Y-4.95
X5.7Y-4.2
X5.65Y-3.85
X4.9Y-3.4
T4
X5.34Y-3.35
X5.44Y-3.35
X5.54Y-3.35
X5.64Y-3.35
X5.7Y-5.25
X5.74Y-3.35
X5.8Y-5.25
X5.84Y-3.35
X5.9Y-5.25
X5.94Y-3.35
X6.0Y-5.25
X6.04Y-3.35
X6.1Y-5.25
X6.14Y-3.35
X6.2Y-5.25
X6.24Y-3.35
X6.3Y-5.25
X6.4Y-3.35
X6.4Y-5.25
X6.5Y-3.35
X6.6Y-3.35
X6.6Y-5.25
X6.7Y-3.35
X6.7Y-5.25
X6.8Y-3.35
X6.8Y-5.25
X6.9Y-3.35
X6.9Y-5.25
X7.0Y-3.35
X7.0Y-5.25
X7.1Y-3.35
X7.1Y-5.25
X7.2Y-5.25
X7.3Y-3.35
X7.3Y-5.25
X7.4Y-3.35
X7.5Y-3.35
X7.5Y-5.25
X7.6Y-3.35
X7.6Y-5.25
X7.7Y-3.35
X7.7Y-5.25
X7.8Y-3.35
X7.8Y-5.25
X7.9Y-3.35
X7.9Y-5.25
X8.0Y-3.35
X8.0Y-5.25
X8.1Y-5.25
X8.2Y-5.25
X8.3Y-3.35
X8.3Y-3.45
X8.3Y-3.55
X8.3Y-3.65
X8.3Y-3.75
X8.3Y-3.85
X8.3Y-3.95
X8.3Y-4.05
X8.3Y-4.15
X8.3Y-4.25
X8.3Y-4.35
X8.3Y-4.45
X8.3Y-4.55
X8.3Y-4.65
X8.3Y-4.75
X8.3Y-4.85
X8.3Y-4.95
X8.3Y-5.05
X8.4Y-3.35
X8.4Y-3.45
X8.4Y-3.55
X8.4Y-3.65
X8.4Y-3.75
X8.4Y-3.85
X8.4Y-3.95
X8.4Y-4.05
X8.4Y-4.15
X8.4Y-4.25
X8.4Y-4.35
X8.4Y-4.45
X8.4Y-4.55
X8.4Y-4.65
X8.4Y-4.75
X8.4Y-4.85
X8.4Y-4.95
X8.4Y-5.05
T0
M30
