G04 #@! TF.GenerationSoftware,KiCad,Pcbnew,(5.1.5-0-10_14)*
G04 #@! TF.CreationDate,2020-03-01T16:55:33-06:00*
G04 #@! TF.ProjectId,Electronic Target,456c6563-7472-46f6-9e69-632054617267,rev?*
G04 #@! TF.SameCoordinates,Original*
G04 #@! TF.FileFunction,Legend,Top*
G04 #@! TF.FilePolarity,Positive*
%FSLAX46Y46*%
G04 Gerber Fmt 4.6, Leading zero omitted, Abs format (unit mm)*
G04 Created by KiCad (PCBNEW (5.1.5-0-10_14)) date 2020-03-01 16:55:33*
%MOMM*%
%LPD*%
G04 APERTURE LIST*
%ADD10C,0.381000*%
%ADD11C,0.300000*%
%ADD12C,0.476250*%
%ADD13C,0.150000*%
%ADD14C,0.120000*%
%ADD15C,0.152400*%
G04 APERTURE END LIST*
D10*
X135043333Y-130568095D02*
X134801428Y-130689047D01*
X134317619Y-130689047D01*
X134075714Y-130568095D01*
X133954761Y-130326190D01*
X133954761Y-129358571D01*
X134075714Y-129116666D01*
X134317619Y-128995714D01*
X134801428Y-128995714D01*
X135043333Y-129116666D01*
X135164285Y-129358571D01*
X135164285Y-129600476D01*
X133954761Y-129842380D01*
X135890000Y-128149047D02*
X137341428Y-128149047D01*
X136615714Y-130689047D02*
X136615714Y-128149047D01*
X139276666Y-130689047D02*
X139276666Y-129358571D01*
X139155714Y-129116666D01*
X138913809Y-128995714D01*
X138430000Y-128995714D01*
X138188095Y-129116666D01*
X139276666Y-130568095D02*
X139034761Y-130689047D01*
X138430000Y-130689047D01*
X138188095Y-130568095D01*
X138067142Y-130326190D01*
X138067142Y-130084285D01*
X138188095Y-129842380D01*
X138430000Y-129721428D01*
X139034761Y-129721428D01*
X139276666Y-129600476D01*
X140486190Y-130689047D02*
X140486190Y-128995714D01*
X140486190Y-129479523D02*
X140607142Y-129237619D01*
X140728095Y-129116666D01*
X140970000Y-128995714D01*
X141211904Y-128995714D01*
X143147142Y-128995714D02*
X143147142Y-131051904D01*
X143026190Y-131293809D01*
X142905238Y-131414761D01*
X142663333Y-131535714D01*
X142300476Y-131535714D01*
X142058571Y-131414761D01*
X143147142Y-130568095D02*
X142905238Y-130689047D01*
X142421428Y-130689047D01*
X142179523Y-130568095D01*
X142058571Y-130447142D01*
X141937619Y-130205238D01*
X141937619Y-129479523D01*
X142058571Y-129237619D01*
X142179523Y-129116666D01*
X142421428Y-128995714D01*
X142905238Y-128995714D01*
X143147142Y-129116666D01*
X145324285Y-130568095D02*
X145082380Y-130689047D01*
X144598571Y-130689047D01*
X144356666Y-130568095D01*
X144235714Y-130326190D01*
X144235714Y-129358571D01*
X144356666Y-129116666D01*
X144598571Y-128995714D01*
X145082380Y-128995714D01*
X145324285Y-129116666D01*
X145445238Y-129358571D01*
X145445238Y-129600476D01*
X144235714Y-129842380D01*
X146170952Y-128995714D02*
X147138571Y-128995714D01*
X146533809Y-128149047D02*
X146533809Y-130326190D01*
X146654761Y-130568095D01*
X146896666Y-130689047D01*
X147138571Y-130689047D01*
X149557619Y-128149047D02*
X150404285Y-130689047D01*
X151250952Y-128149047D01*
X151976666Y-128390952D02*
X152097619Y-128270000D01*
X152339523Y-128149047D01*
X152944285Y-128149047D01*
X153186190Y-128270000D01*
X153307142Y-128390952D01*
X153428095Y-128632857D01*
X153428095Y-128874761D01*
X153307142Y-129237619D01*
X151855714Y-130689047D01*
X153428095Y-130689047D01*
X154516666Y-130447142D02*
X154637619Y-130568095D01*
X154516666Y-130689047D01*
X154395714Y-130568095D01*
X154516666Y-130447142D01*
X154516666Y-130689047D01*
X156210000Y-128149047D02*
X156451904Y-128149047D01*
X156693809Y-128270000D01*
X156814761Y-128390952D01*
X156935714Y-128632857D01*
X157056666Y-129116666D01*
X157056666Y-129721428D01*
X156935714Y-130205238D01*
X156814761Y-130447142D01*
X156693809Y-130568095D01*
X156451904Y-130689047D01*
X156210000Y-130689047D01*
X155968095Y-130568095D01*
X155847142Y-130447142D01*
X155726190Y-130205238D01*
X155605238Y-129721428D01*
X155605238Y-129116666D01*
X155726190Y-128632857D01*
X155847142Y-128390952D01*
X155968095Y-128270000D01*
X156210000Y-128149047D01*
X158145238Y-130447142D02*
X158266190Y-130568095D01*
X158145238Y-130689047D01*
X158024285Y-130568095D01*
X158145238Y-130447142D01*
X158145238Y-130689047D01*
X159112857Y-128149047D02*
X160806190Y-130689047D01*
X160806190Y-128149047D02*
X159112857Y-130689047D01*
D11*
X119547142Y-122598571D02*
X119547142Y-121098571D01*
X119904285Y-121098571D01*
X120118571Y-121170000D01*
X120261428Y-121312857D01*
X120332857Y-121455714D01*
X120404285Y-121741428D01*
X120404285Y-121955714D01*
X120332857Y-122241428D01*
X120261428Y-122384285D01*
X120118571Y-122527142D01*
X119904285Y-122598571D01*
X119547142Y-122598571D01*
X121047142Y-121812857D02*
X121547142Y-121812857D01*
X121761428Y-122598571D02*
X121047142Y-122598571D01*
X121047142Y-121098571D01*
X121761428Y-121098571D01*
X122190000Y-121098571D02*
X123047142Y-121098571D01*
X122618571Y-122598571D02*
X122618571Y-121098571D01*
X123547142Y-121812857D02*
X124047142Y-121812857D01*
X124261428Y-122598571D02*
X123547142Y-122598571D01*
X123547142Y-121098571D01*
X124261428Y-121098571D01*
X125761428Y-122455714D02*
X125690000Y-122527142D01*
X125475714Y-122598571D01*
X125332857Y-122598571D01*
X125118571Y-122527142D01*
X124975714Y-122384285D01*
X124904285Y-122241428D01*
X124832857Y-121955714D01*
X124832857Y-121741428D01*
X124904285Y-121455714D01*
X124975714Y-121312857D01*
X125118571Y-121170000D01*
X125332857Y-121098571D01*
X125475714Y-121098571D01*
X125690000Y-121170000D01*
X125761428Y-121241428D01*
X126190000Y-121098571D02*
X127047142Y-121098571D01*
X126618571Y-122598571D02*
X126618571Y-121098571D01*
D10*
X177800000Y-91394642D02*
X177800000Y-92301785D01*
X176953333Y-90396785D02*
X177800000Y-91394642D01*
X178646666Y-90396785D01*
X171873333Y-90396785D02*
X173566666Y-92301785D01*
X173566666Y-90396785D02*
X171873333Y-92301785D01*
X166914285Y-92211071D02*
X167277142Y-92301785D01*
X167881904Y-92301785D01*
X168123809Y-92211071D01*
X168244761Y-92120357D01*
X168365714Y-91938928D01*
X168365714Y-91757500D01*
X168244761Y-91576071D01*
X168123809Y-91485357D01*
X167881904Y-91394642D01*
X167398095Y-91303928D01*
X167156190Y-91213214D01*
X167035238Y-91122500D01*
X166914285Y-90941071D01*
X166914285Y-90759642D01*
X167035238Y-90578214D01*
X167156190Y-90487500D01*
X167398095Y-90396785D01*
X168002857Y-90396785D01*
X168365714Y-90487500D01*
D12*
X147985238Y-87947500D02*
X149194761Y-87947500D01*
X147743333Y-88491785D02*
X148590000Y-86586785D01*
X149436666Y-88491785D01*
X151130000Y-87493928D02*
X151492857Y-87584642D01*
X151613809Y-87675357D01*
X151734761Y-87856785D01*
X151734761Y-88128928D01*
X151613809Y-88310357D01*
X151492857Y-88401071D01*
X151250952Y-88491785D01*
X150283333Y-88491785D01*
X150283333Y-86586785D01*
X151130000Y-86586785D01*
X151371904Y-86677500D01*
X151492857Y-86768214D01*
X151613809Y-86949642D01*
X151613809Y-87131071D01*
X151492857Y-87312500D01*
X151371904Y-87403214D01*
X151130000Y-87493928D01*
X150283333Y-87493928D01*
X154274761Y-88310357D02*
X154153809Y-88401071D01*
X153790952Y-88491785D01*
X153549047Y-88491785D01*
X153186190Y-88401071D01*
X152944285Y-88219642D01*
X152823333Y-88038214D01*
X152702380Y-87675357D01*
X152702380Y-87403214D01*
X152823333Y-87040357D01*
X152944285Y-86858928D01*
X153186190Y-86677500D01*
X153549047Y-86586785D01*
X153790952Y-86586785D01*
X154153809Y-86677500D01*
X154274761Y-86768214D01*
X155363333Y-88491785D02*
X155363333Y-86586785D01*
X155968095Y-86586785D01*
X156330952Y-86677500D01*
X156572857Y-86858928D01*
X156693809Y-87040357D01*
X156814761Y-87403214D01*
X156814761Y-87675357D01*
X156693809Y-88038214D01*
X156572857Y-88219642D01*
X156330952Y-88401071D01*
X155968095Y-88491785D01*
X155363333Y-88491785D01*
D13*
X116840000Y-82550000D02*
X116840000Y-135890000D01*
X215900000Y-95250000D02*
X215900000Y-84074000D01*
X218440000Y-97790000D02*
X215900000Y-95250000D01*
X218440000Y-132080000D02*
X218440000Y-97790000D01*
X215900000Y-134620000D02*
X218440000Y-132080000D01*
X215900000Y-135890000D02*
X215900000Y-134620000D01*
X214376000Y-82550000D02*
X215900000Y-84074000D01*
X116840000Y-135890000D02*
X215900000Y-135890000D01*
X116840000Y-82550000D02*
X214376000Y-82550000D01*
D14*
X189230000Y-108110000D02*
X193090000Y-108110000D01*
X193090000Y-108110000D02*
X193090000Y-107875000D01*
X189230000Y-108110000D02*
X185370000Y-108110000D01*
X185370000Y-108110000D02*
X185370000Y-107875000D01*
X189230000Y-95090000D02*
X193090000Y-95090000D01*
X193090000Y-95090000D02*
X193090000Y-95325000D01*
X189230000Y-95090000D02*
X185370000Y-95090000D01*
X185370000Y-95090000D02*
X185370000Y-95325000D01*
X185370000Y-95325000D02*
X183555000Y-95325000D01*
X123708752Y-100770000D02*
X120936248Y-100770000D01*
X123708752Y-97350000D02*
X120936248Y-97350000D01*
X135631422Y-97080000D02*
X136148578Y-97080000D01*
X135631422Y-98500000D02*
X136148578Y-98500000D01*
X150871422Y-97230000D02*
X151388578Y-97230000D01*
X150871422Y-95810000D02*
X151388578Y-95810000D01*
X167566078Y-115010000D02*
X167048922Y-115010000D01*
X167566078Y-113590000D02*
X167048922Y-113590000D01*
X192781422Y-90880000D02*
X193298578Y-90880000D01*
X192781422Y-89460000D02*
X193298578Y-89460000D01*
X149601422Y-116280000D02*
X150118578Y-116280000D01*
X149601422Y-114860000D02*
X150118578Y-114860000D01*
X167566078Y-98500000D02*
X167048922Y-98500000D01*
X167566078Y-97080000D02*
X167048922Y-97080000D01*
X186616078Y-111050000D02*
X186098922Y-111050000D01*
X186616078Y-112470000D02*
X186098922Y-112470000D01*
X139227936Y-88810000D02*
X140432064Y-88810000D01*
X139227936Y-91530000D02*
X140432064Y-91530000D01*
X168651422Y-88190000D02*
X169168578Y-88190000D01*
X168651422Y-89610000D02*
X169168578Y-89610000D01*
X173731422Y-89610000D02*
X174248578Y-89610000D01*
X173731422Y-88190000D02*
X174248578Y-88190000D01*
X178811422Y-89610000D02*
X179328578Y-89610000D01*
X178811422Y-88190000D02*
X179328578Y-88190000D01*
X120590000Y-118170000D02*
X125790000Y-118170000D01*
X120590000Y-107950000D02*
X120590000Y-118170000D01*
X125790000Y-105350000D02*
X125790000Y-118170000D01*
X120590000Y-107950000D02*
X123190000Y-107950000D01*
X123190000Y-107950000D02*
X123190000Y-105350000D01*
X123190000Y-105350000D02*
X125790000Y-105350000D01*
X120590000Y-106680000D02*
X120590000Y-105350000D01*
X120590000Y-105350000D02*
X121920000Y-105350000D01*
X129798578Y-120090000D02*
X129281422Y-120090000D01*
X129798578Y-118670000D02*
X129281422Y-118670000D01*
X128343922Y-103430000D02*
X128861078Y-103430000D01*
X128343922Y-104850000D02*
X128861078Y-104850000D01*
X128343922Y-102310000D02*
X128861078Y-102310000D01*
X128343922Y-100890000D02*
X128861078Y-100890000D01*
X142498578Y-102310000D02*
X141981422Y-102310000D01*
X142498578Y-100890000D02*
X141981422Y-100890000D01*
X143768578Y-93270000D02*
X143251422Y-93270000D01*
X143768578Y-94690000D02*
X143251422Y-94690000D01*
X168983922Y-93270000D02*
X169501078Y-93270000D01*
X168983922Y-94690000D02*
X169501078Y-94690000D01*
X173731422Y-93270000D02*
X174248578Y-93270000D01*
X173731422Y-94690000D02*
X174248578Y-94690000D01*
X178811422Y-93270000D02*
X179328578Y-93270000D01*
X178811422Y-94690000D02*
X179328578Y-94690000D01*
D15*
X120662700Y-125408040D02*
X120662700Y-126051960D01*
X120662700Y-127708040D02*
X120662700Y-128511300D01*
X125717300Y-124724160D02*
X125717300Y-122948700D01*
X120662700Y-122948700D02*
X120662700Y-123751960D01*
X120662700Y-128511300D02*
X125717300Y-128511300D01*
X125717300Y-128511300D02*
X125717300Y-126735840D01*
X125717300Y-122948700D02*
X120662700Y-122948700D01*
X119913400Y-121805700D02*
G75*
G03X119913400Y-121805700I-127000J0D01*
G01*
D14*
X143450000Y-108010000D02*
X146110000Y-108010000D01*
X143450000Y-107950000D02*
X143450000Y-108010000D01*
X146110000Y-107950000D02*
X146110000Y-108010000D01*
X143450000Y-107950000D02*
X146110000Y-107950000D01*
X143450000Y-106680000D02*
X143450000Y-105350000D01*
X143450000Y-105350000D02*
X144780000Y-105350000D01*
X128210000Y-95190000D02*
X129540000Y-95190000D01*
X128210000Y-96520000D02*
X128210000Y-95190000D01*
X128210000Y-97790000D02*
X130870000Y-97790000D01*
X130870000Y-97790000D02*
X130870000Y-97850000D01*
X128210000Y-97790000D02*
X128210000Y-97850000D01*
X128210000Y-97850000D02*
X130870000Y-97850000D01*
X142180000Y-99120000D02*
X144840000Y-99120000D01*
X142180000Y-99060000D02*
X142180000Y-99120000D01*
X144840000Y-99060000D02*
X144840000Y-99120000D01*
X142180000Y-99060000D02*
X144840000Y-99060000D01*
X142180000Y-97790000D02*
X142180000Y-96460000D01*
X142180000Y-96460000D02*
X143510000Y-96460000D01*
X132020000Y-92650000D02*
X133350000Y-92650000D01*
X132020000Y-93980000D02*
X132020000Y-92650000D01*
X132020000Y-95250000D02*
X134680000Y-95250000D01*
X134680000Y-95250000D02*
X134680000Y-95310000D01*
X132020000Y-95250000D02*
X132020000Y-95310000D01*
X132020000Y-95310000D02*
X134680000Y-95310000D01*
X158690000Y-99000000D02*
X160020000Y-99000000D01*
X158690000Y-100330000D02*
X158690000Y-99000000D01*
X158690000Y-101600000D02*
X161350000Y-101600000D01*
X161350000Y-101600000D02*
X161350000Y-101660000D01*
X158690000Y-101600000D02*
X158690000Y-101660000D01*
X158690000Y-101660000D02*
X161350000Y-101660000D01*
X156150000Y-111820000D02*
X158810000Y-111820000D01*
X156150000Y-111760000D02*
X156150000Y-111820000D01*
X158810000Y-111760000D02*
X158810000Y-111820000D01*
X156150000Y-111760000D02*
X158810000Y-111760000D01*
X156150000Y-110490000D02*
X156150000Y-109160000D01*
X156150000Y-109160000D02*
X157480000Y-109160000D01*
X177740000Y-105350000D02*
X179070000Y-105350000D01*
X177740000Y-106680000D02*
X177740000Y-105350000D01*
X177740000Y-107950000D02*
X180400000Y-107950000D01*
X180400000Y-107950000D02*
X180400000Y-108010000D01*
X177740000Y-107950000D02*
X177740000Y-108010000D01*
X177740000Y-108010000D02*
X180400000Y-108010000D01*
X157420000Y-127060000D02*
X160080000Y-127060000D01*
X157420000Y-127000000D02*
X157420000Y-127060000D01*
X160080000Y-127000000D02*
X160080000Y-127060000D01*
X157420000Y-127000000D02*
X160080000Y-127000000D01*
X157420000Y-125730000D02*
X157420000Y-124400000D01*
X157420000Y-124400000D02*
X158750000Y-124400000D01*
X118050000Y-87690000D02*
X120710000Y-87690000D01*
X118050000Y-87630000D02*
X118050000Y-87690000D01*
X120710000Y-87630000D02*
X120710000Y-87690000D01*
X118050000Y-87630000D02*
X120710000Y-87630000D01*
X118050000Y-86360000D02*
X118050000Y-85030000D01*
X118050000Y-85030000D02*
X119380000Y-85030000D01*
X123130000Y-85030000D02*
X124460000Y-85030000D01*
X123130000Y-86360000D02*
X123130000Y-85030000D01*
X123130000Y-87630000D02*
X125790000Y-87630000D01*
X125790000Y-87630000D02*
X125790000Y-87690000D01*
X123130000Y-87630000D02*
X123130000Y-87690000D01*
X123130000Y-87690000D02*
X125790000Y-87690000D01*
X135890000Y-99705000D02*
X132440000Y-99705000D01*
X135890000Y-99705000D02*
X137840000Y-99705000D01*
X135890000Y-108575000D02*
X133940000Y-108575000D01*
X135890000Y-108575000D02*
X137840000Y-108575000D01*
X151130000Y-99705000D02*
X147680000Y-99705000D01*
X151130000Y-99705000D02*
X153080000Y-99705000D01*
X151130000Y-108575000D02*
X149180000Y-108575000D01*
X151130000Y-108575000D02*
X153080000Y-108575000D01*
X151130000Y-127625000D02*
X153080000Y-127625000D01*
X151130000Y-127625000D02*
X149180000Y-127625000D01*
X151130000Y-118755000D02*
X153080000Y-118755000D01*
X151130000Y-118755000D02*
X147680000Y-118755000D01*
X167640000Y-108575000D02*
X169590000Y-108575000D01*
X167640000Y-108575000D02*
X165690000Y-108575000D01*
X167640000Y-99705000D02*
X169590000Y-99705000D01*
X167640000Y-99705000D02*
X164190000Y-99705000D01*
X185370000Y-114375000D02*
X183555000Y-114375000D01*
X185370000Y-114140000D02*
X185370000Y-114375000D01*
X189230000Y-114140000D02*
X185370000Y-114140000D01*
X193090000Y-114140000D02*
X193090000Y-114375000D01*
X189230000Y-114140000D02*
X193090000Y-114140000D01*
X185370000Y-127160000D02*
X185370000Y-126925000D01*
X189230000Y-127160000D02*
X185370000Y-127160000D01*
X193090000Y-127160000D02*
X193090000Y-126925000D01*
X189230000Y-127160000D02*
X193090000Y-127160000D01*
X168640000Y-118050000D02*
G75*
G02X166640000Y-118050000I-1000000J0D01*
G01*
X166640000Y-118050000D02*
X164990000Y-118050000D01*
X164990000Y-118050000D02*
X164990000Y-128330000D01*
X164990000Y-128330000D02*
X170290000Y-128330000D01*
X170290000Y-128330000D02*
X170290000Y-118050000D01*
X170290000Y-118050000D02*
X168640000Y-118050000D01*
D13*
X118141904Y-80986380D02*
X118808571Y-81986380D01*
X118808571Y-80986380D02*
X118141904Y-81986380D01*
X119141904Y-81700666D02*
X119618095Y-81700666D01*
X119046666Y-81986380D02*
X119380000Y-80986380D01*
X119713333Y-81986380D01*
X120570476Y-81986380D02*
X119999047Y-81986380D01*
X120284761Y-81986380D02*
X120284761Y-80986380D01*
X120189523Y-81129238D01*
X120094285Y-81224476D01*
X119999047Y-81272095D01*
X179324000Y-104243142D02*
X179371619Y-104290761D01*
X179324000Y-104338380D01*
X179276380Y-104290761D01*
X179324000Y-104243142D01*
X179324000Y-104338380D01*
X188468095Y-93702380D02*
X188468095Y-94511904D01*
X188515714Y-94607142D01*
X188563333Y-94654761D01*
X188658571Y-94702380D01*
X188849047Y-94702380D01*
X188944285Y-94654761D01*
X188991904Y-94607142D01*
X189039523Y-94511904D01*
X189039523Y-93702380D01*
X189991904Y-93702380D02*
X189515714Y-93702380D01*
X189468095Y-94178571D01*
X189515714Y-94130952D01*
X189610952Y-94083333D01*
X189849047Y-94083333D01*
X189944285Y-94130952D01*
X189991904Y-94178571D01*
X190039523Y-94273809D01*
X190039523Y-94511904D01*
X189991904Y-94607142D01*
X189944285Y-94654761D01*
X189849047Y-94702380D01*
X189610952Y-94702380D01*
X189515714Y-94654761D01*
X189468095Y-94607142D01*
X122155833Y-102067142D02*
X122108214Y-102114761D01*
X121965357Y-102162380D01*
X121870119Y-102162380D01*
X121727261Y-102114761D01*
X121632023Y-102019523D01*
X121584404Y-101924285D01*
X121536785Y-101733809D01*
X121536785Y-101590952D01*
X121584404Y-101400476D01*
X121632023Y-101305238D01*
X121727261Y-101210000D01*
X121870119Y-101162380D01*
X121965357Y-101162380D01*
X122108214Y-101210000D01*
X122155833Y-101257619D01*
X123108214Y-102162380D02*
X122536785Y-102162380D01*
X122822500Y-102162380D02*
X122822500Y-101162380D01*
X122727261Y-101305238D01*
X122632023Y-101400476D01*
X122536785Y-101448095D01*
X131913333Y-98147142D02*
X131865714Y-98194761D01*
X131722857Y-98242380D01*
X131627619Y-98242380D01*
X131484761Y-98194761D01*
X131389523Y-98099523D01*
X131341904Y-98004285D01*
X131294285Y-97813809D01*
X131294285Y-97670952D01*
X131341904Y-97480476D01*
X131389523Y-97385238D01*
X131484761Y-97290000D01*
X131627619Y-97242380D01*
X131722857Y-97242380D01*
X131865714Y-97290000D01*
X131913333Y-97337619D01*
X132294285Y-97337619D02*
X132341904Y-97290000D01*
X132437142Y-97242380D01*
X132675238Y-97242380D01*
X132770476Y-97290000D01*
X132818095Y-97337619D01*
X132865714Y-97432857D01*
X132865714Y-97528095D01*
X132818095Y-97670952D01*
X132246666Y-98242380D01*
X132865714Y-98242380D01*
X150963333Y-95227142D02*
X150915714Y-95274761D01*
X150772857Y-95322380D01*
X150677619Y-95322380D01*
X150534761Y-95274761D01*
X150439523Y-95179523D01*
X150391904Y-95084285D01*
X150344285Y-94893809D01*
X150344285Y-94750952D01*
X150391904Y-94560476D01*
X150439523Y-94465238D01*
X150534761Y-94370000D01*
X150677619Y-94322380D01*
X150772857Y-94322380D01*
X150915714Y-94370000D01*
X150963333Y-94417619D01*
X151296666Y-94322380D02*
X151915714Y-94322380D01*
X151582380Y-94703333D01*
X151725238Y-94703333D01*
X151820476Y-94750952D01*
X151868095Y-94798571D01*
X151915714Y-94893809D01*
X151915714Y-95131904D01*
X151868095Y-95227142D01*
X151820476Y-95274761D01*
X151725238Y-95322380D01*
X151439523Y-95322380D01*
X151344285Y-95274761D01*
X151296666Y-95227142D01*
X167140833Y-116307142D02*
X167093214Y-116354761D01*
X166950357Y-116402380D01*
X166855119Y-116402380D01*
X166712261Y-116354761D01*
X166617023Y-116259523D01*
X166569404Y-116164285D01*
X166521785Y-115973809D01*
X166521785Y-115830952D01*
X166569404Y-115640476D01*
X166617023Y-115545238D01*
X166712261Y-115450000D01*
X166855119Y-115402380D01*
X166950357Y-115402380D01*
X167093214Y-115450000D01*
X167140833Y-115497619D01*
X167997976Y-115735714D02*
X167997976Y-116402380D01*
X167759880Y-115354761D02*
X167521785Y-116069047D01*
X168140833Y-116069047D01*
X192873333Y-88877142D02*
X192825714Y-88924761D01*
X192682857Y-88972380D01*
X192587619Y-88972380D01*
X192444761Y-88924761D01*
X192349523Y-88829523D01*
X192301904Y-88734285D01*
X192254285Y-88543809D01*
X192254285Y-88400952D01*
X192301904Y-88210476D01*
X192349523Y-88115238D01*
X192444761Y-88020000D01*
X192587619Y-87972380D01*
X192682857Y-87972380D01*
X192825714Y-88020000D01*
X192873333Y-88067619D01*
X193778095Y-87972380D02*
X193301904Y-87972380D01*
X193254285Y-88448571D01*
X193301904Y-88400952D01*
X193397142Y-88353333D01*
X193635238Y-88353333D01*
X193730476Y-88400952D01*
X193778095Y-88448571D01*
X193825714Y-88543809D01*
X193825714Y-88781904D01*
X193778095Y-88877142D01*
X193730476Y-88924761D01*
X193635238Y-88972380D01*
X193397142Y-88972380D01*
X193301904Y-88924761D01*
X193254285Y-88877142D01*
X149693333Y-114277142D02*
X149645714Y-114324761D01*
X149502857Y-114372380D01*
X149407619Y-114372380D01*
X149264761Y-114324761D01*
X149169523Y-114229523D01*
X149121904Y-114134285D01*
X149074285Y-113943809D01*
X149074285Y-113800952D01*
X149121904Y-113610476D01*
X149169523Y-113515238D01*
X149264761Y-113420000D01*
X149407619Y-113372380D01*
X149502857Y-113372380D01*
X149645714Y-113420000D01*
X149693333Y-113467619D01*
X150550476Y-113372380D02*
X150360000Y-113372380D01*
X150264761Y-113420000D01*
X150217142Y-113467619D01*
X150121904Y-113610476D01*
X150074285Y-113800952D01*
X150074285Y-114181904D01*
X150121904Y-114277142D01*
X150169523Y-114324761D01*
X150264761Y-114372380D01*
X150455238Y-114372380D01*
X150550476Y-114324761D01*
X150598095Y-114277142D01*
X150645714Y-114181904D01*
X150645714Y-113943809D01*
X150598095Y-113848571D01*
X150550476Y-113800952D01*
X150455238Y-113753333D01*
X150264761Y-113753333D01*
X150169523Y-113800952D01*
X150121904Y-113848571D01*
X150074285Y-113943809D01*
X163663333Y-96877142D02*
X163615714Y-96924761D01*
X163472857Y-96972380D01*
X163377619Y-96972380D01*
X163234761Y-96924761D01*
X163139523Y-96829523D01*
X163091904Y-96734285D01*
X163044285Y-96543809D01*
X163044285Y-96400952D01*
X163091904Y-96210476D01*
X163139523Y-96115238D01*
X163234761Y-96020000D01*
X163377619Y-95972380D01*
X163472857Y-95972380D01*
X163615714Y-96020000D01*
X163663333Y-96067619D01*
X163996666Y-95972380D02*
X164663333Y-95972380D01*
X164234761Y-96972380D01*
X186190833Y-113767142D02*
X186143214Y-113814761D01*
X186000357Y-113862380D01*
X185905119Y-113862380D01*
X185762261Y-113814761D01*
X185667023Y-113719523D01*
X185619404Y-113624285D01*
X185571785Y-113433809D01*
X185571785Y-113290952D01*
X185619404Y-113100476D01*
X185667023Y-113005238D01*
X185762261Y-112910000D01*
X185905119Y-112862380D01*
X186000357Y-112862380D01*
X186143214Y-112910000D01*
X186190833Y-112957619D01*
X186762261Y-113290952D02*
X186667023Y-113243333D01*
X186619404Y-113195714D01*
X186571785Y-113100476D01*
X186571785Y-113052857D01*
X186619404Y-112957619D01*
X186667023Y-112910000D01*
X186762261Y-112862380D01*
X186952738Y-112862380D01*
X187047976Y-112910000D01*
X187095595Y-112957619D01*
X187143214Y-113052857D01*
X187143214Y-113100476D01*
X187095595Y-113195714D01*
X187047976Y-113243333D01*
X186952738Y-113290952D01*
X186762261Y-113290952D01*
X186667023Y-113338571D01*
X186619404Y-113386190D01*
X186571785Y-113481428D01*
X186571785Y-113671904D01*
X186619404Y-113767142D01*
X186667023Y-113814761D01*
X186762261Y-113862380D01*
X186952738Y-113862380D01*
X187047976Y-113814761D01*
X187095595Y-113767142D01*
X187143214Y-113671904D01*
X187143214Y-113481428D01*
X187095595Y-113386190D01*
X187047976Y-113338571D01*
X186952738Y-113290952D01*
X139663333Y-88247142D02*
X139615714Y-88294761D01*
X139472857Y-88342380D01*
X139377619Y-88342380D01*
X139234761Y-88294761D01*
X139139523Y-88199523D01*
X139091904Y-88104285D01*
X139044285Y-87913809D01*
X139044285Y-87770952D01*
X139091904Y-87580476D01*
X139139523Y-87485238D01*
X139234761Y-87390000D01*
X139377619Y-87342380D01*
X139472857Y-87342380D01*
X139615714Y-87390000D01*
X139663333Y-87437619D01*
X140139523Y-88342380D02*
X140330000Y-88342380D01*
X140425238Y-88294761D01*
X140472857Y-88247142D01*
X140568095Y-88104285D01*
X140615714Y-87913809D01*
X140615714Y-87532857D01*
X140568095Y-87437619D01*
X140520476Y-87390000D01*
X140425238Y-87342380D01*
X140234761Y-87342380D01*
X140139523Y-87390000D01*
X140091904Y-87437619D01*
X140044285Y-87532857D01*
X140044285Y-87770952D01*
X140091904Y-87866190D01*
X140139523Y-87913809D01*
X140234761Y-87961428D01*
X140425238Y-87961428D01*
X140520476Y-87913809D01*
X140568095Y-87866190D01*
X140615714Y-87770952D01*
X168171904Y-87702380D02*
X168171904Y-86702380D01*
X168410000Y-86702380D01*
X168552857Y-86750000D01*
X168648095Y-86845238D01*
X168695714Y-86940476D01*
X168743333Y-87130952D01*
X168743333Y-87273809D01*
X168695714Y-87464285D01*
X168648095Y-87559523D01*
X168552857Y-87654761D01*
X168410000Y-87702380D01*
X168171904Y-87702380D01*
X169695714Y-87702380D02*
X169124285Y-87702380D01*
X169410000Y-87702380D02*
X169410000Y-86702380D01*
X169314761Y-86845238D01*
X169219523Y-86940476D01*
X169124285Y-86988095D01*
X173251904Y-87702380D02*
X173251904Y-86702380D01*
X173490000Y-86702380D01*
X173632857Y-86750000D01*
X173728095Y-86845238D01*
X173775714Y-86940476D01*
X173823333Y-87130952D01*
X173823333Y-87273809D01*
X173775714Y-87464285D01*
X173728095Y-87559523D01*
X173632857Y-87654761D01*
X173490000Y-87702380D01*
X173251904Y-87702380D01*
X174204285Y-86797619D02*
X174251904Y-86750000D01*
X174347142Y-86702380D01*
X174585238Y-86702380D01*
X174680476Y-86750000D01*
X174728095Y-86797619D01*
X174775714Y-86892857D01*
X174775714Y-86988095D01*
X174728095Y-87130952D01*
X174156666Y-87702380D01*
X174775714Y-87702380D01*
X178331904Y-87702380D02*
X178331904Y-86702380D01*
X178570000Y-86702380D01*
X178712857Y-86750000D01*
X178808095Y-86845238D01*
X178855714Y-86940476D01*
X178903333Y-87130952D01*
X178903333Y-87273809D01*
X178855714Y-87464285D01*
X178808095Y-87559523D01*
X178712857Y-87654761D01*
X178570000Y-87702380D01*
X178331904Y-87702380D01*
X179236666Y-86702380D02*
X179855714Y-86702380D01*
X179522380Y-87083333D01*
X179665238Y-87083333D01*
X179760476Y-87130952D01*
X179808095Y-87178571D01*
X179855714Y-87273809D01*
X179855714Y-87511904D01*
X179808095Y-87607142D01*
X179760476Y-87654761D01*
X179665238Y-87702380D01*
X179379523Y-87702380D01*
X179284285Y-87654761D01*
X179236666Y-87607142D01*
X122856666Y-103802380D02*
X122856666Y-104516666D01*
X122809047Y-104659523D01*
X122713809Y-104754761D01*
X122570952Y-104802380D01*
X122475714Y-104802380D01*
X123856666Y-104802380D02*
X123285238Y-104802380D01*
X123570952Y-104802380D02*
X123570952Y-103802380D01*
X123475714Y-103945238D01*
X123380476Y-104040476D01*
X123285238Y-104088095D01*
X129373333Y-121482380D02*
X129040000Y-121006190D01*
X128801904Y-121482380D02*
X128801904Y-120482380D01*
X129182857Y-120482380D01*
X129278095Y-120530000D01*
X129325714Y-120577619D01*
X129373333Y-120672857D01*
X129373333Y-120815714D01*
X129325714Y-120910952D01*
X129278095Y-120958571D01*
X129182857Y-121006190D01*
X128801904Y-121006190D01*
X130325714Y-121482380D02*
X129754285Y-121482380D01*
X130040000Y-121482380D02*
X130040000Y-120482380D01*
X129944761Y-120625238D01*
X129849523Y-120720476D01*
X129754285Y-120768095D01*
X125563333Y-104592380D02*
X125230000Y-104116190D01*
X124991904Y-104592380D02*
X124991904Y-103592380D01*
X125372857Y-103592380D01*
X125468095Y-103640000D01*
X125515714Y-103687619D01*
X125563333Y-103782857D01*
X125563333Y-103925714D01*
X125515714Y-104020952D01*
X125468095Y-104068571D01*
X125372857Y-104116190D01*
X124991904Y-104116190D01*
X125944285Y-103687619D02*
X125991904Y-103640000D01*
X126087142Y-103592380D01*
X126325238Y-103592380D01*
X126420476Y-103640000D01*
X126468095Y-103687619D01*
X126515714Y-103782857D01*
X126515714Y-103878095D01*
X126468095Y-104020952D01*
X125896666Y-104592380D01*
X126515714Y-104592380D01*
X125563333Y-102052380D02*
X125230000Y-101576190D01*
X124991904Y-102052380D02*
X124991904Y-101052380D01*
X125372857Y-101052380D01*
X125468095Y-101100000D01*
X125515714Y-101147619D01*
X125563333Y-101242857D01*
X125563333Y-101385714D01*
X125515714Y-101480952D01*
X125468095Y-101528571D01*
X125372857Y-101576190D01*
X124991904Y-101576190D01*
X125896666Y-101052380D02*
X126515714Y-101052380D01*
X126182380Y-101433333D01*
X126325238Y-101433333D01*
X126420476Y-101480952D01*
X126468095Y-101528571D01*
X126515714Y-101623809D01*
X126515714Y-101861904D01*
X126468095Y-101957142D01*
X126420476Y-102004761D01*
X126325238Y-102052380D01*
X126039523Y-102052380D01*
X125944285Y-102004761D01*
X125896666Y-101957142D01*
X144613333Y-100782380D02*
X144280000Y-100306190D01*
X144041904Y-100782380D02*
X144041904Y-99782380D01*
X144422857Y-99782380D01*
X144518095Y-99830000D01*
X144565714Y-99877619D01*
X144613333Y-99972857D01*
X144613333Y-100115714D01*
X144565714Y-100210952D01*
X144518095Y-100258571D01*
X144422857Y-100306190D01*
X144041904Y-100306190D01*
X145470476Y-100115714D02*
X145470476Y-100782380D01*
X145232380Y-99734761D02*
X144994285Y-100449047D01*
X145613333Y-100449047D01*
X145883333Y-96082380D02*
X145550000Y-95606190D01*
X145311904Y-96082380D02*
X145311904Y-95082380D01*
X145692857Y-95082380D01*
X145788095Y-95130000D01*
X145835714Y-95177619D01*
X145883333Y-95272857D01*
X145883333Y-95415714D01*
X145835714Y-95510952D01*
X145788095Y-95558571D01*
X145692857Y-95606190D01*
X145311904Y-95606190D01*
X146788095Y-95082380D02*
X146311904Y-95082380D01*
X146264285Y-95558571D01*
X146311904Y-95510952D01*
X146407142Y-95463333D01*
X146645238Y-95463333D01*
X146740476Y-95510952D01*
X146788095Y-95558571D01*
X146835714Y-95653809D01*
X146835714Y-95891904D01*
X146788095Y-95987142D01*
X146740476Y-96034761D01*
X146645238Y-96082380D01*
X146407142Y-96082380D01*
X146311904Y-96034761D01*
X146264285Y-95987142D01*
X169075833Y-92782380D02*
X168742500Y-92306190D01*
X168504404Y-92782380D02*
X168504404Y-91782380D01*
X168885357Y-91782380D01*
X168980595Y-91830000D01*
X169028214Y-91877619D01*
X169075833Y-91972857D01*
X169075833Y-92115714D01*
X169028214Y-92210952D01*
X168980595Y-92258571D01*
X168885357Y-92306190D01*
X168504404Y-92306190D01*
X169932976Y-91782380D02*
X169742500Y-91782380D01*
X169647261Y-91830000D01*
X169599642Y-91877619D01*
X169504404Y-92020476D01*
X169456785Y-92210952D01*
X169456785Y-92591904D01*
X169504404Y-92687142D01*
X169552023Y-92734761D01*
X169647261Y-92782380D01*
X169837738Y-92782380D01*
X169932976Y-92734761D01*
X169980595Y-92687142D01*
X170028214Y-92591904D01*
X170028214Y-92353809D01*
X169980595Y-92258571D01*
X169932976Y-92210952D01*
X169837738Y-92163333D01*
X169647261Y-92163333D01*
X169552023Y-92210952D01*
X169504404Y-92258571D01*
X169456785Y-92353809D01*
X173823333Y-92782380D02*
X173490000Y-92306190D01*
X173251904Y-92782380D02*
X173251904Y-91782380D01*
X173632857Y-91782380D01*
X173728095Y-91830000D01*
X173775714Y-91877619D01*
X173823333Y-91972857D01*
X173823333Y-92115714D01*
X173775714Y-92210952D01*
X173728095Y-92258571D01*
X173632857Y-92306190D01*
X173251904Y-92306190D01*
X174156666Y-91782380D02*
X174823333Y-91782380D01*
X174394761Y-92782380D01*
X178903333Y-92782380D02*
X178570000Y-92306190D01*
X178331904Y-92782380D02*
X178331904Y-91782380D01*
X178712857Y-91782380D01*
X178808095Y-91830000D01*
X178855714Y-91877619D01*
X178903333Y-91972857D01*
X178903333Y-92115714D01*
X178855714Y-92210952D01*
X178808095Y-92258571D01*
X178712857Y-92306190D01*
X178331904Y-92306190D01*
X179474761Y-92210952D02*
X179379523Y-92163333D01*
X179331904Y-92115714D01*
X179284285Y-92020476D01*
X179284285Y-91972857D01*
X179331904Y-91877619D01*
X179379523Y-91830000D01*
X179474761Y-91782380D01*
X179665238Y-91782380D01*
X179760476Y-91830000D01*
X179808095Y-91877619D01*
X179855714Y-91972857D01*
X179855714Y-92020476D01*
X179808095Y-92115714D01*
X179760476Y-92163333D01*
X179665238Y-92210952D01*
X179474761Y-92210952D01*
X179379523Y-92258571D01*
X179331904Y-92306190D01*
X179284285Y-92401428D01*
X179284285Y-92591904D01*
X179331904Y-92687142D01*
X179379523Y-92734761D01*
X179474761Y-92782380D01*
X179665238Y-92782380D01*
X179760476Y-92734761D01*
X179808095Y-92687142D01*
X179855714Y-92591904D01*
X179855714Y-92401428D01*
X179808095Y-92306190D01*
X179760476Y-92258571D01*
X179665238Y-92210952D01*
X123642380Y-126325238D02*
X123166190Y-126658571D01*
X123642380Y-126896666D02*
X122642380Y-126896666D01*
X122642380Y-126515714D01*
X122690000Y-126420476D01*
X122737619Y-126372857D01*
X122832857Y-126325238D01*
X122975714Y-126325238D01*
X123070952Y-126372857D01*
X123118571Y-126420476D01*
X123166190Y-126515714D01*
X123166190Y-126896666D01*
X122642380Y-126039523D02*
X123642380Y-125706190D01*
X122642380Y-125372857D01*
X123642380Y-124515714D02*
X123642380Y-125087142D01*
X123642380Y-124801428D02*
X122642380Y-124801428D01*
X122785238Y-124896666D01*
X122880476Y-124991904D01*
X122928095Y-125087142D01*
X123642380Y-126801428D02*
X123642380Y-127372857D01*
X123642380Y-127087142D02*
X122642380Y-127087142D01*
X122785238Y-127182380D01*
X122880476Y-127277619D01*
X122928095Y-127372857D01*
X122642380Y-126182380D02*
X122642380Y-126087142D01*
X122690000Y-125991904D01*
X122737619Y-125944285D01*
X122832857Y-125896666D01*
X123023333Y-125849047D01*
X123261428Y-125849047D01*
X123451904Y-125896666D01*
X123547142Y-125944285D01*
X123594761Y-125991904D01*
X123642380Y-126087142D01*
X123642380Y-126182380D01*
X123594761Y-126277619D01*
X123547142Y-126325238D01*
X123451904Y-126372857D01*
X123261428Y-126420476D01*
X123023333Y-126420476D01*
X122832857Y-126372857D01*
X122737619Y-126325238D01*
X122690000Y-126277619D01*
X122642380Y-126182380D01*
X123642380Y-125420476D02*
X122642380Y-125420476D01*
X123261428Y-125325238D02*
X123642380Y-125039523D01*
X122975714Y-125039523D02*
X123356666Y-125420476D01*
X122642380Y-124420476D02*
X122642380Y-124325238D01*
X122690000Y-124230000D01*
X122737619Y-124182380D01*
X122832857Y-124134761D01*
X123023333Y-124087142D01*
X123261428Y-124087142D01*
X123451904Y-124134761D01*
X123547142Y-124182380D01*
X123594761Y-124230000D01*
X123642380Y-124325238D01*
X123642380Y-124420476D01*
X123594761Y-124515714D01*
X123547142Y-124563333D01*
X123451904Y-124610952D01*
X123261428Y-124658571D01*
X123023333Y-124658571D01*
X122832857Y-124610952D01*
X122737619Y-124563333D01*
X122690000Y-124515714D01*
X122642380Y-124420476D01*
X122642380Y-125730000D02*
X122880476Y-125730000D01*
X122785238Y-125968095D02*
X122880476Y-125730000D01*
X122785238Y-125491904D01*
X123070952Y-125872857D02*
X122880476Y-125730000D01*
X123070952Y-125587142D01*
X143518095Y-103802380D02*
X144089523Y-103802380D01*
X143803809Y-104802380D02*
X143803809Y-103802380D01*
X144422857Y-104802380D02*
X144422857Y-103802380D01*
X144803809Y-103802380D01*
X144899047Y-103850000D01*
X144946666Y-103897619D01*
X144994285Y-103992857D01*
X144994285Y-104135714D01*
X144946666Y-104230952D01*
X144899047Y-104278571D01*
X144803809Y-104326190D01*
X144422857Y-104326190D01*
X145946666Y-104802380D02*
X145375238Y-104802380D01*
X145660952Y-104802380D02*
X145660952Y-103802380D01*
X145565714Y-103945238D01*
X145470476Y-104040476D01*
X145375238Y-104088095D01*
X125738095Y-93642380D02*
X126309523Y-93642380D01*
X126023809Y-94642380D02*
X126023809Y-93642380D01*
X126642857Y-94642380D02*
X126642857Y-93642380D01*
X127023809Y-93642380D01*
X127119047Y-93690000D01*
X127166666Y-93737619D01*
X127214285Y-93832857D01*
X127214285Y-93975714D01*
X127166666Y-94070952D01*
X127119047Y-94118571D01*
X127023809Y-94166190D01*
X126642857Y-94166190D01*
X127595238Y-93737619D02*
X127642857Y-93690000D01*
X127738095Y-93642380D01*
X127976190Y-93642380D01*
X128071428Y-93690000D01*
X128119047Y-93737619D01*
X128166666Y-93832857D01*
X128166666Y-93928095D01*
X128119047Y-94070952D01*
X127547619Y-94642380D01*
X128166666Y-94642380D01*
X144788095Y-97242380D02*
X145359523Y-97242380D01*
X145073809Y-98242380D02*
X145073809Y-97242380D01*
X145692857Y-98242380D02*
X145692857Y-97242380D01*
X146073809Y-97242380D01*
X146169047Y-97290000D01*
X146216666Y-97337619D01*
X146264285Y-97432857D01*
X146264285Y-97575714D01*
X146216666Y-97670952D01*
X146169047Y-97718571D01*
X146073809Y-97766190D01*
X145692857Y-97766190D01*
X146597619Y-97242380D02*
X147216666Y-97242380D01*
X146883333Y-97623333D01*
X147026190Y-97623333D01*
X147121428Y-97670952D01*
X147169047Y-97718571D01*
X147216666Y-97813809D01*
X147216666Y-98051904D01*
X147169047Y-98147142D01*
X147121428Y-98194761D01*
X147026190Y-98242380D01*
X146740476Y-98242380D01*
X146645238Y-98194761D01*
X146597619Y-98147142D01*
X129548095Y-93432380D02*
X130119523Y-93432380D01*
X129833809Y-94432380D02*
X129833809Y-93432380D01*
X130452857Y-94432380D02*
X130452857Y-93432380D01*
X130833809Y-93432380D01*
X130929047Y-93480000D01*
X130976666Y-93527619D01*
X131024285Y-93622857D01*
X131024285Y-93765714D01*
X130976666Y-93860952D01*
X130929047Y-93908571D01*
X130833809Y-93956190D01*
X130452857Y-93956190D01*
X131881428Y-93765714D02*
X131881428Y-94432380D01*
X131643333Y-93384761D02*
X131405238Y-94099047D01*
X132024285Y-94099047D01*
X158758095Y-102322380D02*
X159329523Y-102322380D01*
X159043809Y-103322380D02*
X159043809Y-102322380D01*
X159662857Y-103322380D02*
X159662857Y-102322380D01*
X160043809Y-102322380D01*
X160139047Y-102370000D01*
X160186666Y-102417619D01*
X160234285Y-102512857D01*
X160234285Y-102655714D01*
X160186666Y-102750952D01*
X160139047Y-102798571D01*
X160043809Y-102846190D01*
X159662857Y-102846190D01*
X161139047Y-102322380D02*
X160662857Y-102322380D01*
X160615238Y-102798571D01*
X160662857Y-102750952D01*
X160758095Y-102703333D01*
X160996190Y-102703333D01*
X161091428Y-102750952D01*
X161139047Y-102798571D01*
X161186666Y-102893809D01*
X161186666Y-103131904D01*
X161139047Y-103227142D01*
X161091428Y-103274761D01*
X160996190Y-103322380D01*
X160758095Y-103322380D01*
X160662857Y-103274761D01*
X160615238Y-103227142D01*
X156218095Y-107612380D02*
X156789523Y-107612380D01*
X156503809Y-108612380D02*
X156503809Y-107612380D01*
X157122857Y-108612380D02*
X157122857Y-107612380D01*
X157503809Y-107612380D01*
X157599047Y-107660000D01*
X157646666Y-107707619D01*
X157694285Y-107802857D01*
X157694285Y-107945714D01*
X157646666Y-108040952D01*
X157599047Y-108088571D01*
X157503809Y-108136190D01*
X157122857Y-108136190D01*
X158551428Y-107612380D02*
X158360952Y-107612380D01*
X158265714Y-107660000D01*
X158218095Y-107707619D01*
X158122857Y-107850476D01*
X158075238Y-108040952D01*
X158075238Y-108421904D01*
X158122857Y-108517142D01*
X158170476Y-108564761D01*
X158265714Y-108612380D01*
X158456190Y-108612380D01*
X158551428Y-108564761D01*
X158599047Y-108517142D01*
X158646666Y-108421904D01*
X158646666Y-108183809D01*
X158599047Y-108088571D01*
X158551428Y-108040952D01*
X158456190Y-107993333D01*
X158265714Y-107993333D01*
X158170476Y-108040952D01*
X158122857Y-108088571D01*
X158075238Y-108183809D01*
X177808095Y-103802380D02*
X178379523Y-103802380D01*
X178093809Y-104802380D02*
X178093809Y-103802380D01*
X178712857Y-104802380D02*
X178712857Y-103802380D01*
X179093809Y-103802380D01*
X179189047Y-103850000D01*
X179236666Y-103897619D01*
X179284285Y-103992857D01*
X179284285Y-104135714D01*
X179236666Y-104230952D01*
X179189047Y-104278571D01*
X179093809Y-104326190D01*
X178712857Y-104326190D01*
X179617619Y-103802380D02*
X180284285Y-103802380D01*
X179855714Y-104802380D01*
X157488095Y-122852380D02*
X158059523Y-122852380D01*
X157773809Y-123852380D02*
X157773809Y-122852380D01*
X158392857Y-123852380D02*
X158392857Y-122852380D01*
X158773809Y-122852380D01*
X158869047Y-122900000D01*
X158916666Y-122947619D01*
X158964285Y-123042857D01*
X158964285Y-123185714D01*
X158916666Y-123280952D01*
X158869047Y-123328571D01*
X158773809Y-123376190D01*
X158392857Y-123376190D01*
X159535714Y-123280952D02*
X159440476Y-123233333D01*
X159392857Y-123185714D01*
X159345238Y-123090476D01*
X159345238Y-123042857D01*
X159392857Y-122947619D01*
X159440476Y-122900000D01*
X159535714Y-122852380D01*
X159726190Y-122852380D01*
X159821428Y-122900000D01*
X159869047Y-122947619D01*
X159916666Y-123042857D01*
X159916666Y-123090476D01*
X159869047Y-123185714D01*
X159821428Y-123233333D01*
X159726190Y-123280952D01*
X159535714Y-123280952D01*
X159440476Y-123328571D01*
X159392857Y-123376190D01*
X159345238Y-123471428D01*
X159345238Y-123661904D01*
X159392857Y-123757142D01*
X159440476Y-123804761D01*
X159535714Y-123852380D01*
X159726190Y-123852380D01*
X159821428Y-123804761D01*
X159869047Y-123757142D01*
X159916666Y-123661904D01*
X159916666Y-123471428D01*
X159869047Y-123376190D01*
X159821428Y-123328571D01*
X159726190Y-123280952D01*
X118118095Y-83482380D02*
X118689523Y-83482380D01*
X118403809Y-84482380D02*
X118403809Y-83482380D01*
X119022857Y-84482380D02*
X119022857Y-83482380D01*
X119403809Y-83482380D01*
X119499047Y-83530000D01*
X119546666Y-83577619D01*
X119594285Y-83672857D01*
X119594285Y-83815714D01*
X119546666Y-83910952D01*
X119499047Y-83958571D01*
X119403809Y-84006190D01*
X119022857Y-84006190D01*
X120070476Y-84482380D02*
X120260952Y-84482380D01*
X120356190Y-84434761D01*
X120403809Y-84387142D01*
X120499047Y-84244285D01*
X120546666Y-84053809D01*
X120546666Y-83672857D01*
X120499047Y-83577619D01*
X120451428Y-83530000D01*
X120356190Y-83482380D01*
X120165714Y-83482380D01*
X120070476Y-83530000D01*
X120022857Y-83577619D01*
X119975238Y-83672857D01*
X119975238Y-83910952D01*
X120022857Y-84006190D01*
X120070476Y-84053809D01*
X120165714Y-84101428D01*
X120356190Y-84101428D01*
X120451428Y-84053809D01*
X120499047Y-84006190D01*
X120546666Y-83910952D01*
X122721904Y-83482380D02*
X123293333Y-83482380D01*
X123007619Y-84482380D02*
X123007619Y-83482380D01*
X123626666Y-84482380D02*
X123626666Y-83482380D01*
X124007619Y-83482380D01*
X124102857Y-83530000D01*
X124150476Y-83577619D01*
X124198095Y-83672857D01*
X124198095Y-83815714D01*
X124150476Y-83910952D01*
X124102857Y-83958571D01*
X124007619Y-84006190D01*
X123626666Y-84006190D01*
X125150476Y-84482380D02*
X124579047Y-84482380D01*
X124864761Y-84482380D02*
X124864761Y-83482380D01*
X124769523Y-83625238D01*
X124674285Y-83720476D01*
X124579047Y-83768095D01*
X125769523Y-83482380D02*
X125864761Y-83482380D01*
X125960000Y-83530000D01*
X126007619Y-83577619D01*
X126055238Y-83672857D01*
X126102857Y-83863333D01*
X126102857Y-84101428D01*
X126055238Y-84291904D01*
X126007619Y-84387142D01*
X125960000Y-84434761D01*
X125864761Y-84482380D01*
X125769523Y-84482380D01*
X125674285Y-84434761D01*
X125626666Y-84387142D01*
X125579047Y-84291904D01*
X125531428Y-84101428D01*
X125531428Y-83863333D01*
X125579047Y-83672857D01*
X125626666Y-83577619D01*
X125674285Y-83530000D01*
X125769523Y-83482380D01*
X135128095Y-98312380D02*
X135128095Y-99121904D01*
X135175714Y-99217142D01*
X135223333Y-99264761D01*
X135318571Y-99312380D01*
X135509047Y-99312380D01*
X135604285Y-99264761D01*
X135651904Y-99217142D01*
X135699523Y-99121904D01*
X135699523Y-98312380D01*
X136699523Y-99312380D02*
X136128095Y-99312380D01*
X136413809Y-99312380D02*
X136413809Y-98312380D01*
X136318571Y-98455238D01*
X136223333Y-98550476D01*
X136128095Y-98598095D01*
X150368095Y-98312380D02*
X150368095Y-99121904D01*
X150415714Y-99217142D01*
X150463333Y-99264761D01*
X150558571Y-99312380D01*
X150749047Y-99312380D01*
X150844285Y-99264761D01*
X150891904Y-99217142D01*
X150939523Y-99121904D01*
X150939523Y-98312380D01*
X151368095Y-98407619D02*
X151415714Y-98360000D01*
X151510952Y-98312380D01*
X151749047Y-98312380D01*
X151844285Y-98360000D01*
X151891904Y-98407619D01*
X151939523Y-98502857D01*
X151939523Y-98598095D01*
X151891904Y-98740952D01*
X151320476Y-99312380D01*
X151939523Y-99312380D01*
X147828095Y-117562380D02*
X147828095Y-118371904D01*
X147875714Y-118467142D01*
X147923333Y-118514761D01*
X148018571Y-118562380D01*
X148209047Y-118562380D01*
X148304285Y-118514761D01*
X148351904Y-118467142D01*
X148399523Y-118371904D01*
X148399523Y-117562380D01*
X148780476Y-117562380D02*
X149399523Y-117562380D01*
X149066190Y-117943333D01*
X149209047Y-117943333D01*
X149304285Y-117990952D01*
X149351904Y-118038571D01*
X149399523Y-118133809D01*
X149399523Y-118371904D01*
X149351904Y-118467142D01*
X149304285Y-118514761D01*
X149209047Y-118562380D01*
X148923333Y-118562380D01*
X148828095Y-118514761D01*
X148780476Y-118467142D01*
X169418095Y-97242380D02*
X169418095Y-98051904D01*
X169465714Y-98147142D01*
X169513333Y-98194761D01*
X169608571Y-98242380D01*
X169799047Y-98242380D01*
X169894285Y-98194761D01*
X169941904Y-98147142D01*
X169989523Y-98051904D01*
X169989523Y-97242380D01*
X170894285Y-97575714D02*
X170894285Y-98242380D01*
X170656190Y-97194761D02*
X170418095Y-97909047D01*
X171037142Y-97909047D01*
X188468095Y-112752380D02*
X188468095Y-113561904D01*
X188515714Y-113657142D01*
X188563333Y-113704761D01*
X188658571Y-113752380D01*
X188849047Y-113752380D01*
X188944285Y-113704761D01*
X188991904Y-113657142D01*
X189039523Y-113561904D01*
X189039523Y-112752380D01*
X189944285Y-112752380D02*
X189753809Y-112752380D01*
X189658571Y-112800000D01*
X189610952Y-112847619D01*
X189515714Y-112990476D01*
X189468095Y-113180952D01*
X189468095Y-113561904D01*
X189515714Y-113657142D01*
X189563333Y-113704761D01*
X189658571Y-113752380D01*
X189849047Y-113752380D01*
X189944285Y-113704761D01*
X189991904Y-113657142D01*
X190039523Y-113561904D01*
X190039523Y-113323809D01*
X189991904Y-113228571D01*
X189944285Y-113180952D01*
X189849047Y-113133333D01*
X189658571Y-113133333D01*
X189563333Y-113180952D01*
X189515714Y-113228571D01*
X189468095Y-113323809D01*
X163020476Y-116502380D02*
X163687142Y-117502380D01*
X163687142Y-116502380D02*
X163020476Y-117502380D01*
X164591904Y-117502380D02*
X164020476Y-117502380D01*
X164306190Y-117502380D02*
X164306190Y-116502380D01*
X164210952Y-116645238D01*
X164115714Y-116740476D01*
X164020476Y-116788095D01*
M02*
