G04 #@! TF.GenerationSoftware,KiCad,Pcbnew,(5.1.5-0-10_14)*
G04 #@! TF.CreationDate,2021-03-22T20:24:37-05:00*
G04 #@! TF.ProjectId,Filter Network,46696c74-6572-4204-9e65-74776f726b2e,rev?*
G04 #@! TF.SameCoordinates,Original*
G04 #@! TF.FileFunction,Legend,Top*
G04 #@! TF.FilePolarity,Positive*
%FSLAX46Y46*%
G04 Gerber Fmt 4.6, Leading zero omitted, Abs format (unit mm)*
G04 Created by KiCad (PCBNEW (5.1.5-0-10_14)) date 2021-03-22 20:24:37*
%MOMM*%
%LPD*%
G04 APERTURE LIST*
%ADD10C,0.150000*%
%ADD11C,0.120000*%
G04 APERTURE END LIST*
D10*
X88360952Y-107132380D02*
X88360952Y-106132380D01*
X88360952Y-106608571D02*
X88932380Y-106608571D01*
X88932380Y-107132380D02*
X88932380Y-106132380D01*
X89408571Y-107132380D02*
X89408571Y-106132380D01*
X90408571Y-106180000D02*
X90313333Y-106132380D01*
X90170476Y-106132380D01*
X90027619Y-106180000D01*
X89932380Y-106275238D01*
X89884761Y-106370476D01*
X89837142Y-106560952D01*
X89837142Y-106703809D01*
X89884761Y-106894285D01*
X89932380Y-106989523D01*
X90027619Y-107084761D01*
X90170476Y-107132380D01*
X90265714Y-107132380D01*
X90408571Y-107084761D01*
X90456190Y-107037142D01*
X90456190Y-106703809D01*
X90265714Y-106703809D01*
X90884761Y-107132380D02*
X90884761Y-106132380D01*
X90884761Y-106608571D02*
X91456190Y-106608571D01*
X91456190Y-107132380D02*
X91456190Y-106132380D01*
X91932380Y-106751428D02*
X92694285Y-106751428D01*
X93170476Y-107132380D02*
X93170476Y-106132380D01*
X93551428Y-106132380D01*
X93646666Y-106180000D01*
X93694285Y-106227619D01*
X93741904Y-106322857D01*
X93741904Y-106465714D01*
X93694285Y-106560952D01*
X93646666Y-106608571D01*
X93551428Y-106656190D01*
X93170476Y-106656190D01*
X94122857Y-106846666D02*
X94599047Y-106846666D01*
X94027619Y-107132380D02*
X94360952Y-106132380D01*
X94694285Y-107132380D01*
X94980000Y-107084761D02*
X95122857Y-107132380D01*
X95360952Y-107132380D01*
X95456190Y-107084761D01*
X95503809Y-107037142D01*
X95551428Y-106941904D01*
X95551428Y-106846666D01*
X95503809Y-106751428D01*
X95456190Y-106703809D01*
X95360952Y-106656190D01*
X95170476Y-106608571D01*
X95075238Y-106560952D01*
X95027619Y-106513333D01*
X94980000Y-106418095D01*
X94980000Y-106322857D01*
X95027619Y-106227619D01*
X95075238Y-106180000D01*
X95170476Y-106132380D01*
X95408571Y-106132380D01*
X95551428Y-106180000D01*
X95932380Y-107084761D02*
X96075238Y-107132380D01*
X96313333Y-107132380D01*
X96408571Y-107084761D01*
X96456190Y-107037142D01*
X96503809Y-106941904D01*
X96503809Y-106846666D01*
X96456190Y-106751428D01*
X96408571Y-106703809D01*
X96313333Y-106656190D01*
X96122857Y-106608571D01*
X96027619Y-106560952D01*
X95980000Y-106513333D01*
X95932380Y-106418095D01*
X95932380Y-106322857D01*
X95980000Y-106227619D01*
X96027619Y-106180000D01*
X96122857Y-106132380D01*
X96360952Y-106132380D01*
X96503809Y-106180000D01*
X98218095Y-107132380D02*
X97646666Y-107132380D01*
X97932380Y-107132380D02*
X97932380Y-106132380D01*
X97837142Y-106275238D01*
X97741904Y-106370476D01*
X97646666Y-106418095D01*
X98646666Y-107037142D02*
X98694285Y-107084761D01*
X98646666Y-107132380D01*
X98599047Y-107084761D01*
X98646666Y-107037142D01*
X98646666Y-107132380D01*
X99313333Y-106132380D02*
X99408571Y-106132380D01*
X99503809Y-106180000D01*
X99551428Y-106227619D01*
X99599047Y-106322857D01*
X99646666Y-106513333D01*
X99646666Y-106751428D01*
X99599047Y-106941904D01*
X99551428Y-107037142D01*
X99503809Y-107084761D01*
X99408571Y-107132380D01*
X99313333Y-107132380D01*
X99218095Y-107084761D01*
X99170476Y-107037142D01*
X99122857Y-106941904D01*
X99075238Y-106751428D01*
X99075238Y-106513333D01*
X99122857Y-106322857D01*
X99170476Y-106227619D01*
X99218095Y-106180000D01*
X99313333Y-106132380D01*
D11*
X108010000Y-121980000D02*
X106680000Y-121980000D01*
X108010000Y-120650000D02*
X108010000Y-121980000D01*
X105410000Y-121980000D02*
X102810000Y-121980000D01*
X105410000Y-119380000D02*
X105410000Y-121980000D01*
X108010000Y-119380000D02*
X105410000Y-119380000D01*
X102810000Y-121980000D02*
X102810000Y-106620000D01*
X108010000Y-119380000D02*
X108010000Y-106620000D01*
X108010000Y-106620000D02*
X102810000Y-106620000D01*
X94991422Y-108510000D02*
X95508578Y-108510000D01*
X94991422Y-109930000D02*
X95508578Y-109930000D01*
X91181422Y-119940000D02*
X91698578Y-119940000D01*
X91181422Y-121360000D02*
X91698578Y-121360000D01*
X91698578Y-116130000D02*
X91181422Y-116130000D01*
X91698578Y-117550000D02*
X91181422Y-117550000D01*
X91698578Y-113740000D02*
X91181422Y-113740000D01*
X91698578Y-112320000D02*
X91181422Y-112320000D01*
X91698578Y-108510000D02*
X91181422Y-108510000D01*
X91698578Y-109930000D02*
X91181422Y-109930000D01*
X94991422Y-113740000D02*
X95508578Y-113740000D01*
X94991422Y-112320000D02*
X95508578Y-112320000D01*
X94991422Y-116130000D02*
X95508578Y-116130000D01*
X94991422Y-117550000D02*
X95508578Y-117550000D01*
X94991422Y-121360000D02*
X95508578Y-121360000D01*
X94991422Y-119940000D02*
X95508578Y-119940000D01*
D10*
X105076666Y-122432380D02*
X105076666Y-123146666D01*
X105029047Y-123289523D01*
X104933809Y-123384761D01*
X104790952Y-123432380D01*
X104695714Y-123432380D01*
X105981428Y-122765714D02*
X105981428Y-123432380D01*
X105743333Y-122384761D02*
X105505238Y-123099047D01*
X106124285Y-123099047D01*
X98893333Y-109672380D02*
X98560000Y-109196190D01*
X98321904Y-109672380D02*
X98321904Y-108672380D01*
X98702857Y-108672380D01*
X98798095Y-108720000D01*
X98845714Y-108767619D01*
X98893333Y-108862857D01*
X98893333Y-109005714D01*
X98845714Y-109100952D01*
X98798095Y-109148571D01*
X98702857Y-109196190D01*
X98321904Y-109196190D01*
X99845714Y-109672380D02*
X99274285Y-109672380D01*
X99560000Y-109672380D02*
X99560000Y-108672380D01*
X99464761Y-108815238D01*
X99369523Y-108910476D01*
X99274285Y-108958095D01*
X87463333Y-109577142D02*
X87415714Y-109624761D01*
X87272857Y-109672380D01*
X87177619Y-109672380D01*
X87034761Y-109624761D01*
X86939523Y-109529523D01*
X86891904Y-109434285D01*
X86844285Y-109243809D01*
X86844285Y-109100952D01*
X86891904Y-108910476D01*
X86939523Y-108815238D01*
X87034761Y-108720000D01*
X87177619Y-108672380D01*
X87272857Y-108672380D01*
X87415714Y-108720000D01*
X87463333Y-108767619D01*
X88415714Y-109672380D02*
X87844285Y-109672380D01*
X88130000Y-109672380D02*
X88130000Y-108672380D01*
X88034761Y-108815238D01*
X87939523Y-108910476D01*
X87844285Y-108958095D01*
X87463333Y-113387142D02*
X87415714Y-113434761D01*
X87272857Y-113482380D01*
X87177619Y-113482380D01*
X87034761Y-113434761D01*
X86939523Y-113339523D01*
X86891904Y-113244285D01*
X86844285Y-113053809D01*
X86844285Y-112910952D01*
X86891904Y-112720476D01*
X86939523Y-112625238D01*
X87034761Y-112530000D01*
X87177619Y-112482380D01*
X87272857Y-112482380D01*
X87415714Y-112530000D01*
X87463333Y-112577619D01*
X87844285Y-112577619D02*
X87891904Y-112530000D01*
X87987142Y-112482380D01*
X88225238Y-112482380D01*
X88320476Y-112530000D01*
X88368095Y-112577619D01*
X88415714Y-112672857D01*
X88415714Y-112768095D01*
X88368095Y-112910952D01*
X87796666Y-113482380D01*
X88415714Y-113482380D01*
X87463333Y-117197142D02*
X87415714Y-117244761D01*
X87272857Y-117292380D01*
X87177619Y-117292380D01*
X87034761Y-117244761D01*
X86939523Y-117149523D01*
X86891904Y-117054285D01*
X86844285Y-116863809D01*
X86844285Y-116720952D01*
X86891904Y-116530476D01*
X86939523Y-116435238D01*
X87034761Y-116340000D01*
X87177619Y-116292380D01*
X87272857Y-116292380D01*
X87415714Y-116340000D01*
X87463333Y-116387619D01*
X87796666Y-116292380D02*
X88415714Y-116292380D01*
X88082380Y-116673333D01*
X88225238Y-116673333D01*
X88320476Y-116720952D01*
X88368095Y-116768571D01*
X88415714Y-116863809D01*
X88415714Y-117101904D01*
X88368095Y-117197142D01*
X88320476Y-117244761D01*
X88225238Y-117292380D01*
X87939523Y-117292380D01*
X87844285Y-117244761D01*
X87796666Y-117197142D01*
X87463333Y-121007142D02*
X87415714Y-121054761D01*
X87272857Y-121102380D01*
X87177619Y-121102380D01*
X87034761Y-121054761D01*
X86939523Y-120959523D01*
X86891904Y-120864285D01*
X86844285Y-120673809D01*
X86844285Y-120530952D01*
X86891904Y-120340476D01*
X86939523Y-120245238D01*
X87034761Y-120150000D01*
X87177619Y-120102380D01*
X87272857Y-120102380D01*
X87415714Y-120150000D01*
X87463333Y-120197619D01*
X88320476Y-120435714D02*
X88320476Y-121102380D01*
X88082380Y-120054761D02*
X87844285Y-120769047D01*
X88463333Y-120769047D01*
X98893333Y-113482380D02*
X98560000Y-113006190D01*
X98321904Y-113482380D02*
X98321904Y-112482380D01*
X98702857Y-112482380D01*
X98798095Y-112530000D01*
X98845714Y-112577619D01*
X98893333Y-112672857D01*
X98893333Y-112815714D01*
X98845714Y-112910952D01*
X98798095Y-112958571D01*
X98702857Y-113006190D01*
X98321904Y-113006190D01*
X99274285Y-112577619D02*
X99321904Y-112530000D01*
X99417142Y-112482380D01*
X99655238Y-112482380D01*
X99750476Y-112530000D01*
X99798095Y-112577619D01*
X99845714Y-112672857D01*
X99845714Y-112768095D01*
X99798095Y-112910952D01*
X99226666Y-113482380D01*
X99845714Y-113482380D01*
X98893333Y-117292380D02*
X98560000Y-116816190D01*
X98321904Y-117292380D02*
X98321904Y-116292380D01*
X98702857Y-116292380D01*
X98798095Y-116340000D01*
X98845714Y-116387619D01*
X98893333Y-116482857D01*
X98893333Y-116625714D01*
X98845714Y-116720952D01*
X98798095Y-116768571D01*
X98702857Y-116816190D01*
X98321904Y-116816190D01*
X99226666Y-116292380D02*
X99845714Y-116292380D01*
X99512380Y-116673333D01*
X99655238Y-116673333D01*
X99750476Y-116720952D01*
X99798095Y-116768571D01*
X99845714Y-116863809D01*
X99845714Y-117101904D01*
X99798095Y-117197142D01*
X99750476Y-117244761D01*
X99655238Y-117292380D01*
X99369523Y-117292380D01*
X99274285Y-117244761D01*
X99226666Y-117197142D01*
X98893333Y-121102380D02*
X98560000Y-120626190D01*
X98321904Y-121102380D02*
X98321904Y-120102380D01*
X98702857Y-120102380D01*
X98798095Y-120150000D01*
X98845714Y-120197619D01*
X98893333Y-120292857D01*
X98893333Y-120435714D01*
X98845714Y-120530952D01*
X98798095Y-120578571D01*
X98702857Y-120626190D01*
X98321904Y-120626190D01*
X99750476Y-120435714D02*
X99750476Y-121102380D01*
X99512380Y-120054761D02*
X99274285Y-120769047D01*
X99893333Y-120769047D01*
M02*
