M48
; DRILL file {KiCad (5.1.5-0-10_14)} date Monday, March 22, 2021 at 08:24:35 PM
; FORMAT={-:-/ absolute / inch / decimal}
; #@! TF.CreationDate,2021-03-22T20:24:35-05:00
; #@! TF.GenerationSoftware,Kicad,Pcbnew,(5.1.5-0-10_14)
; #@! TF.FileFunction,Plated,1,2,PTH
FMAT,2
INCH
T1C0.0157
T2C0.0394
%
G90
G05
T1
X3.45Y-4.75
X3.5Y-4.3
X3.85Y-4.3
X3.85Y-4.45
X3.85Y-4.6
X3.85Y-4.75
X3.95Y-4.3
X4.0Y-4.7
T2
X4.1Y-4.25
X4.1Y-4.35
X4.1Y-4.45
X4.1Y-4.55
X4.1Y-4.65
X4.1Y-4.75
X4.2Y-4.25
X4.2Y-4.35
X4.2Y-4.45
X4.2Y-4.55
X4.2Y-4.65
X4.2Y-4.75
X3.25Y-4.25
X3.25Y-4.35
X3.25Y-4.45
X3.25Y-4.55
X3.25Y-4.65
X3.25Y-4.75
X3.35Y-4.25
X3.35Y-4.35
X3.35Y-4.45
X3.35Y-4.55
X3.35Y-4.65
X3.35Y-4.75
T0
M30
