G04 #@! TF.GenerationSoftware,KiCad,Pcbnew,(5.1.5-0-10_14)*
G04 #@! TF.CreationDate,2021-03-22T20:24:37-05:00*
G04 #@! TF.ProjectId,Filter Network,46696c74-6572-4204-9e65-74776f726b2e,rev?*
G04 #@! TF.SameCoordinates,Original*
G04 #@! TF.FileFunction,Paste,Top*
G04 #@! TF.FilePolarity,Positive*
%FSLAX46Y46*%
G04 Gerber Fmt 4.6, Leading zero omitted, Abs format (unit mm)*
G04 Created by KiCad (PCBNEW (5.1.5-0-10_14)) date 2021-03-22 20:24:37*
%MOMM*%
%LPD*%
G04 APERTURE LIST*
%ADD10C,0.100000*%
G04 APERTURE END LIST*
D10*
G36*
X94580142Y-108521174D02*
G01*
X94603803Y-108524684D01*
X94627007Y-108530496D01*
X94649529Y-108538554D01*
X94671153Y-108548782D01*
X94691670Y-108561079D01*
X94710883Y-108575329D01*
X94728607Y-108591393D01*
X94744671Y-108609117D01*
X94758921Y-108628330D01*
X94771218Y-108648847D01*
X94781446Y-108670471D01*
X94789504Y-108692993D01*
X94795316Y-108716197D01*
X94798826Y-108739858D01*
X94800000Y-108763750D01*
X94800000Y-109676250D01*
X94798826Y-109700142D01*
X94795316Y-109723803D01*
X94789504Y-109747007D01*
X94781446Y-109769529D01*
X94771218Y-109791153D01*
X94758921Y-109811670D01*
X94744671Y-109830883D01*
X94728607Y-109848607D01*
X94710883Y-109864671D01*
X94691670Y-109878921D01*
X94671153Y-109891218D01*
X94649529Y-109901446D01*
X94627007Y-109909504D01*
X94603803Y-109915316D01*
X94580142Y-109918826D01*
X94556250Y-109920000D01*
X94068750Y-109920000D01*
X94044858Y-109918826D01*
X94021197Y-109915316D01*
X93997993Y-109909504D01*
X93975471Y-109901446D01*
X93953847Y-109891218D01*
X93933330Y-109878921D01*
X93914117Y-109864671D01*
X93896393Y-109848607D01*
X93880329Y-109830883D01*
X93866079Y-109811670D01*
X93853782Y-109791153D01*
X93843554Y-109769529D01*
X93835496Y-109747007D01*
X93829684Y-109723803D01*
X93826174Y-109700142D01*
X93825000Y-109676250D01*
X93825000Y-108763750D01*
X93826174Y-108739858D01*
X93829684Y-108716197D01*
X93835496Y-108692993D01*
X93843554Y-108670471D01*
X93853782Y-108648847D01*
X93866079Y-108628330D01*
X93880329Y-108609117D01*
X93896393Y-108591393D01*
X93914117Y-108575329D01*
X93933330Y-108561079D01*
X93953847Y-108548782D01*
X93975471Y-108538554D01*
X93997993Y-108530496D01*
X94021197Y-108524684D01*
X94044858Y-108521174D01*
X94068750Y-108520000D01*
X94556250Y-108520000D01*
X94580142Y-108521174D01*
G37*
G36*
X96455142Y-108521174D02*
G01*
X96478803Y-108524684D01*
X96502007Y-108530496D01*
X96524529Y-108538554D01*
X96546153Y-108548782D01*
X96566670Y-108561079D01*
X96585883Y-108575329D01*
X96603607Y-108591393D01*
X96619671Y-108609117D01*
X96633921Y-108628330D01*
X96646218Y-108648847D01*
X96656446Y-108670471D01*
X96664504Y-108692993D01*
X96670316Y-108716197D01*
X96673826Y-108739858D01*
X96675000Y-108763750D01*
X96675000Y-109676250D01*
X96673826Y-109700142D01*
X96670316Y-109723803D01*
X96664504Y-109747007D01*
X96656446Y-109769529D01*
X96646218Y-109791153D01*
X96633921Y-109811670D01*
X96619671Y-109830883D01*
X96603607Y-109848607D01*
X96585883Y-109864671D01*
X96566670Y-109878921D01*
X96546153Y-109891218D01*
X96524529Y-109901446D01*
X96502007Y-109909504D01*
X96478803Y-109915316D01*
X96455142Y-109918826D01*
X96431250Y-109920000D01*
X95943750Y-109920000D01*
X95919858Y-109918826D01*
X95896197Y-109915316D01*
X95872993Y-109909504D01*
X95850471Y-109901446D01*
X95828847Y-109891218D01*
X95808330Y-109878921D01*
X95789117Y-109864671D01*
X95771393Y-109848607D01*
X95755329Y-109830883D01*
X95741079Y-109811670D01*
X95728782Y-109791153D01*
X95718554Y-109769529D01*
X95710496Y-109747007D01*
X95704684Y-109723803D01*
X95701174Y-109700142D01*
X95700000Y-109676250D01*
X95700000Y-108763750D01*
X95701174Y-108739858D01*
X95704684Y-108716197D01*
X95710496Y-108692993D01*
X95718554Y-108670471D01*
X95728782Y-108648847D01*
X95741079Y-108628330D01*
X95755329Y-108609117D01*
X95771393Y-108591393D01*
X95789117Y-108575329D01*
X95808330Y-108561079D01*
X95828847Y-108548782D01*
X95850471Y-108538554D01*
X95872993Y-108530496D01*
X95896197Y-108524684D01*
X95919858Y-108521174D01*
X95943750Y-108520000D01*
X96431250Y-108520000D01*
X96455142Y-108521174D01*
G37*
G36*
X90770142Y-119951174D02*
G01*
X90793803Y-119954684D01*
X90817007Y-119960496D01*
X90839529Y-119968554D01*
X90861153Y-119978782D01*
X90881670Y-119991079D01*
X90900883Y-120005329D01*
X90918607Y-120021393D01*
X90934671Y-120039117D01*
X90948921Y-120058330D01*
X90961218Y-120078847D01*
X90971446Y-120100471D01*
X90979504Y-120122993D01*
X90985316Y-120146197D01*
X90988826Y-120169858D01*
X90990000Y-120193750D01*
X90990000Y-121106250D01*
X90988826Y-121130142D01*
X90985316Y-121153803D01*
X90979504Y-121177007D01*
X90971446Y-121199529D01*
X90961218Y-121221153D01*
X90948921Y-121241670D01*
X90934671Y-121260883D01*
X90918607Y-121278607D01*
X90900883Y-121294671D01*
X90881670Y-121308921D01*
X90861153Y-121321218D01*
X90839529Y-121331446D01*
X90817007Y-121339504D01*
X90793803Y-121345316D01*
X90770142Y-121348826D01*
X90746250Y-121350000D01*
X90258750Y-121350000D01*
X90234858Y-121348826D01*
X90211197Y-121345316D01*
X90187993Y-121339504D01*
X90165471Y-121331446D01*
X90143847Y-121321218D01*
X90123330Y-121308921D01*
X90104117Y-121294671D01*
X90086393Y-121278607D01*
X90070329Y-121260883D01*
X90056079Y-121241670D01*
X90043782Y-121221153D01*
X90033554Y-121199529D01*
X90025496Y-121177007D01*
X90019684Y-121153803D01*
X90016174Y-121130142D01*
X90015000Y-121106250D01*
X90015000Y-120193750D01*
X90016174Y-120169858D01*
X90019684Y-120146197D01*
X90025496Y-120122993D01*
X90033554Y-120100471D01*
X90043782Y-120078847D01*
X90056079Y-120058330D01*
X90070329Y-120039117D01*
X90086393Y-120021393D01*
X90104117Y-120005329D01*
X90123330Y-119991079D01*
X90143847Y-119978782D01*
X90165471Y-119968554D01*
X90187993Y-119960496D01*
X90211197Y-119954684D01*
X90234858Y-119951174D01*
X90258750Y-119950000D01*
X90746250Y-119950000D01*
X90770142Y-119951174D01*
G37*
G36*
X92645142Y-119951174D02*
G01*
X92668803Y-119954684D01*
X92692007Y-119960496D01*
X92714529Y-119968554D01*
X92736153Y-119978782D01*
X92756670Y-119991079D01*
X92775883Y-120005329D01*
X92793607Y-120021393D01*
X92809671Y-120039117D01*
X92823921Y-120058330D01*
X92836218Y-120078847D01*
X92846446Y-120100471D01*
X92854504Y-120122993D01*
X92860316Y-120146197D01*
X92863826Y-120169858D01*
X92865000Y-120193750D01*
X92865000Y-121106250D01*
X92863826Y-121130142D01*
X92860316Y-121153803D01*
X92854504Y-121177007D01*
X92846446Y-121199529D01*
X92836218Y-121221153D01*
X92823921Y-121241670D01*
X92809671Y-121260883D01*
X92793607Y-121278607D01*
X92775883Y-121294671D01*
X92756670Y-121308921D01*
X92736153Y-121321218D01*
X92714529Y-121331446D01*
X92692007Y-121339504D01*
X92668803Y-121345316D01*
X92645142Y-121348826D01*
X92621250Y-121350000D01*
X92133750Y-121350000D01*
X92109858Y-121348826D01*
X92086197Y-121345316D01*
X92062993Y-121339504D01*
X92040471Y-121331446D01*
X92018847Y-121321218D01*
X91998330Y-121308921D01*
X91979117Y-121294671D01*
X91961393Y-121278607D01*
X91945329Y-121260883D01*
X91931079Y-121241670D01*
X91918782Y-121221153D01*
X91908554Y-121199529D01*
X91900496Y-121177007D01*
X91894684Y-121153803D01*
X91891174Y-121130142D01*
X91890000Y-121106250D01*
X91890000Y-120193750D01*
X91891174Y-120169858D01*
X91894684Y-120146197D01*
X91900496Y-120122993D01*
X91908554Y-120100471D01*
X91918782Y-120078847D01*
X91931079Y-120058330D01*
X91945329Y-120039117D01*
X91961393Y-120021393D01*
X91979117Y-120005329D01*
X91998330Y-119991079D01*
X92018847Y-119978782D01*
X92040471Y-119968554D01*
X92062993Y-119960496D01*
X92086197Y-119954684D01*
X92109858Y-119951174D01*
X92133750Y-119950000D01*
X92621250Y-119950000D01*
X92645142Y-119951174D01*
G37*
G36*
X90770142Y-116141174D02*
G01*
X90793803Y-116144684D01*
X90817007Y-116150496D01*
X90839529Y-116158554D01*
X90861153Y-116168782D01*
X90881670Y-116181079D01*
X90900883Y-116195329D01*
X90918607Y-116211393D01*
X90934671Y-116229117D01*
X90948921Y-116248330D01*
X90961218Y-116268847D01*
X90971446Y-116290471D01*
X90979504Y-116312993D01*
X90985316Y-116336197D01*
X90988826Y-116359858D01*
X90990000Y-116383750D01*
X90990000Y-117296250D01*
X90988826Y-117320142D01*
X90985316Y-117343803D01*
X90979504Y-117367007D01*
X90971446Y-117389529D01*
X90961218Y-117411153D01*
X90948921Y-117431670D01*
X90934671Y-117450883D01*
X90918607Y-117468607D01*
X90900883Y-117484671D01*
X90881670Y-117498921D01*
X90861153Y-117511218D01*
X90839529Y-117521446D01*
X90817007Y-117529504D01*
X90793803Y-117535316D01*
X90770142Y-117538826D01*
X90746250Y-117540000D01*
X90258750Y-117540000D01*
X90234858Y-117538826D01*
X90211197Y-117535316D01*
X90187993Y-117529504D01*
X90165471Y-117521446D01*
X90143847Y-117511218D01*
X90123330Y-117498921D01*
X90104117Y-117484671D01*
X90086393Y-117468607D01*
X90070329Y-117450883D01*
X90056079Y-117431670D01*
X90043782Y-117411153D01*
X90033554Y-117389529D01*
X90025496Y-117367007D01*
X90019684Y-117343803D01*
X90016174Y-117320142D01*
X90015000Y-117296250D01*
X90015000Y-116383750D01*
X90016174Y-116359858D01*
X90019684Y-116336197D01*
X90025496Y-116312993D01*
X90033554Y-116290471D01*
X90043782Y-116268847D01*
X90056079Y-116248330D01*
X90070329Y-116229117D01*
X90086393Y-116211393D01*
X90104117Y-116195329D01*
X90123330Y-116181079D01*
X90143847Y-116168782D01*
X90165471Y-116158554D01*
X90187993Y-116150496D01*
X90211197Y-116144684D01*
X90234858Y-116141174D01*
X90258750Y-116140000D01*
X90746250Y-116140000D01*
X90770142Y-116141174D01*
G37*
G36*
X92645142Y-116141174D02*
G01*
X92668803Y-116144684D01*
X92692007Y-116150496D01*
X92714529Y-116158554D01*
X92736153Y-116168782D01*
X92756670Y-116181079D01*
X92775883Y-116195329D01*
X92793607Y-116211393D01*
X92809671Y-116229117D01*
X92823921Y-116248330D01*
X92836218Y-116268847D01*
X92846446Y-116290471D01*
X92854504Y-116312993D01*
X92860316Y-116336197D01*
X92863826Y-116359858D01*
X92865000Y-116383750D01*
X92865000Y-117296250D01*
X92863826Y-117320142D01*
X92860316Y-117343803D01*
X92854504Y-117367007D01*
X92846446Y-117389529D01*
X92836218Y-117411153D01*
X92823921Y-117431670D01*
X92809671Y-117450883D01*
X92793607Y-117468607D01*
X92775883Y-117484671D01*
X92756670Y-117498921D01*
X92736153Y-117511218D01*
X92714529Y-117521446D01*
X92692007Y-117529504D01*
X92668803Y-117535316D01*
X92645142Y-117538826D01*
X92621250Y-117540000D01*
X92133750Y-117540000D01*
X92109858Y-117538826D01*
X92086197Y-117535316D01*
X92062993Y-117529504D01*
X92040471Y-117521446D01*
X92018847Y-117511218D01*
X91998330Y-117498921D01*
X91979117Y-117484671D01*
X91961393Y-117468607D01*
X91945329Y-117450883D01*
X91931079Y-117431670D01*
X91918782Y-117411153D01*
X91908554Y-117389529D01*
X91900496Y-117367007D01*
X91894684Y-117343803D01*
X91891174Y-117320142D01*
X91890000Y-117296250D01*
X91890000Y-116383750D01*
X91891174Y-116359858D01*
X91894684Y-116336197D01*
X91900496Y-116312993D01*
X91908554Y-116290471D01*
X91918782Y-116268847D01*
X91931079Y-116248330D01*
X91945329Y-116229117D01*
X91961393Y-116211393D01*
X91979117Y-116195329D01*
X91998330Y-116181079D01*
X92018847Y-116168782D01*
X92040471Y-116158554D01*
X92062993Y-116150496D01*
X92086197Y-116144684D01*
X92109858Y-116141174D01*
X92133750Y-116140000D01*
X92621250Y-116140000D01*
X92645142Y-116141174D01*
G37*
G36*
X92645142Y-112331174D02*
G01*
X92668803Y-112334684D01*
X92692007Y-112340496D01*
X92714529Y-112348554D01*
X92736153Y-112358782D01*
X92756670Y-112371079D01*
X92775883Y-112385329D01*
X92793607Y-112401393D01*
X92809671Y-112419117D01*
X92823921Y-112438330D01*
X92836218Y-112458847D01*
X92846446Y-112480471D01*
X92854504Y-112502993D01*
X92860316Y-112526197D01*
X92863826Y-112549858D01*
X92865000Y-112573750D01*
X92865000Y-113486250D01*
X92863826Y-113510142D01*
X92860316Y-113533803D01*
X92854504Y-113557007D01*
X92846446Y-113579529D01*
X92836218Y-113601153D01*
X92823921Y-113621670D01*
X92809671Y-113640883D01*
X92793607Y-113658607D01*
X92775883Y-113674671D01*
X92756670Y-113688921D01*
X92736153Y-113701218D01*
X92714529Y-113711446D01*
X92692007Y-113719504D01*
X92668803Y-113725316D01*
X92645142Y-113728826D01*
X92621250Y-113730000D01*
X92133750Y-113730000D01*
X92109858Y-113728826D01*
X92086197Y-113725316D01*
X92062993Y-113719504D01*
X92040471Y-113711446D01*
X92018847Y-113701218D01*
X91998330Y-113688921D01*
X91979117Y-113674671D01*
X91961393Y-113658607D01*
X91945329Y-113640883D01*
X91931079Y-113621670D01*
X91918782Y-113601153D01*
X91908554Y-113579529D01*
X91900496Y-113557007D01*
X91894684Y-113533803D01*
X91891174Y-113510142D01*
X91890000Y-113486250D01*
X91890000Y-112573750D01*
X91891174Y-112549858D01*
X91894684Y-112526197D01*
X91900496Y-112502993D01*
X91908554Y-112480471D01*
X91918782Y-112458847D01*
X91931079Y-112438330D01*
X91945329Y-112419117D01*
X91961393Y-112401393D01*
X91979117Y-112385329D01*
X91998330Y-112371079D01*
X92018847Y-112358782D01*
X92040471Y-112348554D01*
X92062993Y-112340496D01*
X92086197Y-112334684D01*
X92109858Y-112331174D01*
X92133750Y-112330000D01*
X92621250Y-112330000D01*
X92645142Y-112331174D01*
G37*
G36*
X90770142Y-112331174D02*
G01*
X90793803Y-112334684D01*
X90817007Y-112340496D01*
X90839529Y-112348554D01*
X90861153Y-112358782D01*
X90881670Y-112371079D01*
X90900883Y-112385329D01*
X90918607Y-112401393D01*
X90934671Y-112419117D01*
X90948921Y-112438330D01*
X90961218Y-112458847D01*
X90971446Y-112480471D01*
X90979504Y-112502993D01*
X90985316Y-112526197D01*
X90988826Y-112549858D01*
X90990000Y-112573750D01*
X90990000Y-113486250D01*
X90988826Y-113510142D01*
X90985316Y-113533803D01*
X90979504Y-113557007D01*
X90971446Y-113579529D01*
X90961218Y-113601153D01*
X90948921Y-113621670D01*
X90934671Y-113640883D01*
X90918607Y-113658607D01*
X90900883Y-113674671D01*
X90881670Y-113688921D01*
X90861153Y-113701218D01*
X90839529Y-113711446D01*
X90817007Y-113719504D01*
X90793803Y-113725316D01*
X90770142Y-113728826D01*
X90746250Y-113730000D01*
X90258750Y-113730000D01*
X90234858Y-113728826D01*
X90211197Y-113725316D01*
X90187993Y-113719504D01*
X90165471Y-113711446D01*
X90143847Y-113701218D01*
X90123330Y-113688921D01*
X90104117Y-113674671D01*
X90086393Y-113658607D01*
X90070329Y-113640883D01*
X90056079Y-113621670D01*
X90043782Y-113601153D01*
X90033554Y-113579529D01*
X90025496Y-113557007D01*
X90019684Y-113533803D01*
X90016174Y-113510142D01*
X90015000Y-113486250D01*
X90015000Y-112573750D01*
X90016174Y-112549858D01*
X90019684Y-112526197D01*
X90025496Y-112502993D01*
X90033554Y-112480471D01*
X90043782Y-112458847D01*
X90056079Y-112438330D01*
X90070329Y-112419117D01*
X90086393Y-112401393D01*
X90104117Y-112385329D01*
X90123330Y-112371079D01*
X90143847Y-112358782D01*
X90165471Y-112348554D01*
X90187993Y-112340496D01*
X90211197Y-112334684D01*
X90234858Y-112331174D01*
X90258750Y-112330000D01*
X90746250Y-112330000D01*
X90770142Y-112331174D01*
G37*
G36*
X90770142Y-108521174D02*
G01*
X90793803Y-108524684D01*
X90817007Y-108530496D01*
X90839529Y-108538554D01*
X90861153Y-108548782D01*
X90881670Y-108561079D01*
X90900883Y-108575329D01*
X90918607Y-108591393D01*
X90934671Y-108609117D01*
X90948921Y-108628330D01*
X90961218Y-108648847D01*
X90971446Y-108670471D01*
X90979504Y-108692993D01*
X90985316Y-108716197D01*
X90988826Y-108739858D01*
X90990000Y-108763750D01*
X90990000Y-109676250D01*
X90988826Y-109700142D01*
X90985316Y-109723803D01*
X90979504Y-109747007D01*
X90971446Y-109769529D01*
X90961218Y-109791153D01*
X90948921Y-109811670D01*
X90934671Y-109830883D01*
X90918607Y-109848607D01*
X90900883Y-109864671D01*
X90881670Y-109878921D01*
X90861153Y-109891218D01*
X90839529Y-109901446D01*
X90817007Y-109909504D01*
X90793803Y-109915316D01*
X90770142Y-109918826D01*
X90746250Y-109920000D01*
X90258750Y-109920000D01*
X90234858Y-109918826D01*
X90211197Y-109915316D01*
X90187993Y-109909504D01*
X90165471Y-109901446D01*
X90143847Y-109891218D01*
X90123330Y-109878921D01*
X90104117Y-109864671D01*
X90086393Y-109848607D01*
X90070329Y-109830883D01*
X90056079Y-109811670D01*
X90043782Y-109791153D01*
X90033554Y-109769529D01*
X90025496Y-109747007D01*
X90019684Y-109723803D01*
X90016174Y-109700142D01*
X90015000Y-109676250D01*
X90015000Y-108763750D01*
X90016174Y-108739858D01*
X90019684Y-108716197D01*
X90025496Y-108692993D01*
X90033554Y-108670471D01*
X90043782Y-108648847D01*
X90056079Y-108628330D01*
X90070329Y-108609117D01*
X90086393Y-108591393D01*
X90104117Y-108575329D01*
X90123330Y-108561079D01*
X90143847Y-108548782D01*
X90165471Y-108538554D01*
X90187993Y-108530496D01*
X90211197Y-108524684D01*
X90234858Y-108521174D01*
X90258750Y-108520000D01*
X90746250Y-108520000D01*
X90770142Y-108521174D01*
G37*
G36*
X92645142Y-108521174D02*
G01*
X92668803Y-108524684D01*
X92692007Y-108530496D01*
X92714529Y-108538554D01*
X92736153Y-108548782D01*
X92756670Y-108561079D01*
X92775883Y-108575329D01*
X92793607Y-108591393D01*
X92809671Y-108609117D01*
X92823921Y-108628330D01*
X92836218Y-108648847D01*
X92846446Y-108670471D01*
X92854504Y-108692993D01*
X92860316Y-108716197D01*
X92863826Y-108739858D01*
X92865000Y-108763750D01*
X92865000Y-109676250D01*
X92863826Y-109700142D01*
X92860316Y-109723803D01*
X92854504Y-109747007D01*
X92846446Y-109769529D01*
X92836218Y-109791153D01*
X92823921Y-109811670D01*
X92809671Y-109830883D01*
X92793607Y-109848607D01*
X92775883Y-109864671D01*
X92756670Y-109878921D01*
X92736153Y-109891218D01*
X92714529Y-109901446D01*
X92692007Y-109909504D01*
X92668803Y-109915316D01*
X92645142Y-109918826D01*
X92621250Y-109920000D01*
X92133750Y-109920000D01*
X92109858Y-109918826D01*
X92086197Y-109915316D01*
X92062993Y-109909504D01*
X92040471Y-109901446D01*
X92018847Y-109891218D01*
X91998330Y-109878921D01*
X91979117Y-109864671D01*
X91961393Y-109848607D01*
X91945329Y-109830883D01*
X91931079Y-109811670D01*
X91918782Y-109791153D01*
X91908554Y-109769529D01*
X91900496Y-109747007D01*
X91894684Y-109723803D01*
X91891174Y-109700142D01*
X91890000Y-109676250D01*
X91890000Y-108763750D01*
X91891174Y-108739858D01*
X91894684Y-108716197D01*
X91900496Y-108692993D01*
X91908554Y-108670471D01*
X91918782Y-108648847D01*
X91931079Y-108628330D01*
X91945329Y-108609117D01*
X91961393Y-108591393D01*
X91979117Y-108575329D01*
X91998330Y-108561079D01*
X92018847Y-108548782D01*
X92040471Y-108538554D01*
X92062993Y-108530496D01*
X92086197Y-108524684D01*
X92109858Y-108521174D01*
X92133750Y-108520000D01*
X92621250Y-108520000D01*
X92645142Y-108521174D01*
G37*
G36*
X96455142Y-112331174D02*
G01*
X96478803Y-112334684D01*
X96502007Y-112340496D01*
X96524529Y-112348554D01*
X96546153Y-112358782D01*
X96566670Y-112371079D01*
X96585883Y-112385329D01*
X96603607Y-112401393D01*
X96619671Y-112419117D01*
X96633921Y-112438330D01*
X96646218Y-112458847D01*
X96656446Y-112480471D01*
X96664504Y-112502993D01*
X96670316Y-112526197D01*
X96673826Y-112549858D01*
X96675000Y-112573750D01*
X96675000Y-113486250D01*
X96673826Y-113510142D01*
X96670316Y-113533803D01*
X96664504Y-113557007D01*
X96656446Y-113579529D01*
X96646218Y-113601153D01*
X96633921Y-113621670D01*
X96619671Y-113640883D01*
X96603607Y-113658607D01*
X96585883Y-113674671D01*
X96566670Y-113688921D01*
X96546153Y-113701218D01*
X96524529Y-113711446D01*
X96502007Y-113719504D01*
X96478803Y-113725316D01*
X96455142Y-113728826D01*
X96431250Y-113730000D01*
X95943750Y-113730000D01*
X95919858Y-113728826D01*
X95896197Y-113725316D01*
X95872993Y-113719504D01*
X95850471Y-113711446D01*
X95828847Y-113701218D01*
X95808330Y-113688921D01*
X95789117Y-113674671D01*
X95771393Y-113658607D01*
X95755329Y-113640883D01*
X95741079Y-113621670D01*
X95728782Y-113601153D01*
X95718554Y-113579529D01*
X95710496Y-113557007D01*
X95704684Y-113533803D01*
X95701174Y-113510142D01*
X95700000Y-113486250D01*
X95700000Y-112573750D01*
X95701174Y-112549858D01*
X95704684Y-112526197D01*
X95710496Y-112502993D01*
X95718554Y-112480471D01*
X95728782Y-112458847D01*
X95741079Y-112438330D01*
X95755329Y-112419117D01*
X95771393Y-112401393D01*
X95789117Y-112385329D01*
X95808330Y-112371079D01*
X95828847Y-112358782D01*
X95850471Y-112348554D01*
X95872993Y-112340496D01*
X95896197Y-112334684D01*
X95919858Y-112331174D01*
X95943750Y-112330000D01*
X96431250Y-112330000D01*
X96455142Y-112331174D01*
G37*
G36*
X94580142Y-112331174D02*
G01*
X94603803Y-112334684D01*
X94627007Y-112340496D01*
X94649529Y-112348554D01*
X94671153Y-112358782D01*
X94691670Y-112371079D01*
X94710883Y-112385329D01*
X94728607Y-112401393D01*
X94744671Y-112419117D01*
X94758921Y-112438330D01*
X94771218Y-112458847D01*
X94781446Y-112480471D01*
X94789504Y-112502993D01*
X94795316Y-112526197D01*
X94798826Y-112549858D01*
X94800000Y-112573750D01*
X94800000Y-113486250D01*
X94798826Y-113510142D01*
X94795316Y-113533803D01*
X94789504Y-113557007D01*
X94781446Y-113579529D01*
X94771218Y-113601153D01*
X94758921Y-113621670D01*
X94744671Y-113640883D01*
X94728607Y-113658607D01*
X94710883Y-113674671D01*
X94691670Y-113688921D01*
X94671153Y-113701218D01*
X94649529Y-113711446D01*
X94627007Y-113719504D01*
X94603803Y-113725316D01*
X94580142Y-113728826D01*
X94556250Y-113730000D01*
X94068750Y-113730000D01*
X94044858Y-113728826D01*
X94021197Y-113725316D01*
X93997993Y-113719504D01*
X93975471Y-113711446D01*
X93953847Y-113701218D01*
X93933330Y-113688921D01*
X93914117Y-113674671D01*
X93896393Y-113658607D01*
X93880329Y-113640883D01*
X93866079Y-113621670D01*
X93853782Y-113601153D01*
X93843554Y-113579529D01*
X93835496Y-113557007D01*
X93829684Y-113533803D01*
X93826174Y-113510142D01*
X93825000Y-113486250D01*
X93825000Y-112573750D01*
X93826174Y-112549858D01*
X93829684Y-112526197D01*
X93835496Y-112502993D01*
X93843554Y-112480471D01*
X93853782Y-112458847D01*
X93866079Y-112438330D01*
X93880329Y-112419117D01*
X93896393Y-112401393D01*
X93914117Y-112385329D01*
X93933330Y-112371079D01*
X93953847Y-112358782D01*
X93975471Y-112348554D01*
X93997993Y-112340496D01*
X94021197Y-112334684D01*
X94044858Y-112331174D01*
X94068750Y-112330000D01*
X94556250Y-112330000D01*
X94580142Y-112331174D01*
G37*
G36*
X94580142Y-116141174D02*
G01*
X94603803Y-116144684D01*
X94627007Y-116150496D01*
X94649529Y-116158554D01*
X94671153Y-116168782D01*
X94691670Y-116181079D01*
X94710883Y-116195329D01*
X94728607Y-116211393D01*
X94744671Y-116229117D01*
X94758921Y-116248330D01*
X94771218Y-116268847D01*
X94781446Y-116290471D01*
X94789504Y-116312993D01*
X94795316Y-116336197D01*
X94798826Y-116359858D01*
X94800000Y-116383750D01*
X94800000Y-117296250D01*
X94798826Y-117320142D01*
X94795316Y-117343803D01*
X94789504Y-117367007D01*
X94781446Y-117389529D01*
X94771218Y-117411153D01*
X94758921Y-117431670D01*
X94744671Y-117450883D01*
X94728607Y-117468607D01*
X94710883Y-117484671D01*
X94691670Y-117498921D01*
X94671153Y-117511218D01*
X94649529Y-117521446D01*
X94627007Y-117529504D01*
X94603803Y-117535316D01*
X94580142Y-117538826D01*
X94556250Y-117540000D01*
X94068750Y-117540000D01*
X94044858Y-117538826D01*
X94021197Y-117535316D01*
X93997993Y-117529504D01*
X93975471Y-117521446D01*
X93953847Y-117511218D01*
X93933330Y-117498921D01*
X93914117Y-117484671D01*
X93896393Y-117468607D01*
X93880329Y-117450883D01*
X93866079Y-117431670D01*
X93853782Y-117411153D01*
X93843554Y-117389529D01*
X93835496Y-117367007D01*
X93829684Y-117343803D01*
X93826174Y-117320142D01*
X93825000Y-117296250D01*
X93825000Y-116383750D01*
X93826174Y-116359858D01*
X93829684Y-116336197D01*
X93835496Y-116312993D01*
X93843554Y-116290471D01*
X93853782Y-116268847D01*
X93866079Y-116248330D01*
X93880329Y-116229117D01*
X93896393Y-116211393D01*
X93914117Y-116195329D01*
X93933330Y-116181079D01*
X93953847Y-116168782D01*
X93975471Y-116158554D01*
X93997993Y-116150496D01*
X94021197Y-116144684D01*
X94044858Y-116141174D01*
X94068750Y-116140000D01*
X94556250Y-116140000D01*
X94580142Y-116141174D01*
G37*
G36*
X96455142Y-116141174D02*
G01*
X96478803Y-116144684D01*
X96502007Y-116150496D01*
X96524529Y-116158554D01*
X96546153Y-116168782D01*
X96566670Y-116181079D01*
X96585883Y-116195329D01*
X96603607Y-116211393D01*
X96619671Y-116229117D01*
X96633921Y-116248330D01*
X96646218Y-116268847D01*
X96656446Y-116290471D01*
X96664504Y-116312993D01*
X96670316Y-116336197D01*
X96673826Y-116359858D01*
X96675000Y-116383750D01*
X96675000Y-117296250D01*
X96673826Y-117320142D01*
X96670316Y-117343803D01*
X96664504Y-117367007D01*
X96656446Y-117389529D01*
X96646218Y-117411153D01*
X96633921Y-117431670D01*
X96619671Y-117450883D01*
X96603607Y-117468607D01*
X96585883Y-117484671D01*
X96566670Y-117498921D01*
X96546153Y-117511218D01*
X96524529Y-117521446D01*
X96502007Y-117529504D01*
X96478803Y-117535316D01*
X96455142Y-117538826D01*
X96431250Y-117540000D01*
X95943750Y-117540000D01*
X95919858Y-117538826D01*
X95896197Y-117535316D01*
X95872993Y-117529504D01*
X95850471Y-117521446D01*
X95828847Y-117511218D01*
X95808330Y-117498921D01*
X95789117Y-117484671D01*
X95771393Y-117468607D01*
X95755329Y-117450883D01*
X95741079Y-117431670D01*
X95728782Y-117411153D01*
X95718554Y-117389529D01*
X95710496Y-117367007D01*
X95704684Y-117343803D01*
X95701174Y-117320142D01*
X95700000Y-117296250D01*
X95700000Y-116383750D01*
X95701174Y-116359858D01*
X95704684Y-116336197D01*
X95710496Y-116312993D01*
X95718554Y-116290471D01*
X95728782Y-116268847D01*
X95741079Y-116248330D01*
X95755329Y-116229117D01*
X95771393Y-116211393D01*
X95789117Y-116195329D01*
X95808330Y-116181079D01*
X95828847Y-116168782D01*
X95850471Y-116158554D01*
X95872993Y-116150496D01*
X95896197Y-116144684D01*
X95919858Y-116141174D01*
X95943750Y-116140000D01*
X96431250Y-116140000D01*
X96455142Y-116141174D01*
G37*
G36*
X96455142Y-119951174D02*
G01*
X96478803Y-119954684D01*
X96502007Y-119960496D01*
X96524529Y-119968554D01*
X96546153Y-119978782D01*
X96566670Y-119991079D01*
X96585883Y-120005329D01*
X96603607Y-120021393D01*
X96619671Y-120039117D01*
X96633921Y-120058330D01*
X96646218Y-120078847D01*
X96656446Y-120100471D01*
X96664504Y-120122993D01*
X96670316Y-120146197D01*
X96673826Y-120169858D01*
X96675000Y-120193750D01*
X96675000Y-121106250D01*
X96673826Y-121130142D01*
X96670316Y-121153803D01*
X96664504Y-121177007D01*
X96656446Y-121199529D01*
X96646218Y-121221153D01*
X96633921Y-121241670D01*
X96619671Y-121260883D01*
X96603607Y-121278607D01*
X96585883Y-121294671D01*
X96566670Y-121308921D01*
X96546153Y-121321218D01*
X96524529Y-121331446D01*
X96502007Y-121339504D01*
X96478803Y-121345316D01*
X96455142Y-121348826D01*
X96431250Y-121350000D01*
X95943750Y-121350000D01*
X95919858Y-121348826D01*
X95896197Y-121345316D01*
X95872993Y-121339504D01*
X95850471Y-121331446D01*
X95828847Y-121321218D01*
X95808330Y-121308921D01*
X95789117Y-121294671D01*
X95771393Y-121278607D01*
X95755329Y-121260883D01*
X95741079Y-121241670D01*
X95728782Y-121221153D01*
X95718554Y-121199529D01*
X95710496Y-121177007D01*
X95704684Y-121153803D01*
X95701174Y-121130142D01*
X95700000Y-121106250D01*
X95700000Y-120193750D01*
X95701174Y-120169858D01*
X95704684Y-120146197D01*
X95710496Y-120122993D01*
X95718554Y-120100471D01*
X95728782Y-120078847D01*
X95741079Y-120058330D01*
X95755329Y-120039117D01*
X95771393Y-120021393D01*
X95789117Y-120005329D01*
X95808330Y-119991079D01*
X95828847Y-119978782D01*
X95850471Y-119968554D01*
X95872993Y-119960496D01*
X95896197Y-119954684D01*
X95919858Y-119951174D01*
X95943750Y-119950000D01*
X96431250Y-119950000D01*
X96455142Y-119951174D01*
G37*
G36*
X94580142Y-119951174D02*
G01*
X94603803Y-119954684D01*
X94627007Y-119960496D01*
X94649529Y-119968554D01*
X94671153Y-119978782D01*
X94691670Y-119991079D01*
X94710883Y-120005329D01*
X94728607Y-120021393D01*
X94744671Y-120039117D01*
X94758921Y-120058330D01*
X94771218Y-120078847D01*
X94781446Y-120100471D01*
X94789504Y-120122993D01*
X94795316Y-120146197D01*
X94798826Y-120169858D01*
X94800000Y-120193750D01*
X94800000Y-121106250D01*
X94798826Y-121130142D01*
X94795316Y-121153803D01*
X94789504Y-121177007D01*
X94781446Y-121199529D01*
X94771218Y-121221153D01*
X94758921Y-121241670D01*
X94744671Y-121260883D01*
X94728607Y-121278607D01*
X94710883Y-121294671D01*
X94691670Y-121308921D01*
X94671153Y-121321218D01*
X94649529Y-121331446D01*
X94627007Y-121339504D01*
X94603803Y-121345316D01*
X94580142Y-121348826D01*
X94556250Y-121350000D01*
X94068750Y-121350000D01*
X94044858Y-121348826D01*
X94021197Y-121345316D01*
X93997993Y-121339504D01*
X93975471Y-121331446D01*
X93953847Y-121321218D01*
X93933330Y-121308921D01*
X93914117Y-121294671D01*
X93896393Y-121278607D01*
X93880329Y-121260883D01*
X93866079Y-121241670D01*
X93853782Y-121221153D01*
X93843554Y-121199529D01*
X93835496Y-121177007D01*
X93829684Y-121153803D01*
X93826174Y-121130142D01*
X93825000Y-121106250D01*
X93825000Y-120193750D01*
X93826174Y-120169858D01*
X93829684Y-120146197D01*
X93835496Y-120122993D01*
X93843554Y-120100471D01*
X93853782Y-120078847D01*
X93866079Y-120058330D01*
X93880329Y-120039117D01*
X93896393Y-120021393D01*
X93914117Y-120005329D01*
X93933330Y-119991079D01*
X93953847Y-119978782D01*
X93975471Y-119968554D01*
X93997993Y-119960496D01*
X94021197Y-119954684D01*
X94044858Y-119951174D01*
X94068750Y-119950000D01*
X94556250Y-119950000D01*
X94580142Y-119951174D01*
G37*
M02*
