M48
; DRILL file {KiCad (5.1.5-0-10_14)} date Tuesday, May 12, 2020 at 03:24:32 PM
; FORMAT={-:-/ absolute / inch / decimal}
; #@! TF.CreationDate,2020-05-12T15:24:32-05:00
; #@! TF.GenerationSoftware,Kicad,Pcbnew,(5.1.5-0-10_14)
; #@! TF.FileFunction,Plated,1,2,PTH
FMAT,2
INCH
T1C0.0157
T2C0.0276
T3C0.0394
%
G90
G05
T1
X4.8Y-3.4
X4.85Y-3.4
X4.95Y-3.15
X5.15Y-3.25
X5.15Y-3.3
X5.15Y-3.35
X5.3Y-3.5
X5.6Y-3.2
X5.7Y-3.2
X5.85Y-3.6
X5.9Y-3.25
X6.0Y-3.35
T2
X4.9106Y-3.6626
X4.9106Y-3.7374
T3
X6.3Y-3.2
X6.3Y-3.3
X6.3Y-3.4
X6.3Y-3.5
X6.3Y-3.6
X6.3Y-3.7
X6.4Y-3.2
X6.4Y-3.3
X6.4Y-3.4
X6.4Y-3.5
X6.4Y-3.6
X6.4Y-3.7
T0
M30
