G04 #@! TF.GenerationSoftware,KiCad,Pcbnew,(5.1.5-0-10_14)*
G04 #@! TF.CreationDate,2020-04-22T09:49:02-05:00*
G04 #@! TF.ProjectId,Sensors,53656e73-6f72-4732-9e6b-696361645f70,rev?*
G04 #@! TF.SameCoordinates,Original*
G04 #@! TF.FileFunction,Legend,Bot*
G04 #@! TF.FilePolarity,Positive*
%FSLAX46Y46*%
G04 Gerber Fmt 4.6, Leading zero omitted, Abs format (unit mm)*
G04 Created by KiCad (PCBNEW (5.1.5-0-10_14)) date 2020-04-22 09:49:02*
%MOMM*%
%LPD*%
G04 APERTURE LIST*
%ADD10C,0.381000*%
%ADD11C,0.127000*%
%ADD12C,0.120000*%
%ADD13C,0.050000*%
%ADD14C,0.150000*%
G04 APERTURE END LIST*
D10*
X137795000Y-84241821D02*
X137522857Y-84332535D01*
X137069285Y-84332535D01*
X136887857Y-84241821D01*
X136797142Y-84151107D01*
X136706428Y-83969678D01*
X136706428Y-83788250D01*
X136797142Y-83606821D01*
X136887857Y-83516107D01*
X137069285Y-83425392D01*
X137432142Y-83334678D01*
X137613571Y-83243964D01*
X137704285Y-83153250D01*
X137795000Y-82971821D01*
X137795000Y-82790392D01*
X137704285Y-82608964D01*
X137613571Y-82518250D01*
X137432142Y-82427535D01*
X136978571Y-82427535D01*
X136706428Y-82518250D01*
X135164285Y-84241821D02*
X135345714Y-84332535D01*
X135708571Y-84332535D01*
X135890000Y-84241821D01*
X135980714Y-84060392D01*
X135980714Y-83334678D01*
X135890000Y-83153250D01*
X135708571Y-83062535D01*
X135345714Y-83062535D01*
X135164285Y-83153250D01*
X135073571Y-83334678D01*
X135073571Y-83516107D01*
X135980714Y-83697535D01*
X134257142Y-83062535D02*
X134257142Y-84332535D01*
X134257142Y-83243964D02*
X134166428Y-83153250D01*
X133985000Y-83062535D01*
X133712857Y-83062535D01*
X133531428Y-83153250D01*
X133440714Y-83334678D01*
X133440714Y-84332535D01*
X132624285Y-84241821D02*
X132442857Y-84332535D01*
X132080000Y-84332535D01*
X131898571Y-84241821D01*
X131807857Y-84060392D01*
X131807857Y-83969678D01*
X131898571Y-83788250D01*
X132080000Y-83697535D01*
X132352142Y-83697535D01*
X132533571Y-83606821D01*
X132624285Y-83425392D01*
X132624285Y-83334678D01*
X132533571Y-83153250D01*
X132352142Y-83062535D01*
X132080000Y-83062535D01*
X131898571Y-83153250D01*
X130719285Y-84332535D02*
X130900714Y-84241821D01*
X130991428Y-84151107D01*
X131082142Y-83969678D01*
X131082142Y-83425392D01*
X130991428Y-83243964D01*
X130900714Y-83153250D01*
X130719285Y-83062535D01*
X130447142Y-83062535D01*
X130265714Y-83153250D01*
X130175000Y-83243964D01*
X130084285Y-83425392D01*
X130084285Y-83969678D01*
X130175000Y-84151107D01*
X130265714Y-84241821D01*
X130447142Y-84332535D01*
X130719285Y-84332535D01*
X129267857Y-84332535D02*
X129267857Y-83062535D01*
X129267857Y-83425392D02*
X129177142Y-83243964D01*
X129086428Y-83153250D01*
X128905000Y-83062535D01*
X128723571Y-83062535D01*
X135527142Y-87571035D02*
X136615714Y-87571035D01*
X136071428Y-87571035D02*
X136071428Y-85666035D01*
X136252857Y-85938178D01*
X136434285Y-86119607D01*
X136615714Y-86210321D01*
X134710714Y-87389607D02*
X134620000Y-87480321D01*
X134710714Y-87571035D01*
X134801428Y-87480321D01*
X134710714Y-87389607D01*
X134710714Y-87571035D01*
X133440714Y-85666035D02*
X133259285Y-85666035D01*
X133077857Y-85756750D01*
X132987142Y-85847464D01*
X132896428Y-86028892D01*
X132805714Y-86391750D01*
X132805714Y-86845321D01*
X132896428Y-87208178D01*
X132987142Y-87389607D01*
X133077857Y-87480321D01*
X133259285Y-87571035D01*
X133440714Y-87571035D01*
X133622142Y-87480321D01*
X133712857Y-87389607D01*
X133803571Y-87208178D01*
X133894285Y-86845321D01*
X133894285Y-86391750D01*
X133803571Y-86028892D01*
X133712857Y-85847464D01*
X133622142Y-85756750D01*
X133440714Y-85666035D01*
X131989285Y-87389607D02*
X131898571Y-87480321D01*
X131989285Y-87571035D01*
X132080000Y-87480321D01*
X131989285Y-87389607D01*
X131989285Y-87571035D01*
X131263571Y-85666035D02*
X129993571Y-87571035D01*
X129993571Y-85666035D02*
X131263571Y-87571035D01*
D11*
X126460000Y-93980000D02*
G75*
G03X126460000Y-93980000I-3000000J0D01*
G01*
D12*
X146123922Y-83110000D02*
X146641078Y-83110000D01*
X146123922Y-84530000D02*
X146641078Y-84530000D01*
X160080000Y-79950000D02*
X158750000Y-79950000D01*
X160080000Y-81280000D02*
X160080000Y-79950000D01*
X157480000Y-79950000D02*
X154880000Y-79950000D01*
X157480000Y-82550000D02*
X157480000Y-79950000D01*
X160080000Y-82550000D02*
X157480000Y-82550000D01*
X154880000Y-79950000D02*
X154880000Y-95310000D01*
X160080000Y-82550000D02*
X160080000Y-95310000D01*
X160080000Y-95310000D02*
X154880000Y-95310000D01*
D13*
X123499585Y-98885952D02*
X123499585Y-97884202D01*
X123165668Y-98599738D01*
X122831752Y-97884202D01*
X122831752Y-98885952D01*
X122354728Y-98885952D02*
X122354728Y-97884202D01*
X121782299Y-98885952D02*
X122211621Y-98313524D01*
X121782299Y-97884202D02*
X122354728Y-98456631D01*
X121400680Y-97979607D02*
X121352978Y-97931905D01*
X121257573Y-97884202D01*
X121019061Y-97884202D01*
X120923656Y-97931905D01*
X120875954Y-97979607D01*
X120828252Y-98075012D01*
X120828252Y-98170416D01*
X120875954Y-98313524D01*
X121448383Y-98885952D01*
X120828252Y-98885952D01*
X133992228Y-89886439D02*
X134039913Y-89934124D01*
X134182969Y-89981809D01*
X134278340Y-89981809D01*
X134421395Y-89934124D01*
X134516766Y-89838754D01*
X134564451Y-89743383D01*
X134612136Y-89552642D01*
X134612136Y-89409586D01*
X134564451Y-89218845D01*
X134516766Y-89123475D01*
X134421395Y-89028105D01*
X134278340Y-88980419D01*
X134182969Y-88980419D01*
X134039913Y-89028105D01*
X133992228Y-89075790D01*
X133563061Y-89981809D02*
X133563061Y-88980419D01*
X133229264Y-89695698D01*
X132895468Y-88980419D01*
X132895468Y-89981809D01*
X131846392Y-89886439D02*
X131894078Y-89934124D01*
X132037133Y-89981809D01*
X132132504Y-89981809D01*
X132275560Y-89934124D01*
X132370930Y-89838754D01*
X132418615Y-89743383D01*
X132466300Y-89552642D01*
X132466300Y-89409586D01*
X132418615Y-89218845D01*
X132370930Y-89123475D01*
X132275560Y-89028105D01*
X132132504Y-88980419D01*
X132037133Y-88980419D01*
X131894078Y-89028105D01*
X131846392Y-89075790D01*
X131417225Y-89600327D02*
X130654261Y-89600327D01*
X130225094Y-89075790D02*
X130177409Y-89028105D01*
X130082039Y-88980419D01*
X129843612Y-88980419D01*
X129748242Y-89028105D01*
X129700557Y-89075790D01*
X129652871Y-89171160D01*
X129652871Y-89266531D01*
X129700557Y-89409586D01*
X130272780Y-89981809D01*
X129652871Y-89981809D01*
X129319075Y-88980419D02*
X128651481Y-88980419D01*
X129080649Y-89981809D01*
X127840832Y-89314216D02*
X127840832Y-89981809D01*
X128079259Y-88932734D02*
X128317685Y-89648013D01*
X127697777Y-89648013D01*
X127363980Y-89075790D02*
X127316295Y-89028105D01*
X127220924Y-88980419D01*
X126982498Y-88980419D01*
X126887128Y-89028105D01*
X126839442Y-89075790D01*
X126791757Y-89171160D01*
X126791757Y-89266531D01*
X126839442Y-89409586D01*
X127411665Y-89981809D01*
X126791757Y-89981809D01*
X126362590Y-89981809D02*
X126362590Y-88980419D01*
X125981108Y-88980419D01*
X125885738Y-89028105D01*
X125838052Y-89075790D01*
X125790367Y-89171160D01*
X125790367Y-89314216D01*
X125838052Y-89409586D01*
X125885738Y-89457272D01*
X125981108Y-89504957D01*
X126362590Y-89504957D01*
X125027403Y-89457272D02*
X124884348Y-89504957D01*
X124836662Y-89552642D01*
X124788977Y-89648013D01*
X124788977Y-89791068D01*
X124836662Y-89886439D01*
X124884348Y-89934124D01*
X124979718Y-89981809D01*
X125361200Y-89981809D01*
X125361200Y-88980419D01*
X125027403Y-88980419D01*
X124932033Y-89028105D01*
X124884348Y-89075790D01*
X124836662Y-89171160D01*
X124836662Y-89266531D01*
X124884348Y-89361901D01*
X124932033Y-89409586D01*
X125027403Y-89457272D01*
X125361200Y-89457272D01*
X124073699Y-88980419D02*
X124073699Y-89695698D01*
X124121384Y-89838754D01*
X124216754Y-89934124D01*
X124359810Y-89981809D01*
X124455180Y-89981809D01*
X123596846Y-89600327D02*
X122833882Y-89600327D01*
X122404715Y-89695698D02*
X121927863Y-89695698D01*
X122500086Y-89981809D02*
X122166289Y-88980419D01*
X121832492Y-89981809D01*
D14*
X143676666Y-84272380D02*
X144010000Y-83796190D01*
X144248095Y-84272380D02*
X144248095Y-83272380D01*
X143867142Y-83272380D01*
X143771904Y-83320000D01*
X143724285Y-83367619D01*
X143676666Y-83462857D01*
X143676666Y-83605714D01*
X143724285Y-83700952D01*
X143771904Y-83748571D01*
X143867142Y-83796190D01*
X144248095Y-83796190D01*
X143200476Y-84272380D02*
X143010000Y-84272380D01*
X142914761Y-84224761D01*
X142867142Y-84177142D01*
X142771904Y-84034285D01*
X142724285Y-83843809D01*
X142724285Y-83462857D01*
X142771904Y-83367619D01*
X142819523Y-83320000D01*
X142914761Y-83272380D01*
X143105238Y-83272380D01*
X143200476Y-83320000D01*
X143248095Y-83367619D01*
X143295714Y-83462857D01*
X143295714Y-83700952D01*
X143248095Y-83796190D01*
X143200476Y-83843809D01*
X143105238Y-83891428D01*
X142914761Y-83891428D01*
X142819523Y-83843809D01*
X142771904Y-83796190D01*
X142724285Y-83700952D01*
X144152857Y-88082380D02*
X144486190Y-87606190D01*
X144724285Y-88082380D02*
X144724285Y-87082380D01*
X144343333Y-87082380D01*
X144248095Y-87130000D01*
X144200476Y-87177619D01*
X144152857Y-87272857D01*
X144152857Y-87415714D01*
X144200476Y-87510952D01*
X144248095Y-87558571D01*
X144343333Y-87606190D01*
X144724285Y-87606190D01*
X143200476Y-88082380D02*
X143771904Y-88082380D01*
X143486190Y-88082380D02*
X143486190Y-87082380D01*
X143581428Y-87225238D01*
X143676666Y-87320476D01*
X143771904Y-87368095D01*
X142581428Y-87082380D02*
X142486190Y-87082380D01*
X142390952Y-87130000D01*
X142343333Y-87177619D01*
X142295714Y-87272857D01*
X142248095Y-87463333D01*
X142248095Y-87701428D01*
X142295714Y-87891904D01*
X142343333Y-87987142D01*
X142390952Y-88034761D01*
X142486190Y-88082380D01*
X142581428Y-88082380D01*
X142676666Y-88034761D01*
X142724285Y-87987142D01*
X142771904Y-87891904D01*
X142819523Y-87701428D01*
X142819523Y-87463333D01*
X142771904Y-87272857D01*
X142724285Y-87177619D01*
X142676666Y-87130000D01*
X142581428Y-87082380D01*
X157813333Y-78402380D02*
X157813333Y-79116666D01*
X157860952Y-79259523D01*
X157956190Y-79354761D01*
X158099047Y-79402380D01*
X158194285Y-79402380D01*
X156813333Y-79402380D02*
X157384761Y-79402380D01*
X157099047Y-79402380D02*
X157099047Y-78402380D01*
X157194285Y-78545238D01*
X157289523Y-78640476D01*
X157384761Y-78688095D01*
M02*
