G04 #@! TF.GenerationSoftware,KiCad,Pcbnew,(5.1.5-0-10_14)*
G04 #@! TF.CreationDate,2020-03-24T20:34:03-05:00*
G04 #@! TF.ProjectId,Sensors,53656e73-6f72-4732-9e6b-696361645f70,rev?*
G04 #@! TF.SameCoordinates,Original*
G04 #@! TF.FileFunction,Copper,L2,Bot*
G04 #@! TF.FilePolarity,Positive*
%FSLAX46Y46*%
G04 Gerber Fmt 4.6, Leading zero omitted, Abs format (unit mm)*
G04 Created by KiCad (PCBNEW (5.1.5-0-10_14)) date 2020-03-24 20:34:03*
%MOMM*%
%LPD*%
G04 APERTURE LIST*
%ADD10C,1.208000*%
%ADD11O,1.700000X1.700000*%
%ADD12R,1.700000X1.700000*%
%ADD13C,0.800000*%
%ADD14C,0.250000*%
%ADD15C,0.254000*%
G04 APERTURE END LIST*
D10*
X124460000Y-90490000D03*
X124460000Y-92390000D03*
D11*
X158750000Y-93980000D03*
X156210000Y-93980000D03*
X158750000Y-91440000D03*
X156210000Y-91440000D03*
X158750000Y-88900000D03*
X156210000Y-88900000D03*
X158750000Y-86360000D03*
X156210000Y-86360000D03*
X158750000Y-83820000D03*
X156210000Y-83820000D03*
X158750000Y-81280000D03*
D12*
X156210000Y-81280000D03*
D13*
X149860000Y-85090000D03*
X143510000Y-83820000D03*
X143510000Y-80010000D03*
X152400000Y-86360000D03*
X139709970Y-90160030D03*
X133350000Y-90170000D03*
X133350000Y-90170000D03*
X153670000Y-90170000D03*
X134620000Y-81280000D03*
X134620000Y-90170000D03*
D14*
X157480000Y-85090000D02*
X158750000Y-83820000D01*
X149860000Y-85090000D02*
X157480000Y-85090000D01*
X143510000Y-80010000D02*
X143510000Y-83820000D01*
X156210000Y-81280000D02*
X156210000Y-83820000D01*
X156210000Y-91440000D02*
X156210000Y-88900000D01*
X156210000Y-88900000D02*
X152400000Y-88900000D01*
X139709970Y-90160030D02*
X138430000Y-91440000D01*
X138430000Y-91440000D02*
X133350000Y-91440000D01*
X133350000Y-90170000D02*
X133350000Y-91440000D01*
X152400000Y-88900000D02*
X153670000Y-90170000D01*
X152400000Y-86360000D02*
X152400000Y-88900000D01*
X125410000Y-91440000D02*
X124460000Y-92390000D01*
X133350000Y-91440000D02*
X125410000Y-91440000D01*
X134620000Y-81280000D02*
X134620000Y-88900000D01*
X134620000Y-90170000D02*
X134620000Y-88900000D01*
D15*
G36*
X161163000Y-95123000D02*
G01*
X159707107Y-95123000D01*
X159903475Y-94926632D01*
X160065990Y-94683411D01*
X160177932Y-94413158D01*
X160235000Y-94126260D01*
X160235000Y-93833740D01*
X160177932Y-93546842D01*
X160065990Y-93276589D01*
X159903475Y-93033368D01*
X159696632Y-92826525D01*
X159522240Y-92710000D01*
X159696632Y-92593475D01*
X159903475Y-92386632D01*
X160065990Y-92143411D01*
X160177932Y-91873158D01*
X160235000Y-91586260D01*
X160235000Y-91293740D01*
X160177932Y-91006842D01*
X160065990Y-90736589D01*
X159903475Y-90493368D01*
X159696632Y-90286525D01*
X159522240Y-90170000D01*
X159696632Y-90053475D01*
X159903475Y-89846632D01*
X160065990Y-89603411D01*
X160177932Y-89333158D01*
X160235000Y-89046260D01*
X160235000Y-88753740D01*
X160177932Y-88466842D01*
X160065990Y-88196589D01*
X159903475Y-87953368D01*
X159696632Y-87746525D01*
X159522240Y-87630000D01*
X159696632Y-87513475D01*
X159903475Y-87306632D01*
X160065990Y-87063411D01*
X160177932Y-86793158D01*
X160235000Y-86506260D01*
X160235000Y-86213740D01*
X160177932Y-85926842D01*
X160065990Y-85656589D01*
X159903475Y-85413368D01*
X159696632Y-85206525D01*
X159522240Y-85090000D01*
X159696632Y-84973475D01*
X159903475Y-84766632D01*
X160065990Y-84523411D01*
X160177932Y-84253158D01*
X160235000Y-83966260D01*
X160235000Y-83673740D01*
X160177932Y-83386842D01*
X160065990Y-83116589D01*
X159903475Y-82873368D01*
X159696632Y-82666525D01*
X159522240Y-82550000D01*
X159696632Y-82433475D01*
X159903475Y-82226632D01*
X160065990Y-81983411D01*
X160177932Y-81713158D01*
X160235000Y-81426260D01*
X160235000Y-81133740D01*
X160177932Y-80846842D01*
X160065990Y-80576589D01*
X159903475Y-80333368D01*
X159696632Y-80126525D01*
X159453411Y-79964010D01*
X159183158Y-79852068D01*
X158896260Y-79795000D01*
X158603740Y-79795000D01*
X158316842Y-79852068D01*
X158046589Y-79964010D01*
X157803368Y-80126525D01*
X157671513Y-80258380D01*
X157649502Y-80185820D01*
X157590537Y-80075506D01*
X157511185Y-79978815D01*
X157414494Y-79899463D01*
X157304180Y-79840498D01*
X157184482Y-79804188D01*
X157060000Y-79791928D01*
X155360000Y-79791928D01*
X155235518Y-79804188D01*
X155115820Y-79840498D01*
X155005506Y-79899463D01*
X154908815Y-79978815D01*
X154829463Y-80075506D01*
X154770498Y-80185820D01*
X154734188Y-80305518D01*
X154721928Y-80430000D01*
X154721928Y-82130000D01*
X154734188Y-82254482D01*
X154770498Y-82374180D01*
X154829463Y-82484494D01*
X154908815Y-82581185D01*
X155005506Y-82660537D01*
X155115820Y-82719502D01*
X155188380Y-82741513D01*
X155056525Y-82873368D01*
X154894010Y-83116589D01*
X154782068Y-83386842D01*
X154725000Y-83673740D01*
X154725000Y-83966260D01*
X154782068Y-84253158D01*
X154813897Y-84330000D01*
X150563711Y-84330000D01*
X150519774Y-84286063D01*
X150350256Y-84172795D01*
X150161898Y-84094774D01*
X149961939Y-84055000D01*
X149758061Y-84055000D01*
X149558102Y-84094774D01*
X149369744Y-84172795D01*
X149200226Y-84286063D01*
X149056063Y-84430226D01*
X148942795Y-84599744D01*
X148864774Y-84788102D01*
X148825000Y-84988061D01*
X148825000Y-85191939D01*
X148864774Y-85391898D01*
X148942795Y-85580256D01*
X149056063Y-85749774D01*
X149200226Y-85893937D01*
X149369744Y-86007205D01*
X149558102Y-86085226D01*
X149758061Y-86125000D01*
X149961939Y-86125000D01*
X150161898Y-86085226D01*
X150350256Y-86007205D01*
X150519774Y-85893937D01*
X150563711Y-85850000D01*
X154813897Y-85850000D01*
X154782068Y-85926842D01*
X154725000Y-86213740D01*
X154725000Y-86506260D01*
X154782068Y-86793158D01*
X154894010Y-87063411D01*
X155056525Y-87306632D01*
X155263368Y-87513475D01*
X155445534Y-87635195D01*
X155328645Y-87704822D01*
X155112412Y-87899731D01*
X154938359Y-88133080D01*
X154813175Y-88395901D01*
X154768524Y-88543110D01*
X154889845Y-88773000D01*
X156083000Y-88773000D01*
X156083000Y-88753000D01*
X156337000Y-88753000D01*
X156337000Y-88773000D01*
X156357000Y-88773000D01*
X156357000Y-89027000D01*
X156337000Y-89027000D01*
X156337000Y-91313000D01*
X156357000Y-91313000D01*
X156357000Y-91567000D01*
X156337000Y-91567000D01*
X156337000Y-91587000D01*
X156083000Y-91587000D01*
X156083000Y-91567000D01*
X154889845Y-91567000D01*
X154768524Y-91796890D01*
X154813175Y-91944099D01*
X154938359Y-92206920D01*
X155112412Y-92440269D01*
X155328645Y-92635178D01*
X155445534Y-92704805D01*
X155263368Y-92826525D01*
X155056525Y-93033368D01*
X154894010Y-93276589D01*
X154782068Y-93546842D01*
X154725000Y-93833740D01*
X154725000Y-94126260D01*
X154782068Y-94413158D01*
X154894010Y-94683411D01*
X155056525Y-94926632D01*
X155252893Y-95123000D01*
X150160224Y-95123000D01*
X150309746Y-94899224D01*
X150456034Y-94546055D01*
X150530610Y-94171133D01*
X150530610Y-93788867D01*
X150456034Y-93413945D01*
X150309746Y-93060776D01*
X150097370Y-92742933D01*
X149827067Y-92472630D01*
X149509224Y-92260254D01*
X149156055Y-92113966D01*
X148781133Y-92039390D01*
X148398867Y-92039390D01*
X148023945Y-92113966D01*
X147670776Y-92260254D01*
X147352933Y-92472630D01*
X147082630Y-92742933D01*
X146870254Y-93060776D01*
X146723966Y-93413945D01*
X146649390Y-93788867D01*
X146649390Y-94171133D01*
X146723966Y-94546055D01*
X146870254Y-94899224D01*
X147019776Y-95123000D01*
X138730224Y-95123000D01*
X138879746Y-94899224D01*
X139026034Y-94546055D01*
X139100610Y-94171133D01*
X139100610Y-93788867D01*
X139026034Y-93413945D01*
X138879746Y-93060776D01*
X138667370Y-92742933D01*
X138397067Y-92472630D01*
X138079224Y-92260254D01*
X137726055Y-92113966D01*
X137351133Y-92039390D01*
X136968867Y-92039390D01*
X136593945Y-92113966D01*
X136240776Y-92260254D01*
X135922933Y-92472630D01*
X135652630Y-92742933D01*
X135440254Y-93060776D01*
X135293966Y-93413945D01*
X135219390Y-93788867D01*
X135219390Y-94171133D01*
X135293966Y-94546055D01*
X135440254Y-94899224D01*
X135589776Y-95123000D01*
X124587000Y-95123000D01*
X124587000Y-93624615D01*
X124779182Y-93593386D01*
X125007818Y-93507995D01*
X125085227Y-93466617D01*
X125133021Y-93242626D01*
X124587000Y-92696605D01*
X124587000Y-92390000D01*
X124639605Y-92390000D01*
X125312626Y-93063021D01*
X125536617Y-93015227D01*
X125637906Y-92793176D01*
X125675175Y-92635147D01*
X128024000Y-92635147D01*
X128024000Y-92784853D01*
X128053207Y-92931684D01*
X128110497Y-93069995D01*
X128193670Y-93194472D01*
X128299528Y-93300330D01*
X128424005Y-93383503D01*
X128562316Y-93440793D01*
X128709147Y-93470000D01*
X128858853Y-93470000D01*
X129005684Y-93440793D01*
X129143995Y-93383503D01*
X129268472Y-93300330D01*
X129374330Y-93194472D01*
X129457503Y-93069995D01*
X129514793Y-92931684D01*
X129544000Y-92784853D01*
X129544000Y-92635147D01*
X129514793Y-92488316D01*
X129457503Y-92350005D01*
X129374330Y-92225528D01*
X129268472Y-92119670D01*
X129143995Y-92036497D01*
X129005684Y-91979207D01*
X128858853Y-91950000D01*
X128709147Y-91950000D01*
X128562316Y-91979207D01*
X128424005Y-92036497D01*
X128299528Y-92119670D01*
X128193670Y-92225528D01*
X128110497Y-92350005D01*
X128053207Y-92488316D01*
X128024000Y-92635147D01*
X125675175Y-92635147D01*
X125693929Y-92555631D01*
X125702532Y-92311720D01*
X125663386Y-92070818D01*
X125577995Y-91842182D01*
X125536617Y-91764773D01*
X125312626Y-91716979D01*
X124639605Y-92390000D01*
X124587000Y-92390000D01*
X124587000Y-92083395D01*
X125133021Y-91537374D01*
X125131725Y-91531301D01*
X125249816Y-91452394D01*
X125422394Y-91279816D01*
X125557988Y-91076887D01*
X125651386Y-90851403D01*
X125699000Y-90612031D01*
X125699000Y-90367969D01*
X125651386Y-90128597D01*
X125557988Y-89903113D01*
X125422394Y-89700184D01*
X125249816Y-89527606D01*
X125046887Y-89392012D01*
X124821403Y-89298614D01*
X124587000Y-89251988D01*
X124587000Y-81178061D01*
X133585000Y-81178061D01*
X133585000Y-81381939D01*
X133624774Y-81581898D01*
X133702795Y-81770256D01*
X133816063Y-81939774D01*
X133860000Y-81983711D01*
X133860001Y-88862667D01*
X133860001Y-89466288D01*
X133816063Y-89510226D01*
X133702795Y-89679744D01*
X133624774Y-89868102D01*
X133585000Y-90068061D01*
X133585000Y-90271939D01*
X133624774Y-90471898D01*
X133702795Y-90660256D01*
X133816063Y-90829774D01*
X133960226Y-90973937D01*
X134129744Y-91087205D01*
X134318102Y-91165226D01*
X134518061Y-91205000D01*
X134721939Y-91205000D01*
X134921898Y-91165226D01*
X135110256Y-91087205D01*
X135279774Y-90973937D01*
X135423937Y-90829774D01*
X135537205Y-90660256D01*
X135615226Y-90471898D01*
X135655000Y-90271939D01*
X135655000Y-90068061D01*
X135615226Y-89868102D01*
X135537205Y-89679744D01*
X135423937Y-89510226D01*
X135380000Y-89466289D01*
X135380000Y-89256890D01*
X154768524Y-89256890D01*
X154813175Y-89404099D01*
X154938359Y-89666920D01*
X155112412Y-89900269D01*
X155328645Y-90095178D01*
X155454255Y-90170000D01*
X155328645Y-90244822D01*
X155112412Y-90439731D01*
X154938359Y-90673080D01*
X154813175Y-90935901D01*
X154768524Y-91083110D01*
X154889845Y-91313000D01*
X156083000Y-91313000D01*
X156083000Y-89027000D01*
X154889845Y-89027000D01*
X154768524Y-89256890D01*
X135380000Y-89256890D01*
X135380000Y-81983711D01*
X135423937Y-81939774D01*
X135537205Y-81770256D01*
X135615226Y-81581898D01*
X135655000Y-81381939D01*
X135655000Y-81178061D01*
X135615226Y-80978102D01*
X135537205Y-80789744D01*
X135423937Y-80620226D01*
X135279774Y-80476063D01*
X135110256Y-80362795D01*
X134921898Y-80284774D01*
X134721939Y-80245000D01*
X134518061Y-80245000D01*
X134318102Y-80284774D01*
X134129744Y-80362795D01*
X133960226Y-80476063D01*
X133816063Y-80620226D01*
X133702795Y-80789744D01*
X133624774Y-80978102D01*
X133585000Y-81178061D01*
X124587000Y-81178061D01*
X124587000Y-79908061D01*
X142475000Y-79908061D01*
X142475000Y-80111939D01*
X142514774Y-80311898D01*
X142592795Y-80500256D01*
X142706063Y-80669774D01*
X142750000Y-80713711D01*
X142750001Y-83116288D01*
X142706063Y-83160226D01*
X142592795Y-83329744D01*
X142514774Y-83518102D01*
X142475000Y-83718061D01*
X142475000Y-83921939D01*
X142514774Y-84121898D01*
X142592795Y-84310256D01*
X142706063Y-84479774D01*
X142850226Y-84623937D01*
X143019744Y-84737205D01*
X143208102Y-84815226D01*
X143408061Y-84855000D01*
X143611939Y-84855000D01*
X143811898Y-84815226D01*
X144000256Y-84737205D01*
X144169774Y-84623937D01*
X144313937Y-84479774D01*
X144427205Y-84310256D01*
X144505226Y-84121898D01*
X144545000Y-83921939D01*
X144545000Y-83718061D01*
X144505226Y-83518102D01*
X144427205Y-83329744D01*
X144313937Y-83160226D01*
X144270000Y-83116289D01*
X144270000Y-80713711D01*
X144313937Y-80669774D01*
X144427205Y-80500256D01*
X144505226Y-80311898D01*
X144545000Y-80111939D01*
X144545000Y-79908061D01*
X144505226Y-79708102D01*
X144427205Y-79519744D01*
X144313937Y-79350226D01*
X144169774Y-79206063D01*
X144000256Y-79092795D01*
X143811898Y-79014774D01*
X143611939Y-78975000D01*
X143408061Y-78975000D01*
X143208102Y-79014774D01*
X143019744Y-79092795D01*
X142850226Y-79206063D01*
X142706063Y-79350226D01*
X142592795Y-79519744D01*
X142514774Y-79708102D01*
X142475000Y-79908061D01*
X124587000Y-79908061D01*
X124587000Y-78867000D01*
X161163000Y-78867000D01*
X161163000Y-95123000D01*
G37*
X161163000Y-95123000D02*
X159707107Y-95123000D01*
X159903475Y-94926632D01*
X160065990Y-94683411D01*
X160177932Y-94413158D01*
X160235000Y-94126260D01*
X160235000Y-93833740D01*
X160177932Y-93546842D01*
X160065990Y-93276589D01*
X159903475Y-93033368D01*
X159696632Y-92826525D01*
X159522240Y-92710000D01*
X159696632Y-92593475D01*
X159903475Y-92386632D01*
X160065990Y-92143411D01*
X160177932Y-91873158D01*
X160235000Y-91586260D01*
X160235000Y-91293740D01*
X160177932Y-91006842D01*
X160065990Y-90736589D01*
X159903475Y-90493368D01*
X159696632Y-90286525D01*
X159522240Y-90170000D01*
X159696632Y-90053475D01*
X159903475Y-89846632D01*
X160065990Y-89603411D01*
X160177932Y-89333158D01*
X160235000Y-89046260D01*
X160235000Y-88753740D01*
X160177932Y-88466842D01*
X160065990Y-88196589D01*
X159903475Y-87953368D01*
X159696632Y-87746525D01*
X159522240Y-87630000D01*
X159696632Y-87513475D01*
X159903475Y-87306632D01*
X160065990Y-87063411D01*
X160177932Y-86793158D01*
X160235000Y-86506260D01*
X160235000Y-86213740D01*
X160177932Y-85926842D01*
X160065990Y-85656589D01*
X159903475Y-85413368D01*
X159696632Y-85206525D01*
X159522240Y-85090000D01*
X159696632Y-84973475D01*
X159903475Y-84766632D01*
X160065990Y-84523411D01*
X160177932Y-84253158D01*
X160235000Y-83966260D01*
X160235000Y-83673740D01*
X160177932Y-83386842D01*
X160065990Y-83116589D01*
X159903475Y-82873368D01*
X159696632Y-82666525D01*
X159522240Y-82550000D01*
X159696632Y-82433475D01*
X159903475Y-82226632D01*
X160065990Y-81983411D01*
X160177932Y-81713158D01*
X160235000Y-81426260D01*
X160235000Y-81133740D01*
X160177932Y-80846842D01*
X160065990Y-80576589D01*
X159903475Y-80333368D01*
X159696632Y-80126525D01*
X159453411Y-79964010D01*
X159183158Y-79852068D01*
X158896260Y-79795000D01*
X158603740Y-79795000D01*
X158316842Y-79852068D01*
X158046589Y-79964010D01*
X157803368Y-80126525D01*
X157671513Y-80258380D01*
X157649502Y-80185820D01*
X157590537Y-80075506D01*
X157511185Y-79978815D01*
X157414494Y-79899463D01*
X157304180Y-79840498D01*
X157184482Y-79804188D01*
X157060000Y-79791928D01*
X155360000Y-79791928D01*
X155235518Y-79804188D01*
X155115820Y-79840498D01*
X155005506Y-79899463D01*
X154908815Y-79978815D01*
X154829463Y-80075506D01*
X154770498Y-80185820D01*
X154734188Y-80305518D01*
X154721928Y-80430000D01*
X154721928Y-82130000D01*
X154734188Y-82254482D01*
X154770498Y-82374180D01*
X154829463Y-82484494D01*
X154908815Y-82581185D01*
X155005506Y-82660537D01*
X155115820Y-82719502D01*
X155188380Y-82741513D01*
X155056525Y-82873368D01*
X154894010Y-83116589D01*
X154782068Y-83386842D01*
X154725000Y-83673740D01*
X154725000Y-83966260D01*
X154782068Y-84253158D01*
X154813897Y-84330000D01*
X150563711Y-84330000D01*
X150519774Y-84286063D01*
X150350256Y-84172795D01*
X150161898Y-84094774D01*
X149961939Y-84055000D01*
X149758061Y-84055000D01*
X149558102Y-84094774D01*
X149369744Y-84172795D01*
X149200226Y-84286063D01*
X149056063Y-84430226D01*
X148942795Y-84599744D01*
X148864774Y-84788102D01*
X148825000Y-84988061D01*
X148825000Y-85191939D01*
X148864774Y-85391898D01*
X148942795Y-85580256D01*
X149056063Y-85749774D01*
X149200226Y-85893937D01*
X149369744Y-86007205D01*
X149558102Y-86085226D01*
X149758061Y-86125000D01*
X149961939Y-86125000D01*
X150161898Y-86085226D01*
X150350256Y-86007205D01*
X150519774Y-85893937D01*
X150563711Y-85850000D01*
X154813897Y-85850000D01*
X154782068Y-85926842D01*
X154725000Y-86213740D01*
X154725000Y-86506260D01*
X154782068Y-86793158D01*
X154894010Y-87063411D01*
X155056525Y-87306632D01*
X155263368Y-87513475D01*
X155445534Y-87635195D01*
X155328645Y-87704822D01*
X155112412Y-87899731D01*
X154938359Y-88133080D01*
X154813175Y-88395901D01*
X154768524Y-88543110D01*
X154889845Y-88773000D01*
X156083000Y-88773000D01*
X156083000Y-88753000D01*
X156337000Y-88753000D01*
X156337000Y-88773000D01*
X156357000Y-88773000D01*
X156357000Y-89027000D01*
X156337000Y-89027000D01*
X156337000Y-91313000D01*
X156357000Y-91313000D01*
X156357000Y-91567000D01*
X156337000Y-91567000D01*
X156337000Y-91587000D01*
X156083000Y-91587000D01*
X156083000Y-91567000D01*
X154889845Y-91567000D01*
X154768524Y-91796890D01*
X154813175Y-91944099D01*
X154938359Y-92206920D01*
X155112412Y-92440269D01*
X155328645Y-92635178D01*
X155445534Y-92704805D01*
X155263368Y-92826525D01*
X155056525Y-93033368D01*
X154894010Y-93276589D01*
X154782068Y-93546842D01*
X154725000Y-93833740D01*
X154725000Y-94126260D01*
X154782068Y-94413158D01*
X154894010Y-94683411D01*
X155056525Y-94926632D01*
X155252893Y-95123000D01*
X150160224Y-95123000D01*
X150309746Y-94899224D01*
X150456034Y-94546055D01*
X150530610Y-94171133D01*
X150530610Y-93788867D01*
X150456034Y-93413945D01*
X150309746Y-93060776D01*
X150097370Y-92742933D01*
X149827067Y-92472630D01*
X149509224Y-92260254D01*
X149156055Y-92113966D01*
X148781133Y-92039390D01*
X148398867Y-92039390D01*
X148023945Y-92113966D01*
X147670776Y-92260254D01*
X147352933Y-92472630D01*
X147082630Y-92742933D01*
X146870254Y-93060776D01*
X146723966Y-93413945D01*
X146649390Y-93788867D01*
X146649390Y-94171133D01*
X146723966Y-94546055D01*
X146870254Y-94899224D01*
X147019776Y-95123000D01*
X138730224Y-95123000D01*
X138879746Y-94899224D01*
X139026034Y-94546055D01*
X139100610Y-94171133D01*
X139100610Y-93788867D01*
X139026034Y-93413945D01*
X138879746Y-93060776D01*
X138667370Y-92742933D01*
X138397067Y-92472630D01*
X138079224Y-92260254D01*
X137726055Y-92113966D01*
X137351133Y-92039390D01*
X136968867Y-92039390D01*
X136593945Y-92113966D01*
X136240776Y-92260254D01*
X135922933Y-92472630D01*
X135652630Y-92742933D01*
X135440254Y-93060776D01*
X135293966Y-93413945D01*
X135219390Y-93788867D01*
X135219390Y-94171133D01*
X135293966Y-94546055D01*
X135440254Y-94899224D01*
X135589776Y-95123000D01*
X124587000Y-95123000D01*
X124587000Y-93624615D01*
X124779182Y-93593386D01*
X125007818Y-93507995D01*
X125085227Y-93466617D01*
X125133021Y-93242626D01*
X124587000Y-92696605D01*
X124587000Y-92390000D01*
X124639605Y-92390000D01*
X125312626Y-93063021D01*
X125536617Y-93015227D01*
X125637906Y-92793176D01*
X125675175Y-92635147D01*
X128024000Y-92635147D01*
X128024000Y-92784853D01*
X128053207Y-92931684D01*
X128110497Y-93069995D01*
X128193670Y-93194472D01*
X128299528Y-93300330D01*
X128424005Y-93383503D01*
X128562316Y-93440793D01*
X128709147Y-93470000D01*
X128858853Y-93470000D01*
X129005684Y-93440793D01*
X129143995Y-93383503D01*
X129268472Y-93300330D01*
X129374330Y-93194472D01*
X129457503Y-93069995D01*
X129514793Y-92931684D01*
X129544000Y-92784853D01*
X129544000Y-92635147D01*
X129514793Y-92488316D01*
X129457503Y-92350005D01*
X129374330Y-92225528D01*
X129268472Y-92119670D01*
X129143995Y-92036497D01*
X129005684Y-91979207D01*
X128858853Y-91950000D01*
X128709147Y-91950000D01*
X128562316Y-91979207D01*
X128424005Y-92036497D01*
X128299528Y-92119670D01*
X128193670Y-92225528D01*
X128110497Y-92350005D01*
X128053207Y-92488316D01*
X128024000Y-92635147D01*
X125675175Y-92635147D01*
X125693929Y-92555631D01*
X125702532Y-92311720D01*
X125663386Y-92070818D01*
X125577995Y-91842182D01*
X125536617Y-91764773D01*
X125312626Y-91716979D01*
X124639605Y-92390000D01*
X124587000Y-92390000D01*
X124587000Y-92083395D01*
X125133021Y-91537374D01*
X125131725Y-91531301D01*
X125249816Y-91452394D01*
X125422394Y-91279816D01*
X125557988Y-91076887D01*
X125651386Y-90851403D01*
X125699000Y-90612031D01*
X125699000Y-90367969D01*
X125651386Y-90128597D01*
X125557988Y-89903113D01*
X125422394Y-89700184D01*
X125249816Y-89527606D01*
X125046887Y-89392012D01*
X124821403Y-89298614D01*
X124587000Y-89251988D01*
X124587000Y-81178061D01*
X133585000Y-81178061D01*
X133585000Y-81381939D01*
X133624774Y-81581898D01*
X133702795Y-81770256D01*
X133816063Y-81939774D01*
X133860000Y-81983711D01*
X133860001Y-88862667D01*
X133860001Y-89466288D01*
X133816063Y-89510226D01*
X133702795Y-89679744D01*
X133624774Y-89868102D01*
X133585000Y-90068061D01*
X133585000Y-90271939D01*
X133624774Y-90471898D01*
X133702795Y-90660256D01*
X133816063Y-90829774D01*
X133960226Y-90973937D01*
X134129744Y-91087205D01*
X134318102Y-91165226D01*
X134518061Y-91205000D01*
X134721939Y-91205000D01*
X134921898Y-91165226D01*
X135110256Y-91087205D01*
X135279774Y-90973937D01*
X135423937Y-90829774D01*
X135537205Y-90660256D01*
X135615226Y-90471898D01*
X135655000Y-90271939D01*
X135655000Y-90068061D01*
X135615226Y-89868102D01*
X135537205Y-89679744D01*
X135423937Y-89510226D01*
X135380000Y-89466289D01*
X135380000Y-89256890D01*
X154768524Y-89256890D01*
X154813175Y-89404099D01*
X154938359Y-89666920D01*
X155112412Y-89900269D01*
X155328645Y-90095178D01*
X155454255Y-90170000D01*
X155328645Y-90244822D01*
X155112412Y-90439731D01*
X154938359Y-90673080D01*
X154813175Y-90935901D01*
X154768524Y-91083110D01*
X154889845Y-91313000D01*
X156083000Y-91313000D01*
X156083000Y-89027000D01*
X154889845Y-89027000D01*
X154768524Y-89256890D01*
X135380000Y-89256890D01*
X135380000Y-81983711D01*
X135423937Y-81939774D01*
X135537205Y-81770256D01*
X135615226Y-81581898D01*
X135655000Y-81381939D01*
X135655000Y-81178061D01*
X135615226Y-80978102D01*
X135537205Y-80789744D01*
X135423937Y-80620226D01*
X135279774Y-80476063D01*
X135110256Y-80362795D01*
X134921898Y-80284774D01*
X134721939Y-80245000D01*
X134518061Y-80245000D01*
X134318102Y-80284774D01*
X134129744Y-80362795D01*
X133960226Y-80476063D01*
X133816063Y-80620226D01*
X133702795Y-80789744D01*
X133624774Y-80978102D01*
X133585000Y-81178061D01*
X124587000Y-81178061D01*
X124587000Y-79908061D01*
X142475000Y-79908061D01*
X142475000Y-80111939D01*
X142514774Y-80311898D01*
X142592795Y-80500256D01*
X142706063Y-80669774D01*
X142750000Y-80713711D01*
X142750001Y-83116288D01*
X142706063Y-83160226D01*
X142592795Y-83329744D01*
X142514774Y-83518102D01*
X142475000Y-83718061D01*
X142475000Y-83921939D01*
X142514774Y-84121898D01*
X142592795Y-84310256D01*
X142706063Y-84479774D01*
X142850226Y-84623937D01*
X143019744Y-84737205D01*
X143208102Y-84815226D01*
X143408061Y-84855000D01*
X143611939Y-84855000D01*
X143811898Y-84815226D01*
X144000256Y-84737205D01*
X144169774Y-84623937D01*
X144313937Y-84479774D01*
X144427205Y-84310256D01*
X144505226Y-84121898D01*
X144545000Y-83921939D01*
X144545000Y-83718061D01*
X144505226Y-83518102D01*
X144427205Y-83329744D01*
X144313937Y-83160226D01*
X144270000Y-83116289D01*
X144270000Y-80713711D01*
X144313937Y-80669774D01*
X144427205Y-80500256D01*
X144505226Y-80311898D01*
X144545000Y-80111939D01*
X144545000Y-79908061D01*
X144505226Y-79708102D01*
X144427205Y-79519744D01*
X144313937Y-79350226D01*
X144169774Y-79206063D01*
X144000256Y-79092795D01*
X143811898Y-79014774D01*
X143611939Y-78975000D01*
X143408061Y-78975000D01*
X143208102Y-79014774D01*
X143019744Y-79092795D01*
X142850226Y-79206063D01*
X142706063Y-79350226D01*
X142592795Y-79519744D01*
X142514774Y-79708102D01*
X142475000Y-79908061D01*
X124587000Y-79908061D01*
X124587000Y-78867000D01*
X161163000Y-78867000D01*
X161163000Y-95123000D01*
G36*
X124333000Y-89251988D02*
G01*
X124098597Y-89298614D01*
X123873113Y-89392012D01*
X123670184Y-89527606D01*
X123497606Y-89700184D01*
X123362012Y-89903113D01*
X123268614Y-90128597D01*
X123221000Y-90367969D01*
X123221000Y-90612031D01*
X123268614Y-90851403D01*
X123362012Y-91076887D01*
X123497606Y-91279816D01*
X123670184Y-91452394D01*
X123788275Y-91531301D01*
X123786979Y-91537374D01*
X124333000Y-92083395D01*
X124333000Y-92696605D01*
X123786979Y-93242626D01*
X123834773Y-93466617D01*
X124056824Y-93567906D01*
X124294369Y-93623929D01*
X124333000Y-93625292D01*
X124333000Y-95123000D01*
X120777000Y-95123000D01*
X120777000Y-92468280D01*
X123217468Y-92468280D01*
X123256614Y-92709182D01*
X123342005Y-92937818D01*
X123383383Y-93015227D01*
X123607374Y-93063021D01*
X124280395Y-92390000D01*
X123607374Y-91716979D01*
X123383383Y-91764773D01*
X123282094Y-91986824D01*
X123226071Y-92224369D01*
X123217468Y-92468280D01*
X120777000Y-92468280D01*
X120777000Y-78867000D01*
X124333000Y-78867000D01*
X124333000Y-89251988D01*
G37*
X124333000Y-89251988D02*
X124098597Y-89298614D01*
X123873113Y-89392012D01*
X123670184Y-89527606D01*
X123497606Y-89700184D01*
X123362012Y-89903113D01*
X123268614Y-90128597D01*
X123221000Y-90367969D01*
X123221000Y-90612031D01*
X123268614Y-90851403D01*
X123362012Y-91076887D01*
X123497606Y-91279816D01*
X123670184Y-91452394D01*
X123788275Y-91531301D01*
X123786979Y-91537374D01*
X124333000Y-92083395D01*
X124333000Y-92696605D01*
X123786979Y-93242626D01*
X123834773Y-93466617D01*
X124056824Y-93567906D01*
X124294369Y-93623929D01*
X124333000Y-93625292D01*
X124333000Y-95123000D01*
X120777000Y-95123000D01*
X120777000Y-92468280D01*
X123217468Y-92468280D01*
X123256614Y-92709182D01*
X123342005Y-92937818D01*
X123383383Y-93015227D01*
X123607374Y-93063021D01*
X124280395Y-92390000D01*
X123607374Y-91716979D01*
X123383383Y-91764773D01*
X123282094Y-91986824D01*
X123226071Y-92224369D01*
X123217468Y-92468280D01*
X120777000Y-92468280D01*
X120777000Y-78867000D01*
X124333000Y-78867000D01*
X124333000Y-89251988D01*
M02*
