G04 #@! TF.GenerationSoftware,KiCad,Pcbnew,(5.1.5-0-10_14)*
G04 #@! TF.CreationDate,2020-03-24T20:34:03-05:00*
G04 #@! TF.ProjectId,Sensors,53656e73-6f72-4732-9e6b-696361645f70,rev?*
G04 #@! TF.SameCoordinates,Original*
G04 #@! TF.FileFunction,Copper,L1,Top*
G04 #@! TF.FilePolarity,Positive*
%FSLAX46Y46*%
G04 Gerber Fmt 4.6, Leading zero omitted, Abs format (unit mm)*
G04 Created by KiCad (PCBNEW (5.1.5-0-10_14)) date 2020-03-24 20:34:03*
%MOMM*%
%LPD*%
G04 APERTURE LIST*
%ADD10C,0.010000*%
%ADD11C,1.208000*%
%ADD12C,0.100000*%
%ADD13R,0.080000X0.080000*%
%ADD14C,0.612000*%
%ADD15C,0.562000*%
%ADD16C,0.723000*%
%ADD17R,2.290000X3.000000*%
%ADD18O,1.700000X1.700000*%
%ADD19R,1.700000X1.700000*%
%ADD20C,0.800000*%
%ADD21C,0.250000*%
%ADD22C,0.254000*%
G04 APERTURE END LIST*
D10*
G36*
X128784000Y-93322000D02*
G01*
X128847971Y-93318647D01*
X128911242Y-93308626D01*
X128973118Y-93292047D01*
X129032923Y-93269090D01*
X129090000Y-93240008D01*
X129143725Y-93205118D01*
X129193508Y-93164805D01*
X129238805Y-93119508D01*
X129279118Y-93069725D01*
X129314008Y-93016000D01*
X129343090Y-92958923D01*
X129366047Y-92899118D01*
X129382626Y-92837242D01*
X129392647Y-92773971D01*
X129396000Y-92710000D01*
X129392647Y-92646029D01*
X129382626Y-92582758D01*
X129366047Y-92520882D01*
X129343090Y-92461077D01*
X129314008Y-92404000D01*
X129279118Y-92350275D01*
X129238805Y-92300492D01*
X129193508Y-92255195D01*
X129143725Y-92214882D01*
X129090000Y-92179992D01*
X129032923Y-92150910D01*
X128973118Y-92127953D01*
X128911242Y-92111374D01*
X128847971Y-92101353D01*
X128784000Y-92098000D01*
X128720029Y-92101353D01*
X128656758Y-92111374D01*
X128594882Y-92127953D01*
X128535077Y-92150910D01*
X128478000Y-92179992D01*
X128424275Y-92214882D01*
X128374492Y-92255195D01*
X128329195Y-92300492D01*
X128288882Y-92350275D01*
X128253992Y-92404000D01*
X128224910Y-92461077D01*
X128201953Y-92520882D01*
X128185374Y-92582758D01*
X128175353Y-92646029D01*
X128172000Y-92710000D01*
X128175353Y-92773971D01*
X128185374Y-92837242D01*
X128201953Y-92899118D01*
X128224910Y-92958923D01*
X128253992Y-93016000D01*
X128288882Y-93069725D01*
X128329195Y-93119508D01*
X128374492Y-93164805D01*
X128424275Y-93205118D01*
X128478000Y-93240008D01*
X128535077Y-93269090D01*
X128594882Y-93292047D01*
X128656758Y-93308626D01*
X128720029Y-93318647D01*
X128784000Y-93322000D01*
X128784000Y-93015000D01*
X128815881Y-93013329D01*
X128847413Y-93008335D01*
X128878250Y-93000072D01*
X128908055Y-92988631D01*
X128936500Y-92974138D01*
X128963275Y-92956750D01*
X128988085Y-92936659D01*
X129010659Y-92914085D01*
X129030750Y-92889275D01*
X129048138Y-92862500D01*
X129062631Y-92834055D01*
X129074072Y-92804250D01*
X129082335Y-92773413D01*
X129087329Y-92741881D01*
X129089000Y-92710000D01*
X129087329Y-92678119D01*
X129082335Y-92646587D01*
X129074072Y-92615750D01*
X129062631Y-92585945D01*
X129048138Y-92557500D01*
X129030750Y-92530725D01*
X129010659Y-92505915D01*
X128988085Y-92483341D01*
X128963275Y-92463250D01*
X128936500Y-92445862D01*
X128908055Y-92431369D01*
X128878250Y-92419928D01*
X128847413Y-92411665D01*
X128815881Y-92406671D01*
X128784000Y-92405000D01*
X128815881Y-92406671D01*
X128847413Y-92411665D01*
X128878250Y-92419928D01*
X128908055Y-92431369D01*
X128936500Y-92445862D01*
X128963275Y-92463250D01*
X128988085Y-92483341D01*
X129010659Y-92505915D01*
X129030750Y-92530725D01*
X129048138Y-92557500D01*
X129062631Y-92585945D01*
X129074072Y-92615750D01*
X129082335Y-92646587D01*
X129087329Y-92678119D01*
X129089000Y-92710000D01*
X129087329Y-92741881D01*
X129082335Y-92773413D01*
X129074072Y-92804250D01*
X129062631Y-92834055D01*
X129048138Y-92862500D01*
X129030750Y-92889275D01*
X129010659Y-92914085D01*
X128988085Y-92936659D01*
X128963275Y-92956750D01*
X128936500Y-92974138D01*
X128908055Y-92988631D01*
X128878250Y-93000072D01*
X128847413Y-93008335D01*
X128815881Y-93013329D01*
X128784000Y-93015000D01*
X128784000Y-93322000D01*
G37*
X128784000Y-93322000D02*
X128847971Y-93318647D01*
X128911242Y-93308626D01*
X128973118Y-93292047D01*
X129032923Y-93269090D01*
X129090000Y-93240008D01*
X129143725Y-93205118D01*
X129193508Y-93164805D01*
X129238805Y-93119508D01*
X129279118Y-93069725D01*
X129314008Y-93016000D01*
X129343090Y-92958923D01*
X129366047Y-92899118D01*
X129382626Y-92837242D01*
X129392647Y-92773971D01*
X129396000Y-92710000D01*
X129392647Y-92646029D01*
X129382626Y-92582758D01*
X129366047Y-92520882D01*
X129343090Y-92461077D01*
X129314008Y-92404000D01*
X129279118Y-92350275D01*
X129238805Y-92300492D01*
X129193508Y-92255195D01*
X129143725Y-92214882D01*
X129090000Y-92179992D01*
X129032923Y-92150910D01*
X128973118Y-92127953D01*
X128911242Y-92111374D01*
X128847971Y-92101353D01*
X128784000Y-92098000D01*
X128720029Y-92101353D01*
X128656758Y-92111374D01*
X128594882Y-92127953D01*
X128535077Y-92150910D01*
X128478000Y-92179992D01*
X128424275Y-92214882D01*
X128374492Y-92255195D01*
X128329195Y-92300492D01*
X128288882Y-92350275D01*
X128253992Y-92404000D01*
X128224910Y-92461077D01*
X128201953Y-92520882D01*
X128185374Y-92582758D01*
X128175353Y-92646029D01*
X128172000Y-92710000D01*
X128175353Y-92773971D01*
X128185374Y-92837242D01*
X128201953Y-92899118D01*
X128224910Y-92958923D01*
X128253992Y-93016000D01*
X128288882Y-93069725D01*
X128329195Y-93119508D01*
X128374492Y-93164805D01*
X128424275Y-93205118D01*
X128478000Y-93240008D01*
X128535077Y-93269090D01*
X128594882Y-93292047D01*
X128656758Y-93308626D01*
X128720029Y-93318647D01*
X128784000Y-93322000D01*
X128784000Y-93015000D01*
X128815881Y-93013329D01*
X128847413Y-93008335D01*
X128878250Y-93000072D01*
X128908055Y-92988631D01*
X128936500Y-92974138D01*
X128963275Y-92956750D01*
X128988085Y-92936659D01*
X129010659Y-92914085D01*
X129030750Y-92889275D01*
X129048138Y-92862500D01*
X129062631Y-92834055D01*
X129074072Y-92804250D01*
X129082335Y-92773413D01*
X129087329Y-92741881D01*
X129089000Y-92710000D01*
X129087329Y-92678119D01*
X129082335Y-92646587D01*
X129074072Y-92615750D01*
X129062631Y-92585945D01*
X129048138Y-92557500D01*
X129030750Y-92530725D01*
X129010659Y-92505915D01*
X128988085Y-92483341D01*
X128963275Y-92463250D01*
X128936500Y-92445862D01*
X128908055Y-92431369D01*
X128878250Y-92419928D01*
X128847413Y-92411665D01*
X128815881Y-92406671D01*
X128784000Y-92405000D01*
X128815881Y-92406671D01*
X128847413Y-92411665D01*
X128878250Y-92419928D01*
X128908055Y-92431369D01*
X128936500Y-92445862D01*
X128963275Y-92463250D01*
X128988085Y-92483341D01*
X129010659Y-92505915D01*
X129030750Y-92530725D01*
X129048138Y-92557500D01*
X129062631Y-92585945D01*
X129074072Y-92615750D01*
X129082335Y-92646587D01*
X129087329Y-92678119D01*
X129089000Y-92710000D01*
X129087329Y-92741881D01*
X129082335Y-92773413D01*
X129074072Y-92804250D01*
X129062631Y-92834055D01*
X129048138Y-92862500D01*
X129030750Y-92889275D01*
X129010659Y-92914085D01*
X128988085Y-92936659D01*
X128963275Y-92956750D01*
X128936500Y-92974138D01*
X128908055Y-92988631D01*
X128878250Y-93000072D01*
X128847413Y-93008335D01*
X128815881Y-93013329D01*
X128784000Y-93015000D01*
X128784000Y-93322000D01*
D11*
X124460000Y-90490000D03*
X124460000Y-92390000D03*
G04 #@! TA.AperFunction,SMDPad,CuDef*
D12*
G36*
X126662642Y-81851174D02*
G01*
X126686303Y-81854684D01*
X126709507Y-81860496D01*
X126732029Y-81868554D01*
X126753653Y-81878782D01*
X126774170Y-81891079D01*
X126793383Y-81905329D01*
X126811107Y-81921393D01*
X126827171Y-81939117D01*
X126841421Y-81958330D01*
X126853718Y-81978847D01*
X126863946Y-82000471D01*
X126872004Y-82022993D01*
X126877816Y-82046197D01*
X126881326Y-82069858D01*
X126882500Y-82093750D01*
X126882500Y-83006250D01*
X126881326Y-83030142D01*
X126877816Y-83053803D01*
X126872004Y-83077007D01*
X126863946Y-83099529D01*
X126853718Y-83121153D01*
X126841421Y-83141670D01*
X126827171Y-83160883D01*
X126811107Y-83178607D01*
X126793383Y-83194671D01*
X126774170Y-83208921D01*
X126753653Y-83221218D01*
X126732029Y-83231446D01*
X126709507Y-83239504D01*
X126686303Y-83245316D01*
X126662642Y-83248826D01*
X126638750Y-83250000D01*
X126151250Y-83250000D01*
X126127358Y-83248826D01*
X126103697Y-83245316D01*
X126080493Y-83239504D01*
X126057971Y-83231446D01*
X126036347Y-83221218D01*
X126015830Y-83208921D01*
X125996617Y-83194671D01*
X125978893Y-83178607D01*
X125962829Y-83160883D01*
X125948579Y-83141670D01*
X125936282Y-83121153D01*
X125926054Y-83099529D01*
X125917996Y-83077007D01*
X125912184Y-83053803D01*
X125908674Y-83030142D01*
X125907500Y-83006250D01*
X125907500Y-82093750D01*
X125908674Y-82069858D01*
X125912184Y-82046197D01*
X125917996Y-82022993D01*
X125926054Y-82000471D01*
X125936282Y-81978847D01*
X125948579Y-81958330D01*
X125962829Y-81939117D01*
X125978893Y-81921393D01*
X125996617Y-81905329D01*
X126015830Y-81891079D01*
X126036347Y-81878782D01*
X126057971Y-81868554D01*
X126080493Y-81860496D01*
X126103697Y-81854684D01*
X126127358Y-81851174D01*
X126151250Y-81850000D01*
X126638750Y-81850000D01*
X126662642Y-81851174D01*
G37*
G04 #@! TD.AperFunction*
G04 #@! TA.AperFunction,SMDPad,CuDef*
G36*
X128537642Y-81851174D02*
G01*
X128561303Y-81854684D01*
X128584507Y-81860496D01*
X128607029Y-81868554D01*
X128628653Y-81878782D01*
X128649170Y-81891079D01*
X128668383Y-81905329D01*
X128686107Y-81921393D01*
X128702171Y-81939117D01*
X128716421Y-81958330D01*
X128728718Y-81978847D01*
X128738946Y-82000471D01*
X128747004Y-82022993D01*
X128752816Y-82046197D01*
X128756326Y-82069858D01*
X128757500Y-82093750D01*
X128757500Y-83006250D01*
X128756326Y-83030142D01*
X128752816Y-83053803D01*
X128747004Y-83077007D01*
X128738946Y-83099529D01*
X128728718Y-83121153D01*
X128716421Y-83141670D01*
X128702171Y-83160883D01*
X128686107Y-83178607D01*
X128668383Y-83194671D01*
X128649170Y-83208921D01*
X128628653Y-83221218D01*
X128607029Y-83231446D01*
X128584507Y-83239504D01*
X128561303Y-83245316D01*
X128537642Y-83248826D01*
X128513750Y-83250000D01*
X128026250Y-83250000D01*
X128002358Y-83248826D01*
X127978697Y-83245316D01*
X127955493Y-83239504D01*
X127932971Y-83231446D01*
X127911347Y-83221218D01*
X127890830Y-83208921D01*
X127871617Y-83194671D01*
X127853893Y-83178607D01*
X127837829Y-83160883D01*
X127823579Y-83141670D01*
X127811282Y-83121153D01*
X127801054Y-83099529D01*
X127792996Y-83077007D01*
X127787184Y-83053803D01*
X127783674Y-83030142D01*
X127782500Y-83006250D01*
X127782500Y-82093750D01*
X127783674Y-82069858D01*
X127787184Y-82046197D01*
X127792996Y-82022993D01*
X127801054Y-82000471D01*
X127811282Y-81978847D01*
X127823579Y-81958330D01*
X127837829Y-81939117D01*
X127853893Y-81921393D01*
X127871617Y-81905329D01*
X127890830Y-81891079D01*
X127911347Y-81878782D01*
X127932971Y-81868554D01*
X127955493Y-81860496D01*
X127978697Y-81854684D01*
X128002358Y-81851174D01*
X128026250Y-81850000D01*
X128513750Y-81850000D01*
X128537642Y-81851174D01*
G37*
G04 #@! TD.AperFunction*
G04 #@! TA.AperFunction,SMDPad,CuDef*
G36*
X131077642Y-81851174D02*
G01*
X131101303Y-81854684D01*
X131124507Y-81860496D01*
X131147029Y-81868554D01*
X131168653Y-81878782D01*
X131189170Y-81891079D01*
X131208383Y-81905329D01*
X131226107Y-81921393D01*
X131242171Y-81939117D01*
X131256421Y-81958330D01*
X131268718Y-81978847D01*
X131278946Y-82000471D01*
X131287004Y-82022993D01*
X131292816Y-82046197D01*
X131296326Y-82069858D01*
X131297500Y-82093750D01*
X131297500Y-83006250D01*
X131296326Y-83030142D01*
X131292816Y-83053803D01*
X131287004Y-83077007D01*
X131278946Y-83099529D01*
X131268718Y-83121153D01*
X131256421Y-83141670D01*
X131242171Y-83160883D01*
X131226107Y-83178607D01*
X131208383Y-83194671D01*
X131189170Y-83208921D01*
X131168653Y-83221218D01*
X131147029Y-83231446D01*
X131124507Y-83239504D01*
X131101303Y-83245316D01*
X131077642Y-83248826D01*
X131053750Y-83250000D01*
X130566250Y-83250000D01*
X130542358Y-83248826D01*
X130518697Y-83245316D01*
X130495493Y-83239504D01*
X130472971Y-83231446D01*
X130451347Y-83221218D01*
X130430830Y-83208921D01*
X130411617Y-83194671D01*
X130393893Y-83178607D01*
X130377829Y-83160883D01*
X130363579Y-83141670D01*
X130351282Y-83121153D01*
X130341054Y-83099529D01*
X130332996Y-83077007D01*
X130327184Y-83053803D01*
X130323674Y-83030142D01*
X130322500Y-83006250D01*
X130322500Y-82093750D01*
X130323674Y-82069858D01*
X130327184Y-82046197D01*
X130332996Y-82022993D01*
X130341054Y-82000471D01*
X130351282Y-81978847D01*
X130363579Y-81958330D01*
X130377829Y-81939117D01*
X130393893Y-81921393D01*
X130411617Y-81905329D01*
X130430830Y-81891079D01*
X130451347Y-81878782D01*
X130472971Y-81868554D01*
X130495493Y-81860496D01*
X130518697Y-81854684D01*
X130542358Y-81851174D01*
X130566250Y-81850000D01*
X131053750Y-81850000D01*
X131077642Y-81851174D01*
G37*
G04 #@! TD.AperFunction*
G04 #@! TA.AperFunction,SMDPad,CuDef*
G36*
X132952642Y-81851174D02*
G01*
X132976303Y-81854684D01*
X132999507Y-81860496D01*
X133022029Y-81868554D01*
X133043653Y-81878782D01*
X133064170Y-81891079D01*
X133083383Y-81905329D01*
X133101107Y-81921393D01*
X133117171Y-81939117D01*
X133131421Y-81958330D01*
X133143718Y-81978847D01*
X133153946Y-82000471D01*
X133162004Y-82022993D01*
X133167816Y-82046197D01*
X133171326Y-82069858D01*
X133172500Y-82093750D01*
X133172500Y-83006250D01*
X133171326Y-83030142D01*
X133167816Y-83053803D01*
X133162004Y-83077007D01*
X133153946Y-83099529D01*
X133143718Y-83121153D01*
X133131421Y-83141670D01*
X133117171Y-83160883D01*
X133101107Y-83178607D01*
X133083383Y-83194671D01*
X133064170Y-83208921D01*
X133043653Y-83221218D01*
X133022029Y-83231446D01*
X132999507Y-83239504D01*
X132976303Y-83245316D01*
X132952642Y-83248826D01*
X132928750Y-83250000D01*
X132441250Y-83250000D01*
X132417358Y-83248826D01*
X132393697Y-83245316D01*
X132370493Y-83239504D01*
X132347971Y-83231446D01*
X132326347Y-83221218D01*
X132305830Y-83208921D01*
X132286617Y-83194671D01*
X132268893Y-83178607D01*
X132252829Y-83160883D01*
X132238579Y-83141670D01*
X132226282Y-83121153D01*
X132216054Y-83099529D01*
X132207996Y-83077007D01*
X132202184Y-83053803D01*
X132198674Y-83030142D01*
X132197500Y-83006250D01*
X132197500Y-82093750D01*
X132198674Y-82069858D01*
X132202184Y-82046197D01*
X132207996Y-82022993D01*
X132216054Y-82000471D01*
X132226282Y-81978847D01*
X132238579Y-81958330D01*
X132252829Y-81939117D01*
X132268893Y-81921393D01*
X132286617Y-81905329D01*
X132305830Y-81891079D01*
X132326347Y-81878782D01*
X132347971Y-81868554D01*
X132370493Y-81860496D01*
X132393697Y-81854684D01*
X132417358Y-81851174D01*
X132441250Y-81850000D01*
X132928750Y-81850000D01*
X132952642Y-81851174D01*
G37*
G04 #@! TD.AperFunction*
D13*
X128784000Y-92260000D03*
D14*
X130887000Y-92710000D03*
D15*
X128150000Y-93725000D03*
X128150000Y-91695000D03*
D16*
X130887000Y-93676000D03*
X130887000Y-91744000D03*
D17*
X139700000Y-87630000D03*
G04 #@! TA.AperFunction,SMDPad,CuDef*
D12*
G36*
X143014703Y-85425722D02*
G01*
X143029264Y-85427882D01*
X143043543Y-85431459D01*
X143057403Y-85436418D01*
X143070710Y-85442712D01*
X143083336Y-85450280D01*
X143095159Y-85459048D01*
X143106066Y-85468934D01*
X143115952Y-85479841D01*
X143124720Y-85491664D01*
X143132288Y-85504290D01*
X143138582Y-85517597D01*
X143143541Y-85531457D01*
X143147118Y-85545736D01*
X143149278Y-85560297D01*
X143150000Y-85575000D01*
X143150000Y-85875000D01*
X143149278Y-85889703D01*
X143147118Y-85904264D01*
X143143541Y-85918543D01*
X143138582Y-85932403D01*
X143132288Y-85945710D01*
X143124720Y-85958336D01*
X143115952Y-85970159D01*
X143106066Y-85981066D01*
X143095159Y-85990952D01*
X143083336Y-85999720D01*
X143070710Y-86007288D01*
X143057403Y-86013582D01*
X143043543Y-86018541D01*
X143029264Y-86022118D01*
X143014703Y-86024278D01*
X143000000Y-86025000D01*
X141350000Y-86025000D01*
X141335297Y-86024278D01*
X141320736Y-86022118D01*
X141306457Y-86018541D01*
X141292597Y-86013582D01*
X141279290Y-86007288D01*
X141266664Y-85999720D01*
X141254841Y-85990952D01*
X141243934Y-85981066D01*
X141234048Y-85970159D01*
X141225280Y-85958336D01*
X141217712Y-85945710D01*
X141211418Y-85932403D01*
X141206459Y-85918543D01*
X141202882Y-85904264D01*
X141200722Y-85889703D01*
X141200000Y-85875000D01*
X141200000Y-85575000D01*
X141200722Y-85560297D01*
X141202882Y-85545736D01*
X141206459Y-85531457D01*
X141211418Y-85517597D01*
X141217712Y-85504290D01*
X141225280Y-85491664D01*
X141234048Y-85479841D01*
X141243934Y-85468934D01*
X141254841Y-85459048D01*
X141266664Y-85450280D01*
X141279290Y-85442712D01*
X141292597Y-85436418D01*
X141306457Y-85431459D01*
X141320736Y-85427882D01*
X141335297Y-85425722D01*
X141350000Y-85425000D01*
X143000000Y-85425000D01*
X143014703Y-85425722D01*
G37*
G04 #@! TD.AperFunction*
G04 #@! TA.AperFunction,SMDPad,CuDef*
G36*
X143014703Y-86695722D02*
G01*
X143029264Y-86697882D01*
X143043543Y-86701459D01*
X143057403Y-86706418D01*
X143070710Y-86712712D01*
X143083336Y-86720280D01*
X143095159Y-86729048D01*
X143106066Y-86738934D01*
X143115952Y-86749841D01*
X143124720Y-86761664D01*
X143132288Y-86774290D01*
X143138582Y-86787597D01*
X143143541Y-86801457D01*
X143147118Y-86815736D01*
X143149278Y-86830297D01*
X143150000Y-86845000D01*
X143150000Y-87145000D01*
X143149278Y-87159703D01*
X143147118Y-87174264D01*
X143143541Y-87188543D01*
X143138582Y-87202403D01*
X143132288Y-87215710D01*
X143124720Y-87228336D01*
X143115952Y-87240159D01*
X143106066Y-87251066D01*
X143095159Y-87260952D01*
X143083336Y-87269720D01*
X143070710Y-87277288D01*
X143057403Y-87283582D01*
X143043543Y-87288541D01*
X143029264Y-87292118D01*
X143014703Y-87294278D01*
X143000000Y-87295000D01*
X141350000Y-87295000D01*
X141335297Y-87294278D01*
X141320736Y-87292118D01*
X141306457Y-87288541D01*
X141292597Y-87283582D01*
X141279290Y-87277288D01*
X141266664Y-87269720D01*
X141254841Y-87260952D01*
X141243934Y-87251066D01*
X141234048Y-87240159D01*
X141225280Y-87228336D01*
X141217712Y-87215710D01*
X141211418Y-87202403D01*
X141206459Y-87188543D01*
X141202882Y-87174264D01*
X141200722Y-87159703D01*
X141200000Y-87145000D01*
X141200000Y-86845000D01*
X141200722Y-86830297D01*
X141202882Y-86815736D01*
X141206459Y-86801457D01*
X141211418Y-86787597D01*
X141217712Y-86774290D01*
X141225280Y-86761664D01*
X141234048Y-86749841D01*
X141243934Y-86738934D01*
X141254841Y-86729048D01*
X141266664Y-86720280D01*
X141279290Y-86712712D01*
X141292597Y-86706418D01*
X141306457Y-86701459D01*
X141320736Y-86697882D01*
X141335297Y-86695722D01*
X141350000Y-86695000D01*
X143000000Y-86695000D01*
X143014703Y-86695722D01*
G37*
G04 #@! TD.AperFunction*
G04 #@! TA.AperFunction,SMDPad,CuDef*
G36*
X143014703Y-87965722D02*
G01*
X143029264Y-87967882D01*
X143043543Y-87971459D01*
X143057403Y-87976418D01*
X143070710Y-87982712D01*
X143083336Y-87990280D01*
X143095159Y-87999048D01*
X143106066Y-88008934D01*
X143115952Y-88019841D01*
X143124720Y-88031664D01*
X143132288Y-88044290D01*
X143138582Y-88057597D01*
X143143541Y-88071457D01*
X143147118Y-88085736D01*
X143149278Y-88100297D01*
X143150000Y-88115000D01*
X143150000Y-88415000D01*
X143149278Y-88429703D01*
X143147118Y-88444264D01*
X143143541Y-88458543D01*
X143138582Y-88472403D01*
X143132288Y-88485710D01*
X143124720Y-88498336D01*
X143115952Y-88510159D01*
X143106066Y-88521066D01*
X143095159Y-88530952D01*
X143083336Y-88539720D01*
X143070710Y-88547288D01*
X143057403Y-88553582D01*
X143043543Y-88558541D01*
X143029264Y-88562118D01*
X143014703Y-88564278D01*
X143000000Y-88565000D01*
X141350000Y-88565000D01*
X141335297Y-88564278D01*
X141320736Y-88562118D01*
X141306457Y-88558541D01*
X141292597Y-88553582D01*
X141279290Y-88547288D01*
X141266664Y-88539720D01*
X141254841Y-88530952D01*
X141243934Y-88521066D01*
X141234048Y-88510159D01*
X141225280Y-88498336D01*
X141217712Y-88485710D01*
X141211418Y-88472403D01*
X141206459Y-88458543D01*
X141202882Y-88444264D01*
X141200722Y-88429703D01*
X141200000Y-88415000D01*
X141200000Y-88115000D01*
X141200722Y-88100297D01*
X141202882Y-88085736D01*
X141206459Y-88071457D01*
X141211418Y-88057597D01*
X141217712Y-88044290D01*
X141225280Y-88031664D01*
X141234048Y-88019841D01*
X141243934Y-88008934D01*
X141254841Y-87999048D01*
X141266664Y-87990280D01*
X141279290Y-87982712D01*
X141292597Y-87976418D01*
X141306457Y-87971459D01*
X141320736Y-87967882D01*
X141335297Y-87965722D01*
X141350000Y-87965000D01*
X143000000Y-87965000D01*
X143014703Y-87965722D01*
G37*
G04 #@! TD.AperFunction*
G04 #@! TA.AperFunction,SMDPad,CuDef*
G36*
X143014703Y-89235722D02*
G01*
X143029264Y-89237882D01*
X143043543Y-89241459D01*
X143057403Y-89246418D01*
X143070710Y-89252712D01*
X143083336Y-89260280D01*
X143095159Y-89269048D01*
X143106066Y-89278934D01*
X143115952Y-89289841D01*
X143124720Y-89301664D01*
X143132288Y-89314290D01*
X143138582Y-89327597D01*
X143143541Y-89341457D01*
X143147118Y-89355736D01*
X143149278Y-89370297D01*
X143150000Y-89385000D01*
X143150000Y-89685000D01*
X143149278Y-89699703D01*
X143147118Y-89714264D01*
X143143541Y-89728543D01*
X143138582Y-89742403D01*
X143132288Y-89755710D01*
X143124720Y-89768336D01*
X143115952Y-89780159D01*
X143106066Y-89791066D01*
X143095159Y-89800952D01*
X143083336Y-89809720D01*
X143070710Y-89817288D01*
X143057403Y-89823582D01*
X143043543Y-89828541D01*
X143029264Y-89832118D01*
X143014703Y-89834278D01*
X143000000Y-89835000D01*
X141350000Y-89835000D01*
X141335297Y-89834278D01*
X141320736Y-89832118D01*
X141306457Y-89828541D01*
X141292597Y-89823582D01*
X141279290Y-89817288D01*
X141266664Y-89809720D01*
X141254841Y-89800952D01*
X141243934Y-89791066D01*
X141234048Y-89780159D01*
X141225280Y-89768336D01*
X141217712Y-89755710D01*
X141211418Y-89742403D01*
X141206459Y-89728543D01*
X141202882Y-89714264D01*
X141200722Y-89699703D01*
X141200000Y-89685000D01*
X141200000Y-89385000D01*
X141200722Y-89370297D01*
X141202882Y-89355736D01*
X141206459Y-89341457D01*
X141211418Y-89327597D01*
X141217712Y-89314290D01*
X141225280Y-89301664D01*
X141234048Y-89289841D01*
X141243934Y-89278934D01*
X141254841Y-89269048D01*
X141266664Y-89260280D01*
X141279290Y-89252712D01*
X141292597Y-89246418D01*
X141306457Y-89241459D01*
X141320736Y-89237882D01*
X141335297Y-89235722D01*
X141350000Y-89235000D01*
X143000000Y-89235000D01*
X143014703Y-89235722D01*
G37*
G04 #@! TD.AperFunction*
G04 #@! TA.AperFunction,SMDPad,CuDef*
G36*
X138064703Y-89235722D02*
G01*
X138079264Y-89237882D01*
X138093543Y-89241459D01*
X138107403Y-89246418D01*
X138120710Y-89252712D01*
X138133336Y-89260280D01*
X138145159Y-89269048D01*
X138156066Y-89278934D01*
X138165952Y-89289841D01*
X138174720Y-89301664D01*
X138182288Y-89314290D01*
X138188582Y-89327597D01*
X138193541Y-89341457D01*
X138197118Y-89355736D01*
X138199278Y-89370297D01*
X138200000Y-89385000D01*
X138200000Y-89685000D01*
X138199278Y-89699703D01*
X138197118Y-89714264D01*
X138193541Y-89728543D01*
X138188582Y-89742403D01*
X138182288Y-89755710D01*
X138174720Y-89768336D01*
X138165952Y-89780159D01*
X138156066Y-89791066D01*
X138145159Y-89800952D01*
X138133336Y-89809720D01*
X138120710Y-89817288D01*
X138107403Y-89823582D01*
X138093543Y-89828541D01*
X138079264Y-89832118D01*
X138064703Y-89834278D01*
X138050000Y-89835000D01*
X136400000Y-89835000D01*
X136385297Y-89834278D01*
X136370736Y-89832118D01*
X136356457Y-89828541D01*
X136342597Y-89823582D01*
X136329290Y-89817288D01*
X136316664Y-89809720D01*
X136304841Y-89800952D01*
X136293934Y-89791066D01*
X136284048Y-89780159D01*
X136275280Y-89768336D01*
X136267712Y-89755710D01*
X136261418Y-89742403D01*
X136256459Y-89728543D01*
X136252882Y-89714264D01*
X136250722Y-89699703D01*
X136250000Y-89685000D01*
X136250000Y-89385000D01*
X136250722Y-89370297D01*
X136252882Y-89355736D01*
X136256459Y-89341457D01*
X136261418Y-89327597D01*
X136267712Y-89314290D01*
X136275280Y-89301664D01*
X136284048Y-89289841D01*
X136293934Y-89278934D01*
X136304841Y-89269048D01*
X136316664Y-89260280D01*
X136329290Y-89252712D01*
X136342597Y-89246418D01*
X136356457Y-89241459D01*
X136370736Y-89237882D01*
X136385297Y-89235722D01*
X136400000Y-89235000D01*
X138050000Y-89235000D01*
X138064703Y-89235722D01*
G37*
G04 #@! TD.AperFunction*
G04 #@! TA.AperFunction,SMDPad,CuDef*
G36*
X138064703Y-87965722D02*
G01*
X138079264Y-87967882D01*
X138093543Y-87971459D01*
X138107403Y-87976418D01*
X138120710Y-87982712D01*
X138133336Y-87990280D01*
X138145159Y-87999048D01*
X138156066Y-88008934D01*
X138165952Y-88019841D01*
X138174720Y-88031664D01*
X138182288Y-88044290D01*
X138188582Y-88057597D01*
X138193541Y-88071457D01*
X138197118Y-88085736D01*
X138199278Y-88100297D01*
X138200000Y-88115000D01*
X138200000Y-88415000D01*
X138199278Y-88429703D01*
X138197118Y-88444264D01*
X138193541Y-88458543D01*
X138188582Y-88472403D01*
X138182288Y-88485710D01*
X138174720Y-88498336D01*
X138165952Y-88510159D01*
X138156066Y-88521066D01*
X138145159Y-88530952D01*
X138133336Y-88539720D01*
X138120710Y-88547288D01*
X138107403Y-88553582D01*
X138093543Y-88558541D01*
X138079264Y-88562118D01*
X138064703Y-88564278D01*
X138050000Y-88565000D01*
X136400000Y-88565000D01*
X136385297Y-88564278D01*
X136370736Y-88562118D01*
X136356457Y-88558541D01*
X136342597Y-88553582D01*
X136329290Y-88547288D01*
X136316664Y-88539720D01*
X136304841Y-88530952D01*
X136293934Y-88521066D01*
X136284048Y-88510159D01*
X136275280Y-88498336D01*
X136267712Y-88485710D01*
X136261418Y-88472403D01*
X136256459Y-88458543D01*
X136252882Y-88444264D01*
X136250722Y-88429703D01*
X136250000Y-88415000D01*
X136250000Y-88115000D01*
X136250722Y-88100297D01*
X136252882Y-88085736D01*
X136256459Y-88071457D01*
X136261418Y-88057597D01*
X136267712Y-88044290D01*
X136275280Y-88031664D01*
X136284048Y-88019841D01*
X136293934Y-88008934D01*
X136304841Y-87999048D01*
X136316664Y-87990280D01*
X136329290Y-87982712D01*
X136342597Y-87976418D01*
X136356457Y-87971459D01*
X136370736Y-87967882D01*
X136385297Y-87965722D01*
X136400000Y-87965000D01*
X138050000Y-87965000D01*
X138064703Y-87965722D01*
G37*
G04 #@! TD.AperFunction*
G04 #@! TA.AperFunction,SMDPad,CuDef*
G36*
X138064703Y-86695722D02*
G01*
X138079264Y-86697882D01*
X138093543Y-86701459D01*
X138107403Y-86706418D01*
X138120710Y-86712712D01*
X138133336Y-86720280D01*
X138145159Y-86729048D01*
X138156066Y-86738934D01*
X138165952Y-86749841D01*
X138174720Y-86761664D01*
X138182288Y-86774290D01*
X138188582Y-86787597D01*
X138193541Y-86801457D01*
X138197118Y-86815736D01*
X138199278Y-86830297D01*
X138200000Y-86845000D01*
X138200000Y-87145000D01*
X138199278Y-87159703D01*
X138197118Y-87174264D01*
X138193541Y-87188543D01*
X138188582Y-87202403D01*
X138182288Y-87215710D01*
X138174720Y-87228336D01*
X138165952Y-87240159D01*
X138156066Y-87251066D01*
X138145159Y-87260952D01*
X138133336Y-87269720D01*
X138120710Y-87277288D01*
X138107403Y-87283582D01*
X138093543Y-87288541D01*
X138079264Y-87292118D01*
X138064703Y-87294278D01*
X138050000Y-87295000D01*
X136400000Y-87295000D01*
X136385297Y-87294278D01*
X136370736Y-87292118D01*
X136356457Y-87288541D01*
X136342597Y-87283582D01*
X136329290Y-87277288D01*
X136316664Y-87269720D01*
X136304841Y-87260952D01*
X136293934Y-87251066D01*
X136284048Y-87240159D01*
X136275280Y-87228336D01*
X136267712Y-87215710D01*
X136261418Y-87202403D01*
X136256459Y-87188543D01*
X136252882Y-87174264D01*
X136250722Y-87159703D01*
X136250000Y-87145000D01*
X136250000Y-86845000D01*
X136250722Y-86830297D01*
X136252882Y-86815736D01*
X136256459Y-86801457D01*
X136261418Y-86787597D01*
X136267712Y-86774290D01*
X136275280Y-86761664D01*
X136284048Y-86749841D01*
X136293934Y-86738934D01*
X136304841Y-86729048D01*
X136316664Y-86720280D01*
X136329290Y-86712712D01*
X136342597Y-86706418D01*
X136356457Y-86701459D01*
X136370736Y-86697882D01*
X136385297Y-86695722D01*
X136400000Y-86695000D01*
X138050000Y-86695000D01*
X138064703Y-86695722D01*
G37*
G04 #@! TD.AperFunction*
G04 #@! TA.AperFunction,SMDPad,CuDef*
G36*
X138064703Y-85425722D02*
G01*
X138079264Y-85427882D01*
X138093543Y-85431459D01*
X138107403Y-85436418D01*
X138120710Y-85442712D01*
X138133336Y-85450280D01*
X138145159Y-85459048D01*
X138156066Y-85468934D01*
X138165952Y-85479841D01*
X138174720Y-85491664D01*
X138182288Y-85504290D01*
X138188582Y-85517597D01*
X138193541Y-85531457D01*
X138197118Y-85545736D01*
X138199278Y-85560297D01*
X138200000Y-85575000D01*
X138200000Y-85875000D01*
X138199278Y-85889703D01*
X138197118Y-85904264D01*
X138193541Y-85918543D01*
X138188582Y-85932403D01*
X138182288Y-85945710D01*
X138174720Y-85958336D01*
X138165952Y-85970159D01*
X138156066Y-85981066D01*
X138145159Y-85990952D01*
X138133336Y-85999720D01*
X138120710Y-86007288D01*
X138107403Y-86013582D01*
X138093543Y-86018541D01*
X138079264Y-86022118D01*
X138064703Y-86024278D01*
X138050000Y-86025000D01*
X136400000Y-86025000D01*
X136385297Y-86024278D01*
X136370736Y-86022118D01*
X136356457Y-86018541D01*
X136342597Y-86013582D01*
X136329290Y-86007288D01*
X136316664Y-85999720D01*
X136304841Y-85990952D01*
X136293934Y-85981066D01*
X136284048Y-85970159D01*
X136275280Y-85958336D01*
X136267712Y-85945710D01*
X136261418Y-85932403D01*
X136256459Y-85918543D01*
X136252882Y-85904264D01*
X136250722Y-85889703D01*
X136250000Y-85875000D01*
X136250000Y-85575000D01*
X136250722Y-85560297D01*
X136252882Y-85545736D01*
X136256459Y-85531457D01*
X136261418Y-85517597D01*
X136267712Y-85504290D01*
X136275280Y-85491664D01*
X136284048Y-85479841D01*
X136293934Y-85468934D01*
X136304841Y-85459048D01*
X136316664Y-85450280D01*
X136329290Y-85442712D01*
X136342597Y-85436418D01*
X136356457Y-85431459D01*
X136370736Y-85427882D01*
X136385297Y-85425722D01*
X136400000Y-85425000D01*
X138050000Y-85425000D01*
X138064703Y-85425722D01*
G37*
G04 #@! TD.AperFunction*
G04 #@! TA.AperFunction,SMDPad,CuDef*
G36*
X147920142Y-88201174D02*
G01*
X147943803Y-88204684D01*
X147967007Y-88210496D01*
X147989529Y-88218554D01*
X148011153Y-88228782D01*
X148031670Y-88241079D01*
X148050883Y-88255329D01*
X148068607Y-88271393D01*
X148084671Y-88289117D01*
X148098921Y-88308330D01*
X148111218Y-88328847D01*
X148121446Y-88350471D01*
X148129504Y-88372993D01*
X148135316Y-88396197D01*
X148138826Y-88419858D01*
X148140000Y-88443750D01*
X148140000Y-89356250D01*
X148138826Y-89380142D01*
X148135316Y-89403803D01*
X148129504Y-89427007D01*
X148121446Y-89449529D01*
X148111218Y-89471153D01*
X148098921Y-89491670D01*
X148084671Y-89510883D01*
X148068607Y-89528607D01*
X148050883Y-89544671D01*
X148031670Y-89558921D01*
X148011153Y-89571218D01*
X147989529Y-89581446D01*
X147967007Y-89589504D01*
X147943803Y-89595316D01*
X147920142Y-89598826D01*
X147896250Y-89600000D01*
X147408750Y-89600000D01*
X147384858Y-89598826D01*
X147361197Y-89595316D01*
X147337993Y-89589504D01*
X147315471Y-89581446D01*
X147293847Y-89571218D01*
X147273330Y-89558921D01*
X147254117Y-89544671D01*
X147236393Y-89528607D01*
X147220329Y-89510883D01*
X147206079Y-89491670D01*
X147193782Y-89471153D01*
X147183554Y-89449529D01*
X147175496Y-89427007D01*
X147169684Y-89403803D01*
X147166174Y-89380142D01*
X147165000Y-89356250D01*
X147165000Y-88443750D01*
X147166174Y-88419858D01*
X147169684Y-88396197D01*
X147175496Y-88372993D01*
X147183554Y-88350471D01*
X147193782Y-88328847D01*
X147206079Y-88308330D01*
X147220329Y-88289117D01*
X147236393Y-88271393D01*
X147254117Y-88255329D01*
X147273330Y-88241079D01*
X147293847Y-88228782D01*
X147315471Y-88218554D01*
X147337993Y-88210496D01*
X147361197Y-88204684D01*
X147384858Y-88201174D01*
X147408750Y-88200000D01*
X147896250Y-88200000D01*
X147920142Y-88201174D01*
G37*
G04 #@! TD.AperFunction*
G04 #@! TA.AperFunction,SMDPad,CuDef*
G36*
X149795142Y-88201174D02*
G01*
X149818803Y-88204684D01*
X149842007Y-88210496D01*
X149864529Y-88218554D01*
X149886153Y-88228782D01*
X149906670Y-88241079D01*
X149925883Y-88255329D01*
X149943607Y-88271393D01*
X149959671Y-88289117D01*
X149973921Y-88308330D01*
X149986218Y-88328847D01*
X149996446Y-88350471D01*
X150004504Y-88372993D01*
X150010316Y-88396197D01*
X150013826Y-88419858D01*
X150015000Y-88443750D01*
X150015000Y-89356250D01*
X150013826Y-89380142D01*
X150010316Y-89403803D01*
X150004504Y-89427007D01*
X149996446Y-89449529D01*
X149986218Y-89471153D01*
X149973921Y-89491670D01*
X149959671Y-89510883D01*
X149943607Y-89528607D01*
X149925883Y-89544671D01*
X149906670Y-89558921D01*
X149886153Y-89571218D01*
X149864529Y-89581446D01*
X149842007Y-89589504D01*
X149818803Y-89595316D01*
X149795142Y-89598826D01*
X149771250Y-89600000D01*
X149283750Y-89600000D01*
X149259858Y-89598826D01*
X149236197Y-89595316D01*
X149212993Y-89589504D01*
X149190471Y-89581446D01*
X149168847Y-89571218D01*
X149148330Y-89558921D01*
X149129117Y-89544671D01*
X149111393Y-89528607D01*
X149095329Y-89510883D01*
X149081079Y-89491670D01*
X149068782Y-89471153D01*
X149058554Y-89449529D01*
X149050496Y-89427007D01*
X149044684Y-89403803D01*
X149041174Y-89380142D01*
X149040000Y-89356250D01*
X149040000Y-88443750D01*
X149041174Y-88419858D01*
X149044684Y-88396197D01*
X149050496Y-88372993D01*
X149058554Y-88350471D01*
X149068782Y-88328847D01*
X149081079Y-88308330D01*
X149095329Y-88289117D01*
X149111393Y-88271393D01*
X149129117Y-88255329D01*
X149148330Y-88241079D01*
X149168847Y-88228782D01*
X149190471Y-88218554D01*
X149212993Y-88210496D01*
X149236197Y-88204684D01*
X149259858Y-88201174D01*
X149283750Y-88200000D01*
X149771250Y-88200000D01*
X149795142Y-88201174D01*
G37*
G04 #@! TD.AperFunction*
G04 #@! TA.AperFunction,SMDPad,CuDef*
G36*
X139362642Y-80581174D02*
G01*
X139386303Y-80584684D01*
X139409507Y-80590496D01*
X139432029Y-80598554D01*
X139453653Y-80608782D01*
X139474170Y-80621079D01*
X139493383Y-80635329D01*
X139511107Y-80651393D01*
X139527171Y-80669117D01*
X139541421Y-80688330D01*
X139553718Y-80708847D01*
X139563946Y-80730471D01*
X139572004Y-80752993D01*
X139577816Y-80776197D01*
X139581326Y-80799858D01*
X139582500Y-80823750D01*
X139582500Y-81736250D01*
X139581326Y-81760142D01*
X139577816Y-81783803D01*
X139572004Y-81807007D01*
X139563946Y-81829529D01*
X139553718Y-81851153D01*
X139541421Y-81871670D01*
X139527171Y-81890883D01*
X139511107Y-81908607D01*
X139493383Y-81924671D01*
X139474170Y-81938921D01*
X139453653Y-81951218D01*
X139432029Y-81961446D01*
X139409507Y-81969504D01*
X139386303Y-81975316D01*
X139362642Y-81978826D01*
X139338750Y-81980000D01*
X138851250Y-81980000D01*
X138827358Y-81978826D01*
X138803697Y-81975316D01*
X138780493Y-81969504D01*
X138757971Y-81961446D01*
X138736347Y-81951218D01*
X138715830Y-81938921D01*
X138696617Y-81924671D01*
X138678893Y-81908607D01*
X138662829Y-81890883D01*
X138648579Y-81871670D01*
X138636282Y-81851153D01*
X138626054Y-81829529D01*
X138617996Y-81807007D01*
X138612184Y-81783803D01*
X138608674Y-81760142D01*
X138607500Y-81736250D01*
X138607500Y-80823750D01*
X138608674Y-80799858D01*
X138612184Y-80776197D01*
X138617996Y-80752993D01*
X138626054Y-80730471D01*
X138636282Y-80708847D01*
X138648579Y-80688330D01*
X138662829Y-80669117D01*
X138678893Y-80651393D01*
X138696617Y-80635329D01*
X138715830Y-80621079D01*
X138736347Y-80608782D01*
X138757971Y-80598554D01*
X138780493Y-80590496D01*
X138803697Y-80584684D01*
X138827358Y-80581174D01*
X138851250Y-80580000D01*
X139338750Y-80580000D01*
X139362642Y-80581174D01*
G37*
G04 #@! TD.AperFunction*
G04 #@! TA.AperFunction,SMDPad,CuDef*
G36*
X141237642Y-80581174D02*
G01*
X141261303Y-80584684D01*
X141284507Y-80590496D01*
X141307029Y-80598554D01*
X141328653Y-80608782D01*
X141349170Y-80621079D01*
X141368383Y-80635329D01*
X141386107Y-80651393D01*
X141402171Y-80669117D01*
X141416421Y-80688330D01*
X141428718Y-80708847D01*
X141438946Y-80730471D01*
X141447004Y-80752993D01*
X141452816Y-80776197D01*
X141456326Y-80799858D01*
X141457500Y-80823750D01*
X141457500Y-81736250D01*
X141456326Y-81760142D01*
X141452816Y-81783803D01*
X141447004Y-81807007D01*
X141438946Y-81829529D01*
X141428718Y-81851153D01*
X141416421Y-81871670D01*
X141402171Y-81890883D01*
X141386107Y-81908607D01*
X141368383Y-81924671D01*
X141349170Y-81938921D01*
X141328653Y-81951218D01*
X141307029Y-81961446D01*
X141284507Y-81969504D01*
X141261303Y-81975316D01*
X141237642Y-81978826D01*
X141213750Y-81980000D01*
X140726250Y-81980000D01*
X140702358Y-81978826D01*
X140678697Y-81975316D01*
X140655493Y-81969504D01*
X140632971Y-81961446D01*
X140611347Y-81951218D01*
X140590830Y-81938921D01*
X140571617Y-81924671D01*
X140553893Y-81908607D01*
X140537829Y-81890883D01*
X140523579Y-81871670D01*
X140511282Y-81851153D01*
X140501054Y-81829529D01*
X140492996Y-81807007D01*
X140487184Y-81783803D01*
X140483674Y-81760142D01*
X140482500Y-81736250D01*
X140482500Y-80823750D01*
X140483674Y-80799858D01*
X140487184Y-80776197D01*
X140492996Y-80752993D01*
X140501054Y-80730471D01*
X140511282Y-80708847D01*
X140523579Y-80688330D01*
X140537829Y-80669117D01*
X140553893Y-80651393D01*
X140571617Y-80635329D01*
X140590830Y-80621079D01*
X140611347Y-80608782D01*
X140632971Y-80598554D01*
X140655493Y-80590496D01*
X140678697Y-80584684D01*
X140702358Y-80581174D01*
X140726250Y-80580000D01*
X141213750Y-80580000D01*
X141237642Y-80581174D01*
G37*
G04 #@! TD.AperFunction*
G04 #@! TA.AperFunction,SMDPad,CuDef*
G36*
X147587642Y-83121174D02*
G01*
X147611303Y-83124684D01*
X147634507Y-83130496D01*
X147657029Y-83138554D01*
X147678653Y-83148782D01*
X147699170Y-83161079D01*
X147718383Y-83175329D01*
X147736107Y-83191393D01*
X147752171Y-83209117D01*
X147766421Y-83228330D01*
X147778718Y-83248847D01*
X147788946Y-83270471D01*
X147797004Y-83292993D01*
X147802816Y-83316197D01*
X147806326Y-83339858D01*
X147807500Y-83363750D01*
X147807500Y-84276250D01*
X147806326Y-84300142D01*
X147802816Y-84323803D01*
X147797004Y-84347007D01*
X147788946Y-84369529D01*
X147778718Y-84391153D01*
X147766421Y-84411670D01*
X147752171Y-84430883D01*
X147736107Y-84448607D01*
X147718383Y-84464671D01*
X147699170Y-84478921D01*
X147678653Y-84491218D01*
X147657029Y-84501446D01*
X147634507Y-84509504D01*
X147611303Y-84515316D01*
X147587642Y-84518826D01*
X147563750Y-84520000D01*
X147076250Y-84520000D01*
X147052358Y-84518826D01*
X147028697Y-84515316D01*
X147005493Y-84509504D01*
X146982971Y-84501446D01*
X146961347Y-84491218D01*
X146940830Y-84478921D01*
X146921617Y-84464671D01*
X146903893Y-84448607D01*
X146887829Y-84430883D01*
X146873579Y-84411670D01*
X146861282Y-84391153D01*
X146851054Y-84369529D01*
X146842996Y-84347007D01*
X146837184Y-84323803D01*
X146833674Y-84300142D01*
X146832500Y-84276250D01*
X146832500Y-83363750D01*
X146833674Y-83339858D01*
X146837184Y-83316197D01*
X146842996Y-83292993D01*
X146851054Y-83270471D01*
X146861282Y-83248847D01*
X146873579Y-83228330D01*
X146887829Y-83209117D01*
X146903893Y-83191393D01*
X146921617Y-83175329D01*
X146940830Y-83161079D01*
X146961347Y-83148782D01*
X146982971Y-83138554D01*
X147005493Y-83130496D01*
X147028697Y-83124684D01*
X147052358Y-83121174D01*
X147076250Y-83120000D01*
X147563750Y-83120000D01*
X147587642Y-83121174D01*
G37*
G04 #@! TD.AperFunction*
G04 #@! TA.AperFunction,SMDPad,CuDef*
G36*
X149462642Y-83121174D02*
G01*
X149486303Y-83124684D01*
X149509507Y-83130496D01*
X149532029Y-83138554D01*
X149553653Y-83148782D01*
X149574170Y-83161079D01*
X149593383Y-83175329D01*
X149611107Y-83191393D01*
X149627171Y-83209117D01*
X149641421Y-83228330D01*
X149653718Y-83248847D01*
X149663946Y-83270471D01*
X149672004Y-83292993D01*
X149677816Y-83316197D01*
X149681326Y-83339858D01*
X149682500Y-83363750D01*
X149682500Y-84276250D01*
X149681326Y-84300142D01*
X149677816Y-84323803D01*
X149672004Y-84347007D01*
X149663946Y-84369529D01*
X149653718Y-84391153D01*
X149641421Y-84411670D01*
X149627171Y-84430883D01*
X149611107Y-84448607D01*
X149593383Y-84464671D01*
X149574170Y-84478921D01*
X149553653Y-84491218D01*
X149532029Y-84501446D01*
X149509507Y-84509504D01*
X149486303Y-84515316D01*
X149462642Y-84518826D01*
X149438750Y-84520000D01*
X148951250Y-84520000D01*
X148927358Y-84518826D01*
X148903697Y-84515316D01*
X148880493Y-84509504D01*
X148857971Y-84501446D01*
X148836347Y-84491218D01*
X148815830Y-84478921D01*
X148796617Y-84464671D01*
X148778893Y-84448607D01*
X148762829Y-84430883D01*
X148748579Y-84411670D01*
X148736282Y-84391153D01*
X148726054Y-84369529D01*
X148717996Y-84347007D01*
X148712184Y-84323803D01*
X148708674Y-84300142D01*
X148707500Y-84276250D01*
X148707500Y-83363750D01*
X148708674Y-83339858D01*
X148712184Y-83316197D01*
X148717996Y-83292993D01*
X148726054Y-83270471D01*
X148736282Y-83248847D01*
X148748579Y-83228330D01*
X148762829Y-83209117D01*
X148778893Y-83191393D01*
X148796617Y-83175329D01*
X148815830Y-83161079D01*
X148836347Y-83148782D01*
X148857971Y-83138554D01*
X148880493Y-83130496D01*
X148903697Y-83124684D01*
X148927358Y-83121174D01*
X148951250Y-83120000D01*
X149438750Y-83120000D01*
X149462642Y-83121174D01*
G37*
G04 #@! TD.AperFunction*
G04 #@! TA.AperFunction,SMDPad,CuDef*
G36*
X146982642Y-85661174D02*
G01*
X147006303Y-85664684D01*
X147029507Y-85670496D01*
X147052029Y-85678554D01*
X147073653Y-85688782D01*
X147094170Y-85701079D01*
X147113383Y-85715329D01*
X147131107Y-85731393D01*
X147147171Y-85749117D01*
X147161421Y-85768330D01*
X147173718Y-85788847D01*
X147183946Y-85810471D01*
X147192004Y-85832993D01*
X147197816Y-85856197D01*
X147201326Y-85879858D01*
X147202500Y-85903750D01*
X147202500Y-86816250D01*
X147201326Y-86840142D01*
X147197816Y-86863803D01*
X147192004Y-86887007D01*
X147183946Y-86909529D01*
X147173718Y-86931153D01*
X147161421Y-86951670D01*
X147147171Y-86970883D01*
X147131107Y-86988607D01*
X147113383Y-87004671D01*
X147094170Y-87018921D01*
X147073653Y-87031218D01*
X147052029Y-87041446D01*
X147029507Y-87049504D01*
X147006303Y-87055316D01*
X146982642Y-87058826D01*
X146958750Y-87060000D01*
X146471250Y-87060000D01*
X146447358Y-87058826D01*
X146423697Y-87055316D01*
X146400493Y-87049504D01*
X146377971Y-87041446D01*
X146356347Y-87031218D01*
X146335830Y-87018921D01*
X146316617Y-87004671D01*
X146298893Y-86988607D01*
X146282829Y-86970883D01*
X146268579Y-86951670D01*
X146256282Y-86931153D01*
X146246054Y-86909529D01*
X146237996Y-86887007D01*
X146232184Y-86863803D01*
X146228674Y-86840142D01*
X146227500Y-86816250D01*
X146227500Y-85903750D01*
X146228674Y-85879858D01*
X146232184Y-85856197D01*
X146237996Y-85832993D01*
X146246054Y-85810471D01*
X146256282Y-85788847D01*
X146268579Y-85768330D01*
X146282829Y-85749117D01*
X146298893Y-85731393D01*
X146316617Y-85715329D01*
X146335830Y-85701079D01*
X146356347Y-85688782D01*
X146377971Y-85678554D01*
X146400493Y-85670496D01*
X146423697Y-85664684D01*
X146447358Y-85661174D01*
X146471250Y-85660000D01*
X146958750Y-85660000D01*
X146982642Y-85661174D01*
G37*
G04 #@! TD.AperFunction*
G04 #@! TA.AperFunction,SMDPad,CuDef*
G36*
X148857642Y-85661174D02*
G01*
X148881303Y-85664684D01*
X148904507Y-85670496D01*
X148927029Y-85678554D01*
X148948653Y-85688782D01*
X148969170Y-85701079D01*
X148988383Y-85715329D01*
X149006107Y-85731393D01*
X149022171Y-85749117D01*
X149036421Y-85768330D01*
X149048718Y-85788847D01*
X149058946Y-85810471D01*
X149067004Y-85832993D01*
X149072816Y-85856197D01*
X149076326Y-85879858D01*
X149077500Y-85903750D01*
X149077500Y-86816250D01*
X149076326Y-86840142D01*
X149072816Y-86863803D01*
X149067004Y-86887007D01*
X149058946Y-86909529D01*
X149048718Y-86931153D01*
X149036421Y-86951670D01*
X149022171Y-86970883D01*
X149006107Y-86988607D01*
X148988383Y-87004671D01*
X148969170Y-87018921D01*
X148948653Y-87031218D01*
X148927029Y-87041446D01*
X148904507Y-87049504D01*
X148881303Y-87055316D01*
X148857642Y-87058826D01*
X148833750Y-87060000D01*
X148346250Y-87060000D01*
X148322358Y-87058826D01*
X148298697Y-87055316D01*
X148275493Y-87049504D01*
X148252971Y-87041446D01*
X148231347Y-87031218D01*
X148210830Y-87018921D01*
X148191617Y-87004671D01*
X148173893Y-86988607D01*
X148157829Y-86970883D01*
X148143579Y-86951670D01*
X148131282Y-86931153D01*
X148121054Y-86909529D01*
X148112996Y-86887007D01*
X148107184Y-86863803D01*
X148103674Y-86840142D01*
X148102500Y-86816250D01*
X148102500Y-85903750D01*
X148103674Y-85879858D01*
X148107184Y-85856197D01*
X148112996Y-85832993D01*
X148121054Y-85810471D01*
X148131282Y-85788847D01*
X148143579Y-85768330D01*
X148157829Y-85749117D01*
X148173893Y-85731393D01*
X148191617Y-85715329D01*
X148210830Y-85701079D01*
X148231347Y-85688782D01*
X148252971Y-85678554D01*
X148275493Y-85670496D01*
X148298697Y-85664684D01*
X148322358Y-85661174D01*
X148346250Y-85660000D01*
X148833750Y-85660000D01*
X148857642Y-85661174D01*
G37*
G04 #@! TD.AperFunction*
G04 #@! TA.AperFunction,SMDPad,CuDef*
G36*
X148857642Y-80581174D02*
G01*
X148881303Y-80584684D01*
X148904507Y-80590496D01*
X148927029Y-80598554D01*
X148948653Y-80608782D01*
X148969170Y-80621079D01*
X148988383Y-80635329D01*
X149006107Y-80651393D01*
X149022171Y-80669117D01*
X149036421Y-80688330D01*
X149048718Y-80708847D01*
X149058946Y-80730471D01*
X149067004Y-80752993D01*
X149072816Y-80776197D01*
X149076326Y-80799858D01*
X149077500Y-80823750D01*
X149077500Y-81736250D01*
X149076326Y-81760142D01*
X149072816Y-81783803D01*
X149067004Y-81807007D01*
X149058946Y-81829529D01*
X149048718Y-81851153D01*
X149036421Y-81871670D01*
X149022171Y-81890883D01*
X149006107Y-81908607D01*
X148988383Y-81924671D01*
X148969170Y-81938921D01*
X148948653Y-81951218D01*
X148927029Y-81961446D01*
X148904507Y-81969504D01*
X148881303Y-81975316D01*
X148857642Y-81978826D01*
X148833750Y-81980000D01*
X148346250Y-81980000D01*
X148322358Y-81978826D01*
X148298697Y-81975316D01*
X148275493Y-81969504D01*
X148252971Y-81961446D01*
X148231347Y-81951218D01*
X148210830Y-81938921D01*
X148191617Y-81924671D01*
X148173893Y-81908607D01*
X148157829Y-81890883D01*
X148143579Y-81871670D01*
X148131282Y-81851153D01*
X148121054Y-81829529D01*
X148112996Y-81807007D01*
X148107184Y-81783803D01*
X148103674Y-81760142D01*
X148102500Y-81736250D01*
X148102500Y-80823750D01*
X148103674Y-80799858D01*
X148107184Y-80776197D01*
X148112996Y-80752993D01*
X148121054Y-80730471D01*
X148131282Y-80708847D01*
X148143579Y-80688330D01*
X148157829Y-80669117D01*
X148173893Y-80651393D01*
X148191617Y-80635329D01*
X148210830Y-80621079D01*
X148231347Y-80608782D01*
X148252971Y-80598554D01*
X148275493Y-80590496D01*
X148298697Y-80584684D01*
X148322358Y-80581174D01*
X148346250Y-80580000D01*
X148833750Y-80580000D01*
X148857642Y-80581174D01*
G37*
G04 #@! TD.AperFunction*
G04 #@! TA.AperFunction,SMDPad,CuDef*
G36*
X146982642Y-80581174D02*
G01*
X147006303Y-80584684D01*
X147029507Y-80590496D01*
X147052029Y-80598554D01*
X147073653Y-80608782D01*
X147094170Y-80621079D01*
X147113383Y-80635329D01*
X147131107Y-80651393D01*
X147147171Y-80669117D01*
X147161421Y-80688330D01*
X147173718Y-80708847D01*
X147183946Y-80730471D01*
X147192004Y-80752993D01*
X147197816Y-80776197D01*
X147201326Y-80799858D01*
X147202500Y-80823750D01*
X147202500Y-81736250D01*
X147201326Y-81760142D01*
X147197816Y-81783803D01*
X147192004Y-81807007D01*
X147183946Y-81829529D01*
X147173718Y-81851153D01*
X147161421Y-81871670D01*
X147147171Y-81890883D01*
X147131107Y-81908607D01*
X147113383Y-81924671D01*
X147094170Y-81938921D01*
X147073653Y-81951218D01*
X147052029Y-81961446D01*
X147029507Y-81969504D01*
X147006303Y-81975316D01*
X146982642Y-81978826D01*
X146958750Y-81980000D01*
X146471250Y-81980000D01*
X146447358Y-81978826D01*
X146423697Y-81975316D01*
X146400493Y-81969504D01*
X146377971Y-81961446D01*
X146356347Y-81951218D01*
X146335830Y-81938921D01*
X146316617Y-81924671D01*
X146298893Y-81908607D01*
X146282829Y-81890883D01*
X146268579Y-81871670D01*
X146256282Y-81851153D01*
X146246054Y-81829529D01*
X146237996Y-81807007D01*
X146232184Y-81783803D01*
X146228674Y-81760142D01*
X146227500Y-81736250D01*
X146227500Y-80823750D01*
X146228674Y-80799858D01*
X146232184Y-80776197D01*
X146237996Y-80752993D01*
X146246054Y-80730471D01*
X146256282Y-80708847D01*
X146268579Y-80688330D01*
X146282829Y-80669117D01*
X146298893Y-80651393D01*
X146316617Y-80635329D01*
X146335830Y-80621079D01*
X146356347Y-80608782D01*
X146377971Y-80598554D01*
X146400493Y-80590496D01*
X146423697Y-80584684D01*
X146447358Y-80581174D01*
X146471250Y-80580000D01*
X146958750Y-80580000D01*
X146982642Y-80581174D01*
G37*
G04 #@! TD.AperFunction*
G04 #@! TA.AperFunction,SMDPad,CuDef*
G36*
X133830142Y-88081174D02*
G01*
X133853803Y-88084684D01*
X133877007Y-88090496D01*
X133899529Y-88098554D01*
X133921153Y-88108782D01*
X133941670Y-88121079D01*
X133960883Y-88135329D01*
X133978607Y-88151393D01*
X133994671Y-88169117D01*
X134008921Y-88188330D01*
X134021218Y-88208847D01*
X134031446Y-88230471D01*
X134039504Y-88252993D01*
X134045316Y-88276197D01*
X134048826Y-88299858D01*
X134050000Y-88323750D01*
X134050000Y-88811250D01*
X134048826Y-88835142D01*
X134045316Y-88858803D01*
X134039504Y-88882007D01*
X134031446Y-88904529D01*
X134021218Y-88926153D01*
X134008921Y-88946670D01*
X133994671Y-88965883D01*
X133978607Y-88983607D01*
X133960883Y-88999671D01*
X133941670Y-89013921D01*
X133921153Y-89026218D01*
X133899529Y-89036446D01*
X133877007Y-89044504D01*
X133853803Y-89050316D01*
X133830142Y-89053826D01*
X133806250Y-89055000D01*
X132893750Y-89055000D01*
X132869858Y-89053826D01*
X132846197Y-89050316D01*
X132822993Y-89044504D01*
X132800471Y-89036446D01*
X132778847Y-89026218D01*
X132758330Y-89013921D01*
X132739117Y-88999671D01*
X132721393Y-88983607D01*
X132705329Y-88965883D01*
X132691079Y-88946670D01*
X132678782Y-88926153D01*
X132668554Y-88904529D01*
X132660496Y-88882007D01*
X132654684Y-88858803D01*
X132651174Y-88835142D01*
X132650000Y-88811250D01*
X132650000Y-88323750D01*
X132651174Y-88299858D01*
X132654684Y-88276197D01*
X132660496Y-88252993D01*
X132668554Y-88230471D01*
X132678782Y-88208847D01*
X132691079Y-88188330D01*
X132705329Y-88169117D01*
X132721393Y-88151393D01*
X132739117Y-88135329D01*
X132758330Y-88121079D01*
X132778847Y-88108782D01*
X132800471Y-88098554D01*
X132822993Y-88090496D01*
X132846197Y-88084684D01*
X132869858Y-88081174D01*
X132893750Y-88080000D01*
X133806250Y-88080000D01*
X133830142Y-88081174D01*
G37*
G04 #@! TD.AperFunction*
G04 #@! TA.AperFunction,SMDPad,CuDef*
G36*
X133830142Y-86206174D02*
G01*
X133853803Y-86209684D01*
X133877007Y-86215496D01*
X133899529Y-86223554D01*
X133921153Y-86233782D01*
X133941670Y-86246079D01*
X133960883Y-86260329D01*
X133978607Y-86276393D01*
X133994671Y-86294117D01*
X134008921Y-86313330D01*
X134021218Y-86333847D01*
X134031446Y-86355471D01*
X134039504Y-86377993D01*
X134045316Y-86401197D01*
X134048826Y-86424858D01*
X134050000Y-86448750D01*
X134050000Y-86936250D01*
X134048826Y-86960142D01*
X134045316Y-86983803D01*
X134039504Y-87007007D01*
X134031446Y-87029529D01*
X134021218Y-87051153D01*
X134008921Y-87071670D01*
X133994671Y-87090883D01*
X133978607Y-87108607D01*
X133960883Y-87124671D01*
X133941670Y-87138921D01*
X133921153Y-87151218D01*
X133899529Y-87161446D01*
X133877007Y-87169504D01*
X133853803Y-87175316D01*
X133830142Y-87178826D01*
X133806250Y-87180000D01*
X132893750Y-87180000D01*
X132869858Y-87178826D01*
X132846197Y-87175316D01*
X132822993Y-87169504D01*
X132800471Y-87161446D01*
X132778847Y-87151218D01*
X132758330Y-87138921D01*
X132739117Y-87124671D01*
X132721393Y-87108607D01*
X132705329Y-87090883D01*
X132691079Y-87071670D01*
X132678782Y-87051153D01*
X132668554Y-87029529D01*
X132660496Y-87007007D01*
X132654684Y-86983803D01*
X132651174Y-86960142D01*
X132650000Y-86936250D01*
X132650000Y-86448750D01*
X132651174Y-86424858D01*
X132654684Y-86401197D01*
X132660496Y-86377993D01*
X132668554Y-86355471D01*
X132678782Y-86333847D01*
X132691079Y-86313330D01*
X132705329Y-86294117D01*
X132721393Y-86276393D01*
X132739117Y-86260329D01*
X132758330Y-86246079D01*
X132778847Y-86233782D01*
X132800471Y-86223554D01*
X132822993Y-86215496D01*
X132846197Y-86209684D01*
X132869858Y-86206174D01*
X132893750Y-86205000D01*
X133806250Y-86205000D01*
X133830142Y-86206174D01*
G37*
G04 #@! TD.AperFunction*
D18*
X158750000Y-93980000D03*
X156210000Y-93980000D03*
X158750000Y-91440000D03*
X156210000Y-91440000D03*
X158750000Y-88900000D03*
X156210000Y-88900000D03*
X158750000Y-86360000D03*
X156210000Y-86360000D03*
X158750000Y-83820000D03*
X156210000Y-83820000D03*
X158750000Y-81280000D03*
D19*
X156210000Y-81280000D03*
G04 #@! TA.AperFunction,SMDPad,CuDef*
D12*
G36*
X153049504Y-83326204D02*
G01*
X153073773Y-83329804D01*
X153097571Y-83335765D01*
X153120671Y-83344030D01*
X153142849Y-83354520D01*
X153163893Y-83367133D01*
X153183598Y-83381747D01*
X153201777Y-83398223D01*
X153218253Y-83416402D01*
X153232867Y-83436107D01*
X153245480Y-83457151D01*
X153255970Y-83479329D01*
X153264235Y-83502429D01*
X153270196Y-83526227D01*
X153273796Y-83550496D01*
X153275000Y-83575000D01*
X153275000Y-84325000D01*
X153273796Y-84349504D01*
X153270196Y-84373773D01*
X153264235Y-84397571D01*
X153255970Y-84420671D01*
X153245480Y-84442849D01*
X153232867Y-84463893D01*
X153218253Y-84483598D01*
X153201777Y-84501777D01*
X153183598Y-84518253D01*
X153163893Y-84532867D01*
X153142849Y-84545480D01*
X153120671Y-84555970D01*
X153097571Y-84564235D01*
X153073773Y-84570196D01*
X153049504Y-84573796D01*
X153025000Y-84575000D01*
X151775000Y-84575000D01*
X151750496Y-84573796D01*
X151726227Y-84570196D01*
X151702429Y-84564235D01*
X151679329Y-84555970D01*
X151657151Y-84545480D01*
X151636107Y-84532867D01*
X151616402Y-84518253D01*
X151598223Y-84501777D01*
X151581747Y-84483598D01*
X151567133Y-84463893D01*
X151554520Y-84442849D01*
X151544030Y-84420671D01*
X151535765Y-84397571D01*
X151529804Y-84373773D01*
X151526204Y-84349504D01*
X151525000Y-84325000D01*
X151525000Y-83575000D01*
X151526204Y-83550496D01*
X151529804Y-83526227D01*
X151535765Y-83502429D01*
X151544030Y-83479329D01*
X151554520Y-83457151D01*
X151567133Y-83436107D01*
X151581747Y-83416402D01*
X151598223Y-83398223D01*
X151616402Y-83381747D01*
X151636107Y-83367133D01*
X151657151Y-83354520D01*
X151679329Y-83344030D01*
X151702429Y-83335765D01*
X151726227Y-83329804D01*
X151750496Y-83326204D01*
X151775000Y-83325000D01*
X153025000Y-83325000D01*
X153049504Y-83326204D01*
G37*
G04 #@! TD.AperFunction*
G04 #@! TA.AperFunction,SMDPad,CuDef*
G36*
X153049504Y-80526204D02*
G01*
X153073773Y-80529804D01*
X153097571Y-80535765D01*
X153120671Y-80544030D01*
X153142849Y-80554520D01*
X153163893Y-80567133D01*
X153183598Y-80581747D01*
X153201777Y-80598223D01*
X153218253Y-80616402D01*
X153232867Y-80636107D01*
X153245480Y-80657151D01*
X153255970Y-80679329D01*
X153264235Y-80702429D01*
X153270196Y-80726227D01*
X153273796Y-80750496D01*
X153275000Y-80775000D01*
X153275000Y-81525000D01*
X153273796Y-81549504D01*
X153270196Y-81573773D01*
X153264235Y-81597571D01*
X153255970Y-81620671D01*
X153245480Y-81642849D01*
X153232867Y-81663893D01*
X153218253Y-81683598D01*
X153201777Y-81701777D01*
X153183598Y-81718253D01*
X153163893Y-81732867D01*
X153142849Y-81745480D01*
X153120671Y-81755970D01*
X153097571Y-81764235D01*
X153073773Y-81770196D01*
X153049504Y-81773796D01*
X153025000Y-81775000D01*
X151775000Y-81775000D01*
X151750496Y-81773796D01*
X151726227Y-81770196D01*
X151702429Y-81764235D01*
X151679329Y-81755970D01*
X151657151Y-81745480D01*
X151636107Y-81732867D01*
X151616402Y-81718253D01*
X151598223Y-81701777D01*
X151581747Y-81683598D01*
X151567133Y-81663893D01*
X151554520Y-81642849D01*
X151544030Y-81620671D01*
X151535765Y-81597571D01*
X151529804Y-81573773D01*
X151526204Y-81549504D01*
X151525000Y-81525000D01*
X151525000Y-80775000D01*
X151526204Y-80750496D01*
X151529804Y-80726227D01*
X151535765Y-80702429D01*
X151544030Y-80679329D01*
X151554520Y-80657151D01*
X151567133Y-80636107D01*
X151581747Y-80616402D01*
X151598223Y-80598223D01*
X151616402Y-80581747D01*
X151636107Y-80567133D01*
X151657151Y-80554520D01*
X151679329Y-80544030D01*
X151702429Y-80535765D01*
X151726227Y-80529804D01*
X151750496Y-80526204D01*
X151775000Y-80525000D01*
X153025000Y-80525000D01*
X153049504Y-80526204D01*
G37*
G04 #@! TD.AperFunction*
G04 #@! TA.AperFunction,SMDPad,CuDef*
G36*
X153049504Y-90686204D02*
G01*
X153073773Y-90689804D01*
X153097571Y-90695765D01*
X153120671Y-90704030D01*
X153142849Y-90714520D01*
X153163893Y-90727133D01*
X153183598Y-90741747D01*
X153201777Y-90758223D01*
X153218253Y-90776402D01*
X153232867Y-90796107D01*
X153245480Y-90817151D01*
X153255970Y-90839329D01*
X153264235Y-90862429D01*
X153270196Y-90886227D01*
X153273796Y-90910496D01*
X153275000Y-90935000D01*
X153275000Y-91685000D01*
X153273796Y-91709504D01*
X153270196Y-91733773D01*
X153264235Y-91757571D01*
X153255970Y-91780671D01*
X153245480Y-91802849D01*
X153232867Y-91823893D01*
X153218253Y-91843598D01*
X153201777Y-91861777D01*
X153183598Y-91878253D01*
X153163893Y-91892867D01*
X153142849Y-91905480D01*
X153120671Y-91915970D01*
X153097571Y-91924235D01*
X153073773Y-91930196D01*
X153049504Y-91933796D01*
X153025000Y-91935000D01*
X151775000Y-91935000D01*
X151750496Y-91933796D01*
X151726227Y-91930196D01*
X151702429Y-91924235D01*
X151679329Y-91915970D01*
X151657151Y-91905480D01*
X151636107Y-91892867D01*
X151616402Y-91878253D01*
X151598223Y-91861777D01*
X151581747Y-91843598D01*
X151567133Y-91823893D01*
X151554520Y-91802849D01*
X151544030Y-91780671D01*
X151535765Y-91757571D01*
X151529804Y-91733773D01*
X151526204Y-91709504D01*
X151525000Y-91685000D01*
X151525000Y-90935000D01*
X151526204Y-90910496D01*
X151529804Y-90886227D01*
X151535765Y-90862429D01*
X151544030Y-90839329D01*
X151554520Y-90817151D01*
X151567133Y-90796107D01*
X151581747Y-90776402D01*
X151598223Y-90758223D01*
X151616402Y-90741747D01*
X151636107Y-90727133D01*
X151657151Y-90714520D01*
X151679329Y-90704030D01*
X151702429Y-90695765D01*
X151726227Y-90689804D01*
X151750496Y-90686204D01*
X151775000Y-90685000D01*
X153025000Y-90685000D01*
X153049504Y-90686204D01*
G37*
G04 #@! TD.AperFunction*
G04 #@! TA.AperFunction,SMDPad,CuDef*
G36*
X153049504Y-93486204D02*
G01*
X153073773Y-93489804D01*
X153097571Y-93495765D01*
X153120671Y-93504030D01*
X153142849Y-93514520D01*
X153163893Y-93527133D01*
X153183598Y-93541747D01*
X153201777Y-93558223D01*
X153218253Y-93576402D01*
X153232867Y-93596107D01*
X153245480Y-93617151D01*
X153255970Y-93639329D01*
X153264235Y-93662429D01*
X153270196Y-93686227D01*
X153273796Y-93710496D01*
X153275000Y-93735000D01*
X153275000Y-94485000D01*
X153273796Y-94509504D01*
X153270196Y-94533773D01*
X153264235Y-94557571D01*
X153255970Y-94580671D01*
X153245480Y-94602849D01*
X153232867Y-94623893D01*
X153218253Y-94643598D01*
X153201777Y-94661777D01*
X153183598Y-94678253D01*
X153163893Y-94692867D01*
X153142849Y-94705480D01*
X153120671Y-94715970D01*
X153097571Y-94724235D01*
X153073773Y-94730196D01*
X153049504Y-94733796D01*
X153025000Y-94735000D01*
X151775000Y-94735000D01*
X151750496Y-94733796D01*
X151726227Y-94730196D01*
X151702429Y-94724235D01*
X151679329Y-94715970D01*
X151657151Y-94705480D01*
X151636107Y-94692867D01*
X151616402Y-94678253D01*
X151598223Y-94661777D01*
X151581747Y-94643598D01*
X151567133Y-94623893D01*
X151554520Y-94602849D01*
X151544030Y-94580671D01*
X151535765Y-94557571D01*
X151529804Y-94533773D01*
X151526204Y-94509504D01*
X151525000Y-94485000D01*
X151525000Y-93735000D01*
X151526204Y-93710496D01*
X151529804Y-93686227D01*
X151535765Y-93662429D01*
X151544030Y-93639329D01*
X151554520Y-93617151D01*
X151567133Y-93596107D01*
X151581747Y-93576402D01*
X151598223Y-93558223D01*
X151616402Y-93541747D01*
X151636107Y-93527133D01*
X151657151Y-93514520D01*
X151679329Y-93504030D01*
X151702429Y-93495765D01*
X151726227Y-93489804D01*
X151750496Y-93486204D01*
X151775000Y-93485000D01*
X153025000Y-93485000D01*
X153049504Y-93486204D01*
G37*
G04 #@! TD.AperFunction*
G04 #@! TA.AperFunction,SMDPad,CuDef*
G36*
X129202642Y-88201174D02*
G01*
X129226303Y-88204684D01*
X129249507Y-88210496D01*
X129272029Y-88218554D01*
X129293653Y-88228782D01*
X129314170Y-88241079D01*
X129333383Y-88255329D01*
X129351107Y-88271393D01*
X129367171Y-88289117D01*
X129381421Y-88308330D01*
X129393718Y-88328847D01*
X129403946Y-88350471D01*
X129412004Y-88372993D01*
X129417816Y-88396197D01*
X129421326Y-88419858D01*
X129422500Y-88443750D01*
X129422500Y-89356250D01*
X129421326Y-89380142D01*
X129417816Y-89403803D01*
X129412004Y-89427007D01*
X129403946Y-89449529D01*
X129393718Y-89471153D01*
X129381421Y-89491670D01*
X129367171Y-89510883D01*
X129351107Y-89528607D01*
X129333383Y-89544671D01*
X129314170Y-89558921D01*
X129293653Y-89571218D01*
X129272029Y-89581446D01*
X129249507Y-89589504D01*
X129226303Y-89595316D01*
X129202642Y-89598826D01*
X129178750Y-89600000D01*
X128691250Y-89600000D01*
X128667358Y-89598826D01*
X128643697Y-89595316D01*
X128620493Y-89589504D01*
X128597971Y-89581446D01*
X128576347Y-89571218D01*
X128555830Y-89558921D01*
X128536617Y-89544671D01*
X128518893Y-89528607D01*
X128502829Y-89510883D01*
X128488579Y-89491670D01*
X128476282Y-89471153D01*
X128466054Y-89449529D01*
X128457996Y-89427007D01*
X128452184Y-89403803D01*
X128448674Y-89380142D01*
X128447500Y-89356250D01*
X128447500Y-88443750D01*
X128448674Y-88419858D01*
X128452184Y-88396197D01*
X128457996Y-88372993D01*
X128466054Y-88350471D01*
X128476282Y-88328847D01*
X128488579Y-88308330D01*
X128502829Y-88289117D01*
X128518893Y-88271393D01*
X128536617Y-88255329D01*
X128555830Y-88241079D01*
X128576347Y-88228782D01*
X128597971Y-88218554D01*
X128620493Y-88210496D01*
X128643697Y-88204684D01*
X128667358Y-88201174D01*
X128691250Y-88200000D01*
X129178750Y-88200000D01*
X129202642Y-88201174D01*
G37*
G04 #@! TD.AperFunction*
G04 #@! TA.AperFunction,SMDPad,CuDef*
G36*
X131077642Y-88201174D02*
G01*
X131101303Y-88204684D01*
X131124507Y-88210496D01*
X131147029Y-88218554D01*
X131168653Y-88228782D01*
X131189170Y-88241079D01*
X131208383Y-88255329D01*
X131226107Y-88271393D01*
X131242171Y-88289117D01*
X131256421Y-88308330D01*
X131268718Y-88328847D01*
X131278946Y-88350471D01*
X131287004Y-88372993D01*
X131292816Y-88396197D01*
X131296326Y-88419858D01*
X131297500Y-88443750D01*
X131297500Y-89356250D01*
X131296326Y-89380142D01*
X131292816Y-89403803D01*
X131287004Y-89427007D01*
X131278946Y-89449529D01*
X131268718Y-89471153D01*
X131256421Y-89491670D01*
X131242171Y-89510883D01*
X131226107Y-89528607D01*
X131208383Y-89544671D01*
X131189170Y-89558921D01*
X131168653Y-89571218D01*
X131147029Y-89581446D01*
X131124507Y-89589504D01*
X131101303Y-89595316D01*
X131077642Y-89598826D01*
X131053750Y-89600000D01*
X130566250Y-89600000D01*
X130542358Y-89598826D01*
X130518697Y-89595316D01*
X130495493Y-89589504D01*
X130472971Y-89581446D01*
X130451347Y-89571218D01*
X130430830Y-89558921D01*
X130411617Y-89544671D01*
X130393893Y-89528607D01*
X130377829Y-89510883D01*
X130363579Y-89491670D01*
X130351282Y-89471153D01*
X130341054Y-89449529D01*
X130332996Y-89427007D01*
X130327184Y-89403803D01*
X130323674Y-89380142D01*
X130322500Y-89356250D01*
X130322500Y-88443750D01*
X130323674Y-88419858D01*
X130327184Y-88396197D01*
X130332996Y-88372993D01*
X130341054Y-88350471D01*
X130351282Y-88328847D01*
X130363579Y-88308330D01*
X130377829Y-88289117D01*
X130393893Y-88271393D01*
X130411617Y-88255329D01*
X130430830Y-88241079D01*
X130451347Y-88228782D01*
X130472971Y-88218554D01*
X130495493Y-88210496D01*
X130518697Y-88204684D01*
X130542358Y-88201174D01*
X130566250Y-88200000D01*
X131053750Y-88200000D01*
X131077642Y-88201174D01*
G37*
G04 #@! TD.AperFunction*
D20*
X149860000Y-85090000D03*
X143510000Y-83820000D03*
X143510000Y-80010000D03*
X152400000Y-86360000D03*
X139709970Y-90160030D03*
X133350000Y-90170000D03*
X133350000Y-90170000D03*
X153670000Y-90170000D03*
X134620000Y-81280000D03*
X134620000Y-90170000D03*
D21*
X129844000Y-90474000D02*
X129844000Y-91744000D01*
X129844000Y-91744000D02*
X130887000Y-91744000D01*
X129844000Y-90474000D02*
X129540000Y-90170000D01*
X129540000Y-90170000D02*
X127000000Y-90170000D01*
X128935000Y-88900000D02*
X127000000Y-88900000D01*
X127000000Y-90170000D02*
X127000000Y-88900000D01*
X126680000Y-90490000D02*
X124460000Y-90490000D01*
X127000000Y-90170000D02*
X126680000Y-90490000D01*
X127000000Y-83155000D02*
X126395000Y-82550000D01*
X130810000Y-82550000D02*
X129540000Y-83820000D01*
X129540000Y-83820000D02*
X127000000Y-83820000D01*
X127000000Y-83820000D02*
X127000000Y-83155000D01*
X127000000Y-88900000D02*
X127000000Y-83820000D01*
X137225000Y-88265000D02*
X135255000Y-88265000D01*
X135255000Y-88265000D02*
X134620000Y-87630000D01*
X134620000Y-87630000D02*
X132080000Y-87630000D01*
X132080000Y-87630000D02*
X132080000Y-88900000D01*
X132080000Y-88900000D02*
X130810000Y-88900000D01*
X154470998Y-88900000D02*
X149527500Y-88900000D01*
X155645999Y-90075001D02*
X154470998Y-88900000D01*
X157574999Y-90075001D02*
X155645999Y-90075001D01*
X158750000Y-88900000D02*
X157574999Y-90075001D01*
X149765001Y-87535001D02*
X157574999Y-87535001D01*
X157574999Y-87535001D02*
X158750000Y-86360000D01*
X148590000Y-86360000D02*
X149765001Y-87535001D01*
X149195000Y-83820000D02*
X149860000Y-84485000D01*
X149860000Y-84485000D02*
X149860000Y-85090000D01*
X149860000Y-85090000D02*
X149860000Y-85090000D01*
X149860000Y-85090000D02*
X149860000Y-85090000D01*
X149860000Y-81280000D02*
X148590000Y-81280000D01*
X157900001Y-82129999D02*
X158750000Y-81280000D01*
X151035001Y-82455001D02*
X157574999Y-82455001D01*
X157574999Y-82455001D02*
X157900001Y-82129999D01*
X149860000Y-81280000D02*
X151035001Y-82455001D01*
X133652500Y-86995000D02*
X133350000Y-86692500D01*
X137225000Y-86995000D02*
X135255000Y-86995000D01*
X135255000Y-83517500D02*
X135255000Y-86995000D01*
X137492500Y-81280000D02*
X135255000Y-83517500D01*
X139095000Y-81280000D02*
X137492500Y-81280000D01*
X134952500Y-86692500D02*
X135255000Y-86995000D01*
X133350000Y-86692500D02*
X134952500Y-86692500D01*
X146382500Y-83820000D02*
X147320000Y-83820000D01*
X146715000Y-81280000D02*
X144780000Y-81280000D01*
X144780000Y-81280000D02*
X144780000Y-88900000D01*
X144780000Y-88900000D02*
X147652500Y-88900000D01*
X146382500Y-83820000D02*
X144780000Y-83820000D01*
X144780000Y-83820000D02*
X144780000Y-84425000D01*
X146715000Y-86360000D02*
X144780000Y-86360000D01*
X142810000Y-88900000D02*
X142175000Y-88265000D01*
X144780000Y-88900000D02*
X142810000Y-88900000D01*
X144780000Y-81280000D02*
X143842500Y-81280000D01*
X143842500Y-81280000D02*
X140970000Y-81280000D01*
X143150000Y-86995000D02*
X142175000Y-86995000D01*
X143475010Y-83854990D02*
X143475010Y-86669990D01*
X143475010Y-86669990D02*
X143150000Y-86995000D01*
X143510000Y-83820000D02*
X143510000Y-83820000D01*
X143510000Y-83820000D02*
X143475010Y-83854990D01*
X143510000Y-83820000D02*
X143510000Y-83820000D01*
X152400000Y-81150000D02*
X152400000Y-80010000D01*
X152400000Y-80010000D02*
X152400000Y-80010000D01*
X156340000Y-81150000D02*
X156210000Y-81280000D01*
X152530000Y-81280000D02*
X152400000Y-81150000D01*
X156210000Y-81280000D02*
X152530000Y-81280000D01*
X156210000Y-83820000D02*
X156210000Y-86360000D01*
X143510000Y-80010000D02*
X143510000Y-80010000D01*
X137160000Y-80010000D02*
X143510000Y-80010000D01*
X134620000Y-82550000D02*
X137160000Y-80010000D01*
X143510000Y-80010000D02*
X152400000Y-80010000D01*
X132685000Y-82550000D02*
X134620000Y-82550000D01*
X128547394Y-93725000D02*
X128150000Y-93725000D01*
X129439251Y-93725000D02*
X128547394Y-93725000D01*
X130454251Y-92710000D02*
X129439251Y-93725000D01*
X130887000Y-92710000D02*
X130454251Y-92710000D01*
X156340000Y-91310000D02*
X156210000Y-91440000D01*
X128150000Y-93725000D02*
X127135000Y-92710000D01*
X127135000Y-92710000D02*
X127000000Y-92710000D01*
X127135000Y-92710000D02*
X128150000Y-91695000D01*
X128219000Y-91695000D02*
X128784000Y-92260000D01*
X128150000Y-91695000D02*
X128219000Y-91695000D01*
X152400000Y-83950000D02*
X152400000Y-86360000D01*
X152400000Y-86360000D02*
X152400000Y-86360000D01*
X137225000Y-89535000D02*
X139065000Y-89535000D01*
X139065000Y-89535000D02*
X139690010Y-90160010D01*
X139690010Y-90160010D02*
X139709970Y-90160030D01*
X139709970Y-90160030D02*
X139709970Y-90160030D01*
X133350000Y-88567500D02*
X133350000Y-90170000D01*
X133350000Y-90170000D02*
X133350000Y-90170000D01*
X133350000Y-90170000D02*
X133350000Y-90170000D01*
X153670000Y-90170000D02*
X153670000Y-90170000D01*
X153670000Y-90915000D02*
X153670000Y-90170000D01*
X153275000Y-91310000D02*
X153670000Y-90915000D01*
X152400000Y-91310000D02*
X153275000Y-91310000D01*
X139719940Y-90170000D02*
X139709970Y-90160030D01*
X153670000Y-90170000D02*
X139719940Y-90170000D01*
X127135000Y-92710000D02*
X124460000Y-92710000D01*
X124460000Y-92710000D02*
X124140000Y-92390000D01*
X156340000Y-94110000D02*
X156210000Y-93980000D01*
X133046000Y-93676000D02*
X130887000Y-93676000D01*
X152530000Y-93980000D02*
X152400000Y-94110000D01*
X156210000Y-93980000D02*
X152530000Y-93980000D01*
X134620000Y-81280000D02*
X134620000Y-81280000D01*
X152400000Y-94110000D02*
X151525000Y-94110000D01*
X151018590Y-91440000D02*
X134620000Y-91440000D01*
X134620000Y-91440000D02*
X134620000Y-91440000D01*
X133046000Y-93014000D02*
X134620000Y-91440000D01*
X133046000Y-93676000D02*
X133046000Y-93014000D01*
X134620000Y-91440000D02*
X134620000Y-90170000D01*
X134620000Y-90170000D02*
X134620000Y-90170000D01*
X151986810Y-92710000D02*
X157480000Y-92710000D01*
X151018590Y-91741780D02*
X151986810Y-92710000D01*
X157480000Y-92710000D02*
X156210000Y-93980000D01*
X151018590Y-91440000D02*
X151018590Y-91741780D01*
X158750000Y-91440000D02*
X157480000Y-92710000D01*
X129305650Y-82550000D02*
X128270000Y-82550000D01*
X131845650Y-80010000D02*
X129305650Y-82550000D01*
X134620000Y-80010000D02*
X131845650Y-80010000D01*
X134620000Y-81280000D02*
X134620000Y-80010000D01*
D22*
G36*
X161163000Y-95123000D02*
G01*
X159707107Y-95123000D01*
X159903475Y-94926632D01*
X160065990Y-94683411D01*
X160177932Y-94413158D01*
X160235000Y-94126260D01*
X160235000Y-93833740D01*
X160177932Y-93546842D01*
X160065990Y-93276589D01*
X159903475Y-93033368D01*
X159696632Y-92826525D01*
X159522240Y-92710000D01*
X159696632Y-92593475D01*
X159903475Y-92386632D01*
X160065990Y-92143411D01*
X160177932Y-91873158D01*
X160235000Y-91586260D01*
X160235000Y-91293740D01*
X160177932Y-91006842D01*
X160065990Y-90736589D01*
X159903475Y-90493368D01*
X159696632Y-90286525D01*
X159522240Y-90170000D01*
X159696632Y-90053475D01*
X159903475Y-89846632D01*
X160065990Y-89603411D01*
X160177932Y-89333158D01*
X160235000Y-89046260D01*
X160235000Y-88753740D01*
X160177932Y-88466842D01*
X160065990Y-88196589D01*
X159903475Y-87953368D01*
X159696632Y-87746525D01*
X159522240Y-87630000D01*
X159696632Y-87513475D01*
X159903475Y-87306632D01*
X160065990Y-87063411D01*
X160177932Y-86793158D01*
X160235000Y-86506260D01*
X160235000Y-86213740D01*
X160177932Y-85926842D01*
X160065990Y-85656589D01*
X159903475Y-85413368D01*
X159696632Y-85206525D01*
X159522240Y-85090000D01*
X159696632Y-84973475D01*
X159903475Y-84766632D01*
X160065990Y-84523411D01*
X160177932Y-84253158D01*
X160235000Y-83966260D01*
X160235000Y-83673740D01*
X160177932Y-83386842D01*
X160065990Y-83116589D01*
X159903475Y-82873368D01*
X159696632Y-82666525D01*
X159522240Y-82550000D01*
X159696632Y-82433475D01*
X159903475Y-82226632D01*
X160065990Y-81983411D01*
X160177932Y-81713158D01*
X160235000Y-81426260D01*
X160235000Y-81133740D01*
X160177932Y-80846842D01*
X160065990Y-80576589D01*
X159903475Y-80333368D01*
X159696632Y-80126525D01*
X159453411Y-79964010D01*
X159183158Y-79852068D01*
X158896260Y-79795000D01*
X158603740Y-79795000D01*
X158316842Y-79852068D01*
X158046589Y-79964010D01*
X157803368Y-80126525D01*
X157671513Y-80258380D01*
X157649502Y-80185820D01*
X157590537Y-80075506D01*
X157511185Y-79978815D01*
X157414494Y-79899463D01*
X157304180Y-79840498D01*
X157184482Y-79804188D01*
X157060000Y-79791928D01*
X156495750Y-79795000D01*
X156337000Y-79953750D01*
X156337000Y-81153000D01*
X156357000Y-81153000D01*
X156357000Y-81407000D01*
X156337000Y-81407000D01*
X156337000Y-81427000D01*
X156083000Y-81427000D01*
X156083000Y-81407000D01*
X154883750Y-81407000D01*
X154725000Y-81565750D01*
X154724296Y-81695001D01*
X153912348Y-81695001D01*
X153910000Y-81435750D01*
X153751250Y-81277000D01*
X152527000Y-81277000D01*
X152527000Y-81297000D01*
X152273000Y-81297000D01*
X152273000Y-81277000D01*
X151048750Y-81277000D01*
X150990276Y-81335474D01*
X150423804Y-80769003D01*
X150400001Y-80739999D01*
X150284276Y-80645026D01*
X150152247Y-80574454D01*
X150008986Y-80530997D01*
X149948099Y-80525000D01*
X150886928Y-80525000D01*
X150890000Y-80864250D01*
X151048750Y-81023000D01*
X152273000Y-81023000D01*
X152273000Y-80048750D01*
X152527000Y-80048750D01*
X152527000Y-81023000D01*
X153751250Y-81023000D01*
X153910000Y-80864250D01*
X153913072Y-80525000D01*
X153903716Y-80430000D01*
X154721928Y-80430000D01*
X154725000Y-80994250D01*
X154883750Y-81153000D01*
X156083000Y-81153000D01*
X156083000Y-79953750D01*
X155924250Y-79795000D01*
X155360000Y-79791928D01*
X155235518Y-79804188D01*
X155115820Y-79840498D01*
X155005506Y-79899463D01*
X154908815Y-79978815D01*
X154829463Y-80075506D01*
X154770498Y-80185820D01*
X154734188Y-80305518D01*
X154721928Y-80430000D01*
X153903716Y-80430000D01*
X153900812Y-80400518D01*
X153864502Y-80280820D01*
X153805537Y-80170506D01*
X153726185Y-80073815D01*
X153629494Y-79994463D01*
X153519180Y-79935498D01*
X153399482Y-79899188D01*
X153275000Y-79886928D01*
X152685750Y-79890000D01*
X152527000Y-80048750D01*
X152273000Y-80048750D01*
X152114250Y-79890000D01*
X151525000Y-79886928D01*
X151400518Y-79899188D01*
X151280820Y-79935498D01*
X151170506Y-79994463D01*
X151073815Y-80073815D01*
X150994463Y-80170506D01*
X150935498Y-80280820D01*
X150899188Y-80400518D01*
X150886928Y-80525000D01*
X149948099Y-80525000D01*
X149897333Y-80520000D01*
X149897322Y-80520000D01*
X149860000Y-80516324D01*
X149822678Y-80520000D01*
X149658673Y-80520000D01*
X149648447Y-80486291D01*
X149566958Y-80333836D01*
X149457292Y-80200208D01*
X149323664Y-80090542D01*
X149171209Y-80009053D01*
X149005785Y-79958872D01*
X148833750Y-79941928D01*
X148346250Y-79941928D01*
X148174215Y-79958872D01*
X148008791Y-80009053D01*
X147856336Y-80090542D01*
X147722708Y-80200208D01*
X147652500Y-80285756D01*
X147582292Y-80200208D01*
X147448664Y-80090542D01*
X147296209Y-80009053D01*
X147130785Y-79958872D01*
X146958750Y-79941928D01*
X146471250Y-79941928D01*
X146299215Y-79958872D01*
X146133791Y-80009053D01*
X145981336Y-80090542D01*
X145847708Y-80200208D01*
X145738042Y-80333836D01*
X145656553Y-80486291D01*
X145646327Y-80520000D01*
X144817333Y-80520000D01*
X144780000Y-80516323D01*
X144742667Y-80520000D01*
X142038673Y-80520000D01*
X142028447Y-80486291D01*
X141946958Y-80333836D01*
X141837292Y-80200208D01*
X141703664Y-80090542D01*
X141551209Y-80009053D01*
X141385785Y-79958872D01*
X141213750Y-79941928D01*
X140726250Y-79941928D01*
X140554215Y-79958872D01*
X140388791Y-80009053D01*
X140236336Y-80090542D01*
X140102708Y-80200208D01*
X140032500Y-80285756D01*
X139962292Y-80200208D01*
X139828664Y-80090542D01*
X139676209Y-80009053D01*
X139510785Y-79958872D01*
X139338750Y-79941928D01*
X138851250Y-79941928D01*
X138679215Y-79958872D01*
X138513791Y-80009053D01*
X138361336Y-80090542D01*
X138227708Y-80200208D01*
X138118042Y-80333836D01*
X138036553Y-80486291D01*
X138026327Y-80520000D01*
X137529823Y-80520000D01*
X137492500Y-80516324D01*
X137455177Y-80520000D01*
X137455167Y-80520000D01*
X137343514Y-80530997D01*
X137200253Y-80574454D01*
X137068224Y-80645026D01*
X136952499Y-80739999D01*
X136928701Y-80768997D01*
X134744003Y-82953696D01*
X134714999Y-82977499D01*
X134674957Y-83026291D01*
X134620026Y-83093224D01*
X134554934Y-83215001D01*
X134549454Y-83225254D01*
X134505997Y-83368515D01*
X134495000Y-83480168D01*
X134495000Y-83480178D01*
X134491324Y-83517500D01*
X134495000Y-83554823D01*
X134495001Y-85904665D01*
X134429792Y-85825208D01*
X134296164Y-85715542D01*
X134143709Y-85634053D01*
X133978285Y-85583872D01*
X133806250Y-85566928D01*
X132893750Y-85566928D01*
X132721715Y-85583872D01*
X132556291Y-85634053D01*
X132403836Y-85715542D01*
X132270208Y-85825208D01*
X132160542Y-85958836D01*
X132079053Y-86111291D01*
X132028872Y-86276715D01*
X132011928Y-86448750D01*
X132011928Y-86873028D01*
X131931014Y-86880997D01*
X131787753Y-86924454D01*
X131655724Y-86995026D01*
X131539999Y-87089999D01*
X131445026Y-87205724D01*
X131374454Y-87337753D01*
X131330997Y-87481014D01*
X131318586Y-87607023D01*
X131225785Y-87578872D01*
X131053750Y-87561928D01*
X130566250Y-87561928D01*
X130394215Y-87578872D01*
X130228791Y-87629053D01*
X130076336Y-87710542D01*
X129942708Y-87820208D01*
X129872500Y-87905756D01*
X129802292Y-87820208D01*
X129668664Y-87710542D01*
X129516209Y-87629053D01*
X129350785Y-87578872D01*
X129178750Y-87561928D01*
X128691250Y-87561928D01*
X128519215Y-87578872D01*
X128353791Y-87629053D01*
X128201336Y-87710542D01*
X128067708Y-87820208D01*
X127958042Y-87953836D01*
X127876553Y-88106291D01*
X127866327Y-88140000D01*
X127760000Y-88140000D01*
X127760000Y-84580000D01*
X129502678Y-84580000D01*
X129540000Y-84583676D01*
X129577322Y-84580000D01*
X129577333Y-84580000D01*
X129688986Y-84569003D01*
X129832247Y-84525546D01*
X129964276Y-84454974D01*
X130080001Y-84360001D01*
X130103804Y-84330997D01*
X130548480Y-83886322D01*
X130566250Y-83888072D01*
X131053750Y-83888072D01*
X131225785Y-83871128D01*
X131391209Y-83820947D01*
X131543664Y-83739458D01*
X131677292Y-83629792D01*
X131682508Y-83623436D01*
X131746315Y-83701185D01*
X131843006Y-83780537D01*
X131953320Y-83839502D01*
X132073018Y-83875812D01*
X132197500Y-83888072D01*
X132399250Y-83885000D01*
X132558000Y-83726250D01*
X132558000Y-82677000D01*
X132812000Y-82677000D01*
X132812000Y-83726250D01*
X132970750Y-83885000D01*
X133172500Y-83888072D01*
X133296982Y-83875812D01*
X133416680Y-83839502D01*
X133526994Y-83780537D01*
X133623685Y-83701185D01*
X133703037Y-83604494D01*
X133762002Y-83494180D01*
X133798312Y-83374482D01*
X133810572Y-83250000D01*
X133807500Y-82835750D01*
X133648750Y-82677000D01*
X132812000Y-82677000D01*
X132558000Y-82677000D01*
X132538000Y-82677000D01*
X132538000Y-82423000D01*
X132558000Y-82423000D01*
X132558000Y-81373750D01*
X132399250Y-81215000D01*
X132197500Y-81211928D01*
X132073018Y-81224188D01*
X131953320Y-81260498D01*
X131843006Y-81319463D01*
X131746315Y-81398815D01*
X131682508Y-81476564D01*
X131677292Y-81470208D01*
X131558080Y-81372373D01*
X132160453Y-80770000D01*
X133715987Y-80770000D01*
X133702795Y-80789744D01*
X133624774Y-80978102D01*
X133585000Y-81178061D01*
X133585000Y-81367067D01*
X133526994Y-81319463D01*
X133416680Y-81260498D01*
X133296982Y-81224188D01*
X133172500Y-81211928D01*
X132970750Y-81215000D01*
X132812000Y-81373750D01*
X132812000Y-82423000D01*
X133648750Y-82423000D01*
X133807500Y-82264250D01*
X133809974Y-81930661D01*
X133816063Y-81939774D01*
X133960226Y-82083937D01*
X134129744Y-82197205D01*
X134318102Y-82275226D01*
X134518061Y-82315000D01*
X134721939Y-82315000D01*
X134921898Y-82275226D01*
X135110256Y-82197205D01*
X135279774Y-82083937D01*
X135423937Y-81939774D01*
X135537205Y-81770256D01*
X135615226Y-81581898D01*
X135655000Y-81381939D01*
X135655000Y-81178061D01*
X135615226Y-80978102D01*
X135537205Y-80789744D01*
X135423937Y-80620226D01*
X135380000Y-80576289D01*
X135380000Y-80047333D01*
X135383677Y-80010000D01*
X135369003Y-79861014D01*
X135325546Y-79717753D01*
X135254974Y-79585724D01*
X135160001Y-79469999D01*
X135044276Y-79375026D01*
X134912247Y-79304454D01*
X134768986Y-79260997D01*
X134657333Y-79250000D01*
X134620000Y-79246323D01*
X134582667Y-79250000D01*
X131882972Y-79250000D01*
X131845649Y-79246324D01*
X131808326Y-79250000D01*
X131808317Y-79250000D01*
X131696664Y-79260997D01*
X131553403Y-79304454D01*
X131421374Y-79375026D01*
X131421372Y-79375027D01*
X131421373Y-79375027D01*
X131334646Y-79446201D01*
X131334642Y-79446205D01*
X131305649Y-79469999D01*
X131281855Y-79498992D01*
X129215430Y-81565419D01*
X129137292Y-81470208D01*
X129003664Y-81360542D01*
X128851209Y-81279053D01*
X128685785Y-81228872D01*
X128513750Y-81211928D01*
X128026250Y-81211928D01*
X127854215Y-81228872D01*
X127688791Y-81279053D01*
X127536336Y-81360542D01*
X127402708Y-81470208D01*
X127332500Y-81555756D01*
X127262292Y-81470208D01*
X127128664Y-81360542D01*
X126976209Y-81279053D01*
X126810785Y-81228872D01*
X126638750Y-81211928D01*
X126151250Y-81211928D01*
X125979215Y-81228872D01*
X125813791Y-81279053D01*
X125661336Y-81360542D01*
X125527708Y-81470208D01*
X125418042Y-81603836D01*
X125336553Y-81756291D01*
X125286372Y-81921715D01*
X125269428Y-82093750D01*
X125269428Y-83006250D01*
X125286372Y-83178285D01*
X125336553Y-83343709D01*
X125418042Y-83496164D01*
X125527708Y-83629792D01*
X125661336Y-83739458D01*
X125813791Y-83820947D01*
X125979215Y-83871128D01*
X126151250Y-83888072D01*
X126240001Y-83888072D01*
X126240000Y-88862667D01*
X126236323Y-88900000D01*
X126240001Y-88937342D01*
X126240000Y-89730000D01*
X125442317Y-89730000D01*
X125422394Y-89700184D01*
X125249816Y-89527606D01*
X125046887Y-89392012D01*
X124821403Y-89298614D01*
X124582031Y-89251000D01*
X124337969Y-89251000D01*
X124098597Y-89298614D01*
X123873113Y-89392012D01*
X123670184Y-89527606D01*
X123497606Y-89700184D01*
X123362012Y-89903113D01*
X123268614Y-90128597D01*
X123221000Y-90367969D01*
X123221000Y-90612031D01*
X123268614Y-90851403D01*
X123362012Y-91076887D01*
X123497606Y-91279816D01*
X123657790Y-91440000D01*
X123497606Y-91600184D01*
X123362012Y-91803113D01*
X123268614Y-92028597D01*
X123221000Y-92267969D01*
X123221000Y-92512031D01*
X123268614Y-92751403D01*
X123362012Y-92976887D01*
X123497606Y-93179816D01*
X123670184Y-93352394D01*
X123873113Y-93487988D01*
X124098597Y-93581386D01*
X124337969Y-93629000D01*
X124582031Y-93629000D01*
X124821403Y-93581386D01*
X125046887Y-93487988D01*
X125073808Y-93470000D01*
X126820199Y-93470000D01*
X127251029Y-93900831D01*
X127269201Y-93992187D01*
X127338251Y-94158889D01*
X127438496Y-94308916D01*
X127566084Y-94436504D01*
X127716111Y-94536749D01*
X127882813Y-94605799D01*
X128059782Y-94641000D01*
X128240218Y-94641000D01*
X128417187Y-94605799D01*
X128583889Y-94536749D01*
X128661337Y-94485000D01*
X129401929Y-94485000D01*
X129439251Y-94488676D01*
X129476573Y-94485000D01*
X129476584Y-94485000D01*
X129588237Y-94474003D01*
X129731498Y-94430546D01*
X129863527Y-94359974D01*
X129979252Y-94265001D01*
X130003055Y-94235998D01*
X130038808Y-94200244D01*
X130112968Y-94311232D01*
X130251768Y-94450032D01*
X130414980Y-94559087D01*
X130596332Y-94634205D01*
X130788853Y-94672500D01*
X130985147Y-94672500D01*
X131177668Y-94634205D01*
X131359020Y-94559087D01*
X131522232Y-94450032D01*
X131536264Y-94436000D01*
X133008667Y-94436000D01*
X133046000Y-94439677D01*
X133083333Y-94436000D01*
X133194986Y-94425003D01*
X133338247Y-94381546D01*
X133470276Y-94310974D01*
X133586001Y-94216001D01*
X133680974Y-94100276D01*
X133751546Y-93968247D01*
X133795003Y-93824986D01*
X133799753Y-93776755D01*
X133806000Y-93713333D01*
X133806000Y-93713332D01*
X133809677Y-93676000D01*
X133806000Y-93638667D01*
X133806000Y-93328801D01*
X134934802Y-92200000D01*
X136386241Y-92200000D01*
X136240776Y-92260254D01*
X135922933Y-92472630D01*
X135652630Y-92742933D01*
X135440254Y-93060776D01*
X135293966Y-93413945D01*
X135219390Y-93788867D01*
X135219390Y-94171133D01*
X135293966Y-94546055D01*
X135440254Y-94899224D01*
X135589776Y-95123000D01*
X120777000Y-95123000D01*
X120777000Y-78867000D01*
X161163000Y-78867000D01*
X161163000Y-95123000D01*
G37*
X161163000Y-95123000D02*
X159707107Y-95123000D01*
X159903475Y-94926632D01*
X160065990Y-94683411D01*
X160177932Y-94413158D01*
X160235000Y-94126260D01*
X160235000Y-93833740D01*
X160177932Y-93546842D01*
X160065990Y-93276589D01*
X159903475Y-93033368D01*
X159696632Y-92826525D01*
X159522240Y-92710000D01*
X159696632Y-92593475D01*
X159903475Y-92386632D01*
X160065990Y-92143411D01*
X160177932Y-91873158D01*
X160235000Y-91586260D01*
X160235000Y-91293740D01*
X160177932Y-91006842D01*
X160065990Y-90736589D01*
X159903475Y-90493368D01*
X159696632Y-90286525D01*
X159522240Y-90170000D01*
X159696632Y-90053475D01*
X159903475Y-89846632D01*
X160065990Y-89603411D01*
X160177932Y-89333158D01*
X160235000Y-89046260D01*
X160235000Y-88753740D01*
X160177932Y-88466842D01*
X160065990Y-88196589D01*
X159903475Y-87953368D01*
X159696632Y-87746525D01*
X159522240Y-87630000D01*
X159696632Y-87513475D01*
X159903475Y-87306632D01*
X160065990Y-87063411D01*
X160177932Y-86793158D01*
X160235000Y-86506260D01*
X160235000Y-86213740D01*
X160177932Y-85926842D01*
X160065990Y-85656589D01*
X159903475Y-85413368D01*
X159696632Y-85206525D01*
X159522240Y-85090000D01*
X159696632Y-84973475D01*
X159903475Y-84766632D01*
X160065990Y-84523411D01*
X160177932Y-84253158D01*
X160235000Y-83966260D01*
X160235000Y-83673740D01*
X160177932Y-83386842D01*
X160065990Y-83116589D01*
X159903475Y-82873368D01*
X159696632Y-82666525D01*
X159522240Y-82550000D01*
X159696632Y-82433475D01*
X159903475Y-82226632D01*
X160065990Y-81983411D01*
X160177932Y-81713158D01*
X160235000Y-81426260D01*
X160235000Y-81133740D01*
X160177932Y-80846842D01*
X160065990Y-80576589D01*
X159903475Y-80333368D01*
X159696632Y-80126525D01*
X159453411Y-79964010D01*
X159183158Y-79852068D01*
X158896260Y-79795000D01*
X158603740Y-79795000D01*
X158316842Y-79852068D01*
X158046589Y-79964010D01*
X157803368Y-80126525D01*
X157671513Y-80258380D01*
X157649502Y-80185820D01*
X157590537Y-80075506D01*
X157511185Y-79978815D01*
X157414494Y-79899463D01*
X157304180Y-79840498D01*
X157184482Y-79804188D01*
X157060000Y-79791928D01*
X156495750Y-79795000D01*
X156337000Y-79953750D01*
X156337000Y-81153000D01*
X156357000Y-81153000D01*
X156357000Y-81407000D01*
X156337000Y-81407000D01*
X156337000Y-81427000D01*
X156083000Y-81427000D01*
X156083000Y-81407000D01*
X154883750Y-81407000D01*
X154725000Y-81565750D01*
X154724296Y-81695001D01*
X153912348Y-81695001D01*
X153910000Y-81435750D01*
X153751250Y-81277000D01*
X152527000Y-81277000D01*
X152527000Y-81297000D01*
X152273000Y-81297000D01*
X152273000Y-81277000D01*
X151048750Y-81277000D01*
X150990276Y-81335474D01*
X150423804Y-80769003D01*
X150400001Y-80739999D01*
X150284276Y-80645026D01*
X150152247Y-80574454D01*
X150008986Y-80530997D01*
X149948099Y-80525000D01*
X150886928Y-80525000D01*
X150890000Y-80864250D01*
X151048750Y-81023000D01*
X152273000Y-81023000D01*
X152273000Y-80048750D01*
X152527000Y-80048750D01*
X152527000Y-81023000D01*
X153751250Y-81023000D01*
X153910000Y-80864250D01*
X153913072Y-80525000D01*
X153903716Y-80430000D01*
X154721928Y-80430000D01*
X154725000Y-80994250D01*
X154883750Y-81153000D01*
X156083000Y-81153000D01*
X156083000Y-79953750D01*
X155924250Y-79795000D01*
X155360000Y-79791928D01*
X155235518Y-79804188D01*
X155115820Y-79840498D01*
X155005506Y-79899463D01*
X154908815Y-79978815D01*
X154829463Y-80075506D01*
X154770498Y-80185820D01*
X154734188Y-80305518D01*
X154721928Y-80430000D01*
X153903716Y-80430000D01*
X153900812Y-80400518D01*
X153864502Y-80280820D01*
X153805537Y-80170506D01*
X153726185Y-80073815D01*
X153629494Y-79994463D01*
X153519180Y-79935498D01*
X153399482Y-79899188D01*
X153275000Y-79886928D01*
X152685750Y-79890000D01*
X152527000Y-80048750D01*
X152273000Y-80048750D01*
X152114250Y-79890000D01*
X151525000Y-79886928D01*
X151400518Y-79899188D01*
X151280820Y-79935498D01*
X151170506Y-79994463D01*
X151073815Y-80073815D01*
X150994463Y-80170506D01*
X150935498Y-80280820D01*
X150899188Y-80400518D01*
X150886928Y-80525000D01*
X149948099Y-80525000D01*
X149897333Y-80520000D01*
X149897322Y-80520000D01*
X149860000Y-80516324D01*
X149822678Y-80520000D01*
X149658673Y-80520000D01*
X149648447Y-80486291D01*
X149566958Y-80333836D01*
X149457292Y-80200208D01*
X149323664Y-80090542D01*
X149171209Y-80009053D01*
X149005785Y-79958872D01*
X148833750Y-79941928D01*
X148346250Y-79941928D01*
X148174215Y-79958872D01*
X148008791Y-80009053D01*
X147856336Y-80090542D01*
X147722708Y-80200208D01*
X147652500Y-80285756D01*
X147582292Y-80200208D01*
X147448664Y-80090542D01*
X147296209Y-80009053D01*
X147130785Y-79958872D01*
X146958750Y-79941928D01*
X146471250Y-79941928D01*
X146299215Y-79958872D01*
X146133791Y-80009053D01*
X145981336Y-80090542D01*
X145847708Y-80200208D01*
X145738042Y-80333836D01*
X145656553Y-80486291D01*
X145646327Y-80520000D01*
X144817333Y-80520000D01*
X144780000Y-80516323D01*
X144742667Y-80520000D01*
X142038673Y-80520000D01*
X142028447Y-80486291D01*
X141946958Y-80333836D01*
X141837292Y-80200208D01*
X141703664Y-80090542D01*
X141551209Y-80009053D01*
X141385785Y-79958872D01*
X141213750Y-79941928D01*
X140726250Y-79941928D01*
X140554215Y-79958872D01*
X140388791Y-80009053D01*
X140236336Y-80090542D01*
X140102708Y-80200208D01*
X140032500Y-80285756D01*
X139962292Y-80200208D01*
X139828664Y-80090542D01*
X139676209Y-80009053D01*
X139510785Y-79958872D01*
X139338750Y-79941928D01*
X138851250Y-79941928D01*
X138679215Y-79958872D01*
X138513791Y-80009053D01*
X138361336Y-80090542D01*
X138227708Y-80200208D01*
X138118042Y-80333836D01*
X138036553Y-80486291D01*
X138026327Y-80520000D01*
X137529823Y-80520000D01*
X137492500Y-80516324D01*
X137455177Y-80520000D01*
X137455167Y-80520000D01*
X137343514Y-80530997D01*
X137200253Y-80574454D01*
X137068224Y-80645026D01*
X136952499Y-80739999D01*
X136928701Y-80768997D01*
X134744003Y-82953696D01*
X134714999Y-82977499D01*
X134674957Y-83026291D01*
X134620026Y-83093224D01*
X134554934Y-83215001D01*
X134549454Y-83225254D01*
X134505997Y-83368515D01*
X134495000Y-83480168D01*
X134495000Y-83480178D01*
X134491324Y-83517500D01*
X134495000Y-83554823D01*
X134495001Y-85904665D01*
X134429792Y-85825208D01*
X134296164Y-85715542D01*
X134143709Y-85634053D01*
X133978285Y-85583872D01*
X133806250Y-85566928D01*
X132893750Y-85566928D01*
X132721715Y-85583872D01*
X132556291Y-85634053D01*
X132403836Y-85715542D01*
X132270208Y-85825208D01*
X132160542Y-85958836D01*
X132079053Y-86111291D01*
X132028872Y-86276715D01*
X132011928Y-86448750D01*
X132011928Y-86873028D01*
X131931014Y-86880997D01*
X131787753Y-86924454D01*
X131655724Y-86995026D01*
X131539999Y-87089999D01*
X131445026Y-87205724D01*
X131374454Y-87337753D01*
X131330997Y-87481014D01*
X131318586Y-87607023D01*
X131225785Y-87578872D01*
X131053750Y-87561928D01*
X130566250Y-87561928D01*
X130394215Y-87578872D01*
X130228791Y-87629053D01*
X130076336Y-87710542D01*
X129942708Y-87820208D01*
X129872500Y-87905756D01*
X129802292Y-87820208D01*
X129668664Y-87710542D01*
X129516209Y-87629053D01*
X129350785Y-87578872D01*
X129178750Y-87561928D01*
X128691250Y-87561928D01*
X128519215Y-87578872D01*
X128353791Y-87629053D01*
X128201336Y-87710542D01*
X128067708Y-87820208D01*
X127958042Y-87953836D01*
X127876553Y-88106291D01*
X127866327Y-88140000D01*
X127760000Y-88140000D01*
X127760000Y-84580000D01*
X129502678Y-84580000D01*
X129540000Y-84583676D01*
X129577322Y-84580000D01*
X129577333Y-84580000D01*
X129688986Y-84569003D01*
X129832247Y-84525546D01*
X129964276Y-84454974D01*
X130080001Y-84360001D01*
X130103804Y-84330997D01*
X130548480Y-83886322D01*
X130566250Y-83888072D01*
X131053750Y-83888072D01*
X131225785Y-83871128D01*
X131391209Y-83820947D01*
X131543664Y-83739458D01*
X131677292Y-83629792D01*
X131682508Y-83623436D01*
X131746315Y-83701185D01*
X131843006Y-83780537D01*
X131953320Y-83839502D01*
X132073018Y-83875812D01*
X132197500Y-83888072D01*
X132399250Y-83885000D01*
X132558000Y-83726250D01*
X132558000Y-82677000D01*
X132812000Y-82677000D01*
X132812000Y-83726250D01*
X132970750Y-83885000D01*
X133172500Y-83888072D01*
X133296982Y-83875812D01*
X133416680Y-83839502D01*
X133526994Y-83780537D01*
X133623685Y-83701185D01*
X133703037Y-83604494D01*
X133762002Y-83494180D01*
X133798312Y-83374482D01*
X133810572Y-83250000D01*
X133807500Y-82835750D01*
X133648750Y-82677000D01*
X132812000Y-82677000D01*
X132558000Y-82677000D01*
X132538000Y-82677000D01*
X132538000Y-82423000D01*
X132558000Y-82423000D01*
X132558000Y-81373750D01*
X132399250Y-81215000D01*
X132197500Y-81211928D01*
X132073018Y-81224188D01*
X131953320Y-81260498D01*
X131843006Y-81319463D01*
X131746315Y-81398815D01*
X131682508Y-81476564D01*
X131677292Y-81470208D01*
X131558080Y-81372373D01*
X132160453Y-80770000D01*
X133715987Y-80770000D01*
X133702795Y-80789744D01*
X133624774Y-80978102D01*
X133585000Y-81178061D01*
X133585000Y-81367067D01*
X133526994Y-81319463D01*
X133416680Y-81260498D01*
X133296982Y-81224188D01*
X133172500Y-81211928D01*
X132970750Y-81215000D01*
X132812000Y-81373750D01*
X132812000Y-82423000D01*
X133648750Y-82423000D01*
X133807500Y-82264250D01*
X133809974Y-81930661D01*
X133816063Y-81939774D01*
X133960226Y-82083937D01*
X134129744Y-82197205D01*
X134318102Y-82275226D01*
X134518061Y-82315000D01*
X134721939Y-82315000D01*
X134921898Y-82275226D01*
X135110256Y-82197205D01*
X135279774Y-82083937D01*
X135423937Y-81939774D01*
X135537205Y-81770256D01*
X135615226Y-81581898D01*
X135655000Y-81381939D01*
X135655000Y-81178061D01*
X135615226Y-80978102D01*
X135537205Y-80789744D01*
X135423937Y-80620226D01*
X135380000Y-80576289D01*
X135380000Y-80047333D01*
X135383677Y-80010000D01*
X135369003Y-79861014D01*
X135325546Y-79717753D01*
X135254974Y-79585724D01*
X135160001Y-79469999D01*
X135044276Y-79375026D01*
X134912247Y-79304454D01*
X134768986Y-79260997D01*
X134657333Y-79250000D01*
X134620000Y-79246323D01*
X134582667Y-79250000D01*
X131882972Y-79250000D01*
X131845649Y-79246324D01*
X131808326Y-79250000D01*
X131808317Y-79250000D01*
X131696664Y-79260997D01*
X131553403Y-79304454D01*
X131421374Y-79375026D01*
X131421372Y-79375027D01*
X131421373Y-79375027D01*
X131334646Y-79446201D01*
X131334642Y-79446205D01*
X131305649Y-79469999D01*
X131281855Y-79498992D01*
X129215430Y-81565419D01*
X129137292Y-81470208D01*
X129003664Y-81360542D01*
X128851209Y-81279053D01*
X128685785Y-81228872D01*
X128513750Y-81211928D01*
X128026250Y-81211928D01*
X127854215Y-81228872D01*
X127688791Y-81279053D01*
X127536336Y-81360542D01*
X127402708Y-81470208D01*
X127332500Y-81555756D01*
X127262292Y-81470208D01*
X127128664Y-81360542D01*
X126976209Y-81279053D01*
X126810785Y-81228872D01*
X126638750Y-81211928D01*
X126151250Y-81211928D01*
X125979215Y-81228872D01*
X125813791Y-81279053D01*
X125661336Y-81360542D01*
X125527708Y-81470208D01*
X125418042Y-81603836D01*
X125336553Y-81756291D01*
X125286372Y-81921715D01*
X125269428Y-82093750D01*
X125269428Y-83006250D01*
X125286372Y-83178285D01*
X125336553Y-83343709D01*
X125418042Y-83496164D01*
X125527708Y-83629792D01*
X125661336Y-83739458D01*
X125813791Y-83820947D01*
X125979215Y-83871128D01*
X126151250Y-83888072D01*
X126240001Y-83888072D01*
X126240000Y-88862667D01*
X126236323Y-88900000D01*
X126240001Y-88937342D01*
X126240000Y-89730000D01*
X125442317Y-89730000D01*
X125422394Y-89700184D01*
X125249816Y-89527606D01*
X125046887Y-89392012D01*
X124821403Y-89298614D01*
X124582031Y-89251000D01*
X124337969Y-89251000D01*
X124098597Y-89298614D01*
X123873113Y-89392012D01*
X123670184Y-89527606D01*
X123497606Y-89700184D01*
X123362012Y-89903113D01*
X123268614Y-90128597D01*
X123221000Y-90367969D01*
X123221000Y-90612031D01*
X123268614Y-90851403D01*
X123362012Y-91076887D01*
X123497606Y-91279816D01*
X123657790Y-91440000D01*
X123497606Y-91600184D01*
X123362012Y-91803113D01*
X123268614Y-92028597D01*
X123221000Y-92267969D01*
X123221000Y-92512031D01*
X123268614Y-92751403D01*
X123362012Y-92976887D01*
X123497606Y-93179816D01*
X123670184Y-93352394D01*
X123873113Y-93487988D01*
X124098597Y-93581386D01*
X124337969Y-93629000D01*
X124582031Y-93629000D01*
X124821403Y-93581386D01*
X125046887Y-93487988D01*
X125073808Y-93470000D01*
X126820199Y-93470000D01*
X127251029Y-93900831D01*
X127269201Y-93992187D01*
X127338251Y-94158889D01*
X127438496Y-94308916D01*
X127566084Y-94436504D01*
X127716111Y-94536749D01*
X127882813Y-94605799D01*
X128059782Y-94641000D01*
X128240218Y-94641000D01*
X128417187Y-94605799D01*
X128583889Y-94536749D01*
X128661337Y-94485000D01*
X129401929Y-94485000D01*
X129439251Y-94488676D01*
X129476573Y-94485000D01*
X129476584Y-94485000D01*
X129588237Y-94474003D01*
X129731498Y-94430546D01*
X129863527Y-94359974D01*
X129979252Y-94265001D01*
X130003055Y-94235998D01*
X130038808Y-94200244D01*
X130112968Y-94311232D01*
X130251768Y-94450032D01*
X130414980Y-94559087D01*
X130596332Y-94634205D01*
X130788853Y-94672500D01*
X130985147Y-94672500D01*
X131177668Y-94634205D01*
X131359020Y-94559087D01*
X131522232Y-94450032D01*
X131536264Y-94436000D01*
X133008667Y-94436000D01*
X133046000Y-94439677D01*
X133083333Y-94436000D01*
X133194986Y-94425003D01*
X133338247Y-94381546D01*
X133470276Y-94310974D01*
X133586001Y-94216001D01*
X133680974Y-94100276D01*
X133751546Y-93968247D01*
X133795003Y-93824986D01*
X133799753Y-93776755D01*
X133806000Y-93713333D01*
X133806000Y-93713332D01*
X133809677Y-93676000D01*
X133806000Y-93638667D01*
X133806000Y-93328801D01*
X134934802Y-92200000D01*
X136386241Y-92200000D01*
X136240776Y-92260254D01*
X135922933Y-92472630D01*
X135652630Y-92742933D01*
X135440254Y-93060776D01*
X135293966Y-93413945D01*
X135219390Y-93788867D01*
X135219390Y-94171133D01*
X135293966Y-94546055D01*
X135440254Y-94899224D01*
X135589776Y-95123000D01*
X120777000Y-95123000D01*
X120777000Y-78867000D01*
X161163000Y-78867000D01*
X161163000Y-95123000D01*
G36*
X138036553Y-82073709D02*
G01*
X138118042Y-82226164D01*
X138227708Y-82359792D01*
X138361336Y-82469458D01*
X138513791Y-82550947D01*
X138679215Y-82601128D01*
X138851250Y-82618072D01*
X139338750Y-82618072D01*
X139510785Y-82601128D01*
X139676209Y-82550947D01*
X139828664Y-82469458D01*
X139962292Y-82359792D01*
X140032500Y-82274244D01*
X140102708Y-82359792D01*
X140236336Y-82469458D01*
X140388791Y-82550947D01*
X140554215Y-82601128D01*
X140726250Y-82618072D01*
X141213750Y-82618072D01*
X141385785Y-82601128D01*
X141551209Y-82550947D01*
X141703664Y-82469458D01*
X141837292Y-82359792D01*
X141946958Y-82226164D01*
X142028447Y-82073709D01*
X142038673Y-82040000D01*
X144020000Y-82040000D01*
X144020000Y-83782664D01*
X144016323Y-83820000D01*
X144020000Y-83857332D01*
X144020001Y-86322660D01*
X144016323Y-86360000D01*
X144020001Y-86397340D01*
X144020001Y-88140000D01*
X143788072Y-88140000D01*
X143788072Y-88115000D01*
X143772929Y-87961255D01*
X143728084Y-87813418D01*
X143656270Y-87679064D01*
X143680537Y-87649494D01*
X143739502Y-87539180D01*
X143775812Y-87419482D01*
X143788072Y-87295000D01*
X143785000Y-87280750D01*
X143626250Y-87122000D01*
X142302000Y-87122000D01*
X142302000Y-87142000D01*
X142048000Y-87142000D01*
X142048000Y-87122000D01*
X142028000Y-87122000D01*
X142028000Y-86868000D01*
X142048000Y-86868000D01*
X142048000Y-86848000D01*
X142302000Y-86848000D01*
X142302000Y-86868000D01*
X143626250Y-86868000D01*
X143785000Y-86709250D01*
X143788072Y-86695000D01*
X143775812Y-86570518D01*
X143739502Y-86450820D01*
X143680537Y-86340506D01*
X143656270Y-86310936D01*
X143728084Y-86176582D01*
X143772929Y-86028745D01*
X143788072Y-85875000D01*
X143788072Y-85575000D01*
X143772929Y-85421255D01*
X143728084Y-85273418D01*
X143655258Y-85137171D01*
X143557251Y-85017749D01*
X143437829Y-84919742D01*
X143301582Y-84846916D01*
X143153745Y-84802071D01*
X143000000Y-84786928D01*
X141350000Y-84786928D01*
X141196255Y-84802071D01*
X141048418Y-84846916D01*
X140912171Y-84919742D01*
X140792749Y-85017749D01*
X140694742Y-85137171D01*
X140621916Y-85273418D01*
X140577071Y-85421255D01*
X140570110Y-85491928D01*
X138829890Y-85491928D01*
X138822929Y-85421255D01*
X138778084Y-85273418D01*
X138705258Y-85137171D01*
X138607251Y-85017749D01*
X138487829Y-84919742D01*
X138351582Y-84846916D01*
X138203745Y-84802071D01*
X138050000Y-84786928D01*
X136400000Y-84786928D01*
X136246255Y-84802071D01*
X136098418Y-84846916D01*
X136015000Y-84891504D01*
X136015000Y-83832301D01*
X137807302Y-82040000D01*
X138026327Y-82040000D01*
X138036553Y-82073709D01*
G37*
X138036553Y-82073709D02*
X138118042Y-82226164D01*
X138227708Y-82359792D01*
X138361336Y-82469458D01*
X138513791Y-82550947D01*
X138679215Y-82601128D01*
X138851250Y-82618072D01*
X139338750Y-82618072D01*
X139510785Y-82601128D01*
X139676209Y-82550947D01*
X139828664Y-82469458D01*
X139962292Y-82359792D01*
X140032500Y-82274244D01*
X140102708Y-82359792D01*
X140236336Y-82469458D01*
X140388791Y-82550947D01*
X140554215Y-82601128D01*
X140726250Y-82618072D01*
X141213750Y-82618072D01*
X141385785Y-82601128D01*
X141551209Y-82550947D01*
X141703664Y-82469458D01*
X141837292Y-82359792D01*
X141946958Y-82226164D01*
X142028447Y-82073709D01*
X142038673Y-82040000D01*
X144020000Y-82040000D01*
X144020000Y-83782664D01*
X144016323Y-83820000D01*
X144020000Y-83857332D01*
X144020001Y-86322660D01*
X144016323Y-86360000D01*
X144020001Y-86397340D01*
X144020001Y-88140000D01*
X143788072Y-88140000D01*
X143788072Y-88115000D01*
X143772929Y-87961255D01*
X143728084Y-87813418D01*
X143656270Y-87679064D01*
X143680537Y-87649494D01*
X143739502Y-87539180D01*
X143775812Y-87419482D01*
X143788072Y-87295000D01*
X143785000Y-87280750D01*
X143626250Y-87122000D01*
X142302000Y-87122000D01*
X142302000Y-87142000D01*
X142048000Y-87142000D01*
X142048000Y-87122000D01*
X142028000Y-87122000D01*
X142028000Y-86868000D01*
X142048000Y-86868000D01*
X142048000Y-86848000D01*
X142302000Y-86848000D01*
X142302000Y-86868000D01*
X143626250Y-86868000D01*
X143785000Y-86709250D01*
X143788072Y-86695000D01*
X143775812Y-86570518D01*
X143739502Y-86450820D01*
X143680537Y-86340506D01*
X143656270Y-86310936D01*
X143728084Y-86176582D01*
X143772929Y-86028745D01*
X143788072Y-85875000D01*
X143788072Y-85575000D01*
X143772929Y-85421255D01*
X143728084Y-85273418D01*
X143655258Y-85137171D01*
X143557251Y-85017749D01*
X143437829Y-84919742D01*
X143301582Y-84846916D01*
X143153745Y-84802071D01*
X143000000Y-84786928D01*
X141350000Y-84786928D01*
X141196255Y-84802071D01*
X141048418Y-84846916D01*
X140912171Y-84919742D01*
X140792749Y-85017749D01*
X140694742Y-85137171D01*
X140621916Y-85273418D01*
X140577071Y-85421255D01*
X140570110Y-85491928D01*
X138829890Y-85491928D01*
X138822929Y-85421255D01*
X138778084Y-85273418D01*
X138705258Y-85137171D01*
X138607251Y-85017749D01*
X138487829Y-84919742D01*
X138351582Y-84846916D01*
X138203745Y-84802071D01*
X138050000Y-84786928D01*
X136400000Y-84786928D01*
X136246255Y-84802071D01*
X136098418Y-84846916D01*
X136015000Y-84891504D01*
X136015000Y-83832301D01*
X137807302Y-82040000D01*
X138026327Y-82040000D01*
X138036553Y-82073709D01*
G36*
X154813175Y-83315901D02*
G01*
X154768524Y-83463110D01*
X154889845Y-83693000D01*
X156083000Y-83693000D01*
X156083000Y-83673000D01*
X156337000Y-83673000D01*
X156337000Y-83693000D01*
X156357000Y-83693000D01*
X156357000Y-83947000D01*
X156337000Y-83947000D01*
X156337000Y-86233000D01*
X156357000Y-86233000D01*
X156357000Y-86487000D01*
X156337000Y-86487000D01*
X156337000Y-86507000D01*
X156083000Y-86507000D01*
X156083000Y-86487000D01*
X154889845Y-86487000D01*
X154768524Y-86716890D01*
X154786150Y-86775001D01*
X153348377Y-86775001D01*
X153395226Y-86661898D01*
X153435000Y-86461939D01*
X153435000Y-86258061D01*
X153395226Y-86058102D01*
X153317205Y-85869744D01*
X153203937Y-85700226D01*
X153160000Y-85656289D01*
X153160000Y-85199776D01*
X153198254Y-85196008D01*
X153364850Y-85145472D01*
X153518386Y-85063405D01*
X153652962Y-84952962D01*
X153763405Y-84818386D01*
X153845472Y-84664850D01*
X153896008Y-84498254D01*
X153913072Y-84325000D01*
X153913072Y-84176890D01*
X154768524Y-84176890D01*
X154813175Y-84324099D01*
X154938359Y-84586920D01*
X155112412Y-84820269D01*
X155328645Y-85015178D01*
X155454255Y-85090000D01*
X155328645Y-85164822D01*
X155112412Y-85359731D01*
X154938359Y-85593080D01*
X154813175Y-85855901D01*
X154768524Y-86003110D01*
X154889845Y-86233000D01*
X156083000Y-86233000D01*
X156083000Y-83947000D01*
X154889845Y-83947000D01*
X154768524Y-84176890D01*
X153913072Y-84176890D01*
X153913072Y-83575000D01*
X153896008Y-83401746D01*
X153845472Y-83235150D01*
X153834702Y-83215001D01*
X154861235Y-83215001D01*
X154813175Y-83315901D01*
G37*
X154813175Y-83315901D02*
X154768524Y-83463110D01*
X154889845Y-83693000D01*
X156083000Y-83693000D01*
X156083000Y-83673000D01*
X156337000Y-83673000D01*
X156337000Y-83693000D01*
X156357000Y-83693000D01*
X156357000Y-83947000D01*
X156337000Y-83947000D01*
X156337000Y-86233000D01*
X156357000Y-86233000D01*
X156357000Y-86487000D01*
X156337000Y-86487000D01*
X156337000Y-86507000D01*
X156083000Y-86507000D01*
X156083000Y-86487000D01*
X154889845Y-86487000D01*
X154768524Y-86716890D01*
X154786150Y-86775001D01*
X153348377Y-86775001D01*
X153395226Y-86661898D01*
X153435000Y-86461939D01*
X153435000Y-86258061D01*
X153395226Y-86058102D01*
X153317205Y-85869744D01*
X153203937Y-85700226D01*
X153160000Y-85656289D01*
X153160000Y-85199776D01*
X153198254Y-85196008D01*
X153364850Y-85145472D01*
X153518386Y-85063405D01*
X153652962Y-84952962D01*
X153763405Y-84818386D01*
X153845472Y-84664850D01*
X153896008Y-84498254D01*
X153913072Y-84325000D01*
X153913072Y-84176890D01*
X154768524Y-84176890D01*
X154813175Y-84324099D01*
X154938359Y-84586920D01*
X155112412Y-84820269D01*
X155328645Y-85015178D01*
X155454255Y-85090000D01*
X155328645Y-85164822D01*
X155112412Y-85359731D01*
X154938359Y-85593080D01*
X154813175Y-85855901D01*
X154768524Y-86003110D01*
X154889845Y-86233000D01*
X156083000Y-86233000D01*
X156083000Y-83947000D01*
X154889845Y-83947000D01*
X154768524Y-84176890D01*
X153913072Y-84176890D01*
X153913072Y-83575000D01*
X153896008Y-83401746D01*
X153845472Y-83235150D01*
X153834702Y-83215001D01*
X154861235Y-83215001D01*
X154813175Y-83315901D01*
M02*
