  0
SECTION
  2
HEADER
  9
$ANGBASE
  50
0.0
  9
$ANGDIR
  70
1
  9
$MEASUREMENT
  70
0
  0
ENDSEC
  0
SECTION
  2
TABLES
  0
TABLE
  2
LTYPE
  70
4
  0
LTYPE
  5
40F
  2
CONTINUOUS
  70
0
  3
Solid line
  72
65
  73
0
  40
0.0
  0
LTYPE
  5
410
  2
DASHDOT
 70
0
  3
Dash Dot ____ _ ____ _
 72
65
 73
4
 40
2.0
 49
1.25
 49
-0.25
 49
0.25
 49
-0.25
  0
LTYPE
  5
411
  2
DASHED
 70
0
  3
Dashed __ __ __ __ __
 72
65
 73
2
 40
0.75
 49
0.5
 49
-0.25
  0
LTYPE
  5
43B
  2
DOTTED
 70
0
  3
Dotted .  .  .  .
 72
65
 73
2
 40
0.2
 49
0.0
 49
-0.2
  0
ENDTAB
  0
TABLE
  2
STYLE
  70
4
  0
STYLE
  2
KICAD
  70
0
  40
0
  41
1
  42
1
  50
0
  71
0
  3
isocp.shx
  0
STYLE
  2
KICADB
  70
0
  40
0
  41
1
  42
1
  50
0
  71
0
  3
isocp.shx
  0
STYLE
  2
KICADI
  70
0
  40
0
  41
1
  42
1
  50
15
  71
0
  3
isocp.shx
  0
STYLE
  2
KICADBI
  70
0
  40
0
  41
1
  42
1
  50
15
  71
0
  3
isocp.shx
  0
ENDTAB
  0
TABLE
  2
LAYER
  70
1
  0
LAYER
  2
BLACK
  70
0
  62
7
  6
CONTINUOUS
  0
ENDTAB
  0
ENDSEC
  0
SECTION
  2
ENTITIES
0
LINE
8
BLACK
6
CONTINUOUS
10
6.50099
20
-3.95
11
6.50097
21
-3.95019
0
LINE
8
BLACK
6
CONTINUOUS
10
6.50097
20
-3.95019
11
6.50091
21
-3.95038
0
LINE
8
BLACK
6
CONTINUOUS
10
6.50091
20
-3.95038
11
6.50082
21
-3.95055
0
LINE
8
BLACK
6
CONTINUOUS
10
6.50082
20
-3.95055
11
6.5007
21
-3.9507
0
LINE
8
BLACK
6
CONTINUOUS
10
6.5007
20
-3.9507
11
6.50055
21
-3.95082
0
LINE
8
BLACK
6
CONTINUOUS
10
6.50055
20
-3.95082
11
6.50038
21
-3.95091
0
LINE
8
BLACK
6
CONTINUOUS
10
6.50038
20
-3.95091
11
6.50019
21
-3.95097
0
LINE
8
BLACK
6
CONTINUOUS
10
6.50019
20
-3.95097
11
6.50005
21
-3.95098
0
LINE
8
BLACK
6
CONTINUOUS
10
6.50005
20
-3.95098
11
6.50005
21
-3.95098
0
LINE
8
BLACK
6
CONTINUOUS
10
6.50005
20
-3.95098
11
6.5
21
-3.95099
0
LINE
8
BLACK
6
CONTINUOUS
10
6.5
20
-3.95099
11
6.49995
21
-3.95098
0
LINE
8
BLACK
6
CONTINUOUS
10
6.49995
20
-3.95098
11
4.70005
21
-3.95098
0
LINE
8
BLACK
6
CONTINUOUS
10
4.70005
20
-3.95098
11
4.7
21
-3.95099
0
LINE
8
BLACK
6
CONTINUOUS
10
4.7
20
-3.95099
11
4.69995
21
-3.95098
0
LINE
8
BLACK
6
CONTINUOUS
10
4.69995
20
-3.95098
11
4.69995
21
-3.95098
0
LINE
8
BLACK
6
CONTINUOUS
10
4.69995
20
-3.95098
11
4.69981
21
-3.95097
0
LINE
8
BLACK
6
CONTINUOUS
10
4.69981
20
-3.95097
11
4.69962
21
-3.95091
0
LINE
8
BLACK
6
CONTINUOUS
10
4.69962
20
-3.95091
11
4.69945
21
-3.95082
0
LINE
8
BLACK
6
CONTINUOUS
10
4.69945
20
-3.95082
11
4.6993
21
-3.9507
0
LINE
8
BLACK
6
CONTINUOUS
10
4.6993
20
-3.9507
11
4.69918
21
-3.95055
0
LINE
8
BLACK
6
CONTINUOUS
10
4.69918
20
-3.95055
11
4.69909
21
-3.95038
0
LINE
8
BLACK
6
CONTINUOUS
10
4.69909
20
-3.95038
11
4.69903
21
-3.95019
0
LINE
8
BLACK
6
CONTINUOUS
10
4.69903
20
-3.95019
11
4.69901
21
-3.95
0
LINE
8
BLACK
6
CONTINUOUS
10
4.69901
20
-3.95
11
4.69902
21
-3.94995
0
LINE
8
BLACK
6
CONTINUOUS
10
4.69902
20
-3.94995
11
4.69902
21
-3.79995
0
LINE
8
BLACK
6
CONTINUOUS
10
4.69902
20
-3.79995
11
4.69902
21
-3.79995
0
LINE
8
BLACK
6
CONTINUOUS
10
4.69902
20
-3.79995
11
4.69902
21
-3.05005
0
LINE
8
BLACK
6
CONTINUOUS
10
4.69902
20
-3.05005
11
4.69901
21
-3.05
0
LINE
8
BLACK
6
CONTINUOUS
10
4.69901
20
-3.05
11
4.69903
21
-3.04981
0
LINE
8
BLACK
6
CONTINUOUS
10
4.69903
20
-3.04981
11
4.69909
21
-3.04962
0
LINE
8
BLACK
6
CONTINUOUS
10
4.69909
20
-3.04962
11
4.69918
21
-3.04945
0
LINE
8
BLACK
6
CONTINUOUS
10
4.69918
20
-3.04945
11
4.6993
21
-3.0493
0
LINE
8
BLACK
6
CONTINUOUS
10
4.6993
20
-3.0493
11
4.69945
21
-3.04918
0
LINE
8
BLACK
6
CONTINUOUS
10
4.69945
20
-3.04918
11
4.69962
21
-3.04909
0
LINE
8
BLACK
6
CONTINUOUS
10
4.69962
20
-3.04909
11
4.69981
21
-3.04903
0
LINE
8
BLACK
6
CONTINUOUS
10
4.69981
20
-3.04903
11
4.69995
21
-3.04902
0
LINE
8
BLACK
6
CONTINUOUS
10
4.69995
20
-3.04902
11
4.69995
21
-3.04902
0
LINE
8
BLACK
6
CONTINUOUS
10
4.69995
20
-3.04902
11
4.7
21
-3.04901
0
LINE
8
BLACK
6
CONTINUOUS
10
4.7
20
-3.04901
11
4.70005
21
-3.04902
0
LINE
8
BLACK
6
CONTINUOUS
10
4.70005
20
-3.04902
11
6.49995
21
-3.04902
0
LINE
8
BLACK
6
CONTINUOUS
10
6.49995
20
-3.04902
11
6.5
21
-3.04901
0
LINE
8
BLACK
6
CONTINUOUS
10
6.5
20
-3.04901
11
6.50005
21
-3.04902
0
LINE
8
BLACK
6
CONTINUOUS
10
6.50005
20
-3.04902
11
6.50005
21
-3.04902
0
LINE
8
BLACK
6
CONTINUOUS
10
6.50005
20
-3.04902
11
6.50019
21
-3.04903
0
LINE
8
BLACK
6
CONTINUOUS
10
6.50019
20
-3.04903
11
6.50038
21
-3.04909
0
LINE
8
BLACK
6
CONTINUOUS
10
6.50038
20
-3.04909
11
6.50055
21
-3.04918
0
LINE
8
BLACK
6
CONTINUOUS
10
6.50055
20
-3.04918
11
6.5007
21
-3.0493
0
LINE
8
BLACK
6
CONTINUOUS
10
6.5007
20
-3.0493
11
6.50082
21
-3.04945
0
LINE
8
BLACK
6
CONTINUOUS
10
6.50082
20
-3.04945
11
6.50091
21
-3.04962
0
LINE
8
BLACK
6
CONTINUOUS
10
6.50091
20
-3.04962
11
6.50097
21
-3.04981
0
LINE
8
BLACK
6
CONTINUOUS
10
6.50097
20
-3.04981
11
6.50099
21
-3.05
0
LINE
8
BLACK
6
CONTINUOUS
10
6.50099
20
-3.05
11
6.50098
21
-3.05005
0
LINE
8
BLACK
6
CONTINUOUS
10
6.50098
20
-3.05005
11
6.50098
21
-3.94995
0
LINE
8
BLACK
6
CONTINUOUS
10
6.50098
20
-3.94995
11
6.50099
21
-3.95
0
LINE
8
BLACK
6
CONTINUOUS
10
4.70098
20
-3.94902
11
6.49902
21
-3.94902
0
LINE
8
BLACK
6
CONTINUOUS
10
6.49902
20
-3.94902
11
6.49902
21
-3.79995
0
LINE
8
BLACK
6
CONTINUOUS
10
6.49902
20
-3.79995
11
6.49902
21
-3.05098
0
LINE
8
BLACK
6
CONTINUOUS
10
6.49902
20
-3.05098
11
4.70098
21
-3.05098
0
LINE
8
BLACK
6
CONTINUOUS
10
4.70098
20
-3.05098
11
4.70098
21
-3.94902
0
LINE
8
BLACK
6
CONTINUOUS
10
5.23969
20
-3.78171
11
5.24442
21
-3.77029
0
LINE
8
BLACK
6
CONTINUOUS
10
5.24442
20
-3.77029
11
5.25128
21
-3.76002
0
LINE
8
BLACK
6
CONTINUOUS
10
5.25128
20
-3.76002
11
5.26002
21
-3.75128
0
LINE
8
BLACK
6
CONTINUOUS
10
5.26002
20
-3.75128
11
5.27029
21
-3.74442
0
LINE
8
BLACK
6
CONTINUOUS
10
5.27029
20
-3.74442
11
5.28171
21
-3.73969
0
LINE
8
BLACK
6
CONTINUOUS
10
5.28171
20
-3.73969
11
5.29382
21
-3.73728
0
LINE
8
BLACK
6
CONTINUOUS
10
5.29382
20
-3.73728
11
5.30618
21
-3.73728
0
LINE
8
BLACK
6
CONTINUOUS
10
5.30618
20
-3.73728
11
5.31829
21
-3.73969
0
LINE
8
BLACK
6
CONTINUOUS
10
5.31829
20
-3.73969
11
5.32971
21
-3.74442
0
LINE
8
BLACK
6
CONTINUOUS
10
5.32971
20
-3.74442
11
5.33998
21
-3.75128
0
LINE
8
BLACK
6
CONTINUOUS
10
5.33998
20
-3.75128
11
5.34872
21
-3.76002
0
LINE
8
BLACK
6
CONTINUOUS
10
5.34872
20
-3.76002
11
5.35558
21
-3.77029
0
LINE
8
BLACK
6
CONTINUOUS
10
5.35558
20
-3.77029
11
5.36031
21
-3.78171
0
LINE
8
BLACK
6
CONTINUOUS
10
5.36031
20
-3.78171
11
5.36272
21
-3.79382
0
LINE
8
BLACK
6
CONTINUOUS
10
5.36272
20
-3.79382
11
5.36272
21
-3.80618
0
LINE
8
BLACK
6
CONTINUOUS
10
5.36272
20
-3.80618
11
5.36031
21
-3.81829
0
LINE
8
BLACK
6
CONTINUOUS
10
5.36031
20
-3.81829
11
5.35558
21
-3.82971
0
LINE
8
BLACK
6
CONTINUOUS
10
5.35558
20
-3.82971
11
5.34872
21
-3.83998
0
LINE
8
BLACK
6
CONTINUOUS
10
5.34872
20
-3.83998
11
5.33998
21
-3.84872
0
LINE
8
BLACK
6
CONTINUOUS
10
5.33998
20
-3.84872
11
5.32971
21
-3.85558
0
LINE
8
BLACK
6
CONTINUOUS
10
5.32971
20
-3.85558
11
5.31829
21
-3.86031
0
LINE
8
BLACK
6
CONTINUOUS
10
5.31829
20
-3.86031
11
5.30618
21
-3.86272
0
LINE
8
BLACK
6
CONTINUOUS
10
5.30618
20
-3.86272
11
5.29382
21
-3.86272
0
LINE
8
BLACK
6
CONTINUOUS
10
5.29382
20
-3.86272
11
5.28171
21
-3.86031
0
LINE
8
BLACK
6
CONTINUOUS
10
5.28171
20
-3.86031
11
5.27029
21
-3.85558
0
LINE
8
BLACK
6
CONTINUOUS
10
5.27029
20
-3.85558
11
5.26002
21
-3.84872
0
LINE
8
BLACK
6
CONTINUOUS
10
5.26002
20
-3.84872
11
5.25128
21
-3.83998
0
LINE
8
BLACK
6
CONTINUOUS
10
5.25128
20
-3.83998
11
5.24442
21
-3.82971
0
LINE
8
BLACK
6
CONTINUOUS
10
5.24442
20
-3.82971
11
5.23969
21
-3.81829
0
LINE
8
BLACK
6
CONTINUOUS
10
5.23969
20
-3.81829
11
5.23728
21
-3.80618
0
LINE
8
BLACK
6
CONTINUOUS
10
5.23728
20
-3.80618
11
5.23728
21
-3.79382
0
LINE
8
BLACK
6
CONTINUOUS
10
5.23728
20
-3.79382
11
5.23969
21
-3.78171
0
LINE
8
BLACK
6
CONTINUOUS
10
5.24233
20
-3.81749
11
5.24685
21
-3.82841
0
LINE
8
BLACK
6
CONTINUOUS
10
5.24685
20
-3.82841
11
5.25341
21
-3.83823
0
LINE
8
BLACK
6
CONTINUOUS
10
5.25341
20
-3.83823
11
5.26177
21
-3.84659
0
LINE
8
BLACK
6
CONTINUOUS
10
5.26177
20
-3.84659
11
5.27159
21
-3.85315
0
LINE
8
BLACK
6
CONTINUOUS
10
5.27159
20
-3.85315
11
5.28251
21
-3.85767
0
LINE
8
BLACK
6
CONTINUOUS
10
5.28251
20
-3.85767
11
5.29409
21
-3.85998
0
LINE
8
BLACK
6
CONTINUOUS
10
5.29409
20
-3.85998
11
5.30591
21
-3.85998
0
LINE
8
BLACK
6
CONTINUOUS
10
5.30591
20
-3.85998
11
5.31749
21
-3.85767
0
LINE
8
BLACK
6
CONTINUOUS
10
5.31749
20
-3.85767
11
5.32841
21
-3.85315
0
LINE
8
BLACK
6
CONTINUOUS
10
5.32841
20
-3.85315
11
5.33823
21
-3.84659
0
LINE
8
BLACK
6
CONTINUOUS
10
5.33823
20
-3.84659
11
5.34659
21
-3.83823
0
LINE
8
BLACK
6
CONTINUOUS
10
5.34659
20
-3.83823
11
5.35315
21
-3.82841
0
LINE
8
BLACK
6
CONTINUOUS
10
5.35315
20
-3.82841
11
5.35767
21
-3.81749
0
LINE
8
BLACK
6
CONTINUOUS
10
5.35767
20
-3.81749
11
5.35998
21
-3.80591
0
LINE
8
BLACK
6
CONTINUOUS
10
5.35998
20
-3.80591
11
5.35998
21
-3.79409
0
LINE
8
BLACK
6
CONTINUOUS
10
5.35998
20
-3.79409
11
5.35767
21
-3.78251
0
LINE
8
BLACK
6
CONTINUOUS
10
5.35767
20
-3.78251
11
5.35315
21
-3.77159
0
LINE
8
BLACK
6
CONTINUOUS
10
5.35315
20
-3.77159
11
5.34659
21
-3.76177
0
LINE
8
BLACK
6
CONTINUOUS
10
5.34659
20
-3.76177
11
5.33823
21
-3.75341
0
LINE
8
BLACK
6
CONTINUOUS
10
5.33823
20
-3.75341
11
5.32841
21
-3.74685
0
LINE
8
BLACK
6
CONTINUOUS
10
5.32841
20
-3.74685
11
5.31749
21
-3.74233
0
LINE
8
BLACK
6
CONTINUOUS
10
5.31749
20
-3.74233
11
5.30591
21
-3.74002
0
LINE
8
BLACK
6
CONTINUOUS
10
5.30591
20
-3.74002
11
5.29409
21
-3.74002
0
LINE
8
BLACK
6
CONTINUOUS
10
5.29409
20
-3.74002
11
5.28251
21
-3.74233
0
LINE
8
BLACK
6
CONTINUOUS
10
5.28251
20
-3.74233
11
5.27159
21
-3.74685
0
LINE
8
BLACK
6
CONTINUOUS
10
5.27159
20
-3.74685
11
5.26177
21
-3.75341
0
LINE
8
BLACK
6
CONTINUOUS
10
5.26177
20
-3.75341
11
5.25341
21
-3.76177
0
LINE
8
BLACK
6
CONTINUOUS
10
5.25341
20
-3.76177
11
5.24685
21
-3.77159
0
LINE
8
BLACK
6
CONTINUOUS
10
5.24685
20
-3.77159
11
5.24233
21
-3.78251
0
LINE
8
BLACK
6
CONTINUOUS
10
5.24233
20
-3.78251
11
5.24002
21
-3.79409
0
LINE
8
BLACK
6
CONTINUOUS
10
5.24002
20
-3.79409
11
5.24002
21
-3.80591
0
LINE
8
BLACK
6
CONTINUOUS
10
5.24002
20
-3.80591
11
5.24233
21
-3.81749
0
LINE
8
BLACK
6
CONTINUOUS
10
5.78969
20
-3.78171
11
5.79442
21
-3.77029
0
LINE
8
BLACK
6
CONTINUOUS
10
5.79442
20
-3.77029
11
5.80128
21
-3.76002
0
LINE
8
BLACK
6
CONTINUOUS
10
5.80128
20
-3.76002
11
5.81002
21
-3.75128
0
LINE
8
BLACK
6
CONTINUOUS
10
5.81002
20
-3.75128
11
5.82029
21
-3.74442
0
LINE
8
BLACK
6
CONTINUOUS
10
5.82029
20
-3.74442
11
5.83171
21
-3.73969
0
LINE
8
BLACK
6
CONTINUOUS
10
5.83171
20
-3.73969
11
5.84382
21
-3.73728
0
LINE
8
BLACK
6
CONTINUOUS
10
5.84382
20
-3.73728
11
5.85618
21
-3.73728
0
LINE
8
BLACK
6
CONTINUOUS
10
5.85618
20
-3.73728
11
5.86829
21
-3.73969
0
LINE
8
BLACK
6
CONTINUOUS
10
5.86829
20
-3.73969
11
5.87971
21
-3.74442
0
LINE
8
BLACK
6
CONTINUOUS
10
5.87971
20
-3.74442
11
5.88998
21
-3.75128
0
LINE
8
BLACK
6
CONTINUOUS
10
5.88998
20
-3.75128
11
5.89872
21
-3.76002
0
LINE
8
BLACK
6
CONTINUOUS
10
5.89872
20
-3.76002
11
5.90558
21
-3.77029
0
LINE
8
BLACK
6
CONTINUOUS
10
5.90558
20
-3.77029
11
5.91031
21
-3.78171
0
LINE
8
BLACK
6
CONTINUOUS
10
5.91031
20
-3.78171
11
5.91272
21
-3.79382
0
LINE
8
BLACK
6
CONTINUOUS
10
5.91272
20
-3.79382
11
5.91272
21
-3.80618
0
LINE
8
BLACK
6
CONTINUOUS
10
5.91272
20
-3.80618
11
5.91031
21
-3.81829
0
LINE
8
BLACK
6
CONTINUOUS
10
5.91031
20
-3.81829
11
5.90558
21
-3.82971
0
LINE
8
BLACK
6
CONTINUOUS
10
5.90558
20
-3.82971
11
5.89872
21
-3.83998
0
LINE
8
BLACK
6
CONTINUOUS
10
5.89872
20
-3.83998
11
5.88998
21
-3.84872
0
LINE
8
BLACK
6
CONTINUOUS
10
5.88998
20
-3.84872
11
5.87971
21
-3.85558
0
LINE
8
BLACK
6
CONTINUOUS
10
5.87971
20
-3.85558
11
5.86829
21
-3.86031
0
LINE
8
BLACK
6
CONTINUOUS
10
5.86829
20
-3.86031
11
5.85618
21
-3.86272
0
LINE
8
BLACK
6
CONTINUOUS
10
5.85618
20
-3.86272
11
5.84382
21
-3.86272
0
LINE
8
BLACK
6
CONTINUOUS
10
5.84382
20
-3.86272
11
5.83171
21
-3.86031
0
LINE
8
BLACK
6
CONTINUOUS
10
5.83171
20
-3.86031
11
5.82029
21
-3.85558
0
LINE
8
BLACK
6
CONTINUOUS
10
5.82029
20
-3.85558
11
5.81002
21
-3.84872
0
LINE
8
BLACK
6
CONTINUOUS
10
5.81002
20
-3.84872
11
5.80128
21
-3.83998
0
LINE
8
BLACK
6
CONTINUOUS
10
5.80128
20
-3.83998
11
5.79442
21
-3.82971
0
LINE
8
BLACK
6
CONTINUOUS
10
5.79442
20
-3.82971
11
5.78969
21
-3.81829
0
LINE
8
BLACK
6
CONTINUOUS
10
5.78969
20
-3.81829
11
5.78728
21
-3.80618
0
LINE
8
BLACK
6
CONTINUOUS
10
5.78728
20
-3.80618
11
5.78728
21
-3.79382
0
LINE
8
BLACK
6
CONTINUOUS
10
5.78728
20
-3.79382
11
5.78969
21
-3.78171
0
LINE
8
BLACK
6
CONTINUOUS
10
5.79233
20
-3.81749
11
5.79685
21
-3.82841
0
LINE
8
BLACK
6
CONTINUOUS
10
5.79685
20
-3.82841
11
5.80341
21
-3.83823
0
LINE
8
BLACK
6
CONTINUOUS
10
5.80341
20
-3.83823
11
5.81177
21
-3.84659
0
LINE
8
BLACK
6
CONTINUOUS
10
5.81177
20
-3.84659
11
5.82159
21
-3.85315
0
LINE
8
BLACK
6
CONTINUOUS
10
5.82159
20
-3.85315
11
5.83251
21
-3.85767
0
LINE
8
BLACK
6
CONTINUOUS
10
5.83251
20
-3.85767
11
5.84409
21
-3.85998
0
LINE
8
BLACK
6
CONTINUOUS
10
5.84409
20
-3.85998
11
5.85591
21
-3.85998
0
LINE
8
BLACK
6
CONTINUOUS
10
5.85591
20
-3.85998
11
5.86749
21
-3.85767
0
LINE
8
BLACK
6
CONTINUOUS
10
5.86749
20
-3.85767
11
5.87841
21
-3.85315
0
LINE
8
BLACK
6
CONTINUOUS
10
5.87841
20
-3.85315
11
5.88823
21
-3.84659
0
LINE
8
BLACK
6
CONTINUOUS
10
5.88823
20
-3.84659
11
5.89659
21
-3.83823
0
LINE
8
BLACK
6
CONTINUOUS
10
5.89659
20
-3.83823
11
5.90315
21
-3.82841
0
LINE
8
BLACK
6
CONTINUOUS
10
5.90315
20
-3.82841
11
5.90767
21
-3.81749
0
LINE
8
BLACK
6
CONTINUOUS
10
5.90767
20
-3.81749
11
5.90998
21
-3.80591
0
LINE
8
BLACK
6
CONTINUOUS
10
5.90998
20
-3.80591
11
5.90998
21
-3.79409
0
LINE
8
BLACK
6
CONTINUOUS
10
5.90998
20
-3.79409
11
5.90767
21
-3.78251
0
LINE
8
BLACK
6
CONTINUOUS
10
5.90767
20
-3.78251
11
5.90315
21
-3.77159
0
LINE
8
BLACK
6
CONTINUOUS
10
5.90315
20
-3.77159
11
5.89659
21
-3.76177
0
LINE
8
BLACK
6
CONTINUOUS
10
5.89659
20
-3.76177
11
5.88823
21
-3.75341
0
LINE
8
BLACK
6
CONTINUOUS
10
5.88823
20
-3.75341
11
5.87841
21
-3.74685
0
LINE
8
BLACK
6
CONTINUOUS
10
5.87841
20
-3.74685
11
5.86749
21
-3.74233
0
LINE
8
BLACK
6
CONTINUOUS
10
5.86749
20
-3.74233
11
5.85591
21
-3.74002
0
LINE
8
BLACK
6
CONTINUOUS
10
5.85591
20
-3.74002
11
5.84409
21
-3.74002
0
LINE
8
BLACK
6
CONTINUOUS
10
5.84409
20
-3.74002
11
5.83251
21
-3.74233
0
LINE
8
BLACK
6
CONTINUOUS
10
5.83251
20
-3.74233
11
5.82159
21
-3.74685
0
LINE
8
BLACK
6
CONTINUOUS
10
5.82159
20
-3.74685
11
5.81177
21
-3.75341
0
LINE
8
BLACK
6
CONTINUOUS
10
5.81177
20
-3.75341
11
5.80341
21
-3.76177
0
LINE
8
BLACK
6
CONTINUOUS
10
5.80341
20
-3.76177
11
5.79685
21
-3.77159
0
LINE
8
BLACK
6
CONTINUOUS
10
5.79685
20
-3.77159
11
5.79233
21
-3.78251
0
LINE
8
BLACK
6
CONTINUOUS
10
5.79233
20
-3.78251
11
5.79002
21
-3.79409
0
LINE
8
BLACK
6
CONTINUOUS
10
5.79002
20
-3.79409
11
5.79002
21
-3.80591
0
LINE
8
BLACK
6
CONTINUOUS
10
5.79002
20
-3.80591
11
5.79233
21
-3.81749
  0
ENDSEC
  0
EOF
