G04 #@! TF.GenerationSoftware,KiCad,Pcbnew,(5.1.5-0-10_14)*
G04 #@! TF.CreationDate,2020-03-24T10:25:43-05:00*
G04 #@! TF.ProjectId,Sensors,53656e73-6f72-4732-9e6b-696361645f70,rev?*
G04 #@! TF.SameCoordinates,Original*
G04 #@! TF.FileFunction,Soldermask,Bot*
G04 #@! TF.FilePolarity,Negative*
%FSLAX46Y46*%
G04 Gerber Fmt 4.6, Leading zero omitted, Abs format (unit mm)*
G04 Created by KiCad (PCBNEW (5.1.5-0-10_14)) date 2020-03-24 10:25:43*
%MOMM*%
%LPD*%
G04 APERTURE LIST*
%ADD10C,0.100000*%
G04 APERTURE END LIST*
D10*
G36*
X158863512Y-93083927D02*
G01*
X159012812Y-93113624D01*
X159176784Y-93181544D01*
X159324354Y-93280147D01*
X159449853Y-93405646D01*
X159548456Y-93553216D01*
X159616376Y-93717188D01*
X159651000Y-93891259D01*
X159651000Y-94068741D01*
X159616376Y-94242812D01*
X159548456Y-94406784D01*
X159449853Y-94554354D01*
X159324354Y-94679853D01*
X159176784Y-94778456D01*
X159012812Y-94846376D01*
X158863512Y-94876073D01*
X158838742Y-94881000D01*
X158661258Y-94881000D01*
X158636488Y-94876073D01*
X158487188Y-94846376D01*
X158323216Y-94778456D01*
X158175646Y-94679853D01*
X158050147Y-94554354D01*
X157951544Y-94406784D01*
X157883624Y-94242812D01*
X157849000Y-94068741D01*
X157849000Y-93891259D01*
X157883624Y-93717188D01*
X157951544Y-93553216D01*
X158050147Y-93405646D01*
X158175646Y-93280147D01*
X158323216Y-93181544D01*
X158487188Y-93113624D01*
X158636488Y-93083927D01*
X158661258Y-93079000D01*
X158838742Y-93079000D01*
X158863512Y-93083927D01*
G37*
G36*
X156323512Y-93083927D02*
G01*
X156472812Y-93113624D01*
X156636784Y-93181544D01*
X156784354Y-93280147D01*
X156909853Y-93405646D01*
X157008456Y-93553216D01*
X157076376Y-93717188D01*
X157111000Y-93891259D01*
X157111000Y-94068741D01*
X157076376Y-94242812D01*
X157008456Y-94406784D01*
X156909853Y-94554354D01*
X156784354Y-94679853D01*
X156636784Y-94778456D01*
X156472812Y-94846376D01*
X156323512Y-94876073D01*
X156298742Y-94881000D01*
X156121258Y-94881000D01*
X156096488Y-94876073D01*
X155947188Y-94846376D01*
X155783216Y-94778456D01*
X155635646Y-94679853D01*
X155510147Y-94554354D01*
X155411544Y-94406784D01*
X155343624Y-94242812D01*
X155309000Y-94068741D01*
X155309000Y-93891259D01*
X155343624Y-93717188D01*
X155411544Y-93553216D01*
X155510147Y-93405646D01*
X155635646Y-93280147D01*
X155783216Y-93181544D01*
X155947188Y-93113624D01*
X156096488Y-93083927D01*
X156121258Y-93079000D01*
X156298742Y-93079000D01*
X156323512Y-93083927D01*
G37*
G36*
X128835337Y-92540763D02*
G01*
X128867367Y-92554030D01*
X128896194Y-92573292D01*
X128920708Y-92597806D01*
X128939970Y-92626633D01*
X128953237Y-92658663D01*
X128960000Y-92692665D01*
X128960000Y-92727335D01*
X128953237Y-92761337D01*
X128939970Y-92793367D01*
X128920708Y-92822194D01*
X128896194Y-92846708D01*
X128867367Y-92865970D01*
X128835337Y-92879237D01*
X128801335Y-92886000D01*
X128766665Y-92886000D01*
X128732663Y-92879237D01*
X128700633Y-92865970D01*
X128671806Y-92846708D01*
X128647292Y-92822194D01*
X128628030Y-92793367D01*
X128614763Y-92761337D01*
X128608000Y-92727335D01*
X128608000Y-92692665D01*
X128614763Y-92658663D01*
X128628030Y-92626633D01*
X128647292Y-92597806D01*
X128671806Y-92573292D01*
X128700633Y-92554030D01*
X128732663Y-92540763D01*
X128766665Y-92534000D01*
X128801335Y-92534000D01*
X128835337Y-92540763D01*
G37*
G36*
X158863512Y-90543927D02*
G01*
X159012812Y-90573624D01*
X159176784Y-90641544D01*
X159324354Y-90740147D01*
X159449853Y-90865646D01*
X159548456Y-91013216D01*
X159616376Y-91177188D01*
X159651000Y-91351259D01*
X159651000Y-91528741D01*
X159616376Y-91702812D01*
X159548456Y-91866784D01*
X159449853Y-92014354D01*
X159324354Y-92139853D01*
X159176784Y-92238456D01*
X159012812Y-92306376D01*
X158863512Y-92336073D01*
X158838742Y-92341000D01*
X158661258Y-92341000D01*
X158636488Y-92336073D01*
X158487188Y-92306376D01*
X158323216Y-92238456D01*
X158175646Y-92139853D01*
X158050147Y-92014354D01*
X157951544Y-91866784D01*
X157883624Y-91702812D01*
X157849000Y-91528741D01*
X157849000Y-91351259D01*
X157883624Y-91177188D01*
X157951544Y-91013216D01*
X158050147Y-90865646D01*
X158175646Y-90740147D01*
X158323216Y-90641544D01*
X158487188Y-90573624D01*
X158636488Y-90543927D01*
X158661258Y-90539000D01*
X158838742Y-90539000D01*
X158863512Y-90543927D01*
G37*
G36*
X156323512Y-90543927D02*
G01*
X156472812Y-90573624D01*
X156636784Y-90641544D01*
X156784354Y-90740147D01*
X156909853Y-90865646D01*
X157008456Y-91013216D01*
X157076376Y-91177188D01*
X157111000Y-91351259D01*
X157111000Y-91528741D01*
X157076376Y-91702812D01*
X157008456Y-91866784D01*
X156909853Y-92014354D01*
X156784354Y-92139853D01*
X156636784Y-92238456D01*
X156472812Y-92306376D01*
X156323512Y-92336073D01*
X156298742Y-92341000D01*
X156121258Y-92341000D01*
X156096488Y-92336073D01*
X155947188Y-92306376D01*
X155783216Y-92238456D01*
X155635646Y-92139853D01*
X155510147Y-92014354D01*
X155411544Y-91866784D01*
X155343624Y-91702812D01*
X155309000Y-91528741D01*
X155309000Y-91351259D01*
X155343624Y-91177188D01*
X155411544Y-91013216D01*
X155510147Y-90865646D01*
X155635646Y-90740147D01*
X155783216Y-90641544D01*
X155947188Y-90573624D01*
X156096488Y-90543927D01*
X156121258Y-90539000D01*
X156298742Y-90539000D01*
X156323512Y-90543927D01*
G37*
G36*
X158863512Y-88003927D02*
G01*
X159012812Y-88033624D01*
X159176784Y-88101544D01*
X159324354Y-88200147D01*
X159449853Y-88325646D01*
X159548456Y-88473216D01*
X159616376Y-88637188D01*
X159651000Y-88811259D01*
X159651000Y-88988741D01*
X159616376Y-89162812D01*
X159548456Y-89326784D01*
X159449853Y-89474354D01*
X159324354Y-89599853D01*
X159176784Y-89698456D01*
X159012812Y-89766376D01*
X158863512Y-89796073D01*
X158838742Y-89801000D01*
X158661258Y-89801000D01*
X158636488Y-89796073D01*
X158487188Y-89766376D01*
X158323216Y-89698456D01*
X158175646Y-89599853D01*
X158050147Y-89474354D01*
X157951544Y-89326784D01*
X157883624Y-89162812D01*
X157849000Y-88988741D01*
X157849000Y-88811259D01*
X157883624Y-88637188D01*
X157951544Y-88473216D01*
X158050147Y-88325646D01*
X158175646Y-88200147D01*
X158323216Y-88101544D01*
X158487188Y-88033624D01*
X158636488Y-88003927D01*
X158661258Y-87999000D01*
X158838742Y-87999000D01*
X158863512Y-88003927D01*
G37*
G36*
X156323512Y-88003927D02*
G01*
X156472812Y-88033624D01*
X156636784Y-88101544D01*
X156784354Y-88200147D01*
X156909853Y-88325646D01*
X157008456Y-88473216D01*
X157076376Y-88637188D01*
X157111000Y-88811259D01*
X157111000Y-88988741D01*
X157076376Y-89162812D01*
X157008456Y-89326784D01*
X156909853Y-89474354D01*
X156784354Y-89599853D01*
X156636784Y-89698456D01*
X156472812Y-89766376D01*
X156323512Y-89796073D01*
X156298742Y-89801000D01*
X156121258Y-89801000D01*
X156096488Y-89796073D01*
X155947188Y-89766376D01*
X155783216Y-89698456D01*
X155635646Y-89599853D01*
X155510147Y-89474354D01*
X155411544Y-89326784D01*
X155343624Y-89162812D01*
X155309000Y-88988741D01*
X155309000Y-88811259D01*
X155343624Y-88637188D01*
X155411544Y-88473216D01*
X155510147Y-88325646D01*
X155635646Y-88200147D01*
X155783216Y-88101544D01*
X155947188Y-88033624D01*
X156096488Y-88003927D01*
X156121258Y-87999000D01*
X156298742Y-87999000D01*
X156323512Y-88003927D01*
G37*
G36*
X158863512Y-85463927D02*
G01*
X159012812Y-85493624D01*
X159176784Y-85561544D01*
X159324354Y-85660147D01*
X159449853Y-85785646D01*
X159548456Y-85933216D01*
X159616376Y-86097188D01*
X159651000Y-86271259D01*
X159651000Y-86448741D01*
X159616376Y-86622812D01*
X159548456Y-86786784D01*
X159449853Y-86934354D01*
X159324354Y-87059853D01*
X159176784Y-87158456D01*
X159012812Y-87226376D01*
X158863512Y-87256073D01*
X158838742Y-87261000D01*
X158661258Y-87261000D01*
X158636488Y-87256073D01*
X158487188Y-87226376D01*
X158323216Y-87158456D01*
X158175646Y-87059853D01*
X158050147Y-86934354D01*
X157951544Y-86786784D01*
X157883624Y-86622812D01*
X157849000Y-86448741D01*
X157849000Y-86271259D01*
X157883624Y-86097188D01*
X157951544Y-85933216D01*
X158050147Y-85785646D01*
X158175646Y-85660147D01*
X158323216Y-85561544D01*
X158487188Y-85493624D01*
X158636488Y-85463927D01*
X158661258Y-85459000D01*
X158838742Y-85459000D01*
X158863512Y-85463927D01*
G37*
G36*
X156323512Y-85463927D02*
G01*
X156472812Y-85493624D01*
X156636784Y-85561544D01*
X156784354Y-85660147D01*
X156909853Y-85785646D01*
X157008456Y-85933216D01*
X157076376Y-86097188D01*
X157111000Y-86271259D01*
X157111000Y-86448741D01*
X157076376Y-86622812D01*
X157008456Y-86786784D01*
X156909853Y-86934354D01*
X156784354Y-87059853D01*
X156636784Y-87158456D01*
X156472812Y-87226376D01*
X156323512Y-87256073D01*
X156298742Y-87261000D01*
X156121258Y-87261000D01*
X156096488Y-87256073D01*
X155947188Y-87226376D01*
X155783216Y-87158456D01*
X155635646Y-87059853D01*
X155510147Y-86934354D01*
X155411544Y-86786784D01*
X155343624Y-86622812D01*
X155309000Y-86448741D01*
X155309000Y-86271259D01*
X155343624Y-86097188D01*
X155411544Y-85933216D01*
X155510147Y-85785646D01*
X155635646Y-85660147D01*
X155783216Y-85561544D01*
X155947188Y-85493624D01*
X156096488Y-85463927D01*
X156121258Y-85459000D01*
X156298742Y-85459000D01*
X156323512Y-85463927D01*
G37*
G36*
X158863512Y-82923927D02*
G01*
X159012812Y-82953624D01*
X159176784Y-83021544D01*
X159324354Y-83120147D01*
X159449853Y-83245646D01*
X159548456Y-83393216D01*
X159616376Y-83557188D01*
X159651000Y-83731259D01*
X159651000Y-83908741D01*
X159616376Y-84082812D01*
X159548456Y-84246784D01*
X159449853Y-84394354D01*
X159324354Y-84519853D01*
X159176784Y-84618456D01*
X159012812Y-84686376D01*
X158863512Y-84716073D01*
X158838742Y-84721000D01*
X158661258Y-84721000D01*
X158636488Y-84716073D01*
X158487188Y-84686376D01*
X158323216Y-84618456D01*
X158175646Y-84519853D01*
X158050147Y-84394354D01*
X157951544Y-84246784D01*
X157883624Y-84082812D01*
X157849000Y-83908741D01*
X157849000Y-83731259D01*
X157883624Y-83557188D01*
X157951544Y-83393216D01*
X158050147Y-83245646D01*
X158175646Y-83120147D01*
X158323216Y-83021544D01*
X158487188Y-82953624D01*
X158636488Y-82923927D01*
X158661258Y-82919000D01*
X158838742Y-82919000D01*
X158863512Y-82923927D01*
G37*
G36*
X156323512Y-82923927D02*
G01*
X156472812Y-82953624D01*
X156636784Y-83021544D01*
X156784354Y-83120147D01*
X156909853Y-83245646D01*
X157008456Y-83393216D01*
X157076376Y-83557188D01*
X157111000Y-83731259D01*
X157111000Y-83908741D01*
X157076376Y-84082812D01*
X157008456Y-84246784D01*
X156909853Y-84394354D01*
X156784354Y-84519853D01*
X156636784Y-84618456D01*
X156472812Y-84686376D01*
X156323512Y-84716073D01*
X156298742Y-84721000D01*
X156121258Y-84721000D01*
X156096488Y-84716073D01*
X155947188Y-84686376D01*
X155783216Y-84618456D01*
X155635646Y-84519853D01*
X155510147Y-84394354D01*
X155411544Y-84246784D01*
X155343624Y-84082812D01*
X155309000Y-83908741D01*
X155309000Y-83731259D01*
X155343624Y-83557188D01*
X155411544Y-83393216D01*
X155510147Y-83245646D01*
X155635646Y-83120147D01*
X155783216Y-83021544D01*
X155947188Y-82953624D01*
X156096488Y-82923927D01*
X156121258Y-82919000D01*
X156298742Y-82919000D01*
X156323512Y-82923927D01*
G37*
G36*
X127901000Y-84721000D02*
G01*
X126099000Y-84721000D01*
X126099000Y-82919000D01*
X127901000Y-82919000D01*
X127901000Y-84721000D01*
G37*
G36*
X158863512Y-80383927D02*
G01*
X159012812Y-80413624D01*
X159176784Y-80481544D01*
X159324354Y-80580147D01*
X159449853Y-80705646D01*
X159548456Y-80853216D01*
X159616376Y-81017188D01*
X159651000Y-81191259D01*
X159651000Y-81368741D01*
X159616376Y-81542812D01*
X159548456Y-81706784D01*
X159449853Y-81854354D01*
X159324354Y-81979853D01*
X159176784Y-82078456D01*
X159012812Y-82146376D01*
X158863512Y-82176073D01*
X158838742Y-82181000D01*
X158661258Y-82181000D01*
X158636488Y-82176073D01*
X158487188Y-82146376D01*
X158323216Y-82078456D01*
X158175646Y-81979853D01*
X158050147Y-81854354D01*
X157951544Y-81706784D01*
X157883624Y-81542812D01*
X157849000Y-81368741D01*
X157849000Y-81191259D01*
X157883624Y-81017188D01*
X157951544Y-80853216D01*
X158050147Y-80705646D01*
X158175646Y-80580147D01*
X158323216Y-80481544D01*
X158487188Y-80413624D01*
X158636488Y-80383927D01*
X158661258Y-80379000D01*
X158838742Y-80379000D01*
X158863512Y-80383927D01*
G37*
G36*
X157111000Y-82181000D02*
G01*
X155309000Y-82181000D01*
X155309000Y-80379000D01*
X157111000Y-80379000D01*
X157111000Y-82181000D01*
G37*
G36*
X127901000Y-80911000D02*
G01*
X126099000Y-80911000D01*
X126099000Y-79109000D01*
X127901000Y-79109000D01*
X127901000Y-80911000D01*
G37*
M02*
