G04 #@! TF.GenerationSoftware,KiCad,Pcbnew,(5.1.5-0-10_14)*
G04 #@! TF.CreationDate,2020-03-10T20:52:17-05:00*
G04 #@! TF.ProjectId,Sensors,53656e73-6f72-4732-9e6b-696361645f70,rev?*
G04 #@! TF.SameCoordinates,Original*
G04 #@! TF.FileFunction,Copper,L1,Top*
G04 #@! TF.FilePolarity,Positive*
%FSLAX46Y46*%
G04 Gerber Fmt 4.6, Leading zero omitted, Abs format (unit mm)*
G04 Created by KiCad (PCBNEW (5.1.5-0-10_14)) date 2020-03-10 20:52:17*
%MOMM*%
%LPD*%
G04 APERTURE LIST*
%ADD10C,0.381000*%
%ADD11C,0.010000*%
%ADD12R,2.290000X3.000000*%
%ADD13C,0.100000*%
%ADD14R,0.080000X0.080000*%
%ADD15C,0.612000*%
%ADD16C,0.562000*%
%ADD17C,0.723000*%
%ADD18O,1.700000X1.700000*%
%ADD19R,1.700000X1.700000*%
%ADD20C,0.250000*%
G04 APERTURE END LIST*
D10*
X123825000Y-80431821D02*
X124097142Y-80522535D01*
X124550714Y-80522535D01*
X124732142Y-80431821D01*
X124822857Y-80341107D01*
X124913571Y-80159678D01*
X124913571Y-79978250D01*
X124822857Y-79796821D01*
X124732142Y-79706107D01*
X124550714Y-79615392D01*
X124187857Y-79524678D01*
X124006428Y-79433964D01*
X123915714Y-79343250D01*
X123825000Y-79161821D01*
X123825000Y-78980392D01*
X123915714Y-78798964D01*
X124006428Y-78708250D01*
X124187857Y-78617535D01*
X124641428Y-78617535D01*
X124913571Y-78708250D01*
X126455714Y-80431821D02*
X126274285Y-80522535D01*
X125911428Y-80522535D01*
X125730000Y-80431821D01*
X125639285Y-80250392D01*
X125639285Y-79524678D01*
X125730000Y-79343250D01*
X125911428Y-79252535D01*
X126274285Y-79252535D01*
X126455714Y-79343250D01*
X126546428Y-79524678D01*
X126546428Y-79706107D01*
X125639285Y-79887535D01*
X127362857Y-79252535D02*
X127362857Y-80522535D01*
X127362857Y-79433964D02*
X127453571Y-79343250D01*
X127635000Y-79252535D01*
X127907142Y-79252535D01*
X128088571Y-79343250D01*
X128179285Y-79524678D01*
X128179285Y-80522535D01*
X128995714Y-80431821D02*
X129177142Y-80522535D01*
X129540000Y-80522535D01*
X129721428Y-80431821D01*
X129812142Y-80250392D01*
X129812142Y-80159678D01*
X129721428Y-79978250D01*
X129540000Y-79887535D01*
X129267857Y-79887535D01*
X129086428Y-79796821D01*
X128995714Y-79615392D01*
X128995714Y-79524678D01*
X129086428Y-79343250D01*
X129267857Y-79252535D01*
X129540000Y-79252535D01*
X129721428Y-79343250D01*
X130900714Y-80522535D02*
X130719285Y-80431821D01*
X130628571Y-80341107D01*
X130537857Y-80159678D01*
X130537857Y-79615392D01*
X130628571Y-79433964D01*
X130719285Y-79343250D01*
X130900714Y-79252535D01*
X131172857Y-79252535D01*
X131354285Y-79343250D01*
X131445000Y-79433964D01*
X131535714Y-79615392D01*
X131535714Y-80159678D01*
X131445000Y-80341107D01*
X131354285Y-80431821D01*
X131172857Y-80522535D01*
X130900714Y-80522535D01*
X132352142Y-80522535D02*
X132352142Y-79252535D01*
X132352142Y-79615392D02*
X132442857Y-79433964D01*
X132533571Y-79343250D01*
X132715000Y-79252535D01*
X132896428Y-79252535D01*
X126092857Y-83761035D02*
X125004285Y-83761035D01*
X125548571Y-83761035D02*
X125548571Y-81856035D01*
X125367142Y-82128178D01*
X125185714Y-82309607D01*
X125004285Y-82400321D01*
X126909285Y-83579607D02*
X127000000Y-83670321D01*
X126909285Y-83761035D01*
X126818571Y-83670321D01*
X126909285Y-83579607D01*
X126909285Y-83761035D01*
X128179285Y-81856035D02*
X128360714Y-81856035D01*
X128542142Y-81946750D01*
X128632857Y-82037464D01*
X128723571Y-82218892D01*
X128814285Y-82581750D01*
X128814285Y-83035321D01*
X128723571Y-83398178D01*
X128632857Y-83579607D01*
X128542142Y-83670321D01*
X128360714Y-83761035D01*
X128179285Y-83761035D01*
X127997857Y-83670321D01*
X127907142Y-83579607D01*
X127816428Y-83398178D01*
X127725714Y-83035321D01*
X127725714Y-82581750D01*
X127816428Y-82218892D01*
X127907142Y-82037464D01*
X127997857Y-81946750D01*
X128179285Y-81856035D01*
X129630714Y-83579607D02*
X129721428Y-83670321D01*
X129630714Y-83761035D01*
X129540000Y-83670321D01*
X129630714Y-83579607D01*
X129630714Y-83761035D01*
X130356428Y-81856035D02*
X131626428Y-83761035D01*
X131626428Y-81856035D02*
X130356428Y-83761035D01*
D11*
G36*
X126244000Y-93322000D02*
G01*
X126307971Y-93318647D01*
X126371242Y-93308626D01*
X126433118Y-93292047D01*
X126492923Y-93269090D01*
X126550000Y-93240008D01*
X126603725Y-93205118D01*
X126653508Y-93164805D01*
X126698805Y-93119508D01*
X126739118Y-93069725D01*
X126774008Y-93016000D01*
X126803090Y-92958923D01*
X126826047Y-92899118D01*
X126842626Y-92837242D01*
X126852647Y-92773971D01*
X126856000Y-92710000D01*
X126852647Y-92646029D01*
X126842626Y-92582758D01*
X126826047Y-92520882D01*
X126803090Y-92461077D01*
X126774008Y-92404000D01*
X126739118Y-92350275D01*
X126698805Y-92300492D01*
X126653508Y-92255195D01*
X126603725Y-92214882D01*
X126550000Y-92179992D01*
X126492923Y-92150910D01*
X126433118Y-92127953D01*
X126371242Y-92111374D01*
X126307971Y-92101353D01*
X126244000Y-92098000D01*
X126180029Y-92101353D01*
X126116758Y-92111374D01*
X126054882Y-92127953D01*
X125995077Y-92150910D01*
X125938000Y-92179992D01*
X125884275Y-92214882D01*
X125834492Y-92255195D01*
X125789195Y-92300492D01*
X125748882Y-92350275D01*
X125713992Y-92404000D01*
X125684910Y-92461077D01*
X125661953Y-92520882D01*
X125645374Y-92582758D01*
X125635353Y-92646029D01*
X125632000Y-92710000D01*
X125635353Y-92773971D01*
X125645374Y-92837242D01*
X125661953Y-92899118D01*
X125684910Y-92958923D01*
X125713992Y-93016000D01*
X125748882Y-93069725D01*
X125789195Y-93119508D01*
X125834492Y-93164805D01*
X125884275Y-93205118D01*
X125938000Y-93240008D01*
X125995077Y-93269090D01*
X126054882Y-93292047D01*
X126116758Y-93308626D01*
X126180029Y-93318647D01*
X126244000Y-93322000D01*
X126244000Y-93015000D01*
X126275881Y-93013329D01*
X126307413Y-93008335D01*
X126338250Y-93000072D01*
X126368055Y-92988631D01*
X126396500Y-92974138D01*
X126423275Y-92956750D01*
X126448085Y-92936659D01*
X126470659Y-92914085D01*
X126490750Y-92889275D01*
X126508138Y-92862500D01*
X126522631Y-92834055D01*
X126534072Y-92804250D01*
X126542335Y-92773413D01*
X126547329Y-92741881D01*
X126549000Y-92710000D01*
X126547329Y-92678119D01*
X126542335Y-92646587D01*
X126534072Y-92615750D01*
X126522631Y-92585945D01*
X126508138Y-92557500D01*
X126490750Y-92530725D01*
X126470659Y-92505915D01*
X126448085Y-92483341D01*
X126423275Y-92463250D01*
X126396500Y-92445862D01*
X126368055Y-92431369D01*
X126338250Y-92419928D01*
X126307413Y-92411665D01*
X126275881Y-92406671D01*
X126244000Y-92405000D01*
X126275881Y-92406671D01*
X126307413Y-92411665D01*
X126338250Y-92419928D01*
X126368055Y-92431369D01*
X126396500Y-92445862D01*
X126423275Y-92463250D01*
X126448085Y-92483341D01*
X126470659Y-92505915D01*
X126490750Y-92530725D01*
X126508138Y-92557500D01*
X126522631Y-92585945D01*
X126534072Y-92615750D01*
X126542335Y-92646587D01*
X126547329Y-92678119D01*
X126549000Y-92710000D01*
X126547329Y-92741881D01*
X126542335Y-92773413D01*
X126534072Y-92804250D01*
X126522631Y-92834055D01*
X126508138Y-92862500D01*
X126490750Y-92889275D01*
X126470659Y-92914085D01*
X126448085Y-92936659D01*
X126423275Y-92956750D01*
X126396500Y-92974138D01*
X126368055Y-92988631D01*
X126338250Y-93000072D01*
X126307413Y-93008335D01*
X126275881Y-93013329D01*
X126244000Y-93015000D01*
X126244000Y-93322000D01*
G37*
X126244000Y-93322000D02*
X126307971Y-93318647D01*
X126371242Y-93308626D01*
X126433118Y-93292047D01*
X126492923Y-93269090D01*
X126550000Y-93240008D01*
X126603725Y-93205118D01*
X126653508Y-93164805D01*
X126698805Y-93119508D01*
X126739118Y-93069725D01*
X126774008Y-93016000D01*
X126803090Y-92958923D01*
X126826047Y-92899118D01*
X126842626Y-92837242D01*
X126852647Y-92773971D01*
X126856000Y-92710000D01*
X126852647Y-92646029D01*
X126842626Y-92582758D01*
X126826047Y-92520882D01*
X126803090Y-92461077D01*
X126774008Y-92404000D01*
X126739118Y-92350275D01*
X126698805Y-92300492D01*
X126653508Y-92255195D01*
X126603725Y-92214882D01*
X126550000Y-92179992D01*
X126492923Y-92150910D01*
X126433118Y-92127953D01*
X126371242Y-92111374D01*
X126307971Y-92101353D01*
X126244000Y-92098000D01*
X126180029Y-92101353D01*
X126116758Y-92111374D01*
X126054882Y-92127953D01*
X125995077Y-92150910D01*
X125938000Y-92179992D01*
X125884275Y-92214882D01*
X125834492Y-92255195D01*
X125789195Y-92300492D01*
X125748882Y-92350275D01*
X125713992Y-92404000D01*
X125684910Y-92461077D01*
X125661953Y-92520882D01*
X125645374Y-92582758D01*
X125635353Y-92646029D01*
X125632000Y-92710000D01*
X125635353Y-92773971D01*
X125645374Y-92837242D01*
X125661953Y-92899118D01*
X125684910Y-92958923D01*
X125713992Y-93016000D01*
X125748882Y-93069725D01*
X125789195Y-93119508D01*
X125834492Y-93164805D01*
X125884275Y-93205118D01*
X125938000Y-93240008D01*
X125995077Y-93269090D01*
X126054882Y-93292047D01*
X126116758Y-93308626D01*
X126180029Y-93318647D01*
X126244000Y-93322000D01*
X126244000Y-93015000D01*
X126275881Y-93013329D01*
X126307413Y-93008335D01*
X126338250Y-93000072D01*
X126368055Y-92988631D01*
X126396500Y-92974138D01*
X126423275Y-92956750D01*
X126448085Y-92936659D01*
X126470659Y-92914085D01*
X126490750Y-92889275D01*
X126508138Y-92862500D01*
X126522631Y-92834055D01*
X126534072Y-92804250D01*
X126542335Y-92773413D01*
X126547329Y-92741881D01*
X126549000Y-92710000D01*
X126547329Y-92678119D01*
X126542335Y-92646587D01*
X126534072Y-92615750D01*
X126522631Y-92585945D01*
X126508138Y-92557500D01*
X126490750Y-92530725D01*
X126470659Y-92505915D01*
X126448085Y-92483341D01*
X126423275Y-92463250D01*
X126396500Y-92445862D01*
X126368055Y-92431369D01*
X126338250Y-92419928D01*
X126307413Y-92411665D01*
X126275881Y-92406671D01*
X126244000Y-92405000D01*
X126275881Y-92406671D01*
X126307413Y-92411665D01*
X126338250Y-92419928D01*
X126368055Y-92431369D01*
X126396500Y-92445862D01*
X126423275Y-92463250D01*
X126448085Y-92483341D01*
X126470659Y-92505915D01*
X126490750Y-92530725D01*
X126508138Y-92557500D01*
X126522631Y-92585945D01*
X126534072Y-92615750D01*
X126542335Y-92646587D01*
X126547329Y-92678119D01*
X126549000Y-92710000D01*
X126547329Y-92741881D01*
X126542335Y-92773413D01*
X126534072Y-92804250D01*
X126522631Y-92834055D01*
X126508138Y-92862500D01*
X126490750Y-92889275D01*
X126470659Y-92914085D01*
X126448085Y-92936659D01*
X126423275Y-92956750D01*
X126396500Y-92974138D01*
X126368055Y-92988631D01*
X126338250Y-93000072D01*
X126307413Y-93008335D01*
X126275881Y-93013329D01*
X126244000Y-93015000D01*
X126244000Y-93322000D01*
D12*
X137160000Y-87630000D03*
G04 #@! TA.AperFunction,SMDPad,CuDef*
D13*
G36*
X140474703Y-85425722D02*
G01*
X140489264Y-85427882D01*
X140503543Y-85431459D01*
X140517403Y-85436418D01*
X140530710Y-85442712D01*
X140543336Y-85450280D01*
X140555159Y-85459048D01*
X140566066Y-85468934D01*
X140575952Y-85479841D01*
X140584720Y-85491664D01*
X140592288Y-85504290D01*
X140598582Y-85517597D01*
X140603541Y-85531457D01*
X140607118Y-85545736D01*
X140609278Y-85560297D01*
X140610000Y-85575000D01*
X140610000Y-85875000D01*
X140609278Y-85889703D01*
X140607118Y-85904264D01*
X140603541Y-85918543D01*
X140598582Y-85932403D01*
X140592288Y-85945710D01*
X140584720Y-85958336D01*
X140575952Y-85970159D01*
X140566066Y-85981066D01*
X140555159Y-85990952D01*
X140543336Y-85999720D01*
X140530710Y-86007288D01*
X140517403Y-86013582D01*
X140503543Y-86018541D01*
X140489264Y-86022118D01*
X140474703Y-86024278D01*
X140460000Y-86025000D01*
X138810000Y-86025000D01*
X138795297Y-86024278D01*
X138780736Y-86022118D01*
X138766457Y-86018541D01*
X138752597Y-86013582D01*
X138739290Y-86007288D01*
X138726664Y-85999720D01*
X138714841Y-85990952D01*
X138703934Y-85981066D01*
X138694048Y-85970159D01*
X138685280Y-85958336D01*
X138677712Y-85945710D01*
X138671418Y-85932403D01*
X138666459Y-85918543D01*
X138662882Y-85904264D01*
X138660722Y-85889703D01*
X138660000Y-85875000D01*
X138660000Y-85575000D01*
X138660722Y-85560297D01*
X138662882Y-85545736D01*
X138666459Y-85531457D01*
X138671418Y-85517597D01*
X138677712Y-85504290D01*
X138685280Y-85491664D01*
X138694048Y-85479841D01*
X138703934Y-85468934D01*
X138714841Y-85459048D01*
X138726664Y-85450280D01*
X138739290Y-85442712D01*
X138752597Y-85436418D01*
X138766457Y-85431459D01*
X138780736Y-85427882D01*
X138795297Y-85425722D01*
X138810000Y-85425000D01*
X140460000Y-85425000D01*
X140474703Y-85425722D01*
G37*
G04 #@! TD.AperFunction*
G04 #@! TA.AperFunction,SMDPad,CuDef*
G36*
X140474703Y-86695722D02*
G01*
X140489264Y-86697882D01*
X140503543Y-86701459D01*
X140517403Y-86706418D01*
X140530710Y-86712712D01*
X140543336Y-86720280D01*
X140555159Y-86729048D01*
X140566066Y-86738934D01*
X140575952Y-86749841D01*
X140584720Y-86761664D01*
X140592288Y-86774290D01*
X140598582Y-86787597D01*
X140603541Y-86801457D01*
X140607118Y-86815736D01*
X140609278Y-86830297D01*
X140610000Y-86845000D01*
X140610000Y-87145000D01*
X140609278Y-87159703D01*
X140607118Y-87174264D01*
X140603541Y-87188543D01*
X140598582Y-87202403D01*
X140592288Y-87215710D01*
X140584720Y-87228336D01*
X140575952Y-87240159D01*
X140566066Y-87251066D01*
X140555159Y-87260952D01*
X140543336Y-87269720D01*
X140530710Y-87277288D01*
X140517403Y-87283582D01*
X140503543Y-87288541D01*
X140489264Y-87292118D01*
X140474703Y-87294278D01*
X140460000Y-87295000D01*
X138810000Y-87295000D01*
X138795297Y-87294278D01*
X138780736Y-87292118D01*
X138766457Y-87288541D01*
X138752597Y-87283582D01*
X138739290Y-87277288D01*
X138726664Y-87269720D01*
X138714841Y-87260952D01*
X138703934Y-87251066D01*
X138694048Y-87240159D01*
X138685280Y-87228336D01*
X138677712Y-87215710D01*
X138671418Y-87202403D01*
X138666459Y-87188543D01*
X138662882Y-87174264D01*
X138660722Y-87159703D01*
X138660000Y-87145000D01*
X138660000Y-86845000D01*
X138660722Y-86830297D01*
X138662882Y-86815736D01*
X138666459Y-86801457D01*
X138671418Y-86787597D01*
X138677712Y-86774290D01*
X138685280Y-86761664D01*
X138694048Y-86749841D01*
X138703934Y-86738934D01*
X138714841Y-86729048D01*
X138726664Y-86720280D01*
X138739290Y-86712712D01*
X138752597Y-86706418D01*
X138766457Y-86701459D01*
X138780736Y-86697882D01*
X138795297Y-86695722D01*
X138810000Y-86695000D01*
X140460000Y-86695000D01*
X140474703Y-86695722D01*
G37*
G04 #@! TD.AperFunction*
G04 #@! TA.AperFunction,SMDPad,CuDef*
G36*
X140474703Y-87965722D02*
G01*
X140489264Y-87967882D01*
X140503543Y-87971459D01*
X140517403Y-87976418D01*
X140530710Y-87982712D01*
X140543336Y-87990280D01*
X140555159Y-87999048D01*
X140566066Y-88008934D01*
X140575952Y-88019841D01*
X140584720Y-88031664D01*
X140592288Y-88044290D01*
X140598582Y-88057597D01*
X140603541Y-88071457D01*
X140607118Y-88085736D01*
X140609278Y-88100297D01*
X140610000Y-88115000D01*
X140610000Y-88415000D01*
X140609278Y-88429703D01*
X140607118Y-88444264D01*
X140603541Y-88458543D01*
X140598582Y-88472403D01*
X140592288Y-88485710D01*
X140584720Y-88498336D01*
X140575952Y-88510159D01*
X140566066Y-88521066D01*
X140555159Y-88530952D01*
X140543336Y-88539720D01*
X140530710Y-88547288D01*
X140517403Y-88553582D01*
X140503543Y-88558541D01*
X140489264Y-88562118D01*
X140474703Y-88564278D01*
X140460000Y-88565000D01*
X138810000Y-88565000D01*
X138795297Y-88564278D01*
X138780736Y-88562118D01*
X138766457Y-88558541D01*
X138752597Y-88553582D01*
X138739290Y-88547288D01*
X138726664Y-88539720D01*
X138714841Y-88530952D01*
X138703934Y-88521066D01*
X138694048Y-88510159D01*
X138685280Y-88498336D01*
X138677712Y-88485710D01*
X138671418Y-88472403D01*
X138666459Y-88458543D01*
X138662882Y-88444264D01*
X138660722Y-88429703D01*
X138660000Y-88415000D01*
X138660000Y-88115000D01*
X138660722Y-88100297D01*
X138662882Y-88085736D01*
X138666459Y-88071457D01*
X138671418Y-88057597D01*
X138677712Y-88044290D01*
X138685280Y-88031664D01*
X138694048Y-88019841D01*
X138703934Y-88008934D01*
X138714841Y-87999048D01*
X138726664Y-87990280D01*
X138739290Y-87982712D01*
X138752597Y-87976418D01*
X138766457Y-87971459D01*
X138780736Y-87967882D01*
X138795297Y-87965722D01*
X138810000Y-87965000D01*
X140460000Y-87965000D01*
X140474703Y-87965722D01*
G37*
G04 #@! TD.AperFunction*
G04 #@! TA.AperFunction,SMDPad,CuDef*
G36*
X140474703Y-89235722D02*
G01*
X140489264Y-89237882D01*
X140503543Y-89241459D01*
X140517403Y-89246418D01*
X140530710Y-89252712D01*
X140543336Y-89260280D01*
X140555159Y-89269048D01*
X140566066Y-89278934D01*
X140575952Y-89289841D01*
X140584720Y-89301664D01*
X140592288Y-89314290D01*
X140598582Y-89327597D01*
X140603541Y-89341457D01*
X140607118Y-89355736D01*
X140609278Y-89370297D01*
X140610000Y-89385000D01*
X140610000Y-89685000D01*
X140609278Y-89699703D01*
X140607118Y-89714264D01*
X140603541Y-89728543D01*
X140598582Y-89742403D01*
X140592288Y-89755710D01*
X140584720Y-89768336D01*
X140575952Y-89780159D01*
X140566066Y-89791066D01*
X140555159Y-89800952D01*
X140543336Y-89809720D01*
X140530710Y-89817288D01*
X140517403Y-89823582D01*
X140503543Y-89828541D01*
X140489264Y-89832118D01*
X140474703Y-89834278D01*
X140460000Y-89835000D01*
X138810000Y-89835000D01*
X138795297Y-89834278D01*
X138780736Y-89832118D01*
X138766457Y-89828541D01*
X138752597Y-89823582D01*
X138739290Y-89817288D01*
X138726664Y-89809720D01*
X138714841Y-89800952D01*
X138703934Y-89791066D01*
X138694048Y-89780159D01*
X138685280Y-89768336D01*
X138677712Y-89755710D01*
X138671418Y-89742403D01*
X138666459Y-89728543D01*
X138662882Y-89714264D01*
X138660722Y-89699703D01*
X138660000Y-89685000D01*
X138660000Y-89385000D01*
X138660722Y-89370297D01*
X138662882Y-89355736D01*
X138666459Y-89341457D01*
X138671418Y-89327597D01*
X138677712Y-89314290D01*
X138685280Y-89301664D01*
X138694048Y-89289841D01*
X138703934Y-89278934D01*
X138714841Y-89269048D01*
X138726664Y-89260280D01*
X138739290Y-89252712D01*
X138752597Y-89246418D01*
X138766457Y-89241459D01*
X138780736Y-89237882D01*
X138795297Y-89235722D01*
X138810000Y-89235000D01*
X140460000Y-89235000D01*
X140474703Y-89235722D01*
G37*
G04 #@! TD.AperFunction*
G04 #@! TA.AperFunction,SMDPad,CuDef*
G36*
X135524703Y-89235722D02*
G01*
X135539264Y-89237882D01*
X135553543Y-89241459D01*
X135567403Y-89246418D01*
X135580710Y-89252712D01*
X135593336Y-89260280D01*
X135605159Y-89269048D01*
X135616066Y-89278934D01*
X135625952Y-89289841D01*
X135634720Y-89301664D01*
X135642288Y-89314290D01*
X135648582Y-89327597D01*
X135653541Y-89341457D01*
X135657118Y-89355736D01*
X135659278Y-89370297D01*
X135660000Y-89385000D01*
X135660000Y-89685000D01*
X135659278Y-89699703D01*
X135657118Y-89714264D01*
X135653541Y-89728543D01*
X135648582Y-89742403D01*
X135642288Y-89755710D01*
X135634720Y-89768336D01*
X135625952Y-89780159D01*
X135616066Y-89791066D01*
X135605159Y-89800952D01*
X135593336Y-89809720D01*
X135580710Y-89817288D01*
X135567403Y-89823582D01*
X135553543Y-89828541D01*
X135539264Y-89832118D01*
X135524703Y-89834278D01*
X135510000Y-89835000D01*
X133860000Y-89835000D01*
X133845297Y-89834278D01*
X133830736Y-89832118D01*
X133816457Y-89828541D01*
X133802597Y-89823582D01*
X133789290Y-89817288D01*
X133776664Y-89809720D01*
X133764841Y-89800952D01*
X133753934Y-89791066D01*
X133744048Y-89780159D01*
X133735280Y-89768336D01*
X133727712Y-89755710D01*
X133721418Y-89742403D01*
X133716459Y-89728543D01*
X133712882Y-89714264D01*
X133710722Y-89699703D01*
X133710000Y-89685000D01*
X133710000Y-89385000D01*
X133710722Y-89370297D01*
X133712882Y-89355736D01*
X133716459Y-89341457D01*
X133721418Y-89327597D01*
X133727712Y-89314290D01*
X133735280Y-89301664D01*
X133744048Y-89289841D01*
X133753934Y-89278934D01*
X133764841Y-89269048D01*
X133776664Y-89260280D01*
X133789290Y-89252712D01*
X133802597Y-89246418D01*
X133816457Y-89241459D01*
X133830736Y-89237882D01*
X133845297Y-89235722D01*
X133860000Y-89235000D01*
X135510000Y-89235000D01*
X135524703Y-89235722D01*
G37*
G04 #@! TD.AperFunction*
G04 #@! TA.AperFunction,SMDPad,CuDef*
G36*
X135524703Y-87965722D02*
G01*
X135539264Y-87967882D01*
X135553543Y-87971459D01*
X135567403Y-87976418D01*
X135580710Y-87982712D01*
X135593336Y-87990280D01*
X135605159Y-87999048D01*
X135616066Y-88008934D01*
X135625952Y-88019841D01*
X135634720Y-88031664D01*
X135642288Y-88044290D01*
X135648582Y-88057597D01*
X135653541Y-88071457D01*
X135657118Y-88085736D01*
X135659278Y-88100297D01*
X135660000Y-88115000D01*
X135660000Y-88415000D01*
X135659278Y-88429703D01*
X135657118Y-88444264D01*
X135653541Y-88458543D01*
X135648582Y-88472403D01*
X135642288Y-88485710D01*
X135634720Y-88498336D01*
X135625952Y-88510159D01*
X135616066Y-88521066D01*
X135605159Y-88530952D01*
X135593336Y-88539720D01*
X135580710Y-88547288D01*
X135567403Y-88553582D01*
X135553543Y-88558541D01*
X135539264Y-88562118D01*
X135524703Y-88564278D01*
X135510000Y-88565000D01*
X133860000Y-88565000D01*
X133845297Y-88564278D01*
X133830736Y-88562118D01*
X133816457Y-88558541D01*
X133802597Y-88553582D01*
X133789290Y-88547288D01*
X133776664Y-88539720D01*
X133764841Y-88530952D01*
X133753934Y-88521066D01*
X133744048Y-88510159D01*
X133735280Y-88498336D01*
X133727712Y-88485710D01*
X133721418Y-88472403D01*
X133716459Y-88458543D01*
X133712882Y-88444264D01*
X133710722Y-88429703D01*
X133710000Y-88415000D01*
X133710000Y-88115000D01*
X133710722Y-88100297D01*
X133712882Y-88085736D01*
X133716459Y-88071457D01*
X133721418Y-88057597D01*
X133727712Y-88044290D01*
X133735280Y-88031664D01*
X133744048Y-88019841D01*
X133753934Y-88008934D01*
X133764841Y-87999048D01*
X133776664Y-87990280D01*
X133789290Y-87982712D01*
X133802597Y-87976418D01*
X133816457Y-87971459D01*
X133830736Y-87967882D01*
X133845297Y-87965722D01*
X133860000Y-87965000D01*
X135510000Y-87965000D01*
X135524703Y-87965722D01*
G37*
G04 #@! TD.AperFunction*
G04 #@! TA.AperFunction,SMDPad,CuDef*
G36*
X135524703Y-86695722D02*
G01*
X135539264Y-86697882D01*
X135553543Y-86701459D01*
X135567403Y-86706418D01*
X135580710Y-86712712D01*
X135593336Y-86720280D01*
X135605159Y-86729048D01*
X135616066Y-86738934D01*
X135625952Y-86749841D01*
X135634720Y-86761664D01*
X135642288Y-86774290D01*
X135648582Y-86787597D01*
X135653541Y-86801457D01*
X135657118Y-86815736D01*
X135659278Y-86830297D01*
X135660000Y-86845000D01*
X135660000Y-87145000D01*
X135659278Y-87159703D01*
X135657118Y-87174264D01*
X135653541Y-87188543D01*
X135648582Y-87202403D01*
X135642288Y-87215710D01*
X135634720Y-87228336D01*
X135625952Y-87240159D01*
X135616066Y-87251066D01*
X135605159Y-87260952D01*
X135593336Y-87269720D01*
X135580710Y-87277288D01*
X135567403Y-87283582D01*
X135553543Y-87288541D01*
X135539264Y-87292118D01*
X135524703Y-87294278D01*
X135510000Y-87295000D01*
X133860000Y-87295000D01*
X133845297Y-87294278D01*
X133830736Y-87292118D01*
X133816457Y-87288541D01*
X133802597Y-87283582D01*
X133789290Y-87277288D01*
X133776664Y-87269720D01*
X133764841Y-87260952D01*
X133753934Y-87251066D01*
X133744048Y-87240159D01*
X133735280Y-87228336D01*
X133727712Y-87215710D01*
X133721418Y-87202403D01*
X133716459Y-87188543D01*
X133712882Y-87174264D01*
X133710722Y-87159703D01*
X133710000Y-87145000D01*
X133710000Y-86845000D01*
X133710722Y-86830297D01*
X133712882Y-86815736D01*
X133716459Y-86801457D01*
X133721418Y-86787597D01*
X133727712Y-86774290D01*
X133735280Y-86761664D01*
X133744048Y-86749841D01*
X133753934Y-86738934D01*
X133764841Y-86729048D01*
X133776664Y-86720280D01*
X133789290Y-86712712D01*
X133802597Y-86706418D01*
X133816457Y-86701459D01*
X133830736Y-86697882D01*
X133845297Y-86695722D01*
X133860000Y-86695000D01*
X135510000Y-86695000D01*
X135524703Y-86695722D01*
G37*
G04 #@! TD.AperFunction*
G04 #@! TA.AperFunction,SMDPad,CuDef*
G36*
X135524703Y-85425722D02*
G01*
X135539264Y-85427882D01*
X135553543Y-85431459D01*
X135567403Y-85436418D01*
X135580710Y-85442712D01*
X135593336Y-85450280D01*
X135605159Y-85459048D01*
X135616066Y-85468934D01*
X135625952Y-85479841D01*
X135634720Y-85491664D01*
X135642288Y-85504290D01*
X135648582Y-85517597D01*
X135653541Y-85531457D01*
X135657118Y-85545736D01*
X135659278Y-85560297D01*
X135660000Y-85575000D01*
X135660000Y-85875000D01*
X135659278Y-85889703D01*
X135657118Y-85904264D01*
X135653541Y-85918543D01*
X135648582Y-85932403D01*
X135642288Y-85945710D01*
X135634720Y-85958336D01*
X135625952Y-85970159D01*
X135616066Y-85981066D01*
X135605159Y-85990952D01*
X135593336Y-85999720D01*
X135580710Y-86007288D01*
X135567403Y-86013582D01*
X135553543Y-86018541D01*
X135539264Y-86022118D01*
X135524703Y-86024278D01*
X135510000Y-86025000D01*
X133860000Y-86025000D01*
X133845297Y-86024278D01*
X133830736Y-86022118D01*
X133816457Y-86018541D01*
X133802597Y-86013582D01*
X133789290Y-86007288D01*
X133776664Y-85999720D01*
X133764841Y-85990952D01*
X133753934Y-85981066D01*
X133744048Y-85970159D01*
X133735280Y-85958336D01*
X133727712Y-85945710D01*
X133721418Y-85932403D01*
X133716459Y-85918543D01*
X133712882Y-85904264D01*
X133710722Y-85889703D01*
X133710000Y-85875000D01*
X133710000Y-85575000D01*
X133710722Y-85560297D01*
X133712882Y-85545736D01*
X133716459Y-85531457D01*
X133721418Y-85517597D01*
X133727712Y-85504290D01*
X133735280Y-85491664D01*
X133744048Y-85479841D01*
X133753934Y-85468934D01*
X133764841Y-85459048D01*
X133776664Y-85450280D01*
X133789290Y-85442712D01*
X133802597Y-85436418D01*
X133816457Y-85431459D01*
X133830736Y-85427882D01*
X133845297Y-85425722D01*
X133860000Y-85425000D01*
X135510000Y-85425000D01*
X135524703Y-85425722D01*
G37*
G04 #@! TD.AperFunction*
G04 #@! TA.AperFunction,SMDPad,CuDef*
G36*
X147920142Y-88201174D02*
G01*
X147943803Y-88204684D01*
X147967007Y-88210496D01*
X147989529Y-88218554D01*
X148011153Y-88228782D01*
X148031670Y-88241079D01*
X148050883Y-88255329D01*
X148068607Y-88271393D01*
X148084671Y-88289117D01*
X148098921Y-88308330D01*
X148111218Y-88328847D01*
X148121446Y-88350471D01*
X148129504Y-88372993D01*
X148135316Y-88396197D01*
X148138826Y-88419858D01*
X148140000Y-88443750D01*
X148140000Y-89356250D01*
X148138826Y-89380142D01*
X148135316Y-89403803D01*
X148129504Y-89427007D01*
X148121446Y-89449529D01*
X148111218Y-89471153D01*
X148098921Y-89491670D01*
X148084671Y-89510883D01*
X148068607Y-89528607D01*
X148050883Y-89544671D01*
X148031670Y-89558921D01*
X148011153Y-89571218D01*
X147989529Y-89581446D01*
X147967007Y-89589504D01*
X147943803Y-89595316D01*
X147920142Y-89598826D01*
X147896250Y-89600000D01*
X147408750Y-89600000D01*
X147384858Y-89598826D01*
X147361197Y-89595316D01*
X147337993Y-89589504D01*
X147315471Y-89581446D01*
X147293847Y-89571218D01*
X147273330Y-89558921D01*
X147254117Y-89544671D01*
X147236393Y-89528607D01*
X147220329Y-89510883D01*
X147206079Y-89491670D01*
X147193782Y-89471153D01*
X147183554Y-89449529D01*
X147175496Y-89427007D01*
X147169684Y-89403803D01*
X147166174Y-89380142D01*
X147165000Y-89356250D01*
X147165000Y-88443750D01*
X147166174Y-88419858D01*
X147169684Y-88396197D01*
X147175496Y-88372993D01*
X147183554Y-88350471D01*
X147193782Y-88328847D01*
X147206079Y-88308330D01*
X147220329Y-88289117D01*
X147236393Y-88271393D01*
X147254117Y-88255329D01*
X147273330Y-88241079D01*
X147293847Y-88228782D01*
X147315471Y-88218554D01*
X147337993Y-88210496D01*
X147361197Y-88204684D01*
X147384858Y-88201174D01*
X147408750Y-88200000D01*
X147896250Y-88200000D01*
X147920142Y-88201174D01*
G37*
G04 #@! TD.AperFunction*
G04 #@! TA.AperFunction,SMDPad,CuDef*
G36*
X149795142Y-88201174D02*
G01*
X149818803Y-88204684D01*
X149842007Y-88210496D01*
X149864529Y-88218554D01*
X149886153Y-88228782D01*
X149906670Y-88241079D01*
X149925883Y-88255329D01*
X149943607Y-88271393D01*
X149959671Y-88289117D01*
X149973921Y-88308330D01*
X149986218Y-88328847D01*
X149996446Y-88350471D01*
X150004504Y-88372993D01*
X150010316Y-88396197D01*
X150013826Y-88419858D01*
X150015000Y-88443750D01*
X150015000Y-89356250D01*
X150013826Y-89380142D01*
X150010316Y-89403803D01*
X150004504Y-89427007D01*
X149996446Y-89449529D01*
X149986218Y-89471153D01*
X149973921Y-89491670D01*
X149959671Y-89510883D01*
X149943607Y-89528607D01*
X149925883Y-89544671D01*
X149906670Y-89558921D01*
X149886153Y-89571218D01*
X149864529Y-89581446D01*
X149842007Y-89589504D01*
X149818803Y-89595316D01*
X149795142Y-89598826D01*
X149771250Y-89600000D01*
X149283750Y-89600000D01*
X149259858Y-89598826D01*
X149236197Y-89595316D01*
X149212993Y-89589504D01*
X149190471Y-89581446D01*
X149168847Y-89571218D01*
X149148330Y-89558921D01*
X149129117Y-89544671D01*
X149111393Y-89528607D01*
X149095329Y-89510883D01*
X149081079Y-89491670D01*
X149068782Y-89471153D01*
X149058554Y-89449529D01*
X149050496Y-89427007D01*
X149044684Y-89403803D01*
X149041174Y-89380142D01*
X149040000Y-89356250D01*
X149040000Y-88443750D01*
X149041174Y-88419858D01*
X149044684Y-88396197D01*
X149050496Y-88372993D01*
X149058554Y-88350471D01*
X149068782Y-88328847D01*
X149081079Y-88308330D01*
X149095329Y-88289117D01*
X149111393Y-88271393D01*
X149129117Y-88255329D01*
X149148330Y-88241079D01*
X149168847Y-88228782D01*
X149190471Y-88218554D01*
X149212993Y-88210496D01*
X149236197Y-88204684D01*
X149259858Y-88201174D01*
X149283750Y-88200000D01*
X149771250Y-88200000D01*
X149795142Y-88201174D01*
G37*
G04 #@! TD.AperFunction*
G04 #@! TA.AperFunction,SMDPad,CuDef*
G36*
X135220142Y-80581174D02*
G01*
X135243803Y-80584684D01*
X135267007Y-80590496D01*
X135289529Y-80598554D01*
X135311153Y-80608782D01*
X135331670Y-80621079D01*
X135350883Y-80635329D01*
X135368607Y-80651393D01*
X135384671Y-80669117D01*
X135398921Y-80688330D01*
X135411218Y-80708847D01*
X135421446Y-80730471D01*
X135429504Y-80752993D01*
X135435316Y-80776197D01*
X135438826Y-80799858D01*
X135440000Y-80823750D01*
X135440000Y-81736250D01*
X135438826Y-81760142D01*
X135435316Y-81783803D01*
X135429504Y-81807007D01*
X135421446Y-81829529D01*
X135411218Y-81851153D01*
X135398921Y-81871670D01*
X135384671Y-81890883D01*
X135368607Y-81908607D01*
X135350883Y-81924671D01*
X135331670Y-81938921D01*
X135311153Y-81951218D01*
X135289529Y-81961446D01*
X135267007Y-81969504D01*
X135243803Y-81975316D01*
X135220142Y-81978826D01*
X135196250Y-81980000D01*
X134708750Y-81980000D01*
X134684858Y-81978826D01*
X134661197Y-81975316D01*
X134637993Y-81969504D01*
X134615471Y-81961446D01*
X134593847Y-81951218D01*
X134573330Y-81938921D01*
X134554117Y-81924671D01*
X134536393Y-81908607D01*
X134520329Y-81890883D01*
X134506079Y-81871670D01*
X134493782Y-81851153D01*
X134483554Y-81829529D01*
X134475496Y-81807007D01*
X134469684Y-81783803D01*
X134466174Y-81760142D01*
X134465000Y-81736250D01*
X134465000Y-80823750D01*
X134466174Y-80799858D01*
X134469684Y-80776197D01*
X134475496Y-80752993D01*
X134483554Y-80730471D01*
X134493782Y-80708847D01*
X134506079Y-80688330D01*
X134520329Y-80669117D01*
X134536393Y-80651393D01*
X134554117Y-80635329D01*
X134573330Y-80621079D01*
X134593847Y-80608782D01*
X134615471Y-80598554D01*
X134637993Y-80590496D01*
X134661197Y-80584684D01*
X134684858Y-80581174D01*
X134708750Y-80580000D01*
X135196250Y-80580000D01*
X135220142Y-80581174D01*
G37*
G04 #@! TD.AperFunction*
G04 #@! TA.AperFunction,SMDPad,CuDef*
G36*
X137095142Y-80581174D02*
G01*
X137118803Y-80584684D01*
X137142007Y-80590496D01*
X137164529Y-80598554D01*
X137186153Y-80608782D01*
X137206670Y-80621079D01*
X137225883Y-80635329D01*
X137243607Y-80651393D01*
X137259671Y-80669117D01*
X137273921Y-80688330D01*
X137286218Y-80708847D01*
X137296446Y-80730471D01*
X137304504Y-80752993D01*
X137310316Y-80776197D01*
X137313826Y-80799858D01*
X137315000Y-80823750D01*
X137315000Y-81736250D01*
X137313826Y-81760142D01*
X137310316Y-81783803D01*
X137304504Y-81807007D01*
X137296446Y-81829529D01*
X137286218Y-81851153D01*
X137273921Y-81871670D01*
X137259671Y-81890883D01*
X137243607Y-81908607D01*
X137225883Y-81924671D01*
X137206670Y-81938921D01*
X137186153Y-81951218D01*
X137164529Y-81961446D01*
X137142007Y-81969504D01*
X137118803Y-81975316D01*
X137095142Y-81978826D01*
X137071250Y-81980000D01*
X136583750Y-81980000D01*
X136559858Y-81978826D01*
X136536197Y-81975316D01*
X136512993Y-81969504D01*
X136490471Y-81961446D01*
X136468847Y-81951218D01*
X136448330Y-81938921D01*
X136429117Y-81924671D01*
X136411393Y-81908607D01*
X136395329Y-81890883D01*
X136381079Y-81871670D01*
X136368782Y-81851153D01*
X136358554Y-81829529D01*
X136350496Y-81807007D01*
X136344684Y-81783803D01*
X136341174Y-81760142D01*
X136340000Y-81736250D01*
X136340000Y-80823750D01*
X136341174Y-80799858D01*
X136344684Y-80776197D01*
X136350496Y-80752993D01*
X136358554Y-80730471D01*
X136368782Y-80708847D01*
X136381079Y-80688330D01*
X136395329Y-80669117D01*
X136411393Y-80651393D01*
X136429117Y-80635329D01*
X136448330Y-80621079D01*
X136468847Y-80608782D01*
X136490471Y-80598554D01*
X136512993Y-80590496D01*
X136536197Y-80584684D01*
X136559858Y-80581174D01*
X136583750Y-80580000D01*
X137071250Y-80580000D01*
X137095142Y-80581174D01*
G37*
G04 #@! TD.AperFunction*
G04 #@! TA.AperFunction,SMDPad,CuDef*
G36*
X147587642Y-83121174D02*
G01*
X147611303Y-83124684D01*
X147634507Y-83130496D01*
X147657029Y-83138554D01*
X147678653Y-83148782D01*
X147699170Y-83161079D01*
X147718383Y-83175329D01*
X147736107Y-83191393D01*
X147752171Y-83209117D01*
X147766421Y-83228330D01*
X147778718Y-83248847D01*
X147788946Y-83270471D01*
X147797004Y-83292993D01*
X147802816Y-83316197D01*
X147806326Y-83339858D01*
X147807500Y-83363750D01*
X147807500Y-84276250D01*
X147806326Y-84300142D01*
X147802816Y-84323803D01*
X147797004Y-84347007D01*
X147788946Y-84369529D01*
X147778718Y-84391153D01*
X147766421Y-84411670D01*
X147752171Y-84430883D01*
X147736107Y-84448607D01*
X147718383Y-84464671D01*
X147699170Y-84478921D01*
X147678653Y-84491218D01*
X147657029Y-84501446D01*
X147634507Y-84509504D01*
X147611303Y-84515316D01*
X147587642Y-84518826D01*
X147563750Y-84520000D01*
X147076250Y-84520000D01*
X147052358Y-84518826D01*
X147028697Y-84515316D01*
X147005493Y-84509504D01*
X146982971Y-84501446D01*
X146961347Y-84491218D01*
X146940830Y-84478921D01*
X146921617Y-84464671D01*
X146903893Y-84448607D01*
X146887829Y-84430883D01*
X146873579Y-84411670D01*
X146861282Y-84391153D01*
X146851054Y-84369529D01*
X146842996Y-84347007D01*
X146837184Y-84323803D01*
X146833674Y-84300142D01*
X146832500Y-84276250D01*
X146832500Y-83363750D01*
X146833674Y-83339858D01*
X146837184Y-83316197D01*
X146842996Y-83292993D01*
X146851054Y-83270471D01*
X146861282Y-83248847D01*
X146873579Y-83228330D01*
X146887829Y-83209117D01*
X146903893Y-83191393D01*
X146921617Y-83175329D01*
X146940830Y-83161079D01*
X146961347Y-83148782D01*
X146982971Y-83138554D01*
X147005493Y-83130496D01*
X147028697Y-83124684D01*
X147052358Y-83121174D01*
X147076250Y-83120000D01*
X147563750Y-83120000D01*
X147587642Y-83121174D01*
G37*
G04 #@! TD.AperFunction*
G04 #@! TA.AperFunction,SMDPad,CuDef*
G36*
X149462642Y-83121174D02*
G01*
X149486303Y-83124684D01*
X149509507Y-83130496D01*
X149532029Y-83138554D01*
X149553653Y-83148782D01*
X149574170Y-83161079D01*
X149593383Y-83175329D01*
X149611107Y-83191393D01*
X149627171Y-83209117D01*
X149641421Y-83228330D01*
X149653718Y-83248847D01*
X149663946Y-83270471D01*
X149672004Y-83292993D01*
X149677816Y-83316197D01*
X149681326Y-83339858D01*
X149682500Y-83363750D01*
X149682500Y-84276250D01*
X149681326Y-84300142D01*
X149677816Y-84323803D01*
X149672004Y-84347007D01*
X149663946Y-84369529D01*
X149653718Y-84391153D01*
X149641421Y-84411670D01*
X149627171Y-84430883D01*
X149611107Y-84448607D01*
X149593383Y-84464671D01*
X149574170Y-84478921D01*
X149553653Y-84491218D01*
X149532029Y-84501446D01*
X149509507Y-84509504D01*
X149486303Y-84515316D01*
X149462642Y-84518826D01*
X149438750Y-84520000D01*
X148951250Y-84520000D01*
X148927358Y-84518826D01*
X148903697Y-84515316D01*
X148880493Y-84509504D01*
X148857971Y-84501446D01*
X148836347Y-84491218D01*
X148815830Y-84478921D01*
X148796617Y-84464671D01*
X148778893Y-84448607D01*
X148762829Y-84430883D01*
X148748579Y-84411670D01*
X148736282Y-84391153D01*
X148726054Y-84369529D01*
X148717996Y-84347007D01*
X148712184Y-84323803D01*
X148708674Y-84300142D01*
X148707500Y-84276250D01*
X148707500Y-83363750D01*
X148708674Y-83339858D01*
X148712184Y-83316197D01*
X148717996Y-83292993D01*
X148726054Y-83270471D01*
X148736282Y-83248847D01*
X148748579Y-83228330D01*
X148762829Y-83209117D01*
X148778893Y-83191393D01*
X148796617Y-83175329D01*
X148815830Y-83161079D01*
X148836347Y-83148782D01*
X148857971Y-83138554D01*
X148880493Y-83130496D01*
X148903697Y-83124684D01*
X148927358Y-83121174D01*
X148951250Y-83120000D01*
X149438750Y-83120000D01*
X149462642Y-83121174D01*
G37*
G04 #@! TD.AperFunction*
G04 #@! TA.AperFunction,SMDPad,CuDef*
G36*
X144110142Y-85661174D02*
G01*
X144133803Y-85664684D01*
X144157007Y-85670496D01*
X144179529Y-85678554D01*
X144201153Y-85688782D01*
X144221670Y-85701079D01*
X144240883Y-85715329D01*
X144258607Y-85731393D01*
X144274671Y-85749117D01*
X144288921Y-85768330D01*
X144301218Y-85788847D01*
X144311446Y-85810471D01*
X144319504Y-85832993D01*
X144325316Y-85856197D01*
X144328826Y-85879858D01*
X144330000Y-85903750D01*
X144330000Y-86816250D01*
X144328826Y-86840142D01*
X144325316Y-86863803D01*
X144319504Y-86887007D01*
X144311446Y-86909529D01*
X144301218Y-86931153D01*
X144288921Y-86951670D01*
X144274671Y-86970883D01*
X144258607Y-86988607D01*
X144240883Y-87004671D01*
X144221670Y-87018921D01*
X144201153Y-87031218D01*
X144179529Y-87041446D01*
X144157007Y-87049504D01*
X144133803Y-87055316D01*
X144110142Y-87058826D01*
X144086250Y-87060000D01*
X143598750Y-87060000D01*
X143574858Y-87058826D01*
X143551197Y-87055316D01*
X143527993Y-87049504D01*
X143505471Y-87041446D01*
X143483847Y-87031218D01*
X143463330Y-87018921D01*
X143444117Y-87004671D01*
X143426393Y-86988607D01*
X143410329Y-86970883D01*
X143396079Y-86951670D01*
X143383782Y-86931153D01*
X143373554Y-86909529D01*
X143365496Y-86887007D01*
X143359684Y-86863803D01*
X143356174Y-86840142D01*
X143355000Y-86816250D01*
X143355000Y-85903750D01*
X143356174Y-85879858D01*
X143359684Y-85856197D01*
X143365496Y-85832993D01*
X143373554Y-85810471D01*
X143383782Y-85788847D01*
X143396079Y-85768330D01*
X143410329Y-85749117D01*
X143426393Y-85731393D01*
X143444117Y-85715329D01*
X143463330Y-85701079D01*
X143483847Y-85688782D01*
X143505471Y-85678554D01*
X143527993Y-85670496D01*
X143551197Y-85664684D01*
X143574858Y-85661174D01*
X143598750Y-85660000D01*
X144086250Y-85660000D01*
X144110142Y-85661174D01*
G37*
G04 #@! TD.AperFunction*
G04 #@! TA.AperFunction,SMDPad,CuDef*
G36*
X145985142Y-85661174D02*
G01*
X146008803Y-85664684D01*
X146032007Y-85670496D01*
X146054529Y-85678554D01*
X146076153Y-85688782D01*
X146096670Y-85701079D01*
X146115883Y-85715329D01*
X146133607Y-85731393D01*
X146149671Y-85749117D01*
X146163921Y-85768330D01*
X146176218Y-85788847D01*
X146186446Y-85810471D01*
X146194504Y-85832993D01*
X146200316Y-85856197D01*
X146203826Y-85879858D01*
X146205000Y-85903750D01*
X146205000Y-86816250D01*
X146203826Y-86840142D01*
X146200316Y-86863803D01*
X146194504Y-86887007D01*
X146186446Y-86909529D01*
X146176218Y-86931153D01*
X146163921Y-86951670D01*
X146149671Y-86970883D01*
X146133607Y-86988607D01*
X146115883Y-87004671D01*
X146096670Y-87018921D01*
X146076153Y-87031218D01*
X146054529Y-87041446D01*
X146032007Y-87049504D01*
X146008803Y-87055316D01*
X145985142Y-87058826D01*
X145961250Y-87060000D01*
X145473750Y-87060000D01*
X145449858Y-87058826D01*
X145426197Y-87055316D01*
X145402993Y-87049504D01*
X145380471Y-87041446D01*
X145358847Y-87031218D01*
X145338330Y-87018921D01*
X145319117Y-87004671D01*
X145301393Y-86988607D01*
X145285329Y-86970883D01*
X145271079Y-86951670D01*
X145258782Y-86931153D01*
X145248554Y-86909529D01*
X145240496Y-86887007D01*
X145234684Y-86863803D01*
X145231174Y-86840142D01*
X145230000Y-86816250D01*
X145230000Y-85903750D01*
X145231174Y-85879858D01*
X145234684Y-85856197D01*
X145240496Y-85832993D01*
X145248554Y-85810471D01*
X145258782Y-85788847D01*
X145271079Y-85768330D01*
X145285329Y-85749117D01*
X145301393Y-85731393D01*
X145319117Y-85715329D01*
X145338330Y-85701079D01*
X145358847Y-85688782D01*
X145380471Y-85678554D01*
X145402993Y-85670496D01*
X145426197Y-85664684D01*
X145449858Y-85661174D01*
X145473750Y-85660000D01*
X145961250Y-85660000D01*
X145985142Y-85661174D01*
G37*
G04 #@! TD.AperFunction*
G04 #@! TA.AperFunction,SMDPad,CuDef*
G36*
X145985142Y-80581174D02*
G01*
X146008803Y-80584684D01*
X146032007Y-80590496D01*
X146054529Y-80598554D01*
X146076153Y-80608782D01*
X146096670Y-80621079D01*
X146115883Y-80635329D01*
X146133607Y-80651393D01*
X146149671Y-80669117D01*
X146163921Y-80688330D01*
X146176218Y-80708847D01*
X146186446Y-80730471D01*
X146194504Y-80752993D01*
X146200316Y-80776197D01*
X146203826Y-80799858D01*
X146205000Y-80823750D01*
X146205000Y-81736250D01*
X146203826Y-81760142D01*
X146200316Y-81783803D01*
X146194504Y-81807007D01*
X146186446Y-81829529D01*
X146176218Y-81851153D01*
X146163921Y-81871670D01*
X146149671Y-81890883D01*
X146133607Y-81908607D01*
X146115883Y-81924671D01*
X146096670Y-81938921D01*
X146076153Y-81951218D01*
X146054529Y-81961446D01*
X146032007Y-81969504D01*
X146008803Y-81975316D01*
X145985142Y-81978826D01*
X145961250Y-81980000D01*
X145473750Y-81980000D01*
X145449858Y-81978826D01*
X145426197Y-81975316D01*
X145402993Y-81969504D01*
X145380471Y-81961446D01*
X145358847Y-81951218D01*
X145338330Y-81938921D01*
X145319117Y-81924671D01*
X145301393Y-81908607D01*
X145285329Y-81890883D01*
X145271079Y-81871670D01*
X145258782Y-81851153D01*
X145248554Y-81829529D01*
X145240496Y-81807007D01*
X145234684Y-81783803D01*
X145231174Y-81760142D01*
X145230000Y-81736250D01*
X145230000Y-80823750D01*
X145231174Y-80799858D01*
X145234684Y-80776197D01*
X145240496Y-80752993D01*
X145248554Y-80730471D01*
X145258782Y-80708847D01*
X145271079Y-80688330D01*
X145285329Y-80669117D01*
X145301393Y-80651393D01*
X145319117Y-80635329D01*
X145338330Y-80621079D01*
X145358847Y-80608782D01*
X145380471Y-80598554D01*
X145402993Y-80590496D01*
X145426197Y-80584684D01*
X145449858Y-80581174D01*
X145473750Y-80580000D01*
X145961250Y-80580000D01*
X145985142Y-80581174D01*
G37*
G04 #@! TD.AperFunction*
G04 #@! TA.AperFunction,SMDPad,CuDef*
G36*
X144110142Y-80581174D02*
G01*
X144133803Y-80584684D01*
X144157007Y-80590496D01*
X144179529Y-80598554D01*
X144201153Y-80608782D01*
X144221670Y-80621079D01*
X144240883Y-80635329D01*
X144258607Y-80651393D01*
X144274671Y-80669117D01*
X144288921Y-80688330D01*
X144301218Y-80708847D01*
X144311446Y-80730471D01*
X144319504Y-80752993D01*
X144325316Y-80776197D01*
X144328826Y-80799858D01*
X144330000Y-80823750D01*
X144330000Y-81736250D01*
X144328826Y-81760142D01*
X144325316Y-81783803D01*
X144319504Y-81807007D01*
X144311446Y-81829529D01*
X144301218Y-81851153D01*
X144288921Y-81871670D01*
X144274671Y-81890883D01*
X144258607Y-81908607D01*
X144240883Y-81924671D01*
X144221670Y-81938921D01*
X144201153Y-81951218D01*
X144179529Y-81961446D01*
X144157007Y-81969504D01*
X144133803Y-81975316D01*
X144110142Y-81978826D01*
X144086250Y-81980000D01*
X143598750Y-81980000D01*
X143574858Y-81978826D01*
X143551197Y-81975316D01*
X143527993Y-81969504D01*
X143505471Y-81961446D01*
X143483847Y-81951218D01*
X143463330Y-81938921D01*
X143444117Y-81924671D01*
X143426393Y-81908607D01*
X143410329Y-81890883D01*
X143396079Y-81871670D01*
X143383782Y-81851153D01*
X143373554Y-81829529D01*
X143365496Y-81807007D01*
X143359684Y-81783803D01*
X143356174Y-81760142D01*
X143355000Y-81736250D01*
X143355000Y-80823750D01*
X143356174Y-80799858D01*
X143359684Y-80776197D01*
X143365496Y-80752993D01*
X143373554Y-80730471D01*
X143383782Y-80708847D01*
X143396079Y-80688330D01*
X143410329Y-80669117D01*
X143426393Y-80651393D01*
X143444117Y-80635329D01*
X143463330Y-80621079D01*
X143483847Y-80608782D01*
X143505471Y-80598554D01*
X143527993Y-80590496D01*
X143551197Y-80584684D01*
X143574858Y-80581174D01*
X143598750Y-80580000D01*
X144086250Y-80580000D01*
X144110142Y-80581174D01*
G37*
G04 #@! TD.AperFunction*
G04 #@! TA.AperFunction,SMDPad,CuDef*
G36*
X131290142Y-88081174D02*
G01*
X131313803Y-88084684D01*
X131337007Y-88090496D01*
X131359529Y-88098554D01*
X131381153Y-88108782D01*
X131401670Y-88121079D01*
X131420883Y-88135329D01*
X131438607Y-88151393D01*
X131454671Y-88169117D01*
X131468921Y-88188330D01*
X131481218Y-88208847D01*
X131491446Y-88230471D01*
X131499504Y-88252993D01*
X131505316Y-88276197D01*
X131508826Y-88299858D01*
X131510000Y-88323750D01*
X131510000Y-88811250D01*
X131508826Y-88835142D01*
X131505316Y-88858803D01*
X131499504Y-88882007D01*
X131491446Y-88904529D01*
X131481218Y-88926153D01*
X131468921Y-88946670D01*
X131454671Y-88965883D01*
X131438607Y-88983607D01*
X131420883Y-88999671D01*
X131401670Y-89013921D01*
X131381153Y-89026218D01*
X131359529Y-89036446D01*
X131337007Y-89044504D01*
X131313803Y-89050316D01*
X131290142Y-89053826D01*
X131266250Y-89055000D01*
X130353750Y-89055000D01*
X130329858Y-89053826D01*
X130306197Y-89050316D01*
X130282993Y-89044504D01*
X130260471Y-89036446D01*
X130238847Y-89026218D01*
X130218330Y-89013921D01*
X130199117Y-88999671D01*
X130181393Y-88983607D01*
X130165329Y-88965883D01*
X130151079Y-88946670D01*
X130138782Y-88926153D01*
X130128554Y-88904529D01*
X130120496Y-88882007D01*
X130114684Y-88858803D01*
X130111174Y-88835142D01*
X130110000Y-88811250D01*
X130110000Y-88323750D01*
X130111174Y-88299858D01*
X130114684Y-88276197D01*
X130120496Y-88252993D01*
X130128554Y-88230471D01*
X130138782Y-88208847D01*
X130151079Y-88188330D01*
X130165329Y-88169117D01*
X130181393Y-88151393D01*
X130199117Y-88135329D01*
X130218330Y-88121079D01*
X130238847Y-88108782D01*
X130260471Y-88098554D01*
X130282993Y-88090496D01*
X130306197Y-88084684D01*
X130329858Y-88081174D01*
X130353750Y-88080000D01*
X131266250Y-88080000D01*
X131290142Y-88081174D01*
G37*
G04 #@! TD.AperFunction*
G04 #@! TA.AperFunction,SMDPad,CuDef*
G36*
X131290142Y-86206174D02*
G01*
X131313803Y-86209684D01*
X131337007Y-86215496D01*
X131359529Y-86223554D01*
X131381153Y-86233782D01*
X131401670Y-86246079D01*
X131420883Y-86260329D01*
X131438607Y-86276393D01*
X131454671Y-86294117D01*
X131468921Y-86313330D01*
X131481218Y-86333847D01*
X131491446Y-86355471D01*
X131499504Y-86377993D01*
X131505316Y-86401197D01*
X131508826Y-86424858D01*
X131510000Y-86448750D01*
X131510000Y-86936250D01*
X131508826Y-86960142D01*
X131505316Y-86983803D01*
X131499504Y-87007007D01*
X131491446Y-87029529D01*
X131481218Y-87051153D01*
X131468921Y-87071670D01*
X131454671Y-87090883D01*
X131438607Y-87108607D01*
X131420883Y-87124671D01*
X131401670Y-87138921D01*
X131381153Y-87151218D01*
X131359529Y-87161446D01*
X131337007Y-87169504D01*
X131313803Y-87175316D01*
X131290142Y-87178826D01*
X131266250Y-87180000D01*
X130353750Y-87180000D01*
X130329858Y-87178826D01*
X130306197Y-87175316D01*
X130282993Y-87169504D01*
X130260471Y-87161446D01*
X130238847Y-87151218D01*
X130218330Y-87138921D01*
X130199117Y-87124671D01*
X130181393Y-87108607D01*
X130165329Y-87090883D01*
X130151079Y-87071670D01*
X130138782Y-87051153D01*
X130128554Y-87029529D01*
X130120496Y-87007007D01*
X130114684Y-86983803D01*
X130111174Y-86960142D01*
X130110000Y-86936250D01*
X130110000Y-86448750D01*
X130111174Y-86424858D01*
X130114684Y-86401197D01*
X130120496Y-86377993D01*
X130128554Y-86355471D01*
X130138782Y-86333847D01*
X130151079Y-86313330D01*
X130165329Y-86294117D01*
X130181393Y-86276393D01*
X130199117Y-86260329D01*
X130218330Y-86246079D01*
X130238847Y-86233782D01*
X130260471Y-86223554D01*
X130282993Y-86215496D01*
X130306197Y-86209684D01*
X130329858Y-86206174D01*
X130353750Y-86205000D01*
X131266250Y-86205000D01*
X131290142Y-86206174D01*
G37*
G04 #@! TD.AperFunction*
D14*
X126244000Y-92260000D03*
D15*
X128347000Y-92710000D03*
D16*
X125610000Y-93725000D03*
X125610000Y-91695000D03*
D17*
X128347000Y-93676000D03*
X128347000Y-91744000D03*
D18*
X153670000Y-93980000D03*
X156210000Y-93980000D03*
X153670000Y-91440000D03*
X156210000Y-91440000D03*
X153670000Y-88900000D03*
X156210000Y-88900000D03*
X153670000Y-86360000D03*
X156210000Y-86360000D03*
X153670000Y-83820000D03*
X156210000Y-83820000D03*
X153670000Y-81280000D03*
D19*
X156210000Y-81280000D03*
G04 #@! TA.AperFunction,SMDPad,CuDef*
D13*
G36*
X161939504Y-83326204D02*
G01*
X161963773Y-83329804D01*
X161987571Y-83335765D01*
X162010671Y-83344030D01*
X162032849Y-83354520D01*
X162053893Y-83367133D01*
X162073598Y-83381747D01*
X162091777Y-83398223D01*
X162108253Y-83416402D01*
X162122867Y-83436107D01*
X162135480Y-83457151D01*
X162145970Y-83479329D01*
X162154235Y-83502429D01*
X162160196Y-83526227D01*
X162163796Y-83550496D01*
X162165000Y-83575000D01*
X162165000Y-84325000D01*
X162163796Y-84349504D01*
X162160196Y-84373773D01*
X162154235Y-84397571D01*
X162145970Y-84420671D01*
X162135480Y-84442849D01*
X162122867Y-84463893D01*
X162108253Y-84483598D01*
X162091777Y-84501777D01*
X162073598Y-84518253D01*
X162053893Y-84532867D01*
X162032849Y-84545480D01*
X162010671Y-84555970D01*
X161987571Y-84564235D01*
X161963773Y-84570196D01*
X161939504Y-84573796D01*
X161915000Y-84575000D01*
X160665000Y-84575000D01*
X160640496Y-84573796D01*
X160616227Y-84570196D01*
X160592429Y-84564235D01*
X160569329Y-84555970D01*
X160547151Y-84545480D01*
X160526107Y-84532867D01*
X160506402Y-84518253D01*
X160488223Y-84501777D01*
X160471747Y-84483598D01*
X160457133Y-84463893D01*
X160444520Y-84442849D01*
X160434030Y-84420671D01*
X160425765Y-84397571D01*
X160419804Y-84373773D01*
X160416204Y-84349504D01*
X160415000Y-84325000D01*
X160415000Y-83575000D01*
X160416204Y-83550496D01*
X160419804Y-83526227D01*
X160425765Y-83502429D01*
X160434030Y-83479329D01*
X160444520Y-83457151D01*
X160457133Y-83436107D01*
X160471747Y-83416402D01*
X160488223Y-83398223D01*
X160506402Y-83381747D01*
X160526107Y-83367133D01*
X160547151Y-83354520D01*
X160569329Y-83344030D01*
X160592429Y-83335765D01*
X160616227Y-83329804D01*
X160640496Y-83326204D01*
X160665000Y-83325000D01*
X161915000Y-83325000D01*
X161939504Y-83326204D01*
G37*
G04 #@! TD.AperFunction*
G04 #@! TA.AperFunction,SMDPad,CuDef*
G36*
X161939504Y-80526204D02*
G01*
X161963773Y-80529804D01*
X161987571Y-80535765D01*
X162010671Y-80544030D01*
X162032849Y-80554520D01*
X162053893Y-80567133D01*
X162073598Y-80581747D01*
X162091777Y-80598223D01*
X162108253Y-80616402D01*
X162122867Y-80636107D01*
X162135480Y-80657151D01*
X162145970Y-80679329D01*
X162154235Y-80702429D01*
X162160196Y-80726227D01*
X162163796Y-80750496D01*
X162165000Y-80775000D01*
X162165000Y-81525000D01*
X162163796Y-81549504D01*
X162160196Y-81573773D01*
X162154235Y-81597571D01*
X162145970Y-81620671D01*
X162135480Y-81642849D01*
X162122867Y-81663893D01*
X162108253Y-81683598D01*
X162091777Y-81701777D01*
X162073598Y-81718253D01*
X162053893Y-81732867D01*
X162032849Y-81745480D01*
X162010671Y-81755970D01*
X161987571Y-81764235D01*
X161963773Y-81770196D01*
X161939504Y-81773796D01*
X161915000Y-81775000D01*
X160665000Y-81775000D01*
X160640496Y-81773796D01*
X160616227Y-81770196D01*
X160592429Y-81764235D01*
X160569329Y-81755970D01*
X160547151Y-81745480D01*
X160526107Y-81732867D01*
X160506402Y-81718253D01*
X160488223Y-81701777D01*
X160471747Y-81683598D01*
X160457133Y-81663893D01*
X160444520Y-81642849D01*
X160434030Y-81620671D01*
X160425765Y-81597571D01*
X160419804Y-81573773D01*
X160416204Y-81549504D01*
X160415000Y-81525000D01*
X160415000Y-80775000D01*
X160416204Y-80750496D01*
X160419804Y-80726227D01*
X160425765Y-80702429D01*
X160434030Y-80679329D01*
X160444520Y-80657151D01*
X160457133Y-80636107D01*
X160471747Y-80616402D01*
X160488223Y-80598223D01*
X160506402Y-80581747D01*
X160526107Y-80567133D01*
X160547151Y-80554520D01*
X160569329Y-80544030D01*
X160592429Y-80535765D01*
X160616227Y-80529804D01*
X160640496Y-80526204D01*
X160665000Y-80525000D01*
X161915000Y-80525000D01*
X161939504Y-80526204D01*
G37*
G04 #@! TD.AperFunction*
G04 #@! TA.AperFunction,SMDPad,CuDef*
G36*
X161939504Y-90686204D02*
G01*
X161963773Y-90689804D01*
X161987571Y-90695765D01*
X162010671Y-90704030D01*
X162032849Y-90714520D01*
X162053893Y-90727133D01*
X162073598Y-90741747D01*
X162091777Y-90758223D01*
X162108253Y-90776402D01*
X162122867Y-90796107D01*
X162135480Y-90817151D01*
X162145970Y-90839329D01*
X162154235Y-90862429D01*
X162160196Y-90886227D01*
X162163796Y-90910496D01*
X162165000Y-90935000D01*
X162165000Y-91685000D01*
X162163796Y-91709504D01*
X162160196Y-91733773D01*
X162154235Y-91757571D01*
X162145970Y-91780671D01*
X162135480Y-91802849D01*
X162122867Y-91823893D01*
X162108253Y-91843598D01*
X162091777Y-91861777D01*
X162073598Y-91878253D01*
X162053893Y-91892867D01*
X162032849Y-91905480D01*
X162010671Y-91915970D01*
X161987571Y-91924235D01*
X161963773Y-91930196D01*
X161939504Y-91933796D01*
X161915000Y-91935000D01*
X160665000Y-91935000D01*
X160640496Y-91933796D01*
X160616227Y-91930196D01*
X160592429Y-91924235D01*
X160569329Y-91915970D01*
X160547151Y-91905480D01*
X160526107Y-91892867D01*
X160506402Y-91878253D01*
X160488223Y-91861777D01*
X160471747Y-91843598D01*
X160457133Y-91823893D01*
X160444520Y-91802849D01*
X160434030Y-91780671D01*
X160425765Y-91757571D01*
X160419804Y-91733773D01*
X160416204Y-91709504D01*
X160415000Y-91685000D01*
X160415000Y-90935000D01*
X160416204Y-90910496D01*
X160419804Y-90886227D01*
X160425765Y-90862429D01*
X160434030Y-90839329D01*
X160444520Y-90817151D01*
X160457133Y-90796107D01*
X160471747Y-90776402D01*
X160488223Y-90758223D01*
X160506402Y-90741747D01*
X160526107Y-90727133D01*
X160547151Y-90714520D01*
X160569329Y-90704030D01*
X160592429Y-90695765D01*
X160616227Y-90689804D01*
X160640496Y-90686204D01*
X160665000Y-90685000D01*
X161915000Y-90685000D01*
X161939504Y-90686204D01*
G37*
G04 #@! TD.AperFunction*
G04 #@! TA.AperFunction,SMDPad,CuDef*
G36*
X161939504Y-93486204D02*
G01*
X161963773Y-93489804D01*
X161987571Y-93495765D01*
X162010671Y-93504030D01*
X162032849Y-93514520D01*
X162053893Y-93527133D01*
X162073598Y-93541747D01*
X162091777Y-93558223D01*
X162108253Y-93576402D01*
X162122867Y-93596107D01*
X162135480Y-93617151D01*
X162145970Y-93639329D01*
X162154235Y-93662429D01*
X162160196Y-93686227D01*
X162163796Y-93710496D01*
X162165000Y-93735000D01*
X162165000Y-94485000D01*
X162163796Y-94509504D01*
X162160196Y-94533773D01*
X162154235Y-94557571D01*
X162145970Y-94580671D01*
X162135480Y-94602849D01*
X162122867Y-94623893D01*
X162108253Y-94643598D01*
X162091777Y-94661777D01*
X162073598Y-94678253D01*
X162053893Y-94692867D01*
X162032849Y-94705480D01*
X162010671Y-94715970D01*
X161987571Y-94724235D01*
X161963773Y-94730196D01*
X161939504Y-94733796D01*
X161915000Y-94735000D01*
X160665000Y-94735000D01*
X160640496Y-94733796D01*
X160616227Y-94730196D01*
X160592429Y-94724235D01*
X160569329Y-94715970D01*
X160547151Y-94705480D01*
X160526107Y-94692867D01*
X160506402Y-94678253D01*
X160488223Y-94661777D01*
X160471747Y-94643598D01*
X160457133Y-94623893D01*
X160444520Y-94602849D01*
X160434030Y-94580671D01*
X160425765Y-94557571D01*
X160419804Y-94533773D01*
X160416204Y-94509504D01*
X160415000Y-94485000D01*
X160415000Y-93735000D01*
X160416204Y-93710496D01*
X160419804Y-93686227D01*
X160425765Y-93662429D01*
X160434030Y-93639329D01*
X160444520Y-93617151D01*
X160457133Y-93596107D01*
X160471747Y-93576402D01*
X160488223Y-93558223D01*
X160506402Y-93541747D01*
X160526107Y-93527133D01*
X160547151Y-93514520D01*
X160569329Y-93504030D01*
X160592429Y-93495765D01*
X160616227Y-93489804D01*
X160640496Y-93486204D01*
X160665000Y-93485000D01*
X161915000Y-93485000D01*
X161939504Y-93486204D01*
G37*
G04 #@! TD.AperFunction*
G04 #@! TA.AperFunction,SMDPad,CuDef*
G36*
X126330142Y-86931174D02*
G01*
X126353803Y-86934684D01*
X126377007Y-86940496D01*
X126399529Y-86948554D01*
X126421153Y-86958782D01*
X126441670Y-86971079D01*
X126460883Y-86985329D01*
X126478607Y-87001393D01*
X126494671Y-87019117D01*
X126508921Y-87038330D01*
X126521218Y-87058847D01*
X126531446Y-87080471D01*
X126539504Y-87102993D01*
X126545316Y-87126197D01*
X126548826Y-87149858D01*
X126550000Y-87173750D01*
X126550000Y-88086250D01*
X126548826Y-88110142D01*
X126545316Y-88133803D01*
X126539504Y-88157007D01*
X126531446Y-88179529D01*
X126521218Y-88201153D01*
X126508921Y-88221670D01*
X126494671Y-88240883D01*
X126478607Y-88258607D01*
X126460883Y-88274671D01*
X126441670Y-88288921D01*
X126421153Y-88301218D01*
X126399529Y-88311446D01*
X126377007Y-88319504D01*
X126353803Y-88325316D01*
X126330142Y-88328826D01*
X126306250Y-88330000D01*
X125818750Y-88330000D01*
X125794858Y-88328826D01*
X125771197Y-88325316D01*
X125747993Y-88319504D01*
X125725471Y-88311446D01*
X125703847Y-88301218D01*
X125683330Y-88288921D01*
X125664117Y-88274671D01*
X125646393Y-88258607D01*
X125630329Y-88240883D01*
X125616079Y-88221670D01*
X125603782Y-88201153D01*
X125593554Y-88179529D01*
X125585496Y-88157007D01*
X125579684Y-88133803D01*
X125576174Y-88110142D01*
X125575000Y-88086250D01*
X125575000Y-87173750D01*
X125576174Y-87149858D01*
X125579684Y-87126197D01*
X125585496Y-87102993D01*
X125593554Y-87080471D01*
X125603782Y-87058847D01*
X125616079Y-87038330D01*
X125630329Y-87019117D01*
X125646393Y-87001393D01*
X125664117Y-86985329D01*
X125683330Y-86971079D01*
X125703847Y-86958782D01*
X125725471Y-86948554D01*
X125747993Y-86940496D01*
X125771197Y-86934684D01*
X125794858Y-86931174D01*
X125818750Y-86930000D01*
X126306250Y-86930000D01*
X126330142Y-86931174D01*
G37*
G04 #@! TD.AperFunction*
G04 #@! TA.AperFunction,SMDPad,CuDef*
G36*
X128205142Y-86931174D02*
G01*
X128228803Y-86934684D01*
X128252007Y-86940496D01*
X128274529Y-86948554D01*
X128296153Y-86958782D01*
X128316670Y-86971079D01*
X128335883Y-86985329D01*
X128353607Y-87001393D01*
X128369671Y-87019117D01*
X128383921Y-87038330D01*
X128396218Y-87058847D01*
X128406446Y-87080471D01*
X128414504Y-87102993D01*
X128420316Y-87126197D01*
X128423826Y-87149858D01*
X128425000Y-87173750D01*
X128425000Y-88086250D01*
X128423826Y-88110142D01*
X128420316Y-88133803D01*
X128414504Y-88157007D01*
X128406446Y-88179529D01*
X128396218Y-88201153D01*
X128383921Y-88221670D01*
X128369671Y-88240883D01*
X128353607Y-88258607D01*
X128335883Y-88274671D01*
X128316670Y-88288921D01*
X128296153Y-88301218D01*
X128274529Y-88311446D01*
X128252007Y-88319504D01*
X128228803Y-88325316D01*
X128205142Y-88328826D01*
X128181250Y-88330000D01*
X127693750Y-88330000D01*
X127669858Y-88328826D01*
X127646197Y-88325316D01*
X127622993Y-88319504D01*
X127600471Y-88311446D01*
X127578847Y-88301218D01*
X127558330Y-88288921D01*
X127539117Y-88274671D01*
X127521393Y-88258607D01*
X127505329Y-88240883D01*
X127491079Y-88221670D01*
X127478782Y-88201153D01*
X127468554Y-88179529D01*
X127460496Y-88157007D01*
X127454684Y-88133803D01*
X127451174Y-88110142D01*
X127450000Y-88086250D01*
X127450000Y-87173750D01*
X127451174Y-87149858D01*
X127454684Y-87126197D01*
X127460496Y-87102993D01*
X127468554Y-87080471D01*
X127478782Y-87058847D01*
X127491079Y-87038330D01*
X127505329Y-87019117D01*
X127521393Y-87001393D01*
X127539117Y-86985329D01*
X127558330Y-86971079D01*
X127578847Y-86958782D01*
X127600471Y-86948554D01*
X127622993Y-86940496D01*
X127646197Y-86934684D01*
X127669858Y-86931174D01*
X127693750Y-86930000D01*
X128181250Y-86930000D01*
X128205142Y-86931174D01*
G37*
G04 #@! TD.AperFunction*
D20*
X128347000Y-91744000D02*
X127304000Y-91744000D01*
X126062500Y-90502500D02*
X126062500Y-87630000D01*
X127304000Y-91744000D02*
X126062500Y-90502500D01*
X134050000Y-87630000D02*
X134685000Y-88265000D01*
X127937500Y-87630000D02*
X134050000Y-87630000D01*
X161290000Y-83950000D02*
X161290000Y-86360000D01*
X158750000Y-88900000D02*
X156210000Y-88900000D01*
X161290000Y-86360000D02*
X158750000Y-88900000D01*
X156340000Y-91310000D02*
X156210000Y-91440000D01*
X161290000Y-91310000D02*
X156340000Y-91310000D01*
X156210000Y-88900000D02*
X156210000Y-91440000D01*
X130810000Y-90679749D02*
X130810000Y-89055000D01*
X130810000Y-89055000D02*
X130810000Y-88567500D01*
X128779749Y-92710000D02*
X130810000Y-90679749D01*
X128347000Y-92710000D02*
X128779749Y-92710000D01*
X131954749Y-89535000D02*
X130810000Y-90679749D01*
X134685000Y-89535000D02*
X131954749Y-89535000D01*
X125610000Y-91695000D02*
X124595000Y-92710000D01*
X124595000Y-92710000D02*
X125610000Y-93725000D01*
X126007394Y-93725000D02*
X125610000Y-93725000D01*
X126899251Y-93725000D02*
X126007394Y-93725000D01*
X127914251Y-92710000D02*
X126899251Y-93725000D01*
X128347000Y-92710000D02*
X127914251Y-92710000D01*
X125610000Y-91695000D02*
X125610000Y-92590000D01*
X125610000Y-92590000D02*
X125730000Y-92710000D01*
X134685000Y-89535000D02*
X135320000Y-90170000D01*
X154940000Y-90170000D02*
X156210000Y-91440000D01*
X135320000Y-90170000D02*
X154940000Y-90170000D01*
X156340000Y-94110000D02*
X156210000Y-93980000D01*
X161290000Y-94110000D02*
X156340000Y-94110000D01*
X156210000Y-93980000D02*
X153670000Y-91440000D01*
X153670000Y-91440000D02*
X133350000Y-91440000D01*
X133350000Y-91440000D02*
X130810000Y-93980000D01*
X130506000Y-93676000D02*
X128347000Y-93676000D01*
X130810000Y-93980000D02*
X130506000Y-93676000D01*
X156340000Y-81150000D02*
X156210000Y-81280000D01*
X161290000Y-81150000D02*
X156340000Y-81150000D01*
X156210000Y-81280000D02*
X156210000Y-86360000D01*
X140610000Y-86995000D02*
X139635000Y-86995000D01*
X142240000Y-85365000D02*
X140610000Y-86995000D01*
X135890000Y-80010000D02*
X135890000Y-83820000D01*
X156040000Y-80010000D02*
X135890000Y-80010000D01*
X142240000Y-83820000D02*
X142240000Y-85365000D01*
X156210000Y-80180000D02*
X156040000Y-80010000D01*
X135890000Y-83820000D02*
X142240000Y-83820000D01*
X156210000Y-81280000D02*
X156210000Y-80180000D01*
X153670000Y-88900000D02*
X149527500Y-88900000D01*
X153670000Y-86360000D02*
X145717500Y-86360000D01*
X153670000Y-83820000D02*
X149195000Y-83820000D01*
X145717500Y-81280000D02*
X153670000Y-81280000D01*
X131112500Y-86995000D02*
X130810000Y-86692500D01*
X132715000Y-86995000D02*
X132715000Y-83517500D01*
X132715000Y-83517500D02*
X133350000Y-82882500D01*
X134685000Y-86995000D02*
X132715000Y-86995000D01*
X132715000Y-86995000D02*
X131112500Y-86995000D01*
X133350000Y-82882500D02*
X134952500Y-81280000D01*
X136827500Y-81280000D02*
X143842500Y-81280000D01*
X143842500Y-81280000D02*
X143842500Y-86360000D01*
X146382500Y-88900000D02*
X147652500Y-88900000D01*
X143842500Y-86360000D02*
X146382500Y-88900000D01*
X146382500Y-83820000D02*
X147320000Y-83820000D01*
X143842500Y-81280000D02*
X146382500Y-83820000D01*
X143540000Y-88265000D02*
X139635000Y-88265000D01*
X143842500Y-87962500D02*
X143842500Y-86360000D01*
X143540000Y-88265000D02*
X143842500Y-87962500D01*
M02*
