G04 #@! TF.GenerationSoftware,KiCad,Pcbnew,(5.1.5-0-10_14)*
G04 #@! TF.CreationDate,2020-03-24T20:34:03-05:00*
G04 #@! TF.ProjectId,Sensors,53656e73-6f72-4732-9e6b-696361645f70,rev?*
G04 #@! TF.SameCoordinates,Original*
G04 #@! TF.FileFunction,Legend,Bot*
G04 #@! TF.FilePolarity,Positive*
%FSLAX46Y46*%
G04 Gerber Fmt 4.6, Leading zero omitted, Abs format (unit mm)*
G04 Created by KiCad (PCBNEW (5.1.5-0-10_14)) date 2020-03-24 20:34:03*
%MOMM*%
%LPD*%
G04 APERTURE LIST*
%ADD10C,0.381000*%
%ADD11C,0.127000*%
G04 APERTURE END LIST*
D10*
X149225000Y-85511821D02*
X148952857Y-85602535D01*
X148499285Y-85602535D01*
X148317857Y-85511821D01*
X148227142Y-85421107D01*
X148136428Y-85239678D01*
X148136428Y-85058250D01*
X148227142Y-84876821D01*
X148317857Y-84786107D01*
X148499285Y-84695392D01*
X148862142Y-84604678D01*
X149043571Y-84513964D01*
X149134285Y-84423250D01*
X149225000Y-84241821D01*
X149225000Y-84060392D01*
X149134285Y-83878964D01*
X149043571Y-83788250D01*
X148862142Y-83697535D01*
X148408571Y-83697535D01*
X148136428Y-83788250D01*
X146594285Y-85511821D02*
X146775714Y-85602535D01*
X147138571Y-85602535D01*
X147320000Y-85511821D01*
X147410714Y-85330392D01*
X147410714Y-84604678D01*
X147320000Y-84423250D01*
X147138571Y-84332535D01*
X146775714Y-84332535D01*
X146594285Y-84423250D01*
X146503571Y-84604678D01*
X146503571Y-84786107D01*
X147410714Y-84967535D01*
X145687142Y-84332535D02*
X145687142Y-85602535D01*
X145687142Y-84513964D02*
X145596428Y-84423250D01*
X145415000Y-84332535D01*
X145142857Y-84332535D01*
X144961428Y-84423250D01*
X144870714Y-84604678D01*
X144870714Y-85602535D01*
X144054285Y-85511821D02*
X143872857Y-85602535D01*
X143510000Y-85602535D01*
X143328571Y-85511821D01*
X143237857Y-85330392D01*
X143237857Y-85239678D01*
X143328571Y-85058250D01*
X143510000Y-84967535D01*
X143782142Y-84967535D01*
X143963571Y-84876821D01*
X144054285Y-84695392D01*
X144054285Y-84604678D01*
X143963571Y-84423250D01*
X143782142Y-84332535D01*
X143510000Y-84332535D01*
X143328571Y-84423250D01*
X142149285Y-85602535D02*
X142330714Y-85511821D01*
X142421428Y-85421107D01*
X142512142Y-85239678D01*
X142512142Y-84695392D01*
X142421428Y-84513964D01*
X142330714Y-84423250D01*
X142149285Y-84332535D01*
X141877142Y-84332535D01*
X141695714Y-84423250D01*
X141605000Y-84513964D01*
X141514285Y-84695392D01*
X141514285Y-85239678D01*
X141605000Y-85421107D01*
X141695714Y-85511821D01*
X141877142Y-85602535D01*
X142149285Y-85602535D01*
X140697857Y-85602535D02*
X140697857Y-84332535D01*
X140697857Y-84695392D02*
X140607142Y-84513964D01*
X140516428Y-84423250D01*
X140335000Y-84332535D01*
X140153571Y-84332535D01*
X146957142Y-88841035D02*
X148045714Y-88841035D01*
X147501428Y-88841035D02*
X147501428Y-86936035D01*
X147682857Y-87208178D01*
X147864285Y-87389607D01*
X148045714Y-87480321D01*
X146140714Y-88659607D02*
X146050000Y-88750321D01*
X146140714Y-88841035D01*
X146231428Y-88750321D01*
X146140714Y-88659607D01*
X146140714Y-88841035D01*
X144870714Y-86936035D02*
X144689285Y-86936035D01*
X144507857Y-87026750D01*
X144417142Y-87117464D01*
X144326428Y-87298892D01*
X144235714Y-87661750D01*
X144235714Y-88115321D01*
X144326428Y-88478178D01*
X144417142Y-88659607D01*
X144507857Y-88750321D01*
X144689285Y-88841035D01*
X144870714Y-88841035D01*
X145052142Y-88750321D01*
X145142857Y-88659607D01*
X145233571Y-88478178D01*
X145324285Y-88115321D01*
X145324285Y-87661750D01*
X145233571Y-87298892D01*
X145142857Y-87117464D01*
X145052142Y-87026750D01*
X144870714Y-86936035D01*
X143419285Y-88659607D02*
X143328571Y-88750321D01*
X143419285Y-88841035D01*
X143510000Y-88750321D01*
X143419285Y-88659607D01*
X143419285Y-88841035D01*
X142693571Y-86936035D02*
X141423571Y-88841035D01*
X141423571Y-86936035D02*
X142693571Y-88841035D01*
D11*
X126460000Y-91440000D02*
G75*
G03X126460000Y-91440000I-3000000J0D01*
G01*
M02*
