G04 #@! TF.GenerationSoftware,KiCad,Pcbnew,(5.1.5-0-10_14)*
G04 #@! TF.CreationDate,2020-03-10T20:52:17-05:00*
G04 #@! TF.ProjectId,Sensors,53656e73-6f72-4732-9e6b-696361645f70,rev?*
G04 #@! TF.SameCoordinates,Original*
G04 #@! TF.FileFunction,Soldermask,Bot*
G04 #@! TF.FilePolarity,Negative*
%FSLAX46Y46*%
G04 Gerber Fmt 4.6, Leading zero omitted, Abs format (unit mm)*
G04 Created by KiCad (PCBNEW (5.1.5-0-10_14)) date 2020-03-10 20:52:17*
%MOMM*%
%LPD*%
G04 APERTURE LIST*
%ADD10C,0.100000*%
G04 APERTURE END LIST*
D10*
G36*
X156323512Y-93083927D02*
G01*
X156472812Y-93113624D01*
X156636784Y-93181544D01*
X156784354Y-93280147D01*
X156909853Y-93405646D01*
X157008456Y-93553216D01*
X157076376Y-93717188D01*
X157111000Y-93891259D01*
X157111000Y-94068741D01*
X157076376Y-94242812D01*
X157008456Y-94406784D01*
X156909853Y-94554354D01*
X156784354Y-94679853D01*
X156636784Y-94778456D01*
X156472812Y-94846376D01*
X156323512Y-94876073D01*
X156298742Y-94881000D01*
X156121258Y-94881000D01*
X156096488Y-94876073D01*
X155947188Y-94846376D01*
X155783216Y-94778456D01*
X155635646Y-94679853D01*
X155510147Y-94554354D01*
X155411544Y-94406784D01*
X155343624Y-94242812D01*
X155309000Y-94068741D01*
X155309000Y-93891259D01*
X155343624Y-93717188D01*
X155411544Y-93553216D01*
X155510147Y-93405646D01*
X155635646Y-93280147D01*
X155783216Y-93181544D01*
X155947188Y-93113624D01*
X156096488Y-93083927D01*
X156121258Y-93079000D01*
X156298742Y-93079000D01*
X156323512Y-93083927D01*
G37*
G36*
X153783512Y-93083927D02*
G01*
X153932812Y-93113624D01*
X154096784Y-93181544D01*
X154244354Y-93280147D01*
X154369853Y-93405646D01*
X154468456Y-93553216D01*
X154536376Y-93717188D01*
X154571000Y-93891259D01*
X154571000Y-94068741D01*
X154536376Y-94242812D01*
X154468456Y-94406784D01*
X154369853Y-94554354D01*
X154244354Y-94679853D01*
X154096784Y-94778456D01*
X153932812Y-94846376D01*
X153783512Y-94876073D01*
X153758742Y-94881000D01*
X153581258Y-94881000D01*
X153556488Y-94876073D01*
X153407188Y-94846376D01*
X153243216Y-94778456D01*
X153095646Y-94679853D01*
X152970147Y-94554354D01*
X152871544Y-94406784D01*
X152803624Y-94242812D01*
X152769000Y-94068741D01*
X152769000Y-93891259D01*
X152803624Y-93717188D01*
X152871544Y-93553216D01*
X152970147Y-93405646D01*
X153095646Y-93280147D01*
X153243216Y-93181544D01*
X153407188Y-93113624D01*
X153556488Y-93083927D01*
X153581258Y-93079000D01*
X153758742Y-93079000D01*
X153783512Y-93083927D01*
G37*
G36*
X126295337Y-92540763D02*
G01*
X126327367Y-92554030D01*
X126356194Y-92573292D01*
X126380708Y-92597806D01*
X126399970Y-92626633D01*
X126413237Y-92658663D01*
X126420000Y-92692665D01*
X126420000Y-92727335D01*
X126413237Y-92761337D01*
X126399970Y-92793367D01*
X126380708Y-92822194D01*
X126356194Y-92846708D01*
X126327367Y-92865970D01*
X126295337Y-92879237D01*
X126261335Y-92886000D01*
X126226665Y-92886000D01*
X126192663Y-92879237D01*
X126160633Y-92865970D01*
X126131806Y-92846708D01*
X126107292Y-92822194D01*
X126088030Y-92793367D01*
X126074763Y-92761337D01*
X126068000Y-92727335D01*
X126068000Y-92692665D01*
X126074763Y-92658663D01*
X126088030Y-92626633D01*
X126107292Y-92597806D01*
X126131806Y-92573292D01*
X126160633Y-92554030D01*
X126192663Y-92540763D01*
X126226665Y-92534000D01*
X126261335Y-92534000D01*
X126295337Y-92540763D01*
G37*
G36*
X156323512Y-90543927D02*
G01*
X156472812Y-90573624D01*
X156636784Y-90641544D01*
X156784354Y-90740147D01*
X156909853Y-90865646D01*
X157008456Y-91013216D01*
X157076376Y-91177188D01*
X157111000Y-91351259D01*
X157111000Y-91528741D01*
X157076376Y-91702812D01*
X157008456Y-91866784D01*
X156909853Y-92014354D01*
X156784354Y-92139853D01*
X156636784Y-92238456D01*
X156472812Y-92306376D01*
X156323512Y-92336073D01*
X156298742Y-92341000D01*
X156121258Y-92341000D01*
X156096488Y-92336073D01*
X155947188Y-92306376D01*
X155783216Y-92238456D01*
X155635646Y-92139853D01*
X155510147Y-92014354D01*
X155411544Y-91866784D01*
X155343624Y-91702812D01*
X155309000Y-91528741D01*
X155309000Y-91351259D01*
X155343624Y-91177188D01*
X155411544Y-91013216D01*
X155510147Y-90865646D01*
X155635646Y-90740147D01*
X155783216Y-90641544D01*
X155947188Y-90573624D01*
X156096488Y-90543927D01*
X156121258Y-90539000D01*
X156298742Y-90539000D01*
X156323512Y-90543927D01*
G37*
G36*
X153783512Y-90543927D02*
G01*
X153932812Y-90573624D01*
X154096784Y-90641544D01*
X154244354Y-90740147D01*
X154369853Y-90865646D01*
X154468456Y-91013216D01*
X154536376Y-91177188D01*
X154571000Y-91351259D01*
X154571000Y-91528741D01*
X154536376Y-91702812D01*
X154468456Y-91866784D01*
X154369853Y-92014354D01*
X154244354Y-92139853D01*
X154096784Y-92238456D01*
X153932812Y-92306376D01*
X153783512Y-92336073D01*
X153758742Y-92341000D01*
X153581258Y-92341000D01*
X153556488Y-92336073D01*
X153407188Y-92306376D01*
X153243216Y-92238456D01*
X153095646Y-92139853D01*
X152970147Y-92014354D01*
X152871544Y-91866784D01*
X152803624Y-91702812D01*
X152769000Y-91528741D01*
X152769000Y-91351259D01*
X152803624Y-91177188D01*
X152871544Y-91013216D01*
X152970147Y-90865646D01*
X153095646Y-90740147D01*
X153243216Y-90641544D01*
X153407188Y-90573624D01*
X153556488Y-90543927D01*
X153581258Y-90539000D01*
X153758742Y-90539000D01*
X153783512Y-90543927D01*
G37*
G36*
X156323512Y-88003927D02*
G01*
X156472812Y-88033624D01*
X156636784Y-88101544D01*
X156784354Y-88200147D01*
X156909853Y-88325646D01*
X157008456Y-88473216D01*
X157076376Y-88637188D01*
X157111000Y-88811259D01*
X157111000Y-88988741D01*
X157076376Y-89162812D01*
X157008456Y-89326784D01*
X156909853Y-89474354D01*
X156784354Y-89599853D01*
X156636784Y-89698456D01*
X156472812Y-89766376D01*
X156323512Y-89796073D01*
X156298742Y-89801000D01*
X156121258Y-89801000D01*
X156096488Y-89796073D01*
X155947188Y-89766376D01*
X155783216Y-89698456D01*
X155635646Y-89599853D01*
X155510147Y-89474354D01*
X155411544Y-89326784D01*
X155343624Y-89162812D01*
X155309000Y-88988741D01*
X155309000Y-88811259D01*
X155343624Y-88637188D01*
X155411544Y-88473216D01*
X155510147Y-88325646D01*
X155635646Y-88200147D01*
X155783216Y-88101544D01*
X155947188Y-88033624D01*
X156096488Y-88003927D01*
X156121258Y-87999000D01*
X156298742Y-87999000D01*
X156323512Y-88003927D01*
G37*
G36*
X153783512Y-88003927D02*
G01*
X153932812Y-88033624D01*
X154096784Y-88101544D01*
X154244354Y-88200147D01*
X154369853Y-88325646D01*
X154468456Y-88473216D01*
X154536376Y-88637188D01*
X154571000Y-88811259D01*
X154571000Y-88988741D01*
X154536376Y-89162812D01*
X154468456Y-89326784D01*
X154369853Y-89474354D01*
X154244354Y-89599853D01*
X154096784Y-89698456D01*
X153932812Y-89766376D01*
X153783512Y-89796073D01*
X153758742Y-89801000D01*
X153581258Y-89801000D01*
X153556488Y-89796073D01*
X153407188Y-89766376D01*
X153243216Y-89698456D01*
X153095646Y-89599853D01*
X152970147Y-89474354D01*
X152871544Y-89326784D01*
X152803624Y-89162812D01*
X152769000Y-88988741D01*
X152769000Y-88811259D01*
X152803624Y-88637188D01*
X152871544Y-88473216D01*
X152970147Y-88325646D01*
X153095646Y-88200147D01*
X153243216Y-88101544D01*
X153407188Y-88033624D01*
X153556488Y-88003927D01*
X153581258Y-87999000D01*
X153758742Y-87999000D01*
X153783512Y-88003927D01*
G37*
G36*
X156323512Y-85463927D02*
G01*
X156472812Y-85493624D01*
X156636784Y-85561544D01*
X156784354Y-85660147D01*
X156909853Y-85785646D01*
X157008456Y-85933216D01*
X157076376Y-86097188D01*
X157111000Y-86271259D01*
X157111000Y-86448741D01*
X157076376Y-86622812D01*
X157008456Y-86786784D01*
X156909853Y-86934354D01*
X156784354Y-87059853D01*
X156636784Y-87158456D01*
X156472812Y-87226376D01*
X156323512Y-87256073D01*
X156298742Y-87261000D01*
X156121258Y-87261000D01*
X156096488Y-87256073D01*
X155947188Y-87226376D01*
X155783216Y-87158456D01*
X155635646Y-87059853D01*
X155510147Y-86934354D01*
X155411544Y-86786784D01*
X155343624Y-86622812D01*
X155309000Y-86448741D01*
X155309000Y-86271259D01*
X155343624Y-86097188D01*
X155411544Y-85933216D01*
X155510147Y-85785646D01*
X155635646Y-85660147D01*
X155783216Y-85561544D01*
X155947188Y-85493624D01*
X156096488Y-85463927D01*
X156121258Y-85459000D01*
X156298742Y-85459000D01*
X156323512Y-85463927D01*
G37*
G36*
X153783512Y-85463927D02*
G01*
X153932812Y-85493624D01*
X154096784Y-85561544D01*
X154244354Y-85660147D01*
X154369853Y-85785646D01*
X154468456Y-85933216D01*
X154536376Y-86097188D01*
X154571000Y-86271259D01*
X154571000Y-86448741D01*
X154536376Y-86622812D01*
X154468456Y-86786784D01*
X154369853Y-86934354D01*
X154244354Y-87059853D01*
X154096784Y-87158456D01*
X153932812Y-87226376D01*
X153783512Y-87256073D01*
X153758742Y-87261000D01*
X153581258Y-87261000D01*
X153556488Y-87256073D01*
X153407188Y-87226376D01*
X153243216Y-87158456D01*
X153095646Y-87059853D01*
X152970147Y-86934354D01*
X152871544Y-86786784D01*
X152803624Y-86622812D01*
X152769000Y-86448741D01*
X152769000Y-86271259D01*
X152803624Y-86097188D01*
X152871544Y-85933216D01*
X152970147Y-85785646D01*
X153095646Y-85660147D01*
X153243216Y-85561544D01*
X153407188Y-85493624D01*
X153556488Y-85463927D01*
X153581258Y-85459000D01*
X153758742Y-85459000D01*
X153783512Y-85463927D01*
G37*
G36*
X156323512Y-82923927D02*
G01*
X156472812Y-82953624D01*
X156636784Y-83021544D01*
X156784354Y-83120147D01*
X156909853Y-83245646D01*
X157008456Y-83393216D01*
X157076376Y-83557188D01*
X157111000Y-83731259D01*
X157111000Y-83908741D01*
X157076376Y-84082812D01*
X157008456Y-84246784D01*
X156909853Y-84394354D01*
X156784354Y-84519853D01*
X156636784Y-84618456D01*
X156472812Y-84686376D01*
X156323512Y-84716073D01*
X156298742Y-84721000D01*
X156121258Y-84721000D01*
X156096488Y-84716073D01*
X155947188Y-84686376D01*
X155783216Y-84618456D01*
X155635646Y-84519853D01*
X155510147Y-84394354D01*
X155411544Y-84246784D01*
X155343624Y-84082812D01*
X155309000Y-83908741D01*
X155309000Y-83731259D01*
X155343624Y-83557188D01*
X155411544Y-83393216D01*
X155510147Y-83245646D01*
X155635646Y-83120147D01*
X155783216Y-83021544D01*
X155947188Y-82953624D01*
X156096488Y-82923927D01*
X156121258Y-82919000D01*
X156298742Y-82919000D01*
X156323512Y-82923927D01*
G37*
G36*
X153783512Y-82923927D02*
G01*
X153932812Y-82953624D01*
X154096784Y-83021544D01*
X154244354Y-83120147D01*
X154369853Y-83245646D01*
X154468456Y-83393216D01*
X154536376Y-83557188D01*
X154571000Y-83731259D01*
X154571000Y-83908741D01*
X154536376Y-84082812D01*
X154468456Y-84246784D01*
X154369853Y-84394354D01*
X154244354Y-84519853D01*
X154096784Y-84618456D01*
X153932812Y-84686376D01*
X153783512Y-84716073D01*
X153758742Y-84721000D01*
X153581258Y-84721000D01*
X153556488Y-84716073D01*
X153407188Y-84686376D01*
X153243216Y-84618456D01*
X153095646Y-84519853D01*
X152970147Y-84394354D01*
X152871544Y-84246784D01*
X152803624Y-84082812D01*
X152769000Y-83908741D01*
X152769000Y-83731259D01*
X152803624Y-83557188D01*
X152871544Y-83393216D01*
X152970147Y-83245646D01*
X153095646Y-83120147D01*
X153243216Y-83021544D01*
X153407188Y-82953624D01*
X153556488Y-82923927D01*
X153581258Y-82919000D01*
X153758742Y-82919000D01*
X153783512Y-82923927D01*
G37*
G36*
X157111000Y-82181000D02*
G01*
X155309000Y-82181000D01*
X155309000Y-80379000D01*
X157111000Y-80379000D01*
X157111000Y-82181000D01*
G37*
G36*
X153783512Y-80383927D02*
G01*
X153932812Y-80413624D01*
X154096784Y-80481544D01*
X154244354Y-80580147D01*
X154369853Y-80705646D01*
X154468456Y-80853216D01*
X154536376Y-81017188D01*
X154571000Y-81191259D01*
X154571000Y-81368741D01*
X154536376Y-81542812D01*
X154468456Y-81706784D01*
X154369853Y-81854354D01*
X154244354Y-81979853D01*
X154096784Y-82078456D01*
X153932812Y-82146376D01*
X153783512Y-82176073D01*
X153758742Y-82181000D01*
X153581258Y-82181000D01*
X153556488Y-82176073D01*
X153407188Y-82146376D01*
X153243216Y-82078456D01*
X153095646Y-81979853D01*
X152970147Y-81854354D01*
X152871544Y-81706784D01*
X152803624Y-81542812D01*
X152769000Y-81368741D01*
X152769000Y-81191259D01*
X152803624Y-81017188D01*
X152871544Y-80853216D01*
X152970147Y-80705646D01*
X153095646Y-80580147D01*
X153243216Y-80481544D01*
X153407188Y-80413624D01*
X153556488Y-80383927D01*
X153581258Y-80379000D01*
X153758742Y-80379000D01*
X153783512Y-80383927D01*
G37*
M02*
