G04 #@! TF.GenerationSoftware,KiCad,Pcbnew,(5.1.5-0-10_14)*
G04 #@! TF.CreationDate,2020-06-27T09:28:46-05:00*
G04 #@! TF.ProjectId,Sensors,53656e73-6f72-4732-9e6b-696361645f70,rev?*
G04 #@! TF.SameCoordinates,Original*
G04 #@! TF.FileFunction,Copper,L1,Top*
G04 #@! TF.FilePolarity,Positive*
%FSLAX46Y46*%
G04 Gerber Fmt 4.6, Leading zero omitted, Abs format (unit mm)*
G04 Created by KiCad (PCBNEW (5.1.5-0-10_14)) date 2020-06-27 09:28:46*
%MOMM*%
%LPD*%
G04 APERTURE LIST*
%ADD10C,1.208000*%
%ADD11C,0.100000*%
%ADD12O,1.700000X1.700000*%
%ADD13R,1.700000X1.700000*%
%ADD14R,2.290000X3.000000*%
%ADD15C,0.800000*%
%ADD16C,0.250000*%
%ADD17C,0.254000*%
G04 APERTURE END LIST*
D10*
X124730000Y-93030000D03*
X124730000Y-94930000D03*
G04 #@! TA.AperFunction,SMDPad,CuDef*
D11*
G36*
X146650142Y-88201174D02*
G01*
X146673803Y-88204684D01*
X146697007Y-88210496D01*
X146719529Y-88218554D01*
X146741153Y-88228782D01*
X146761670Y-88241079D01*
X146780883Y-88255329D01*
X146798607Y-88271393D01*
X146814671Y-88289117D01*
X146828921Y-88308330D01*
X146841218Y-88328847D01*
X146851446Y-88350471D01*
X146859504Y-88372993D01*
X146865316Y-88396197D01*
X146868826Y-88419858D01*
X146870000Y-88443750D01*
X146870000Y-89356250D01*
X146868826Y-89380142D01*
X146865316Y-89403803D01*
X146859504Y-89427007D01*
X146851446Y-89449529D01*
X146841218Y-89471153D01*
X146828921Y-89491670D01*
X146814671Y-89510883D01*
X146798607Y-89528607D01*
X146780883Y-89544671D01*
X146761670Y-89558921D01*
X146741153Y-89571218D01*
X146719529Y-89581446D01*
X146697007Y-89589504D01*
X146673803Y-89595316D01*
X146650142Y-89598826D01*
X146626250Y-89600000D01*
X146138750Y-89600000D01*
X146114858Y-89598826D01*
X146091197Y-89595316D01*
X146067993Y-89589504D01*
X146045471Y-89581446D01*
X146023847Y-89571218D01*
X146003330Y-89558921D01*
X145984117Y-89544671D01*
X145966393Y-89528607D01*
X145950329Y-89510883D01*
X145936079Y-89491670D01*
X145923782Y-89471153D01*
X145913554Y-89449529D01*
X145905496Y-89427007D01*
X145899684Y-89403803D01*
X145896174Y-89380142D01*
X145895000Y-89356250D01*
X145895000Y-88443750D01*
X145896174Y-88419858D01*
X145899684Y-88396197D01*
X145905496Y-88372993D01*
X145913554Y-88350471D01*
X145923782Y-88328847D01*
X145936079Y-88308330D01*
X145950329Y-88289117D01*
X145966393Y-88271393D01*
X145984117Y-88255329D01*
X146003330Y-88241079D01*
X146023847Y-88228782D01*
X146045471Y-88218554D01*
X146067993Y-88210496D01*
X146091197Y-88204684D01*
X146114858Y-88201174D01*
X146138750Y-88200000D01*
X146626250Y-88200000D01*
X146650142Y-88201174D01*
G37*
G04 #@! TD.AperFunction*
G04 #@! TA.AperFunction,SMDPad,CuDef*
G36*
X148525142Y-88201174D02*
G01*
X148548803Y-88204684D01*
X148572007Y-88210496D01*
X148594529Y-88218554D01*
X148616153Y-88228782D01*
X148636670Y-88241079D01*
X148655883Y-88255329D01*
X148673607Y-88271393D01*
X148689671Y-88289117D01*
X148703921Y-88308330D01*
X148716218Y-88328847D01*
X148726446Y-88350471D01*
X148734504Y-88372993D01*
X148740316Y-88396197D01*
X148743826Y-88419858D01*
X148745000Y-88443750D01*
X148745000Y-89356250D01*
X148743826Y-89380142D01*
X148740316Y-89403803D01*
X148734504Y-89427007D01*
X148726446Y-89449529D01*
X148716218Y-89471153D01*
X148703921Y-89491670D01*
X148689671Y-89510883D01*
X148673607Y-89528607D01*
X148655883Y-89544671D01*
X148636670Y-89558921D01*
X148616153Y-89571218D01*
X148594529Y-89581446D01*
X148572007Y-89589504D01*
X148548803Y-89595316D01*
X148525142Y-89598826D01*
X148501250Y-89600000D01*
X148013750Y-89600000D01*
X147989858Y-89598826D01*
X147966197Y-89595316D01*
X147942993Y-89589504D01*
X147920471Y-89581446D01*
X147898847Y-89571218D01*
X147878330Y-89558921D01*
X147859117Y-89544671D01*
X147841393Y-89528607D01*
X147825329Y-89510883D01*
X147811079Y-89491670D01*
X147798782Y-89471153D01*
X147788554Y-89449529D01*
X147780496Y-89427007D01*
X147774684Y-89403803D01*
X147771174Y-89380142D01*
X147770000Y-89356250D01*
X147770000Y-88443750D01*
X147771174Y-88419858D01*
X147774684Y-88396197D01*
X147780496Y-88372993D01*
X147788554Y-88350471D01*
X147798782Y-88328847D01*
X147811079Y-88308330D01*
X147825329Y-88289117D01*
X147841393Y-88271393D01*
X147859117Y-88255329D01*
X147878330Y-88241079D01*
X147898847Y-88228782D01*
X147920471Y-88218554D01*
X147942993Y-88210496D01*
X147966197Y-88204684D01*
X147989858Y-88201174D01*
X148013750Y-88200000D01*
X148501250Y-88200000D01*
X148525142Y-88201174D01*
G37*
G04 #@! TD.AperFunction*
G04 #@! TA.AperFunction,SMDPad,CuDef*
G36*
X146650142Y-83121174D02*
G01*
X146673803Y-83124684D01*
X146697007Y-83130496D01*
X146719529Y-83138554D01*
X146741153Y-83148782D01*
X146761670Y-83161079D01*
X146780883Y-83175329D01*
X146798607Y-83191393D01*
X146814671Y-83209117D01*
X146828921Y-83228330D01*
X146841218Y-83248847D01*
X146851446Y-83270471D01*
X146859504Y-83292993D01*
X146865316Y-83316197D01*
X146868826Y-83339858D01*
X146870000Y-83363750D01*
X146870000Y-84276250D01*
X146868826Y-84300142D01*
X146865316Y-84323803D01*
X146859504Y-84347007D01*
X146851446Y-84369529D01*
X146841218Y-84391153D01*
X146828921Y-84411670D01*
X146814671Y-84430883D01*
X146798607Y-84448607D01*
X146780883Y-84464671D01*
X146761670Y-84478921D01*
X146741153Y-84491218D01*
X146719529Y-84501446D01*
X146697007Y-84509504D01*
X146673803Y-84515316D01*
X146650142Y-84518826D01*
X146626250Y-84520000D01*
X146138750Y-84520000D01*
X146114858Y-84518826D01*
X146091197Y-84515316D01*
X146067993Y-84509504D01*
X146045471Y-84501446D01*
X146023847Y-84491218D01*
X146003330Y-84478921D01*
X145984117Y-84464671D01*
X145966393Y-84448607D01*
X145950329Y-84430883D01*
X145936079Y-84411670D01*
X145923782Y-84391153D01*
X145913554Y-84369529D01*
X145905496Y-84347007D01*
X145899684Y-84323803D01*
X145896174Y-84300142D01*
X145895000Y-84276250D01*
X145895000Y-83363750D01*
X145896174Y-83339858D01*
X145899684Y-83316197D01*
X145905496Y-83292993D01*
X145913554Y-83270471D01*
X145923782Y-83248847D01*
X145936079Y-83228330D01*
X145950329Y-83209117D01*
X145966393Y-83191393D01*
X145984117Y-83175329D01*
X146003330Y-83161079D01*
X146023847Y-83148782D01*
X146045471Y-83138554D01*
X146067993Y-83130496D01*
X146091197Y-83124684D01*
X146114858Y-83121174D01*
X146138750Y-83120000D01*
X146626250Y-83120000D01*
X146650142Y-83121174D01*
G37*
G04 #@! TD.AperFunction*
G04 #@! TA.AperFunction,SMDPad,CuDef*
G36*
X148525142Y-83121174D02*
G01*
X148548803Y-83124684D01*
X148572007Y-83130496D01*
X148594529Y-83138554D01*
X148616153Y-83148782D01*
X148636670Y-83161079D01*
X148655883Y-83175329D01*
X148673607Y-83191393D01*
X148689671Y-83209117D01*
X148703921Y-83228330D01*
X148716218Y-83248847D01*
X148726446Y-83270471D01*
X148734504Y-83292993D01*
X148740316Y-83316197D01*
X148743826Y-83339858D01*
X148745000Y-83363750D01*
X148745000Y-84276250D01*
X148743826Y-84300142D01*
X148740316Y-84323803D01*
X148734504Y-84347007D01*
X148726446Y-84369529D01*
X148716218Y-84391153D01*
X148703921Y-84411670D01*
X148689671Y-84430883D01*
X148673607Y-84448607D01*
X148655883Y-84464671D01*
X148636670Y-84478921D01*
X148616153Y-84491218D01*
X148594529Y-84501446D01*
X148572007Y-84509504D01*
X148548803Y-84515316D01*
X148525142Y-84518826D01*
X148501250Y-84520000D01*
X148013750Y-84520000D01*
X147989858Y-84518826D01*
X147966197Y-84515316D01*
X147942993Y-84509504D01*
X147920471Y-84501446D01*
X147898847Y-84491218D01*
X147878330Y-84478921D01*
X147859117Y-84464671D01*
X147841393Y-84448607D01*
X147825329Y-84430883D01*
X147811079Y-84411670D01*
X147798782Y-84391153D01*
X147788554Y-84369529D01*
X147780496Y-84347007D01*
X147774684Y-84323803D01*
X147771174Y-84300142D01*
X147770000Y-84276250D01*
X147770000Y-83363750D01*
X147771174Y-83339858D01*
X147774684Y-83316197D01*
X147780496Y-83292993D01*
X147788554Y-83270471D01*
X147798782Y-83248847D01*
X147811079Y-83228330D01*
X147825329Y-83209117D01*
X147841393Y-83191393D01*
X147859117Y-83175329D01*
X147878330Y-83161079D01*
X147898847Y-83148782D01*
X147920471Y-83138554D01*
X147942993Y-83130496D01*
X147966197Y-83124684D01*
X147989858Y-83121174D01*
X148013750Y-83120000D01*
X148501250Y-83120000D01*
X148525142Y-83121174D01*
G37*
G04 #@! TD.AperFunction*
G04 #@! TA.AperFunction,SMDPad,CuDef*
G36*
X146650142Y-85661174D02*
G01*
X146673803Y-85664684D01*
X146697007Y-85670496D01*
X146719529Y-85678554D01*
X146741153Y-85688782D01*
X146761670Y-85701079D01*
X146780883Y-85715329D01*
X146798607Y-85731393D01*
X146814671Y-85749117D01*
X146828921Y-85768330D01*
X146841218Y-85788847D01*
X146851446Y-85810471D01*
X146859504Y-85832993D01*
X146865316Y-85856197D01*
X146868826Y-85879858D01*
X146870000Y-85903750D01*
X146870000Y-86816250D01*
X146868826Y-86840142D01*
X146865316Y-86863803D01*
X146859504Y-86887007D01*
X146851446Y-86909529D01*
X146841218Y-86931153D01*
X146828921Y-86951670D01*
X146814671Y-86970883D01*
X146798607Y-86988607D01*
X146780883Y-87004671D01*
X146761670Y-87018921D01*
X146741153Y-87031218D01*
X146719529Y-87041446D01*
X146697007Y-87049504D01*
X146673803Y-87055316D01*
X146650142Y-87058826D01*
X146626250Y-87060000D01*
X146138750Y-87060000D01*
X146114858Y-87058826D01*
X146091197Y-87055316D01*
X146067993Y-87049504D01*
X146045471Y-87041446D01*
X146023847Y-87031218D01*
X146003330Y-87018921D01*
X145984117Y-87004671D01*
X145966393Y-86988607D01*
X145950329Y-86970883D01*
X145936079Y-86951670D01*
X145923782Y-86931153D01*
X145913554Y-86909529D01*
X145905496Y-86887007D01*
X145899684Y-86863803D01*
X145896174Y-86840142D01*
X145895000Y-86816250D01*
X145895000Y-85903750D01*
X145896174Y-85879858D01*
X145899684Y-85856197D01*
X145905496Y-85832993D01*
X145913554Y-85810471D01*
X145923782Y-85788847D01*
X145936079Y-85768330D01*
X145950329Y-85749117D01*
X145966393Y-85731393D01*
X145984117Y-85715329D01*
X146003330Y-85701079D01*
X146023847Y-85688782D01*
X146045471Y-85678554D01*
X146067993Y-85670496D01*
X146091197Y-85664684D01*
X146114858Y-85661174D01*
X146138750Y-85660000D01*
X146626250Y-85660000D01*
X146650142Y-85661174D01*
G37*
G04 #@! TD.AperFunction*
G04 #@! TA.AperFunction,SMDPad,CuDef*
G36*
X148525142Y-85661174D02*
G01*
X148548803Y-85664684D01*
X148572007Y-85670496D01*
X148594529Y-85678554D01*
X148616153Y-85688782D01*
X148636670Y-85701079D01*
X148655883Y-85715329D01*
X148673607Y-85731393D01*
X148689671Y-85749117D01*
X148703921Y-85768330D01*
X148716218Y-85788847D01*
X148726446Y-85810471D01*
X148734504Y-85832993D01*
X148740316Y-85856197D01*
X148743826Y-85879858D01*
X148745000Y-85903750D01*
X148745000Y-86816250D01*
X148743826Y-86840142D01*
X148740316Y-86863803D01*
X148734504Y-86887007D01*
X148726446Y-86909529D01*
X148716218Y-86931153D01*
X148703921Y-86951670D01*
X148689671Y-86970883D01*
X148673607Y-86988607D01*
X148655883Y-87004671D01*
X148636670Y-87018921D01*
X148616153Y-87031218D01*
X148594529Y-87041446D01*
X148572007Y-87049504D01*
X148548803Y-87055316D01*
X148525142Y-87058826D01*
X148501250Y-87060000D01*
X148013750Y-87060000D01*
X147989858Y-87058826D01*
X147966197Y-87055316D01*
X147942993Y-87049504D01*
X147920471Y-87041446D01*
X147898847Y-87031218D01*
X147878330Y-87018921D01*
X147859117Y-87004671D01*
X147841393Y-86988607D01*
X147825329Y-86970883D01*
X147811079Y-86951670D01*
X147798782Y-86931153D01*
X147788554Y-86909529D01*
X147780496Y-86887007D01*
X147774684Y-86863803D01*
X147771174Y-86840142D01*
X147770000Y-86816250D01*
X147770000Y-85903750D01*
X147771174Y-85879858D01*
X147774684Y-85856197D01*
X147780496Y-85832993D01*
X147788554Y-85810471D01*
X147798782Y-85788847D01*
X147811079Y-85768330D01*
X147825329Y-85749117D01*
X147841393Y-85731393D01*
X147859117Y-85715329D01*
X147878330Y-85701079D01*
X147898847Y-85688782D01*
X147920471Y-85678554D01*
X147942993Y-85670496D01*
X147966197Y-85664684D01*
X147989858Y-85661174D01*
X148013750Y-85660000D01*
X148501250Y-85660000D01*
X148525142Y-85661174D01*
G37*
G04 #@! TD.AperFunction*
G04 #@! TA.AperFunction,SMDPad,CuDef*
G36*
X146650142Y-80581174D02*
G01*
X146673803Y-80584684D01*
X146697007Y-80590496D01*
X146719529Y-80598554D01*
X146741153Y-80608782D01*
X146761670Y-80621079D01*
X146780883Y-80635329D01*
X146798607Y-80651393D01*
X146814671Y-80669117D01*
X146828921Y-80688330D01*
X146841218Y-80708847D01*
X146851446Y-80730471D01*
X146859504Y-80752993D01*
X146865316Y-80776197D01*
X146868826Y-80799858D01*
X146870000Y-80823750D01*
X146870000Y-81736250D01*
X146868826Y-81760142D01*
X146865316Y-81783803D01*
X146859504Y-81807007D01*
X146851446Y-81829529D01*
X146841218Y-81851153D01*
X146828921Y-81871670D01*
X146814671Y-81890883D01*
X146798607Y-81908607D01*
X146780883Y-81924671D01*
X146761670Y-81938921D01*
X146741153Y-81951218D01*
X146719529Y-81961446D01*
X146697007Y-81969504D01*
X146673803Y-81975316D01*
X146650142Y-81978826D01*
X146626250Y-81980000D01*
X146138750Y-81980000D01*
X146114858Y-81978826D01*
X146091197Y-81975316D01*
X146067993Y-81969504D01*
X146045471Y-81961446D01*
X146023847Y-81951218D01*
X146003330Y-81938921D01*
X145984117Y-81924671D01*
X145966393Y-81908607D01*
X145950329Y-81890883D01*
X145936079Y-81871670D01*
X145923782Y-81851153D01*
X145913554Y-81829529D01*
X145905496Y-81807007D01*
X145899684Y-81783803D01*
X145896174Y-81760142D01*
X145895000Y-81736250D01*
X145895000Y-80823750D01*
X145896174Y-80799858D01*
X145899684Y-80776197D01*
X145905496Y-80752993D01*
X145913554Y-80730471D01*
X145923782Y-80708847D01*
X145936079Y-80688330D01*
X145950329Y-80669117D01*
X145966393Y-80651393D01*
X145984117Y-80635329D01*
X146003330Y-80621079D01*
X146023847Y-80608782D01*
X146045471Y-80598554D01*
X146067993Y-80590496D01*
X146091197Y-80584684D01*
X146114858Y-80581174D01*
X146138750Y-80580000D01*
X146626250Y-80580000D01*
X146650142Y-80581174D01*
G37*
G04 #@! TD.AperFunction*
G04 #@! TA.AperFunction,SMDPad,CuDef*
G36*
X148525142Y-80581174D02*
G01*
X148548803Y-80584684D01*
X148572007Y-80590496D01*
X148594529Y-80598554D01*
X148616153Y-80608782D01*
X148636670Y-80621079D01*
X148655883Y-80635329D01*
X148673607Y-80651393D01*
X148689671Y-80669117D01*
X148703921Y-80688330D01*
X148716218Y-80708847D01*
X148726446Y-80730471D01*
X148734504Y-80752993D01*
X148740316Y-80776197D01*
X148743826Y-80799858D01*
X148745000Y-80823750D01*
X148745000Y-81736250D01*
X148743826Y-81760142D01*
X148740316Y-81783803D01*
X148734504Y-81807007D01*
X148726446Y-81829529D01*
X148716218Y-81851153D01*
X148703921Y-81871670D01*
X148689671Y-81890883D01*
X148673607Y-81908607D01*
X148655883Y-81924671D01*
X148636670Y-81938921D01*
X148616153Y-81951218D01*
X148594529Y-81961446D01*
X148572007Y-81969504D01*
X148548803Y-81975316D01*
X148525142Y-81978826D01*
X148501250Y-81980000D01*
X148013750Y-81980000D01*
X147989858Y-81978826D01*
X147966197Y-81975316D01*
X147942993Y-81969504D01*
X147920471Y-81961446D01*
X147898847Y-81951218D01*
X147878330Y-81938921D01*
X147859117Y-81924671D01*
X147841393Y-81908607D01*
X147825329Y-81890883D01*
X147811079Y-81871670D01*
X147798782Y-81851153D01*
X147788554Y-81829529D01*
X147780496Y-81807007D01*
X147774684Y-81783803D01*
X147771174Y-81760142D01*
X147770000Y-81736250D01*
X147770000Y-80823750D01*
X147771174Y-80799858D01*
X147774684Y-80776197D01*
X147780496Y-80752993D01*
X147788554Y-80730471D01*
X147798782Y-80708847D01*
X147811079Y-80688330D01*
X147825329Y-80669117D01*
X147841393Y-80651393D01*
X147859117Y-80635329D01*
X147878330Y-80621079D01*
X147898847Y-80608782D01*
X147920471Y-80598554D01*
X147942993Y-80590496D01*
X147966197Y-80584684D01*
X147989858Y-80581174D01*
X148013750Y-80580000D01*
X148501250Y-80580000D01*
X148525142Y-80581174D01*
G37*
G04 #@! TD.AperFunction*
G04 #@! TA.AperFunction,SMDPad,CuDef*
G36*
X144919504Y-90566204D02*
G01*
X144943773Y-90569804D01*
X144967571Y-90575765D01*
X144990671Y-90584030D01*
X145012849Y-90594520D01*
X145033893Y-90607133D01*
X145053598Y-90621747D01*
X145071777Y-90638223D01*
X145088253Y-90656402D01*
X145102867Y-90676107D01*
X145115480Y-90697151D01*
X145125970Y-90719329D01*
X145134235Y-90742429D01*
X145140196Y-90766227D01*
X145143796Y-90790496D01*
X145145000Y-90815000D01*
X145145000Y-92065000D01*
X145143796Y-92089504D01*
X145140196Y-92113773D01*
X145134235Y-92137571D01*
X145125970Y-92160671D01*
X145115480Y-92182849D01*
X145102867Y-92203893D01*
X145088253Y-92223598D01*
X145071777Y-92241777D01*
X145053598Y-92258253D01*
X145033893Y-92272867D01*
X145012849Y-92285480D01*
X144990671Y-92295970D01*
X144967571Y-92304235D01*
X144943773Y-92310196D01*
X144919504Y-92313796D01*
X144895000Y-92315000D01*
X144145000Y-92315000D01*
X144120496Y-92313796D01*
X144096227Y-92310196D01*
X144072429Y-92304235D01*
X144049329Y-92295970D01*
X144027151Y-92285480D01*
X144006107Y-92272867D01*
X143986402Y-92258253D01*
X143968223Y-92241777D01*
X143951747Y-92223598D01*
X143937133Y-92203893D01*
X143924520Y-92182849D01*
X143914030Y-92160671D01*
X143905765Y-92137571D01*
X143899804Y-92113773D01*
X143896204Y-92089504D01*
X143895000Y-92065000D01*
X143895000Y-90815000D01*
X143896204Y-90790496D01*
X143899804Y-90766227D01*
X143905765Y-90742429D01*
X143914030Y-90719329D01*
X143924520Y-90697151D01*
X143937133Y-90676107D01*
X143951747Y-90656402D01*
X143968223Y-90638223D01*
X143986402Y-90621747D01*
X144006107Y-90607133D01*
X144027151Y-90594520D01*
X144049329Y-90584030D01*
X144072429Y-90575765D01*
X144096227Y-90569804D01*
X144120496Y-90566204D01*
X144145000Y-90565000D01*
X144895000Y-90565000D01*
X144919504Y-90566204D01*
G37*
G04 #@! TD.AperFunction*
G04 #@! TA.AperFunction,SMDPad,CuDef*
G36*
X147719504Y-90566204D02*
G01*
X147743773Y-90569804D01*
X147767571Y-90575765D01*
X147790671Y-90584030D01*
X147812849Y-90594520D01*
X147833893Y-90607133D01*
X147853598Y-90621747D01*
X147871777Y-90638223D01*
X147888253Y-90656402D01*
X147902867Y-90676107D01*
X147915480Y-90697151D01*
X147925970Y-90719329D01*
X147934235Y-90742429D01*
X147940196Y-90766227D01*
X147943796Y-90790496D01*
X147945000Y-90815000D01*
X147945000Y-92065000D01*
X147943796Y-92089504D01*
X147940196Y-92113773D01*
X147934235Y-92137571D01*
X147925970Y-92160671D01*
X147915480Y-92182849D01*
X147902867Y-92203893D01*
X147888253Y-92223598D01*
X147871777Y-92241777D01*
X147853598Y-92258253D01*
X147833893Y-92272867D01*
X147812849Y-92285480D01*
X147790671Y-92295970D01*
X147767571Y-92304235D01*
X147743773Y-92310196D01*
X147719504Y-92313796D01*
X147695000Y-92315000D01*
X146945000Y-92315000D01*
X146920496Y-92313796D01*
X146896227Y-92310196D01*
X146872429Y-92304235D01*
X146849329Y-92295970D01*
X146827151Y-92285480D01*
X146806107Y-92272867D01*
X146786402Y-92258253D01*
X146768223Y-92241777D01*
X146751747Y-92223598D01*
X146737133Y-92203893D01*
X146724520Y-92182849D01*
X146714030Y-92160671D01*
X146705765Y-92137571D01*
X146699804Y-92113773D01*
X146696204Y-92089504D01*
X146695000Y-92065000D01*
X146695000Y-90815000D01*
X146696204Y-90790496D01*
X146699804Y-90766227D01*
X146705765Y-90742429D01*
X146714030Y-90719329D01*
X146724520Y-90697151D01*
X146737133Y-90676107D01*
X146751747Y-90656402D01*
X146768223Y-90638223D01*
X146786402Y-90621747D01*
X146806107Y-90607133D01*
X146827151Y-90594520D01*
X146849329Y-90584030D01*
X146872429Y-90575765D01*
X146896227Y-90569804D01*
X146920496Y-90566204D01*
X146945000Y-90565000D01*
X147695000Y-90565000D01*
X147719504Y-90566204D01*
G37*
G04 #@! TD.AperFunction*
D12*
X162560000Y-93980000D03*
X160020000Y-93980000D03*
X162560000Y-91440000D03*
X160020000Y-91440000D03*
X162560000Y-88900000D03*
X160020000Y-88900000D03*
X162560000Y-86360000D03*
X160020000Y-86360000D03*
X162560000Y-83820000D03*
X160020000Y-83820000D03*
X162560000Y-81280000D03*
D13*
X160020000Y-81280000D03*
G04 #@! TA.AperFunction,SMDPad,CuDef*
D11*
G36*
X127932642Y-80581174D02*
G01*
X127956303Y-80584684D01*
X127979507Y-80590496D01*
X128002029Y-80598554D01*
X128023653Y-80608782D01*
X128044170Y-80621079D01*
X128063383Y-80635329D01*
X128081107Y-80651393D01*
X128097171Y-80669117D01*
X128111421Y-80688330D01*
X128123718Y-80708847D01*
X128133946Y-80730471D01*
X128142004Y-80752993D01*
X128147816Y-80776197D01*
X128151326Y-80799858D01*
X128152500Y-80823750D01*
X128152500Y-81736250D01*
X128151326Y-81760142D01*
X128147816Y-81783803D01*
X128142004Y-81807007D01*
X128133946Y-81829529D01*
X128123718Y-81851153D01*
X128111421Y-81871670D01*
X128097171Y-81890883D01*
X128081107Y-81908607D01*
X128063383Y-81924671D01*
X128044170Y-81938921D01*
X128023653Y-81951218D01*
X128002029Y-81961446D01*
X127979507Y-81969504D01*
X127956303Y-81975316D01*
X127932642Y-81978826D01*
X127908750Y-81980000D01*
X127421250Y-81980000D01*
X127397358Y-81978826D01*
X127373697Y-81975316D01*
X127350493Y-81969504D01*
X127327971Y-81961446D01*
X127306347Y-81951218D01*
X127285830Y-81938921D01*
X127266617Y-81924671D01*
X127248893Y-81908607D01*
X127232829Y-81890883D01*
X127218579Y-81871670D01*
X127206282Y-81851153D01*
X127196054Y-81829529D01*
X127187996Y-81807007D01*
X127182184Y-81783803D01*
X127178674Y-81760142D01*
X127177500Y-81736250D01*
X127177500Y-80823750D01*
X127178674Y-80799858D01*
X127182184Y-80776197D01*
X127187996Y-80752993D01*
X127196054Y-80730471D01*
X127206282Y-80708847D01*
X127218579Y-80688330D01*
X127232829Y-80669117D01*
X127248893Y-80651393D01*
X127266617Y-80635329D01*
X127285830Y-80621079D01*
X127306347Y-80608782D01*
X127327971Y-80598554D01*
X127350493Y-80590496D01*
X127373697Y-80584684D01*
X127397358Y-80581174D01*
X127421250Y-80580000D01*
X127908750Y-80580000D01*
X127932642Y-80581174D01*
G37*
G04 #@! TD.AperFunction*
G04 #@! TA.AperFunction,SMDPad,CuDef*
G36*
X129807642Y-80581174D02*
G01*
X129831303Y-80584684D01*
X129854507Y-80590496D01*
X129877029Y-80598554D01*
X129898653Y-80608782D01*
X129919170Y-80621079D01*
X129938383Y-80635329D01*
X129956107Y-80651393D01*
X129972171Y-80669117D01*
X129986421Y-80688330D01*
X129998718Y-80708847D01*
X130008946Y-80730471D01*
X130017004Y-80752993D01*
X130022816Y-80776197D01*
X130026326Y-80799858D01*
X130027500Y-80823750D01*
X130027500Y-81736250D01*
X130026326Y-81760142D01*
X130022816Y-81783803D01*
X130017004Y-81807007D01*
X130008946Y-81829529D01*
X129998718Y-81851153D01*
X129986421Y-81871670D01*
X129972171Y-81890883D01*
X129956107Y-81908607D01*
X129938383Y-81924671D01*
X129919170Y-81938921D01*
X129898653Y-81951218D01*
X129877029Y-81961446D01*
X129854507Y-81969504D01*
X129831303Y-81975316D01*
X129807642Y-81978826D01*
X129783750Y-81980000D01*
X129296250Y-81980000D01*
X129272358Y-81978826D01*
X129248697Y-81975316D01*
X129225493Y-81969504D01*
X129202971Y-81961446D01*
X129181347Y-81951218D01*
X129160830Y-81938921D01*
X129141617Y-81924671D01*
X129123893Y-81908607D01*
X129107829Y-81890883D01*
X129093579Y-81871670D01*
X129081282Y-81851153D01*
X129071054Y-81829529D01*
X129062996Y-81807007D01*
X129057184Y-81783803D01*
X129053674Y-81760142D01*
X129052500Y-81736250D01*
X129052500Y-80823750D01*
X129053674Y-80799858D01*
X129057184Y-80776197D01*
X129062996Y-80752993D01*
X129071054Y-80730471D01*
X129081282Y-80708847D01*
X129093579Y-80688330D01*
X129107829Y-80669117D01*
X129123893Y-80651393D01*
X129141617Y-80635329D01*
X129160830Y-80621079D01*
X129181347Y-80608782D01*
X129202971Y-80598554D01*
X129225493Y-80590496D01*
X129248697Y-80584684D01*
X129272358Y-80581174D01*
X129296250Y-80580000D01*
X129783750Y-80580000D01*
X129807642Y-80581174D01*
G37*
G04 #@! TD.AperFunction*
D14*
X139700000Y-87630000D03*
G04 #@! TA.AperFunction,SMDPad,CuDef*
D11*
G36*
X143014703Y-85425722D02*
G01*
X143029264Y-85427882D01*
X143043543Y-85431459D01*
X143057403Y-85436418D01*
X143070710Y-85442712D01*
X143083336Y-85450280D01*
X143095159Y-85459048D01*
X143106066Y-85468934D01*
X143115952Y-85479841D01*
X143124720Y-85491664D01*
X143132288Y-85504290D01*
X143138582Y-85517597D01*
X143143541Y-85531457D01*
X143147118Y-85545736D01*
X143149278Y-85560297D01*
X143150000Y-85575000D01*
X143150000Y-85875000D01*
X143149278Y-85889703D01*
X143147118Y-85904264D01*
X143143541Y-85918543D01*
X143138582Y-85932403D01*
X143132288Y-85945710D01*
X143124720Y-85958336D01*
X143115952Y-85970159D01*
X143106066Y-85981066D01*
X143095159Y-85990952D01*
X143083336Y-85999720D01*
X143070710Y-86007288D01*
X143057403Y-86013582D01*
X143043543Y-86018541D01*
X143029264Y-86022118D01*
X143014703Y-86024278D01*
X143000000Y-86025000D01*
X141350000Y-86025000D01*
X141335297Y-86024278D01*
X141320736Y-86022118D01*
X141306457Y-86018541D01*
X141292597Y-86013582D01*
X141279290Y-86007288D01*
X141266664Y-85999720D01*
X141254841Y-85990952D01*
X141243934Y-85981066D01*
X141234048Y-85970159D01*
X141225280Y-85958336D01*
X141217712Y-85945710D01*
X141211418Y-85932403D01*
X141206459Y-85918543D01*
X141202882Y-85904264D01*
X141200722Y-85889703D01*
X141200000Y-85875000D01*
X141200000Y-85575000D01*
X141200722Y-85560297D01*
X141202882Y-85545736D01*
X141206459Y-85531457D01*
X141211418Y-85517597D01*
X141217712Y-85504290D01*
X141225280Y-85491664D01*
X141234048Y-85479841D01*
X141243934Y-85468934D01*
X141254841Y-85459048D01*
X141266664Y-85450280D01*
X141279290Y-85442712D01*
X141292597Y-85436418D01*
X141306457Y-85431459D01*
X141320736Y-85427882D01*
X141335297Y-85425722D01*
X141350000Y-85425000D01*
X143000000Y-85425000D01*
X143014703Y-85425722D01*
G37*
G04 #@! TD.AperFunction*
G04 #@! TA.AperFunction,SMDPad,CuDef*
G36*
X143014703Y-86695722D02*
G01*
X143029264Y-86697882D01*
X143043543Y-86701459D01*
X143057403Y-86706418D01*
X143070710Y-86712712D01*
X143083336Y-86720280D01*
X143095159Y-86729048D01*
X143106066Y-86738934D01*
X143115952Y-86749841D01*
X143124720Y-86761664D01*
X143132288Y-86774290D01*
X143138582Y-86787597D01*
X143143541Y-86801457D01*
X143147118Y-86815736D01*
X143149278Y-86830297D01*
X143150000Y-86845000D01*
X143150000Y-87145000D01*
X143149278Y-87159703D01*
X143147118Y-87174264D01*
X143143541Y-87188543D01*
X143138582Y-87202403D01*
X143132288Y-87215710D01*
X143124720Y-87228336D01*
X143115952Y-87240159D01*
X143106066Y-87251066D01*
X143095159Y-87260952D01*
X143083336Y-87269720D01*
X143070710Y-87277288D01*
X143057403Y-87283582D01*
X143043543Y-87288541D01*
X143029264Y-87292118D01*
X143014703Y-87294278D01*
X143000000Y-87295000D01*
X141350000Y-87295000D01*
X141335297Y-87294278D01*
X141320736Y-87292118D01*
X141306457Y-87288541D01*
X141292597Y-87283582D01*
X141279290Y-87277288D01*
X141266664Y-87269720D01*
X141254841Y-87260952D01*
X141243934Y-87251066D01*
X141234048Y-87240159D01*
X141225280Y-87228336D01*
X141217712Y-87215710D01*
X141211418Y-87202403D01*
X141206459Y-87188543D01*
X141202882Y-87174264D01*
X141200722Y-87159703D01*
X141200000Y-87145000D01*
X141200000Y-86845000D01*
X141200722Y-86830297D01*
X141202882Y-86815736D01*
X141206459Y-86801457D01*
X141211418Y-86787597D01*
X141217712Y-86774290D01*
X141225280Y-86761664D01*
X141234048Y-86749841D01*
X141243934Y-86738934D01*
X141254841Y-86729048D01*
X141266664Y-86720280D01*
X141279290Y-86712712D01*
X141292597Y-86706418D01*
X141306457Y-86701459D01*
X141320736Y-86697882D01*
X141335297Y-86695722D01*
X141350000Y-86695000D01*
X143000000Y-86695000D01*
X143014703Y-86695722D01*
G37*
G04 #@! TD.AperFunction*
G04 #@! TA.AperFunction,SMDPad,CuDef*
G36*
X143014703Y-87965722D02*
G01*
X143029264Y-87967882D01*
X143043543Y-87971459D01*
X143057403Y-87976418D01*
X143070710Y-87982712D01*
X143083336Y-87990280D01*
X143095159Y-87999048D01*
X143106066Y-88008934D01*
X143115952Y-88019841D01*
X143124720Y-88031664D01*
X143132288Y-88044290D01*
X143138582Y-88057597D01*
X143143541Y-88071457D01*
X143147118Y-88085736D01*
X143149278Y-88100297D01*
X143150000Y-88115000D01*
X143150000Y-88415000D01*
X143149278Y-88429703D01*
X143147118Y-88444264D01*
X143143541Y-88458543D01*
X143138582Y-88472403D01*
X143132288Y-88485710D01*
X143124720Y-88498336D01*
X143115952Y-88510159D01*
X143106066Y-88521066D01*
X143095159Y-88530952D01*
X143083336Y-88539720D01*
X143070710Y-88547288D01*
X143057403Y-88553582D01*
X143043543Y-88558541D01*
X143029264Y-88562118D01*
X143014703Y-88564278D01*
X143000000Y-88565000D01*
X141350000Y-88565000D01*
X141335297Y-88564278D01*
X141320736Y-88562118D01*
X141306457Y-88558541D01*
X141292597Y-88553582D01*
X141279290Y-88547288D01*
X141266664Y-88539720D01*
X141254841Y-88530952D01*
X141243934Y-88521066D01*
X141234048Y-88510159D01*
X141225280Y-88498336D01*
X141217712Y-88485710D01*
X141211418Y-88472403D01*
X141206459Y-88458543D01*
X141202882Y-88444264D01*
X141200722Y-88429703D01*
X141200000Y-88415000D01*
X141200000Y-88115000D01*
X141200722Y-88100297D01*
X141202882Y-88085736D01*
X141206459Y-88071457D01*
X141211418Y-88057597D01*
X141217712Y-88044290D01*
X141225280Y-88031664D01*
X141234048Y-88019841D01*
X141243934Y-88008934D01*
X141254841Y-87999048D01*
X141266664Y-87990280D01*
X141279290Y-87982712D01*
X141292597Y-87976418D01*
X141306457Y-87971459D01*
X141320736Y-87967882D01*
X141335297Y-87965722D01*
X141350000Y-87965000D01*
X143000000Y-87965000D01*
X143014703Y-87965722D01*
G37*
G04 #@! TD.AperFunction*
G04 #@! TA.AperFunction,SMDPad,CuDef*
G36*
X143014703Y-89235722D02*
G01*
X143029264Y-89237882D01*
X143043543Y-89241459D01*
X143057403Y-89246418D01*
X143070710Y-89252712D01*
X143083336Y-89260280D01*
X143095159Y-89269048D01*
X143106066Y-89278934D01*
X143115952Y-89289841D01*
X143124720Y-89301664D01*
X143132288Y-89314290D01*
X143138582Y-89327597D01*
X143143541Y-89341457D01*
X143147118Y-89355736D01*
X143149278Y-89370297D01*
X143150000Y-89385000D01*
X143150000Y-89685000D01*
X143149278Y-89699703D01*
X143147118Y-89714264D01*
X143143541Y-89728543D01*
X143138582Y-89742403D01*
X143132288Y-89755710D01*
X143124720Y-89768336D01*
X143115952Y-89780159D01*
X143106066Y-89791066D01*
X143095159Y-89800952D01*
X143083336Y-89809720D01*
X143070710Y-89817288D01*
X143057403Y-89823582D01*
X143043543Y-89828541D01*
X143029264Y-89832118D01*
X143014703Y-89834278D01*
X143000000Y-89835000D01*
X141350000Y-89835000D01*
X141335297Y-89834278D01*
X141320736Y-89832118D01*
X141306457Y-89828541D01*
X141292597Y-89823582D01*
X141279290Y-89817288D01*
X141266664Y-89809720D01*
X141254841Y-89800952D01*
X141243934Y-89791066D01*
X141234048Y-89780159D01*
X141225280Y-89768336D01*
X141217712Y-89755710D01*
X141211418Y-89742403D01*
X141206459Y-89728543D01*
X141202882Y-89714264D01*
X141200722Y-89699703D01*
X141200000Y-89685000D01*
X141200000Y-89385000D01*
X141200722Y-89370297D01*
X141202882Y-89355736D01*
X141206459Y-89341457D01*
X141211418Y-89327597D01*
X141217712Y-89314290D01*
X141225280Y-89301664D01*
X141234048Y-89289841D01*
X141243934Y-89278934D01*
X141254841Y-89269048D01*
X141266664Y-89260280D01*
X141279290Y-89252712D01*
X141292597Y-89246418D01*
X141306457Y-89241459D01*
X141320736Y-89237882D01*
X141335297Y-89235722D01*
X141350000Y-89235000D01*
X143000000Y-89235000D01*
X143014703Y-89235722D01*
G37*
G04 #@! TD.AperFunction*
G04 #@! TA.AperFunction,SMDPad,CuDef*
G36*
X138064703Y-89235722D02*
G01*
X138079264Y-89237882D01*
X138093543Y-89241459D01*
X138107403Y-89246418D01*
X138120710Y-89252712D01*
X138133336Y-89260280D01*
X138145159Y-89269048D01*
X138156066Y-89278934D01*
X138165952Y-89289841D01*
X138174720Y-89301664D01*
X138182288Y-89314290D01*
X138188582Y-89327597D01*
X138193541Y-89341457D01*
X138197118Y-89355736D01*
X138199278Y-89370297D01*
X138200000Y-89385000D01*
X138200000Y-89685000D01*
X138199278Y-89699703D01*
X138197118Y-89714264D01*
X138193541Y-89728543D01*
X138188582Y-89742403D01*
X138182288Y-89755710D01*
X138174720Y-89768336D01*
X138165952Y-89780159D01*
X138156066Y-89791066D01*
X138145159Y-89800952D01*
X138133336Y-89809720D01*
X138120710Y-89817288D01*
X138107403Y-89823582D01*
X138093543Y-89828541D01*
X138079264Y-89832118D01*
X138064703Y-89834278D01*
X138050000Y-89835000D01*
X136400000Y-89835000D01*
X136385297Y-89834278D01*
X136370736Y-89832118D01*
X136356457Y-89828541D01*
X136342597Y-89823582D01*
X136329290Y-89817288D01*
X136316664Y-89809720D01*
X136304841Y-89800952D01*
X136293934Y-89791066D01*
X136284048Y-89780159D01*
X136275280Y-89768336D01*
X136267712Y-89755710D01*
X136261418Y-89742403D01*
X136256459Y-89728543D01*
X136252882Y-89714264D01*
X136250722Y-89699703D01*
X136250000Y-89685000D01*
X136250000Y-89385000D01*
X136250722Y-89370297D01*
X136252882Y-89355736D01*
X136256459Y-89341457D01*
X136261418Y-89327597D01*
X136267712Y-89314290D01*
X136275280Y-89301664D01*
X136284048Y-89289841D01*
X136293934Y-89278934D01*
X136304841Y-89269048D01*
X136316664Y-89260280D01*
X136329290Y-89252712D01*
X136342597Y-89246418D01*
X136356457Y-89241459D01*
X136370736Y-89237882D01*
X136385297Y-89235722D01*
X136400000Y-89235000D01*
X138050000Y-89235000D01*
X138064703Y-89235722D01*
G37*
G04 #@! TD.AperFunction*
G04 #@! TA.AperFunction,SMDPad,CuDef*
G36*
X138064703Y-87965722D02*
G01*
X138079264Y-87967882D01*
X138093543Y-87971459D01*
X138107403Y-87976418D01*
X138120710Y-87982712D01*
X138133336Y-87990280D01*
X138145159Y-87999048D01*
X138156066Y-88008934D01*
X138165952Y-88019841D01*
X138174720Y-88031664D01*
X138182288Y-88044290D01*
X138188582Y-88057597D01*
X138193541Y-88071457D01*
X138197118Y-88085736D01*
X138199278Y-88100297D01*
X138200000Y-88115000D01*
X138200000Y-88415000D01*
X138199278Y-88429703D01*
X138197118Y-88444264D01*
X138193541Y-88458543D01*
X138188582Y-88472403D01*
X138182288Y-88485710D01*
X138174720Y-88498336D01*
X138165952Y-88510159D01*
X138156066Y-88521066D01*
X138145159Y-88530952D01*
X138133336Y-88539720D01*
X138120710Y-88547288D01*
X138107403Y-88553582D01*
X138093543Y-88558541D01*
X138079264Y-88562118D01*
X138064703Y-88564278D01*
X138050000Y-88565000D01*
X136400000Y-88565000D01*
X136385297Y-88564278D01*
X136370736Y-88562118D01*
X136356457Y-88558541D01*
X136342597Y-88553582D01*
X136329290Y-88547288D01*
X136316664Y-88539720D01*
X136304841Y-88530952D01*
X136293934Y-88521066D01*
X136284048Y-88510159D01*
X136275280Y-88498336D01*
X136267712Y-88485710D01*
X136261418Y-88472403D01*
X136256459Y-88458543D01*
X136252882Y-88444264D01*
X136250722Y-88429703D01*
X136250000Y-88415000D01*
X136250000Y-88115000D01*
X136250722Y-88100297D01*
X136252882Y-88085736D01*
X136256459Y-88071457D01*
X136261418Y-88057597D01*
X136267712Y-88044290D01*
X136275280Y-88031664D01*
X136284048Y-88019841D01*
X136293934Y-88008934D01*
X136304841Y-87999048D01*
X136316664Y-87990280D01*
X136329290Y-87982712D01*
X136342597Y-87976418D01*
X136356457Y-87971459D01*
X136370736Y-87967882D01*
X136385297Y-87965722D01*
X136400000Y-87965000D01*
X138050000Y-87965000D01*
X138064703Y-87965722D01*
G37*
G04 #@! TD.AperFunction*
G04 #@! TA.AperFunction,SMDPad,CuDef*
G36*
X138064703Y-86695722D02*
G01*
X138079264Y-86697882D01*
X138093543Y-86701459D01*
X138107403Y-86706418D01*
X138120710Y-86712712D01*
X138133336Y-86720280D01*
X138145159Y-86729048D01*
X138156066Y-86738934D01*
X138165952Y-86749841D01*
X138174720Y-86761664D01*
X138182288Y-86774290D01*
X138188582Y-86787597D01*
X138193541Y-86801457D01*
X138197118Y-86815736D01*
X138199278Y-86830297D01*
X138200000Y-86845000D01*
X138200000Y-87145000D01*
X138199278Y-87159703D01*
X138197118Y-87174264D01*
X138193541Y-87188543D01*
X138188582Y-87202403D01*
X138182288Y-87215710D01*
X138174720Y-87228336D01*
X138165952Y-87240159D01*
X138156066Y-87251066D01*
X138145159Y-87260952D01*
X138133336Y-87269720D01*
X138120710Y-87277288D01*
X138107403Y-87283582D01*
X138093543Y-87288541D01*
X138079264Y-87292118D01*
X138064703Y-87294278D01*
X138050000Y-87295000D01*
X136400000Y-87295000D01*
X136385297Y-87294278D01*
X136370736Y-87292118D01*
X136356457Y-87288541D01*
X136342597Y-87283582D01*
X136329290Y-87277288D01*
X136316664Y-87269720D01*
X136304841Y-87260952D01*
X136293934Y-87251066D01*
X136284048Y-87240159D01*
X136275280Y-87228336D01*
X136267712Y-87215710D01*
X136261418Y-87202403D01*
X136256459Y-87188543D01*
X136252882Y-87174264D01*
X136250722Y-87159703D01*
X136250000Y-87145000D01*
X136250000Y-86845000D01*
X136250722Y-86830297D01*
X136252882Y-86815736D01*
X136256459Y-86801457D01*
X136261418Y-86787597D01*
X136267712Y-86774290D01*
X136275280Y-86761664D01*
X136284048Y-86749841D01*
X136293934Y-86738934D01*
X136304841Y-86729048D01*
X136316664Y-86720280D01*
X136329290Y-86712712D01*
X136342597Y-86706418D01*
X136356457Y-86701459D01*
X136370736Y-86697882D01*
X136385297Y-86695722D01*
X136400000Y-86695000D01*
X138050000Y-86695000D01*
X138064703Y-86695722D01*
G37*
G04 #@! TD.AperFunction*
G04 #@! TA.AperFunction,SMDPad,CuDef*
G36*
X138064703Y-85425722D02*
G01*
X138079264Y-85427882D01*
X138093543Y-85431459D01*
X138107403Y-85436418D01*
X138120710Y-85442712D01*
X138133336Y-85450280D01*
X138145159Y-85459048D01*
X138156066Y-85468934D01*
X138165952Y-85479841D01*
X138174720Y-85491664D01*
X138182288Y-85504290D01*
X138188582Y-85517597D01*
X138193541Y-85531457D01*
X138197118Y-85545736D01*
X138199278Y-85560297D01*
X138200000Y-85575000D01*
X138200000Y-85875000D01*
X138199278Y-85889703D01*
X138197118Y-85904264D01*
X138193541Y-85918543D01*
X138188582Y-85932403D01*
X138182288Y-85945710D01*
X138174720Y-85958336D01*
X138165952Y-85970159D01*
X138156066Y-85981066D01*
X138145159Y-85990952D01*
X138133336Y-85999720D01*
X138120710Y-86007288D01*
X138107403Y-86013582D01*
X138093543Y-86018541D01*
X138079264Y-86022118D01*
X138064703Y-86024278D01*
X138050000Y-86025000D01*
X136400000Y-86025000D01*
X136385297Y-86024278D01*
X136370736Y-86022118D01*
X136356457Y-86018541D01*
X136342597Y-86013582D01*
X136329290Y-86007288D01*
X136316664Y-85999720D01*
X136304841Y-85990952D01*
X136293934Y-85981066D01*
X136284048Y-85970159D01*
X136275280Y-85958336D01*
X136267712Y-85945710D01*
X136261418Y-85932403D01*
X136256459Y-85918543D01*
X136252882Y-85904264D01*
X136250722Y-85889703D01*
X136250000Y-85875000D01*
X136250000Y-85575000D01*
X136250722Y-85560297D01*
X136252882Y-85545736D01*
X136256459Y-85531457D01*
X136261418Y-85517597D01*
X136267712Y-85504290D01*
X136275280Y-85491664D01*
X136284048Y-85479841D01*
X136293934Y-85468934D01*
X136304841Y-85459048D01*
X136316664Y-85450280D01*
X136329290Y-85442712D01*
X136342597Y-85436418D01*
X136356457Y-85431459D01*
X136370736Y-85427882D01*
X136385297Y-85425722D01*
X136400000Y-85425000D01*
X138050000Y-85425000D01*
X138064703Y-85425722D01*
G37*
G04 #@! TD.AperFunction*
G04 #@! TA.AperFunction,SMDPad,CuDef*
G36*
X139362642Y-80581174D02*
G01*
X139386303Y-80584684D01*
X139409507Y-80590496D01*
X139432029Y-80598554D01*
X139453653Y-80608782D01*
X139474170Y-80621079D01*
X139493383Y-80635329D01*
X139511107Y-80651393D01*
X139527171Y-80669117D01*
X139541421Y-80688330D01*
X139553718Y-80708847D01*
X139563946Y-80730471D01*
X139572004Y-80752993D01*
X139577816Y-80776197D01*
X139581326Y-80799858D01*
X139582500Y-80823750D01*
X139582500Y-81736250D01*
X139581326Y-81760142D01*
X139577816Y-81783803D01*
X139572004Y-81807007D01*
X139563946Y-81829529D01*
X139553718Y-81851153D01*
X139541421Y-81871670D01*
X139527171Y-81890883D01*
X139511107Y-81908607D01*
X139493383Y-81924671D01*
X139474170Y-81938921D01*
X139453653Y-81951218D01*
X139432029Y-81961446D01*
X139409507Y-81969504D01*
X139386303Y-81975316D01*
X139362642Y-81978826D01*
X139338750Y-81980000D01*
X138851250Y-81980000D01*
X138827358Y-81978826D01*
X138803697Y-81975316D01*
X138780493Y-81969504D01*
X138757971Y-81961446D01*
X138736347Y-81951218D01*
X138715830Y-81938921D01*
X138696617Y-81924671D01*
X138678893Y-81908607D01*
X138662829Y-81890883D01*
X138648579Y-81871670D01*
X138636282Y-81851153D01*
X138626054Y-81829529D01*
X138617996Y-81807007D01*
X138612184Y-81783803D01*
X138608674Y-81760142D01*
X138607500Y-81736250D01*
X138607500Y-80823750D01*
X138608674Y-80799858D01*
X138612184Y-80776197D01*
X138617996Y-80752993D01*
X138626054Y-80730471D01*
X138636282Y-80708847D01*
X138648579Y-80688330D01*
X138662829Y-80669117D01*
X138678893Y-80651393D01*
X138696617Y-80635329D01*
X138715830Y-80621079D01*
X138736347Y-80608782D01*
X138757971Y-80598554D01*
X138780493Y-80590496D01*
X138803697Y-80584684D01*
X138827358Y-80581174D01*
X138851250Y-80580000D01*
X139338750Y-80580000D01*
X139362642Y-80581174D01*
G37*
G04 #@! TD.AperFunction*
G04 #@! TA.AperFunction,SMDPad,CuDef*
G36*
X141237642Y-80581174D02*
G01*
X141261303Y-80584684D01*
X141284507Y-80590496D01*
X141307029Y-80598554D01*
X141328653Y-80608782D01*
X141349170Y-80621079D01*
X141368383Y-80635329D01*
X141386107Y-80651393D01*
X141402171Y-80669117D01*
X141416421Y-80688330D01*
X141428718Y-80708847D01*
X141438946Y-80730471D01*
X141447004Y-80752993D01*
X141452816Y-80776197D01*
X141456326Y-80799858D01*
X141457500Y-80823750D01*
X141457500Y-81736250D01*
X141456326Y-81760142D01*
X141452816Y-81783803D01*
X141447004Y-81807007D01*
X141438946Y-81829529D01*
X141428718Y-81851153D01*
X141416421Y-81871670D01*
X141402171Y-81890883D01*
X141386107Y-81908607D01*
X141368383Y-81924671D01*
X141349170Y-81938921D01*
X141328653Y-81951218D01*
X141307029Y-81961446D01*
X141284507Y-81969504D01*
X141261303Y-81975316D01*
X141237642Y-81978826D01*
X141213750Y-81980000D01*
X140726250Y-81980000D01*
X140702358Y-81978826D01*
X140678697Y-81975316D01*
X140655493Y-81969504D01*
X140632971Y-81961446D01*
X140611347Y-81951218D01*
X140590830Y-81938921D01*
X140571617Y-81924671D01*
X140553893Y-81908607D01*
X140537829Y-81890883D01*
X140523579Y-81871670D01*
X140511282Y-81851153D01*
X140501054Y-81829529D01*
X140492996Y-81807007D01*
X140487184Y-81783803D01*
X140483674Y-81760142D01*
X140482500Y-81736250D01*
X140482500Y-80823750D01*
X140483674Y-80799858D01*
X140487184Y-80776197D01*
X140492996Y-80752993D01*
X140501054Y-80730471D01*
X140511282Y-80708847D01*
X140523579Y-80688330D01*
X140537829Y-80669117D01*
X140553893Y-80651393D01*
X140571617Y-80635329D01*
X140590830Y-80621079D01*
X140611347Y-80608782D01*
X140632971Y-80598554D01*
X140655493Y-80590496D01*
X140678697Y-80584684D01*
X140702358Y-80581174D01*
X140726250Y-80580000D01*
X141213750Y-80580000D01*
X141237642Y-80581174D01*
G37*
G04 #@! TD.AperFunction*
G04 #@! TA.AperFunction,SMDPad,CuDef*
G36*
X129807642Y-86931174D02*
G01*
X129831303Y-86934684D01*
X129854507Y-86940496D01*
X129877029Y-86948554D01*
X129898653Y-86958782D01*
X129919170Y-86971079D01*
X129938383Y-86985329D01*
X129956107Y-87001393D01*
X129972171Y-87019117D01*
X129986421Y-87038330D01*
X129998718Y-87058847D01*
X130008946Y-87080471D01*
X130017004Y-87102993D01*
X130022816Y-87126197D01*
X130026326Y-87149858D01*
X130027500Y-87173750D01*
X130027500Y-88086250D01*
X130026326Y-88110142D01*
X130022816Y-88133803D01*
X130017004Y-88157007D01*
X130008946Y-88179529D01*
X129998718Y-88201153D01*
X129986421Y-88221670D01*
X129972171Y-88240883D01*
X129956107Y-88258607D01*
X129938383Y-88274671D01*
X129919170Y-88288921D01*
X129898653Y-88301218D01*
X129877029Y-88311446D01*
X129854507Y-88319504D01*
X129831303Y-88325316D01*
X129807642Y-88328826D01*
X129783750Y-88330000D01*
X129296250Y-88330000D01*
X129272358Y-88328826D01*
X129248697Y-88325316D01*
X129225493Y-88319504D01*
X129202971Y-88311446D01*
X129181347Y-88301218D01*
X129160830Y-88288921D01*
X129141617Y-88274671D01*
X129123893Y-88258607D01*
X129107829Y-88240883D01*
X129093579Y-88221670D01*
X129081282Y-88201153D01*
X129071054Y-88179529D01*
X129062996Y-88157007D01*
X129057184Y-88133803D01*
X129053674Y-88110142D01*
X129052500Y-88086250D01*
X129052500Y-87173750D01*
X129053674Y-87149858D01*
X129057184Y-87126197D01*
X129062996Y-87102993D01*
X129071054Y-87080471D01*
X129081282Y-87058847D01*
X129093579Y-87038330D01*
X129107829Y-87019117D01*
X129123893Y-87001393D01*
X129141617Y-86985329D01*
X129160830Y-86971079D01*
X129181347Y-86958782D01*
X129202971Y-86948554D01*
X129225493Y-86940496D01*
X129248697Y-86934684D01*
X129272358Y-86931174D01*
X129296250Y-86930000D01*
X129783750Y-86930000D01*
X129807642Y-86931174D01*
G37*
G04 #@! TD.AperFunction*
G04 #@! TA.AperFunction,SMDPad,CuDef*
G36*
X131682642Y-86931174D02*
G01*
X131706303Y-86934684D01*
X131729507Y-86940496D01*
X131752029Y-86948554D01*
X131773653Y-86958782D01*
X131794170Y-86971079D01*
X131813383Y-86985329D01*
X131831107Y-87001393D01*
X131847171Y-87019117D01*
X131861421Y-87038330D01*
X131873718Y-87058847D01*
X131883946Y-87080471D01*
X131892004Y-87102993D01*
X131897816Y-87126197D01*
X131901326Y-87149858D01*
X131902500Y-87173750D01*
X131902500Y-88086250D01*
X131901326Y-88110142D01*
X131897816Y-88133803D01*
X131892004Y-88157007D01*
X131883946Y-88179529D01*
X131873718Y-88201153D01*
X131861421Y-88221670D01*
X131847171Y-88240883D01*
X131831107Y-88258607D01*
X131813383Y-88274671D01*
X131794170Y-88288921D01*
X131773653Y-88301218D01*
X131752029Y-88311446D01*
X131729507Y-88319504D01*
X131706303Y-88325316D01*
X131682642Y-88328826D01*
X131658750Y-88330000D01*
X131171250Y-88330000D01*
X131147358Y-88328826D01*
X131123697Y-88325316D01*
X131100493Y-88319504D01*
X131077971Y-88311446D01*
X131056347Y-88301218D01*
X131035830Y-88288921D01*
X131016617Y-88274671D01*
X130998893Y-88258607D01*
X130982829Y-88240883D01*
X130968579Y-88221670D01*
X130956282Y-88201153D01*
X130946054Y-88179529D01*
X130937996Y-88157007D01*
X130932184Y-88133803D01*
X130928674Y-88110142D01*
X130927500Y-88086250D01*
X130927500Y-87173750D01*
X130928674Y-87149858D01*
X130932184Y-87126197D01*
X130937996Y-87102993D01*
X130946054Y-87080471D01*
X130956282Y-87058847D01*
X130968579Y-87038330D01*
X130982829Y-87019117D01*
X130998893Y-87001393D01*
X131016617Y-86985329D01*
X131035830Y-86971079D01*
X131056347Y-86958782D01*
X131077971Y-86948554D01*
X131100493Y-86940496D01*
X131123697Y-86934684D01*
X131147358Y-86931174D01*
X131171250Y-86930000D01*
X131658750Y-86930000D01*
X131682642Y-86931174D01*
G37*
G04 #@! TD.AperFunction*
G04 #@! TA.AperFunction,SMDPad,CuDef*
G36*
X153939504Y-93106204D02*
G01*
X153963773Y-93109804D01*
X153987571Y-93115765D01*
X154010671Y-93124030D01*
X154032849Y-93134520D01*
X154053893Y-93147133D01*
X154073598Y-93161747D01*
X154091777Y-93178223D01*
X154108253Y-93196402D01*
X154122867Y-93216107D01*
X154135480Y-93237151D01*
X154145970Y-93259329D01*
X154154235Y-93282429D01*
X154160196Y-93306227D01*
X154163796Y-93330496D01*
X154165000Y-93355000D01*
X154165000Y-94605000D01*
X154163796Y-94629504D01*
X154160196Y-94653773D01*
X154154235Y-94677571D01*
X154145970Y-94700671D01*
X154135480Y-94722849D01*
X154122867Y-94743893D01*
X154108253Y-94763598D01*
X154091777Y-94781777D01*
X154073598Y-94798253D01*
X154053893Y-94812867D01*
X154032849Y-94825480D01*
X154010671Y-94835970D01*
X153987571Y-94844235D01*
X153963773Y-94850196D01*
X153939504Y-94853796D01*
X153915000Y-94855000D01*
X153165000Y-94855000D01*
X153140496Y-94853796D01*
X153116227Y-94850196D01*
X153092429Y-94844235D01*
X153069329Y-94835970D01*
X153047151Y-94825480D01*
X153026107Y-94812867D01*
X153006402Y-94798253D01*
X152988223Y-94781777D01*
X152971747Y-94763598D01*
X152957133Y-94743893D01*
X152944520Y-94722849D01*
X152934030Y-94700671D01*
X152925765Y-94677571D01*
X152919804Y-94653773D01*
X152916204Y-94629504D01*
X152915000Y-94605000D01*
X152915000Y-93355000D01*
X152916204Y-93330496D01*
X152919804Y-93306227D01*
X152925765Y-93282429D01*
X152934030Y-93259329D01*
X152944520Y-93237151D01*
X152957133Y-93216107D01*
X152971747Y-93196402D01*
X152988223Y-93178223D01*
X153006402Y-93161747D01*
X153026107Y-93147133D01*
X153047151Y-93134520D01*
X153069329Y-93124030D01*
X153092429Y-93115765D01*
X153116227Y-93109804D01*
X153140496Y-93106204D01*
X153165000Y-93105000D01*
X153915000Y-93105000D01*
X153939504Y-93106204D01*
G37*
G04 #@! TD.AperFunction*
G04 #@! TA.AperFunction,SMDPad,CuDef*
G36*
X156739504Y-93106204D02*
G01*
X156763773Y-93109804D01*
X156787571Y-93115765D01*
X156810671Y-93124030D01*
X156832849Y-93134520D01*
X156853893Y-93147133D01*
X156873598Y-93161747D01*
X156891777Y-93178223D01*
X156908253Y-93196402D01*
X156922867Y-93216107D01*
X156935480Y-93237151D01*
X156945970Y-93259329D01*
X156954235Y-93282429D01*
X156960196Y-93306227D01*
X156963796Y-93330496D01*
X156965000Y-93355000D01*
X156965000Y-94605000D01*
X156963796Y-94629504D01*
X156960196Y-94653773D01*
X156954235Y-94677571D01*
X156945970Y-94700671D01*
X156935480Y-94722849D01*
X156922867Y-94743893D01*
X156908253Y-94763598D01*
X156891777Y-94781777D01*
X156873598Y-94798253D01*
X156853893Y-94812867D01*
X156832849Y-94825480D01*
X156810671Y-94835970D01*
X156787571Y-94844235D01*
X156763773Y-94850196D01*
X156739504Y-94853796D01*
X156715000Y-94855000D01*
X155965000Y-94855000D01*
X155940496Y-94853796D01*
X155916227Y-94850196D01*
X155892429Y-94844235D01*
X155869329Y-94835970D01*
X155847151Y-94825480D01*
X155826107Y-94812867D01*
X155806402Y-94798253D01*
X155788223Y-94781777D01*
X155771747Y-94763598D01*
X155757133Y-94743893D01*
X155744520Y-94722849D01*
X155734030Y-94700671D01*
X155725765Y-94677571D01*
X155719804Y-94653773D01*
X155716204Y-94629504D01*
X155715000Y-94605000D01*
X155715000Y-93355000D01*
X155716204Y-93330496D01*
X155719804Y-93306227D01*
X155725765Y-93282429D01*
X155734030Y-93259329D01*
X155744520Y-93237151D01*
X155757133Y-93216107D01*
X155771747Y-93196402D01*
X155788223Y-93178223D01*
X155806402Y-93161747D01*
X155826107Y-93147133D01*
X155847151Y-93134520D01*
X155869329Y-93124030D01*
X155892429Y-93115765D01*
X155916227Y-93109804D01*
X155940496Y-93106204D01*
X155965000Y-93105000D01*
X156715000Y-93105000D01*
X156739504Y-93106204D01*
G37*
G04 #@! TD.AperFunction*
G04 #@! TA.AperFunction,SMDPad,CuDef*
G36*
X125060142Y-86931174D02*
G01*
X125083803Y-86934684D01*
X125107007Y-86940496D01*
X125129529Y-86948554D01*
X125151153Y-86958782D01*
X125171670Y-86971079D01*
X125190883Y-86985329D01*
X125208607Y-87001393D01*
X125224671Y-87019117D01*
X125238921Y-87038330D01*
X125251218Y-87058847D01*
X125261446Y-87080471D01*
X125269504Y-87102993D01*
X125275316Y-87126197D01*
X125278826Y-87149858D01*
X125280000Y-87173750D01*
X125280000Y-88086250D01*
X125278826Y-88110142D01*
X125275316Y-88133803D01*
X125269504Y-88157007D01*
X125261446Y-88179529D01*
X125251218Y-88201153D01*
X125238921Y-88221670D01*
X125224671Y-88240883D01*
X125208607Y-88258607D01*
X125190883Y-88274671D01*
X125171670Y-88288921D01*
X125151153Y-88301218D01*
X125129529Y-88311446D01*
X125107007Y-88319504D01*
X125083803Y-88325316D01*
X125060142Y-88328826D01*
X125036250Y-88330000D01*
X124548750Y-88330000D01*
X124524858Y-88328826D01*
X124501197Y-88325316D01*
X124477993Y-88319504D01*
X124455471Y-88311446D01*
X124433847Y-88301218D01*
X124413330Y-88288921D01*
X124394117Y-88274671D01*
X124376393Y-88258607D01*
X124360329Y-88240883D01*
X124346079Y-88221670D01*
X124333782Y-88201153D01*
X124323554Y-88179529D01*
X124315496Y-88157007D01*
X124309684Y-88133803D01*
X124306174Y-88110142D01*
X124305000Y-88086250D01*
X124305000Y-87173750D01*
X124306174Y-87149858D01*
X124309684Y-87126197D01*
X124315496Y-87102993D01*
X124323554Y-87080471D01*
X124333782Y-87058847D01*
X124346079Y-87038330D01*
X124360329Y-87019117D01*
X124376393Y-87001393D01*
X124394117Y-86985329D01*
X124413330Y-86971079D01*
X124433847Y-86958782D01*
X124455471Y-86948554D01*
X124477993Y-86940496D01*
X124501197Y-86934684D01*
X124524858Y-86931174D01*
X124548750Y-86930000D01*
X125036250Y-86930000D01*
X125060142Y-86931174D01*
G37*
G04 #@! TD.AperFunction*
G04 #@! TA.AperFunction,SMDPad,CuDef*
G36*
X126935142Y-86931174D02*
G01*
X126958803Y-86934684D01*
X126982007Y-86940496D01*
X127004529Y-86948554D01*
X127026153Y-86958782D01*
X127046670Y-86971079D01*
X127065883Y-86985329D01*
X127083607Y-87001393D01*
X127099671Y-87019117D01*
X127113921Y-87038330D01*
X127126218Y-87058847D01*
X127136446Y-87080471D01*
X127144504Y-87102993D01*
X127150316Y-87126197D01*
X127153826Y-87149858D01*
X127155000Y-87173750D01*
X127155000Y-88086250D01*
X127153826Y-88110142D01*
X127150316Y-88133803D01*
X127144504Y-88157007D01*
X127136446Y-88179529D01*
X127126218Y-88201153D01*
X127113921Y-88221670D01*
X127099671Y-88240883D01*
X127083607Y-88258607D01*
X127065883Y-88274671D01*
X127046670Y-88288921D01*
X127026153Y-88301218D01*
X127004529Y-88311446D01*
X126982007Y-88319504D01*
X126958803Y-88325316D01*
X126935142Y-88328826D01*
X126911250Y-88330000D01*
X126423750Y-88330000D01*
X126399858Y-88328826D01*
X126376197Y-88325316D01*
X126352993Y-88319504D01*
X126330471Y-88311446D01*
X126308847Y-88301218D01*
X126288330Y-88288921D01*
X126269117Y-88274671D01*
X126251393Y-88258607D01*
X126235329Y-88240883D01*
X126221079Y-88221670D01*
X126208782Y-88201153D01*
X126198554Y-88179529D01*
X126190496Y-88157007D01*
X126184684Y-88133803D01*
X126181174Y-88110142D01*
X126180000Y-88086250D01*
X126180000Y-87173750D01*
X126181174Y-87149858D01*
X126184684Y-87126197D01*
X126190496Y-87102993D01*
X126198554Y-87080471D01*
X126208782Y-87058847D01*
X126221079Y-87038330D01*
X126235329Y-87019117D01*
X126251393Y-87001393D01*
X126269117Y-86985329D01*
X126288330Y-86971079D01*
X126308847Y-86958782D01*
X126330471Y-86948554D01*
X126352993Y-86940496D01*
X126376197Y-86934684D01*
X126399858Y-86931174D01*
X126423750Y-86930000D01*
X126911250Y-86930000D01*
X126935142Y-86931174D01*
G37*
G04 #@! TD.AperFunction*
D15*
X144780000Y-81280000D03*
X142240000Y-81280000D03*
X134620000Y-88900000D03*
X148590000Y-91440000D03*
X152400000Y-91440000D03*
D16*
X124792500Y-92697500D02*
X124460000Y-93030000D01*
X124792500Y-87630000D02*
X124792500Y-92697500D01*
X127665000Y-81280000D02*
X127665000Y-82550000D01*
X124792500Y-85422500D02*
X124792500Y-87630000D01*
X127665000Y-82550000D02*
X124792500Y-85422500D01*
X126667500Y-87630000D02*
X129540000Y-87630000D01*
X142810000Y-88900000D02*
X142175000Y-88265000D01*
X144780000Y-88900000D02*
X142810000Y-88900000D01*
X140970000Y-81280000D02*
X142240000Y-81280000D01*
X144780000Y-81280000D02*
X144780000Y-81280000D01*
X142240000Y-81280000D02*
X142240000Y-81280000D01*
X144780000Y-84425000D02*
X144780000Y-83820000D01*
X144780000Y-81280000D02*
X146382500Y-81280000D01*
X146382500Y-83820000D02*
X144780000Y-83820000D01*
X144780000Y-86360000D02*
X144780000Y-88900000D01*
X146382500Y-86360000D02*
X144780000Y-86360000D01*
X144780000Y-81280000D02*
X144780000Y-86360000D01*
X146382500Y-88900000D02*
X144780000Y-88900000D01*
X152400000Y-80010000D02*
X152400000Y-80010000D01*
X143510000Y-80010000D02*
X143510000Y-80010000D01*
X143510000Y-80010000D02*
X152400000Y-80010000D01*
X138126090Y-80010000D02*
X138430000Y-80010000D01*
X138430000Y-80010000D02*
X143510000Y-80010000D01*
X143150000Y-86995000D02*
X142175000Y-86995000D01*
X143510000Y-86635000D02*
X143150000Y-86995000D01*
X143510000Y-80010000D02*
X143510000Y-86635000D01*
X162560000Y-80010000D02*
X162560000Y-81280000D01*
X152400000Y-80010000D02*
X162560000Y-80010000D01*
X162560000Y-81280000D02*
X162560000Y-83820000D01*
X162560000Y-83820000D02*
X163830000Y-85090000D01*
X163830000Y-85090000D02*
X163830000Y-95250000D01*
X163830000Y-95250000D02*
X158750000Y-95250000D01*
X157480000Y-93980000D02*
X156340000Y-93980000D01*
X158750000Y-95250000D02*
X157480000Y-93980000D01*
X130810000Y-81280000D02*
X129540000Y-81280000D01*
X132080000Y-80010000D02*
X130810000Y-81280000D01*
X138430000Y-80010000D02*
X132080000Y-80010000D01*
X137225000Y-88265000D02*
X135255000Y-88265000D01*
X135255000Y-88265000D02*
X134620000Y-88900000D01*
X147320000Y-91440000D02*
X148590000Y-91440000D01*
X148590000Y-91440000D02*
X148590000Y-91440000D01*
X153540000Y-93980000D02*
X153540000Y-92580000D01*
X153540000Y-92580000D02*
X152400000Y-91440000D01*
X152400000Y-91440000D02*
X152400000Y-91440000D01*
X149860000Y-81280000D02*
X149860000Y-81280000D01*
X148257500Y-81280000D02*
X149860000Y-81280000D01*
X149860000Y-81280000D02*
X160020000Y-81280000D01*
X161359990Y-92640010D02*
X162560000Y-91440000D01*
X161359990Y-92779990D02*
X162560000Y-93980000D01*
X161359990Y-92640010D02*
X161359990Y-92779990D01*
X144520000Y-91440000D02*
X146050000Y-91440000D01*
X137225000Y-89535000D02*
X137225000Y-90235000D01*
X156275000Y-90235000D02*
X158750000Y-92710000D01*
X158750000Y-92710000D02*
X161359990Y-92640010D01*
X158550010Y-92640010D02*
X158750000Y-92710000D01*
X145985000Y-90235000D02*
X145985000Y-91375000D01*
X145985000Y-91375000D02*
X146050000Y-91440000D01*
X137225000Y-90235000D02*
X145985000Y-90235000D01*
X145985000Y-90235000D02*
X156275000Y-90235000D01*
X156210000Y-88900000D02*
X160020000Y-88900000D01*
X148257500Y-88900000D02*
X156210000Y-88900000D01*
X156210000Y-86360000D02*
X160020000Y-86360000D01*
X148257500Y-86360000D02*
X156210000Y-86360000D01*
X148257500Y-83820000D02*
X149860000Y-83820000D01*
X149860000Y-83820000D02*
X160020000Y-83820000D01*
X137225000Y-86995000D02*
X135255000Y-86995000D01*
X139095000Y-81280000D02*
X137492500Y-81280000D01*
X135255000Y-86995000D02*
X134620000Y-87630000D01*
X137492500Y-81280000D02*
X135255000Y-83517500D01*
X135255000Y-83517500D02*
X135255000Y-84455000D01*
X132080000Y-87630000D02*
X131415000Y-87630000D01*
X134620000Y-87630000D02*
X132080000Y-87630000D01*
X135255000Y-84455000D02*
X135255000Y-86995000D01*
D17*
G36*
X163703000Y-80340614D02*
G01*
X163657588Y-80279731D01*
X163441355Y-80084822D01*
X163191252Y-79935843D01*
X162916891Y-79838519D01*
X162687000Y-79959186D01*
X162687000Y-81153000D01*
X162707000Y-81153000D01*
X162707000Y-81407000D01*
X162687000Y-81407000D01*
X162687000Y-83693000D01*
X162707000Y-83693000D01*
X162707000Y-83947000D01*
X162687000Y-83947000D01*
X162687000Y-83967000D01*
X162433000Y-83967000D01*
X162433000Y-83947000D01*
X162413000Y-83947000D01*
X162413000Y-83693000D01*
X162433000Y-83693000D01*
X162433000Y-81407000D01*
X162413000Y-81407000D01*
X162413000Y-81153000D01*
X162433000Y-81153000D01*
X162433000Y-79959186D01*
X162203109Y-79838519D01*
X161928748Y-79935843D01*
X161678645Y-80084822D01*
X161482498Y-80261626D01*
X161459502Y-80185820D01*
X161400537Y-80075506D01*
X161321185Y-79978815D01*
X161224494Y-79899463D01*
X161114180Y-79840498D01*
X160994482Y-79804188D01*
X160870000Y-79791928D01*
X159170000Y-79791928D01*
X159045518Y-79804188D01*
X158925820Y-79840498D01*
X158815506Y-79899463D01*
X158718815Y-79978815D01*
X158639463Y-80075506D01*
X158580498Y-80185820D01*
X158544188Y-80305518D01*
X158531928Y-80430000D01*
X158531928Y-80520000D01*
X149326173Y-80520000D01*
X149315947Y-80486291D01*
X149234458Y-80333836D01*
X149124792Y-80200208D01*
X148991164Y-80090542D01*
X148838709Y-80009053D01*
X148673285Y-79958872D01*
X148501250Y-79941928D01*
X148013750Y-79941928D01*
X147841715Y-79958872D01*
X147676291Y-80009053D01*
X147523836Y-80090542D01*
X147390208Y-80200208D01*
X147320000Y-80285756D01*
X147249792Y-80200208D01*
X147116164Y-80090542D01*
X146963709Y-80009053D01*
X146798285Y-79958872D01*
X146626250Y-79941928D01*
X146138750Y-79941928D01*
X145966715Y-79958872D01*
X145801291Y-80009053D01*
X145648836Y-80090542D01*
X145515208Y-80200208D01*
X145405542Y-80333836D01*
X145358535Y-80421781D01*
X145270256Y-80362795D01*
X145081898Y-80284774D01*
X144881939Y-80245000D01*
X144678061Y-80245000D01*
X144478102Y-80284774D01*
X144289744Y-80362795D01*
X144120226Y-80476063D01*
X143976063Y-80620226D01*
X143862795Y-80789744D01*
X143784774Y-80978102D01*
X143745000Y-81178061D01*
X143745000Y-81381939D01*
X143784774Y-81581898D01*
X143862795Y-81770256D01*
X143976063Y-81939774D01*
X144020000Y-81983711D01*
X144020000Y-83782662D01*
X144016323Y-83820000D01*
X144020000Y-83857333D01*
X144020000Y-84462332D01*
X144020001Y-84462338D01*
X144020001Y-86322657D01*
X144016323Y-86360000D01*
X144020000Y-86397333D01*
X144020001Y-88140000D01*
X143788072Y-88140000D01*
X143788072Y-88115000D01*
X143772929Y-87961255D01*
X143728084Y-87813418D01*
X143656270Y-87679064D01*
X143680537Y-87649494D01*
X143739502Y-87539180D01*
X143775812Y-87419482D01*
X143788072Y-87295000D01*
X143785000Y-87280750D01*
X143626250Y-87122000D01*
X142302000Y-87122000D01*
X142302000Y-87142000D01*
X142048000Y-87142000D01*
X142048000Y-87122000D01*
X142028000Y-87122000D01*
X142028000Y-86868000D01*
X142048000Y-86868000D01*
X142048000Y-86848000D01*
X142302000Y-86848000D01*
X142302000Y-86868000D01*
X143626250Y-86868000D01*
X143785000Y-86709250D01*
X143788072Y-86695000D01*
X143775812Y-86570518D01*
X143739502Y-86450820D01*
X143680537Y-86340506D01*
X143656270Y-86310936D01*
X143728084Y-86176582D01*
X143772929Y-86028745D01*
X143788072Y-85875000D01*
X143788072Y-85575000D01*
X143772929Y-85421255D01*
X143728084Y-85273418D01*
X143655258Y-85137171D01*
X143557251Y-85017749D01*
X143437829Y-84919742D01*
X143301582Y-84846916D01*
X143153745Y-84802071D01*
X143000000Y-84786928D01*
X141350000Y-84786928D01*
X141196255Y-84802071D01*
X141048418Y-84846916D01*
X140912171Y-84919742D01*
X140792749Y-85017749D01*
X140694742Y-85137171D01*
X140621916Y-85273418D01*
X140577071Y-85421255D01*
X140570110Y-85491928D01*
X138829890Y-85491928D01*
X138822929Y-85421255D01*
X138778084Y-85273418D01*
X138705258Y-85137171D01*
X138607251Y-85017749D01*
X138487829Y-84919742D01*
X138351582Y-84846916D01*
X138203745Y-84802071D01*
X138050000Y-84786928D01*
X136400000Y-84786928D01*
X136246255Y-84802071D01*
X136098418Y-84846916D01*
X136015000Y-84891504D01*
X136015000Y-83832301D01*
X137807302Y-82040000D01*
X138026327Y-82040000D01*
X138036553Y-82073709D01*
X138118042Y-82226164D01*
X138227708Y-82359792D01*
X138361336Y-82469458D01*
X138513791Y-82550947D01*
X138679215Y-82601128D01*
X138851250Y-82618072D01*
X139338750Y-82618072D01*
X139510785Y-82601128D01*
X139676209Y-82550947D01*
X139828664Y-82469458D01*
X139962292Y-82359792D01*
X140032500Y-82274244D01*
X140102708Y-82359792D01*
X140236336Y-82469458D01*
X140388791Y-82550947D01*
X140554215Y-82601128D01*
X140726250Y-82618072D01*
X141213750Y-82618072D01*
X141385785Y-82601128D01*
X141551209Y-82550947D01*
X141703664Y-82469458D01*
X141837292Y-82359792D01*
X141914662Y-82265517D01*
X141938102Y-82275226D01*
X142138061Y-82315000D01*
X142341939Y-82315000D01*
X142541898Y-82275226D01*
X142730256Y-82197205D01*
X142899774Y-82083937D01*
X143043937Y-81939774D01*
X143157205Y-81770256D01*
X143235226Y-81581898D01*
X143275000Y-81381939D01*
X143275000Y-81178061D01*
X143235226Y-80978102D01*
X143157205Y-80789744D01*
X143043937Y-80620226D01*
X142899774Y-80476063D01*
X142730256Y-80362795D01*
X142541898Y-80284774D01*
X142341939Y-80245000D01*
X142138061Y-80245000D01*
X141938102Y-80284774D01*
X141914662Y-80294483D01*
X141837292Y-80200208D01*
X141703664Y-80090542D01*
X141551209Y-80009053D01*
X141385785Y-79958872D01*
X141213750Y-79941928D01*
X140726250Y-79941928D01*
X140554215Y-79958872D01*
X140388791Y-80009053D01*
X140236336Y-80090542D01*
X140102708Y-80200208D01*
X140032500Y-80285756D01*
X139962292Y-80200208D01*
X139828664Y-80090542D01*
X139676209Y-80009053D01*
X139510785Y-79958872D01*
X139338750Y-79941928D01*
X138851250Y-79941928D01*
X138679215Y-79958872D01*
X138513791Y-80009053D01*
X138361336Y-80090542D01*
X138227708Y-80200208D01*
X138118042Y-80333836D01*
X138036553Y-80486291D01*
X138026327Y-80520000D01*
X137529823Y-80520000D01*
X137492500Y-80516324D01*
X137455177Y-80520000D01*
X137455167Y-80520000D01*
X137343514Y-80530997D01*
X137200253Y-80574454D01*
X137068224Y-80645026D01*
X136952499Y-80739999D01*
X136928701Y-80768997D01*
X134744003Y-82953696D01*
X134714999Y-82977499D01*
X134674957Y-83026291D01*
X134620026Y-83093224D01*
X134567381Y-83191715D01*
X134549454Y-83225254D01*
X134505997Y-83368515D01*
X134495000Y-83480168D01*
X134495000Y-83480178D01*
X134491324Y-83517500D01*
X134495000Y-83554823D01*
X134495001Y-84417659D01*
X134495000Y-84417668D01*
X134495001Y-86680197D01*
X134305199Y-86870000D01*
X132483673Y-86870000D01*
X132473447Y-86836291D01*
X132391958Y-86683836D01*
X132282292Y-86550208D01*
X132148664Y-86440542D01*
X131996209Y-86359053D01*
X131830785Y-86308872D01*
X131658750Y-86291928D01*
X131171250Y-86291928D01*
X130999215Y-86308872D01*
X130833791Y-86359053D01*
X130681336Y-86440542D01*
X130547708Y-86550208D01*
X130477500Y-86635756D01*
X130407292Y-86550208D01*
X130273664Y-86440542D01*
X130121209Y-86359053D01*
X129955785Y-86308872D01*
X129783750Y-86291928D01*
X129296250Y-86291928D01*
X129124215Y-86308872D01*
X128958791Y-86359053D01*
X128806336Y-86440542D01*
X128672708Y-86550208D01*
X128563042Y-86683836D01*
X128481553Y-86836291D01*
X128471327Y-86870000D01*
X127736173Y-86870000D01*
X127725947Y-86836291D01*
X127644458Y-86683836D01*
X127534792Y-86550208D01*
X127401164Y-86440542D01*
X127248709Y-86359053D01*
X127083285Y-86308872D01*
X126911250Y-86291928D01*
X126423750Y-86291928D01*
X126251715Y-86308872D01*
X126086291Y-86359053D01*
X125933836Y-86440542D01*
X125800208Y-86550208D01*
X125730000Y-86635756D01*
X125659792Y-86550208D01*
X125552500Y-86462155D01*
X125552500Y-85737301D01*
X128176008Y-83113795D01*
X128205001Y-83090001D01*
X128228795Y-83061008D01*
X128228799Y-83061004D01*
X128299973Y-82974277D01*
X128299974Y-82974276D01*
X128370546Y-82842247D01*
X128414003Y-82698986D01*
X128425000Y-82587333D01*
X128425000Y-82587324D01*
X128428676Y-82550001D01*
X128425000Y-82512678D01*
X128425000Y-82447845D01*
X128532292Y-82359792D01*
X128537508Y-82353436D01*
X128601315Y-82431185D01*
X128698006Y-82510537D01*
X128808320Y-82569502D01*
X128928018Y-82605812D01*
X129052500Y-82618072D01*
X129254250Y-82615000D01*
X129413000Y-82456250D01*
X129413000Y-81407000D01*
X129667000Y-81407000D01*
X129667000Y-82456250D01*
X129825750Y-82615000D01*
X130027500Y-82618072D01*
X130151982Y-82605812D01*
X130271680Y-82569502D01*
X130381994Y-82510537D01*
X130478685Y-82431185D01*
X130558037Y-82334494D01*
X130617002Y-82224180D01*
X130653312Y-82104482D01*
X130665572Y-81980000D01*
X130662500Y-81565750D01*
X130503750Y-81407000D01*
X129667000Y-81407000D01*
X129413000Y-81407000D01*
X129393000Y-81407000D01*
X129393000Y-81153000D01*
X129413000Y-81153000D01*
X129413000Y-80103750D01*
X129667000Y-80103750D01*
X129667000Y-81153000D01*
X130503750Y-81153000D01*
X130662500Y-80994250D01*
X130665572Y-80580000D01*
X130653312Y-80455518D01*
X130617002Y-80335820D01*
X130558037Y-80225506D01*
X130478685Y-80128815D01*
X130381994Y-80049463D01*
X130271680Y-79990498D01*
X130151982Y-79954188D01*
X130027500Y-79941928D01*
X129825750Y-79945000D01*
X129667000Y-80103750D01*
X129413000Y-80103750D01*
X129254250Y-79945000D01*
X129052500Y-79941928D01*
X128928018Y-79954188D01*
X128808320Y-79990498D01*
X128698006Y-80049463D01*
X128601315Y-80128815D01*
X128537508Y-80206564D01*
X128532292Y-80200208D01*
X128398664Y-80090542D01*
X128246209Y-80009053D01*
X128080785Y-79958872D01*
X127908750Y-79941928D01*
X127421250Y-79941928D01*
X127249215Y-79958872D01*
X127083791Y-80009053D01*
X126931336Y-80090542D01*
X126797708Y-80200208D01*
X126688042Y-80333836D01*
X126606553Y-80486291D01*
X126556372Y-80651715D01*
X126539428Y-80823750D01*
X126539428Y-81736250D01*
X126556372Y-81908285D01*
X126606553Y-82073709D01*
X126688042Y-82226164D01*
X126789909Y-82350289D01*
X124281503Y-84858696D01*
X124252499Y-84882499D01*
X124221935Y-84919742D01*
X124157526Y-84998224D01*
X124148464Y-85015178D01*
X124086954Y-85130254D01*
X124043497Y-85273515D01*
X124032500Y-85385168D01*
X124032500Y-85385178D01*
X124028824Y-85422500D01*
X124032500Y-85459823D01*
X124032500Y-86462155D01*
X123925208Y-86550208D01*
X123815542Y-86683836D01*
X123734053Y-86836291D01*
X123683872Y-87001715D01*
X123666928Y-87173750D01*
X123666928Y-88086250D01*
X123683872Y-88258285D01*
X123734053Y-88423709D01*
X123815542Y-88576164D01*
X123925208Y-88709792D01*
X124032500Y-88797845D01*
X124032501Y-92005921D01*
X123940184Y-92067606D01*
X123767606Y-92240184D01*
X123632012Y-92443113D01*
X123538614Y-92668597D01*
X123491000Y-92907969D01*
X123491000Y-93152031D01*
X123538614Y-93391403D01*
X123632012Y-93616887D01*
X123767606Y-93819816D01*
X123927790Y-93980000D01*
X123767606Y-94140184D01*
X123632012Y-94343113D01*
X123538614Y-94568597D01*
X123491000Y-94807969D01*
X123491000Y-95052031D01*
X123538614Y-95291403D01*
X123632012Y-95516887D01*
X123767606Y-95719816D01*
X123940184Y-95892394D01*
X124143113Y-96027988D01*
X124368597Y-96121386D01*
X124607969Y-96169000D01*
X124852031Y-96169000D01*
X125091403Y-96121386D01*
X125316887Y-96027988D01*
X125519816Y-95892394D01*
X125692394Y-95719816D01*
X125827988Y-95516887D01*
X125921386Y-95291403D01*
X125969000Y-95052031D01*
X125969000Y-94807969D01*
X125921386Y-94568597D01*
X125827988Y-94343113D01*
X125692394Y-94140184D01*
X125532210Y-93980000D01*
X125692394Y-93819816D01*
X125827988Y-93616887D01*
X125921386Y-93391403D01*
X125969000Y-93152031D01*
X125969000Y-92907969D01*
X125921386Y-92668597D01*
X125827988Y-92443113D01*
X125692394Y-92240184D01*
X125552500Y-92100290D01*
X125552500Y-88797845D01*
X125659792Y-88709792D01*
X125730000Y-88624244D01*
X125800208Y-88709792D01*
X125933836Y-88819458D01*
X126086291Y-88900947D01*
X126251715Y-88951128D01*
X126423750Y-88968072D01*
X126911250Y-88968072D01*
X127083285Y-88951128D01*
X127248709Y-88900947D01*
X127401164Y-88819458D01*
X127534792Y-88709792D01*
X127644458Y-88576164D01*
X127725947Y-88423709D01*
X127736173Y-88390000D01*
X128471327Y-88390000D01*
X128481553Y-88423709D01*
X128563042Y-88576164D01*
X128672708Y-88709792D01*
X128806336Y-88819458D01*
X128958791Y-88900947D01*
X129124215Y-88951128D01*
X129296250Y-88968072D01*
X129783750Y-88968072D01*
X129955785Y-88951128D01*
X130121209Y-88900947D01*
X130273664Y-88819458D01*
X130407292Y-88709792D01*
X130477500Y-88624244D01*
X130547708Y-88709792D01*
X130681336Y-88819458D01*
X130833791Y-88900947D01*
X130999215Y-88951128D01*
X131171250Y-88968072D01*
X131658750Y-88968072D01*
X131830785Y-88951128D01*
X131996209Y-88900947D01*
X132148664Y-88819458D01*
X132282292Y-88709792D01*
X132391958Y-88576164D01*
X132473447Y-88423709D01*
X132483673Y-88390000D01*
X133715987Y-88390000D01*
X133702795Y-88409744D01*
X133624774Y-88598102D01*
X133585000Y-88798061D01*
X133585000Y-89001939D01*
X133624774Y-89201898D01*
X133702795Y-89390256D01*
X133816063Y-89559774D01*
X133960226Y-89703937D01*
X134129744Y-89817205D01*
X134318102Y-89895226D01*
X134518061Y-89935000D01*
X134721939Y-89935000D01*
X134921898Y-89895226D01*
X135110256Y-89817205D01*
X135279774Y-89703937D01*
X135423937Y-89559774D01*
X135537205Y-89390256D01*
X135615226Y-89201898D01*
X135650413Y-89025000D01*
X135703141Y-89025000D01*
X135671916Y-89083418D01*
X135627071Y-89231255D01*
X135611928Y-89385000D01*
X135611928Y-89685000D01*
X135627071Y-89838745D01*
X135671916Y-89986582D01*
X135744742Y-90122829D01*
X135842749Y-90242251D01*
X135962171Y-90340258D01*
X136098418Y-90413084D01*
X136246255Y-90457929D01*
X136400000Y-90473072D01*
X136503020Y-90473072D01*
X136519454Y-90527247D01*
X136590026Y-90659276D01*
X136684999Y-90775001D01*
X136800724Y-90869974D01*
X136932753Y-90940546D01*
X137076014Y-90984003D01*
X137187667Y-90995000D01*
X137225000Y-90998677D01*
X137262333Y-90995000D01*
X143256928Y-90995000D01*
X143256928Y-92065000D01*
X143273992Y-92238254D01*
X143324528Y-92404850D01*
X143406595Y-92558386D01*
X143426795Y-92583000D01*
X130810000Y-92583000D01*
X130785224Y-92585440D01*
X130761399Y-92592667D01*
X130739443Y-92604403D01*
X130720197Y-92620197D01*
X130704403Y-92639443D01*
X130692667Y-92661399D01*
X130685440Y-92685224D01*
X130683000Y-92710000D01*
X130683000Y-98933000D01*
X120777000Y-98933000D01*
X120777000Y-78867000D01*
X163703000Y-78867000D01*
X163703000Y-80340614D01*
G37*
X163703000Y-80340614D02*
X163657588Y-80279731D01*
X163441355Y-80084822D01*
X163191252Y-79935843D01*
X162916891Y-79838519D01*
X162687000Y-79959186D01*
X162687000Y-81153000D01*
X162707000Y-81153000D01*
X162707000Y-81407000D01*
X162687000Y-81407000D01*
X162687000Y-83693000D01*
X162707000Y-83693000D01*
X162707000Y-83947000D01*
X162687000Y-83947000D01*
X162687000Y-83967000D01*
X162433000Y-83967000D01*
X162433000Y-83947000D01*
X162413000Y-83947000D01*
X162413000Y-83693000D01*
X162433000Y-83693000D01*
X162433000Y-81407000D01*
X162413000Y-81407000D01*
X162413000Y-81153000D01*
X162433000Y-81153000D01*
X162433000Y-79959186D01*
X162203109Y-79838519D01*
X161928748Y-79935843D01*
X161678645Y-80084822D01*
X161482498Y-80261626D01*
X161459502Y-80185820D01*
X161400537Y-80075506D01*
X161321185Y-79978815D01*
X161224494Y-79899463D01*
X161114180Y-79840498D01*
X160994482Y-79804188D01*
X160870000Y-79791928D01*
X159170000Y-79791928D01*
X159045518Y-79804188D01*
X158925820Y-79840498D01*
X158815506Y-79899463D01*
X158718815Y-79978815D01*
X158639463Y-80075506D01*
X158580498Y-80185820D01*
X158544188Y-80305518D01*
X158531928Y-80430000D01*
X158531928Y-80520000D01*
X149326173Y-80520000D01*
X149315947Y-80486291D01*
X149234458Y-80333836D01*
X149124792Y-80200208D01*
X148991164Y-80090542D01*
X148838709Y-80009053D01*
X148673285Y-79958872D01*
X148501250Y-79941928D01*
X148013750Y-79941928D01*
X147841715Y-79958872D01*
X147676291Y-80009053D01*
X147523836Y-80090542D01*
X147390208Y-80200208D01*
X147320000Y-80285756D01*
X147249792Y-80200208D01*
X147116164Y-80090542D01*
X146963709Y-80009053D01*
X146798285Y-79958872D01*
X146626250Y-79941928D01*
X146138750Y-79941928D01*
X145966715Y-79958872D01*
X145801291Y-80009053D01*
X145648836Y-80090542D01*
X145515208Y-80200208D01*
X145405542Y-80333836D01*
X145358535Y-80421781D01*
X145270256Y-80362795D01*
X145081898Y-80284774D01*
X144881939Y-80245000D01*
X144678061Y-80245000D01*
X144478102Y-80284774D01*
X144289744Y-80362795D01*
X144120226Y-80476063D01*
X143976063Y-80620226D01*
X143862795Y-80789744D01*
X143784774Y-80978102D01*
X143745000Y-81178061D01*
X143745000Y-81381939D01*
X143784774Y-81581898D01*
X143862795Y-81770256D01*
X143976063Y-81939774D01*
X144020000Y-81983711D01*
X144020000Y-83782662D01*
X144016323Y-83820000D01*
X144020000Y-83857333D01*
X144020000Y-84462332D01*
X144020001Y-84462338D01*
X144020001Y-86322657D01*
X144016323Y-86360000D01*
X144020000Y-86397333D01*
X144020001Y-88140000D01*
X143788072Y-88140000D01*
X143788072Y-88115000D01*
X143772929Y-87961255D01*
X143728084Y-87813418D01*
X143656270Y-87679064D01*
X143680537Y-87649494D01*
X143739502Y-87539180D01*
X143775812Y-87419482D01*
X143788072Y-87295000D01*
X143785000Y-87280750D01*
X143626250Y-87122000D01*
X142302000Y-87122000D01*
X142302000Y-87142000D01*
X142048000Y-87142000D01*
X142048000Y-87122000D01*
X142028000Y-87122000D01*
X142028000Y-86868000D01*
X142048000Y-86868000D01*
X142048000Y-86848000D01*
X142302000Y-86848000D01*
X142302000Y-86868000D01*
X143626250Y-86868000D01*
X143785000Y-86709250D01*
X143788072Y-86695000D01*
X143775812Y-86570518D01*
X143739502Y-86450820D01*
X143680537Y-86340506D01*
X143656270Y-86310936D01*
X143728084Y-86176582D01*
X143772929Y-86028745D01*
X143788072Y-85875000D01*
X143788072Y-85575000D01*
X143772929Y-85421255D01*
X143728084Y-85273418D01*
X143655258Y-85137171D01*
X143557251Y-85017749D01*
X143437829Y-84919742D01*
X143301582Y-84846916D01*
X143153745Y-84802071D01*
X143000000Y-84786928D01*
X141350000Y-84786928D01*
X141196255Y-84802071D01*
X141048418Y-84846916D01*
X140912171Y-84919742D01*
X140792749Y-85017749D01*
X140694742Y-85137171D01*
X140621916Y-85273418D01*
X140577071Y-85421255D01*
X140570110Y-85491928D01*
X138829890Y-85491928D01*
X138822929Y-85421255D01*
X138778084Y-85273418D01*
X138705258Y-85137171D01*
X138607251Y-85017749D01*
X138487829Y-84919742D01*
X138351582Y-84846916D01*
X138203745Y-84802071D01*
X138050000Y-84786928D01*
X136400000Y-84786928D01*
X136246255Y-84802071D01*
X136098418Y-84846916D01*
X136015000Y-84891504D01*
X136015000Y-83832301D01*
X137807302Y-82040000D01*
X138026327Y-82040000D01*
X138036553Y-82073709D01*
X138118042Y-82226164D01*
X138227708Y-82359792D01*
X138361336Y-82469458D01*
X138513791Y-82550947D01*
X138679215Y-82601128D01*
X138851250Y-82618072D01*
X139338750Y-82618072D01*
X139510785Y-82601128D01*
X139676209Y-82550947D01*
X139828664Y-82469458D01*
X139962292Y-82359792D01*
X140032500Y-82274244D01*
X140102708Y-82359792D01*
X140236336Y-82469458D01*
X140388791Y-82550947D01*
X140554215Y-82601128D01*
X140726250Y-82618072D01*
X141213750Y-82618072D01*
X141385785Y-82601128D01*
X141551209Y-82550947D01*
X141703664Y-82469458D01*
X141837292Y-82359792D01*
X141914662Y-82265517D01*
X141938102Y-82275226D01*
X142138061Y-82315000D01*
X142341939Y-82315000D01*
X142541898Y-82275226D01*
X142730256Y-82197205D01*
X142899774Y-82083937D01*
X143043937Y-81939774D01*
X143157205Y-81770256D01*
X143235226Y-81581898D01*
X143275000Y-81381939D01*
X143275000Y-81178061D01*
X143235226Y-80978102D01*
X143157205Y-80789744D01*
X143043937Y-80620226D01*
X142899774Y-80476063D01*
X142730256Y-80362795D01*
X142541898Y-80284774D01*
X142341939Y-80245000D01*
X142138061Y-80245000D01*
X141938102Y-80284774D01*
X141914662Y-80294483D01*
X141837292Y-80200208D01*
X141703664Y-80090542D01*
X141551209Y-80009053D01*
X141385785Y-79958872D01*
X141213750Y-79941928D01*
X140726250Y-79941928D01*
X140554215Y-79958872D01*
X140388791Y-80009053D01*
X140236336Y-80090542D01*
X140102708Y-80200208D01*
X140032500Y-80285756D01*
X139962292Y-80200208D01*
X139828664Y-80090542D01*
X139676209Y-80009053D01*
X139510785Y-79958872D01*
X139338750Y-79941928D01*
X138851250Y-79941928D01*
X138679215Y-79958872D01*
X138513791Y-80009053D01*
X138361336Y-80090542D01*
X138227708Y-80200208D01*
X138118042Y-80333836D01*
X138036553Y-80486291D01*
X138026327Y-80520000D01*
X137529823Y-80520000D01*
X137492500Y-80516324D01*
X137455177Y-80520000D01*
X137455167Y-80520000D01*
X137343514Y-80530997D01*
X137200253Y-80574454D01*
X137068224Y-80645026D01*
X136952499Y-80739999D01*
X136928701Y-80768997D01*
X134744003Y-82953696D01*
X134714999Y-82977499D01*
X134674957Y-83026291D01*
X134620026Y-83093224D01*
X134567381Y-83191715D01*
X134549454Y-83225254D01*
X134505997Y-83368515D01*
X134495000Y-83480168D01*
X134495000Y-83480178D01*
X134491324Y-83517500D01*
X134495000Y-83554823D01*
X134495001Y-84417659D01*
X134495000Y-84417668D01*
X134495001Y-86680197D01*
X134305199Y-86870000D01*
X132483673Y-86870000D01*
X132473447Y-86836291D01*
X132391958Y-86683836D01*
X132282292Y-86550208D01*
X132148664Y-86440542D01*
X131996209Y-86359053D01*
X131830785Y-86308872D01*
X131658750Y-86291928D01*
X131171250Y-86291928D01*
X130999215Y-86308872D01*
X130833791Y-86359053D01*
X130681336Y-86440542D01*
X130547708Y-86550208D01*
X130477500Y-86635756D01*
X130407292Y-86550208D01*
X130273664Y-86440542D01*
X130121209Y-86359053D01*
X129955785Y-86308872D01*
X129783750Y-86291928D01*
X129296250Y-86291928D01*
X129124215Y-86308872D01*
X128958791Y-86359053D01*
X128806336Y-86440542D01*
X128672708Y-86550208D01*
X128563042Y-86683836D01*
X128481553Y-86836291D01*
X128471327Y-86870000D01*
X127736173Y-86870000D01*
X127725947Y-86836291D01*
X127644458Y-86683836D01*
X127534792Y-86550208D01*
X127401164Y-86440542D01*
X127248709Y-86359053D01*
X127083285Y-86308872D01*
X126911250Y-86291928D01*
X126423750Y-86291928D01*
X126251715Y-86308872D01*
X126086291Y-86359053D01*
X125933836Y-86440542D01*
X125800208Y-86550208D01*
X125730000Y-86635756D01*
X125659792Y-86550208D01*
X125552500Y-86462155D01*
X125552500Y-85737301D01*
X128176008Y-83113795D01*
X128205001Y-83090001D01*
X128228795Y-83061008D01*
X128228799Y-83061004D01*
X128299973Y-82974277D01*
X128299974Y-82974276D01*
X128370546Y-82842247D01*
X128414003Y-82698986D01*
X128425000Y-82587333D01*
X128425000Y-82587324D01*
X128428676Y-82550001D01*
X128425000Y-82512678D01*
X128425000Y-82447845D01*
X128532292Y-82359792D01*
X128537508Y-82353436D01*
X128601315Y-82431185D01*
X128698006Y-82510537D01*
X128808320Y-82569502D01*
X128928018Y-82605812D01*
X129052500Y-82618072D01*
X129254250Y-82615000D01*
X129413000Y-82456250D01*
X129413000Y-81407000D01*
X129667000Y-81407000D01*
X129667000Y-82456250D01*
X129825750Y-82615000D01*
X130027500Y-82618072D01*
X130151982Y-82605812D01*
X130271680Y-82569502D01*
X130381994Y-82510537D01*
X130478685Y-82431185D01*
X130558037Y-82334494D01*
X130617002Y-82224180D01*
X130653312Y-82104482D01*
X130665572Y-81980000D01*
X130662500Y-81565750D01*
X130503750Y-81407000D01*
X129667000Y-81407000D01*
X129413000Y-81407000D01*
X129393000Y-81407000D01*
X129393000Y-81153000D01*
X129413000Y-81153000D01*
X129413000Y-80103750D01*
X129667000Y-80103750D01*
X129667000Y-81153000D01*
X130503750Y-81153000D01*
X130662500Y-80994250D01*
X130665572Y-80580000D01*
X130653312Y-80455518D01*
X130617002Y-80335820D01*
X130558037Y-80225506D01*
X130478685Y-80128815D01*
X130381994Y-80049463D01*
X130271680Y-79990498D01*
X130151982Y-79954188D01*
X130027500Y-79941928D01*
X129825750Y-79945000D01*
X129667000Y-80103750D01*
X129413000Y-80103750D01*
X129254250Y-79945000D01*
X129052500Y-79941928D01*
X128928018Y-79954188D01*
X128808320Y-79990498D01*
X128698006Y-80049463D01*
X128601315Y-80128815D01*
X128537508Y-80206564D01*
X128532292Y-80200208D01*
X128398664Y-80090542D01*
X128246209Y-80009053D01*
X128080785Y-79958872D01*
X127908750Y-79941928D01*
X127421250Y-79941928D01*
X127249215Y-79958872D01*
X127083791Y-80009053D01*
X126931336Y-80090542D01*
X126797708Y-80200208D01*
X126688042Y-80333836D01*
X126606553Y-80486291D01*
X126556372Y-80651715D01*
X126539428Y-80823750D01*
X126539428Y-81736250D01*
X126556372Y-81908285D01*
X126606553Y-82073709D01*
X126688042Y-82226164D01*
X126789909Y-82350289D01*
X124281503Y-84858696D01*
X124252499Y-84882499D01*
X124221935Y-84919742D01*
X124157526Y-84998224D01*
X124148464Y-85015178D01*
X124086954Y-85130254D01*
X124043497Y-85273515D01*
X124032500Y-85385168D01*
X124032500Y-85385178D01*
X124028824Y-85422500D01*
X124032500Y-85459823D01*
X124032500Y-86462155D01*
X123925208Y-86550208D01*
X123815542Y-86683836D01*
X123734053Y-86836291D01*
X123683872Y-87001715D01*
X123666928Y-87173750D01*
X123666928Y-88086250D01*
X123683872Y-88258285D01*
X123734053Y-88423709D01*
X123815542Y-88576164D01*
X123925208Y-88709792D01*
X124032500Y-88797845D01*
X124032501Y-92005921D01*
X123940184Y-92067606D01*
X123767606Y-92240184D01*
X123632012Y-92443113D01*
X123538614Y-92668597D01*
X123491000Y-92907969D01*
X123491000Y-93152031D01*
X123538614Y-93391403D01*
X123632012Y-93616887D01*
X123767606Y-93819816D01*
X123927790Y-93980000D01*
X123767606Y-94140184D01*
X123632012Y-94343113D01*
X123538614Y-94568597D01*
X123491000Y-94807969D01*
X123491000Y-95052031D01*
X123538614Y-95291403D01*
X123632012Y-95516887D01*
X123767606Y-95719816D01*
X123940184Y-95892394D01*
X124143113Y-96027988D01*
X124368597Y-96121386D01*
X124607969Y-96169000D01*
X124852031Y-96169000D01*
X125091403Y-96121386D01*
X125316887Y-96027988D01*
X125519816Y-95892394D01*
X125692394Y-95719816D01*
X125827988Y-95516887D01*
X125921386Y-95291403D01*
X125969000Y-95052031D01*
X125969000Y-94807969D01*
X125921386Y-94568597D01*
X125827988Y-94343113D01*
X125692394Y-94140184D01*
X125532210Y-93980000D01*
X125692394Y-93819816D01*
X125827988Y-93616887D01*
X125921386Y-93391403D01*
X125969000Y-93152031D01*
X125969000Y-92907969D01*
X125921386Y-92668597D01*
X125827988Y-92443113D01*
X125692394Y-92240184D01*
X125552500Y-92100290D01*
X125552500Y-88797845D01*
X125659792Y-88709792D01*
X125730000Y-88624244D01*
X125800208Y-88709792D01*
X125933836Y-88819458D01*
X126086291Y-88900947D01*
X126251715Y-88951128D01*
X126423750Y-88968072D01*
X126911250Y-88968072D01*
X127083285Y-88951128D01*
X127248709Y-88900947D01*
X127401164Y-88819458D01*
X127534792Y-88709792D01*
X127644458Y-88576164D01*
X127725947Y-88423709D01*
X127736173Y-88390000D01*
X128471327Y-88390000D01*
X128481553Y-88423709D01*
X128563042Y-88576164D01*
X128672708Y-88709792D01*
X128806336Y-88819458D01*
X128958791Y-88900947D01*
X129124215Y-88951128D01*
X129296250Y-88968072D01*
X129783750Y-88968072D01*
X129955785Y-88951128D01*
X130121209Y-88900947D01*
X130273664Y-88819458D01*
X130407292Y-88709792D01*
X130477500Y-88624244D01*
X130547708Y-88709792D01*
X130681336Y-88819458D01*
X130833791Y-88900947D01*
X130999215Y-88951128D01*
X131171250Y-88968072D01*
X131658750Y-88968072D01*
X131830785Y-88951128D01*
X131996209Y-88900947D01*
X132148664Y-88819458D01*
X132282292Y-88709792D01*
X132391958Y-88576164D01*
X132473447Y-88423709D01*
X132483673Y-88390000D01*
X133715987Y-88390000D01*
X133702795Y-88409744D01*
X133624774Y-88598102D01*
X133585000Y-88798061D01*
X133585000Y-89001939D01*
X133624774Y-89201898D01*
X133702795Y-89390256D01*
X133816063Y-89559774D01*
X133960226Y-89703937D01*
X134129744Y-89817205D01*
X134318102Y-89895226D01*
X134518061Y-89935000D01*
X134721939Y-89935000D01*
X134921898Y-89895226D01*
X135110256Y-89817205D01*
X135279774Y-89703937D01*
X135423937Y-89559774D01*
X135537205Y-89390256D01*
X135615226Y-89201898D01*
X135650413Y-89025000D01*
X135703141Y-89025000D01*
X135671916Y-89083418D01*
X135627071Y-89231255D01*
X135611928Y-89385000D01*
X135611928Y-89685000D01*
X135627071Y-89838745D01*
X135671916Y-89986582D01*
X135744742Y-90122829D01*
X135842749Y-90242251D01*
X135962171Y-90340258D01*
X136098418Y-90413084D01*
X136246255Y-90457929D01*
X136400000Y-90473072D01*
X136503020Y-90473072D01*
X136519454Y-90527247D01*
X136590026Y-90659276D01*
X136684999Y-90775001D01*
X136800724Y-90869974D01*
X136932753Y-90940546D01*
X137076014Y-90984003D01*
X137187667Y-90995000D01*
X137225000Y-90998677D01*
X137262333Y-90995000D01*
X143256928Y-90995000D01*
X143256928Y-92065000D01*
X143273992Y-92238254D01*
X143324528Y-92404850D01*
X143406595Y-92558386D01*
X143426795Y-92583000D01*
X130810000Y-92583000D01*
X130785224Y-92585440D01*
X130761399Y-92592667D01*
X130739443Y-92604403D01*
X130720197Y-92620197D01*
X130704403Y-92639443D01*
X130692667Y-92661399D01*
X130685440Y-92685224D01*
X130683000Y-92710000D01*
X130683000Y-98933000D01*
X120777000Y-98933000D01*
X120777000Y-78867000D01*
X163703000Y-78867000D01*
X163703000Y-80340614D01*
G36*
X157818953Y-92853755D02*
G01*
X157861946Y-92971324D01*
X157939803Y-93099193D01*
X158041110Y-93209416D01*
X158161974Y-93297756D01*
X158263728Y-93345017D01*
X158443522Y-93407939D01*
X158457753Y-93415546D01*
X158467589Y-93418530D01*
X158476772Y-93423126D01*
X158523686Y-93435994D01*
X158534192Y-93439671D01*
X158549761Y-93443456D01*
X158601014Y-93459003D01*
X158611242Y-93460010D01*
X158621146Y-93462727D01*
X158626744Y-93463127D01*
X158592068Y-93546842D01*
X158535000Y-93833740D01*
X158535000Y-94126260D01*
X158592068Y-94413158D01*
X158704010Y-94683411D01*
X158866525Y-94926632D01*
X159073368Y-95133475D01*
X159316589Y-95295990D01*
X159586842Y-95407932D01*
X159873740Y-95465000D01*
X160166260Y-95465000D01*
X160453158Y-95407932D01*
X160723411Y-95295990D01*
X160966632Y-95133475D01*
X161173475Y-94926632D01*
X161290000Y-94752240D01*
X161406525Y-94926632D01*
X161613368Y-95133475D01*
X161856589Y-95295990D01*
X162126842Y-95407932D01*
X162413740Y-95465000D01*
X162706260Y-95465000D01*
X162993158Y-95407932D01*
X163263411Y-95295990D01*
X163506632Y-95133475D01*
X163703000Y-94937107D01*
X163703000Y-98933000D01*
X152527000Y-98933000D01*
X152527000Y-95220731D01*
X152537038Y-95232962D01*
X152671614Y-95343405D01*
X152825150Y-95425472D01*
X152991746Y-95476008D01*
X153165000Y-95493072D01*
X153915000Y-95493072D01*
X154088254Y-95476008D01*
X154254850Y-95425472D01*
X154408386Y-95343405D01*
X154542962Y-95232962D01*
X154653405Y-95098386D01*
X154735472Y-94944850D01*
X154762727Y-94855000D01*
X155076928Y-94855000D01*
X155089188Y-94979482D01*
X155125498Y-95099180D01*
X155184463Y-95209494D01*
X155263815Y-95306185D01*
X155360506Y-95385537D01*
X155470820Y-95444502D01*
X155590518Y-95480812D01*
X155715000Y-95493072D01*
X156054250Y-95490000D01*
X156213000Y-95331250D01*
X156213000Y-94107000D01*
X156467000Y-94107000D01*
X156467000Y-95331250D01*
X156625750Y-95490000D01*
X156965000Y-95493072D01*
X157089482Y-95480812D01*
X157209180Y-95444502D01*
X157319494Y-95385537D01*
X157416185Y-95306185D01*
X157495537Y-95209494D01*
X157554502Y-95099180D01*
X157590812Y-94979482D01*
X157603072Y-94855000D01*
X157600000Y-94265750D01*
X157441250Y-94107000D01*
X156467000Y-94107000D01*
X156213000Y-94107000D01*
X155238750Y-94107000D01*
X155080000Y-94265750D01*
X155076928Y-94855000D01*
X154762727Y-94855000D01*
X154786008Y-94778254D01*
X154803072Y-94605000D01*
X154803072Y-93355000D01*
X154786008Y-93181746D01*
X154762728Y-93105000D01*
X155076928Y-93105000D01*
X155080000Y-93694250D01*
X155238750Y-93853000D01*
X156213000Y-93853000D01*
X156213000Y-92628750D01*
X156467000Y-92628750D01*
X156467000Y-93853000D01*
X157441250Y-93853000D01*
X157600000Y-93694250D01*
X157603072Y-93105000D01*
X157590812Y-92980518D01*
X157554502Y-92860820D01*
X157495537Y-92750506D01*
X157416185Y-92653815D01*
X157319494Y-92574463D01*
X157209180Y-92515498D01*
X157089482Y-92479188D01*
X156965000Y-92466928D01*
X156625750Y-92470000D01*
X156467000Y-92628750D01*
X156213000Y-92628750D01*
X156054250Y-92470000D01*
X155715000Y-92466928D01*
X155590518Y-92479188D01*
X155470820Y-92515498D01*
X155360506Y-92574463D01*
X155263815Y-92653815D01*
X155184463Y-92750506D01*
X155125498Y-92860820D01*
X155089188Y-92980518D01*
X155076928Y-93105000D01*
X154762728Y-93105000D01*
X154735472Y-93015150D01*
X154653405Y-92861614D01*
X154542962Y-92727038D01*
X154408386Y-92616595D01*
X154301662Y-92559550D01*
X154300000Y-92542676D01*
X154300000Y-92542667D01*
X154289003Y-92431014D01*
X154245546Y-92287753D01*
X154174974Y-92155724D01*
X154129057Y-92099774D01*
X154103799Y-92068996D01*
X154103795Y-92068992D01*
X154080001Y-92039999D01*
X154051008Y-92016205D01*
X153435000Y-91400198D01*
X153435000Y-91338061D01*
X153395226Y-91138102D01*
X153335951Y-90995000D01*
X155960199Y-90995000D01*
X157818953Y-92853755D01*
G37*
X157818953Y-92853755D02*
X157861946Y-92971324D01*
X157939803Y-93099193D01*
X158041110Y-93209416D01*
X158161974Y-93297756D01*
X158263728Y-93345017D01*
X158443522Y-93407939D01*
X158457753Y-93415546D01*
X158467589Y-93418530D01*
X158476772Y-93423126D01*
X158523686Y-93435994D01*
X158534192Y-93439671D01*
X158549761Y-93443456D01*
X158601014Y-93459003D01*
X158611242Y-93460010D01*
X158621146Y-93462727D01*
X158626744Y-93463127D01*
X158592068Y-93546842D01*
X158535000Y-93833740D01*
X158535000Y-94126260D01*
X158592068Y-94413158D01*
X158704010Y-94683411D01*
X158866525Y-94926632D01*
X159073368Y-95133475D01*
X159316589Y-95295990D01*
X159586842Y-95407932D01*
X159873740Y-95465000D01*
X160166260Y-95465000D01*
X160453158Y-95407932D01*
X160723411Y-95295990D01*
X160966632Y-95133475D01*
X161173475Y-94926632D01*
X161290000Y-94752240D01*
X161406525Y-94926632D01*
X161613368Y-95133475D01*
X161856589Y-95295990D01*
X162126842Y-95407932D01*
X162413740Y-95465000D01*
X162706260Y-95465000D01*
X162993158Y-95407932D01*
X163263411Y-95295990D01*
X163506632Y-95133475D01*
X163703000Y-94937107D01*
X163703000Y-98933000D01*
X152527000Y-98933000D01*
X152527000Y-95220731D01*
X152537038Y-95232962D01*
X152671614Y-95343405D01*
X152825150Y-95425472D01*
X152991746Y-95476008D01*
X153165000Y-95493072D01*
X153915000Y-95493072D01*
X154088254Y-95476008D01*
X154254850Y-95425472D01*
X154408386Y-95343405D01*
X154542962Y-95232962D01*
X154653405Y-95098386D01*
X154735472Y-94944850D01*
X154762727Y-94855000D01*
X155076928Y-94855000D01*
X155089188Y-94979482D01*
X155125498Y-95099180D01*
X155184463Y-95209494D01*
X155263815Y-95306185D01*
X155360506Y-95385537D01*
X155470820Y-95444502D01*
X155590518Y-95480812D01*
X155715000Y-95493072D01*
X156054250Y-95490000D01*
X156213000Y-95331250D01*
X156213000Y-94107000D01*
X156467000Y-94107000D01*
X156467000Y-95331250D01*
X156625750Y-95490000D01*
X156965000Y-95493072D01*
X157089482Y-95480812D01*
X157209180Y-95444502D01*
X157319494Y-95385537D01*
X157416185Y-95306185D01*
X157495537Y-95209494D01*
X157554502Y-95099180D01*
X157590812Y-94979482D01*
X157603072Y-94855000D01*
X157600000Y-94265750D01*
X157441250Y-94107000D01*
X156467000Y-94107000D01*
X156213000Y-94107000D01*
X155238750Y-94107000D01*
X155080000Y-94265750D01*
X155076928Y-94855000D01*
X154762727Y-94855000D01*
X154786008Y-94778254D01*
X154803072Y-94605000D01*
X154803072Y-93355000D01*
X154786008Y-93181746D01*
X154762728Y-93105000D01*
X155076928Y-93105000D01*
X155080000Y-93694250D01*
X155238750Y-93853000D01*
X156213000Y-93853000D01*
X156213000Y-92628750D01*
X156467000Y-92628750D01*
X156467000Y-93853000D01*
X157441250Y-93853000D01*
X157600000Y-93694250D01*
X157603072Y-93105000D01*
X157590812Y-92980518D01*
X157554502Y-92860820D01*
X157495537Y-92750506D01*
X157416185Y-92653815D01*
X157319494Y-92574463D01*
X157209180Y-92515498D01*
X157089482Y-92479188D01*
X156965000Y-92466928D01*
X156625750Y-92470000D01*
X156467000Y-92628750D01*
X156213000Y-92628750D01*
X156054250Y-92470000D01*
X155715000Y-92466928D01*
X155590518Y-92479188D01*
X155470820Y-92515498D01*
X155360506Y-92574463D01*
X155263815Y-92653815D01*
X155184463Y-92750506D01*
X155125498Y-92860820D01*
X155089188Y-92980518D01*
X155076928Y-93105000D01*
X154762728Y-93105000D01*
X154735472Y-93015150D01*
X154653405Y-92861614D01*
X154542962Y-92727038D01*
X154408386Y-92616595D01*
X154301662Y-92559550D01*
X154300000Y-92542676D01*
X154300000Y-92542667D01*
X154289003Y-92431014D01*
X154245546Y-92287753D01*
X154174974Y-92155724D01*
X154129057Y-92099774D01*
X154103799Y-92068996D01*
X154103795Y-92068992D01*
X154080001Y-92039999D01*
X154051008Y-92016205D01*
X153435000Y-91400198D01*
X153435000Y-91338061D01*
X153395226Y-91138102D01*
X153335951Y-90995000D01*
X155960199Y-90995000D01*
X157818953Y-92853755D01*
G36*
X163703000Y-85402893D02*
G01*
X163506632Y-85206525D01*
X163324466Y-85084805D01*
X163441355Y-85015178D01*
X163657588Y-84820269D01*
X163703000Y-84759386D01*
X163703000Y-85402893D01*
G37*
X163703000Y-85402893D02*
X163506632Y-85206525D01*
X163324466Y-85084805D01*
X163441355Y-85015178D01*
X163657588Y-84820269D01*
X163703000Y-84759386D01*
X163703000Y-85402893D01*
M02*
