G04 #@! TF.GenerationSoftware,KiCad,Pcbnew,(5.1.5-0-10_14)*
G04 #@! TF.CreationDate,2020-05-12T15:37:33-05:00*
G04 #@! TF.ProjectId,Sensors,53656e73-6f72-4732-9e6b-696361645f70,rev?*
G04 #@! TF.SameCoordinates,Original*
G04 #@! TF.FileFunction,Legend,Top*
G04 #@! TF.FilePolarity,Positive*
%FSLAX46Y46*%
G04 Gerber Fmt 4.6, Leading zero omitted, Abs format (unit mm)*
G04 Created by KiCad (PCBNEW (5.1.5-0-10_14)) date 2020-05-12 15:37:33*
%MOMM*%
%LPD*%
G04 APERTURE LIST*
%ADD10C,0.300000*%
%ADD11C,0.381000*%
%ADD12C,0.120000*%
%ADD13C,0.127000*%
%ADD14C,0.150000*%
%ADD15C,0.050000*%
G04 APERTURE END LIST*
D10*
X144351428Y-81943571D02*
X144351428Y-80443571D01*
X145208571Y-81943571D01*
X145208571Y-80443571D01*
X144458571Y-83707857D02*
X144958571Y-83707857D01*
X145172857Y-84493571D02*
X144458571Y-84493571D01*
X144458571Y-82993571D01*
X145172857Y-82993571D01*
X144351428Y-86972142D02*
X144565714Y-87043571D01*
X144922857Y-87043571D01*
X145065714Y-86972142D01*
X145137142Y-86900714D01*
X145208571Y-86757857D01*
X145208571Y-86615000D01*
X145137142Y-86472142D01*
X145065714Y-86400714D01*
X144922857Y-86329285D01*
X144637142Y-86257857D01*
X144494285Y-86186428D01*
X144422857Y-86115000D01*
X144351428Y-85972142D01*
X144351428Y-85829285D01*
X144422857Y-85686428D01*
X144494285Y-85615000D01*
X144637142Y-85543571D01*
X144994285Y-85543571D01*
X145208571Y-85615000D01*
X144137142Y-88093571D02*
X144494285Y-89593571D01*
X144780000Y-88522142D01*
X145065714Y-89593571D01*
X145422857Y-88093571D01*
X155781428Y-81943571D02*
X155781428Y-80443571D01*
X156638571Y-81943571D01*
X156638571Y-80443571D01*
X155888571Y-83707857D02*
X156388571Y-83707857D01*
X156602857Y-84493571D02*
X155888571Y-84493571D01*
X155888571Y-82993571D01*
X156602857Y-82993571D01*
X155781428Y-86972142D02*
X155995714Y-87043571D01*
X156352857Y-87043571D01*
X156495714Y-86972142D01*
X156567142Y-86900714D01*
X156638571Y-86757857D01*
X156638571Y-86615000D01*
X156567142Y-86472142D01*
X156495714Y-86400714D01*
X156352857Y-86329285D01*
X156067142Y-86257857D01*
X155924285Y-86186428D01*
X155852857Y-86115000D01*
X155781428Y-85972142D01*
X155781428Y-85829285D01*
X155852857Y-85686428D01*
X155924285Y-85615000D01*
X156067142Y-85543571D01*
X156424285Y-85543571D01*
X156638571Y-85615000D01*
X155567142Y-88093571D02*
X155924285Y-89593571D01*
X156210000Y-88522142D01*
X156495714Y-89593571D01*
X156852857Y-88093571D01*
D11*
X137795000Y-95671821D02*
X138067142Y-95762535D01*
X138520714Y-95762535D01*
X138702142Y-95671821D01*
X138792857Y-95581107D01*
X138883571Y-95399678D01*
X138883571Y-95218250D01*
X138792857Y-95036821D01*
X138702142Y-94946107D01*
X138520714Y-94855392D01*
X138157857Y-94764678D01*
X137976428Y-94673964D01*
X137885714Y-94583250D01*
X137795000Y-94401821D01*
X137795000Y-94220392D01*
X137885714Y-94038964D01*
X137976428Y-93948250D01*
X138157857Y-93857535D01*
X138611428Y-93857535D01*
X138883571Y-93948250D01*
X140425714Y-95671821D02*
X140244285Y-95762535D01*
X139881428Y-95762535D01*
X139700000Y-95671821D01*
X139609285Y-95490392D01*
X139609285Y-94764678D01*
X139700000Y-94583250D01*
X139881428Y-94492535D01*
X140244285Y-94492535D01*
X140425714Y-94583250D01*
X140516428Y-94764678D01*
X140516428Y-94946107D01*
X139609285Y-95127535D01*
X141332857Y-94492535D02*
X141332857Y-95762535D01*
X141332857Y-94673964D02*
X141423571Y-94583250D01*
X141605000Y-94492535D01*
X141877142Y-94492535D01*
X142058571Y-94583250D01*
X142149285Y-94764678D01*
X142149285Y-95762535D01*
X142965714Y-95671821D02*
X143147142Y-95762535D01*
X143510000Y-95762535D01*
X143691428Y-95671821D01*
X143782142Y-95490392D01*
X143782142Y-95399678D01*
X143691428Y-95218250D01*
X143510000Y-95127535D01*
X143237857Y-95127535D01*
X143056428Y-95036821D01*
X142965714Y-94855392D01*
X142965714Y-94764678D01*
X143056428Y-94583250D01*
X143237857Y-94492535D01*
X143510000Y-94492535D01*
X143691428Y-94583250D01*
X144870714Y-95762535D02*
X144689285Y-95671821D01*
X144598571Y-95581107D01*
X144507857Y-95399678D01*
X144507857Y-94855392D01*
X144598571Y-94673964D01*
X144689285Y-94583250D01*
X144870714Y-94492535D01*
X145142857Y-94492535D01*
X145324285Y-94583250D01*
X145415000Y-94673964D01*
X145505714Y-94855392D01*
X145505714Y-95399678D01*
X145415000Y-95581107D01*
X145324285Y-95671821D01*
X145142857Y-95762535D01*
X144870714Y-95762535D01*
X146322142Y-95762535D02*
X146322142Y-94492535D01*
X146322142Y-94855392D02*
X146412857Y-94673964D01*
X146503571Y-94583250D01*
X146685000Y-94492535D01*
X146866428Y-94492535D01*
X140335000Y-97277464D02*
X140425714Y-97186750D01*
X140607142Y-97096035D01*
X141060714Y-97096035D01*
X141242142Y-97186750D01*
X141332857Y-97277464D01*
X141423571Y-97458892D01*
X141423571Y-97640321D01*
X141332857Y-97912464D01*
X140244285Y-99001035D01*
X141423571Y-99001035D01*
X142240000Y-98819607D02*
X142330714Y-98910321D01*
X142240000Y-99001035D01*
X142149285Y-98910321D01*
X142240000Y-98819607D01*
X142240000Y-99001035D01*
X144145000Y-99001035D02*
X143056428Y-99001035D01*
X143600714Y-99001035D02*
X143600714Y-97096035D01*
X143419285Y-97368178D01*
X143237857Y-97549607D01*
X143056428Y-97640321D01*
D12*
X146522064Y-90530000D02*
X145317936Y-90530000D01*
X146522064Y-92350000D02*
X145317936Y-92350000D01*
X158690000Y-79950000D02*
X160020000Y-79950000D01*
X158690000Y-81280000D02*
X158690000Y-79950000D01*
X161290000Y-79950000D02*
X163890000Y-79950000D01*
X161290000Y-82550000D02*
X161290000Y-79950000D01*
X158690000Y-82550000D02*
X161290000Y-82550000D01*
X163890000Y-79950000D02*
X163890000Y-95310000D01*
X158690000Y-82550000D02*
X158690000Y-95310000D01*
X158690000Y-95310000D02*
X163890000Y-95310000D01*
X125730000Y-79990000D02*
X122280000Y-79990000D01*
X125730000Y-79990000D02*
X127680000Y-79990000D01*
X125730000Y-85110000D02*
X123780000Y-85110000D01*
X125730000Y-85110000D02*
X127680000Y-85110000D01*
D13*
X128730000Y-93980000D02*
G75*
G03X128730000Y-93980000I-3000000J0D01*
G01*
D12*
X135211078Y-79300000D02*
X134693922Y-79300000D01*
X135211078Y-80720000D02*
X134693922Y-80720000D01*
X139700000Y-85070000D02*
X136250000Y-85070000D01*
X139700000Y-85070000D02*
X141650000Y-85070000D01*
X139700000Y-90190000D02*
X137750000Y-90190000D01*
X139700000Y-90190000D02*
X141650000Y-90190000D01*
X148848578Y-88190000D02*
X148331422Y-88190000D01*
X148848578Y-89610000D02*
X148331422Y-89610000D01*
X140291078Y-80570000D02*
X139773922Y-80570000D01*
X140291078Y-81990000D02*
X139773922Y-81990000D01*
X148516078Y-83110000D02*
X147998922Y-83110000D01*
X148516078Y-84530000D02*
X147998922Y-84530000D01*
X147911078Y-85650000D02*
X147393922Y-85650000D01*
X147911078Y-87070000D02*
X147393922Y-87070000D01*
X147393922Y-81990000D02*
X147911078Y-81990000D01*
X147393922Y-80570000D02*
X147911078Y-80570000D01*
X130736078Y-86920000D02*
X130218922Y-86920000D01*
X130736078Y-88340000D02*
X130218922Y-88340000D01*
X151490000Y-81947936D02*
X151490000Y-83152064D01*
X153310000Y-81947936D02*
X153310000Y-83152064D01*
X125988578Y-86920000D02*
X125471422Y-86920000D01*
X125988578Y-88340000D02*
X125471422Y-88340000D01*
D14*
X142073333Y-91797142D02*
X142025714Y-91844761D01*
X141882857Y-91892380D01*
X141787619Y-91892380D01*
X141644761Y-91844761D01*
X141549523Y-91749523D01*
X141501904Y-91654285D01*
X141454285Y-91463809D01*
X141454285Y-91320952D01*
X141501904Y-91130476D01*
X141549523Y-91035238D01*
X141644761Y-90940000D01*
X141787619Y-90892380D01*
X141882857Y-90892380D01*
X142025714Y-90940000D01*
X142073333Y-90987619D01*
X142454285Y-90987619D02*
X142501904Y-90940000D01*
X142597142Y-90892380D01*
X142835238Y-90892380D01*
X142930476Y-90940000D01*
X142978095Y-90987619D01*
X143025714Y-91082857D01*
X143025714Y-91178095D01*
X142978095Y-91320952D01*
X142406666Y-91892380D01*
X143025714Y-91892380D01*
X160956666Y-78402380D02*
X160956666Y-79116666D01*
X160909047Y-79259523D01*
X160813809Y-79354761D01*
X160670952Y-79402380D01*
X160575714Y-79402380D01*
X161956666Y-79402380D02*
X161385238Y-79402380D01*
X161670952Y-79402380D02*
X161670952Y-78402380D01*
X161575714Y-78545238D01*
X161480476Y-78640476D01*
X161385238Y-78688095D01*
X124968095Y-78602380D02*
X124968095Y-79411904D01*
X125015714Y-79507142D01*
X125063333Y-79554761D01*
X125158571Y-79602380D01*
X125349047Y-79602380D01*
X125444285Y-79554761D01*
X125491904Y-79507142D01*
X125539523Y-79411904D01*
X125539523Y-78602380D01*
X125968095Y-78697619D02*
X126015714Y-78650000D01*
X126110952Y-78602380D01*
X126349047Y-78602380D01*
X126444285Y-78650000D01*
X126491904Y-78697619D01*
X126539523Y-78792857D01*
X126539523Y-78888095D01*
X126491904Y-79030952D01*
X125920476Y-79602380D01*
X126539523Y-79602380D01*
D15*
X125690414Y-98885952D02*
X125690414Y-97884202D01*
X126024331Y-98599738D01*
X126358247Y-97884202D01*
X126358247Y-98885952D01*
X126835271Y-98885952D02*
X126835271Y-97884202D01*
X127407700Y-98885952D02*
X126978378Y-98313524D01*
X127407700Y-97884202D02*
X126835271Y-98456631D01*
X127789319Y-97979607D02*
X127837021Y-97931905D01*
X127932426Y-97884202D01*
X128170938Y-97884202D01*
X128266343Y-97931905D01*
X128314045Y-97979607D01*
X128361747Y-98075012D01*
X128361747Y-98170416D01*
X128314045Y-98313524D01*
X127741616Y-98885952D01*
X128361747Y-98885952D01*
X120643656Y-89886439D02*
X120595971Y-89934124D01*
X120452915Y-89981809D01*
X120357545Y-89981809D01*
X120214489Y-89934124D01*
X120119118Y-89838754D01*
X120071433Y-89743383D01*
X120023748Y-89552642D01*
X120023748Y-89409586D01*
X120071433Y-89218845D01*
X120119118Y-89123475D01*
X120214489Y-89028105D01*
X120357545Y-88980419D01*
X120452915Y-88980419D01*
X120595971Y-89028105D01*
X120643656Y-89075790D01*
X121072823Y-89981809D02*
X121072823Y-88980419D01*
X121406620Y-89695698D01*
X121740416Y-88980419D01*
X121740416Y-89981809D01*
X122789492Y-89886439D02*
X122741806Y-89934124D01*
X122598751Y-89981809D01*
X122503380Y-89981809D01*
X122360325Y-89934124D01*
X122264954Y-89838754D01*
X122217269Y-89743383D01*
X122169584Y-89552642D01*
X122169584Y-89409586D01*
X122217269Y-89218845D01*
X122264954Y-89123475D01*
X122360325Y-89028105D01*
X122503380Y-88980419D01*
X122598751Y-88980419D01*
X122741806Y-89028105D01*
X122789492Y-89075790D01*
X123218659Y-89600327D02*
X123981623Y-89600327D01*
X124410790Y-89075790D02*
X124458475Y-89028105D01*
X124553845Y-88980419D01*
X124792272Y-88980419D01*
X124887642Y-89028105D01*
X124935327Y-89075790D01*
X124983013Y-89171160D01*
X124983013Y-89266531D01*
X124935327Y-89409586D01*
X124363105Y-89981809D01*
X124983013Y-89981809D01*
X125316809Y-88980419D02*
X125984403Y-88980419D01*
X125555235Y-89981809D01*
X126795052Y-89314216D02*
X126795052Y-89981809D01*
X126556625Y-88932734D02*
X126318199Y-89648013D01*
X126938107Y-89648013D01*
X127271904Y-89075790D02*
X127319589Y-89028105D01*
X127414960Y-88980419D01*
X127653386Y-88980419D01*
X127748756Y-89028105D01*
X127796442Y-89075790D01*
X127844127Y-89171160D01*
X127844127Y-89266531D01*
X127796442Y-89409586D01*
X127224219Y-89981809D01*
X127844127Y-89981809D01*
X128273294Y-89981809D02*
X128273294Y-88980419D01*
X128654776Y-88980419D01*
X128750146Y-89028105D01*
X128797832Y-89075790D01*
X128845517Y-89171160D01*
X128845517Y-89314216D01*
X128797832Y-89409586D01*
X128750146Y-89457272D01*
X128654776Y-89504957D01*
X128273294Y-89504957D01*
X129608481Y-89457272D02*
X129751536Y-89504957D01*
X129799222Y-89552642D01*
X129846907Y-89648013D01*
X129846907Y-89791068D01*
X129799222Y-89886439D01*
X129751536Y-89934124D01*
X129656166Y-89981809D01*
X129274684Y-89981809D01*
X129274684Y-88980419D01*
X129608481Y-88980419D01*
X129703851Y-89028105D01*
X129751536Y-89075790D01*
X129799222Y-89171160D01*
X129799222Y-89266531D01*
X129751536Y-89361901D01*
X129703851Y-89409586D01*
X129608481Y-89457272D01*
X129274684Y-89457272D01*
X130562185Y-88980419D02*
X130562185Y-89695698D01*
X130514500Y-89838754D01*
X130419130Y-89934124D01*
X130276074Y-89981809D01*
X130180704Y-89981809D01*
X131039038Y-89600327D02*
X131802002Y-89600327D01*
X132231169Y-89695698D02*
X132708021Y-89695698D01*
X132135798Y-89981809D02*
X132469595Y-88980419D01*
X132803392Y-89981809D01*
D14*
X131308333Y-79192380D02*
X130975000Y-78716190D01*
X130736904Y-79192380D02*
X130736904Y-78192380D01*
X131117857Y-78192380D01*
X131213095Y-78240000D01*
X131260714Y-78287619D01*
X131308333Y-78382857D01*
X131308333Y-78525714D01*
X131260714Y-78620952D01*
X131213095Y-78668571D01*
X131117857Y-78716190D01*
X130736904Y-78716190D01*
X131641666Y-78192380D02*
X132308333Y-78192380D01*
X131879761Y-79192380D01*
X136398095Y-83682380D02*
X136398095Y-84491904D01*
X136445714Y-84587142D01*
X136493333Y-84634761D01*
X136588571Y-84682380D01*
X136779047Y-84682380D01*
X136874285Y-84634761D01*
X136921904Y-84587142D01*
X136969523Y-84491904D01*
X136969523Y-83682380D01*
X137969523Y-84682380D02*
X137398095Y-84682380D01*
X137683809Y-84682380D02*
X137683809Y-83682380D01*
X137588571Y-83825238D01*
X137493333Y-83920476D01*
X137398095Y-83968095D01*
X149693333Y-91892380D02*
X149360000Y-91416190D01*
X149121904Y-91892380D02*
X149121904Y-90892380D01*
X149502857Y-90892380D01*
X149598095Y-90940000D01*
X149645714Y-90987619D01*
X149693333Y-91082857D01*
X149693333Y-91225714D01*
X149645714Y-91320952D01*
X149598095Y-91368571D01*
X149502857Y-91416190D01*
X149121904Y-91416190D01*
X150550476Y-90892380D02*
X150360000Y-90892380D01*
X150264761Y-90940000D01*
X150217142Y-90987619D01*
X150121904Y-91130476D01*
X150074285Y-91320952D01*
X150074285Y-91701904D01*
X150121904Y-91797142D01*
X150169523Y-91844761D01*
X150264761Y-91892380D01*
X150455238Y-91892380D01*
X150550476Y-91844761D01*
X150598095Y-91797142D01*
X150645714Y-91701904D01*
X150645714Y-91463809D01*
X150598095Y-91368571D01*
X150550476Y-91320952D01*
X150455238Y-91273333D01*
X150264761Y-91273333D01*
X150169523Y-91320952D01*
X150121904Y-91368571D01*
X150074285Y-91463809D01*
X138263333Y-79192380D02*
X137930000Y-78716190D01*
X137691904Y-79192380D02*
X137691904Y-78192380D01*
X138072857Y-78192380D01*
X138168095Y-78240000D01*
X138215714Y-78287619D01*
X138263333Y-78382857D01*
X138263333Y-78525714D01*
X138215714Y-78620952D01*
X138168095Y-78668571D01*
X138072857Y-78716190D01*
X137691904Y-78716190D01*
X139168095Y-78192380D02*
X138691904Y-78192380D01*
X138644285Y-78668571D01*
X138691904Y-78620952D01*
X138787142Y-78573333D01*
X139025238Y-78573333D01*
X139120476Y-78620952D01*
X139168095Y-78668571D01*
X139215714Y-78763809D01*
X139215714Y-79001904D01*
X139168095Y-79097142D01*
X139120476Y-79144761D01*
X139025238Y-79192380D01*
X138787142Y-79192380D01*
X138691904Y-79144761D01*
X138644285Y-79097142D01*
X150963333Y-83002380D02*
X150630000Y-82526190D01*
X150391904Y-83002380D02*
X150391904Y-82002380D01*
X150772857Y-82002380D01*
X150868095Y-82050000D01*
X150915714Y-82097619D01*
X150963333Y-82192857D01*
X150963333Y-82335714D01*
X150915714Y-82430952D01*
X150868095Y-82478571D01*
X150772857Y-82526190D01*
X150391904Y-82526190D01*
X151820476Y-82335714D02*
X151820476Y-83002380D01*
X151582380Y-81954761D02*
X151344285Y-82669047D01*
X151963333Y-82669047D01*
X150963333Y-86812380D02*
X150630000Y-86336190D01*
X150391904Y-86812380D02*
X150391904Y-85812380D01*
X150772857Y-85812380D01*
X150868095Y-85860000D01*
X150915714Y-85907619D01*
X150963333Y-86002857D01*
X150963333Y-86145714D01*
X150915714Y-86240952D01*
X150868095Y-86288571D01*
X150772857Y-86336190D01*
X150391904Y-86336190D01*
X151296666Y-85812380D02*
X151915714Y-85812380D01*
X151582380Y-86193333D01*
X151725238Y-86193333D01*
X151820476Y-86240952D01*
X151868095Y-86288571D01*
X151915714Y-86383809D01*
X151915714Y-86621904D01*
X151868095Y-86717142D01*
X151820476Y-86764761D01*
X151725238Y-86812380D01*
X151439523Y-86812380D01*
X151344285Y-86764761D01*
X151296666Y-86717142D01*
X145883333Y-79192380D02*
X145550000Y-78716190D01*
X145311904Y-79192380D02*
X145311904Y-78192380D01*
X145692857Y-78192380D01*
X145788095Y-78240000D01*
X145835714Y-78287619D01*
X145883333Y-78382857D01*
X145883333Y-78525714D01*
X145835714Y-78620952D01*
X145788095Y-78668571D01*
X145692857Y-78716190D01*
X145311904Y-78716190D01*
X146264285Y-78287619D02*
X146311904Y-78240000D01*
X146407142Y-78192380D01*
X146645238Y-78192380D01*
X146740476Y-78240000D01*
X146788095Y-78287619D01*
X146835714Y-78382857D01*
X146835714Y-78478095D01*
X146788095Y-78620952D01*
X146216666Y-79192380D01*
X146835714Y-79192380D01*
X131913333Y-90622380D02*
X131580000Y-90146190D01*
X131341904Y-90622380D02*
X131341904Y-89622380D01*
X131722857Y-89622380D01*
X131818095Y-89670000D01*
X131865714Y-89717619D01*
X131913333Y-89812857D01*
X131913333Y-89955714D01*
X131865714Y-90050952D01*
X131818095Y-90098571D01*
X131722857Y-90146190D01*
X131341904Y-90146190D01*
X132865714Y-90622380D02*
X132294285Y-90622380D01*
X132580000Y-90622380D02*
X132580000Y-89622380D01*
X132484761Y-89765238D01*
X132389523Y-89860476D01*
X132294285Y-89908095D01*
X152233333Y-79097142D02*
X152185714Y-79144761D01*
X152042857Y-79192380D01*
X151947619Y-79192380D01*
X151804761Y-79144761D01*
X151709523Y-79049523D01*
X151661904Y-78954285D01*
X151614285Y-78763809D01*
X151614285Y-78620952D01*
X151661904Y-78430476D01*
X151709523Y-78335238D01*
X151804761Y-78240000D01*
X151947619Y-78192380D01*
X152042857Y-78192380D01*
X152185714Y-78240000D01*
X152233333Y-78287619D01*
X152566666Y-78192380D02*
X153185714Y-78192380D01*
X152852380Y-78573333D01*
X152995238Y-78573333D01*
X153090476Y-78620952D01*
X153138095Y-78668571D01*
X153185714Y-78763809D01*
X153185714Y-79001904D01*
X153138095Y-79097142D01*
X153090476Y-79144761D01*
X152995238Y-79192380D01*
X152709523Y-79192380D01*
X152614285Y-79144761D01*
X152566666Y-79097142D01*
X126833333Y-90527142D02*
X126785714Y-90574761D01*
X126642857Y-90622380D01*
X126547619Y-90622380D01*
X126404761Y-90574761D01*
X126309523Y-90479523D01*
X126261904Y-90384285D01*
X126214285Y-90193809D01*
X126214285Y-90050952D01*
X126261904Y-89860476D01*
X126309523Y-89765238D01*
X126404761Y-89670000D01*
X126547619Y-89622380D01*
X126642857Y-89622380D01*
X126785714Y-89670000D01*
X126833333Y-89717619D01*
X127785714Y-90622380D02*
X127214285Y-90622380D01*
X127500000Y-90622380D02*
X127500000Y-89622380D01*
X127404761Y-89765238D01*
X127309523Y-89860476D01*
X127214285Y-89908095D01*
M02*
