G04 #@! TF.GenerationSoftware,KiCad,Pcbnew,(5.1.5-0-10_14)*
G04 #@! TF.CreationDate,2020-03-10T20:52:17-05:00*
G04 #@! TF.ProjectId,Sensors,53656e73-6f72-4732-9e6b-696361645f70,rev?*
G04 #@! TF.SameCoordinates,Original*
G04 #@! TF.FileFunction,Soldermask,Top*
G04 #@! TF.FilePolarity,Negative*
%FSLAX46Y46*%
G04 Gerber Fmt 4.6, Leading zero omitted, Abs format (unit mm)*
G04 Created by KiCad (PCBNEW (5.1.5-0-10_14)) date 2020-03-10 20:52:17*
%MOMM*%
%LPD*%
G04 APERTURE LIST*
%ADD10C,0.010000*%
%ADD11C,0.100000*%
G04 APERTURE END LIST*
D10*
G36*
X126244000Y-93422000D02*
G01*
X126318424Y-93418100D01*
X126392033Y-93406441D01*
X126464020Y-93387152D01*
X126533596Y-93360444D01*
X126600000Y-93326610D01*
X126662503Y-93286020D01*
X126720421Y-93239119D01*
X126773119Y-93186421D01*
X126820020Y-93128503D01*
X126860610Y-93066000D01*
X126894444Y-92999596D01*
X126921152Y-92930020D01*
X126940441Y-92858033D01*
X126952100Y-92784424D01*
X126956000Y-92710000D01*
X126952100Y-92635576D01*
X126940441Y-92561967D01*
X126921152Y-92489980D01*
X126894444Y-92420404D01*
X126860610Y-92354000D01*
X126820020Y-92291497D01*
X126773119Y-92233579D01*
X126720421Y-92180881D01*
X126662503Y-92133980D01*
X126600000Y-92093390D01*
X126533596Y-92059556D01*
X126464020Y-92032848D01*
X126392033Y-92013559D01*
X126318424Y-92001900D01*
X126244000Y-91998000D01*
X126169576Y-92001900D01*
X126095967Y-92013559D01*
X126023980Y-92032848D01*
X125954404Y-92059556D01*
X125888000Y-92093390D01*
X125825497Y-92133980D01*
X125767579Y-92180881D01*
X125714881Y-92233579D01*
X125667980Y-92291497D01*
X125627390Y-92354000D01*
X125593556Y-92420404D01*
X125566848Y-92489980D01*
X125547559Y-92561967D01*
X125535900Y-92635576D01*
X125532000Y-92710000D01*
X125535900Y-92784424D01*
X125547559Y-92858033D01*
X125566848Y-92930020D01*
X125593556Y-92999596D01*
X125627390Y-93066000D01*
X125667980Y-93128503D01*
X125714881Y-93186421D01*
X125767579Y-93239119D01*
X125825497Y-93286020D01*
X125888000Y-93326610D01*
X125954404Y-93360444D01*
X126023980Y-93387152D01*
X126095967Y-93406441D01*
X126169576Y-93418100D01*
X126244000Y-93422000D01*
X126244000Y-93015000D01*
X126275881Y-93013329D01*
X126307413Y-93008335D01*
X126338250Y-93000072D01*
X126368055Y-92988631D01*
X126396500Y-92974138D01*
X126423275Y-92956750D01*
X126448085Y-92936659D01*
X126470659Y-92914085D01*
X126490750Y-92889275D01*
X126508138Y-92862500D01*
X126522631Y-92834055D01*
X126534072Y-92804250D01*
X126542335Y-92773413D01*
X126547329Y-92741881D01*
X126549000Y-92710000D01*
X126547329Y-92678119D01*
X126542335Y-92646587D01*
X126534072Y-92615750D01*
X126522631Y-92585945D01*
X126508138Y-92557500D01*
X126490750Y-92530725D01*
X126470659Y-92505915D01*
X126448085Y-92483341D01*
X126423275Y-92463250D01*
X126396500Y-92445862D01*
X126368055Y-92431369D01*
X126338250Y-92419928D01*
X126307413Y-92411665D01*
X126275881Y-92406671D01*
X126244000Y-92405000D01*
X126275881Y-92406671D01*
X126307413Y-92411665D01*
X126338250Y-92419928D01*
X126368055Y-92431369D01*
X126396500Y-92445862D01*
X126423275Y-92463250D01*
X126448085Y-92483341D01*
X126470659Y-92505915D01*
X126490750Y-92530725D01*
X126508138Y-92557500D01*
X126522631Y-92585945D01*
X126534072Y-92615750D01*
X126542335Y-92646587D01*
X126547329Y-92678119D01*
X126549000Y-92710000D01*
X126547329Y-92741881D01*
X126542335Y-92773413D01*
X126534072Y-92804250D01*
X126522631Y-92834055D01*
X126508138Y-92862500D01*
X126490750Y-92889275D01*
X126470659Y-92914085D01*
X126448085Y-92936659D01*
X126423275Y-92956750D01*
X126396500Y-92974138D01*
X126368055Y-92988631D01*
X126338250Y-93000072D01*
X126307413Y-93008335D01*
X126275881Y-93013329D01*
X126244000Y-93015000D01*
X126244000Y-93422000D01*
G37*
X126244000Y-93422000D02*
X126318424Y-93418100D01*
X126392033Y-93406441D01*
X126464020Y-93387152D01*
X126533596Y-93360444D01*
X126600000Y-93326610D01*
X126662503Y-93286020D01*
X126720421Y-93239119D01*
X126773119Y-93186421D01*
X126820020Y-93128503D01*
X126860610Y-93066000D01*
X126894444Y-92999596D01*
X126921152Y-92930020D01*
X126940441Y-92858033D01*
X126952100Y-92784424D01*
X126956000Y-92710000D01*
X126952100Y-92635576D01*
X126940441Y-92561967D01*
X126921152Y-92489980D01*
X126894444Y-92420404D01*
X126860610Y-92354000D01*
X126820020Y-92291497D01*
X126773119Y-92233579D01*
X126720421Y-92180881D01*
X126662503Y-92133980D01*
X126600000Y-92093390D01*
X126533596Y-92059556D01*
X126464020Y-92032848D01*
X126392033Y-92013559D01*
X126318424Y-92001900D01*
X126244000Y-91998000D01*
X126169576Y-92001900D01*
X126095967Y-92013559D01*
X126023980Y-92032848D01*
X125954404Y-92059556D01*
X125888000Y-92093390D01*
X125825497Y-92133980D01*
X125767579Y-92180881D01*
X125714881Y-92233579D01*
X125667980Y-92291497D01*
X125627390Y-92354000D01*
X125593556Y-92420404D01*
X125566848Y-92489980D01*
X125547559Y-92561967D01*
X125535900Y-92635576D01*
X125532000Y-92710000D01*
X125535900Y-92784424D01*
X125547559Y-92858033D01*
X125566848Y-92930020D01*
X125593556Y-92999596D01*
X125627390Y-93066000D01*
X125667980Y-93128503D01*
X125714881Y-93186421D01*
X125767579Y-93239119D01*
X125825497Y-93286020D01*
X125888000Y-93326610D01*
X125954404Y-93360444D01*
X126023980Y-93387152D01*
X126095967Y-93406441D01*
X126169576Y-93418100D01*
X126244000Y-93422000D01*
X126244000Y-93015000D01*
X126275881Y-93013329D01*
X126307413Y-93008335D01*
X126338250Y-93000072D01*
X126368055Y-92988631D01*
X126396500Y-92974138D01*
X126423275Y-92956750D01*
X126448085Y-92936659D01*
X126470659Y-92914085D01*
X126490750Y-92889275D01*
X126508138Y-92862500D01*
X126522631Y-92834055D01*
X126534072Y-92804250D01*
X126542335Y-92773413D01*
X126547329Y-92741881D01*
X126549000Y-92710000D01*
X126547329Y-92678119D01*
X126542335Y-92646587D01*
X126534072Y-92615750D01*
X126522631Y-92585945D01*
X126508138Y-92557500D01*
X126490750Y-92530725D01*
X126470659Y-92505915D01*
X126448085Y-92483341D01*
X126423275Y-92463250D01*
X126396500Y-92445862D01*
X126368055Y-92431369D01*
X126338250Y-92419928D01*
X126307413Y-92411665D01*
X126275881Y-92406671D01*
X126244000Y-92405000D01*
X126275881Y-92406671D01*
X126307413Y-92411665D01*
X126338250Y-92419928D01*
X126368055Y-92431369D01*
X126396500Y-92445862D01*
X126423275Y-92463250D01*
X126448085Y-92483341D01*
X126470659Y-92505915D01*
X126490750Y-92530725D01*
X126508138Y-92557500D01*
X126522631Y-92585945D01*
X126534072Y-92615750D01*
X126542335Y-92646587D01*
X126547329Y-92678119D01*
X126549000Y-92710000D01*
X126547329Y-92741881D01*
X126542335Y-92773413D01*
X126534072Y-92804250D01*
X126522631Y-92834055D01*
X126508138Y-92862500D01*
X126490750Y-92889275D01*
X126470659Y-92914085D01*
X126448085Y-92936659D01*
X126423275Y-92956750D01*
X126396500Y-92974138D01*
X126368055Y-92988631D01*
X126338250Y-93000072D01*
X126307413Y-93008335D01*
X126275881Y-93013329D01*
X126244000Y-93015000D01*
X126244000Y-93422000D01*
D11*
G36*
X156323512Y-93083927D02*
G01*
X156472812Y-93113624D01*
X156636784Y-93181544D01*
X156784354Y-93280147D01*
X156909853Y-93405646D01*
X157008456Y-93553216D01*
X157076376Y-93717188D01*
X157111000Y-93891259D01*
X157111000Y-94068741D01*
X157076376Y-94242812D01*
X157008456Y-94406784D01*
X156909853Y-94554354D01*
X156784354Y-94679853D01*
X156636784Y-94778456D01*
X156472812Y-94846376D01*
X156323512Y-94876073D01*
X156298742Y-94881000D01*
X156121258Y-94881000D01*
X156096488Y-94876073D01*
X155947188Y-94846376D01*
X155783216Y-94778456D01*
X155635646Y-94679853D01*
X155510147Y-94554354D01*
X155411544Y-94406784D01*
X155343624Y-94242812D01*
X155309000Y-94068741D01*
X155309000Y-93891259D01*
X155343624Y-93717188D01*
X155411544Y-93553216D01*
X155510147Y-93405646D01*
X155635646Y-93280147D01*
X155783216Y-93181544D01*
X155947188Y-93113624D01*
X156096488Y-93083927D01*
X156121258Y-93079000D01*
X156298742Y-93079000D01*
X156323512Y-93083927D01*
G37*
G36*
X153783512Y-93083927D02*
G01*
X153932812Y-93113624D01*
X154096784Y-93181544D01*
X154244354Y-93280147D01*
X154369853Y-93405646D01*
X154468456Y-93553216D01*
X154536376Y-93717188D01*
X154571000Y-93891259D01*
X154571000Y-94068741D01*
X154536376Y-94242812D01*
X154468456Y-94406784D01*
X154369853Y-94554354D01*
X154244354Y-94679853D01*
X154096784Y-94778456D01*
X153932812Y-94846376D01*
X153783512Y-94876073D01*
X153758742Y-94881000D01*
X153581258Y-94881000D01*
X153556488Y-94876073D01*
X153407188Y-94846376D01*
X153243216Y-94778456D01*
X153095646Y-94679853D01*
X152970147Y-94554354D01*
X152871544Y-94406784D01*
X152803624Y-94242812D01*
X152769000Y-94068741D01*
X152769000Y-93891259D01*
X152803624Y-93717188D01*
X152871544Y-93553216D01*
X152970147Y-93405646D01*
X153095646Y-93280147D01*
X153243216Y-93181544D01*
X153407188Y-93113624D01*
X153556488Y-93083927D01*
X153581258Y-93079000D01*
X153758742Y-93079000D01*
X153783512Y-93083927D01*
G37*
G36*
X162058604Y-93438347D02*
G01*
X162095144Y-93449432D01*
X162128821Y-93467433D01*
X162158341Y-93491659D01*
X162182567Y-93521179D01*
X162200568Y-93554856D01*
X162211653Y-93591396D01*
X162216000Y-93635538D01*
X162216000Y-94584462D01*
X162211653Y-94628604D01*
X162200568Y-94665144D01*
X162182567Y-94698821D01*
X162158341Y-94728341D01*
X162128821Y-94752567D01*
X162095144Y-94770568D01*
X162058604Y-94781653D01*
X162014462Y-94786000D01*
X160565538Y-94786000D01*
X160521396Y-94781653D01*
X160484856Y-94770568D01*
X160451179Y-94752567D01*
X160421659Y-94728341D01*
X160397433Y-94698821D01*
X160379432Y-94665144D01*
X160368347Y-94628604D01*
X160364000Y-94584462D01*
X160364000Y-93635538D01*
X160368347Y-93591396D01*
X160379432Y-93554856D01*
X160397433Y-93521179D01*
X160421659Y-93491659D01*
X160451179Y-93467433D01*
X160484856Y-93449432D01*
X160521396Y-93438347D01*
X160565538Y-93434000D01*
X162014462Y-93434000D01*
X162058604Y-93438347D01*
G37*
G36*
X128467324Y-91347352D02*
G01*
X128542389Y-91378445D01*
X128609953Y-91423590D01*
X128667410Y-91481047D01*
X128712555Y-91548611D01*
X128743648Y-91623676D01*
X128759500Y-91703371D01*
X128759500Y-91784629D01*
X128743648Y-91864324D01*
X128712555Y-91939389D01*
X128667410Y-92006953D01*
X128609953Y-92064410D01*
X128542389Y-92109555D01*
X128483005Y-92134152D01*
X128469244Y-92139852D01*
X128465139Y-92141552D01*
X128443528Y-92153103D01*
X128424586Y-92168648D01*
X128409041Y-92187589D01*
X128397489Y-92209200D01*
X128390376Y-92232649D01*
X128387974Y-92257035D01*
X128390376Y-92281421D01*
X128397489Y-92304870D01*
X128409040Y-92326481D01*
X128424585Y-92345423D01*
X128443526Y-92360968D01*
X128465137Y-92372520D01*
X128516103Y-92393631D01*
X128574574Y-92432700D01*
X128624300Y-92482426D01*
X128663279Y-92540763D01*
X128663370Y-92540899D01*
X128690281Y-92605868D01*
X128704000Y-92674837D01*
X128704000Y-92745163D01*
X128690281Y-92814132D01*
X128668810Y-92865968D01*
X128663369Y-92879103D01*
X128624300Y-92937574D01*
X128574574Y-92987300D01*
X128516103Y-93026369D01*
X128465137Y-93047480D01*
X128443527Y-93059031D01*
X128424585Y-93074577D01*
X128409040Y-93093519D01*
X128397489Y-93115129D01*
X128390376Y-93138578D01*
X128387974Y-93162965D01*
X128390376Y-93187351D01*
X128397489Y-93210800D01*
X128409040Y-93232410D01*
X128424586Y-93251352D01*
X128443528Y-93266897D01*
X128465139Y-93278448D01*
X128467321Y-93279352D01*
X128467322Y-93279352D01*
X128483005Y-93285848D01*
X128542389Y-93310445D01*
X128609953Y-93355590D01*
X128667410Y-93413047D01*
X128712555Y-93480611D01*
X128743648Y-93555676D01*
X128759500Y-93635371D01*
X128759500Y-93716629D01*
X128743648Y-93796324D01*
X128712555Y-93871389D01*
X128667410Y-93938953D01*
X128609953Y-93996410D01*
X128542389Y-94041555D01*
X128467324Y-94072648D01*
X128387629Y-94088500D01*
X128306371Y-94088500D01*
X128226676Y-94072648D01*
X128151611Y-94041555D01*
X128084047Y-93996410D01*
X128026590Y-93938953D01*
X127981445Y-93871389D01*
X127950352Y-93796324D01*
X127934500Y-93716629D01*
X127934500Y-93635371D01*
X127950352Y-93555676D01*
X127981445Y-93480611D01*
X128026590Y-93413047D01*
X128084047Y-93355590D01*
X128151611Y-93310445D01*
X128210995Y-93285848D01*
X128226678Y-93279352D01*
X128226679Y-93279352D01*
X128228861Y-93278448D01*
X128250472Y-93266897D01*
X128269414Y-93251352D01*
X128284959Y-93232411D01*
X128296511Y-93210800D01*
X128303624Y-93187351D01*
X128306026Y-93162965D01*
X128303624Y-93138579D01*
X128296511Y-93115130D01*
X128284960Y-93093519D01*
X128269415Y-93074577D01*
X128250474Y-93059032D01*
X128228863Y-93047480D01*
X128177897Y-93026369D01*
X128119426Y-92987300D01*
X128069700Y-92937574D01*
X128030631Y-92879103D01*
X128025190Y-92865968D01*
X128003719Y-92814132D01*
X127990000Y-92745163D01*
X127990000Y-92674837D01*
X128003719Y-92605868D01*
X128030630Y-92540899D01*
X128030721Y-92540763D01*
X128069700Y-92482426D01*
X128119426Y-92432700D01*
X128177897Y-92393631D01*
X128228863Y-92372520D01*
X128250473Y-92360969D01*
X128269415Y-92345423D01*
X128284960Y-92326481D01*
X128296511Y-92304871D01*
X128303624Y-92281422D01*
X128306026Y-92257035D01*
X128303624Y-92232649D01*
X128296511Y-92209200D01*
X128284960Y-92187590D01*
X128269414Y-92168648D01*
X128250472Y-92153103D01*
X128228861Y-92141552D01*
X128224757Y-92139852D01*
X128210995Y-92134152D01*
X128151611Y-92109555D01*
X128084047Y-92064410D01*
X128026590Y-92006953D01*
X127981445Y-91939389D01*
X127950352Y-91864324D01*
X127934500Y-91784629D01*
X127934500Y-91703371D01*
X127950352Y-91623676D01*
X127981445Y-91548611D01*
X128026590Y-91481047D01*
X128084047Y-91423590D01*
X128151611Y-91378445D01*
X128226676Y-91347352D01*
X128306371Y-91331500D01*
X128387629Y-91331500D01*
X128467324Y-91347352D01*
G37*
G36*
X125706838Y-93405758D02*
G01*
X125706840Y-93405759D01*
X125706841Y-93405759D01*
X125767261Y-93430786D01*
X125821637Y-93467119D01*
X125867881Y-93513363D01*
X125904214Y-93567739D01*
X125929242Y-93628162D01*
X125942000Y-93692300D01*
X125942000Y-93757700D01*
X125934318Y-93796322D01*
X125929241Y-93821841D01*
X125904214Y-93882261D01*
X125867881Y-93936637D01*
X125821637Y-93982881D01*
X125767261Y-94019214D01*
X125706841Y-94044241D01*
X125706840Y-94044241D01*
X125706838Y-94044242D01*
X125642700Y-94057000D01*
X125577300Y-94057000D01*
X125513162Y-94044242D01*
X125513160Y-94044241D01*
X125513159Y-94044241D01*
X125452739Y-94019214D01*
X125398363Y-93982881D01*
X125352119Y-93936637D01*
X125315786Y-93882261D01*
X125290759Y-93821841D01*
X125285683Y-93796322D01*
X125278000Y-93757700D01*
X125278000Y-93692300D01*
X125290758Y-93628162D01*
X125315786Y-93567739D01*
X125352119Y-93513363D01*
X125398363Y-93467119D01*
X125452739Y-93430786D01*
X125513159Y-93405759D01*
X125513160Y-93405759D01*
X125513162Y-93405758D01*
X125577300Y-93393000D01*
X125642700Y-93393000D01*
X125706838Y-93405758D01*
G37*
G36*
X126295337Y-92540763D02*
G01*
X126327367Y-92554030D01*
X126356194Y-92573292D01*
X126380708Y-92597806D01*
X126399970Y-92626633D01*
X126413237Y-92658663D01*
X126420000Y-92692665D01*
X126420000Y-92727335D01*
X126413237Y-92761337D01*
X126399970Y-92793367D01*
X126380708Y-92822194D01*
X126356194Y-92846708D01*
X126327367Y-92865970D01*
X126295337Y-92879237D01*
X126261335Y-92886000D01*
X126226665Y-92886000D01*
X126192663Y-92879237D01*
X126160633Y-92865970D01*
X126131806Y-92846708D01*
X126107292Y-92822194D01*
X126088030Y-92793367D01*
X126074763Y-92761337D01*
X126068000Y-92727335D01*
X126068000Y-92692665D01*
X126074763Y-92658663D01*
X126088030Y-92626633D01*
X126107292Y-92597806D01*
X126131806Y-92573292D01*
X126160633Y-92554030D01*
X126192663Y-92540763D01*
X126226665Y-92534000D01*
X126261335Y-92534000D01*
X126295337Y-92540763D01*
G37*
G36*
X156323512Y-90543927D02*
G01*
X156472812Y-90573624D01*
X156636784Y-90641544D01*
X156784354Y-90740147D01*
X156909853Y-90865646D01*
X157008456Y-91013216D01*
X157076376Y-91177188D01*
X157111000Y-91351259D01*
X157111000Y-91528741D01*
X157076376Y-91702812D01*
X157008456Y-91866784D01*
X156909853Y-92014354D01*
X156784354Y-92139853D01*
X156636784Y-92238456D01*
X156472812Y-92306376D01*
X156323512Y-92336073D01*
X156298742Y-92341000D01*
X156121258Y-92341000D01*
X156096488Y-92336073D01*
X155947188Y-92306376D01*
X155783216Y-92238456D01*
X155635646Y-92139853D01*
X155510147Y-92014354D01*
X155411544Y-91866784D01*
X155343624Y-91702812D01*
X155309000Y-91528741D01*
X155309000Y-91351259D01*
X155343624Y-91177188D01*
X155411544Y-91013216D01*
X155510147Y-90865646D01*
X155635646Y-90740147D01*
X155783216Y-90641544D01*
X155947188Y-90573624D01*
X156096488Y-90543927D01*
X156121258Y-90539000D01*
X156298742Y-90539000D01*
X156323512Y-90543927D01*
G37*
G36*
X153783512Y-90543927D02*
G01*
X153932812Y-90573624D01*
X154096784Y-90641544D01*
X154244354Y-90740147D01*
X154369853Y-90865646D01*
X154468456Y-91013216D01*
X154536376Y-91177188D01*
X154571000Y-91351259D01*
X154571000Y-91528741D01*
X154536376Y-91702812D01*
X154468456Y-91866784D01*
X154369853Y-92014354D01*
X154244354Y-92139853D01*
X154096784Y-92238456D01*
X153932812Y-92306376D01*
X153783512Y-92336073D01*
X153758742Y-92341000D01*
X153581258Y-92341000D01*
X153556488Y-92336073D01*
X153407188Y-92306376D01*
X153243216Y-92238456D01*
X153095646Y-92139853D01*
X152970147Y-92014354D01*
X152871544Y-91866784D01*
X152803624Y-91702812D01*
X152769000Y-91528741D01*
X152769000Y-91351259D01*
X152803624Y-91177188D01*
X152871544Y-91013216D01*
X152970147Y-90865646D01*
X153095646Y-90740147D01*
X153243216Y-90641544D01*
X153407188Y-90573624D01*
X153556488Y-90543927D01*
X153581258Y-90539000D01*
X153758742Y-90539000D01*
X153783512Y-90543927D01*
G37*
G36*
X125706838Y-91375758D02*
G01*
X125706840Y-91375759D01*
X125706841Y-91375759D01*
X125713330Y-91378447D01*
X125767261Y-91400786D01*
X125821637Y-91437119D01*
X125867881Y-91483363D01*
X125904214Y-91537739D01*
X125929242Y-91598162D01*
X125942000Y-91662300D01*
X125942000Y-91727700D01*
X125933914Y-91768352D01*
X125929241Y-91791841D01*
X125904214Y-91852261D01*
X125867881Y-91906637D01*
X125821637Y-91952881D01*
X125767261Y-91989214D01*
X125706841Y-92014241D01*
X125706840Y-92014241D01*
X125706838Y-92014242D01*
X125642700Y-92027000D01*
X125577300Y-92027000D01*
X125513162Y-92014242D01*
X125513160Y-92014241D01*
X125513159Y-92014241D01*
X125452739Y-91989214D01*
X125398363Y-91952881D01*
X125352119Y-91906637D01*
X125315786Y-91852261D01*
X125290759Y-91791841D01*
X125286087Y-91768352D01*
X125278000Y-91727700D01*
X125278000Y-91662300D01*
X125290758Y-91598162D01*
X125315786Y-91537739D01*
X125352119Y-91483363D01*
X125398363Y-91437119D01*
X125452739Y-91400786D01*
X125506670Y-91378447D01*
X125513159Y-91375759D01*
X125513160Y-91375759D01*
X125513162Y-91375758D01*
X125577300Y-91363000D01*
X125642700Y-91363000D01*
X125706838Y-91375758D01*
G37*
G36*
X162058604Y-90638347D02*
G01*
X162095144Y-90649432D01*
X162128821Y-90667433D01*
X162158341Y-90691659D01*
X162182567Y-90721179D01*
X162200568Y-90754856D01*
X162211653Y-90791396D01*
X162216000Y-90835538D01*
X162216000Y-91784462D01*
X162211653Y-91828604D01*
X162200568Y-91865144D01*
X162182567Y-91898821D01*
X162158341Y-91928341D01*
X162128821Y-91952567D01*
X162095144Y-91970568D01*
X162058604Y-91981653D01*
X162014462Y-91986000D01*
X160565538Y-91986000D01*
X160521396Y-91981653D01*
X160484856Y-91970568D01*
X160451179Y-91952567D01*
X160421659Y-91928341D01*
X160397433Y-91898821D01*
X160379432Y-91865144D01*
X160368347Y-91828604D01*
X160364000Y-91784462D01*
X160364000Y-90835538D01*
X160368347Y-90791396D01*
X160379432Y-90754856D01*
X160397433Y-90721179D01*
X160421659Y-90691659D01*
X160451179Y-90667433D01*
X160484856Y-90649432D01*
X160521396Y-90638347D01*
X160565538Y-90634000D01*
X162014462Y-90634000D01*
X162058604Y-90638347D01*
G37*
G36*
X135619928Y-89186764D02*
G01*
X135641009Y-89193160D01*
X135660445Y-89203548D01*
X135677476Y-89217524D01*
X135691452Y-89234555D01*
X135701840Y-89253991D01*
X135708236Y-89275072D01*
X135711000Y-89303140D01*
X135711000Y-89766860D01*
X135708236Y-89794928D01*
X135701840Y-89816009D01*
X135691452Y-89835445D01*
X135677476Y-89852476D01*
X135660445Y-89866452D01*
X135641009Y-89876840D01*
X135619928Y-89883236D01*
X135591860Y-89886000D01*
X133778140Y-89886000D01*
X133750072Y-89883236D01*
X133728991Y-89876840D01*
X133709555Y-89866452D01*
X133692524Y-89852476D01*
X133678548Y-89835445D01*
X133668160Y-89816009D01*
X133661764Y-89794928D01*
X133659000Y-89766860D01*
X133659000Y-89303140D01*
X133661764Y-89275072D01*
X133668160Y-89253991D01*
X133678548Y-89234555D01*
X133692524Y-89217524D01*
X133709555Y-89203548D01*
X133728991Y-89193160D01*
X133750072Y-89186764D01*
X133778140Y-89184000D01*
X135591860Y-89184000D01*
X135619928Y-89186764D01*
G37*
G36*
X140569928Y-89186764D02*
G01*
X140591009Y-89193160D01*
X140610445Y-89203548D01*
X140627476Y-89217524D01*
X140641452Y-89234555D01*
X140651840Y-89253991D01*
X140658236Y-89275072D01*
X140661000Y-89303140D01*
X140661000Y-89766860D01*
X140658236Y-89794928D01*
X140651840Y-89816009D01*
X140641452Y-89835445D01*
X140627476Y-89852476D01*
X140610445Y-89866452D01*
X140591009Y-89876840D01*
X140569928Y-89883236D01*
X140541860Y-89886000D01*
X138728140Y-89886000D01*
X138700072Y-89883236D01*
X138678991Y-89876840D01*
X138659555Y-89866452D01*
X138642524Y-89852476D01*
X138628548Y-89835445D01*
X138618160Y-89816009D01*
X138611764Y-89794928D01*
X138609000Y-89766860D01*
X138609000Y-89303140D01*
X138611764Y-89275072D01*
X138618160Y-89253991D01*
X138628548Y-89234555D01*
X138642524Y-89217524D01*
X138659555Y-89203548D01*
X138678991Y-89193160D01*
X138700072Y-89186764D01*
X138728140Y-89184000D01*
X140541860Y-89184000D01*
X140569928Y-89186764D01*
G37*
G36*
X156323512Y-88003927D02*
G01*
X156472812Y-88033624D01*
X156636784Y-88101544D01*
X156784354Y-88200147D01*
X156909853Y-88325646D01*
X157008456Y-88473216D01*
X157076376Y-88637188D01*
X157111000Y-88811259D01*
X157111000Y-88988741D01*
X157076376Y-89162812D01*
X157008456Y-89326784D01*
X156909853Y-89474354D01*
X156784354Y-89599853D01*
X156636784Y-89698456D01*
X156472812Y-89766376D01*
X156329268Y-89794928D01*
X156298742Y-89801000D01*
X156121258Y-89801000D01*
X156090732Y-89794928D01*
X155947188Y-89766376D01*
X155783216Y-89698456D01*
X155635646Y-89599853D01*
X155510147Y-89474354D01*
X155411544Y-89326784D01*
X155343624Y-89162812D01*
X155309000Y-88988741D01*
X155309000Y-88811259D01*
X155343624Y-88637188D01*
X155411544Y-88473216D01*
X155510147Y-88325646D01*
X155635646Y-88200147D01*
X155783216Y-88101544D01*
X155947188Y-88033624D01*
X156096488Y-88003927D01*
X156121258Y-87999000D01*
X156298742Y-87999000D01*
X156323512Y-88003927D01*
G37*
G36*
X153783512Y-88003927D02*
G01*
X153932812Y-88033624D01*
X154096784Y-88101544D01*
X154244354Y-88200147D01*
X154369853Y-88325646D01*
X154468456Y-88473216D01*
X154536376Y-88637188D01*
X154571000Y-88811259D01*
X154571000Y-88988741D01*
X154536376Y-89162812D01*
X154468456Y-89326784D01*
X154369853Y-89474354D01*
X154244354Y-89599853D01*
X154096784Y-89698456D01*
X153932812Y-89766376D01*
X153789268Y-89794928D01*
X153758742Y-89801000D01*
X153581258Y-89801000D01*
X153550732Y-89794928D01*
X153407188Y-89766376D01*
X153243216Y-89698456D01*
X153095646Y-89599853D01*
X152970147Y-89474354D01*
X152871544Y-89326784D01*
X152803624Y-89162812D01*
X152769000Y-88988741D01*
X152769000Y-88811259D01*
X152803624Y-88637188D01*
X152871544Y-88473216D01*
X152970147Y-88325646D01*
X153095646Y-88200147D01*
X153243216Y-88101544D01*
X153407188Y-88033624D01*
X153556488Y-88003927D01*
X153581258Y-87999000D01*
X153758742Y-87999000D01*
X153783512Y-88003927D01*
G37*
G36*
X148024468Y-88153565D02*
G01*
X148063138Y-88165296D01*
X148098777Y-88184346D01*
X148130017Y-88209983D01*
X148155654Y-88241223D01*
X148174704Y-88276862D01*
X148186435Y-88315532D01*
X148191000Y-88361888D01*
X148191000Y-89438112D01*
X148186435Y-89484468D01*
X148174704Y-89523138D01*
X148155654Y-89558777D01*
X148130017Y-89590017D01*
X148098777Y-89615654D01*
X148063138Y-89634704D01*
X148024468Y-89646435D01*
X147978112Y-89651000D01*
X147326888Y-89651000D01*
X147280532Y-89646435D01*
X147241862Y-89634704D01*
X147206223Y-89615654D01*
X147174983Y-89590017D01*
X147149346Y-89558777D01*
X147130296Y-89523138D01*
X147118565Y-89484468D01*
X147114000Y-89438112D01*
X147114000Y-88361888D01*
X147118565Y-88315532D01*
X147130296Y-88276862D01*
X147149346Y-88241223D01*
X147174983Y-88209983D01*
X147206223Y-88184346D01*
X147241862Y-88165296D01*
X147280532Y-88153565D01*
X147326888Y-88149000D01*
X147978112Y-88149000D01*
X148024468Y-88153565D01*
G37*
G36*
X149899468Y-88153565D02*
G01*
X149938138Y-88165296D01*
X149973777Y-88184346D01*
X150005017Y-88209983D01*
X150030654Y-88241223D01*
X150049704Y-88276862D01*
X150061435Y-88315532D01*
X150066000Y-88361888D01*
X150066000Y-89438112D01*
X150061435Y-89484468D01*
X150049704Y-89523138D01*
X150030654Y-89558777D01*
X150005017Y-89590017D01*
X149973777Y-89615654D01*
X149938138Y-89634704D01*
X149899468Y-89646435D01*
X149853112Y-89651000D01*
X149201888Y-89651000D01*
X149155532Y-89646435D01*
X149116862Y-89634704D01*
X149081223Y-89615654D01*
X149049983Y-89590017D01*
X149024346Y-89558777D01*
X149005296Y-89523138D01*
X148993565Y-89484468D01*
X148989000Y-89438112D01*
X148989000Y-88361888D01*
X148993565Y-88315532D01*
X149005296Y-88276862D01*
X149024346Y-88241223D01*
X149049983Y-88209983D01*
X149081223Y-88184346D01*
X149116862Y-88165296D01*
X149155532Y-88153565D01*
X149201888Y-88149000D01*
X149853112Y-88149000D01*
X149899468Y-88153565D01*
G37*
G36*
X138356000Y-89181000D02*
G01*
X135964000Y-89181000D01*
X135964000Y-86079000D01*
X138356000Y-86079000D01*
X138356000Y-89181000D01*
G37*
G36*
X131394468Y-88033565D02*
G01*
X131433138Y-88045296D01*
X131468777Y-88064346D01*
X131500017Y-88089983D01*
X131525654Y-88121223D01*
X131544704Y-88156862D01*
X131556435Y-88195532D01*
X131561000Y-88241888D01*
X131561000Y-88893112D01*
X131556435Y-88939468D01*
X131544704Y-88978138D01*
X131525654Y-89013777D01*
X131500017Y-89045017D01*
X131468777Y-89070654D01*
X131433138Y-89089704D01*
X131394468Y-89101435D01*
X131348112Y-89106000D01*
X130271888Y-89106000D01*
X130225532Y-89101435D01*
X130186862Y-89089704D01*
X130151223Y-89070654D01*
X130119983Y-89045017D01*
X130094346Y-89013777D01*
X130075296Y-88978138D01*
X130063565Y-88939468D01*
X130059000Y-88893112D01*
X130059000Y-88241888D01*
X130063565Y-88195532D01*
X130075296Y-88156862D01*
X130094346Y-88121223D01*
X130119983Y-88089983D01*
X130151223Y-88064346D01*
X130186862Y-88045296D01*
X130225532Y-88033565D01*
X130271888Y-88029000D01*
X131348112Y-88029000D01*
X131394468Y-88033565D01*
G37*
G36*
X135619928Y-87916764D02*
G01*
X135641009Y-87923160D01*
X135660445Y-87933548D01*
X135677476Y-87947524D01*
X135691452Y-87964555D01*
X135701840Y-87983991D01*
X135708236Y-88005072D01*
X135711000Y-88033140D01*
X135711000Y-88496860D01*
X135708236Y-88524928D01*
X135701840Y-88546009D01*
X135691452Y-88565445D01*
X135677476Y-88582476D01*
X135660445Y-88596452D01*
X135641009Y-88606840D01*
X135619928Y-88613236D01*
X135591860Y-88616000D01*
X133778140Y-88616000D01*
X133750072Y-88613236D01*
X133728991Y-88606840D01*
X133709555Y-88596452D01*
X133692524Y-88582476D01*
X133678548Y-88565445D01*
X133668160Y-88546009D01*
X133661764Y-88524928D01*
X133659000Y-88496860D01*
X133659000Y-88033140D01*
X133661764Y-88005072D01*
X133668160Y-87983991D01*
X133678548Y-87964555D01*
X133692524Y-87947524D01*
X133709555Y-87933548D01*
X133728991Y-87923160D01*
X133750072Y-87916764D01*
X133778140Y-87914000D01*
X135591860Y-87914000D01*
X135619928Y-87916764D01*
G37*
G36*
X140569928Y-87916764D02*
G01*
X140591009Y-87923160D01*
X140610445Y-87933548D01*
X140627476Y-87947524D01*
X140641452Y-87964555D01*
X140651840Y-87983991D01*
X140658236Y-88005072D01*
X140661000Y-88033140D01*
X140661000Y-88496860D01*
X140658236Y-88524928D01*
X140651840Y-88546009D01*
X140641452Y-88565445D01*
X140627476Y-88582476D01*
X140610445Y-88596452D01*
X140591009Y-88606840D01*
X140569928Y-88613236D01*
X140541860Y-88616000D01*
X138728140Y-88616000D01*
X138700072Y-88613236D01*
X138678991Y-88606840D01*
X138659555Y-88596452D01*
X138642524Y-88582476D01*
X138628548Y-88565445D01*
X138618160Y-88546009D01*
X138611764Y-88524928D01*
X138609000Y-88496860D01*
X138609000Y-88033140D01*
X138611764Y-88005072D01*
X138618160Y-87983991D01*
X138628548Y-87964555D01*
X138642524Y-87947524D01*
X138659555Y-87933548D01*
X138678991Y-87923160D01*
X138700072Y-87916764D01*
X138728140Y-87914000D01*
X140541860Y-87914000D01*
X140569928Y-87916764D01*
G37*
G36*
X128309468Y-86883565D02*
G01*
X128348138Y-86895296D01*
X128383777Y-86914346D01*
X128415017Y-86939983D01*
X128440654Y-86971223D01*
X128459704Y-87006862D01*
X128471435Y-87045532D01*
X128476000Y-87091888D01*
X128476000Y-88168112D01*
X128471435Y-88214468D01*
X128459704Y-88253138D01*
X128440654Y-88288777D01*
X128415017Y-88320017D01*
X128383777Y-88345654D01*
X128348138Y-88364704D01*
X128309468Y-88376435D01*
X128263112Y-88381000D01*
X127611888Y-88381000D01*
X127565532Y-88376435D01*
X127526862Y-88364704D01*
X127491223Y-88345654D01*
X127459983Y-88320017D01*
X127434346Y-88288777D01*
X127415296Y-88253138D01*
X127403565Y-88214468D01*
X127399000Y-88168112D01*
X127399000Y-87091888D01*
X127403565Y-87045532D01*
X127415296Y-87006862D01*
X127434346Y-86971223D01*
X127459983Y-86939983D01*
X127491223Y-86914346D01*
X127526862Y-86895296D01*
X127565532Y-86883565D01*
X127611888Y-86879000D01*
X128263112Y-86879000D01*
X128309468Y-86883565D01*
G37*
G36*
X126434468Y-86883565D02*
G01*
X126473138Y-86895296D01*
X126508777Y-86914346D01*
X126540017Y-86939983D01*
X126565654Y-86971223D01*
X126584704Y-87006862D01*
X126596435Y-87045532D01*
X126601000Y-87091888D01*
X126601000Y-88168112D01*
X126596435Y-88214468D01*
X126584704Y-88253138D01*
X126565654Y-88288777D01*
X126540017Y-88320017D01*
X126508777Y-88345654D01*
X126473138Y-88364704D01*
X126434468Y-88376435D01*
X126388112Y-88381000D01*
X125736888Y-88381000D01*
X125690532Y-88376435D01*
X125651862Y-88364704D01*
X125616223Y-88345654D01*
X125584983Y-88320017D01*
X125559346Y-88288777D01*
X125540296Y-88253138D01*
X125528565Y-88214468D01*
X125524000Y-88168112D01*
X125524000Y-87091888D01*
X125528565Y-87045532D01*
X125540296Y-87006862D01*
X125559346Y-86971223D01*
X125584983Y-86939983D01*
X125616223Y-86914346D01*
X125651862Y-86895296D01*
X125690532Y-86883565D01*
X125736888Y-86879000D01*
X126388112Y-86879000D01*
X126434468Y-86883565D01*
G37*
G36*
X140569928Y-86646764D02*
G01*
X140591009Y-86653160D01*
X140610445Y-86663548D01*
X140627476Y-86677524D01*
X140641452Y-86694555D01*
X140651840Y-86713991D01*
X140658236Y-86735072D01*
X140661000Y-86763140D01*
X140661000Y-87226860D01*
X140658236Y-87254928D01*
X140651840Y-87276009D01*
X140641452Y-87295445D01*
X140627476Y-87312476D01*
X140610445Y-87326452D01*
X140591009Y-87336840D01*
X140569928Y-87343236D01*
X140541860Y-87346000D01*
X138728140Y-87346000D01*
X138700072Y-87343236D01*
X138678991Y-87336840D01*
X138659555Y-87326452D01*
X138642524Y-87312476D01*
X138628548Y-87295445D01*
X138618160Y-87276009D01*
X138611764Y-87254928D01*
X138609000Y-87226860D01*
X138609000Y-86763140D01*
X138611764Y-86735072D01*
X138618160Y-86713991D01*
X138628548Y-86694555D01*
X138642524Y-86677524D01*
X138659555Y-86663548D01*
X138678991Y-86653160D01*
X138700072Y-86646764D01*
X138728140Y-86644000D01*
X140541860Y-86644000D01*
X140569928Y-86646764D01*
G37*
G36*
X135619928Y-86646764D02*
G01*
X135641009Y-86653160D01*
X135660445Y-86663548D01*
X135677476Y-86677524D01*
X135691452Y-86694555D01*
X135701840Y-86713991D01*
X135708236Y-86735072D01*
X135711000Y-86763140D01*
X135711000Y-87226860D01*
X135708236Y-87254928D01*
X135701840Y-87276009D01*
X135691452Y-87295445D01*
X135677476Y-87312476D01*
X135660445Y-87326452D01*
X135641009Y-87336840D01*
X135619928Y-87343236D01*
X135591860Y-87346000D01*
X133778140Y-87346000D01*
X133750072Y-87343236D01*
X133728991Y-87336840D01*
X133709555Y-87326452D01*
X133692524Y-87312476D01*
X133678548Y-87295445D01*
X133668160Y-87276009D01*
X133661764Y-87254928D01*
X133659000Y-87226860D01*
X133659000Y-86763140D01*
X133661764Y-86735072D01*
X133668160Y-86713991D01*
X133678548Y-86694555D01*
X133692524Y-86677524D01*
X133709555Y-86663548D01*
X133728991Y-86653160D01*
X133750072Y-86646764D01*
X133778140Y-86644000D01*
X135591860Y-86644000D01*
X135619928Y-86646764D01*
G37*
G36*
X156323512Y-85463927D02*
G01*
X156472812Y-85493624D01*
X156636784Y-85561544D01*
X156784354Y-85660147D01*
X156909853Y-85785646D01*
X157008456Y-85933216D01*
X157076376Y-86097188D01*
X157111000Y-86271259D01*
X157111000Y-86448741D01*
X157076376Y-86622812D01*
X157008456Y-86786784D01*
X156909853Y-86934354D01*
X156784354Y-87059853D01*
X156636784Y-87158456D01*
X156472812Y-87226376D01*
X156329268Y-87254928D01*
X156298742Y-87261000D01*
X156121258Y-87261000D01*
X156090732Y-87254928D01*
X155947188Y-87226376D01*
X155783216Y-87158456D01*
X155635646Y-87059853D01*
X155510147Y-86934354D01*
X155411544Y-86786784D01*
X155343624Y-86622812D01*
X155309000Y-86448741D01*
X155309000Y-86271259D01*
X155343624Y-86097188D01*
X155411544Y-85933216D01*
X155510147Y-85785646D01*
X155635646Y-85660147D01*
X155783216Y-85561544D01*
X155947188Y-85493624D01*
X156096488Y-85463927D01*
X156121258Y-85459000D01*
X156298742Y-85459000D01*
X156323512Y-85463927D01*
G37*
G36*
X153783512Y-85463927D02*
G01*
X153932812Y-85493624D01*
X154096784Y-85561544D01*
X154244354Y-85660147D01*
X154369853Y-85785646D01*
X154468456Y-85933216D01*
X154536376Y-86097188D01*
X154571000Y-86271259D01*
X154571000Y-86448741D01*
X154536376Y-86622812D01*
X154468456Y-86786784D01*
X154369853Y-86934354D01*
X154244354Y-87059853D01*
X154096784Y-87158456D01*
X153932812Y-87226376D01*
X153789268Y-87254928D01*
X153758742Y-87261000D01*
X153581258Y-87261000D01*
X153550732Y-87254928D01*
X153407188Y-87226376D01*
X153243216Y-87158456D01*
X153095646Y-87059853D01*
X152970147Y-86934354D01*
X152871544Y-86786784D01*
X152803624Y-86622812D01*
X152769000Y-86448741D01*
X152769000Y-86271259D01*
X152803624Y-86097188D01*
X152871544Y-85933216D01*
X152970147Y-85785646D01*
X153095646Y-85660147D01*
X153243216Y-85561544D01*
X153407188Y-85493624D01*
X153556488Y-85463927D01*
X153581258Y-85459000D01*
X153758742Y-85459000D01*
X153783512Y-85463927D01*
G37*
G36*
X131394468Y-86158565D02*
G01*
X131433138Y-86170296D01*
X131468777Y-86189346D01*
X131500017Y-86214983D01*
X131525654Y-86246223D01*
X131544704Y-86281862D01*
X131556435Y-86320532D01*
X131561000Y-86366888D01*
X131561000Y-87018112D01*
X131556435Y-87064468D01*
X131544704Y-87103138D01*
X131525654Y-87138777D01*
X131500017Y-87170017D01*
X131468777Y-87195654D01*
X131433138Y-87214704D01*
X131394468Y-87226435D01*
X131348112Y-87231000D01*
X130271888Y-87231000D01*
X130225532Y-87226435D01*
X130186862Y-87214704D01*
X130151223Y-87195654D01*
X130119983Y-87170017D01*
X130094346Y-87138777D01*
X130075296Y-87103138D01*
X130063565Y-87064468D01*
X130059000Y-87018112D01*
X130059000Y-86366888D01*
X130063565Y-86320532D01*
X130075296Y-86281862D01*
X130094346Y-86246223D01*
X130119983Y-86214983D01*
X130151223Y-86189346D01*
X130186862Y-86170296D01*
X130225532Y-86158565D01*
X130271888Y-86154000D01*
X131348112Y-86154000D01*
X131394468Y-86158565D01*
G37*
G36*
X146089468Y-85613565D02*
G01*
X146128138Y-85625296D01*
X146163777Y-85644346D01*
X146195017Y-85669983D01*
X146220654Y-85701223D01*
X146239704Y-85736862D01*
X146251435Y-85775532D01*
X146256000Y-85821888D01*
X146256000Y-86898112D01*
X146251435Y-86944468D01*
X146239704Y-86983138D01*
X146220654Y-87018777D01*
X146195017Y-87050017D01*
X146163777Y-87075654D01*
X146128138Y-87094704D01*
X146089468Y-87106435D01*
X146043112Y-87111000D01*
X145391888Y-87111000D01*
X145345532Y-87106435D01*
X145306862Y-87094704D01*
X145271223Y-87075654D01*
X145239983Y-87050017D01*
X145214346Y-87018777D01*
X145195296Y-86983138D01*
X145183565Y-86944468D01*
X145179000Y-86898112D01*
X145179000Y-85821888D01*
X145183565Y-85775532D01*
X145195296Y-85736862D01*
X145214346Y-85701223D01*
X145239983Y-85669983D01*
X145271223Y-85644346D01*
X145306862Y-85625296D01*
X145345532Y-85613565D01*
X145391888Y-85609000D01*
X146043112Y-85609000D01*
X146089468Y-85613565D01*
G37*
G36*
X144214468Y-85613565D02*
G01*
X144253138Y-85625296D01*
X144288777Y-85644346D01*
X144320017Y-85669983D01*
X144345654Y-85701223D01*
X144364704Y-85736862D01*
X144376435Y-85775532D01*
X144381000Y-85821888D01*
X144381000Y-86898112D01*
X144376435Y-86944468D01*
X144364704Y-86983138D01*
X144345654Y-87018777D01*
X144320017Y-87050017D01*
X144288777Y-87075654D01*
X144253138Y-87094704D01*
X144214468Y-87106435D01*
X144168112Y-87111000D01*
X143516888Y-87111000D01*
X143470532Y-87106435D01*
X143431862Y-87094704D01*
X143396223Y-87075654D01*
X143364983Y-87050017D01*
X143339346Y-87018777D01*
X143320296Y-86983138D01*
X143308565Y-86944468D01*
X143304000Y-86898112D01*
X143304000Y-85821888D01*
X143308565Y-85775532D01*
X143320296Y-85736862D01*
X143339346Y-85701223D01*
X143364983Y-85669983D01*
X143396223Y-85644346D01*
X143431862Y-85625296D01*
X143470532Y-85613565D01*
X143516888Y-85609000D01*
X144168112Y-85609000D01*
X144214468Y-85613565D01*
G37*
G36*
X140569928Y-85376764D02*
G01*
X140591009Y-85383160D01*
X140610445Y-85393548D01*
X140627476Y-85407524D01*
X140641452Y-85424555D01*
X140651840Y-85443991D01*
X140658236Y-85465072D01*
X140661000Y-85493140D01*
X140661000Y-85956860D01*
X140658236Y-85984928D01*
X140651840Y-86006009D01*
X140641452Y-86025445D01*
X140627476Y-86042476D01*
X140610445Y-86056452D01*
X140591009Y-86066840D01*
X140569928Y-86073236D01*
X140541860Y-86076000D01*
X138728140Y-86076000D01*
X138700072Y-86073236D01*
X138678991Y-86066840D01*
X138659555Y-86056452D01*
X138642524Y-86042476D01*
X138628548Y-86025445D01*
X138618160Y-86006009D01*
X138611764Y-85984928D01*
X138609000Y-85956860D01*
X138609000Y-85493140D01*
X138611764Y-85465072D01*
X138618160Y-85443991D01*
X138628548Y-85424555D01*
X138642524Y-85407524D01*
X138659555Y-85393548D01*
X138678991Y-85383160D01*
X138700072Y-85376764D01*
X138728140Y-85374000D01*
X140541860Y-85374000D01*
X140569928Y-85376764D01*
G37*
G36*
X135619928Y-85376764D02*
G01*
X135641009Y-85383160D01*
X135660445Y-85393548D01*
X135677476Y-85407524D01*
X135691452Y-85424555D01*
X135701840Y-85443991D01*
X135708236Y-85465072D01*
X135711000Y-85493140D01*
X135711000Y-85956860D01*
X135708236Y-85984928D01*
X135701840Y-86006009D01*
X135691452Y-86025445D01*
X135677476Y-86042476D01*
X135660445Y-86056452D01*
X135641009Y-86066840D01*
X135619928Y-86073236D01*
X135591860Y-86076000D01*
X133778140Y-86076000D01*
X133750072Y-86073236D01*
X133728991Y-86066840D01*
X133709555Y-86056452D01*
X133692524Y-86042476D01*
X133678548Y-86025445D01*
X133668160Y-86006009D01*
X133661764Y-85984928D01*
X133659000Y-85956860D01*
X133659000Y-85493140D01*
X133661764Y-85465072D01*
X133668160Y-85443991D01*
X133678548Y-85424555D01*
X133692524Y-85407524D01*
X133709555Y-85393548D01*
X133728991Y-85383160D01*
X133750072Y-85376764D01*
X133778140Y-85374000D01*
X135591860Y-85374000D01*
X135619928Y-85376764D01*
G37*
G36*
X153783512Y-82923927D02*
G01*
X153932812Y-82953624D01*
X154096784Y-83021544D01*
X154244354Y-83120147D01*
X154369853Y-83245646D01*
X154468456Y-83393216D01*
X154536376Y-83557188D01*
X154571000Y-83731259D01*
X154571000Y-83908741D01*
X154536376Y-84082812D01*
X154468456Y-84246784D01*
X154369853Y-84394354D01*
X154244354Y-84519853D01*
X154096784Y-84618456D01*
X153932812Y-84686376D01*
X153783512Y-84716073D01*
X153758742Y-84721000D01*
X153581258Y-84721000D01*
X153556488Y-84716073D01*
X153407188Y-84686376D01*
X153243216Y-84618456D01*
X153095646Y-84519853D01*
X152970147Y-84394354D01*
X152871544Y-84246784D01*
X152803624Y-84082812D01*
X152769000Y-83908741D01*
X152769000Y-83731259D01*
X152803624Y-83557188D01*
X152871544Y-83393216D01*
X152970147Y-83245646D01*
X153095646Y-83120147D01*
X153243216Y-83021544D01*
X153407188Y-82953624D01*
X153556488Y-82923927D01*
X153581258Y-82919000D01*
X153758742Y-82919000D01*
X153783512Y-82923927D01*
G37*
G36*
X156323512Y-82923927D02*
G01*
X156472812Y-82953624D01*
X156636784Y-83021544D01*
X156784354Y-83120147D01*
X156909853Y-83245646D01*
X157008456Y-83393216D01*
X157076376Y-83557188D01*
X157111000Y-83731259D01*
X157111000Y-83908741D01*
X157076376Y-84082812D01*
X157008456Y-84246784D01*
X156909853Y-84394354D01*
X156784354Y-84519853D01*
X156636784Y-84618456D01*
X156472812Y-84686376D01*
X156323512Y-84716073D01*
X156298742Y-84721000D01*
X156121258Y-84721000D01*
X156096488Y-84716073D01*
X155947188Y-84686376D01*
X155783216Y-84618456D01*
X155635646Y-84519853D01*
X155510147Y-84394354D01*
X155411544Y-84246784D01*
X155343624Y-84082812D01*
X155309000Y-83908741D01*
X155309000Y-83731259D01*
X155343624Y-83557188D01*
X155411544Y-83393216D01*
X155510147Y-83245646D01*
X155635646Y-83120147D01*
X155783216Y-83021544D01*
X155947188Y-82953624D01*
X156096488Y-82923927D01*
X156121258Y-82919000D01*
X156298742Y-82919000D01*
X156323512Y-82923927D01*
G37*
G36*
X162058604Y-83278347D02*
G01*
X162095144Y-83289432D01*
X162128821Y-83307433D01*
X162158341Y-83331659D01*
X162182567Y-83361179D01*
X162200568Y-83394856D01*
X162211653Y-83431396D01*
X162216000Y-83475538D01*
X162216000Y-84424462D01*
X162211653Y-84468604D01*
X162200568Y-84505144D01*
X162182567Y-84538821D01*
X162158341Y-84568341D01*
X162128821Y-84592567D01*
X162095144Y-84610568D01*
X162058604Y-84621653D01*
X162014462Y-84626000D01*
X160565538Y-84626000D01*
X160521396Y-84621653D01*
X160484856Y-84610568D01*
X160451179Y-84592567D01*
X160421659Y-84568341D01*
X160397433Y-84538821D01*
X160379432Y-84505144D01*
X160368347Y-84468604D01*
X160364000Y-84424462D01*
X160364000Y-83475538D01*
X160368347Y-83431396D01*
X160379432Y-83394856D01*
X160397433Y-83361179D01*
X160421659Y-83331659D01*
X160451179Y-83307433D01*
X160484856Y-83289432D01*
X160521396Y-83278347D01*
X160565538Y-83274000D01*
X162014462Y-83274000D01*
X162058604Y-83278347D01*
G37*
G36*
X149566968Y-83073565D02*
G01*
X149605638Y-83085296D01*
X149641277Y-83104346D01*
X149672517Y-83129983D01*
X149698154Y-83161223D01*
X149717204Y-83196862D01*
X149728935Y-83235532D01*
X149733500Y-83281888D01*
X149733500Y-84358112D01*
X149728935Y-84404468D01*
X149717204Y-84443138D01*
X149698154Y-84478777D01*
X149672517Y-84510017D01*
X149641277Y-84535654D01*
X149605638Y-84554704D01*
X149566968Y-84566435D01*
X149520612Y-84571000D01*
X148869388Y-84571000D01*
X148823032Y-84566435D01*
X148784362Y-84554704D01*
X148748723Y-84535654D01*
X148717483Y-84510017D01*
X148691846Y-84478777D01*
X148672796Y-84443138D01*
X148661065Y-84404468D01*
X148656500Y-84358112D01*
X148656500Y-83281888D01*
X148661065Y-83235532D01*
X148672796Y-83196862D01*
X148691846Y-83161223D01*
X148717483Y-83129983D01*
X148748723Y-83104346D01*
X148784362Y-83085296D01*
X148823032Y-83073565D01*
X148869388Y-83069000D01*
X149520612Y-83069000D01*
X149566968Y-83073565D01*
G37*
G36*
X147691968Y-83073565D02*
G01*
X147730638Y-83085296D01*
X147766277Y-83104346D01*
X147797517Y-83129983D01*
X147823154Y-83161223D01*
X147842204Y-83196862D01*
X147853935Y-83235532D01*
X147858500Y-83281888D01*
X147858500Y-84358112D01*
X147853935Y-84404468D01*
X147842204Y-84443138D01*
X147823154Y-84478777D01*
X147797517Y-84510017D01*
X147766277Y-84535654D01*
X147730638Y-84554704D01*
X147691968Y-84566435D01*
X147645612Y-84571000D01*
X146994388Y-84571000D01*
X146948032Y-84566435D01*
X146909362Y-84554704D01*
X146873723Y-84535654D01*
X146842483Y-84510017D01*
X146816846Y-84478777D01*
X146797796Y-84443138D01*
X146786065Y-84404468D01*
X146781500Y-84358112D01*
X146781500Y-83281888D01*
X146786065Y-83235532D01*
X146797796Y-83196862D01*
X146816846Y-83161223D01*
X146842483Y-83129983D01*
X146873723Y-83104346D01*
X146909362Y-83085296D01*
X146948032Y-83073565D01*
X146994388Y-83069000D01*
X147645612Y-83069000D01*
X147691968Y-83073565D01*
G37*
G36*
X157111000Y-82181000D02*
G01*
X155309000Y-82181000D01*
X155309000Y-80379000D01*
X157111000Y-80379000D01*
X157111000Y-82181000D01*
G37*
G36*
X153783512Y-80383927D02*
G01*
X153932812Y-80413624D01*
X154096784Y-80481544D01*
X154244354Y-80580147D01*
X154369853Y-80705646D01*
X154468456Y-80853216D01*
X154536376Y-81017188D01*
X154571000Y-81191259D01*
X154571000Y-81368741D01*
X154536376Y-81542812D01*
X154468456Y-81706784D01*
X154369853Y-81854354D01*
X154244354Y-81979853D01*
X154096784Y-82078456D01*
X153932812Y-82146376D01*
X153783512Y-82176073D01*
X153758742Y-82181000D01*
X153581258Y-82181000D01*
X153556488Y-82176073D01*
X153407188Y-82146376D01*
X153243216Y-82078456D01*
X153095646Y-81979853D01*
X152970147Y-81854354D01*
X152871544Y-81706784D01*
X152803624Y-81542812D01*
X152769000Y-81368741D01*
X152769000Y-81191259D01*
X152803624Y-81017188D01*
X152871544Y-80853216D01*
X152970147Y-80705646D01*
X153095646Y-80580147D01*
X153243216Y-80481544D01*
X153407188Y-80413624D01*
X153556488Y-80383927D01*
X153581258Y-80379000D01*
X153758742Y-80379000D01*
X153783512Y-80383927D01*
G37*
G36*
X144214468Y-80533565D02*
G01*
X144253138Y-80545296D01*
X144288777Y-80564346D01*
X144320017Y-80589983D01*
X144345654Y-80621223D01*
X144364704Y-80656862D01*
X144376435Y-80695532D01*
X144381000Y-80741888D01*
X144381000Y-81818112D01*
X144376435Y-81864468D01*
X144364704Y-81903138D01*
X144345654Y-81938777D01*
X144320017Y-81970017D01*
X144288777Y-81995654D01*
X144253138Y-82014704D01*
X144214468Y-82026435D01*
X144168112Y-82031000D01*
X143516888Y-82031000D01*
X143470532Y-82026435D01*
X143431862Y-82014704D01*
X143396223Y-81995654D01*
X143364983Y-81970017D01*
X143339346Y-81938777D01*
X143320296Y-81903138D01*
X143308565Y-81864468D01*
X143304000Y-81818112D01*
X143304000Y-80741888D01*
X143308565Y-80695532D01*
X143320296Y-80656862D01*
X143339346Y-80621223D01*
X143364983Y-80589983D01*
X143396223Y-80564346D01*
X143431862Y-80545296D01*
X143470532Y-80533565D01*
X143516888Y-80529000D01*
X144168112Y-80529000D01*
X144214468Y-80533565D01*
G37*
G36*
X146089468Y-80533565D02*
G01*
X146128138Y-80545296D01*
X146163777Y-80564346D01*
X146195017Y-80589983D01*
X146220654Y-80621223D01*
X146239704Y-80656862D01*
X146251435Y-80695532D01*
X146256000Y-80741888D01*
X146256000Y-81818112D01*
X146251435Y-81864468D01*
X146239704Y-81903138D01*
X146220654Y-81938777D01*
X146195017Y-81970017D01*
X146163777Y-81995654D01*
X146128138Y-82014704D01*
X146089468Y-82026435D01*
X146043112Y-82031000D01*
X145391888Y-82031000D01*
X145345532Y-82026435D01*
X145306862Y-82014704D01*
X145271223Y-81995654D01*
X145239983Y-81970017D01*
X145214346Y-81938777D01*
X145195296Y-81903138D01*
X145183565Y-81864468D01*
X145179000Y-81818112D01*
X145179000Y-80741888D01*
X145183565Y-80695532D01*
X145195296Y-80656862D01*
X145214346Y-80621223D01*
X145239983Y-80589983D01*
X145271223Y-80564346D01*
X145306862Y-80545296D01*
X145345532Y-80533565D01*
X145391888Y-80529000D01*
X146043112Y-80529000D01*
X146089468Y-80533565D01*
G37*
G36*
X137199468Y-80533565D02*
G01*
X137238138Y-80545296D01*
X137273777Y-80564346D01*
X137305017Y-80589983D01*
X137330654Y-80621223D01*
X137349704Y-80656862D01*
X137361435Y-80695532D01*
X137366000Y-80741888D01*
X137366000Y-81818112D01*
X137361435Y-81864468D01*
X137349704Y-81903138D01*
X137330654Y-81938777D01*
X137305017Y-81970017D01*
X137273777Y-81995654D01*
X137238138Y-82014704D01*
X137199468Y-82026435D01*
X137153112Y-82031000D01*
X136501888Y-82031000D01*
X136455532Y-82026435D01*
X136416862Y-82014704D01*
X136381223Y-81995654D01*
X136349983Y-81970017D01*
X136324346Y-81938777D01*
X136305296Y-81903138D01*
X136293565Y-81864468D01*
X136289000Y-81818112D01*
X136289000Y-80741888D01*
X136293565Y-80695532D01*
X136305296Y-80656862D01*
X136324346Y-80621223D01*
X136349983Y-80589983D01*
X136381223Y-80564346D01*
X136416862Y-80545296D01*
X136455532Y-80533565D01*
X136501888Y-80529000D01*
X137153112Y-80529000D01*
X137199468Y-80533565D01*
G37*
G36*
X135324468Y-80533565D02*
G01*
X135363138Y-80545296D01*
X135398777Y-80564346D01*
X135430017Y-80589983D01*
X135455654Y-80621223D01*
X135474704Y-80656862D01*
X135486435Y-80695532D01*
X135491000Y-80741888D01*
X135491000Y-81818112D01*
X135486435Y-81864468D01*
X135474704Y-81903138D01*
X135455654Y-81938777D01*
X135430017Y-81970017D01*
X135398777Y-81995654D01*
X135363138Y-82014704D01*
X135324468Y-82026435D01*
X135278112Y-82031000D01*
X134626888Y-82031000D01*
X134580532Y-82026435D01*
X134541862Y-82014704D01*
X134506223Y-81995654D01*
X134474983Y-81970017D01*
X134449346Y-81938777D01*
X134430296Y-81903138D01*
X134418565Y-81864468D01*
X134414000Y-81818112D01*
X134414000Y-80741888D01*
X134418565Y-80695532D01*
X134430296Y-80656862D01*
X134449346Y-80621223D01*
X134474983Y-80589983D01*
X134506223Y-80564346D01*
X134541862Y-80545296D01*
X134580532Y-80533565D01*
X134626888Y-80529000D01*
X135278112Y-80529000D01*
X135324468Y-80533565D01*
G37*
G36*
X162058604Y-80478347D02*
G01*
X162095144Y-80489432D01*
X162128821Y-80507433D01*
X162158341Y-80531659D01*
X162182567Y-80561179D01*
X162200568Y-80594856D01*
X162211653Y-80631396D01*
X162216000Y-80675538D01*
X162216000Y-81624462D01*
X162211653Y-81668604D01*
X162200568Y-81705144D01*
X162182567Y-81738821D01*
X162158341Y-81768341D01*
X162128821Y-81792567D01*
X162095144Y-81810568D01*
X162058604Y-81821653D01*
X162014462Y-81826000D01*
X160565538Y-81826000D01*
X160521396Y-81821653D01*
X160484856Y-81810568D01*
X160451179Y-81792567D01*
X160421659Y-81768341D01*
X160397433Y-81738821D01*
X160379432Y-81705144D01*
X160368347Y-81668604D01*
X160364000Y-81624462D01*
X160364000Y-80675538D01*
X160368347Y-80631396D01*
X160379432Y-80594856D01*
X160397433Y-80561179D01*
X160421659Y-80531659D01*
X160451179Y-80507433D01*
X160484856Y-80489432D01*
X160521396Y-80478347D01*
X160565538Y-80474000D01*
X162014462Y-80474000D01*
X162058604Y-80478347D01*
G37*
M02*
