G04 #@! TF.GenerationSoftware,KiCad,Pcbnew,(5.1.5-0-10_14)*
G04 #@! TF.CreationDate,2020-03-10T20:52:17-05:00*
G04 #@! TF.ProjectId,Sensors,53656e73-6f72-4732-9e6b-696361645f70,rev?*
G04 #@! TF.SameCoordinates,Original*
G04 #@! TF.FileFunction,Legend,Top*
G04 #@! TF.FilePolarity,Positive*
%FSLAX46Y46*%
G04 Gerber Fmt 4.6, Leading zero omitted, Abs format (unit mm)*
G04 Created by KiCad (PCBNEW (5.1.5-0-10_14)) date 2020-03-10 20:52:17*
%MOMM*%
%LPD*%
G04 APERTURE LIST*
%ADD10C,0.120000*%
%ADD11C,0.200000*%
%ADD12C,0.127000*%
%ADD13C,0.150000*%
%ADD14C,0.015000*%
G04 APERTURE END LIST*
D10*
X137160000Y-85070000D02*
X133710000Y-85070000D01*
X137160000Y-85070000D02*
X139110000Y-85070000D01*
X137160000Y-90190000D02*
X135210000Y-90190000D01*
X137160000Y-90190000D02*
X139110000Y-90190000D01*
X148848578Y-88190000D02*
X148331422Y-88190000D01*
X148848578Y-89610000D02*
X148331422Y-89610000D01*
X136148578Y-80570000D02*
X135631422Y-80570000D01*
X136148578Y-81990000D02*
X135631422Y-81990000D01*
X148516078Y-83110000D02*
X147998922Y-83110000D01*
X148516078Y-84530000D02*
X147998922Y-84530000D01*
X145038578Y-85650000D02*
X144521422Y-85650000D01*
X145038578Y-87070000D02*
X144521422Y-87070000D01*
X144521422Y-81990000D02*
X145038578Y-81990000D01*
X144521422Y-80570000D02*
X145038578Y-80570000D01*
X130100000Y-87371422D02*
X130100000Y-87888578D01*
X131520000Y-87371422D02*
X131520000Y-87888578D01*
D11*
X128447000Y-90710000D02*
G75*
G03X128447000Y-90710000I-100000J0D01*
G01*
D12*
X126500000Y-91210000D02*
X127500000Y-91210000D01*
X127500000Y-94210000D02*
X126500000Y-94210000D01*
D10*
X160380000Y-81947936D02*
X160380000Y-83152064D01*
X162200000Y-81947936D02*
X162200000Y-83152064D01*
X162200000Y-93312064D02*
X162200000Y-92107936D01*
X160380000Y-93312064D02*
X160380000Y-92107936D01*
X127258578Y-86920000D02*
X126741422Y-86920000D01*
X127258578Y-88340000D02*
X126741422Y-88340000D01*
D13*
X136398095Y-83682380D02*
X136398095Y-84491904D01*
X136445714Y-84587142D01*
X136493333Y-84634761D01*
X136588571Y-84682380D01*
X136779047Y-84682380D01*
X136874285Y-84634761D01*
X136921904Y-84587142D01*
X136969523Y-84491904D01*
X136969523Y-83682380D01*
X137969523Y-84682380D02*
X137398095Y-84682380D01*
X137683809Y-84682380D02*
X137683809Y-83682380D01*
X137588571Y-83825238D01*
X137493333Y-83920476D01*
X137398095Y-83968095D01*
X148423333Y-91002380D02*
X148090000Y-90526190D01*
X147851904Y-91002380D02*
X147851904Y-90002380D01*
X148232857Y-90002380D01*
X148328095Y-90050000D01*
X148375714Y-90097619D01*
X148423333Y-90192857D01*
X148423333Y-90335714D01*
X148375714Y-90430952D01*
X148328095Y-90478571D01*
X148232857Y-90526190D01*
X147851904Y-90526190D01*
X149280476Y-90002380D02*
X149090000Y-90002380D01*
X148994761Y-90050000D01*
X148947142Y-90097619D01*
X148851904Y-90240476D01*
X148804285Y-90430952D01*
X148804285Y-90811904D01*
X148851904Y-90907142D01*
X148899523Y-90954761D01*
X148994761Y-91002380D01*
X149185238Y-91002380D01*
X149280476Y-90954761D01*
X149328095Y-90907142D01*
X149375714Y-90811904D01*
X149375714Y-90573809D01*
X149328095Y-90478571D01*
X149280476Y-90430952D01*
X149185238Y-90383333D01*
X148994761Y-90383333D01*
X148899523Y-90430952D01*
X148851904Y-90478571D01*
X148804285Y-90573809D01*
X135723333Y-83382380D02*
X135390000Y-82906190D01*
X135151904Y-83382380D02*
X135151904Y-82382380D01*
X135532857Y-82382380D01*
X135628095Y-82430000D01*
X135675714Y-82477619D01*
X135723333Y-82572857D01*
X135723333Y-82715714D01*
X135675714Y-82810952D01*
X135628095Y-82858571D01*
X135532857Y-82906190D01*
X135151904Y-82906190D01*
X136628095Y-82382380D02*
X136151904Y-82382380D01*
X136104285Y-82858571D01*
X136151904Y-82810952D01*
X136247142Y-82763333D01*
X136485238Y-82763333D01*
X136580476Y-82810952D01*
X136628095Y-82858571D01*
X136675714Y-82953809D01*
X136675714Y-83191904D01*
X136628095Y-83287142D01*
X136580476Y-83334761D01*
X136485238Y-83382380D01*
X136247142Y-83382380D01*
X136151904Y-83334761D01*
X136104285Y-83287142D01*
X148090833Y-85922380D02*
X147757500Y-85446190D01*
X147519404Y-85922380D02*
X147519404Y-84922380D01*
X147900357Y-84922380D01*
X147995595Y-84970000D01*
X148043214Y-85017619D01*
X148090833Y-85112857D01*
X148090833Y-85255714D01*
X148043214Y-85350952D01*
X147995595Y-85398571D01*
X147900357Y-85446190D01*
X147519404Y-85446190D01*
X148947976Y-85255714D02*
X148947976Y-85922380D01*
X148709880Y-84874761D02*
X148471785Y-85589047D01*
X149090833Y-85589047D01*
X144613333Y-88462380D02*
X144280000Y-87986190D01*
X144041904Y-88462380D02*
X144041904Y-87462380D01*
X144422857Y-87462380D01*
X144518095Y-87510000D01*
X144565714Y-87557619D01*
X144613333Y-87652857D01*
X144613333Y-87795714D01*
X144565714Y-87890952D01*
X144518095Y-87938571D01*
X144422857Y-87986190D01*
X144041904Y-87986190D01*
X144946666Y-87462380D02*
X145565714Y-87462380D01*
X145232380Y-87843333D01*
X145375238Y-87843333D01*
X145470476Y-87890952D01*
X145518095Y-87938571D01*
X145565714Y-88033809D01*
X145565714Y-88271904D01*
X145518095Y-88367142D01*
X145470476Y-88414761D01*
X145375238Y-88462380D01*
X145089523Y-88462380D01*
X144994285Y-88414761D01*
X144946666Y-88367142D01*
X144613333Y-80082380D02*
X144280000Y-79606190D01*
X144041904Y-80082380D02*
X144041904Y-79082380D01*
X144422857Y-79082380D01*
X144518095Y-79130000D01*
X144565714Y-79177619D01*
X144613333Y-79272857D01*
X144613333Y-79415714D01*
X144565714Y-79510952D01*
X144518095Y-79558571D01*
X144422857Y-79606190D01*
X144041904Y-79606190D01*
X144994285Y-79177619D02*
X145041904Y-79130000D01*
X145137142Y-79082380D01*
X145375238Y-79082380D01*
X145470476Y-79130000D01*
X145518095Y-79177619D01*
X145565714Y-79272857D01*
X145565714Y-79368095D01*
X145518095Y-79510952D01*
X144946666Y-80082380D01*
X145565714Y-80082380D01*
X130643333Y-85542380D02*
X130310000Y-85066190D01*
X130071904Y-85542380D02*
X130071904Y-84542380D01*
X130452857Y-84542380D01*
X130548095Y-84590000D01*
X130595714Y-84637619D01*
X130643333Y-84732857D01*
X130643333Y-84875714D01*
X130595714Y-84970952D01*
X130548095Y-85018571D01*
X130452857Y-85066190D01*
X130071904Y-85066190D01*
X131595714Y-85542380D02*
X131024285Y-85542380D01*
X131310000Y-85542380D02*
X131310000Y-84542380D01*
X131214761Y-84685238D01*
X131119523Y-84780476D01*
X131024285Y-84828095D01*
D14*
X130119904Y-94547619D02*
X129319904Y-94547619D01*
X129891333Y-94280952D01*
X129319904Y-94014285D01*
X130119904Y-94014285D01*
X130119904Y-93633333D02*
X129319904Y-93633333D01*
X130119904Y-93176190D02*
X129662761Y-93519047D01*
X129319904Y-93176190D02*
X129777047Y-93633333D01*
X130119904Y-92414285D02*
X130119904Y-92871428D01*
X130119904Y-92642857D02*
X129319904Y-92642857D01*
X129434190Y-92719047D01*
X129510380Y-92795238D01*
X129548476Y-92871428D01*
D13*
X163467142Y-82716666D02*
X163514761Y-82764285D01*
X163562380Y-82907142D01*
X163562380Y-83002380D01*
X163514761Y-83145238D01*
X163419523Y-83240476D01*
X163324285Y-83288095D01*
X163133809Y-83335714D01*
X162990952Y-83335714D01*
X162800476Y-83288095D01*
X162705238Y-83240476D01*
X162610000Y-83145238D01*
X162562380Y-83002380D01*
X162562380Y-82907142D01*
X162610000Y-82764285D01*
X162657619Y-82716666D01*
X162562380Y-82383333D02*
X162562380Y-81764285D01*
X162943333Y-82097619D01*
X162943333Y-81954761D01*
X162990952Y-81859523D01*
X163038571Y-81811904D01*
X163133809Y-81764285D01*
X163371904Y-81764285D01*
X163467142Y-81811904D01*
X163514761Y-81859523D01*
X163562380Y-81954761D01*
X163562380Y-82240476D01*
X163514761Y-82335714D01*
X163467142Y-82383333D01*
X159827142Y-92876666D02*
X159874761Y-92924285D01*
X159922380Y-93067142D01*
X159922380Y-93162380D01*
X159874761Y-93305238D01*
X159779523Y-93400476D01*
X159684285Y-93448095D01*
X159493809Y-93495714D01*
X159350952Y-93495714D01*
X159160476Y-93448095D01*
X159065238Y-93400476D01*
X158970000Y-93305238D01*
X158922380Y-93162380D01*
X158922380Y-93067142D01*
X158970000Y-92924285D01*
X159017619Y-92876666D01*
X159017619Y-92495714D02*
X158970000Y-92448095D01*
X158922380Y-92352857D01*
X158922380Y-92114761D01*
X158970000Y-92019523D01*
X159017619Y-91971904D01*
X159112857Y-91924285D01*
X159208095Y-91924285D01*
X159350952Y-91971904D01*
X159922380Y-92543333D01*
X159922380Y-91924285D01*
X126833333Y-85447142D02*
X126785714Y-85494761D01*
X126642857Y-85542380D01*
X126547619Y-85542380D01*
X126404761Y-85494761D01*
X126309523Y-85399523D01*
X126261904Y-85304285D01*
X126214285Y-85113809D01*
X126214285Y-84970952D01*
X126261904Y-84780476D01*
X126309523Y-84685238D01*
X126404761Y-84590000D01*
X126547619Y-84542380D01*
X126642857Y-84542380D01*
X126785714Y-84590000D01*
X126833333Y-84637619D01*
X127785714Y-85542380D02*
X127214285Y-85542380D01*
X127500000Y-85542380D02*
X127500000Y-84542380D01*
X127404761Y-84685238D01*
X127309523Y-84780476D01*
X127214285Y-84828095D01*
M02*
