G04 #@! TF.GenerationSoftware,KiCad,Pcbnew,(5.1.5-0-10_14)*
G04 #@! TF.CreationDate,2020-03-24T10:25:43-05:00*
G04 #@! TF.ProjectId,Sensors,53656e73-6f72-4732-9e6b-696361645f70,rev?*
G04 #@! TF.SameCoordinates,Original*
G04 #@! TF.FileFunction,Paste,Top*
G04 #@! TF.FilePolarity,Positive*
%FSLAX46Y46*%
G04 Gerber Fmt 4.6, Leading zero omitted, Abs format (unit mm)*
G04 Created by KiCad (PCBNEW (5.1.5-0-10_14)) date 2020-03-24 10:25:43*
%MOMM*%
%LPD*%
G04 APERTURE LIST*
%ADD10C,0.010000*%
%ADD11C,0.100000*%
%ADD12C,0.612000*%
%ADD13C,0.562000*%
%ADD14C,0.723000*%
G04 APERTURE END LIST*
D10*
G36*
X128939563Y-92971628D02*
G01*
X128930034Y-92977124D01*
X128920412Y-92982219D01*
X128910613Y-92986963D01*
X128900649Y-92991351D01*
X128890533Y-92995376D01*
X128880279Y-92999035D01*
X128869899Y-93002320D01*
X128859408Y-93005230D01*
X128848819Y-93007759D01*
X128838145Y-93009905D01*
X128827401Y-93011664D01*
X128816600Y-93013035D01*
X128805757Y-93014016D01*
X128794886Y-93014604D01*
X128784000Y-93014801D01*
X128773114Y-93014604D01*
X128762243Y-93014016D01*
X128751400Y-93013035D01*
X128740599Y-93011664D01*
X128729855Y-93009905D01*
X128719181Y-93007759D01*
X128708592Y-93005230D01*
X128698101Y-93002320D01*
X128687721Y-92999035D01*
X128677467Y-92995376D01*
X128667351Y-92991351D01*
X128657387Y-92986963D01*
X128647588Y-92982219D01*
X128637966Y-92977124D01*
X128628437Y-92971628D01*
X128409590Y-93190478D01*
X128434226Y-93208997D01*
X128456269Y-93223977D01*
X128478953Y-93237969D01*
X128502233Y-93250944D01*
X128526064Y-93262877D01*
X128550398Y-93273746D01*
X128575190Y-93283528D01*
X128600389Y-93292205D01*
X128625948Y-93299760D01*
X128651815Y-93306177D01*
X128677941Y-93311445D01*
X128704274Y-93315553D01*
X128730763Y-93318493D01*
X128757356Y-93320259D01*
X128784001Y-93320848D01*
X128810646Y-93320259D01*
X128837239Y-93318493D01*
X128863728Y-93315553D01*
X128890061Y-93311445D01*
X128916187Y-93306177D01*
X128942054Y-93299760D01*
X128967613Y-93292205D01*
X128992812Y-93283528D01*
X129017604Y-93273746D01*
X129041938Y-93262877D01*
X129065769Y-93250944D01*
X129089049Y-93237969D01*
X129111733Y-93223977D01*
X129133776Y-93208997D01*
X129158412Y-93190478D01*
X128939563Y-92971628D01*
G37*
X128939563Y-92971628D02*
X128930034Y-92977124D01*
X128920412Y-92982219D01*
X128910613Y-92986963D01*
X128900649Y-92991351D01*
X128890533Y-92995376D01*
X128880279Y-92999035D01*
X128869899Y-93002320D01*
X128859408Y-93005230D01*
X128848819Y-93007759D01*
X128838145Y-93009905D01*
X128827401Y-93011664D01*
X128816600Y-93013035D01*
X128805757Y-93014016D01*
X128794886Y-93014604D01*
X128784000Y-93014801D01*
X128773114Y-93014604D01*
X128762243Y-93014016D01*
X128751400Y-93013035D01*
X128740599Y-93011664D01*
X128729855Y-93009905D01*
X128719181Y-93007759D01*
X128708592Y-93005230D01*
X128698101Y-93002320D01*
X128687721Y-92999035D01*
X128677467Y-92995376D01*
X128667351Y-92991351D01*
X128657387Y-92986963D01*
X128647588Y-92982219D01*
X128637966Y-92977124D01*
X128628437Y-92971628D01*
X128409590Y-93190478D01*
X128434226Y-93208997D01*
X128456269Y-93223977D01*
X128478953Y-93237969D01*
X128502233Y-93250944D01*
X128526064Y-93262877D01*
X128550398Y-93273746D01*
X128575190Y-93283528D01*
X128600389Y-93292205D01*
X128625948Y-93299760D01*
X128651815Y-93306177D01*
X128677941Y-93311445D01*
X128704274Y-93315553D01*
X128730763Y-93318493D01*
X128757356Y-93320259D01*
X128784001Y-93320848D01*
X128810646Y-93320259D01*
X128837239Y-93318493D01*
X128863728Y-93315553D01*
X128890061Y-93311445D01*
X128916187Y-93306177D01*
X128942054Y-93299760D01*
X128967613Y-93292205D01*
X128992812Y-93283528D01*
X129017604Y-93273746D01*
X129041938Y-93262877D01*
X129065769Y-93250944D01*
X129089049Y-93237969D01*
X129111733Y-93223977D01*
X129133776Y-93208997D01*
X129158412Y-93190478D01*
X128939563Y-92971628D01*
G36*
X128522370Y-92865562D02*
G01*
X128516874Y-92856033D01*
X128511779Y-92846412D01*
X128507035Y-92836612D01*
X128502647Y-92826648D01*
X128498622Y-92816533D01*
X128494964Y-92806278D01*
X128491678Y-92795899D01*
X128488768Y-92785408D01*
X128486239Y-92774818D01*
X128484093Y-92764145D01*
X128482334Y-92753400D01*
X128480963Y-92742600D01*
X128479983Y-92731757D01*
X128479394Y-92720885D01*
X128479197Y-92710000D01*
X128479394Y-92699115D01*
X128479983Y-92688243D01*
X128480963Y-92677400D01*
X128482334Y-92666600D01*
X128484093Y-92655855D01*
X128486239Y-92645182D01*
X128488768Y-92634592D01*
X128491678Y-92624101D01*
X128494964Y-92613722D01*
X128498622Y-92603467D01*
X128502647Y-92593352D01*
X128507035Y-92583388D01*
X128511779Y-92573588D01*
X128516874Y-92563967D01*
X128522370Y-92554438D01*
X128303520Y-92335588D01*
X128285001Y-92360225D01*
X128270021Y-92382268D01*
X128256029Y-92404951D01*
X128243054Y-92428231D01*
X128231121Y-92452062D01*
X128220252Y-92476397D01*
X128210470Y-92501188D01*
X128201793Y-92526388D01*
X128194238Y-92551946D01*
X128187821Y-92577814D01*
X128182553Y-92603940D01*
X128178445Y-92630273D01*
X128175505Y-92656762D01*
X128173738Y-92683355D01*
X128173149Y-92710000D01*
X128173738Y-92736645D01*
X128175505Y-92763238D01*
X128178445Y-92789727D01*
X128182553Y-92816060D01*
X128187821Y-92842186D01*
X128194238Y-92868054D01*
X128201793Y-92893612D01*
X128210470Y-92918812D01*
X128220252Y-92943603D01*
X128231121Y-92967938D01*
X128243054Y-92991769D01*
X128256029Y-93015049D01*
X128270021Y-93037732D01*
X128285001Y-93059775D01*
X128303520Y-93084412D01*
X128522370Y-92865562D01*
G37*
X128522370Y-92865562D02*
X128516874Y-92856033D01*
X128511779Y-92846412D01*
X128507035Y-92836612D01*
X128502647Y-92826648D01*
X128498622Y-92816533D01*
X128494964Y-92806278D01*
X128491678Y-92795899D01*
X128488768Y-92785408D01*
X128486239Y-92774818D01*
X128484093Y-92764145D01*
X128482334Y-92753400D01*
X128480963Y-92742600D01*
X128479983Y-92731757D01*
X128479394Y-92720885D01*
X128479197Y-92710000D01*
X128479394Y-92699115D01*
X128479983Y-92688243D01*
X128480963Y-92677400D01*
X128482334Y-92666600D01*
X128484093Y-92655855D01*
X128486239Y-92645182D01*
X128488768Y-92634592D01*
X128491678Y-92624101D01*
X128494964Y-92613722D01*
X128498622Y-92603467D01*
X128502647Y-92593352D01*
X128507035Y-92583388D01*
X128511779Y-92573588D01*
X128516874Y-92563967D01*
X128522370Y-92554438D01*
X128303520Y-92335588D01*
X128285001Y-92360225D01*
X128270021Y-92382268D01*
X128256029Y-92404951D01*
X128243054Y-92428231D01*
X128231121Y-92452062D01*
X128220252Y-92476397D01*
X128210470Y-92501188D01*
X128201793Y-92526388D01*
X128194238Y-92551946D01*
X128187821Y-92577814D01*
X128182553Y-92603940D01*
X128178445Y-92630273D01*
X128175505Y-92656762D01*
X128173738Y-92683355D01*
X128173149Y-92710000D01*
X128173738Y-92736645D01*
X128175505Y-92763238D01*
X128178445Y-92789727D01*
X128182553Y-92816060D01*
X128187821Y-92842186D01*
X128194238Y-92868054D01*
X128201793Y-92893612D01*
X128210470Y-92918812D01*
X128220252Y-92943603D01*
X128231121Y-92967938D01*
X128243054Y-92991769D01*
X128256029Y-93015049D01*
X128270021Y-93037732D01*
X128285001Y-93059775D01*
X128303520Y-93084412D01*
X128522370Y-92865562D01*
G36*
X128628437Y-92448372D02*
G01*
X128637966Y-92442876D01*
X128647588Y-92437781D01*
X128657387Y-92433037D01*
X128667351Y-92428649D01*
X128677467Y-92424624D01*
X128687721Y-92420965D01*
X128698101Y-92417680D01*
X128708592Y-92414770D01*
X128719181Y-92412241D01*
X128729855Y-92410095D01*
X128740599Y-92408336D01*
X128751400Y-92406965D01*
X128762243Y-92405984D01*
X128773114Y-92405396D01*
X128784000Y-92405199D01*
X128794886Y-92405396D01*
X128805757Y-92405984D01*
X128816600Y-92406965D01*
X128827401Y-92408336D01*
X128838145Y-92410095D01*
X128848819Y-92412241D01*
X128859408Y-92414770D01*
X128869899Y-92417680D01*
X128880279Y-92420965D01*
X128890533Y-92424624D01*
X128900649Y-92428649D01*
X128910613Y-92433037D01*
X128920412Y-92437781D01*
X128930034Y-92442876D01*
X128939563Y-92448372D01*
X129158412Y-92229522D01*
X129133776Y-92211003D01*
X129111733Y-92196023D01*
X129089049Y-92182031D01*
X129065769Y-92169056D01*
X129041938Y-92157123D01*
X129017604Y-92146254D01*
X128992812Y-92136472D01*
X128967613Y-92127795D01*
X128942054Y-92120240D01*
X128916187Y-92113823D01*
X128890061Y-92108555D01*
X128863728Y-92104447D01*
X128837239Y-92101507D01*
X128810646Y-92099741D01*
X128784001Y-92099152D01*
X128757356Y-92099741D01*
X128730763Y-92101507D01*
X128704274Y-92104447D01*
X128677941Y-92108555D01*
X128651815Y-92113823D01*
X128625948Y-92120240D01*
X128600389Y-92127795D01*
X128575190Y-92136472D01*
X128550398Y-92146254D01*
X128526064Y-92157123D01*
X128502233Y-92169056D01*
X128478953Y-92182031D01*
X128456269Y-92196023D01*
X128434226Y-92211003D01*
X128409590Y-92229522D01*
X128628437Y-92448372D01*
G37*
X128628437Y-92448372D02*
X128637966Y-92442876D01*
X128647588Y-92437781D01*
X128657387Y-92433037D01*
X128667351Y-92428649D01*
X128677467Y-92424624D01*
X128687721Y-92420965D01*
X128698101Y-92417680D01*
X128708592Y-92414770D01*
X128719181Y-92412241D01*
X128729855Y-92410095D01*
X128740599Y-92408336D01*
X128751400Y-92406965D01*
X128762243Y-92405984D01*
X128773114Y-92405396D01*
X128784000Y-92405199D01*
X128794886Y-92405396D01*
X128805757Y-92405984D01*
X128816600Y-92406965D01*
X128827401Y-92408336D01*
X128838145Y-92410095D01*
X128848819Y-92412241D01*
X128859408Y-92414770D01*
X128869899Y-92417680D01*
X128880279Y-92420965D01*
X128890533Y-92424624D01*
X128900649Y-92428649D01*
X128910613Y-92433037D01*
X128920412Y-92437781D01*
X128930034Y-92442876D01*
X128939563Y-92448372D01*
X129158412Y-92229522D01*
X129133776Y-92211003D01*
X129111733Y-92196023D01*
X129089049Y-92182031D01*
X129065769Y-92169056D01*
X129041938Y-92157123D01*
X129017604Y-92146254D01*
X128992812Y-92136472D01*
X128967613Y-92127795D01*
X128942054Y-92120240D01*
X128916187Y-92113823D01*
X128890061Y-92108555D01*
X128863728Y-92104447D01*
X128837239Y-92101507D01*
X128810646Y-92099741D01*
X128784001Y-92099152D01*
X128757356Y-92099741D01*
X128730763Y-92101507D01*
X128704274Y-92104447D01*
X128677941Y-92108555D01*
X128651815Y-92113823D01*
X128625948Y-92120240D01*
X128600389Y-92127795D01*
X128575190Y-92136472D01*
X128550398Y-92146254D01*
X128526064Y-92157123D01*
X128502233Y-92169056D01*
X128478953Y-92182031D01*
X128456269Y-92196023D01*
X128434226Y-92211003D01*
X128409590Y-92229522D01*
X128628437Y-92448372D01*
G36*
X129045628Y-92554438D02*
G01*
X129051124Y-92563967D01*
X129056219Y-92573588D01*
X129060963Y-92583388D01*
X129065351Y-92593352D01*
X129069376Y-92603467D01*
X129073034Y-92613722D01*
X129076320Y-92624101D01*
X129079230Y-92634592D01*
X129081759Y-92645182D01*
X129083905Y-92655855D01*
X129085664Y-92666600D01*
X129087035Y-92677400D01*
X129088015Y-92688243D01*
X129088604Y-92699115D01*
X129088801Y-92710000D01*
X129088604Y-92720885D01*
X129088015Y-92731757D01*
X129087035Y-92742600D01*
X129085664Y-92753400D01*
X129083905Y-92764145D01*
X129081759Y-92774818D01*
X129079230Y-92785408D01*
X129076320Y-92795899D01*
X129073034Y-92806278D01*
X129069376Y-92816533D01*
X129065351Y-92826648D01*
X129060963Y-92836612D01*
X129056219Y-92846412D01*
X129051124Y-92856033D01*
X129045628Y-92865562D01*
X129264478Y-93084412D01*
X129282997Y-93059775D01*
X129297977Y-93037732D01*
X129311969Y-93015049D01*
X129324944Y-92991769D01*
X129336877Y-92967938D01*
X129347746Y-92943603D01*
X129357528Y-92918812D01*
X129366205Y-92893612D01*
X129373760Y-92868054D01*
X129380177Y-92842186D01*
X129385445Y-92816060D01*
X129389553Y-92789727D01*
X129392493Y-92763238D01*
X129394260Y-92736645D01*
X129394849Y-92710000D01*
X129394260Y-92683355D01*
X129392493Y-92656762D01*
X129389553Y-92630273D01*
X129385445Y-92603940D01*
X129380177Y-92577814D01*
X129373760Y-92551946D01*
X129366205Y-92526388D01*
X129357528Y-92501188D01*
X129347746Y-92476397D01*
X129336877Y-92452062D01*
X129324944Y-92428231D01*
X129311969Y-92404951D01*
X129297977Y-92382268D01*
X129282997Y-92360225D01*
X129264478Y-92335588D01*
X129045628Y-92554438D01*
G37*
X129045628Y-92554438D02*
X129051124Y-92563967D01*
X129056219Y-92573588D01*
X129060963Y-92583388D01*
X129065351Y-92593352D01*
X129069376Y-92603467D01*
X129073034Y-92613722D01*
X129076320Y-92624101D01*
X129079230Y-92634592D01*
X129081759Y-92645182D01*
X129083905Y-92655855D01*
X129085664Y-92666600D01*
X129087035Y-92677400D01*
X129088015Y-92688243D01*
X129088604Y-92699115D01*
X129088801Y-92710000D01*
X129088604Y-92720885D01*
X129088015Y-92731757D01*
X129087035Y-92742600D01*
X129085664Y-92753400D01*
X129083905Y-92764145D01*
X129081759Y-92774818D01*
X129079230Y-92785408D01*
X129076320Y-92795899D01*
X129073034Y-92806278D01*
X129069376Y-92816533D01*
X129065351Y-92826648D01*
X129060963Y-92836612D01*
X129056219Y-92846412D01*
X129051124Y-92856033D01*
X129045628Y-92865562D01*
X129264478Y-93084412D01*
X129282997Y-93059775D01*
X129297977Y-93037732D01*
X129311969Y-93015049D01*
X129324944Y-92991769D01*
X129336877Y-92967938D01*
X129347746Y-92943603D01*
X129357528Y-92918812D01*
X129366205Y-92893612D01*
X129373760Y-92868054D01*
X129380177Y-92842186D01*
X129385445Y-92816060D01*
X129389553Y-92789727D01*
X129392493Y-92763238D01*
X129394260Y-92736645D01*
X129394849Y-92710000D01*
X129394260Y-92683355D01*
X129392493Y-92656762D01*
X129389553Y-92630273D01*
X129385445Y-92603940D01*
X129380177Y-92577814D01*
X129373760Y-92551946D01*
X129366205Y-92526388D01*
X129357528Y-92501188D01*
X129347746Y-92476397D01*
X129336877Y-92452062D01*
X129324944Y-92428231D01*
X129311969Y-92404951D01*
X129297977Y-92382268D01*
X129282997Y-92360225D01*
X129264478Y-92335588D01*
X129045628Y-92554438D01*
D11*
G36*
X131077642Y-79311174D02*
G01*
X131101303Y-79314684D01*
X131124507Y-79320496D01*
X131147029Y-79328554D01*
X131168653Y-79338782D01*
X131189170Y-79351079D01*
X131208383Y-79365329D01*
X131226107Y-79381393D01*
X131242171Y-79399117D01*
X131256421Y-79418330D01*
X131268718Y-79438847D01*
X131278946Y-79460471D01*
X131287004Y-79482993D01*
X131292816Y-79506197D01*
X131296326Y-79529858D01*
X131297500Y-79553750D01*
X131297500Y-80466250D01*
X131296326Y-80490142D01*
X131292816Y-80513803D01*
X131287004Y-80537007D01*
X131278946Y-80559529D01*
X131268718Y-80581153D01*
X131256421Y-80601670D01*
X131242171Y-80620883D01*
X131226107Y-80638607D01*
X131208383Y-80654671D01*
X131189170Y-80668921D01*
X131168653Y-80681218D01*
X131147029Y-80691446D01*
X131124507Y-80699504D01*
X131101303Y-80705316D01*
X131077642Y-80708826D01*
X131053750Y-80710000D01*
X130566250Y-80710000D01*
X130542358Y-80708826D01*
X130518697Y-80705316D01*
X130495493Y-80699504D01*
X130472971Y-80691446D01*
X130451347Y-80681218D01*
X130430830Y-80668921D01*
X130411617Y-80654671D01*
X130393893Y-80638607D01*
X130377829Y-80620883D01*
X130363579Y-80601670D01*
X130351282Y-80581153D01*
X130341054Y-80559529D01*
X130332996Y-80537007D01*
X130327184Y-80513803D01*
X130323674Y-80490142D01*
X130322500Y-80466250D01*
X130322500Y-79553750D01*
X130323674Y-79529858D01*
X130327184Y-79506197D01*
X130332996Y-79482993D01*
X130341054Y-79460471D01*
X130351282Y-79438847D01*
X130363579Y-79418330D01*
X130377829Y-79399117D01*
X130393893Y-79381393D01*
X130411617Y-79365329D01*
X130430830Y-79351079D01*
X130451347Y-79338782D01*
X130472971Y-79328554D01*
X130495493Y-79320496D01*
X130518697Y-79314684D01*
X130542358Y-79311174D01*
X130566250Y-79310000D01*
X131053750Y-79310000D01*
X131077642Y-79311174D01*
G37*
G36*
X132952642Y-79311174D02*
G01*
X132976303Y-79314684D01*
X132999507Y-79320496D01*
X133022029Y-79328554D01*
X133043653Y-79338782D01*
X133064170Y-79351079D01*
X133083383Y-79365329D01*
X133101107Y-79381393D01*
X133117171Y-79399117D01*
X133131421Y-79418330D01*
X133143718Y-79438847D01*
X133153946Y-79460471D01*
X133162004Y-79482993D01*
X133167816Y-79506197D01*
X133171326Y-79529858D01*
X133172500Y-79553750D01*
X133172500Y-80466250D01*
X133171326Y-80490142D01*
X133167816Y-80513803D01*
X133162004Y-80537007D01*
X133153946Y-80559529D01*
X133143718Y-80581153D01*
X133131421Y-80601670D01*
X133117171Y-80620883D01*
X133101107Y-80638607D01*
X133083383Y-80654671D01*
X133064170Y-80668921D01*
X133043653Y-80681218D01*
X133022029Y-80691446D01*
X132999507Y-80699504D01*
X132976303Y-80705316D01*
X132952642Y-80708826D01*
X132928750Y-80710000D01*
X132441250Y-80710000D01*
X132417358Y-80708826D01*
X132393697Y-80705316D01*
X132370493Y-80699504D01*
X132347971Y-80691446D01*
X132326347Y-80681218D01*
X132305830Y-80668921D01*
X132286617Y-80654671D01*
X132268893Y-80638607D01*
X132252829Y-80620883D01*
X132238579Y-80601670D01*
X132226282Y-80581153D01*
X132216054Y-80559529D01*
X132207996Y-80537007D01*
X132202184Y-80513803D01*
X132198674Y-80490142D01*
X132197500Y-80466250D01*
X132197500Y-79553750D01*
X132198674Y-79529858D01*
X132202184Y-79506197D01*
X132207996Y-79482993D01*
X132216054Y-79460471D01*
X132226282Y-79438847D01*
X132238579Y-79418330D01*
X132252829Y-79399117D01*
X132268893Y-79381393D01*
X132286617Y-79365329D01*
X132305830Y-79351079D01*
X132326347Y-79338782D01*
X132347971Y-79328554D01*
X132370493Y-79320496D01*
X132393697Y-79314684D01*
X132417358Y-79311174D01*
X132441250Y-79310000D01*
X132928750Y-79310000D01*
X132952642Y-79311174D01*
G37*
G36*
X131077642Y-81851174D02*
G01*
X131101303Y-81854684D01*
X131124507Y-81860496D01*
X131147029Y-81868554D01*
X131168653Y-81878782D01*
X131189170Y-81891079D01*
X131208383Y-81905329D01*
X131226107Y-81921393D01*
X131242171Y-81939117D01*
X131256421Y-81958330D01*
X131268718Y-81978847D01*
X131278946Y-82000471D01*
X131287004Y-82022993D01*
X131292816Y-82046197D01*
X131296326Y-82069858D01*
X131297500Y-82093750D01*
X131297500Y-83006250D01*
X131296326Y-83030142D01*
X131292816Y-83053803D01*
X131287004Y-83077007D01*
X131278946Y-83099529D01*
X131268718Y-83121153D01*
X131256421Y-83141670D01*
X131242171Y-83160883D01*
X131226107Y-83178607D01*
X131208383Y-83194671D01*
X131189170Y-83208921D01*
X131168653Y-83221218D01*
X131147029Y-83231446D01*
X131124507Y-83239504D01*
X131101303Y-83245316D01*
X131077642Y-83248826D01*
X131053750Y-83250000D01*
X130566250Y-83250000D01*
X130542358Y-83248826D01*
X130518697Y-83245316D01*
X130495493Y-83239504D01*
X130472971Y-83231446D01*
X130451347Y-83221218D01*
X130430830Y-83208921D01*
X130411617Y-83194671D01*
X130393893Y-83178607D01*
X130377829Y-83160883D01*
X130363579Y-83141670D01*
X130351282Y-83121153D01*
X130341054Y-83099529D01*
X130332996Y-83077007D01*
X130327184Y-83053803D01*
X130323674Y-83030142D01*
X130322500Y-83006250D01*
X130322500Y-82093750D01*
X130323674Y-82069858D01*
X130327184Y-82046197D01*
X130332996Y-82022993D01*
X130341054Y-82000471D01*
X130351282Y-81978847D01*
X130363579Y-81958330D01*
X130377829Y-81939117D01*
X130393893Y-81921393D01*
X130411617Y-81905329D01*
X130430830Y-81891079D01*
X130451347Y-81878782D01*
X130472971Y-81868554D01*
X130495493Y-81860496D01*
X130518697Y-81854684D01*
X130542358Y-81851174D01*
X130566250Y-81850000D01*
X131053750Y-81850000D01*
X131077642Y-81851174D01*
G37*
G36*
X132952642Y-81851174D02*
G01*
X132976303Y-81854684D01*
X132999507Y-81860496D01*
X133022029Y-81868554D01*
X133043653Y-81878782D01*
X133064170Y-81891079D01*
X133083383Y-81905329D01*
X133101107Y-81921393D01*
X133117171Y-81939117D01*
X133131421Y-81958330D01*
X133143718Y-81978847D01*
X133153946Y-82000471D01*
X133162004Y-82022993D01*
X133167816Y-82046197D01*
X133171326Y-82069858D01*
X133172500Y-82093750D01*
X133172500Y-83006250D01*
X133171326Y-83030142D01*
X133167816Y-83053803D01*
X133162004Y-83077007D01*
X133153946Y-83099529D01*
X133143718Y-83121153D01*
X133131421Y-83141670D01*
X133117171Y-83160883D01*
X133101107Y-83178607D01*
X133083383Y-83194671D01*
X133064170Y-83208921D01*
X133043653Y-83221218D01*
X133022029Y-83231446D01*
X132999507Y-83239504D01*
X132976303Y-83245316D01*
X132952642Y-83248826D01*
X132928750Y-83250000D01*
X132441250Y-83250000D01*
X132417358Y-83248826D01*
X132393697Y-83245316D01*
X132370493Y-83239504D01*
X132347971Y-83231446D01*
X132326347Y-83221218D01*
X132305830Y-83208921D01*
X132286617Y-83194671D01*
X132268893Y-83178607D01*
X132252829Y-83160883D01*
X132238579Y-83141670D01*
X132226282Y-83121153D01*
X132216054Y-83099529D01*
X132207996Y-83077007D01*
X132202184Y-83053803D01*
X132198674Y-83030142D01*
X132197500Y-83006250D01*
X132197500Y-82093750D01*
X132198674Y-82069858D01*
X132202184Y-82046197D01*
X132207996Y-82022993D01*
X132216054Y-82000471D01*
X132226282Y-81978847D01*
X132238579Y-81958330D01*
X132252829Y-81939117D01*
X132268893Y-81921393D01*
X132286617Y-81905329D01*
X132305830Y-81891079D01*
X132326347Y-81878782D01*
X132347971Y-81868554D01*
X132370493Y-81860496D01*
X132393697Y-81854684D01*
X132417358Y-81851174D01*
X132441250Y-81850000D01*
X132928750Y-81850000D01*
X132952642Y-81851174D01*
G37*
D12*
X130887000Y-92710000D03*
D13*
X128150000Y-93725000D03*
X128150000Y-91695000D03*
D14*
X130887000Y-93676000D03*
X130887000Y-91744000D03*
D11*
G36*
X140522544Y-87776108D02*
G01*
X140544871Y-87779419D01*
X140566765Y-87784904D01*
X140588017Y-87792508D01*
X140608421Y-87802158D01*
X140627781Y-87813762D01*
X140645910Y-87827208D01*
X140662635Y-87842365D01*
X140677792Y-87859090D01*
X140691238Y-87877219D01*
X140702842Y-87896579D01*
X140712492Y-87916983D01*
X140720096Y-87938235D01*
X140725581Y-87960129D01*
X140728892Y-87982456D01*
X140730000Y-88005000D01*
X140730000Y-88755000D01*
X140728892Y-88777544D01*
X140725581Y-88799871D01*
X140720096Y-88821765D01*
X140712492Y-88843017D01*
X140702842Y-88863421D01*
X140691238Y-88882781D01*
X140677792Y-88900910D01*
X140662635Y-88917635D01*
X140645910Y-88932792D01*
X140627781Y-88946238D01*
X140608421Y-88957842D01*
X140588017Y-88967492D01*
X140566765Y-88975096D01*
X140544871Y-88980581D01*
X140522544Y-88983892D01*
X140500000Y-88985000D01*
X140040000Y-88985000D01*
X140017456Y-88983892D01*
X139995129Y-88980581D01*
X139973235Y-88975096D01*
X139951983Y-88967492D01*
X139931579Y-88957842D01*
X139912219Y-88946238D01*
X139894090Y-88932792D01*
X139877365Y-88917635D01*
X139862208Y-88900910D01*
X139848762Y-88882781D01*
X139837158Y-88863421D01*
X139827508Y-88843017D01*
X139819904Y-88821765D01*
X139814419Y-88799871D01*
X139811108Y-88777544D01*
X139810000Y-88755000D01*
X139810000Y-88005000D01*
X139811108Y-87982456D01*
X139814419Y-87960129D01*
X139819904Y-87938235D01*
X139827508Y-87916983D01*
X139837158Y-87896579D01*
X139848762Y-87877219D01*
X139862208Y-87859090D01*
X139877365Y-87842365D01*
X139894090Y-87827208D01*
X139912219Y-87813762D01*
X139931579Y-87802158D01*
X139951983Y-87792508D01*
X139973235Y-87784904D01*
X139995129Y-87779419D01*
X140017456Y-87776108D01*
X140040000Y-87775000D01*
X140500000Y-87775000D01*
X140522544Y-87776108D01*
G37*
G36*
X140522544Y-86276108D02*
G01*
X140544871Y-86279419D01*
X140566765Y-86284904D01*
X140588017Y-86292508D01*
X140608421Y-86302158D01*
X140627781Y-86313762D01*
X140645910Y-86327208D01*
X140662635Y-86342365D01*
X140677792Y-86359090D01*
X140691238Y-86377219D01*
X140702842Y-86396579D01*
X140712492Y-86416983D01*
X140720096Y-86438235D01*
X140725581Y-86460129D01*
X140728892Y-86482456D01*
X140730000Y-86505000D01*
X140730000Y-87255000D01*
X140728892Y-87277544D01*
X140725581Y-87299871D01*
X140720096Y-87321765D01*
X140712492Y-87343017D01*
X140702842Y-87363421D01*
X140691238Y-87382781D01*
X140677792Y-87400910D01*
X140662635Y-87417635D01*
X140645910Y-87432792D01*
X140627781Y-87446238D01*
X140608421Y-87457842D01*
X140588017Y-87467492D01*
X140566765Y-87475096D01*
X140544871Y-87480581D01*
X140522544Y-87483892D01*
X140500000Y-87485000D01*
X140040000Y-87485000D01*
X140017456Y-87483892D01*
X139995129Y-87480581D01*
X139973235Y-87475096D01*
X139951983Y-87467492D01*
X139931579Y-87457842D01*
X139912219Y-87446238D01*
X139894090Y-87432792D01*
X139877365Y-87417635D01*
X139862208Y-87400910D01*
X139848762Y-87382781D01*
X139837158Y-87363421D01*
X139827508Y-87343017D01*
X139819904Y-87321765D01*
X139814419Y-87299871D01*
X139811108Y-87277544D01*
X139810000Y-87255000D01*
X139810000Y-86505000D01*
X139811108Y-86482456D01*
X139814419Y-86460129D01*
X139819904Y-86438235D01*
X139827508Y-86416983D01*
X139837158Y-86396579D01*
X139848762Y-86377219D01*
X139862208Y-86359090D01*
X139877365Y-86342365D01*
X139894090Y-86327208D01*
X139912219Y-86313762D01*
X139931579Y-86302158D01*
X139951983Y-86292508D01*
X139973235Y-86284904D01*
X139995129Y-86279419D01*
X140017456Y-86276108D01*
X140040000Y-86275000D01*
X140500000Y-86275000D01*
X140522544Y-86276108D01*
G37*
G36*
X139382544Y-87776108D02*
G01*
X139404871Y-87779419D01*
X139426765Y-87784904D01*
X139448017Y-87792508D01*
X139468421Y-87802158D01*
X139487781Y-87813762D01*
X139505910Y-87827208D01*
X139522635Y-87842365D01*
X139537792Y-87859090D01*
X139551238Y-87877219D01*
X139562842Y-87896579D01*
X139572492Y-87916983D01*
X139580096Y-87938235D01*
X139585581Y-87960129D01*
X139588892Y-87982456D01*
X139590000Y-88005000D01*
X139590000Y-88755000D01*
X139588892Y-88777544D01*
X139585581Y-88799871D01*
X139580096Y-88821765D01*
X139572492Y-88843017D01*
X139562842Y-88863421D01*
X139551238Y-88882781D01*
X139537792Y-88900910D01*
X139522635Y-88917635D01*
X139505910Y-88932792D01*
X139487781Y-88946238D01*
X139468421Y-88957842D01*
X139448017Y-88967492D01*
X139426765Y-88975096D01*
X139404871Y-88980581D01*
X139382544Y-88983892D01*
X139360000Y-88985000D01*
X138900000Y-88985000D01*
X138877456Y-88983892D01*
X138855129Y-88980581D01*
X138833235Y-88975096D01*
X138811983Y-88967492D01*
X138791579Y-88957842D01*
X138772219Y-88946238D01*
X138754090Y-88932792D01*
X138737365Y-88917635D01*
X138722208Y-88900910D01*
X138708762Y-88882781D01*
X138697158Y-88863421D01*
X138687508Y-88843017D01*
X138679904Y-88821765D01*
X138674419Y-88799871D01*
X138671108Y-88777544D01*
X138670000Y-88755000D01*
X138670000Y-88005000D01*
X138671108Y-87982456D01*
X138674419Y-87960129D01*
X138679904Y-87938235D01*
X138687508Y-87916983D01*
X138697158Y-87896579D01*
X138708762Y-87877219D01*
X138722208Y-87859090D01*
X138737365Y-87842365D01*
X138754090Y-87827208D01*
X138772219Y-87813762D01*
X138791579Y-87802158D01*
X138811983Y-87792508D01*
X138833235Y-87784904D01*
X138855129Y-87779419D01*
X138877456Y-87776108D01*
X138900000Y-87775000D01*
X139360000Y-87775000D01*
X139382544Y-87776108D01*
G37*
G36*
X139382544Y-86276108D02*
G01*
X139404871Y-86279419D01*
X139426765Y-86284904D01*
X139448017Y-86292508D01*
X139468421Y-86302158D01*
X139487781Y-86313762D01*
X139505910Y-86327208D01*
X139522635Y-86342365D01*
X139537792Y-86359090D01*
X139551238Y-86377219D01*
X139562842Y-86396579D01*
X139572492Y-86416983D01*
X139580096Y-86438235D01*
X139585581Y-86460129D01*
X139588892Y-86482456D01*
X139590000Y-86505000D01*
X139590000Y-87255000D01*
X139588892Y-87277544D01*
X139585581Y-87299871D01*
X139580096Y-87321765D01*
X139572492Y-87343017D01*
X139562842Y-87363421D01*
X139551238Y-87382781D01*
X139537792Y-87400910D01*
X139522635Y-87417635D01*
X139505910Y-87432792D01*
X139487781Y-87446238D01*
X139468421Y-87457842D01*
X139448017Y-87467492D01*
X139426765Y-87475096D01*
X139404871Y-87480581D01*
X139382544Y-87483892D01*
X139360000Y-87485000D01*
X138900000Y-87485000D01*
X138877456Y-87483892D01*
X138855129Y-87480581D01*
X138833235Y-87475096D01*
X138811983Y-87467492D01*
X138791579Y-87457842D01*
X138772219Y-87446238D01*
X138754090Y-87432792D01*
X138737365Y-87417635D01*
X138722208Y-87400910D01*
X138708762Y-87382781D01*
X138697158Y-87363421D01*
X138687508Y-87343017D01*
X138679904Y-87321765D01*
X138674419Y-87299871D01*
X138671108Y-87277544D01*
X138670000Y-87255000D01*
X138670000Y-86505000D01*
X138671108Y-86482456D01*
X138674419Y-86460129D01*
X138679904Y-86438235D01*
X138687508Y-86416983D01*
X138697158Y-86396579D01*
X138708762Y-86377219D01*
X138722208Y-86359090D01*
X138737365Y-86342365D01*
X138754090Y-86327208D01*
X138772219Y-86313762D01*
X138791579Y-86302158D01*
X138811983Y-86292508D01*
X138833235Y-86284904D01*
X138855129Y-86279419D01*
X138877456Y-86276108D01*
X138900000Y-86275000D01*
X139360000Y-86275000D01*
X139382544Y-86276108D01*
G37*
G36*
X143014703Y-85425722D02*
G01*
X143029264Y-85427882D01*
X143043543Y-85431459D01*
X143057403Y-85436418D01*
X143070710Y-85442712D01*
X143083336Y-85450280D01*
X143095159Y-85459048D01*
X143106066Y-85468934D01*
X143115952Y-85479841D01*
X143124720Y-85491664D01*
X143132288Y-85504290D01*
X143138582Y-85517597D01*
X143143541Y-85531457D01*
X143147118Y-85545736D01*
X143149278Y-85560297D01*
X143150000Y-85575000D01*
X143150000Y-85875000D01*
X143149278Y-85889703D01*
X143147118Y-85904264D01*
X143143541Y-85918543D01*
X143138582Y-85932403D01*
X143132288Y-85945710D01*
X143124720Y-85958336D01*
X143115952Y-85970159D01*
X143106066Y-85981066D01*
X143095159Y-85990952D01*
X143083336Y-85999720D01*
X143070710Y-86007288D01*
X143057403Y-86013582D01*
X143043543Y-86018541D01*
X143029264Y-86022118D01*
X143014703Y-86024278D01*
X143000000Y-86025000D01*
X141350000Y-86025000D01*
X141335297Y-86024278D01*
X141320736Y-86022118D01*
X141306457Y-86018541D01*
X141292597Y-86013582D01*
X141279290Y-86007288D01*
X141266664Y-85999720D01*
X141254841Y-85990952D01*
X141243934Y-85981066D01*
X141234048Y-85970159D01*
X141225280Y-85958336D01*
X141217712Y-85945710D01*
X141211418Y-85932403D01*
X141206459Y-85918543D01*
X141202882Y-85904264D01*
X141200722Y-85889703D01*
X141200000Y-85875000D01*
X141200000Y-85575000D01*
X141200722Y-85560297D01*
X141202882Y-85545736D01*
X141206459Y-85531457D01*
X141211418Y-85517597D01*
X141217712Y-85504290D01*
X141225280Y-85491664D01*
X141234048Y-85479841D01*
X141243934Y-85468934D01*
X141254841Y-85459048D01*
X141266664Y-85450280D01*
X141279290Y-85442712D01*
X141292597Y-85436418D01*
X141306457Y-85431459D01*
X141320736Y-85427882D01*
X141335297Y-85425722D01*
X141350000Y-85425000D01*
X143000000Y-85425000D01*
X143014703Y-85425722D01*
G37*
G36*
X143014703Y-86695722D02*
G01*
X143029264Y-86697882D01*
X143043543Y-86701459D01*
X143057403Y-86706418D01*
X143070710Y-86712712D01*
X143083336Y-86720280D01*
X143095159Y-86729048D01*
X143106066Y-86738934D01*
X143115952Y-86749841D01*
X143124720Y-86761664D01*
X143132288Y-86774290D01*
X143138582Y-86787597D01*
X143143541Y-86801457D01*
X143147118Y-86815736D01*
X143149278Y-86830297D01*
X143150000Y-86845000D01*
X143150000Y-87145000D01*
X143149278Y-87159703D01*
X143147118Y-87174264D01*
X143143541Y-87188543D01*
X143138582Y-87202403D01*
X143132288Y-87215710D01*
X143124720Y-87228336D01*
X143115952Y-87240159D01*
X143106066Y-87251066D01*
X143095159Y-87260952D01*
X143083336Y-87269720D01*
X143070710Y-87277288D01*
X143057403Y-87283582D01*
X143043543Y-87288541D01*
X143029264Y-87292118D01*
X143014703Y-87294278D01*
X143000000Y-87295000D01*
X141350000Y-87295000D01*
X141335297Y-87294278D01*
X141320736Y-87292118D01*
X141306457Y-87288541D01*
X141292597Y-87283582D01*
X141279290Y-87277288D01*
X141266664Y-87269720D01*
X141254841Y-87260952D01*
X141243934Y-87251066D01*
X141234048Y-87240159D01*
X141225280Y-87228336D01*
X141217712Y-87215710D01*
X141211418Y-87202403D01*
X141206459Y-87188543D01*
X141202882Y-87174264D01*
X141200722Y-87159703D01*
X141200000Y-87145000D01*
X141200000Y-86845000D01*
X141200722Y-86830297D01*
X141202882Y-86815736D01*
X141206459Y-86801457D01*
X141211418Y-86787597D01*
X141217712Y-86774290D01*
X141225280Y-86761664D01*
X141234048Y-86749841D01*
X141243934Y-86738934D01*
X141254841Y-86729048D01*
X141266664Y-86720280D01*
X141279290Y-86712712D01*
X141292597Y-86706418D01*
X141306457Y-86701459D01*
X141320736Y-86697882D01*
X141335297Y-86695722D01*
X141350000Y-86695000D01*
X143000000Y-86695000D01*
X143014703Y-86695722D01*
G37*
G36*
X143014703Y-87965722D02*
G01*
X143029264Y-87967882D01*
X143043543Y-87971459D01*
X143057403Y-87976418D01*
X143070710Y-87982712D01*
X143083336Y-87990280D01*
X143095159Y-87999048D01*
X143106066Y-88008934D01*
X143115952Y-88019841D01*
X143124720Y-88031664D01*
X143132288Y-88044290D01*
X143138582Y-88057597D01*
X143143541Y-88071457D01*
X143147118Y-88085736D01*
X143149278Y-88100297D01*
X143150000Y-88115000D01*
X143150000Y-88415000D01*
X143149278Y-88429703D01*
X143147118Y-88444264D01*
X143143541Y-88458543D01*
X143138582Y-88472403D01*
X143132288Y-88485710D01*
X143124720Y-88498336D01*
X143115952Y-88510159D01*
X143106066Y-88521066D01*
X143095159Y-88530952D01*
X143083336Y-88539720D01*
X143070710Y-88547288D01*
X143057403Y-88553582D01*
X143043543Y-88558541D01*
X143029264Y-88562118D01*
X143014703Y-88564278D01*
X143000000Y-88565000D01*
X141350000Y-88565000D01*
X141335297Y-88564278D01*
X141320736Y-88562118D01*
X141306457Y-88558541D01*
X141292597Y-88553582D01*
X141279290Y-88547288D01*
X141266664Y-88539720D01*
X141254841Y-88530952D01*
X141243934Y-88521066D01*
X141234048Y-88510159D01*
X141225280Y-88498336D01*
X141217712Y-88485710D01*
X141211418Y-88472403D01*
X141206459Y-88458543D01*
X141202882Y-88444264D01*
X141200722Y-88429703D01*
X141200000Y-88415000D01*
X141200000Y-88115000D01*
X141200722Y-88100297D01*
X141202882Y-88085736D01*
X141206459Y-88071457D01*
X141211418Y-88057597D01*
X141217712Y-88044290D01*
X141225280Y-88031664D01*
X141234048Y-88019841D01*
X141243934Y-88008934D01*
X141254841Y-87999048D01*
X141266664Y-87990280D01*
X141279290Y-87982712D01*
X141292597Y-87976418D01*
X141306457Y-87971459D01*
X141320736Y-87967882D01*
X141335297Y-87965722D01*
X141350000Y-87965000D01*
X143000000Y-87965000D01*
X143014703Y-87965722D01*
G37*
G36*
X143014703Y-89235722D02*
G01*
X143029264Y-89237882D01*
X143043543Y-89241459D01*
X143057403Y-89246418D01*
X143070710Y-89252712D01*
X143083336Y-89260280D01*
X143095159Y-89269048D01*
X143106066Y-89278934D01*
X143115952Y-89289841D01*
X143124720Y-89301664D01*
X143132288Y-89314290D01*
X143138582Y-89327597D01*
X143143541Y-89341457D01*
X143147118Y-89355736D01*
X143149278Y-89370297D01*
X143150000Y-89385000D01*
X143150000Y-89685000D01*
X143149278Y-89699703D01*
X143147118Y-89714264D01*
X143143541Y-89728543D01*
X143138582Y-89742403D01*
X143132288Y-89755710D01*
X143124720Y-89768336D01*
X143115952Y-89780159D01*
X143106066Y-89791066D01*
X143095159Y-89800952D01*
X143083336Y-89809720D01*
X143070710Y-89817288D01*
X143057403Y-89823582D01*
X143043543Y-89828541D01*
X143029264Y-89832118D01*
X143014703Y-89834278D01*
X143000000Y-89835000D01*
X141350000Y-89835000D01*
X141335297Y-89834278D01*
X141320736Y-89832118D01*
X141306457Y-89828541D01*
X141292597Y-89823582D01*
X141279290Y-89817288D01*
X141266664Y-89809720D01*
X141254841Y-89800952D01*
X141243934Y-89791066D01*
X141234048Y-89780159D01*
X141225280Y-89768336D01*
X141217712Y-89755710D01*
X141211418Y-89742403D01*
X141206459Y-89728543D01*
X141202882Y-89714264D01*
X141200722Y-89699703D01*
X141200000Y-89685000D01*
X141200000Y-89385000D01*
X141200722Y-89370297D01*
X141202882Y-89355736D01*
X141206459Y-89341457D01*
X141211418Y-89327597D01*
X141217712Y-89314290D01*
X141225280Y-89301664D01*
X141234048Y-89289841D01*
X141243934Y-89278934D01*
X141254841Y-89269048D01*
X141266664Y-89260280D01*
X141279290Y-89252712D01*
X141292597Y-89246418D01*
X141306457Y-89241459D01*
X141320736Y-89237882D01*
X141335297Y-89235722D01*
X141350000Y-89235000D01*
X143000000Y-89235000D01*
X143014703Y-89235722D01*
G37*
G36*
X138064703Y-89235722D02*
G01*
X138079264Y-89237882D01*
X138093543Y-89241459D01*
X138107403Y-89246418D01*
X138120710Y-89252712D01*
X138133336Y-89260280D01*
X138145159Y-89269048D01*
X138156066Y-89278934D01*
X138165952Y-89289841D01*
X138174720Y-89301664D01*
X138182288Y-89314290D01*
X138188582Y-89327597D01*
X138193541Y-89341457D01*
X138197118Y-89355736D01*
X138199278Y-89370297D01*
X138200000Y-89385000D01*
X138200000Y-89685000D01*
X138199278Y-89699703D01*
X138197118Y-89714264D01*
X138193541Y-89728543D01*
X138188582Y-89742403D01*
X138182288Y-89755710D01*
X138174720Y-89768336D01*
X138165952Y-89780159D01*
X138156066Y-89791066D01*
X138145159Y-89800952D01*
X138133336Y-89809720D01*
X138120710Y-89817288D01*
X138107403Y-89823582D01*
X138093543Y-89828541D01*
X138079264Y-89832118D01*
X138064703Y-89834278D01*
X138050000Y-89835000D01*
X136400000Y-89835000D01*
X136385297Y-89834278D01*
X136370736Y-89832118D01*
X136356457Y-89828541D01*
X136342597Y-89823582D01*
X136329290Y-89817288D01*
X136316664Y-89809720D01*
X136304841Y-89800952D01*
X136293934Y-89791066D01*
X136284048Y-89780159D01*
X136275280Y-89768336D01*
X136267712Y-89755710D01*
X136261418Y-89742403D01*
X136256459Y-89728543D01*
X136252882Y-89714264D01*
X136250722Y-89699703D01*
X136250000Y-89685000D01*
X136250000Y-89385000D01*
X136250722Y-89370297D01*
X136252882Y-89355736D01*
X136256459Y-89341457D01*
X136261418Y-89327597D01*
X136267712Y-89314290D01*
X136275280Y-89301664D01*
X136284048Y-89289841D01*
X136293934Y-89278934D01*
X136304841Y-89269048D01*
X136316664Y-89260280D01*
X136329290Y-89252712D01*
X136342597Y-89246418D01*
X136356457Y-89241459D01*
X136370736Y-89237882D01*
X136385297Y-89235722D01*
X136400000Y-89235000D01*
X138050000Y-89235000D01*
X138064703Y-89235722D01*
G37*
G36*
X138064703Y-87965722D02*
G01*
X138079264Y-87967882D01*
X138093543Y-87971459D01*
X138107403Y-87976418D01*
X138120710Y-87982712D01*
X138133336Y-87990280D01*
X138145159Y-87999048D01*
X138156066Y-88008934D01*
X138165952Y-88019841D01*
X138174720Y-88031664D01*
X138182288Y-88044290D01*
X138188582Y-88057597D01*
X138193541Y-88071457D01*
X138197118Y-88085736D01*
X138199278Y-88100297D01*
X138200000Y-88115000D01*
X138200000Y-88415000D01*
X138199278Y-88429703D01*
X138197118Y-88444264D01*
X138193541Y-88458543D01*
X138188582Y-88472403D01*
X138182288Y-88485710D01*
X138174720Y-88498336D01*
X138165952Y-88510159D01*
X138156066Y-88521066D01*
X138145159Y-88530952D01*
X138133336Y-88539720D01*
X138120710Y-88547288D01*
X138107403Y-88553582D01*
X138093543Y-88558541D01*
X138079264Y-88562118D01*
X138064703Y-88564278D01*
X138050000Y-88565000D01*
X136400000Y-88565000D01*
X136385297Y-88564278D01*
X136370736Y-88562118D01*
X136356457Y-88558541D01*
X136342597Y-88553582D01*
X136329290Y-88547288D01*
X136316664Y-88539720D01*
X136304841Y-88530952D01*
X136293934Y-88521066D01*
X136284048Y-88510159D01*
X136275280Y-88498336D01*
X136267712Y-88485710D01*
X136261418Y-88472403D01*
X136256459Y-88458543D01*
X136252882Y-88444264D01*
X136250722Y-88429703D01*
X136250000Y-88415000D01*
X136250000Y-88115000D01*
X136250722Y-88100297D01*
X136252882Y-88085736D01*
X136256459Y-88071457D01*
X136261418Y-88057597D01*
X136267712Y-88044290D01*
X136275280Y-88031664D01*
X136284048Y-88019841D01*
X136293934Y-88008934D01*
X136304841Y-87999048D01*
X136316664Y-87990280D01*
X136329290Y-87982712D01*
X136342597Y-87976418D01*
X136356457Y-87971459D01*
X136370736Y-87967882D01*
X136385297Y-87965722D01*
X136400000Y-87965000D01*
X138050000Y-87965000D01*
X138064703Y-87965722D01*
G37*
G36*
X138064703Y-86695722D02*
G01*
X138079264Y-86697882D01*
X138093543Y-86701459D01*
X138107403Y-86706418D01*
X138120710Y-86712712D01*
X138133336Y-86720280D01*
X138145159Y-86729048D01*
X138156066Y-86738934D01*
X138165952Y-86749841D01*
X138174720Y-86761664D01*
X138182288Y-86774290D01*
X138188582Y-86787597D01*
X138193541Y-86801457D01*
X138197118Y-86815736D01*
X138199278Y-86830297D01*
X138200000Y-86845000D01*
X138200000Y-87145000D01*
X138199278Y-87159703D01*
X138197118Y-87174264D01*
X138193541Y-87188543D01*
X138188582Y-87202403D01*
X138182288Y-87215710D01*
X138174720Y-87228336D01*
X138165952Y-87240159D01*
X138156066Y-87251066D01*
X138145159Y-87260952D01*
X138133336Y-87269720D01*
X138120710Y-87277288D01*
X138107403Y-87283582D01*
X138093543Y-87288541D01*
X138079264Y-87292118D01*
X138064703Y-87294278D01*
X138050000Y-87295000D01*
X136400000Y-87295000D01*
X136385297Y-87294278D01*
X136370736Y-87292118D01*
X136356457Y-87288541D01*
X136342597Y-87283582D01*
X136329290Y-87277288D01*
X136316664Y-87269720D01*
X136304841Y-87260952D01*
X136293934Y-87251066D01*
X136284048Y-87240159D01*
X136275280Y-87228336D01*
X136267712Y-87215710D01*
X136261418Y-87202403D01*
X136256459Y-87188543D01*
X136252882Y-87174264D01*
X136250722Y-87159703D01*
X136250000Y-87145000D01*
X136250000Y-86845000D01*
X136250722Y-86830297D01*
X136252882Y-86815736D01*
X136256459Y-86801457D01*
X136261418Y-86787597D01*
X136267712Y-86774290D01*
X136275280Y-86761664D01*
X136284048Y-86749841D01*
X136293934Y-86738934D01*
X136304841Y-86729048D01*
X136316664Y-86720280D01*
X136329290Y-86712712D01*
X136342597Y-86706418D01*
X136356457Y-86701459D01*
X136370736Y-86697882D01*
X136385297Y-86695722D01*
X136400000Y-86695000D01*
X138050000Y-86695000D01*
X138064703Y-86695722D01*
G37*
G36*
X138064703Y-85425722D02*
G01*
X138079264Y-85427882D01*
X138093543Y-85431459D01*
X138107403Y-85436418D01*
X138120710Y-85442712D01*
X138133336Y-85450280D01*
X138145159Y-85459048D01*
X138156066Y-85468934D01*
X138165952Y-85479841D01*
X138174720Y-85491664D01*
X138182288Y-85504290D01*
X138188582Y-85517597D01*
X138193541Y-85531457D01*
X138197118Y-85545736D01*
X138199278Y-85560297D01*
X138200000Y-85575000D01*
X138200000Y-85875000D01*
X138199278Y-85889703D01*
X138197118Y-85904264D01*
X138193541Y-85918543D01*
X138188582Y-85932403D01*
X138182288Y-85945710D01*
X138174720Y-85958336D01*
X138165952Y-85970159D01*
X138156066Y-85981066D01*
X138145159Y-85990952D01*
X138133336Y-85999720D01*
X138120710Y-86007288D01*
X138107403Y-86013582D01*
X138093543Y-86018541D01*
X138079264Y-86022118D01*
X138064703Y-86024278D01*
X138050000Y-86025000D01*
X136400000Y-86025000D01*
X136385297Y-86024278D01*
X136370736Y-86022118D01*
X136356457Y-86018541D01*
X136342597Y-86013582D01*
X136329290Y-86007288D01*
X136316664Y-85999720D01*
X136304841Y-85990952D01*
X136293934Y-85981066D01*
X136284048Y-85970159D01*
X136275280Y-85958336D01*
X136267712Y-85945710D01*
X136261418Y-85932403D01*
X136256459Y-85918543D01*
X136252882Y-85904264D01*
X136250722Y-85889703D01*
X136250000Y-85875000D01*
X136250000Y-85575000D01*
X136250722Y-85560297D01*
X136252882Y-85545736D01*
X136256459Y-85531457D01*
X136261418Y-85517597D01*
X136267712Y-85504290D01*
X136275280Y-85491664D01*
X136284048Y-85479841D01*
X136293934Y-85468934D01*
X136304841Y-85459048D01*
X136316664Y-85450280D01*
X136329290Y-85442712D01*
X136342597Y-85436418D01*
X136356457Y-85431459D01*
X136370736Y-85427882D01*
X136385297Y-85425722D01*
X136400000Y-85425000D01*
X138050000Y-85425000D01*
X138064703Y-85425722D01*
G37*
G36*
X147920142Y-88201174D02*
G01*
X147943803Y-88204684D01*
X147967007Y-88210496D01*
X147989529Y-88218554D01*
X148011153Y-88228782D01*
X148031670Y-88241079D01*
X148050883Y-88255329D01*
X148068607Y-88271393D01*
X148084671Y-88289117D01*
X148098921Y-88308330D01*
X148111218Y-88328847D01*
X148121446Y-88350471D01*
X148129504Y-88372993D01*
X148135316Y-88396197D01*
X148138826Y-88419858D01*
X148140000Y-88443750D01*
X148140000Y-89356250D01*
X148138826Y-89380142D01*
X148135316Y-89403803D01*
X148129504Y-89427007D01*
X148121446Y-89449529D01*
X148111218Y-89471153D01*
X148098921Y-89491670D01*
X148084671Y-89510883D01*
X148068607Y-89528607D01*
X148050883Y-89544671D01*
X148031670Y-89558921D01*
X148011153Y-89571218D01*
X147989529Y-89581446D01*
X147967007Y-89589504D01*
X147943803Y-89595316D01*
X147920142Y-89598826D01*
X147896250Y-89600000D01*
X147408750Y-89600000D01*
X147384858Y-89598826D01*
X147361197Y-89595316D01*
X147337993Y-89589504D01*
X147315471Y-89581446D01*
X147293847Y-89571218D01*
X147273330Y-89558921D01*
X147254117Y-89544671D01*
X147236393Y-89528607D01*
X147220329Y-89510883D01*
X147206079Y-89491670D01*
X147193782Y-89471153D01*
X147183554Y-89449529D01*
X147175496Y-89427007D01*
X147169684Y-89403803D01*
X147166174Y-89380142D01*
X147165000Y-89356250D01*
X147165000Y-88443750D01*
X147166174Y-88419858D01*
X147169684Y-88396197D01*
X147175496Y-88372993D01*
X147183554Y-88350471D01*
X147193782Y-88328847D01*
X147206079Y-88308330D01*
X147220329Y-88289117D01*
X147236393Y-88271393D01*
X147254117Y-88255329D01*
X147273330Y-88241079D01*
X147293847Y-88228782D01*
X147315471Y-88218554D01*
X147337993Y-88210496D01*
X147361197Y-88204684D01*
X147384858Y-88201174D01*
X147408750Y-88200000D01*
X147896250Y-88200000D01*
X147920142Y-88201174D01*
G37*
G36*
X149795142Y-88201174D02*
G01*
X149818803Y-88204684D01*
X149842007Y-88210496D01*
X149864529Y-88218554D01*
X149886153Y-88228782D01*
X149906670Y-88241079D01*
X149925883Y-88255329D01*
X149943607Y-88271393D01*
X149959671Y-88289117D01*
X149973921Y-88308330D01*
X149986218Y-88328847D01*
X149996446Y-88350471D01*
X150004504Y-88372993D01*
X150010316Y-88396197D01*
X150013826Y-88419858D01*
X150015000Y-88443750D01*
X150015000Y-89356250D01*
X150013826Y-89380142D01*
X150010316Y-89403803D01*
X150004504Y-89427007D01*
X149996446Y-89449529D01*
X149986218Y-89471153D01*
X149973921Y-89491670D01*
X149959671Y-89510883D01*
X149943607Y-89528607D01*
X149925883Y-89544671D01*
X149906670Y-89558921D01*
X149886153Y-89571218D01*
X149864529Y-89581446D01*
X149842007Y-89589504D01*
X149818803Y-89595316D01*
X149795142Y-89598826D01*
X149771250Y-89600000D01*
X149283750Y-89600000D01*
X149259858Y-89598826D01*
X149236197Y-89595316D01*
X149212993Y-89589504D01*
X149190471Y-89581446D01*
X149168847Y-89571218D01*
X149148330Y-89558921D01*
X149129117Y-89544671D01*
X149111393Y-89528607D01*
X149095329Y-89510883D01*
X149081079Y-89491670D01*
X149068782Y-89471153D01*
X149058554Y-89449529D01*
X149050496Y-89427007D01*
X149044684Y-89403803D01*
X149041174Y-89380142D01*
X149040000Y-89356250D01*
X149040000Y-88443750D01*
X149041174Y-88419858D01*
X149044684Y-88396197D01*
X149050496Y-88372993D01*
X149058554Y-88350471D01*
X149068782Y-88328847D01*
X149081079Y-88308330D01*
X149095329Y-88289117D01*
X149111393Y-88271393D01*
X149129117Y-88255329D01*
X149148330Y-88241079D01*
X149168847Y-88228782D01*
X149190471Y-88218554D01*
X149212993Y-88210496D01*
X149236197Y-88204684D01*
X149259858Y-88201174D01*
X149283750Y-88200000D01*
X149771250Y-88200000D01*
X149795142Y-88201174D01*
G37*
G36*
X139362642Y-80581174D02*
G01*
X139386303Y-80584684D01*
X139409507Y-80590496D01*
X139432029Y-80598554D01*
X139453653Y-80608782D01*
X139474170Y-80621079D01*
X139493383Y-80635329D01*
X139511107Y-80651393D01*
X139527171Y-80669117D01*
X139541421Y-80688330D01*
X139553718Y-80708847D01*
X139563946Y-80730471D01*
X139572004Y-80752993D01*
X139577816Y-80776197D01*
X139581326Y-80799858D01*
X139582500Y-80823750D01*
X139582500Y-81736250D01*
X139581326Y-81760142D01*
X139577816Y-81783803D01*
X139572004Y-81807007D01*
X139563946Y-81829529D01*
X139553718Y-81851153D01*
X139541421Y-81871670D01*
X139527171Y-81890883D01*
X139511107Y-81908607D01*
X139493383Y-81924671D01*
X139474170Y-81938921D01*
X139453653Y-81951218D01*
X139432029Y-81961446D01*
X139409507Y-81969504D01*
X139386303Y-81975316D01*
X139362642Y-81978826D01*
X139338750Y-81980000D01*
X138851250Y-81980000D01*
X138827358Y-81978826D01*
X138803697Y-81975316D01*
X138780493Y-81969504D01*
X138757971Y-81961446D01*
X138736347Y-81951218D01*
X138715830Y-81938921D01*
X138696617Y-81924671D01*
X138678893Y-81908607D01*
X138662829Y-81890883D01*
X138648579Y-81871670D01*
X138636282Y-81851153D01*
X138626054Y-81829529D01*
X138617996Y-81807007D01*
X138612184Y-81783803D01*
X138608674Y-81760142D01*
X138607500Y-81736250D01*
X138607500Y-80823750D01*
X138608674Y-80799858D01*
X138612184Y-80776197D01*
X138617996Y-80752993D01*
X138626054Y-80730471D01*
X138636282Y-80708847D01*
X138648579Y-80688330D01*
X138662829Y-80669117D01*
X138678893Y-80651393D01*
X138696617Y-80635329D01*
X138715830Y-80621079D01*
X138736347Y-80608782D01*
X138757971Y-80598554D01*
X138780493Y-80590496D01*
X138803697Y-80584684D01*
X138827358Y-80581174D01*
X138851250Y-80580000D01*
X139338750Y-80580000D01*
X139362642Y-80581174D01*
G37*
G36*
X141237642Y-80581174D02*
G01*
X141261303Y-80584684D01*
X141284507Y-80590496D01*
X141307029Y-80598554D01*
X141328653Y-80608782D01*
X141349170Y-80621079D01*
X141368383Y-80635329D01*
X141386107Y-80651393D01*
X141402171Y-80669117D01*
X141416421Y-80688330D01*
X141428718Y-80708847D01*
X141438946Y-80730471D01*
X141447004Y-80752993D01*
X141452816Y-80776197D01*
X141456326Y-80799858D01*
X141457500Y-80823750D01*
X141457500Y-81736250D01*
X141456326Y-81760142D01*
X141452816Y-81783803D01*
X141447004Y-81807007D01*
X141438946Y-81829529D01*
X141428718Y-81851153D01*
X141416421Y-81871670D01*
X141402171Y-81890883D01*
X141386107Y-81908607D01*
X141368383Y-81924671D01*
X141349170Y-81938921D01*
X141328653Y-81951218D01*
X141307029Y-81961446D01*
X141284507Y-81969504D01*
X141261303Y-81975316D01*
X141237642Y-81978826D01*
X141213750Y-81980000D01*
X140726250Y-81980000D01*
X140702358Y-81978826D01*
X140678697Y-81975316D01*
X140655493Y-81969504D01*
X140632971Y-81961446D01*
X140611347Y-81951218D01*
X140590830Y-81938921D01*
X140571617Y-81924671D01*
X140553893Y-81908607D01*
X140537829Y-81890883D01*
X140523579Y-81871670D01*
X140511282Y-81851153D01*
X140501054Y-81829529D01*
X140492996Y-81807007D01*
X140487184Y-81783803D01*
X140483674Y-81760142D01*
X140482500Y-81736250D01*
X140482500Y-80823750D01*
X140483674Y-80799858D01*
X140487184Y-80776197D01*
X140492996Y-80752993D01*
X140501054Y-80730471D01*
X140511282Y-80708847D01*
X140523579Y-80688330D01*
X140537829Y-80669117D01*
X140553893Y-80651393D01*
X140571617Y-80635329D01*
X140590830Y-80621079D01*
X140611347Y-80608782D01*
X140632971Y-80598554D01*
X140655493Y-80590496D01*
X140678697Y-80584684D01*
X140702358Y-80581174D01*
X140726250Y-80580000D01*
X141213750Y-80580000D01*
X141237642Y-80581174D01*
G37*
G36*
X147587642Y-83121174D02*
G01*
X147611303Y-83124684D01*
X147634507Y-83130496D01*
X147657029Y-83138554D01*
X147678653Y-83148782D01*
X147699170Y-83161079D01*
X147718383Y-83175329D01*
X147736107Y-83191393D01*
X147752171Y-83209117D01*
X147766421Y-83228330D01*
X147778718Y-83248847D01*
X147788946Y-83270471D01*
X147797004Y-83292993D01*
X147802816Y-83316197D01*
X147806326Y-83339858D01*
X147807500Y-83363750D01*
X147807500Y-84276250D01*
X147806326Y-84300142D01*
X147802816Y-84323803D01*
X147797004Y-84347007D01*
X147788946Y-84369529D01*
X147778718Y-84391153D01*
X147766421Y-84411670D01*
X147752171Y-84430883D01*
X147736107Y-84448607D01*
X147718383Y-84464671D01*
X147699170Y-84478921D01*
X147678653Y-84491218D01*
X147657029Y-84501446D01*
X147634507Y-84509504D01*
X147611303Y-84515316D01*
X147587642Y-84518826D01*
X147563750Y-84520000D01*
X147076250Y-84520000D01*
X147052358Y-84518826D01*
X147028697Y-84515316D01*
X147005493Y-84509504D01*
X146982971Y-84501446D01*
X146961347Y-84491218D01*
X146940830Y-84478921D01*
X146921617Y-84464671D01*
X146903893Y-84448607D01*
X146887829Y-84430883D01*
X146873579Y-84411670D01*
X146861282Y-84391153D01*
X146851054Y-84369529D01*
X146842996Y-84347007D01*
X146837184Y-84323803D01*
X146833674Y-84300142D01*
X146832500Y-84276250D01*
X146832500Y-83363750D01*
X146833674Y-83339858D01*
X146837184Y-83316197D01*
X146842996Y-83292993D01*
X146851054Y-83270471D01*
X146861282Y-83248847D01*
X146873579Y-83228330D01*
X146887829Y-83209117D01*
X146903893Y-83191393D01*
X146921617Y-83175329D01*
X146940830Y-83161079D01*
X146961347Y-83148782D01*
X146982971Y-83138554D01*
X147005493Y-83130496D01*
X147028697Y-83124684D01*
X147052358Y-83121174D01*
X147076250Y-83120000D01*
X147563750Y-83120000D01*
X147587642Y-83121174D01*
G37*
G36*
X149462642Y-83121174D02*
G01*
X149486303Y-83124684D01*
X149509507Y-83130496D01*
X149532029Y-83138554D01*
X149553653Y-83148782D01*
X149574170Y-83161079D01*
X149593383Y-83175329D01*
X149611107Y-83191393D01*
X149627171Y-83209117D01*
X149641421Y-83228330D01*
X149653718Y-83248847D01*
X149663946Y-83270471D01*
X149672004Y-83292993D01*
X149677816Y-83316197D01*
X149681326Y-83339858D01*
X149682500Y-83363750D01*
X149682500Y-84276250D01*
X149681326Y-84300142D01*
X149677816Y-84323803D01*
X149672004Y-84347007D01*
X149663946Y-84369529D01*
X149653718Y-84391153D01*
X149641421Y-84411670D01*
X149627171Y-84430883D01*
X149611107Y-84448607D01*
X149593383Y-84464671D01*
X149574170Y-84478921D01*
X149553653Y-84491218D01*
X149532029Y-84501446D01*
X149509507Y-84509504D01*
X149486303Y-84515316D01*
X149462642Y-84518826D01*
X149438750Y-84520000D01*
X148951250Y-84520000D01*
X148927358Y-84518826D01*
X148903697Y-84515316D01*
X148880493Y-84509504D01*
X148857971Y-84501446D01*
X148836347Y-84491218D01*
X148815830Y-84478921D01*
X148796617Y-84464671D01*
X148778893Y-84448607D01*
X148762829Y-84430883D01*
X148748579Y-84411670D01*
X148736282Y-84391153D01*
X148726054Y-84369529D01*
X148717996Y-84347007D01*
X148712184Y-84323803D01*
X148708674Y-84300142D01*
X148707500Y-84276250D01*
X148707500Y-83363750D01*
X148708674Y-83339858D01*
X148712184Y-83316197D01*
X148717996Y-83292993D01*
X148726054Y-83270471D01*
X148736282Y-83248847D01*
X148748579Y-83228330D01*
X148762829Y-83209117D01*
X148778893Y-83191393D01*
X148796617Y-83175329D01*
X148815830Y-83161079D01*
X148836347Y-83148782D01*
X148857971Y-83138554D01*
X148880493Y-83130496D01*
X148903697Y-83124684D01*
X148927358Y-83121174D01*
X148951250Y-83120000D01*
X149438750Y-83120000D01*
X149462642Y-83121174D01*
G37*
G36*
X146982642Y-85661174D02*
G01*
X147006303Y-85664684D01*
X147029507Y-85670496D01*
X147052029Y-85678554D01*
X147073653Y-85688782D01*
X147094170Y-85701079D01*
X147113383Y-85715329D01*
X147131107Y-85731393D01*
X147147171Y-85749117D01*
X147161421Y-85768330D01*
X147173718Y-85788847D01*
X147183946Y-85810471D01*
X147192004Y-85832993D01*
X147197816Y-85856197D01*
X147201326Y-85879858D01*
X147202500Y-85903750D01*
X147202500Y-86816250D01*
X147201326Y-86840142D01*
X147197816Y-86863803D01*
X147192004Y-86887007D01*
X147183946Y-86909529D01*
X147173718Y-86931153D01*
X147161421Y-86951670D01*
X147147171Y-86970883D01*
X147131107Y-86988607D01*
X147113383Y-87004671D01*
X147094170Y-87018921D01*
X147073653Y-87031218D01*
X147052029Y-87041446D01*
X147029507Y-87049504D01*
X147006303Y-87055316D01*
X146982642Y-87058826D01*
X146958750Y-87060000D01*
X146471250Y-87060000D01*
X146447358Y-87058826D01*
X146423697Y-87055316D01*
X146400493Y-87049504D01*
X146377971Y-87041446D01*
X146356347Y-87031218D01*
X146335830Y-87018921D01*
X146316617Y-87004671D01*
X146298893Y-86988607D01*
X146282829Y-86970883D01*
X146268579Y-86951670D01*
X146256282Y-86931153D01*
X146246054Y-86909529D01*
X146237996Y-86887007D01*
X146232184Y-86863803D01*
X146228674Y-86840142D01*
X146227500Y-86816250D01*
X146227500Y-85903750D01*
X146228674Y-85879858D01*
X146232184Y-85856197D01*
X146237996Y-85832993D01*
X146246054Y-85810471D01*
X146256282Y-85788847D01*
X146268579Y-85768330D01*
X146282829Y-85749117D01*
X146298893Y-85731393D01*
X146316617Y-85715329D01*
X146335830Y-85701079D01*
X146356347Y-85688782D01*
X146377971Y-85678554D01*
X146400493Y-85670496D01*
X146423697Y-85664684D01*
X146447358Y-85661174D01*
X146471250Y-85660000D01*
X146958750Y-85660000D01*
X146982642Y-85661174D01*
G37*
G36*
X148857642Y-85661174D02*
G01*
X148881303Y-85664684D01*
X148904507Y-85670496D01*
X148927029Y-85678554D01*
X148948653Y-85688782D01*
X148969170Y-85701079D01*
X148988383Y-85715329D01*
X149006107Y-85731393D01*
X149022171Y-85749117D01*
X149036421Y-85768330D01*
X149048718Y-85788847D01*
X149058946Y-85810471D01*
X149067004Y-85832993D01*
X149072816Y-85856197D01*
X149076326Y-85879858D01*
X149077500Y-85903750D01*
X149077500Y-86816250D01*
X149076326Y-86840142D01*
X149072816Y-86863803D01*
X149067004Y-86887007D01*
X149058946Y-86909529D01*
X149048718Y-86931153D01*
X149036421Y-86951670D01*
X149022171Y-86970883D01*
X149006107Y-86988607D01*
X148988383Y-87004671D01*
X148969170Y-87018921D01*
X148948653Y-87031218D01*
X148927029Y-87041446D01*
X148904507Y-87049504D01*
X148881303Y-87055316D01*
X148857642Y-87058826D01*
X148833750Y-87060000D01*
X148346250Y-87060000D01*
X148322358Y-87058826D01*
X148298697Y-87055316D01*
X148275493Y-87049504D01*
X148252971Y-87041446D01*
X148231347Y-87031218D01*
X148210830Y-87018921D01*
X148191617Y-87004671D01*
X148173893Y-86988607D01*
X148157829Y-86970883D01*
X148143579Y-86951670D01*
X148131282Y-86931153D01*
X148121054Y-86909529D01*
X148112996Y-86887007D01*
X148107184Y-86863803D01*
X148103674Y-86840142D01*
X148102500Y-86816250D01*
X148102500Y-85903750D01*
X148103674Y-85879858D01*
X148107184Y-85856197D01*
X148112996Y-85832993D01*
X148121054Y-85810471D01*
X148131282Y-85788847D01*
X148143579Y-85768330D01*
X148157829Y-85749117D01*
X148173893Y-85731393D01*
X148191617Y-85715329D01*
X148210830Y-85701079D01*
X148231347Y-85688782D01*
X148252971Y-85678554D01*
X148275493Y-85670496D01*
X148298697Y-85664684D01*
X148322358Y-85661174D01*
X148346250Y-85660000D01*
X148833750Y-85660000D01*
X148857642Y-85661174D01*
G37*
G36*
X148857642Y-80581174D02*
G01*
X148881303Y-80584684D01*
X148904507Y-80590496D01*
X148927029Y-80598554D01*
X148948653Y-80608782D01*
X148969170Y-80621079D01*
X148988383Y-80635329D01*
X149006107Y-80651393D01*
X149022171Y-80669117D01*
X149036421Y-80688330D01*
X149048718Y-80708847D01*
X149058946Y-80730471D01*
X149067004Y-80752993D01*
X149072816Y-80776197D01*
X149076326Y-80799858D01*
X149077500Y-80823750D01*
X149077500Y-81736250D01*
X149076326Y-81760142D01*
X149072816Y-81783803D01*
X149067004Y-81807007D01*
X149058946Y-81829529D01*
X149048718Y-81851153D01*
X149036421Y-81871670D01*
X149022171Y-81890883D01*
X149006107Y-81908607D01*
X148988383Y-81924671D01*
X148969170Y-81938921D01*
X148948653Y-81951218D01*
X148927029Y-81961446D01*
X148904507Y-81969504D01*
X148881303Y-81975316D01*
X148857642Y-81978826D01*
X148833750Y-81980000D01*
X148346250Y-81980000D01*
X148322358Y-81978826D01*
X148298697Y-81975316D01*
X148275493Y-81969504D01*
X148252971Y-81961446D01*
X148231347Y-81951218D01*
X148210830Y-81938921D01*
X148191617Y-81924671D01*
X148173893Y-81908607D01*
X148157829Y-81890883D01*
X148143579Y-81871670D01*
X148131282Y-81851153D01*
X148121054Y-81829529D01*
X148112996Y-81807007D01*
X148107184Y-81783803D01*
X148103674Y-81760142D01*
X148102500Y-81736250D01*
X148102500Y-80823750D01*
X148103674Y-80799858D01*
X148107184Y-80776197D01*
X148112996Y-80752993D01*
X148121054Y-80730471D01*
X148131282Y-80708847D01*
X148143579Y-80688330D01*
X148157829Y-80669117D01*
X148173893Y-80651393D01*
X148191617Y-80635329D01*
X148210830Y-80621079D01*
X148231347Y-80608782D01*
X148252971Y-80598554D01*
X148275493Y-80590496D01*
X148298697Y-80584684D01*
X148322358Y-80581174D01*
X148346250Y-80580000D01*
X148833750Y-80580000D01*
X148857642Y-80581174D01*
G37*
G36*
X146982642Y-80581174D02*
G01*
X147006303Y-80584684D01*
X147029507Y-80590496D01*
X147052029Y-80598554D01*
X147073653Y-80608782D01*
X147094170Y-80621079D01*
X147113383Y-80635329D01*
X147131107Y-80651393D01*
X147147171Y-80669117D01*
X147161421Y-80688330D01*
X147173718Y-80708847D01*
X147183946Y-80730471D01*
X147192004Y-80752993D01*
X147197816Y-80776197D01*
X147201326Y-80799858D01*
X147202500Y-80823750D01*
X147202500Y-81736250D01*
X147201326Y-81760142D01*
X147197816Y-81783803D01*
X147192004Y-81807007D01*
X147183946Y-81829529D01*
X147173718Y-81851153D01*
X147161421Y-81871670D01*
X147147171Y-81890883D01*
X147131107Y-81908607D01*
X147113383Y-81924671D01*
X147094170Y-81938921D01*
X147073653Y-81951218D01*
X147052029Y-81961446D01*
X147029507Y-81969504D01*
X147006303Y-81975316D01*
X146982642Y-81978826D01*
X146958750Y-81980000D01*
X146471250Y-81980000D01*
X146447358Y-81978826D01*
X146423697Y-81975316D01*
X146400493Y-81969504D01*
X146377971Y-81961446D01*
X146356347Y-81951218D01*
X146335830Y-81938921D01*
X146316617Y-81924671D01*
X146298893Y-81908607D01*
X146282829Y-81890883D01*
X146268579Y-81871670D01*
X146256282Y-81851153D01*
X146246054Y-81829529D01*
X146237996Y-81807007D01*
X146232184Y-81783803D01*
X146228674Y-81760142D01*
X146227500Y-81736250D01*
X146227500Y-80823750D01*
X146228674Y-80799858D01*
X146232184Y-80776197D01*
X146237996Y-80752993D01*
X146246054Y-80730471D01*
X146256282Y-80708847D01*
X146268579Y-80688330D01*
X146282829Y-80669117D01*
X146298893Y-80651393D01*
X146316617Y-80635329D01*
X146335830Y-80621079D01*
X146356347Y-80608782D01*
X146377971Y-80598554D01*
X146400493Y-80590496D01*
X146423697Y-80584684D01*
X146447358Y-80581174D01*
X146471250Y-80580000D01*
X146958750Y-80580000D01*
X146982642Y-80581174D01*
G37*
G36*
X133830142Y-88081174D02*
G01*
X133853803Y-88084684D01*
X133877007Y-88090496D01*
X133899529Y-88098554D01*
X133921153Y-88108782D01*
X133941670Y-88121079D01*
X133960883Y-88135329D01*
X133978607Y-88151393D01*
X133994671Y-88169117D01*
X134008921Y-88188330D01*
X134021218Y-88208847D01*
X134031446Y-88230471D01*
X134039504Y-88252993D01*
X134045316Y-88276197D01*
X134048826Y-88299858D01*
X134050000Y-88323750D01*
X134050000Y-88811250D01*
X134048826Y-88835142D01*
X134045316Y-88858803D01*
X134039504Y-88882007D01*
X134031446Y-88904529D01*
X134021218Y-88926153D01*
X134008921Y-88946670D01*
X133994671Y-88965883D01*
X133978607Y-88983607D01*
X133960883Y-88999671D01*
X133941670Y-89013921D01*
X133921153Y-89026218D01*
X133899529Y-89036446D01*
X133877007Y-89044504D01*
X133853803Y-89050316D01*
X133830142Y-89053826D01*
X133806250Y-89055000D01*
X132893750Y-89055000D01*
X132869858Y-89053826D01*
X132846197Y-89050316D01*
X132822993Y-89044504D01*
X132800471Y-89036446D01*
X132778847Y-89026218D01*
X132758330Y-89013921D01*
X132739117Y-88999671D01*
X132721393Y-88983607D01*
X132705329Y-88965883D01*
X132691079Y-88946670D01*
X132678782Y-88926153D01*
X132668554Y-88904529D01*
X132660496Y-88882007D01*
X132654684Y-88858803D01*
X132651174Y-88835142D01*
X132650000Y-88811250D01*
X132650000Y-88323750D01*
X132651174Y-88299858D01*
X132654684Y-88276197D01*
X132660496Y-88252993D01*
X132668554Y-88230471D01*
X132678782Y-88208847D01*
X132691079Y-88188330D01*
X132705329Y-88169117D01*
X132721393Y-88151393D01*
X132739117Y-88135329D01*
X132758330Y-88121079D01*
X132778847Y-88108782D01*
X132800471Y-88098554D01*
X132822993Y-88090496D01*
X132846197Y-88084684D01*
X132869858Y-88081174D01*
X132893750Y-88080000D01*
X133806250Y-88080000D01*
X133830142Y-88081174D01*
G37*
G36*
X133830142Y-86206174D02*
G01*
X133853803Y-86209684D01*
X133877007Y-86215496D01*
X133899529Y-86223554D01*
X133921153Y-86233782D01*
X133941670Y-86246079D01*
X133960883Y-86260329D01*
X133978607Y-86276393D01*
X133994671Y-86294117D01*
X134008921Y-86313330D01*
X134021218Y-86333847D01*
X134031446Y-86355471D01*
X134039504Y-86377993D01*
X134045316Y-86401197D01*
X134048826Y-86424858D01*
X134050000Y-86448750D01*
X134050000Y-86936250D01*
X134048826Y-86960142D01*
X134045316Y-86983803D01*
X134039504Y-87007007D01*
X134031446Y-87029529D01*
X134021218Y-87051153D01*
X134008921Y-87071670D01*
X133994671Y-87090883D01*
X133978607Y-87108607D01*
X133960883Y-87124671D01*
X133941670Y-87138921D01*
X133921153Y-87151218D01*
X133899529Y-87161446D01*
X133877007Y-87169504D01*
X133853803Y-87175316D01*
X133830142Y-87178826D01*
X133806250Y-87180000D01*
X132893750Y-87180000D01*
X132869858Y-87178826D01*
X132846197Y-87175316D01*
X132822993Y-87169504D01*
X132800471Y-87161446D01*
X132778847Y-87151218D01*
X132758330Y-87138921D01*
X132739117Y-87124671D01*
X132721393Y-87108607D01*
X132705329Y-87090883D01*
X132691079Y-87071670D01*
X132678782Y-87051153D01*
X132668554Y-87029529D01*
X132660496Y-87007007D01*
X132654684Y-86983803D01*
X132651174Y-86960142D01*
X132650000Y-86936250D01*
X132650000Y-86448750D01*
X132651174Y-86424858D01*
X132654684Y-86401197D01*
X132660496Y-86377993D01*
X132668554Y-86355471D01*
X132678782Y-86333847D01*
X132691079Y-86313330D01*
X132705329Y-86294117D01*
X132721393Y-86276393D01*
X132739117Y-86260329D01*
X132758330Y-86246079D01*
X132778847Y-86233782D01*
X132800471Y-86223554D01*
X132822993Y-86215496D01*
X132846197Y-86209684D01*
X132869858Y-86206174D01*
X132893750Y-86205000D01*
X133806250Y-86205000D01*
X133830142Y-86206174D01*
G37*
G36*
X153049504Y-83326204D02*
G01*
X153073773Y-83329804D01*
X153097571Y-83335765D01*
X153120671Y-83344030D01*
X153142849Y-83354520D01*
X153163893Y-83367133D01*
X153183598Y-83381747D01*
X153201777Y-83398223D01*
X153218253Y-83416402D01*
X153232867Y-83436107D01*
X153245480Y-83457151D01*
X153255970Y-83479329D01*
X153264235Y-83502429D01*
X153270196Y-83526227D01*
X153273796Y-83550496D01*
X153275000Y-83575000D01*
X153275000Y-84325000D01*
X153273796Y-84349504D01*
X153270196Y-84373773D01*
X153264235Y-84397571D01*
X153255970Y-84420671D01*
X153245480Y-84442849D01*
X153232867Y-84463893D01*
X153218253Y-84483598D01*
X153201777Y-84501777D01*
X153183598Y-84518253D01*
X153163893Y-84532867D01*
X153142849Y-84545480D01*
X153120671Y-84555970D01*
X153097571Y-84564235D01*
X153073773Y-84570196D01*
X153049504Y-84573796D01*
X153025000Y-84575000D01*
X151775000Y-84575000D01*
X151750496Y-84573796D01*
X151726227Y-84570196D01*
X151702429Y-84564235D01*
X151679329Y-84555970D01*
X151657151Y-84545480D01*
X151636107Y-84532867D01*
X151616402Y-84518253D01*
X151598223Y-84501777D01*
X151581747Y-84483598D01*
X151567133Y-84463893D01*
X151554520Y-84442849D01*
X151544030Y-84420671D01*
X151535765Y-84397571D01*
X151529804Y-84373773D01*
X151526204Y-84349504D01*
X151525000Y-84325000D01*
X151525000Y-83575000D01*
X151526204Y-83550496D01*
X151529804Y-83526227D01*
X151535765Y-83502429D01*
X151544030Y-83479329D01*
X151554520Y-83457151D01*
X151567133Y-83436107D01*
X151581747Y-83416402D01*
X151598223Y-83398223D01*
X151616402Y-83381747D01*
X151636107Y-83367133D01*
X151657151Y-83354520D01*
X151679329Y-83344030D01*
X151702429Y-83335765D01*
X151726227Y-83329804D01*
X151750496Y-83326204D01*
X151775000Y-83325000D01*
X153025000Y-83325000D01*
X153049504Y-83326204D01*
G37*
G36*
X153049504Y-80526204D02*
G01*
X153073773Y-80529804D01*
X153097571Y-80535765D01*
X153120671Y-80544030D01*
X153142849Y-80554520D01*
X153163893Y-80567133D01*
X153183598Y-80581747D01*
X153201777Y-80598223D01*
X153218253Y-80616402D01*
X153232867Y-80636107D01*
X153245480Y-80657151D01*
X153255970Y-80679329D01*
X153264235Y-80702429D01*
X153270196Y-80726227D01*
X153273796Y-80750496D01*
X153275000Y-80775000D01*
X153275000Y-81525000D01*
X153273796Y-81549504D01*
X153270196Y-81573773D01*
X153264235Y-81597571D01*
X153255970Y-81620671D01*
X153245480Y-81642849D01*
X153232867Y-81663893D01*
X153218253Y-81683598D01*
X153201777Y-81701777D01*
X153183598Y-81718253D01*
X153163893Y-81732867D01*
X153142849Y-81745480D01*
X153120671Y-81755970D01*
X153097571Y-81764235D01*
X153073773Y-81770196D01*
X153049504Y-81773796D01*
X153025000Y-81775000D01*
X151775000Y-81775000D01*
X151750496Y-81773796D01*
X151726227Y-81770196D01*
X151702429Y-81764235D01*
X151679329Y-81755970D01*
X151657151Y-81745480D01*
X151636107Y-81732867D01*
X151616402Y-81718253D01*
X151598223Y-81701777D01*
X151581747Y-81683598D01*
X151567133Y-81663893D01*
X151554520Y-81642849D01*
X151544030Y-81620671D01*
X151535765Y-81597571D01*
X151529804Y-81573773D01*
X151526204Y-81549504D01*
X151525000Y-81525000D01*
X151525000Y-80775000D01*
X151526204Y-80750496D01*
X151529804Y-80726227D01*
X151535765Y-80702429D01*
X151544030Y-80679329D01*
X151554520Y-80657151D01*
X151567133Y-80636107D01*
X151581747Y-80616402D01*
X151598223Y-80598223D01*
X151616402Y-80581747D01*
X151636107Y-80567133D01*
X151657151Y-80554520D01*
X151679329Y-80544030D01*
X151702429Y-80535765D01*
X151726227Y-80529804D01*
X151750496Y-80526204D01*
X151775000Y-80525000D01*
X153025000Y-80525000D01*
X153049504Y-80526204D01*
G37*
G36*
X153049504Y-90686204D02*
G01*
X153073773Y-90689804D01*
X153097571Y-90695765D01*
X153120671Y-90704030D01*
X153142849Y-90714520D01*
X153163893Y-90727133D01*
X153183598Y-90741747D01*
X153201777Y-90758223D01*
X153218253Y-90776402D01*
X153232867Y-90796107D01*
X153245480Y-90817151D01*
X153255970Y-90839329D01*
X153264235Y-90862429D01*
X153270196Y-90886227D01*
X153273796Y-90910496D01*
X153275000Y-90935000D01*
X153275000Y-91685000D01*
X153273796Y-91709504D01*
X153270196Y-91733773D01*
X153264235Y-91757571D01*
X153255970Y-91780671D01*
X153245480Y-91802849D01*
X153232867Y-91823893D01*
X153218253Y-91843598D01*
X153201777Y-91861777D01*
X153183598Y-91878253D01*
X153163893Y-91892867D01*
X153142849Y-91905480D01*
X153120671Y-91915970D01*
X153097571Y-91924235D01*
X153073773Y-91930196D01*
X153049504Y-91933796D01*
X153025000Y-91935000D01*
X151775000Y-91935000D01*
X151750496Y-91933796D01*
X151726227Y-91930196D01*
X151702429Y-91924235D01*
X151679329Y-91915970D01*
X151657151Y-91905480D01*
X151636107Y-91892867D01*
X151616402Y-91878253D01*
X151598223Y-91861777D01*
X151581747Y-91843598D01*
X151567133Y-91823893D01*
X151554520Y-91802849D01*
X151544030Y-91780671D01*
X151535765Y-91757571D01*
X151529804Y-91733773D01*
X151526204Y-91709504D01*
X151525000Y-91685000D01*
X151525000Y-90935000D01*
X151526204Y-90910496D01*
X151529804Y-90886227D01*
X151535765Y-90862429D01*
X151544030Y-90839329D01*
X151554520Y-90817151D01*
X151567133Y-90796107D01*
X151581747Y-90776402D01*
X151598223Y-90758223D01*
X151616402Y-90741747D01*
X151636107Y-90727133D01*
X151657151Y-90714520D01*
X151679329Y-90704030D01*
X151702429Y-90695765D01*
X151726227Y-90689804D01*
X151750496Y-90686204D01*
X151775000Y-90685000D01*
X153025000Y-90685000D01*
X153049504Y-90686204D01*
G37*
G36*
X153049504Y-93486204D02*
G01*
X153073773Y-93489804D01*
X153097571Y-93495765D01*
X153120671Y-93504030D01*
X153142849Y-93514520D01*
X153163893Y-93527133D01*
X153183598Y-93541747D01*
X153201777Y-93558223D01*
X153218253Y-93576402D01*
X153232867Y-93596107D01*
X153245480Y-93617151D01*
X153255970Y-93639329D01*
X153264235Y-93662429D01*
X153270196Y-93686227D01*
X153273796Y-93710496D01*
X153275000Y-93735000D01*
X153275000Y-94485000D01*
X153273796Y-94509504D01*
X153270196Y-94533773D01*
X153264235Y-94557571D01*
X153255970Y-94580671D01*
X153245480Y-94602849D01*
X153232867Y-94623893D01*
X153218253Y-94643598D01*
X153201777Y-94661777D01*
X153183598Y-94678253D01*
X153163893Y-94692867D01*
X153142849Y-94705480D01*
X153120671Y-94715970D01*
X153097571Y-94724235D01*
X153073773Y-94730196D01*
X153049504Y-94733796D01*
X153025000Y-94735000D01*
X151775000Y-94735000D01*
X151750496Y-94733796D01*
X151726227Y-94730196D01*
X151702429Y-94724235D01*
X151679329Y-94715970D01*
X151657151Y-94705480D01*
X151636107Y-94692867D01*
X151616402Y-94678253D01*
X151598223Y-94661777D01*
X151581747Y-94643598D01*
X151567133Y-94623893D01*
X151554520Y-94602849D01*
X151544030Y-94580671D01*
X151535765Y-94557571D01*
X151529804Y-94533773D01*
X151526204Y-94509504D01*
X151525000Y-94485000D01*
X151525000Y-93735000D01*
X151526204Y-93710496D01*
X151529804Y-93686227D01*
X151535765Y-93662429D01*
X151544030Y-93639329D01*
X151554520Y-93617151D01*
X151567133Y-93596107D01*
X151581747Y-93576402D01*
X151598223Y-93558223D01*
X151616402Y-93541747D01*
X151636107Y-93527133D01*
X151657151Y-93514520D01*
X151679329Y-93504030D01*
X151702429Y-93495765D01*
X151726227Y-93489804D01*
X151750496Y-93486204D01*
X151775000Y-93485000D01*
X153025000Y-93485000D01*
X153049504Y-93486204D01*
G37*
G36*
X129202642Y-88201174D02*
G01*
X129226303Y-88204684D01*
X129249507Y-88210496D01*
X129272029Y-88218554D01*
X129293653Y-88228782D01*
X129314170Y-88241079D01*
X129333383Y-88255329D01*
X129351107Y-88271393D01*
X129367171Y-88289117D01*
X129381421Y-88308330D01*
X129393718Y-88328847D01*
X129403946Y-88350471D01*
X129412004Y-88372993D01*
X129417816Y-88396197D01*
X129421326Y-88419858D01*
X129422500Y-88443750D01*
X129422500Y-89356250D01*
X129421326Y-89380142D01*
X129417816Y-89403803D01*
X129412004Y-89427007D01*
X129403946Y-89449529D01*
X129393718Y-89471153D01*
X129381421Y-89491670D01*
X129367171Y-89510883D01*
X129351107Y-89528607D01*
X129333383Y-89544671D01*
X129314170Y-89558921D01*
X129293653Y-89571218D01*
X129272029Y-89581446D01*
X129249507Y-89589504D01*
X129226303Y-89595316D01*
X129202642Y-89598826D01*
X129178750Y-89600000D01*
X128691250Y-89600000D01*
X128667358Y-89598826D01*
X128643697Y-89595316D01*
X128620493Y-89589504D01*
X128597971Y-89581446D01*
X128576347Y-89571218D01*
X128555830Y-89558921D01*
X128536617Y-89544671D01*
X128518893Y-89528607D01*
X128502829Y-89510883D01*
X128488579Y-89491670D01*
X128476282Y-89471153D01*
X128466054Y-89449529D01*
X128457996Y-89427007D01*
X128452184Y-89403803D01*
X128448674Y-89380142D01*
X128447500Y-89356250D01*
X128447500Y-88443750D01*
X128448674Y-88419858D01*
X128452184Y-88396197D01*
X128457996Y-88372993D01*
X128466054Y-88350471D01*
X128476282Y-88328847D01*
X128488579Y-88308330D01*
X128502829Y-88289117D01*
X128518893Y-88271393D01*
X128536617Y-88255329D01*
X128555830Y-88241079D01*
X128576347Y-88228782D01*
X128597971Y-88218554D01*
X128620493Y-88210496D01*
X128643697Y-88204684D01*
X128667358Y-88201174D01*
X128691250Y-88200000D01*
X129178750Y-88200000D01*
X129202642Y-88201174D01*
G37*
G36*
X131077642Y-88201174D02*
G01*
X131101303Y-88204684D01*
X131124507Y-88210496D01*
X131147029Y-88218554D01*
X131168653Y-88228782D01*
X131189170Y-88241079D01*
X131208383Y-88255329D01*
X131226107Y-88271393D01*
X131242171Y-88289117D01*
X131256421Y-88308330D01*
X131268718Y-88328847D01*
X131278946Y-88350471D01*
X131287004Y-88372993D01*
X131292816Y-88396197D01*
X131296326Y-88419858D01*
X131297500Y-88443750D01*
X131297500Y-89356250D01*
X131296326Y-89380142D01*
X131292816Y-89403803D01*
X131287004Y-89427007D01*
X131278946Y-89449529D01*
X131268718Y-89471153D01*
X131256421Y-89491670D01*
X131242171Y-89510883D01*
X131226107Y-89528607D01*
X131208383Y-89544671D01*
X131189170Y-89558921D01*
X131168653Y-89571218D01*
X131147029Y-89581446D01*
X131124507Y-89589504D01*
X131101303Y-89595316D01*
X131077642Y-89598826D01*
X131053750Y-89600000D01*
X130566250Y-89600000D01*
X130542358Y-89598826D01*
X130518697Y-89595316D01*
X130495493Y-89589504D01*
X130472971Y-89581446D01*
X130451347Y-89571218D01*
X130430830Y-89558921D01*
X130411617Y-89544671D01*
X130393893Y-89528607D01*
X130377829Y-89510883D01*
X130363579Y-89491670D01*
X130351282Y-89471153D01*
X130341054Y-89449529D01*
X130332996Y-89427007D01*
X130327184Y-89403803D01*
X130323674Y-89380142D01*
X130322500Y-89356250D01*
X130322500Y-88443750D01*
X130323674Y-88419858D01*
X130327184Y-88396197D01*
X130332996Y-88372993D01*
X130341054Y-88350471D01*
X130351282Y-88328847D01*
X130363579Y-88308330D01*
X130377829Y-88289117D01*
X130393893Y-88271393D01*
X130411617Y-88255329D01*
X130430830Y-88241079D01*
X130451347Y-88228782D01*
X130472971Y-88218554D01*
X130495493Y-88210496D01*
X130518697Y-88204684D01*
X130542358Y-88201174D01*
X130566250Y-88200000D01*
X131053750Y-88200000D01*
X131077642Y-88201174D01*
G37*
M02*
