G04 #@! TF.GenerationSoftware,KiCad,Pcbnew,(5.1.5-0-10_14)*
G04 #@! TF.CreationDate,2020-04-22T09:49:02-05:00*
G04 #@! TF.ProjectId,Sensors,53656e73-6f72-4732-9e6b-696361645f70,rev?*
G04 #@! TF.SameCoordinates,Original*
G04 #@! TF.FileFunction,Copper,L2,Bot*
G04 #@! TF.FilePolarity,Positive*
%FSLAX46Y46*%
G04 Gerber Fmt 4.6, Leading zero omitted, Abs format (unit mm)*
G04 Created by KiCad (PCBNEW (5.1.5-0-10_14)) date 2020-04-22 09:49:02*
%MOMM*%
%LPD*%
G04 APERTURE LIST*
%ADD10C,1.208000*%
%ADD11C,0.100000*%
%ADD12O,1.700000X1.700000*%
%ADD13R,1.700000X1.700000*%
%ADD14C,0.800000*%
%ADD15C,0.250000*%
%ADD16C,0.254000*%
G04 APERTURE END LIST*
D10*
X124460000Y-93030000D03*
X124460000Y-94930000D03*
G04 #@! TA.AperFunction,SMDPad,CuDef*
D11*
G36*
X147587642Y-83121174D02*
G01*
X147611303Y-83124684D01*
X147634507Y-83130496D01*
X147657029Y-83138554D01*
X147678653Y-83148782D01*
X147699170Y-83161079D01*
X147718383Y-83175329D01*
X147736107Y-83191393D01*
X147752171Y-83209117D01*
X147766421Y-83228330D01*
X147778718Y-83248847D01*
X147788946Y-83270471D01*
X147797004Y-83292993D01*
X147802816Y-83316197D01*
X147806326Y-83339858D01*
X147807500Y-83363750D01*
X147807500Y-84276250D01*
X147806326Y-84300142D01*
X147802816Y-84323803D01*
X147797004Y-84347007D01*
X147788946Y-84369529D01*
X147778718Y-84391153D01*
X147766421Y-84411670D01*
X147752171Y-84430883D01*
X147736107Y-84448607D01*
X147718383Y-84464671D01*
X147699170Y-84478921D01*
X147678653Y-84491218D01*
X147657029Y-84501446D01*
X147634507Y-84509504D01*
X147611303Y-84515316D01*
X147587642Y-84518826D01*
X147563750Y-84520000D01*
X147076250Y-84520000D01*
X147052358Y-84518826D01*
X147028697Y-84515316D01*
X147005493Y-84509504D01*
X146982971Y-84501446D01*
X146961347Y-84491218D01*
X146940830Y-84478921D01*
X146921617Y-84464671D01*
X146903893Y-84448607D01*
X146887829Y-84430883D01*
X146873579Y-84411670D01*
X146861282Y-84391153D01*
X146851054Y-84369529D01*
X146842996Y-84347007D01*
X146837184Y-84323803D01*
X146833674Y-84300142D01*
X146832500Y-84276250D01*
X146832500Y-83363750D01*
X146833674Y-83339858D01*
X146837184Y-83316197D01*
X146842996Y-83292993D01*
X146851054Y-83270471D01*
X146861282Y-83248847D01*
X146873579Y-83228330D01*
X146887829Y-83209117D01*
X146903893Y-83191393D01*
X146921617Y-83175329D01*
X146940830Y-83161079D01*
X146961347Y-83148782D01*
X146982971Y-83138554D01*
X147005493Y-83130496D01*
X147028697Y-83124684D01*
X147052358Y-83121174D01*
X147076250Y-83120000D01*
X147563750Y-83120000D01*
X147587642Y-83121174D01*
G37*
G04 #@! TD.AperFunction*
G04 #@! TA.AperFunction,SMDPad,CuDef*
G36*
X145712642Y-83121174D02*
G01*
X145736303Y-83124684D01*
X145759507Y-83130496D01*
X145782029Y-83138554D01*
X145803653Y-83148782D01*
X145824170Y-83161079D01*
X145843383Y-83175329D01*
X145861107Y-83191393D01*
X145877171Y-83209117D01*
X145891421Y-83228330D01*
X145903718Y-83248847D01*
X145913946Y-83270471D01*
X145922004Y-83292993D01*
X145927816Y-83316197D01*
X145931326Y-83339858D01*
X145932500Y-83363750D01*
X145932500Y-84276250D01*
X145931326Y-84300142D01*
X145927816Y-84323803D01*
X145922004Y-84347007D01*
X145913946Y-84369529D01*
X145903718Y-84391153D01*
X145891421Y-84411670D01*
X145877171Y-84430883D01*
X145861107Y-84448607D01*
X145843383Y-84464671D01*
X145824170Y-84478921D01*
X145803653Y-84491218D01*
X145782029Y-84501446D01*
X145759507Y-84509504D01*
X145736303Y-84515316D01*
X145712642Y-84518826D01*
X145688750Y-84520000D01*
X145201250Y-84520000D01*
X145177358Y-84518826D01*
X145153697Y-84515316D01*
X145130493Y-84509504D01*
X145107971Y-84501446D01*
X145086347Y-84491218D01*
X145065830Y-84478921D01*
X145046617Y-84464671D01*
X145028893Y-84448607D01*
X145012829Y-84430883D01*
X144998579Y-84411670D01*
X144986282Y-84391153D01*
X144976054Y-84369529D01*
X144967996Y-84347007D01*
X144962184Y-84323803D01*
X144958674Y-84300142D01*
X144957500Y-84276250D01*
X144957500Y-83363750D01*
X144958674Y-83339858D01*
X144962184Y-83316197D01*
X144967996Y-83292993D01*
X144976054Y-83270471D01*
X144986282Y-83248847D01*
X144998579Y-83228330D01*
X145012829Y-83209117D01*
X145028893Y-83191393D01*
X145046617Y-83175329D01*
X145065830Y-83161079D01*
X145086347Y-83148782D01*
X145107971Y-83138554D01*
X145130493Y-83130496D01*
X145153697Y-83124684D01*
X145177358Y-83121174D01*
X145201250Y-83120000D01*
X145688750Y-83120000D01*
X145712642Y-83121174D01*
G37*
G04 #@! TD.AperFunction*
G04 #@! TA.AperFunction,SMDPad,CuDef*
G36*
X145712642Y-86931174D02*
G01*
X145736303Y-86934684D01*
X145759507Y-86940496D01*
X145782029Y-86948554D01*
X145803653Y-86958782D01*
X145824170Y-86971079D01*
X145843383Y-86985329D01*
X145861107Y-87001393D01*
X145877171Y-87019117D01*
X145891421Y-87038330D01*
X145903718Y-87058847D01*
X145913946Y-87080471D01*
X145922004Y-87102993D01*
X145927816Y-87126197D01*
X145931326Y-87149858D01*
X145932500Y-87173750D01*
X145932500Y-88086250D01*
X145931326Y-88110142D01*
X145927816Y-88133803D01*
X145922004Y-88157007D01*
X145913946Y-88179529D01*
X145903718Y-88201153D01*
X145891421Y-88221670D01*
X145877171Y-88240883D01*
X145861107Y-88258607D01*
X145843383Y-88274671D01*
X145824170Y-88288921D01*
X145803653Y-88301218D01*
X145782029Y-88311446D01*
X145759507Y-88319504D01*
X145736303Y-88325316D01*
X145712642Y-88328826D01*
X145688750Y-88330000D01*
X145201250Y-88330000D01*
X145177358Y-88328826D01*
X145153697Y-88325316D01*
X145130493Y-88319504D01*
X145107971Y-88311446D01*
X145086347Y-88301218D01*
X145065830Y-88288921D01*
X145046617Y-88274671D01*
X145028893Y-88258607D01*
X145012829Y-88240883D01*
X144998579Y-88221670D01*
X144986282Y-88201153D01*
X144976054Y-88179529D01*
X144967996Y-88157007D01*
X144962184Y-88133803D01*
X144958674Y-88110142D01*
X144957500Y-88086250D01*
X144957500Y-87173750D01*
X144958674Y-87149858D01*
X144962184Y-87126197D01*
X144967996Y-87102993D01*
X144976054Y-87080471D01*
X144986282Y-87058847D01*
X144998579Y-87038330D01*
X145012829Y-87019117D01*
X145028893Y-87001393D01*
X145046617Y-86985329D01*
X145065830Y-86971079D01*
X145086347Y-86958782D01*
X145107971Y-86948554D01*
X145130493Y-86940496D01*
X145153697Y-86934684D01*
X145177358Y-86931174D01*
X145201250Y-86930000D01*
X145688750Y-86930000D01*
X145712642Y-86931174D01*
G37*
G04 #@! TD.AperFunction*
G04 #@! TA.AperFunction,SMDPad,CuDef*
G36*
X147587642Y-86931174D02*
G01*
X147611303Y-86934684D01*
X147634507Y-86940496D01*
X147657029Y-86948554D01*
X147678653Y-86958782D01*
X147699170Y-86971079D01*
X147718383Y-86985329D01*
X147736107Y-87001393D01*
X147752171Y-87019117D01*
X147766421Y-87038330D01*
X147778718Y-87058847D01*
X147788946Y-87080471D01*
X147797004Y-87102993D01*
X147802816Y-87126197D01*
X147806326Y-87149858D01*
X147807500Y-87173750D01*
X147807500Y-88086250D01*
X147806326Y-88110142D01*
X147802816Y-88133803D01*
X147797004Y-88157007D01*
X147788946Y-88179529D01*
X147778718Y-88201153D01*
X147766421Y-88221670D01*
X147752171Y-88240883D01*
X147736107Y-88258607D01*
X147718383Y-88274671D01*
X147699170Y-88288921D01*
X147678653Y-88301218D01*
X147657029Y-88311446D01*
X147634507Y-88319504D01*
X147611303Y-88325316D01*
X147587642Y-88328826D01*
X147563750Y-88330000D01*
X147076250Y-88330000D01*
X147052358Y-88328826D01*
X147028697Y-88325316D01*
X147005493Y-88319504D01*
X146982971Y-88311446D01*
X146961347Y-88301218D01*
X146940830Y-88288921D01*
X146921617Y-88274671D01*
X146903893Y-88258607D01*
X146887829Y-88240883D01*
X146873579Y-88221670D01*
X146861282Y-88201153D01*
X146851054Y-88179529D01*
X146842996Y-88157007D01*
X146837184Y-88133803D01*
X146833674Y-88110142D01*
X146832500Y-88086250D01*
X146832500Y-87173750D01*
X146833674Y-87149858D01*
X146837184Y-87126197D01*
X146842996Y-87102993D01*
X146851054Y-87080471D01*
X146861282Y-87058847D01*
X146873579Y-87038330D01*
X146887829Y-87019117D01*
X146903893Y-87001393D01*
X146921617Y-86985329D01*
X146940830Y-86971079D01*
X146961347Y-86958782D01*
X146982971Y-86948554D01*
X147005493Y-86940496D01*
X147028697Y-86934684D01*
X147052358Y-86931174D01*
X147076250Y-86930000D01*
X147563750Y-86930000D01*
X147587642Y-86931174D01*
G37*
G04 #@! TD.AperFunction*
D12*
X156210000Y-93980000D03*
X158750000Y-93980000D03*
X156210000Y-91440000D03*
X158750000Y-91440000D03*
X156210000Y-88900000D03*
X158750000Y-88900000D03*
X156210000Y-86360000D03*
X158750000Y-86360000D03*
X156210000Y-83820000D03*
X158750000Y-83820000D03*
X156210000Y-81280000D03*
D13*
X158750000Y-81280000D03*
D14*
X143510000Y-83820000D03*
X143510000Y-80010000D03*
X152400000Y-86360000D03*
X129540000Y-90170000D03*
X134620000Y-88900000D03*
X149860000Y-85090000D03*
D15*
X143510000Y-80010000D02*
X143510000Y-83820000D01*
X156210000Y-81280000D02*
X156210000Y-83820000D01*
X156210000Y-91440000D02*
X156210000Y-88900000D01*
X156210000Y-88900000D02*
X152400000Y-88900000D01*
X143510000Y-83820000D02*
X145445000Y-83820000D01*
X152400000Y-86360000D02*
X152400000Y-88900000D01*
X143510000Y-87630000D02*
X145112500Y-87630000D01*
X124460000Y-94930000D02*
X128590000Y-94930000D01*
X135890000Y-87630000D02*
X143510000Y-87630000D01*
X128590000Y-94930000D02*
X134620000Y-88900000D01*
X134620000Y-88900000D02*
X135890000Y-87630000D01*
X157059999Y-90590001D02*
X156210000Y-91440000D01*
X157385001Y-90264999D02*
X157059999Y-90590001D01*
X159925001Y-90875999D02*
X159314001Y-90264999D01*
X159314001Y-90264999D02*
X157385001Y-90264999D01*
X159925001Y-94544001D02*
X159925001Y-90875999D01*
X159314001Y-95155001D02*
X159925001Y-94544001D01*
X155645999Y-95155001D02*
X159314001Y-95155001D01*
X138880010Y-93980000D02*
X153651008Y-93980000D01*
X134620000Y-88900000D02*
X134620000Y-90170000D01*
X134620000Y-90170000D02*
X138430000Y-93980000D01*
X154470998Y-93980000D02*
X155645999Y-95155001D01*
X138430000Y-93980000D02*
X154470998Y-93980000D01*
X157480000Y-92710000D02*
X158750000Y-93980000D01*
X147320000Y-87630000D02*
X149860000Y-87630000D01*
X149860000Y-87630000D02*
X151130000Y-88900000D01*
X151130000Y-88900000D02*
X151130000Y-91440000D01*
X151130000Y-91440000D02*
X152400000Y-92710000D01*
X152400000Y-92710000D02*
X157480000Y-92710000D01*
X147320000Y-83820000D02*
X147320000Y-87630000D01*
X157480000Y-85090000D02*
X158750000Y-83820000D01*
X149860000Y-85090000D02*
X157480000Y-85090000D01*
D16*
G36*
X161163000Y-98933000D02*
G01*
X120777000Y-98933000D01*
X120777000Y-96300858D01*
X132395016Y-96300858D01*
X132395016Y-96739142D01*
X132480521Y-97169004D01*
X132648245Y-97573925D01*
X132891742Y-97938345D01*
X133201655Y-98248258D01*
X133566075Y-98491755D01*
X133970996Y-98659479D01*
X134400858Y-98744984D01*
X134839142Y-98744984D01*
X135269004Y-98659479D01*
X135673925Y-98491755D01*
X136038345Y-98248258D01*
X136348258Y-97938345D01*
X136591755Y-97573925D01*
X136759479Y-97169004D01*
X136844984Y-96739142D01*
X136844984Y-96300858D01*
X146365016Y-96300858D01*
X146365016Y-96739142D01*
X146450521Y-97169004D01*
X146618245Y-97573925D01*
X146861742Y-97938345D01*
X147171655Y-98248258D01*
X147536075Y-98491755D01*
X147940996Y-98659479D01*
X148370858Y-98744984D01*
X148809142Y-98744984D01*
X149239004Y-98659479D01*
X149643925Y-98491755D01*
X150008345Y-98248258D01*
X150318258Y-97938345D01*
X150561755Y-97573925D01*
X150729479Y-97169004D01*
X150814984Y-96739142D01*
X150814984Y-96300858D01*
X150729479Y-95870996D01*
X150561755Y-95466075D01*
X150318258Y-95101655D01*
X150008345Y-94791742D01*
X149643925Y-94548245D01*
X149239004Y-94380521D01*
X148809142Y-94295016D01*
X148370858Y-94295016D01*
X147940996Y-94380521D01*
X147536075Y-94548245D01*
X147171655Y-94791742D01*
X146861742Y-95101655D01*
X146618245Y-95466075D01*
X146450521Y-95870996D01*
X146365016Y-96300858D01*
X136844984Y-96300858D01*
X136759479Y-95870996D01*
X136591755Y-95466075D01*
X136348258Y-95101655D01*
X136038345Y-94791742D01*
X135673925Y-94548245D01*
X135269004Y-94380521D01*
X134839142Y-94295016D01*
X134400858Y-94295016D01*
X133970996Y-94380521D01*
X133566075Y-94548245D01*
X133201655Y-94791742D01*
X132891742Y-95101655D01*
X132648245Y-95466075D01*
X132480521Y-95870996D01*
X132395016Y-96300858D01*
X120777000Y-96300858D01*
X120777000Y-95782626D01*
X123786979Y-95782626D01*
X123834773Y-96006617D01*
X124056824Y-96107906D01*
X124294369Y-96163929D01*
X124538280Y-96172532D01*
X124779182Y-96133386D01*
X125007818Y-96047995D01*
X125085227Y-96006617D01*
X125133021Y-95782626D01*
X124460000Y-95109605D01*
X123786979Y-95782626D01*
X120777000Y-95782626D01*
X120777000Y-95008280D01*
X123217468Y-95008280D01*
X123256614Y-95249182D01*
X123342005Y-95477818D01*
X123383383Y-95555227D01*
X123607374Y-95603021D01*
X124280395Y-94930000D01*
X124639605Y-94930000D01*
X125312626Y-95603021D01*
X125536617Y-95555227D01*
X125637906Y-95333176D01*
X125693929Y-95095631D01*
X125702532Y-94851720D01*
X125663386Y-94610818D01*
X125577995Y-94382182D01*
X125536617Y-94304773D01*
X125312626Y-94256979D01*
X124639605Y-94930000D01*
X124280395Y-94930000D01*
X123607374Y-94256979D01*
X123383383Y-94304773D01*
X123282094Y-94526824D01*
X123226071Y-94764369D01*
X123217468Y-95008280D01*
X120777000Y-95008280D01*
X120777000Y-92907969D01*
X123221000Y-92907969D01*
X123221000Y-93152031D01*
X123268614Y-93391403D01*
X123362012Y-93616887D01*
X123497606Y-93819816D01*
X123670184Y-93992394D01*
X123788275Y-94071301D01*
X123786979Y-94077374D01*
X124460000Y-94750395D01*
X125133021Y-94077374D01*
X125131725Y-94071301D01*
X125249816Y-93992394D01*
X125422394Y-93819816D01*
X125557988Y-93616887D01*
X125651386Y-93391403D01*
X125699000Y-93152031D01*
X125699000Y-92907969D01*
X125651386Y-92668597D01*
X125557988Y-92443113D01*
X125422394Y-92240184D01*
X125249816Y-92067606D01*
X125046887Y-91932012D01*
X124821403Y-91838614D01*
X124582031Y-91791000D01*
X124337969Y-91791000D01*
X124098597Y-91838614D01*
X123873113Y-91932012D01*
X123670184Y-92067606D01*
X123497606Y-92240184D01*
X123362012Y-92443113D01*
X123268614Y-92668597D01*
X123221000Y-92907969D01*
X120777000Y-92907969D01*
X120777000Y-90068061D01*
X128505000Y-90068061D01*
X128505000Y-90271939D01*
X128544774Y-90471898D01*
X128622795Y-90660256D01*
X128736063Y-90829774D01*
X128880226Y-90973937D01*
X129049744Y-91087205D01*
X129238102Y-91165226D01*
X129438061Y-91205000D01*
X129641939Y-91205000D01*
X129841898Y-91165226D01*
X130030256Y-91087205D01*
X130199774Y-90973937D01*
X130343937Y-90829774D01*
X130457205Y-90660256D01*
X130535226Y-90471898D01*
X130575000Y-90271939D01*
X130575000Y-90068061D01*
X130535226Y-89868102D01*
X130457205Y-89679744D01*
X130343937Y-89510226D01*
X130199774Y-89366063D01*
X130030256Y-89252795D01*
X129841898Y-89174774D01*
X129641939Y-89135000D01*
X129438061Y-89135000D01*
X129238102Y-89174774D01*
X129049744Y-89252795D01*
X128880226Y-89366063D01*
X128736063Y-89510226D01*
X128622795Y-89679744D01*
X128544774Y-89868102D01*
X128505000Y-90068061D01*
X120777000Y-90068061D01*
X120777000Y-88330000D01*
X144319428Y-88330000D01*
X144331688Y-88454482D01*
X144367998Y-88574180D01*
X144426963Y-88684494D01*
X144506315Y-88781185D01*
X144603006Y-88860537D01*
X144713320Y-88919502D01*
X144833018Y-88955812D01*
X144957500Y-88968072D01*
X145159250Y-88965000D01*
X145318000Y-88806250D01*
X145318000Y-87757000D01*
X144481250Y-87757000D01*
X144322500Y-87915750D01*
X144319428Y-88330000D01*
X120777000Y-88330000D01*
X120777000Y-86930000D01*
X144319428Y-86930000D01*
X144322500Y-87344250D01*
X144481250Y-87503000D01*
X145318000Y-87503000D01*
X145318000Y-86453750D01*
X145159250Y-86295000D01*
X144957500Y-86291928D01*
X144833018Y-86304188D01*
X144713320Y-86340498D01*
X144603006Y-86399463D01*
X144506315Y-86478815D01*
X144426963Y-86575506D01*
X144367998Y-86685820D01*
X144331688Y-86805518D01*
X144319428Y-86930000D01*
X120777000Y-86930000D01*
X120777000Y-79908061D01*
X142475000Y-79908061D01*
X142475000Y-80111939D01*
X142514774Y-80311898D01*
X142592795Y-80500256D01*
X142706063Y-80669774D01*
X142750000Y-80713711D01*
X142750001Y-83116288D01*
X142706063Y-83160226D01*
X142592795Y-83329744D01*
X142514774Y-83518102D01*
X142475000Y-83718061D01*
X142475000Y-83921939D01*
X142514774Y-84121898D01*
X142592795Y-84310256D01*
X142706063Y-84479774D01*
X142850226Y-84623937D01*
X143019744Y-84737205D01*
X143208102Y-84815226D01*
X143408061Y-84855000D01*
X143611939Y-84855000D01*
X143811898Y-84815226D01*
X144000256Y-84737205D01*
X144169774Y-84623937D01*
X144213711Y-84580000D01*
X144376327Y-84580000D01*
X144386553Y-84613709D01*
X144468042Y-84766164D01*
X144577708Y-84899792D01*
X144711336Y-85009458D01*
X144863791Y-85090947D01*
X145029215Y-85141128D01*
X145201250Y-85158072D01*
X145688750Y-85158072D01*
X145860785Y-85141128D01*
X146026209Y-85090947D01*
X146178664Y-85009458D01*
X146312292Y-84899792D01*
X146382500Y-84814244D01*
X146452708Y-84899792D01*
X146560000Y-84987845D01*
X146560001Y-86462155D01*
X146452708Y-86550208D01*
X146447492Y-86556564D01*
X146383685Y-86478815D01*
X146286994Y-86399463D01*
X146176680Y-86340498D01*
X146056982Y-86304188D01*
X145932500Y-86291928D01*
X145730750Y-86295000D01*
X145572000Y-86453750D01*
X145572000Y-87503000D01*
X145592000Y-87503000D01*
X145592000Y-87757000D01*
X145572000Y-87757000D01*
X145572000Y-88806250D01*
X145730750Y-88965000D01*
X145932500Y-88968072D01*
X146056982Y-88955812D01*
X146176680Y-88919502D01*
X146286994Y-88860537D01*
X146383685Y-88781185D01*
X146447492Y-88703436D01*
X146452708Y-88709792D01*
X146586336Y-88819458D01*
X146738791Y-88900947D01*
X146904215Y-88951128D01*
X147076250Y-88968072D01*
X147563750Y-88968072D01*
X147735785Y-88951128D01*
X147901209Y-88900947D01*
X148053664Y-88819458D01*
X148187292Y-88709792D01*
X148296958Y-88576164D01*
X148378447Y-88423709D01*
X148388673Y-88390000D01*
X149545199Y-88390000D01*
X150370000Y-89214802D01*
X150370001Y-91402668D01*
X150366324Y-91440000D01*
X150380998Y-91588985D01*
X150424454Y-91732246D01*
X150495026Y-91864276D01*
X150550616Y-91932012D01*
X150590000Y-91980001D01*
X150618998Y-92003799D01*
X151836200Y-93221002D01*
X151859999Y-93250001D01*
X151975724Y-93344974D01*
X152107753Y-93415546D01*
X152251014Y-93459003D01*
X152362667Y-93470000D01*
X152362676Y-93470000D01*
X152399999Y-93473676D01*
X152437322Y-93470000D01*
X154813897Y-93470000D01*
X154782068Y-93546842D01*
X154725000Y-93833740D01*
X154725000Y-94126260D01*
X154782068Y-94413158D01*
X154894010Y-94683411D01*
X155056525Y-94926632D01*
X155263368Y-95133475D01*
X155506589Y-95295990D01*
X155776842Y-95407932D01*
X156063740Y-95465000D01*
X156356260Y-95465000D01*
X156643158Y-95407932D01*
X156913411Y-95295990D01*
X157156632Y-95133475D01*
X157363475Y-94926632D01*
X157480000Y-94752240D01*
X157596525Y-94926632D01*
X157803368Y-95133475D01*
X158046589Y-95295990D01*
X158316842Y-95407932D01*
X158603740Y-95465000D01*
X158896260Y-95465000D01*
X159183158Y-95407932D01*
X159453411Y-95295990D01*
X159696632Y-95133475D01*
X159903475Y-94926632D01*
X160065990Y-94683411D01*
X160177932Y-94413158D01*
X160235000Y-94126260D01*
X160235000Y-93833740D01*
X160177932Y-93546842D01*
X160065990Y-93276589D01*
X159903475Y-93033368D01*
X159696632Y-92826525D01*
X159522240Y-92710000D01*
X159696632Y-92593475D01*
X159903475Y-92386632D01*
X160065990Y-92143411D01*
X160177932Y-91873158D01*
X160235000Y-91586260D01*
X160235000Y-91293740D01*
X160177932Y-91006842D01*
X160065990Y-90736589D01*
X159903475Y-90493368D01*
X159696632Y-90286525D01*
X159522240Y-90170000D01*
X159696632Y-90053475D01*
X159903475Y-89846632D01*
X160065990Y-89603411D01*
X160177932Y-89333158D01*
X160235000Y-89046260D01*
X160235000Y-88753740D01*
X160177932Y-88466842D01*
X160065990Y-88196589D01*
X159903475Y-87953368D01*
X159696632Y-87746525D01*
X159522240Y-87630000D01*
X159696632Y-87513475D01*
X159903475Y-87306632D01*
X160065990Y-87063411D01*
X160177932Y-86793158D01*
X160235000Y-86506260D01*
X160235000Y-86213740D01*
X160177932Y-85926842D01*
X160065990Y-85656589D01*
X159903475Y-85413368D01*
X159696632Y-85206525D01*
X159522240Y-85090000D01*
X159696632Y-84973475D01*
X159903475Y-84766632D01*
X160065990Y-84523411D01*
X160177932Y-84253158D01*
X160235000Y-83966260D01*
X160235000Y-83673740D01*
X160177932Y-83386842D01*
X160065990Y-83116589D01*
X159903475Y-82873368D01*
X159771620Y-82741513D01*
X159844180Y-82719502D01*
X159954494Y-82660537D01*
X160051185Y-82581185D01*
X160130537Y-82484494D01*
X160189502Y-82374180D01*
X160225812Y-82254482D01*
X160238072Y-82130000D01*
X160238072Y-80430000D01*
X160225812Y-80305518D01*
X160189502Y-80185820D01*
X160130537Y-80075506D01*
X160051185Y-79978815D01*
X159954494Y-79899463D01*
X159844180Y-79840498D01*
X159724482Y-79804188D01*
X159600000Y-79791928D01*
X157900000Y-79791928D01*
X157775518Y-79804188D01*
X157655820Y-79840498D01*
X157545506Y-79899463D01*
X157448815Y-79978815D01*
X157369463Y-80075506D01*
X157310498Y-80185820D01*
X157288487Y-80258380D01*
X157156632Y-80126525D01*
X156913411Y-79964010D01*
X156643158Y-79852068D01*
X156356260Y-79795000D01*
X156063740Y-79795000D01*
X155776842Y-79852068D01*
X155506589Y-79964010D01*
X155263368Y-80126525D01*
X155056525Y-80333368D01*
X154894010Y-80576589D01*
X154782068Y-80846842D01*
X154725000Y-81133740D01*
X154725000Y-81426260D01*
X154782068Y-81713158D01*
X154894010Y-81983411D01*
X155056525Y-82226632D01*
X155263368Y-82433475D01*
X155437760Y-82550000D01*
X155263368Y-82666525D01*
X155056525Y-82873368D01*
X154894010Y-83116589D01*
X154782068Y-83386842D01*
X154725000Y-83673740D01*
X154725000Y-83966260D01*
X154782068Y-84253158D01*
X154813897Y-84330000D01*
X150563711Y-84330000D01*
X150519774Y-84286063D01*
X150350256Y-84172795D01*
X150161898Y-84094774D01*
X149961939Y-84055000D01*
X149758061Y-84055000D01*
X149558102Y-84094774D01*
X149369744Y-84172795D01*
X149200226Y-84286063D01*
X149056063Y-84430226D01*
X148942795Y-84599744D01*
X148864774Y-84788102D01*
X148825000Y-84988061D01*
X148825000Y-85191939D01*
X148864774Y-85391898D01*
X148942795Y-85580256D01*
X149056063Y-85749774D01*
X149200226Y-85893937D01*
X149369744Y-86007205D01*
X149558102Y-86085226D01*
X149758061Y-86125000D01*
X149961939Y-86125000D01*
X150161898Y-86085226D01*
X150350256Y-86007205D01*
X150519774Y-85893937D01*
X150563711Y-85850000D01*
X154813897Y-85850000D01*
X154782068Y-85926842D01*
X154725000Y-86213740D01*
X154725000Y-86506260D01*
X154782068Y-86793158D01*
X154894010Y-87063411D01*
X155056525Y-87306632D01*
X155263368Y-87513475D01*
X155445534Y-87635195D01*
X155328645Y-87704822D01*
X155112412Y-87899731D01*
X154938359Y-88133080D01*
X154813175Y-88395901D01*
X154768524Y-88543110D01*
X154889845Y-88773000D01*
X156083000Y-88773000D01*
X156083000Y-88753000D01*
X156337000Y-88753000D01*
X156337000Y-88773000D01*
X156357000Y-88773000D01*
X156357000Y-89027000D01*
X156337000Y-89027000D01*
X156337000Y-91313000D01*
X156357000Y-91313000D01*
X156357000Y-91567000D01*
X156337000Y-91567000D01*
X156337000Y-91587000D01*
X156083000Y-91587000D01*
X156083000Y-91567000D01*
X154889845Y-91567000D01*
X154768524Y-91796890D01*
X154813175Y-91944099D01*
X154815986Y-91950000D01*
X152714802Y-91950000D01*
X151890000Y-91125199D01*
X151890000Y-89256890D01*
X154768524Y-89256890D01*
X154813175Y-89404099D01*
X154938359Y-89666920D01*
X155112412Y-89900269D01*
X155328645Y-90095178D01*
X155454255Y-90170000D01*
X155328645Y-90244822D01*
X155112412Y-90439731D01*
X154938359Y-90673080D01*
X154813175Y-90935901D01*
X154768524Y-91083110D01*
X154889845Y-91313000D01*
X156083000Y-91313000D01*
X156083000Y-89027000D01*
X154889845Y-89027000D01*
X154768524Y-89256890D01*
X151890000Y-89256890D01*
X151890000Y-88937322D01*
X151893676Y-88899999D01*
X151890000Y-88862676D01*
X151890000Y-88862667D01*
X151879003Y-88751014D01*
X151835546Y-88607753D01*
X151764974Y-88475724D01*
X151670001Y-88359999D01*
X151641004Y-88336202D01*
X150423804Y-87119003D01*
X150400001Y-87089999D01*
X150284276Y-86995026D01*
X150152247Y-86924454D01*
X150008986Y-86880997D01*
X149897333Y-86870000D01*
X149897322Y-86870000D01*
X149860000Y-86866324D01*
X149822678Y-86870000D01*
X148388673Y-86870000D01*
X148378447Y-86836291D01*
X148296958Y-86683836D01*
X148187292Y-86550208D01*
X148080000Y-86462155D01*
X148080000Y-84987845D01*
X148187292Y-84899792D01*
X148296958Y-84766164D01*
X148378447Y-84613709D01*
X148428628Y-84448285D01*
X148445572Y-84276250D01*
X148445572Y-83363750D01*
X148428628Y-83191715D01*
X148378447Y-83026291D01*
X148296958Y-82873836D01*
X148187292Y-82740208D01*
X148053664Y-82630542D01*
X147901209Y-82549053D01*
X147735785Y-82498872D01*
X147563750Y-82481928D01*
X147076250Y-82481928D01*
X146904215Y-82498872D01*
X146738791Y-82549053D01*
X146586336Y-82630542D01*
X146452708Y-82740208D01*
X146382500Y-82825756D01*
X146312292Y-82740208D01*
X146178664Y-82630542D01*
X146026209Y-82549053D01*
X145860785Y-82498872D01*
X145688750Y-82481928D01*
X145201250Y-82481928D01*
X145029215Y-82498872D01*
X144863791Y-82549053D01*
X144711336Y-82630542D01*
X144577708Y-82740208D01*
X144468042Y-82873836D01*
X144386553Y-83026291D01*
X144376327Y-83060000D01*
X144270000Y-83060000D01*
X144270000Y-80713711D01*
X144313937Y-80669774D01*
X144427205Y-80500256D01*
X144505226Y-80311898D01*
X144545000Y-80111939D01*
X144545000Y-79908061D01*
X144505226Y-79708102D01*
X144427205Y-79519744D01*
X144313937Y-79350226D01*
X144169774Y-79206063D01*
X144000256Y-79092795D01*
X143811898Y-79014774D01*
X143611939Y-78975000D01*
X143408061Y-78975000D01*
X143208102Y-79014774D01*
X143019744Y-79092795D01*
X142850226Y-79206063D01*
X142706063Y-79350226D01*
X142592795Y-79519744D01*
X142514774Y-79708102D01*
X142475000Y-79908061D01*
X120777000Y-79908061D01*
X120777000Y-78867000D01*
X161163000Y-78867000D01*
X161163000Y-98933000D01*
G37*
X161163000Y-98933000D02*
X120777000Y-98933000D01*
X120777000Y-96300858D01*
X132395016Y-96300858D01*
X132395016Y-96739142D01*
X132480521Y-97169004D01*
X132648245Y-97573925D01*
X132891742Y-97938345D01*
X133201655Y-98248258D01*
X133566075Y-98491755D01*
X133970996Y-98659479D01*
X134400858Y-98744984D01*
X134839142Y-98744984D01*
X135269004Y-98659479D01*
X135673925Y-98491755D01*
X136038345Y-98248258D01*
X136348258Y-97938345D01*
X136591755Y-97573925D01*
X136759479Y-97169004D01*
X136844984Y-96739142D01*
X136844984Y-96300858D01*
X146365016Y-96300858D01*
X146365016Y-96739142D01*
X146450521Y-97169004D01*
X146618245Y-97573925D01*
X146861742Y-97938345D01*
X147171655Y-98248258D01*
X147536075Y-98491755D01*
X147940996Y-98659479D01*
X148370858Y-98744984D01*
X148809142Y-98744984D01*
X149239004Y-98659479D01*
X149643925Y-98491755D01*
X150008345Y-98248258D01*
X150318258Y-97938345D01*
X150561755Y-97573925D01*
X150729479Y-97169004D01*
X150814984Y-96739142D01*
X150814984Y-96300858D01*
X150729479Y-95870996D01*
X150561755Y-95466075D01*
X150318258Y-95101655D01*
X150008345Y-94791742D01*
X149643925Y-94548245D01*
X149239004Y-94380521D01*
X148809142Y-94295016D01*
X148370858Y-94295016D01*
X147940996Y-94380521D01*
X147536075Y-94548245D01*
X147171655Y-94791742D01*
X146861742Y-95101655D01*
X146618245Y-95466075D01*
X146450521Y-95870996D01*
X146365016Y-96300858D01*
X136844984Y-96300858D01*
X136759479Y-95870996D01*
X136591755Y-95466075D01*
X136348258Y-95101655D01*
X136038345Y-94791742D01*
X135673925Y-94548245D01*
X135269004Y-94380521D01*
X134839142Y-94295016D01*
X134400858Y-94295016D01*
X133970996Y-94380521D01*
X133566075Y-94548245D01*
X133201655Y-94791742D01*
X132891742Y-95101655D01*
X132648245Y-95466075D01*
X132480521Y-95870996D01*
X132395016Y-96300858D01*
X120777000Y-96300858D01*
X120777000Y-95782626D01*
X123786979Y-95782626D01*
X123834773Y-96006617D01*
X124056824Y-96107906D01*
X124294369Y-96163929D01*
X124538280Y-96172532D01*
X124779182Y-96133386D01*
X125007818Y-96047995D01*
X125085227Y-96006617D01*
X125133021Y-95782626D01*
X124460000Y-95109605D01*
X123786979Y-95782626D01*
X120777000Y-95782626D01*
X120777000Y-95008280D01*
X123217468Y-95008280D01*
X123256614Y-95249182D01*
X123342005Y-95477818D01*
X123383383Y-95555227D01*
X123607374Y-95603021D01*
X124280395Y-94930000D01*
X124639605Y-94930000D01*
X125312626Y-95603021D01*
X125536617Y-95555227D01*
X125637906Y-95333176D01*
X125693929Y-95095631D01*
X125702532Y-94851720D01*
X125663386Y-94610818D01*
X125577995Y-94382182D01*
X125536617Y-94304773D01*
X125312626Y-94256979D01*
X124639605Y-94930000D01*
X124280395Y-94930000D01*
X123607374Y-94256979D01*
X123383383Y-94304773D01*
X123282094Y-94526824D01*
X123226071Y-94764369D01*
X123217468Y-95008280D01*
X120777000Y-95008280D01*
X120777000Y-92907969D01*
X123221000Y-92907969D01*
X123221000Y-93152031D01*
X123268614Y-93391403D01*
X123362012Y-93616887D01*
X123497606Y-93819816D01*
X123670184Y-93992394D01*
X123788275Y-94071301D01*
X123786979Y-94077374D01*
X124460000Y-94750395D01*
X125133021Y-94077374D01*
X125131725Y-94071301D01*
X125249816Y-93992394D01*
X125422394Y-93819816D01*
X125557988Y-93616887D01*
X125651386Y-93391403D01*
X125699000Y-93152031D01*
X125699000Y-92907969D01*
X125651386Y-92668597D01*
X125557988Y-92443113D01*
X125422394Y-92240184D01*
X125249816Y-92067606D01*
X125046887Y-91932012D01*
X124821403Y-91838614D01*
X124582031Y-91791000D01*
X124337969Y-91791000D01*
X124098597Y-91838614D01*
X123873113Y-91932012D01*
X123670184Y-92067606D01*
X123497606Y-92240184D01*
X123362012Y-92443113D01*
X123268614Y-92668597D01*
X123221000Y-92907969D01*
X120777000Y-92907969D01*
X120777000Y-90068061D01*
X128505000Y-90068061D01*
X128505000Y-90271939D01*
X128544774Y-90471898D01*
X128622795Y-90660256D01*
X128736063Y-90829774D01*
X128880226Y-90973937D01*
X129049744Y-91087205D01*
X129238102Y-91165226D01*
X129438061Y-91205000D01*
X129641939Y-91205000D01*
X129841898Y-91165226D01*
X130030256Y-91087205D01*
X130199774Y-90973937D01*
X130343937Y-90829774D01*
X130457205Y-90660256D01*
X130535226Y-90471898D01*
X130575000Y-90271939D01*
X130575000Y-90068061D01*
X130535226Y-89868102D01*
X130457205Y-89679744D01*
X130343937Y-89510226D01*
X130199774Y-89366063D01*
X130030256Y-89252795D01*
X129841898Y-89174774D01*
X129641939Y-89135000D01*
X129438061Y-89135000D01*
X129238102Y-89174774D01*
X129049744Y-89252795D01*
X128880226Y-89366063D01*
X128736063Y-89510226D01*
X128622795Y-89679744D01*
X128544774Y-89868102D01*
X128505000Y-90068061D01*
X120777000Y-90068061D01*
X120777000Y-88330000D01*
X144319428Y-88330000D01*
X144331688Y-88454482D01*
X144367998Y-88574180D01*
X144426963Y-88684494D01*
X144506315Y-88781185D01*
X144603006Y-88860537D01*
X144713320Y-88919502D01*
X144833018Y-88955812D01*
X144957500Y-88968072D01*
X145159250Y-88965000D01*
X145318000Y-88806250D01*
X145318000Y-87757000D01*
X144481250Y-87757000D01*
X144322500Y-87915750D01*
X144319428Y-88330000D01*
X120777000Y-88330000D01*
X120777000Y-86930000D01*
X144319428Y-86930000D01*
X144322500Y-87344250D01*
X144481250Y-87503000D01*
X145318000Y-87503000D01*
X145318000Y-86453750D01*
X145159250Y-86295000D01*
X144957500Y-86291928D01*
X144833018Y-86304188D01*
X144713320Y-86340498D01*
X144603006Y-86399463D01*
X144506315Y-86478815D01*
X144426963Y-86575506D01*
X144367998Y-86685820D01*
X144331688Y-86805518D01*
X144319428Y-86930000D01*
X120777000Y-86930000D01*
X120777000Y-79908061D01*
X142475000Y-79908061D01*
X142475000Y-80111939D01*
X142514774Y-80311898D01*
X142592795Y-80500256D01*
X142706063Y-80669774D01*
X142750000Y-80713711D01*
X142750001Y-83116288D01*
X142706063Y-83160226D01*
X142592795Y-83329744D01*
X142514774Y-83518102D01*
X142475000Y-83718061D01*
X142475000Y-83921939D01*
X142514774Y-84121898D01*
X142592795Y-84310256D01*
X142706063Y-84479774D01*
X142850226Y-84623937D01*
X143019744Y-84737205D01*
X143208102Y-84815226D01*
X143408061Y-84855000D01*
X143611939Y-84855000D01*
X143811898Y-84815226D01*
X144000256Y-84737205D01*
X144169774Y-84623937D01*
X144213711Y-84580000D01*
X144376327Y-84580000D01*
X144386553Y-84613709D01*
X144468042Y-84766164D01*
X144577708Y-84899792D01*
X144711336Y-85009458D01*
X144863791Y-85090947D01*
X145029215Y-85141128D01*
X145201250Y-85158072D01*
X145688750Y-85158072D01*
X145860785Y-85141128D01*
X146026209Y-85090947D01*
X146178664Y-85009458D01*
X146312292Y-84899792D01*
X146382500Y-84814244D01*
X146452708Y-84899792D01*
X146560000Y-84987845D01*
X146560001Y-86462155D01*
X146452708Y-86550208D01*
X146447492Y-86556564D01*
X146383685Y-86478815D01*
X146286994Y-86399463D01*
X146176680Y-86340498D01*
X146056982Y-86304188D01*
X145932500Y-86291928D01*
X145730750Y-86295000D01*
X145572000Y-86453750D01*
X145572000Y-87503000D01*
X145592000Y-87503000D01*
X145592000Y-87757000D01*
X145572000Y-87757000D01*
X145572000Y-88806250D01*
X145730750Y-88965000D01*
X145932500Y-88968072D01*
X146056982Y-88955812D01*
X146176680Y-88919502D01*
X146286994Y-88860537D01*
X146383685Y-88781185D01*
X146447492Y-88703436D01*
X146452708Y-88709792D01*
X146586336Y-88819458D01*
X146738791Y-88900947D01*
X146904215Y-88951128D01*
X147076250Y-88968072D01*
X147563750Y-88968072D01*
X147735785Y-88951128D01*
X147901209Y-88900947D01*
X148053664Y-88819458D01*
X148187292Y-88709792D01*
X148296958Y-88576164D01*
X148378447Y-88423709D01*
X148388673Y-88390000D01*
X149545199Y-88390000D01*
X150370000Y-89214802D01*
X150370001Y-91402668D01*
X150366324Y-91440000D01*
X150380998Y-91588985D01*
X150424454Y-91732246D01*
X150495026Y-91864276D01*
X150550616Y-91932012D01*
X150590000Y-91980001D01*
X150618998Y-92003799D01*
X151836200Y-93221002D01*
X151859999Y-93250001D01*
X151975724Y-93344974D01*
X152107753Y-93415546D01*
X152251014Y-93459003D01*
X152362667Y-93470000D01*
X152362676Y-93470000D01*
X152399999Y-93473676D01*
X152437322Y-93470000D01*
X154813897Y-93470000D01*
X154782068Y-93546842D01*
X154725000Y-93833740D01*
X154725000Y-94126260D01*
X154782068Y-94413158D01*
X154894010Y-94683411D01*
X155056525Y-94926632D01*
X155263368Y-95133475D01*
X155506589Y-95295990D01*
X155776842Y-95407932D01*
X156063740Y-95465000D01*
X156356260Y-95465000D01*
X156643158Y-95407932D01*
X156913411Y-95295990D01*
X157156632Y-95133475D01*
X157363475Y-94926632D01*
X157480000Y-94752240D01*
X157596525Y-94926632D01*
X157803368Y-95133475D01*
X158046589Y-95295990D01*
X158316842Y-95407932D01*
X158603740Y-95465000D01*
X158896260Y-95465000D01*
X159183158Y-95407932D01*
X159453411Y-95295990D01*
X159696632Y-95133475D01*
X159903475Y-94926632D01*
X160065990Y-94683411D01*
X160177932Y-94413158D01*
X160235000Y-94126260D01*
X160235000Y-93833740D01*
X160177932Y-93546842D01*
X160065990Y-93276589D01*
X159903475Y-93033368D01*
X159696632Y-92826525D01*
X159522240Y-92710000D01*
X159696632Y-92593475D01*
X159903475Y-92386632D01*
X160065990Y-92143411D01*
X160177932Y-91873158D01*
X160235000Y-91586260D01*
X160235000Y-91293740D01*
X160177932Y-91006842D01*
X160065990Y-90736589D01*
X159903475Y-90493368D01*
X159696632Y-90286525D01*
X159522240Y-90170000D01*
X159696632Y-90053475D01*
X159903475Y-89846632D01*
X160065990Y-89603411D01*
X160177932Y-89333158D01*
X160235000Y-89046260D01*
X160235000Y-88753740D01*
X160177932Y-88466842D01*
X160065990Y-88196589D01*
X159903475Y-87953368D01*
X159696632Y-87746525D01*
X159522240Y-87630000D01*
X159696632Y-87513475D01*
X159903475Y-87306632D01*
X160065990Y-87063411D01*
X160177932Y-86793158D01*
X160235000Y-86506260D01*
X160235000Y-86213740D01*
X160177932Y-85926842D01*
X160065990Y-85656589D01*
X159903475Y-85413368D01*
X159696632Y-85206525D01*
X159522240Y-85090000D01*
X159696632Y-84973475D01*
X159903475Y-84766632D01*
X160065990Y-84523411D01*
X160177932Y-84253158D01*
X160235000Y-83966260D01*
X160235000Y-83673740D01*
X160177932Y-83386842D01*
X160065990Y-83116589D01*
X159903475Y-82873368D01*
X159771620Y-82741513D01*
X159844180Y-82719502D01*
X159954494Y-82660537D01*
X160051185Y-82581185D01*
X160130537Y-82484494D01*
X160189502Y-82374180D01*
X160225812Y-82254482D01*
X160238072Y-82130000D01*
X160238072Y-80430000D01*
X160225812Y-80305518D01*
X160189502Y-80185820D01*
X160130537Y-80075506D01*
X160051185Y-79978815D01*
X159954494Y-79899463D01*
X159844180Y-79840498D01*
X159724482Y-79804188D01*
X159600000Y-79791928D01*
X157900000Y-79791928D01*
X157775518Y-79804188D01*
X157655820Y-79840498D01*
X157545506Y-79899463D01*
X157448815Y-79978815D01*
X157369463Y-80075506D01*
X157310498Y-80185820D01*
X157288487Y-80258380D01*
X157156632Y-80126525D01*
X156913411Y-79964010D01*
X156643158Y-79852068D01*
X156356260Y-79795000D01*
X156063740Y-79795000D01*
X155776842Y-79852068D01*
X155506589Y-79964010D01*
X155263368Y-80126525D01*
X155056525Y-80333368D01*
X154894010Y-80576589D01*
X154782068Y-80846842D01*
X154725000Y-81133740D01*
X154725000Y-81426260D01*
X154782068Y-81713158D01*
X154894010Y-81983411D01*
X155056525Y-82226632D01*
X155263368Y-82433475D01*
X155437760Y-82550000D01*
X155263368Y-82666525D01*
X155056525Y-82873368D01*
X154894010Y-83116589D01*
X154782068Y-83386842D01*
X154725000Y-83673740D01*
X154725000Y-83966260D01*
X154782068Y-84253158D01*
X154813897Y-84330000D01*
X150563711Y-84330000D01*
X150519774Y-84286063D01*
X150350256Y-84172795D01*
X150161898Y-84094774D01*
X149961939Y-84055000D01*
X149758061Y-84055000D01*
X149558102Y-84094774D01*
X149369744Y-84172795D01*
X149200226Y-84286063D01*
X149056063Y-84430226D01*
X148942795Y-84599744D01*
X148864774Y-84788102D01*
X148825000Y-84988061D01*
X148825000Y-85191939D01*
X148864774Y-85391898D01*
X148942795Y-85580256D01*
X149056063Y-85749774D01*
X149200226Y-85893937D01*
X149369744Y-86007205D01*
X149558102Y-86085226D01*
X149758061Y-86125000D01*
X149961939Y-86125000D01*
X150161898Y-86085226D01*
X150350256Y-86007205D01*
X150519774Y-85893937D01*
X150563711Y-85850000D01*
X154813897Y-85850000D01*
X154782068Y-85926842D01*
X154725000Y-86213740D01*
X154725000Y-86506260D01*
X154782068Y-86793158D01*
X154894010Y-87063411D01*
X155056525Y-87306632D01*
X155263368Y-87513475D01*
X155445534Y-87635195D01*
X155328645Y-87704822D01*
X155112412Y-87899731D01*
X154938359Y-88133080D01*
X154813175Y-88395901D01*
X154768524Y-88543110D01*
X154889845Y-88773000D01*
X156083000Y-88773000D01*
X156083000Y-88753000D01*
X156337000Y-88753000D01*
X156337000Y-88773000D01*
X156357000Y-88773000D01*
X156357000Y-89027000D01*
X156337000Y-89027000D01*
X156337000Y-91313000D01*
X156357000Y-91313000D01*
X156357000Y-91567000D01*
X156337000Y-91567000D01*
X156337000Y-91587000D01*
X156083000Y-91587000D01*
X156083000Y-91567000D01*
X154889845Y-91567000D01*
X154768524Y-91796890D01*
X154813175Y-91944099D01*
X154815986Y-91950000D01*
X152714802Y-91950000D01*
X151890000Y-91125199D01*
X151890000Y-89256890D01*
X154768524Y-89256890D01*
X154813175Y-89404099D01*
X154938359Y-89666920D01*
X155112412Y-89900269D01*
X155328645Y-90095178D01*
X155454255Y-90170000D01*
X155328645Y-90244822D01*
X155112412Y-90439731D01*
X154938359Y-90673080D01*
X154813175Y-90935901D01*
X154768524Y-91083110D01*
X154889845Y-91313000D01*
X156083000Y-91313000D01*
X156083000Y-89027000D01*
X154889845Y-89027000D01*
X154768524Y-89256890D01*
X151890000Y-89256890D01*
X151890000Y-88937322D01*
X151893676Y-88899999D01*
X151890000Y-88862676D01*
X151890000Y-88862667D01*
X151879003Y-88751014D01*
X151835546Y-88607753D01*
X151764974Y-88475724D01*
X151670001Y-88359999D01*
X151641004Y-88336202D01*
X150423804Y-87119003D01*
X150400001Y-87089999D01*
X150284276Y-86995026D01*
X150152247Y-86924454D01*
X150008986Y-86880997D01*
X149897333Y-86870000D01*
X149897322Y-86870000D01*
X149860000Y-86866324D01*
X149822678Y-86870000D01*
X148388673Y-86870000D01*
X148378447Y-86836291D01*
X148296958Y-86683836D01*
X148187292Y-86550208D01*
X148080000Y-86462155D01*
X148080000Y-84987845D01*
X148187292Y-84899792D01*
X148296958Y-84766164D01*
X148378447Y-84613709D01*
X148428628Y-84448285D01*
X148445572Y-84276250D01*
X148445572Y-83363750D01*
X148428628Y-83191715D01*
X148378447Y-83026291D01*
X148296958Y-82873836D01*
X148187292Y-82740208D01*
X148053664Y-82630542D01*
X147901209Y-82549053D01*
X147735785Y-82498872D01*
X147563750Y-82481928D01*
X147076250Y-82481928D01*
X146904215Y-82498872D01*
X146738791Y-82549053D01*
X146586336Y-82630542D01*
X146452708Y-82740208D01*
X146382500Y-82825756D01*
X146312292Y-82740208D01*
X146178664Y-82630542D01*
X146026209Y-82549053D01*
X145860785Y-82498872D01*
X145688750Y-82481928D01*
X145201250Y-82481928D01*
X145029215Y-82498872D01*
X144863791Y-82549053D01*
X144711336Y-82630542D01*
X144577708Y-82740208D01*
X144468042Y-82873836D01*
X144386553Y-83026291D01*
X144376327Y-83060000D01*
X144270000Y-83060000D01*
X144270000Y-80713711D01*
X144313937Y-80669774D01*
X144427205Y-80500256D01*
X144505226Y-80311898D01*
X144545000Y-80111939D01*
X144545000Y-79908061D01*
X144505226Y-79708102D01*
X144427205Y-79519744D01*
X144313937Y-79350226D01*
X144169774Y-79206063D01*
X144000256Y-79092795D01*
X143811898Y-79014774D01*
X143611939Y-78975000D01*
X143408061Y-78975000D01*
X143208102Y-79014774D01*
X143019744Y-79092795D01*
X142850226Y-79206063D01*
X142706063Y-79350226D01*
X142592795Y-79519744D01*
X142514774Y-79708102D01*
X142475000Y-79908061D01*
X120777000Y-79908061D01*
X120777000Y-78867000D01*
X161163000Y-78867000D01*
X161163000Y-98933000D01*
G36*
X157596525Y-89846632D02*
G01*
X157803368Y-90053475D01*
X157977760Y-90170000D01*
X157803368Y-90286525D01*
X157596525Y-90493368D01*
X157478900Y-90669406D01*
X157307588Y-90439731D01*
X157091355Y-90244822D01*
X156965745Y-90170000D01*
X157091355Y-90095178D01*
X157307588Y-89900269D01*
X157478900Y-89670594D01*
X157596525Y-89846632D01*
G37*
X157596525Y-89846632D02*
X157803368Y-90053475D01*
X157977760Y-90170000D01*
X157803368Y-90286525D01*
X157596525Y-90493368D01*
X157478900Y-90669406D01*
X157307588Y-90439731D01*
X157091355Y-90244822D01*
X156965745Y-90170000D01*
X157091355Y-90095178D01*
X157307588Y-89900269D01*
X157478900Y-89670594D01*
X157596525Y-89846632D01*
M02*
