M48
; DRILL file {KiCad (5.1.5-0-10_14)} date Tuesday, March 24, 2020 at 10:25:50 AM
; FORMAT={-:-/ absolute / inch / decimal}
; #@! TF.CreationDate,2020-03-24T10:25:50-05:00
; #@! TF.GenerationSoftware,Kicad,Pcbnew,(5.1.5-0-10_14)
; #@! TF.FileFunction,Plated,1,2,PTH
FMAT,2
INCH
T1C0.0157
T2C0.0394
%
G90
G05
T1
X5.3Y-3.2
X5.3Y-3.6
X5.5004Y-3.5496
X5.65Y-3.15
X5.65Y-3.3
X5.7002Y-3.5498
X5.9Y-3.35
X6.0Y-3.4
T2
X5.0Y-3.15
X5.0Y-3.3
X6.15Y-3.2
X6.15Y-3.3
X6.15Y-3.4
X6.15Y-3.5
X6.15Y-3.6
X6.15Y-3.7
X6.25Y-3.2
X6.25Y-3.3
X6.25Y-3.4
X6.25Y-3.5
X6.25Y-3.6
X6.25Y-3.7
T0
M30
