M48
; DRILL file {KiCad (5.1.5-0-10_14)} date Tuesday, March 24, 2020 at 08:34:06 PM
; FORMAT={-:-/ absolute / inch / decimal}
; #@! TF.CreationDate,2020-03-24T20:34:06-05:00
; #@! TF.GenerationSoftware,Kicad,Pcbnew,(5.1.5-0-10_14)
; #@! TF.FileFunction,Plated,1,2,PTH
FMAT,2
INCH
T1C0.0157
T2C0.0276
T3C0.0394
%
G90
G05
T1
X5.25Y-3.55
X5.25Y-3.55
X5.3Y-3.2
X5.3Y-3.55
X5.5004Y-3.5496
X5.65Y-3.15
X5.65Y-3.3
X5.9Y-3.35
X6.0Y-3.4
X6.05Y-3.55
T2
X4.9Y-3.5626
X4.9Y-3.6374
T3
X6.15Y-3.2
X6.15Y-3.3
X6.15Y-3.4
X6.15Y-3.5
X6.15Y-3.6
X6.15Y-3.7
X6.25Y-3.2
X6.25Y-3.3
X6.25Y-3.4
X6.25Y-3.5
X6.25Y-3.6
X6.25Y-3.7
T0
M30
