G04 #@! TF.GenerationSoftware,KiCad,Pcbnew,(5.1.5-0-10_14)*
G04 #@! TF.CreationDate,2020-03-10T20:52:17-05:00*
G04 #@! TF.ProjectId,Sensors,53656e73-6f72-4732-9e6b-696361645f70,rev?*
G04 #@! TF.SameCoordinates,Original*
G04 #@! TF.FileFunction,Paste,Top*
G04 #@! TF.FilePolarity,Positive*
%FSLAX46Y46*%
G04 Gerber Fmt 4.6, Leading zero omitted, Abs format (unit mm)*
G04 Created by KiCad (PCBNEW (5.1.5-0-10_14)) date 2020-03-10 20:52:17*
%MOMM*%
%LPD*%
G04 APERTURE LIST*
%ADD10C,0.010000*%
%ADD11C,0.100000*%
%ADD12C,0.612000*%
%ADD13C,0.562000*%
%ADD14C,0.723000*%
G04 APERTURE END LIST*
D10*
G36*
X126399563Y-92971628D02*
G01*
X126390034Y-92977124D01*
X126380412Y-92982219D01*
X126370613Y-92986963D01*
X126360649Y-92991351D01*
X126350533Y-92995376D01*
X126340279Y-92999035D01*
X126329899Y-93002320D01*
X126319408Y-93005230D01*
X126308819Y-93007759D01*
X126298145Y-93009905D01*
X126287401Y-93011664D01*
X126276600Y-93013035D01*
X126265757Y-93014016D01*
X126254886Y-93014604D01*
X126244000Y-93014801D01*
X126233114Y-93014604D01*
X126222243Y-93014016D01*
X126211400Y-93013035D01*
X126200599Y-93011664D01*
X126189855Y-93009905D01*
X126179181Y-93007759D01*
X126168592Y-93005230D01*
X126158101Y-93002320D01*
X126147721Y-92999035D01*
X126137467Y-92995376D01*
X126127351Y-92991351D01*
X126117387Y-92986963D01*
X126107588Y-92982219D01*
X126097966Y-92977124D01*
X126088437Y-92971628D01*
X125869590Y-93190478D01*
X125894226Y-93208997D01*
X125916269Y-93223977D01*
X125938953Y-93237969D01*
X125962233Y-93250944D01*
X125986064Y-93262877D01*
X126010398Y-93273746D01*
X126035190Y-93283528D01*
X126060389Y-93292205D01*
X126085948Y-93299760D01*
X126111815Y-93306177D01*
X126137941Y-93311445D01*
X126164274Y-93315553D01*
X126190763Y-93318493D01*
X126217356Y-93320259D01*
X126244001Y-93320848D01*
X126270646Y-93320259D01*
X126297239Y-93318493D01*
X126323728Y-93315553D01*
X126350061Y-93311445D01*
X126376187Y-93306177D01*
X126402054Y-93299760D01*
X126427613Y-93292205D01*
X126452812Y-93283528D01*
X126477604Y-93273746D01*
X126501938Y-93262877D01*
X126525769Y-93250944D01*
X126549049Y-93237969D01*
X126571733Y-93223977D01*
X126593776Y-93208997D01*
X126618412Y-93190478D01*
X126399563Y-92971628D01*
G37*
X126399563Y-92971628D02*
X126390034Y-92977124D01*
X126380412Y-92982219D01*
X126370613Y-92986963D01*
X126360649Y-92991351D01*
X126350533Y-92995376D01*
X126340279Y-92999035D01*
X126329899Y-93002320D01*
X126319408Y-93005230D01*
X126308819Y-93007759D01*
X126298145Y-93009905D01*
X126287401Y-93011664D01*
X126276600Y-93013035D01*
X126265757Y-93014016D01*
X126254886Y-93014604D01*
X126244000Y-93014801D01*
X126233114Y-93014604D01*
X126222243Y-93014016D01*
X126211400Y-93013035D01*
X126200599Y-93011664D01*
X126189855Y-93009905D01*
X126179181Y-93007759D01*
X126168592Y-93005230D01*
X126158101Y-93002320D01*
X126147721Y-92999035D01*
X126137467Y-92995376D01*
X126127351Y-92991351D01*
X126117387Y-92986963D01*
X126107588Y-92982219D01*
X126097966Y-92977124D01*
X126088437Y-92971628D01*
X125869590Y-93190478D01*
X125894226Y-93208997D01*
X125916269Y-93223977D01*
X125938953Y-93237969D01*
X125962233Y-93250944D01*
X125986064Y-93262877D01*
X126010398Y-93273746D01*
X126035190Y-93283528D01*
X126060389Y-93292205D01*
X126085948Y-93299760D01*
X126111815Y-93306177D01*
X126137941Y-93311445D01*
X126164274Y-93315553D01*
X126190763Y-93318493D01*
X126217356Y-93320259D01*
X126244001Y-93320848D01*
X126270646Y-93320259D01*
X126297239Y-93318493D01*
X126323728Y-93315553D01*
X126350061Y-93311445D01*
X126376187Y-93306177D01*
X126402054Y-93299760D01*
X126427613Y-93292205D01*
X126452812Y-93283528D01*
X126477604Y-93273746D01*
X126501938Y-93262877D01*
X126525769Y-93250944D01*
X126549049Y-93237969D01*
X126571733Y-93223977D01*
X126593776Y-93208997D01*
X126618412Y-93190478D01*
X126399563Y-92971628D01*
G36*
X125982370Y-92865562D02*
G01*
X125976874Y-92856033D01*
X125971779Y-92846412D01*
X125967035Y-92836612D01*
X125962647Y-92826648D01*
X125958622Y-92816533D01*
X125954964Y-92806278D01*
X125951678Y-92795899D01*
X125948768Y-92785408D01*
X125946239Y-92774818D01*
X125944093Y-92764145D01*
X125942334Y-92753400D01*
X125940963Y-92742600D01*
X125939983Y-92731757D01*
X125939394Y-92720885D01*
X125939197Y-92710000D01*
X125939394Y-92699115D01*
X125939983Y-92688243D01*
X125940963Y-92677400D01*
X125942334Y-92666600D01*
X125944093Y-92655855D01*
X125946239Y-92645182D01*
X125948768Y-92634592D01*
X125951678Y-92624101D01*
X125954964Y-92613722D01*
X125958622Y-92603467D01*
X125962647Y-92593352D01*
X125967035Y-92583388D01*
X125971779Y-92573588D01*
X125976874Y-92563967D01*
X125982370Y-92554438D01*
X125763520Y-92335588D01*
X125745001Y-92360225D01*
X125730021Y-92382268D01*
X125716029Y-92404951D01*
X125703054Y-92428231D01*
X125691121Y-92452062D01*
X125680252Y-92476397D01*
X125670470Y-92501188D01*
X125661793Y-92526388D01*
X125654238Y-92551946D01*
X125647821Y-92577814D01*
X125642553Y-92603940D01*
X125638445Y-92630273D01*
X125635505Y-92656762D01*
X125633738Y-92683355D01*
X125633149Y-92710000D01*
X125633738Y-92736645D01*
X125635505Y-92763238D01*
X125638445Y-92789727D01*
X125642553Y-92816060D01*
X125647821Y-92842186D01*
X125654238Y-92868054D01*
X125661793Y-92893612D01*
X125670470Y-92918812D01*
X125680252Y-92943603D01*
X125691121Y-92967938D01*
X125703054Y-92991769D01*
X125716029Y-93015049D01*
X125730021Y-93037732D01*
X125745001Y-93059775D01*
X125763520Y-93084412D01*
X125982370Y-92865562D01*
G37*
X125982370Y-92865562D02*
X125976874Y-92856033D01*
X125971779Y-92846412D01*
X125967035Y-92836612D01*
X125962647Y-92826648D01*
X125958622Y-92816533D01*
X125954964Y-92806278D01*
X125951678Y-92795899D01*
X125948768Y-92785408D01*
X125946239Y-92774818D01*
X125944093Y-92764145D01*
X125942334Y-92753400D01*
X125940963Y-92742600D01*
X125939983Y-92731757D01*
X125939394Y-92720885D01*
X125939197Y-92710000D01*
X125939394Y-92699115D01*
X125939983Y-92688243D01*
X125940963Y-92677400D01*
X125942334Y-92666600D01*
X125944093Y-92655855D01*
X125946239Y-92645182D01*
X125948768Y-92634592D01*
X125951678Y-92624101D01*
X125954964Y-92613722D01*
X125958622Y-92603467D01*
X125962647Y-92593352D01*
X125967035Y-92583388D01*
X125971779Y-92573588D01*
X125976874Y-92563967D01*
X125982370Y-92554438D01*
X125763520Y-92335588D01*
X125745001Y-92360225D01*
X125730021Y-92382268D01*
X125716029Y-92404951D01*
X125703054Y-92428231D01*
X125691121Y-92452062D01*
X125680252Y-92476397D01*
X125670470Y-92501188D01*
X125661793Y-92526388D01*
X125654238Y-92551946D01*
X125647821Y-92577814D01*
X125642553Y-92603940D01*
X125638445Y-92630273D01*
X125635505Y-92656762D01*
X125633738Y-92683355D01*
X125633149Y-92710000D01*
X125633738Y-92736645D01*
X125635505Y-92763238D01*
X125638445Y-92789727D01*
X125642553Y-92816060D01*
X125647821Y-92842186D01*
X125654238Y-92868054D01*
X125661793Y-92893612D01*
X125670470Y-92918812D01*
X125680252Y-92943603D01*
X125691121Y-92967938D01*
X125703054Y-92991769D01*
X125716029Y-93015049D01*
X125730021Y-93037732D01*
X125745001Y-93059775D01*
X125763520Y-93084412D01*
X125982370Y-92865562D01*
G36*
X126088437Y-92448372D02*
G01*
X126097966Y-92442876D01*
X126107588Y-92437781D01*
X126117387Y-92433037D01*
X126127351Y-92428649D01*
X126137467Y-92424624D01*
X126147721Y-92420965D01*
X126158101Y-92417680D01*
X126168592Y-92414770D01*
X126179181Y-92412241D01*
X126189855Y-92410095D01*
X126200599Y-92408336D01*
X126211400Y-92406965D01*
X126222243Y-92405984D01*
X126233114Y-92405396D01*
X126244000Y-92405199D01*
X126254886Y-92405396D01*
X126265757Y-92405984D01*
X126276600Y-92406965D01*
X126287401Y-92408336D01*
X126298145Y-92410095D01*
X126308819Y-92412241D01*
X126319408Y-92414770D01*
X126329899Y-92417680D01*
X126340279Y-92420965D01*
X126350533Y-92424624D01*
X126360649Y-92428649D01*
X126370613Y-92433037D01*
X126380412Y-92437781D01*
X126390034Y-92442876D01*
X126399563Y-92448372D01*
X126618412Y-92229522D01*
X126593776Y-92211003D01*
X126571733Y-92196023D01*
X126549049Y-92182031D01*
X126525769Y-92169056D01*
X126501938Y-92157123D01*
X126477604Y-92146254D01*
X126452812Y-92136472D01*
X126427613Y-92127795D01*
X126402054Y-92120240D01*
X126376187Y-92113823D01*
X126350061Y-92108555D01*
X126323728Y-92104447D01*
X126297239Y-92101507D01*
X126270646Y-92099741D01*
X126244001Y-92099152D01*
X126217356Y-92099741D01*
X126190763Y-92101507D01*
X126164274Y-92104447D01*
X126137941Y-92108555D01*
X126111815Y-92113823D01*
X126085948Y-92120240D01*
X126060389Y-92127795D01*
X126035190Y-92136472D01*
X126010398Y-92146254D01*
X125986064Y-92157123D01*
X125962233Y-92169056D01*
X125938953Y-92182031D01*
X125916269Y-92196023D01*
X125894226Y-92211003D01*
X125869590Y-92229522D01*
X126088437Y-92448372D01*
G37*
X126088437Y-92448372D02*
X126097966Y-92442876D01*
X126107588Y-92437781D01*
X126117387Y-92433037D01*
X126127351Y-92428649D01*
X126137467Y-92424624D01*
X126147721Y-92420965D01*
X126158101Y-92417680D01*
X126168592Y-92414770D01*
X126179181Y-92412241D01*
X126189855Y-92410095D01*
X126200599Y-92408336D01*
X126211400Y-92406965D01*
X126222243Y-92405984D01*
X126233114Y-92405396D01*
X126244000Y-92405199D01*
X126254886Y-92405396D01*
X126265757Y-92405984D01*
X126276600Y-92406965D01*
X126287401Y-92408336D01*
X126298145Y-92410095D01*
X126308819Y-92412241D01*
X126319408Y-92414770D01*
X126329899Y-92417680D01*
X126340279Y-92420965D01*
X126350533Y-92424624D01*
X126360649Y-92428649D01*
X126370613Y-92433037D01*
X126380412Y-92437781D01*
X126390034Y-92442876D01*
X126399563Y-92448372D01*
X126618412Y-92229522D01*
X126593776Y-92211003D01*
X126571733Y-92196023D01*
X126549049Y-92182031D01*
X126525769Y-92169056D01*
X126501938Y-92157123D01*
X126477604Y-92146254D01*
X126452812Y-92136472D01*
X126427613Y-92127795D01*
X126402054Y-92120240D01*
X126376187Y-92113823D01*
X126350061Y-92108555D01*
X126323728Y-92104447D01*
X126297239Y-92101507D01*
X126270646Y-92099741D01*
X126244001Y-92099152D01*
X126217356Y-92099741D01*
X126190763Y-92101507D01*
X126164274Y-92104447D01*
X126137941Y-92108555D01*
X126111815Y-92113823D01*
X126085948Y-92120240D01*
X126060389Y-92127795D01*
X126035190Y-92136472D01*
X126010398Y-92146254D01*
X125986064Y-92157123D01*
X125962233Y-92169056D01*
X125938953Y-92182031D01*
X125916269Y-92196023D01*
X125894226Y-92211003D01*
X125869590Y-92229522D01*
X126088437Y-92448372D01*
G36*
X126505628Y-92554438D02*
G01*
X126511124Y-92563967D01*
X126516219Y-92573588D01*
X126520963Y-92583388D01*
X126525351Y-92593352D01*
X126529376Y-92603467D01*
X126533034Y-92613722D01*
X126536320Y-92624101D01*
X126539230Y-92634592D01*
X126541759Y-92645182D01*
X126543905Y-92655855D01*
X126545664Y-92666600D01*
X126547035Y-92677400D01*
X126548015Y-92688243D01*
X126548604Y-92699115D01*
X126548801Y-92710000D01*
X126548604Y-92720885D01*
X126548015Y-92731757D01*
X126547035Y-92742600D01*
X126545664Y-92753400D01*
X126543905Y-92764145D01*
X126541759Y-92774818D01*
X126539230Y-92785408D01*
X126536320Y-92795899D01*
X126533034Y-92806278D01*
X126529376Y-92816533D01*
X126525351Y-92826648D01*
X126520963Y-92836612D01*
X126516219Y-92846412D01*
X126511124Y-92856033D01*
X126505628Y-92865562D01*
X126724478Y-93084412D01*
X126742997Y-93059775D01*
X126757977Y-93037732D01*
X126771969Y-93015049D01*
X126784944Y-92991769D01*
X126796877Y-92967938D01*
X126807746Y-92943603D01*
X126817528Y-92918812D01*
X126826205Y-92893612D01*
X126833760Y-92868054D01*
X126840177Y-92842186D01*
X126845445Y-92816060D01*
X126849553Y-92789727D01*
X126852493Y-92763238D01*
X126854260Y-92736645D01*
X126854849Y-92710000D01*
X126854260Y-92683355D01*
X126852493Y-92656762D01*
X126849553Y-92630273D01*
X126845445Y-92603940D01*
X126840177Y-92577814D01*
X126833760Y-92551946D01*
X126826205Y-92526388D01*
X126817528Y-92501188D01*
X126807746Y-92476397D01*
X126796877Y-92452062D01*
X126784944Y-92428231D01*
X126771969Y-92404951D01*
X126757977Y-92382268D01*
X126742997Y-92360225D01*
X126724478Y-92335588D01*
X126505628Y-92554438D01*
G37*
X126505628Y-92554438D02*
X126511124Y-92563967D01*
X126516219Y-92573588D01*
X126520963Y-92583388D01*
X126525351Y-92593352D01*
X126529376Y-92603467D01*
X126533034Y-92613722D01*
X126536320Y-92624101D01*
X126539230Y-92634592D01*
X126541759Y-92645182D01*
X126543905Y-92655855D01*
X126545664Y-92666600D01*
X126547035Y-92677400D01*
X126548015Y-92688243D01*
X126548604Y-92699115D01*
X126548801Y-92710000D01*
X126548604Y-92720885D01*
X126548015Y-92731757D01*
X126547035Y-92742600D01*
X126545664Y-92753400D01*
X126543905Y-92764145D01*
X126541759Y-92774818D01*
X126539230Y-92785408D01*
X126536320Y-92795899D01*
X126533034Y-92806278D01*
X126529376Y-92816533D01*
X126525351Y-92826648D01*
X126520963Y-92836612D01*
X126516219Y-92846412D01*
X126511124Y-92856033D01*
X126505628Y-92865562D01*
X126724478Y-93084412D01*
X126742997Y-93059775D01*
X126757977Y-93037732D01*
X126771969Y-93015049D01*
X126784944Y-92991769D01*
X126796877Y-92967938D01*
X126807746Y-92943603D01*
X126817528Y-92918812D01*
X126826205Y-92893612D01*
X126833760Y-92868054D01*
X126840177Y-92842186D01*
X126845445Y-92816060D01*
X126849553Y-92789727D01*
X126852493Y-92763238D01*
X126854260Y-92736645D01*
X126854849Y-92710000D01*
X126854260Y-92683355D01*
X126852493Y-92656762D01*
X126849553Y-92630273D01*
X126845445Y-92603940D01*
X126840177Y-92577814D01*
X126833760Y-92551946D01*
X126826205Y-92526388D01*
X126817528Y-92501188D01*
X126807746Y-92476397D01*
X126796877Y-92452062D01*
X126784944Y-92428231D01*
X126771969Y-92404951D01*
X126757977Y-92382268D01*
X126742997Y-92360225D01*
X126724478Y-92335588D01*
X126505628Y-92554438D01*
D11*
G36*
X137982544Y-87776108D02*
G01*
X138004871Y-87779419D01*
X138026765Y-87784904D01*
X138048017Y-87792508D01*
X138068421Y-87802158D01*
X138087781Y-87813762D01*
X138105910Y-87827208D01*
X138122635Y-87842365D01*
X138137792Y-87859090D01*
X138151238Y-87877219D01*
X138162842Y-87896579D01*
X138172492Y-87916983D01*
X138180096Y-87938235D01*
X138185581Y-87960129D01*
X138188892Y-87982456D01*
X138190000Y-88005000D01*
X138190000Y-88755000D01*
X138188892Y-88777544D01*
X138185581Y-88799871D01*
X138180096Y-88821765D01*
X138172492Y-88843017D01*
X138162842Y-88863421D01*
X138151238Y-88882781D01*
X138137792Y-88900910D01*
X138122635Y-88917635D01*
X138105910Y-88932792D01*
X138087781Y-88946238D01*
X138068421Y-88957842D01*
X138048017Y-88967492D01*
X138026765Y-88975096D01*
X138004871Y-88980581D01*
X137982544Y-88983892D01*
X137960000Y-88985000D01*
X137500000Y-88985000D01*
X137477456Y-88983892D01*
X137455129Y-88980581D01*
X137433235Y-88975096D01*
X137411983Y-88967492D01*
X137391579Y-88957842D01*
X137372219Y-88946238D01*
X137354090Y-88932792D01*
X137337365Y-88917635D01*
X137322208Y-88900910D01*
X137308762Y-88882781D01*
X137297158Y-88863421D01*
X137287508Y-88843017D01*
X137279904Y-88821765D01*
X137274419Y-88799871D01*
X137271108Y-88777544D01*
X137270000Y-88755000D01*
X137270000Y-88005000D01*
X137271108Y-87982456D01*
X137274419Y-87960129D01*
X137279904Y-87938235D01*
X137287508Y-87916983D01*
X137297158Y-87896579D01*
X137308762Y-87877219D01*
X137322208Y-87859090D01*
X137337365Y-87842365D01*
X137354090Y-87827208D01*
X137372219Y-87813762D01*
X137391579Y-87802158D01*
X137411983Y-87792508D01*
X137433235Y-87784904D01*
X137455129Y-87779419D01*
X137477456Y-87776108D01*
X137500000Y-87775000D01*
X137960000Y-87775000D01*
X137982544Y-87776108D01*
G37*
G36*
X137982544Y-86276108D02*
G01*
X138004871Y-86279419D01*
X138026765Y-86284904D01*
X138048017Y-86292508D01*
X138068421Y-86302158D01*
X138087781Y-86313762D01*
X138105910Y-86327208D01*
X138122635Y-86342365D01*
X138137792Y-86359090D01*
X138151238Y-86377219D01*
X138162842Y-86396579D01*
X138172492Y-86416983D01*
X138180096Y-86438235D01*
X138185581Y-86460129D01*
X138188892Y-86482456D01*
X138190000Y-86505000D01*
X138190000Y-87255000D01*
X138188892Y-87277544D01*
X138185581Y-87299871D01*
X138180096Y-87321765D01*
X138172492Y-87343017D01*
X138162842Y-87363421D01*
X138151238Y-87382781D01*
X138137792Y-87400910D01*
X138122635Y-87417635D01*
X138105910Y-87432792D01*
X138087781Y-87446238D01*
X138068421Y-87457842D01*
X138048017Y-87467492D01*
X138026765Y-87475096D01*
X138004871Y-87480581D01*
X137982544Y-87483892D01*
X137960000Y-87485000D01*
X137500000Y-87485000D01*
X137477456Y-87483892D01*
X137455129Y-87480581D01*
X137433235Y-87475096D01*
X137411983Y-87467492D01*
X137391579Y-87457842D01*
X137372219Y-87446238D01*
X137354090Y-87432792D01*
X137337365Y-87417635D01*
X137322208Y-87400910D01*
X137308762Y-87382781D01*
X137297158Y-87363421D01*
X137287508Y-87343017D01*
X137279904Y-87321765D01*
X137274419Y-87299871D01*
X137271108Y-87277544D01*
X137270000Y-87255000D01*
X137270000Y-86505000D01*
X137271108Y-86482456D01*
X137274419Y-86460129D01*
X137279904Y-86438235D01*
X137287508Y-86416983D01*
X137297158Y-86396579D01*
X137308762Y-86377219D01*
X137322208Y-86359090D01*
X137337365Y-86342365D01*
X137354090Y-86327208D01*
X137372219Y-86313762D01*
X137391579Y-86302158D01*
X137411983Y-86292508D01*
X137433235Y-86284904D01*
X137455129Y-86279419D01*
X137477456Y-86276108D01*
X137500000Y-86275000D01*
X137960000Y-86275000D01*
X137982544Y-86276108D01*
G37*
G36*
X136842544Y-87776108D02*
G01*
X136864871Y-87779419D01*
X136886765Y-87784904D01*
X136908017Y-87792508D01*
X136928421Y-87802158D01*
X136947781Y-87813762D01*
X136965910Y-87827208D01*
X136982635Y-87842365D01*
X136997792Y-87859090D01*
X137011238Y-87877219D01*
X137022842Y-87896579D01*
X137032492Y-87916983D01*
X137040096Y-87938235D01*
X137045581Y-87960129D01*
X137048892Y-87982456D01*
X137050000Y-88005000D01*
X137050000Y-88755000D01*
X137048892Y-88777544D01*
X137045581Y-88799871D01*
X137040096Y-88821765D01*
X137032492Y-88843017D01*
X137022842Y-88863421D01*
X137011238Y-88882781D01*
X136997792Y-88900910D01*
X136982635Y-88917635D01*
X136965910Y-88932792D01*
X136947781Y-88946238D01*
X136928421Y-88957842D01*
X136908017Y-88967492D01*
X136886765Y-88975096D01*
X136864871Y-88980581D01*
X136842544Y-88983892D01*
X136820000Y-88985000D01*
X136360000Y-88985000D01*
X136337456Y-88983892D01*
X136315129Y-88980581D01*
X136293235Y-88975096D01*
X136271983Y-88967492D01*
X136251579Y-88957842D01*
X136232219Y-88946238D01*
X136214090Y-88932792D01*
X136197365Y-88917635D01*
X136182208Y-88900910D01*
X136168762Y-88882781D01*
X136157158Y-88863421D01*
X136147508Y-88843017D01*
X136139904Y-88821765D01*
X136134419Y-88799871D01*
X136131108Y-88777544D01*
X136130000Y-88755000D01*
X136130000Y-88005000D01*
X136131108Y-87982456D01*
X136134419Y-87960129D01*
X136139904Y-87938235D01*
X136147508Y-87916983D01*
X136157158Y-87896579D01*
X136168762Y-87877219D01*
X136182208Y-87859090D01*
X136197365Y-87842365D01*
X136214090Y-87827208D01*
X136232219Y-87813762D01*
X136251579Y-87802158D01*
X136271983Y-87792508D01*
X136293235Y-87784904D01*
X136315129Y-87779419D01*
X136337456Y-87776108D01*
X136360000Y-87775000D01*
X136820000Y-87775000D01*
X136842544Y-87776108D01*
G37*
G36*
X136842544Y-86276108D02*
G01*
X136864871Y-86279419D01*
X136886765Y-86284904D01*
X136908017Y-86292508D01*
X136928421Y-86302158D01*
X136947781Y-86313762D01*
X136965910Y-86327208D01*
X136982635Y-86342365D01*
X136997792Y-86359090D01*
X137011238Y-86377219D01*
X137022842Y-86396579D01*
X137032492Y-86416983D01*
X137040096Y-86438235D01*
X137045581Y-86460129D01*
X137048892Y-86482456D01*
X137050000Y-86505000D01*
X137050000Y-87255000D01*
X137048892Y-87277544D01*
X137045581Y-87299871D01*
X137040096Y-87321765D01*
X137032492Y-87343017D01*
X137022842Y-87363421D01*
X137011238Y-87382781D01*
X136997792Y-87400910D01*
X136982635Y-87417635D01*
X136965910Y-87432792D01*
X136947781Y-87446238D01*
X136928421Y-87457842D01*
X136908017Y-87467492D01*
X136886765Y-87475096D01*
X136864871Y-87480581D01*
X136842544Y-87483892D01*
X136820000Y-87485000D01*
X136360000Y-87485000D01*
X136337456Y-87483892D01*
X136315129Y-87480581D01*
X136293235Y-87475096D01*
X136271983Y-87467492D01*
X136251579Y-87457842D01*
X136232219Y-87446238D01*
X136214090Y-87432792D01*
X136197365Y-87417635D01*
X136182208Y-87400910D01*
X136168762Y-87382781D01*
X136157158Y-87363421D01*
X136147508Y-87343017D01*
X136139904Y-87321765D01*
X136134419Y-87299871D01*
X136131108Y-87277544D01*
X136130000Y-87255000D01*
X136130000Y-86505000D01*
X136131108Y-86482456D01*
X136134419Y-86460129D01*
X136139904Y-86438235D01*
X136147508Y-86416983D01*
X136157158Y-86396579D01*
X136168762Y-86377219D01*
X136182208Y-86359090D01*
X136197365Y-86342365D01*
X136214090Y-86327208D01*
X136232219Y-86313762D01*
X136251579Y-86302158D01*
X136271983Y-86292508D01*
X136293235Y-86284904D01*
X136315129Y-86279419D01*
X136337456Y-86276108D01*
X136360000Y-86275000D01*
X136820000Y-86275000D01*
X136842544Y-86276108D01*
G37*
G36*
X140474703Y-85425722D02*
G01*
X140489264Y-85427882D01*
X140503543Y-85431459D01*
X140517403Y-85436418D01*
X140530710Y-85442712D01*
X140543336Y-85450280D01*
X140555159Y-85459048D01*
X140566066Y-85468934D01*
X140575952Y-85479841D01*
X140584720Y-85491664D01*
X140592288Y-85504290D01*
X140598582Y-85517597D01*
X140603541Y-85531457D01*
X140607118Y-85545736D01*
X140609278Y-85560297D01*
X140610000Y-85575000D01*
X140610000Y-85875000D01*
X140609278Y-85889703D01*
X140607118Y-85904264D01*
X140603541Y-85918543D01*
X140598582Y-85932403D01*
X140592288Y-85945710D01*
X140584720Y-85958336D01*
X140575952Y-85970159D01*
X140566066Y-85981066D01*
X140555159Y-85990952D01*
X140543336Y-85999720D01*
X140530710Y-86007288D01*
X140517403Y-86013582D01*
X140503543Y-86018541D01*
X140489264Y-86022118D01*
X140474703Y-86024278D01*
X140460000Y-86025000D01*
X138810000Y-86025000D01*
X138795297Y-86024278D01*
X138780736Y-86022118D01*
X138766457Y-86018541D01*
X138752597Y-86013582D01*
X138739290Y-86007288D01*
X138726664Y-85999720D01*
X138714841Y-85990952D01*
X138703934Y-85981066D01*
X138694048Y-85970159D01*
X138685280Y-85958336D01*
X138677712Y-85945710D01*
X138671418Y-85932403D01*
X138666459Y-85918543D01*
X138662882Y-85904264D01*
X138660722Y-85889703D01*
X138660000Y-85875000D01*
X138660000Y-85575000D01*
X138660722Y-85560297D01*
X138662882Y-85545736D01*
X138666459Y-85531457D01*
X138671418Y-85517597D01*
X138677712Y-85504290D01*
X138685280Y-85491664D01*
X138694048Y-85479841D01*
X138703934Y-85468934D01*
X138714841Y-85459048D01*
X138726664Y-85450280D01*
X138739290Y-85442712D01*
X138752597Y-85436418D01*
X138766457Y-85431459D01*
X138780736Y-85427882D01*
X138795297Y-85425722D01*
X138810000Y-85425000D01*
X140460000Y-85425000D01*
X140474703Y-85425722D01*
G37*
G36*
X140474703Y-86695722D02*
G01*
X140489264Y-86697882D01*
X140503543Y-86701459D01*
X140517403Y-86706418D01*
X140530710Y-86712712D01*
X140543336Y-86720280D01*
X140555159Y-86729048D01*
X140566066Y-86738934D01*
X140575952Y-86749841D01*
X140584720Y-86761664D01*
X140592288Y-86774290D01*
X140598582Y-86787597D01*
X140603541Y-86801457D01*
X140607118Y-86815736D01*
X140609278Y-86830297D01*
X140610000Y-86845000D01*
X140610000Y-87145000D01*
X140609278Y-87159703D01*
X140607118Y-87174264D01*
X140603541Y-87188543D01*
X140598582Y-87202403D01*
X140592288Y-87215710D01*
X140584720Y-87228336D01*
X140575952Y-87240159D01*
X140566066Y-87251066D01*
X140555159Y-87260952D01*
X140543336Y-87269720D01*
X140530710Y-87277288D01*
X140517403Y-87283582D01*
X140503543Y-87288541D01*
X140489264Y-87292118D01*
X140474703Y-87294278D01*
X140460000Y-87295000D01*
X138810000Y-87295000D01*
X138795297Y-87294278D01*
X138780736Y-87292118D01*
X138766457Y-87288541D01*
X138752597Y-87283582D01*
X138739290Y-87277288D01*
X138726664Y-87269720D01*
X138714841Y-87260952D01*
X138703934Y-87251066D01*
X138694048Y-87240159D01*
X138685280Y-87228336D01*
X138677712Y-87215710D01*
X138671418Y-87202403D01*
X138666459Y-87188543D01*
X138662882Y-87174264D01*
X138660722Y-87159703D01*
X138660000Y-87145000D01*
X138660000Y-86845000D01*
X138660722Y-86830297D01*
X138662882Y-86815736D01*
X138666459Y-86801457D01*
X138671418Y-86787597D01*
X138677712Y-86774290D01*
X138685280Y-86761664D01*
X138694048Y-86749841D01*
X138703934Y-86738934D01*
X138714841Y-86729048D01*
X138726664Y-86720280D01*
X138739290Y-86712712D01*
X138752597Y-86706418D01*
X138766457Y-86701459D01*
X138780736Y-86697882D01*
X138795297Y-86695722D01*
X138810000Y-86695000D01*
X140460000Y-86695000D01*
X140474703Y-86695722D01*
G37*
G36*
X140474703Y-87965722D02*
G01*
X140489264Y-87967882D01*
X140503543Y-87971459D01*
X140517403Y-87976418D01*
X140530710Y-87982712D01*
X140543336Y-87990280D01*
X140555159Y-87999048D01*
X140566066Y-88008934D01*
X140575952Y-88019841D01*
X140584720Y-88031664D01*
X140592288Y-88044290D01*
X140598582Y-88057597D01*
X140603541Y-88071457D01*
X140607118Y-88085736D01*
X140609278Y-88100297D01*
X140610000Y-88115000D01*
X140610000Y-88415000D01*
X140609278Y-88429703D01*
X140607118Y-88444264D01*
X140603541Y-88458543D01*
X140598582Y-88472403D01*
X140592288Y-88485710D01*
X140584720Y-88498336D01*
X140575952Y-88510159D01*
X140566066Y-88521066D01*
X140555159Y-88530952D01*
X140543336Y-88539720D01*
X140530710Y-88547288D01*
X140517403Y-88553582D01*
X140503543Y-88558541D01*
X140489264Y-88562118D01*
X140474703Y-88564278D01*
X140460000Y-88565000D01*
X138810000Y-88565000D01*
X138795297Y-88564278D01*
X138780736Y-88562118D01*
X138766457Y-88558541D01*
X138752597Y-88553582D01*
X138739290Y-88547288D01*
X138726664Y-88539720D01*
X138714841Y-88530952D01*
X138703934Y-88521066D01*
X138694048Y-88510159D01*
X138685280Y-88498336D01*
X138677712Y-88485710D01*
X138671418Y-88472403D01*
X138666459Y-88458543D01*
X138662882Y-88444264D01*
X138660722Y-88429703D01*
X138660000Y-88415000D01*
X138660000Y-88115000D01*
X138660722Y-88100297D01*
X138662882Y-88085736D01*
X138666459Y-88071457D01*
X138671418Y-88057597D01*
X138677712Y-88044290D01*
X138685280Y-88031664D01*
X138694048Y-88019841D01*
X138703934Y-88008934D01*
X138714841Y-87999048D01*
X138726664Y-87990280D01*
X138739290Y-87982712D01*
X138752597Y-87976418D01*
X138766457Y-87971459D01*
X138780736Y-87967882D01*
X138795297Y-87965722D01*
X138810000Y-87965000D01*
X140460000Y-87965000D01*
X140474703Y-87965722D01*
G37*
G36*
X140474703Y-89235722D02*
G01*
X140489264Y-89237882D01*
X140503543Y-89241459D01*
X140517403Y-89246418D01*
X140530710Y-89252712D01*
X140543336Y-89260280D01*
X140555159Y-89269048D01*
X140566066Y-89278934D01*
X140575952Y-89289841D01*
X140584720Y-89301664D01*
X140592288Y-89314290D01*
X140598582Y-89327597D01*
X140603541Y-89341457D01*
X140607118Y-89355736D01*
X140609278Y-89370297D01*
X140610000Y-89385000D01*
X140610000Y-89685000D01*
X140609278Y-89699703D01*
X140607118Y-89714264D01*
X140603541Y-89728543D01*
X140598582Y-89742403D01*
X140592288Y-89755710D01*
X140584720Y-89768336D01*
X140575952Y-89780159D01*
X140566066Y-89791066D01*
X140555159Y-89800952D01*
X140543336Y-89809720D01*
X140530710Y-89817288D01*
X140517403Y-89823582D01*
X140503543Y-89828541D01*
X140489264Y-89832118D01*
X140474703Y-89834278D01*
X140460000Y-89835000D01*
X138810000Y-89835000D01*
X138795297Y-89834278D01*
X138780736Y-89832118D01*
X138766457Y-89828541D01*
X138752597Y-89823582D01*
X138739290Y-89817288D01*
X138726664Y-89809720D01*
X138714841Y-89800952D01*
X138703934Y-89791066D01*
X138694048Y-89780159D01*
X138685280Y-89768336D01*
X138677712Y-89755710D01*
X138671418Y-89742403D01*
X138666459Y-89728543D01*
X138662882Y-89714264D01*
X138660722Y-89699703D01*
X138660000Y-89685000D01*
X138660000Y-89385000D01*
X138660722Y-89370297D01*
X138662882Y-89355736D01*
X138666459Y-89341457D01*
X138671418Y-89327597D01*
X138677712Y-89314290D01*
X138685280Y-89301664D01*
X138694048Y-89289841D01*
X138703934Y-89278934D01*
X138714841Y-89269048D01*
X138726664Y-89260280D01*
X138739290Y-89252712D01*
X138752597Y-89246418D01*
X138766457Y-89241459D01*
X138780736Y-89237882D01*
X138795297Y-89235722D01*
X138810000Y-89235000D01*
X140460000Y-89235000D01*
X140474703Y-89235722D01*
G37*
G36*
X135524703Y-89235722D02*
G01*
X135539264Y-89237882D01*
X135553543Y-89241459D01*
X135567403Y-89246418D01*
X135580710Y-89252712D01*
X135593336Y-89260280D01*
X135605159Y-89269048D01*
X135616066Y-89278934D01*
X135625952Y-89289841D01*
X135634720Y-89301664D01*
X135642288Y-89314290D01*
X135648582Y-89327597D01*
X135653541Y-89341457D01*
X135657118Y-89355736D01*
X135659278Y-89370297D01*
X135660000Y-89385000D01*
X135660000Y-89685000D01*
X135659278Y-89699703D01*
X135657118Y-89714264D01*
X135653541Y-89728543D01*
X135648582Y-89742403D01*
X135642288Y-89755710D01*
X135634720Y-89768336D01*
X135625952Y-89780159D01*
X135616066Y-89791066D01*
X135605159Y-89800952D01*
X135593336Y-89809720D01*
X135580710Y-89817288D01*
X135567403Y-89823582D01*
X135553543Y-89828541D01*
X135539264Y-89832118D01*
X135524703Y-89834278D01*
X135510000Y-89835000D01*
X133860000Y-89835000D01*
X133845297Y-89834278D01*
X133830736Y-89832118D01*
X133816457Y-89828541D01*
X133802597Y-89823582D01*
X133789290Y-89817288D01*
X133776664Y-89809720D01*
X133764841Y-89800952D01*
X133753934Y-89791066D01*
X133744048Y-89780159D01*
X133735280Y-89768336D01*
X133727712Y-89755710D01*
X133721418Y-89742403D01*
X133716459Y-89728543D01*
X133712882Y-89714264D01*
X133710722Y-89699703D01*
X133710000Y-89685000D01*
X133710000Y-89385000D01*
X133710722Y-89370297D01*
X133712882Y-89355736D01*
X133716459Y-89341457D01*
X133721418Y-89327597D01*
X133727712Y-89314290D01*
X133735280Y-89301664D01*
X133744048Y-89289841D01*
X133753934Y-89278934D01*
X133764841Y-89269048D01*
X133776664Y-89260280D01*
X133789290Y-89252712D01*
X133802597Y-89246418D01*
X133816457Y-89241459D01*
X133830736Y-89237882D01*
X133845297Y-89235722D01*
X133860000Y-89235000D01*
X135510000Y-89235000D01*
X135524703Y-89235722D01*
G37*
G36*
X135524703Y-87965722D02*
G01*
X135539264Y-87967882D01*
X135553543Y-87971459D01*
X135567403Y-87976418D01*
X135580710Y-87982712D01*
X135593336Y-87990280D01*
X135605159Y-87999048D01*
X135616066Y-88008934D01*
X135625952Y-88019841D01*
X135634720Y-88031664D01*
X135642288Y-88044290D01*
X135648582Y-88057597D01*
X135653541Y-88071457D01*
X135657118Y-88085736D01*
X135659278Y-88100297D01*
X135660000Y-88115000D01*
X135660000Y-88415000D01*
X135659278Y-88429703D01*
X135657118Y-88444264D01*
X135653541Y-88458543D01*
X135648582Y-88472403D01*
X135642288Y-88485710D01*
X135634720Y-88498336D01*
X135625952Y-88510159D01*
X135616066Y-88521066D01*
X135605159Y-88530952D01*
X135593336Y-88539720D01*
X135580710Y-88547288D01*
X135567403Y-88553582D01*
X135553543Y-88558541D01*
X135539264Y-88562118D01*
X135524703Y-88564278D01*
X135510000Y-88565000D01*
X133860000Y-88565000D01*
X133845297Y-88564278D01*
X133830736Y-88562118D01*
X133816457Y-88558541D01*
X133802597Y-88553582D01*
X133789290Y-88547288D01*
X133776664Y-88539720D01*
X133764841Y-88530952D01*
X133753934Y-88521066D01*
X133744048Y-88510159D01*
X133735280Y-88498336D01*
X133727712Y-88485710D01*
X133721418Y-88472403D01*
X133716459Y-88458543D01*
X133712882Y-88444264D01*
X133710722Y-88429703D01*
X133710000Y-88415000D01*
X133710000Y-88115000D01*
X133710722Y-88100297D01*
X133712882Y-88085736D01*
X133716459Y-88071457D01*
X133721418Y-88057597D01*
X133727712Y-88044290D01*
X133735280Y-88031664D01*
X133744048Y-88019841D01*
X133753934Y-88008934D01*
X133764841Y-87999048D01*
X133776664Y-87990280D01*
X133789290Y-87982712D01*
X133802597Y-87976418D01*
X133816457Y-87971459D01*
X133830736Y-87967882D01*
X133845297Y-87965722D01*
X133860000Y-87965000D01*
X135510000Y-87965000D01*
X135524703Y-87965722D01*
G37*
G36*
X135524703Y-86695722D02*
G01*
X135539264Y-86697882D01*
X135553543Y-86701459D01*
X135567403Y-86706418D01*
X135580710Y-86712712D01*
X135593336Y-86720280D01*
X135605159Y-86729048D01*
X135616066Y-86738934D01*
X135625952Y-86749841D01*
X135634720Y-86761664D01*
X135642288Y-86774290D01*
X135648582Y-86787597D01*
X135653541Y-86801457D01*
X135657118Y-86815736D01*
X135659278Y-86830297D01*
X135660000Y-86845000D01*
X135660000Y-87145000D01*
X135659278Y-87159703D01*
X135657118Y-87174264D01*
X135653541Y-87188543D01*
X135648582Y-87202403D01*
X135642288Y-87215710D01*
X135634720Y-87228336D01*
X135625952Y-87240159D01*
X135616066Y-87251066D01*
X135605159Y-87260952D01*
X135593336Y-87269720D01*
X135580710Y-87277288D01*
X135567403Y-87283582D01*
X135553543Y-87288541D01*
X135539264Y-87292118D01*
X135524703Y-87294278D01*
X135510000Y-87295000D01*
X133860000Y-87295000D01*
X133845297Y-87294278D01*
X133830736Y-87292118D01*
X133816457Y-87288541D01*
X133802597Y-87283582D01*
X133789290Y-87277288D01*
X133776664Y-87269720D01*
X133764841Y-87260952D01*
X133753934Y-87251066D01*
X133744048Y-87240159D01*
X133735280Y-87228336D01*
X133727712Y-87215710D01*
X133721418Y-87202403D01*
X133716459Y-87188543D01*
X133712882Y-87174264D01*
X133710722Y-87159703D01*
X133710000Y-87145000D01*
X133710000Y-86845000D01*
X133710722Y-86830297D01*
X133712882Y-86815736D01*
X133716459Y-86801457D01*
X133721418Y-86787597D01*
X133727712Y-86774290D01*
X133735280Y-86761664D01*
X133744048Y-86749841D01*
X133753934Y-86738934D01*
X133764841Y-86729048D01*
X133776664Y-86720280D01*
X133789290Y-86712712D01*
X133802597Y-86706418D01*
X133816457Y-86701459D01*
X133830736Y-86697882D01*
X133845297Y-86695722D01*
X133860000Y-86695000D01*
X135510000Y-86695000D01*
X135524703Y-86695722D01*
G37*
G36*
X135524703Y-85425722D02*
G01*
X135539264Y-85427882D01*
X135553543Y-85431459D01*
X135567403Y-85436418D01*
X135580710Y-85442712D01*
X135593336Y-85450280D01*
X135605159Y-85459048D01*
X135616066Y-85468934D01*
X135625952Y-85479841D01*
X135634720Y-85491664D01*
X135642288Y-85504290D01*
X135648582Y-85517597D01*
X135653541Y-85531457D01*
X135657118Y-85545736D01*
X135659278Y-85560297D01*
X135660000Y-85575000D01*
X135660000Y-85875000D01*
X135659278Y-85889703D01*
X135657118Y-85904264D01*
X135653541Y-85918543D01*
X135648582Y-85932403D01*
X135642288Y-85945710D01*
X135634720Y-85958336D01*
X135625952Y-85970159D01*
X135616066Y-85981066D01*
X135605159Y-85990952D01*
X135593336Y-85999720D01*
X135580710Y-86007288D01*
X135567403Y-86013582D01*
X135553543Y-86018541D01*
X135539264Y-86022118D01*
X135524703Y-86024278D01*
X135510000Y-86025000D01*
X133860000Y-86025000D01*
X133845297Y-86024278D01*
X133830736Y-86022118D01*
X133816457Y-86018541D01*
X133802597Y-86013582D01*
X133789290Y-86007288D01*
X133776664Y-85999720D01*
X133764841Y-85990952D01*
X133753934Y-85981066D01*
X133744048Y-85970159D01*
X133735280Y-85958336D01*
X133727712Y-85945710D01*
X133721418Y-85932403D01*
X133716459Y-85918543D01*
X133712882Y-85904264D01*
X133710722Y-85889703D01*
X133710000Y-85875000D01*
X133710000Y-85575000D01*
X133710722Y-85560297D01*
X133712882Y-85545736D01*
X133716459Y-85531457D01*
X133721418Y-85517597D01*
X133727712Y-85504290D01*
X133735280Y-85491664D01*
X133744048Y-85479841D01*
X133753934Y-85468934D01*
X133764841Y-85459048D01*
X133776664Y-85450280D01*
X133789290Y-85442712D01*
X133802597Y-85436418D01*
X133816457Y-85431459D01*
X133830736Y-85427882D01*
X133845297Y-85425722D01*
X133860000Y-85425000D01*
X135510000Y-85425000D01*
X135524703Y-85425722D01*
G37*
G36*
X147920142Y-88201174D02*
G01*
X147943803Y-88204684D01*
X147967007Y-88210496D01*
X147989529Y-88218554D01*
X148011153Y-88228782D01*
X148031670Y-88241079D01*
X148050883Y-88255329D01*
X148068607Y-88271393D01*
X148084671Y-88289117D01*
X148098921Y-88308330D01*
X148111218Y-88328847D01*
X148121446Y-88350471D01*
X148129504Y-88372993D01*
X148135316Y-88396197D01*
X148138826Y-88419858D01*
X148140000Y-88443750D01*
X148140000Y-89356250D01*
X148138826Y-89380142D01*
X148135316Y-89403803D01*
X148129504Y-89427007D01*
X148121446Y-89449529D01*
X148111218Y-89471153D01*
X148098921Y-89491670D01*
X148084671Y-89510883D01*
X148068607Y-89528607D01*
X148050883Y-89544671D01*
X148031670Y-89558921D01*
X148011153Y-89571218D01*
X147989529Y-89581446D01*
X147967007Y-89589504D01*
X147943803Y-89595316D01*
X147920142Y-89598826D01*
X147896250Y-89600000D01*
X147408750Y-89600000D01*
X147384858Y-89598826D01*
X147361197Y-89595316D01*
X147337993Y-89589504D01*
X147315471Y-89581446D01*
X147293847Y-89571218D01*
X147273330Y-89558921D01*
X147254117Y-89544671D01*
X147236393Y-89528607D01*
X147220329Y-89510883D01*
X147206079Y-89491670D01*
X147193782Y-89471153D01*
X147183554Y-89449529D01*
X147175496Y-89427007D01*
X147169684Y-89403803D01*
X147166174Y-89380142D01*
X147165000Y-89356250D01*
X147165000Y-88443750D01*
X147166174Y-88419858D01*
X147169684Y-88396197D01*
X147175496Y-88372993D01*
X147183554Y-88350471D01*
X147193782Y-88328847D01*
X147206079Y-88308330D01*
X147220329Y-88289117D01*
X147236393Y-88271393D01*
X147254117Y-88255329D01*
X147273330Y-88241079D01*
X147293847Y-88228782D01*
X147315471Y-88218554D01*
X147337993Y-88210496D01*
X147361197Y-88204684D01*
X147384858Y-88201174D01*
X147408750Y-88200000D01*
X147896250Y-88200000D01*
X147920142Y-88201174D01*
G37*
G36*
X149795142Y-88201174D02*
G01*
X149818803Y-88204684D01*
X149842007Y-88210496D01*
X149864529Y-88218554D01*
X149886153Y-88228782D01*
X149906670Y-88241079D01*
X149925883Y-88255329D01*
X149943607Y-88271393D01*
X149959671Y-88289117D01*
X149973921Y-88308330D01*
X149986218Y-88328847D01*
X149996446Y-88350471D01*
X150004504Y-88372993D01*
X150010316Y-88396197D01*
X150013826Y-88419858D01*
X150015000Y-88443750D01*
X150015000Y-89356250D01*
X150013826Y-89380142D01*
X150010316Y-89403803D01*
X150004504Y-89427007D01*
X149996446Y-89449529D01*
X149986218Y-89471153D01*
X149973921Y-89491670D01*
X149959671Y-89510883D01*
X149943607Y-89528607D01*
X149925883Y-89544671D01*
X149906670Y-89558921D01*
X149886153Y-89571218D01*
X149864529Y-89581446D01*
X149842007Y-89589504D01*
X149818803Y-89595316D01*
X149795142Y-89598826D01*
X149771250Y-89600000D01*
X149283750Y-89600000D01*
X149259858Y-89598826D01*
X149236197Y-89595316D01*
X149212993Y-89589504D01*
X149190471Y-89581446D01*
X149168847Y-89571218D01*
X149148330Y-89558921D01*
X149129117Y-89544671D01*
X149111393Y-89528607D01*
X149095329Y-89510883D01*
X149081079Y-89491670D01*
X149068782Y-89471153D01*
X149058554Y-89449529D01*
X149050496Y-89427007D01*
X149044684Y-89403803D01*
X149041174Y-89380142D01*
X149040000Y-89356250D01*
X149040000Y-88443750D01*
X149041174Y-88419858D01*
X149044684Y-88396197D01*
X149050496Y-88372993D01*
X149058554Y-88350471D01*
X149068782Y-88328847D01*
X149081079Y-88308330D01*
X149095329Y-88289117D01*
X149111393Y-88271393D01*
X149129117Y-88255329D01*
X149148330Y-88241079D01*
X149168847Y-88228782D01*
X149190471Y-88218554D01*
X149212993Y-88210496D01*
X149236197Y-88204684D01*
X149259858Y-88201174D01*
X149283750Y-88200000D01*
X149771250Y-88200000D01*
X149795142Y-88201174D01*
G37*
G36*
X135220142Y-80581174D02*
G01*
X135243803Y-80584684D01*
X135267007Y-80590496D01*
X135289529Y-80598554D01*
X135311153Y-80608782D01*
X135331670Y-80621079D01*
X135350883Y-80635329D01*
X135368607Y-80651393D01*
X135384671Y-80669117D01*
X135398921Y-80688330D01*
X135411218Y-80708847D01*
X135421446Y-80730471D01*
X135429504Y-80752993D01*
X135435316Y-80776197D01*
X135438826Y-80799858D01*
X135440000Y-80823750D01*
X135440000Y-81736250D01*
X135438826Y-81760142D01*
X135435316Y-81783803D01*
X135429504Y-81807007D01*
X135421446Y-81829529D01*
X135411218Y-81851153D01*
X135398921Y-81871670D01*
X135384671Y-81890883D01*
X135368607Y-81908607D01*
X135350883Y-81924671D01*
X135331670Y-81938921D01*
X135311153Y-81951218D01*
X135289529Y-81961446D01*
X135267007Y-81969504D01*
X135243803Y-81975316D01*
X135220142Y-81978826D01*
X135196250Y-81980000D01*
X134708750Y-81980000D01*
X134684858Y-81978826D01*
X134661197Y-81975316D01*
X134637993Y-81969504D01*
X134615471Y-81961446D01*
X134593847Y-81951218D01*
X134573330Y-81938921D01*
X134554117Y-81924671D01*
X134536393Y-81908607D01*
X134520329Y-81890883D01*
X134506079Y-81871670D01*
X134493782Y-81851153D01*
X134483554Y-81829529D01*
X134475496Y-81807007D01*
X134469684Y-81783803D01*
X134466174Y-81760142D01*
X134465000Y-81736250D01*
X134465000Y-80823750D01*
X134466174Y-80799858D01*
X134469684Y-80776197D01*
X134475496Y-80752993D01*
X134483554Y-80730471D01*
X134493782Y-80708847D01*
X134506079Y-80688330D01*
X134520329Y-80669117D01*
X134536393Y-80651393D01*
X134554117Y-80635329D01*
X134573330Y-80621079D01*
X134593847Y-80608782D01*
X134615471Y-80598554D01*
X134637993Y-80590496D01*
X134661197Y-80584684D01*
X134684858Y-80581174D01*
X134708750Y-80580000D01*
X135196250Y-80580000D01*
X135220142Y-80581174D01*
G37*
G36*
X137095142Y-80581174D02*
G01*
X137118803Y-80584684D01*
X137142007Y-80590496D01*
X137164529Y-80598554D01*
X137186153Y-80608782D01*
X137206670Y-80621079D01*
X137225883Y-80635329D01*
X137243607Y-80651393D01*
X137259671Y-80669117D01*
X137273921Y-80688330D01*
X137286218Y-80708847D01*
X137296446Y-80730471D01*
X137304504Y-80752993D01*
X137310316Y-80776197D01*
X137313826Y-80799858D01*
X137315000Y-80823750D01*
X137315000Y-81736250D01*
X137313826Y-81760142D01*
X137310316Y-81783803D01*
X137304504Y-81807007D01*
X137296446Y-81829529D01*
X137286218Y-81851153D01*
X137273921Y-81871670D01*
X137259671Y-81890883D01*
X137243607Y-81908607D01*
X137225883Y-81924671D01*
X137206670Y-81938921D01*
X137186153Y-81951218D01*
X137164529Y-81961446D01*
X137142007Y-81969504D01*
X137118803Y-81975316D01*
X137095142Y-81978826D01*
X137071250Y-81980000D01*
X136583750Y-81980000D01*
X136559858Y-81978826D01*
X136536197Y-81975316D01*
X136512993Y-81969504D01*
X136490471Y-81961446D01*
X136468847Y-81951218D01*
X136448330Y-81938921D01*
X136429117Y-81924671D01*
X136411393Y-81908607D01*
X136395329Y-81890883D01*
X136381079Y-81871670D01*
X136368782Y-81851153D01*
X136358554Y-81829529D01*
X136350496Y-81807007D01*
X136344684Y-81783803D01*
X136341174Y-81760142D01*
X136340000Y-81736250D01*
X136340000Y-80823750D01*
X136341174Y-80799858D01*
X136344684Y-80776197D01*
X136350496Y-80752993D01*
X136358554Y-80730471D01*
X136368782Y-80708847D01*
X136381079Y-80688330D01*
X136395329Y-80669117D01*
X136411393Y-80651393D01*
X136429117Y-80635329D01*
X136448330Y-80621079D01*
X136468847Y-80608782D01*
X136490471Y-80598554D01*
X136512993Y-80590496D01*
X136536197Y-80584684D01*
X136559858Y-80581174D01*
X136583750Y-80580000D01*
X137071250Y-80580000D01*
X137095142Y-80581174D01*
G37*
G36*
X147587642Y-83121174D02*
G01*
X147611303Y-83124684D01*
X147634507Y-83130496D01*
X147657029Y-83138554D01*
X147678653Y-83148782D01*
X147699170Y-83161079D01*
X147718383Y-83175329D01*
X147736107Y-83191393D01*
X147752171Y-83209117D01*
X147766421Y-83228330D01*
X147778718Y-83248847D01*
X147788946Y-83270471D01*
X147797004Y-83292993D01*
X147802816Y-83316197D01*
X147806326Y-83339858D01*
X147807500Y-83363750D01*
X147807500Y-84276250D01*
X147806326Y-84300142D01*
X147802816Y-84323803D01*
X147797004Y-84347007D01*
X147788946Y-84369529D01*
X147778718Y-84391153D01*
X147766421Y-84411670D01*
X147752171Y-84430883D01*
X147736107Y-84448607D01*
X147718383Y-84464671D01*
X147699170Y-84478921D01*
X147678653Y-84491218D01*
X147657029Y-84501446D01*
X147634507Y-84509504D01*
X147611303Y-84515316D01*
X147587642Y-84518826D01*
X147563750Y-84520000D01*
X147076250Y-84520000D01*
X147052358Y-84518826D01*
X147028697Y-84515316D01*
X147005493Y-84509504D01*
X146982971Y-84501446D01*
X146961347Y-84491218D01*
X146940830Y-84478921D01*
X146921617Y-84464671D01*
X146903893Y-84448607D01*
X146887829Y-84430883D01*
X146873579Y-84411670D01*
X146861282Y-84391153D01*
X146851054Y-84369529D01*
X146842996Y-84347007D01*
X146837184Y-84323803D01*
X146833674Y-84300142D01*
X146832500Y-84276250D01*
X146832500Y-83363750D01*
X146833674Y-83339858D01*
X146837184Y-83316197D01*
X146842996Y-83292993D01*
X146851054Y-83270471D01*
X146861282Y-83248847D01*
X146873579Y-83228330D01*
X146887829Y-83209117D01*
X146903893Y-83191393D01*
X146921617Y-83175329D01*
X146940830Y-83161079D01*
X146961347Y-83148782D01*
X146982971Y-83138554D01*
X147005493Y-83130496D01*
X147028697Y-83124684D01*
X147052358Y-83121174D01*
X147076250Y-83120000D01*
X147563750Y-83120000D01*
X147587642Y-83121174D01*
G37*
G36*
X149462642Y-83121174D02*
G01*
X149486303Y-83124684D01*
X149509507Y-83130496D01*
X149532029Y-83138554D01*
X149553653Y-83148782D01*
X149574170Y-83161079D01*
X149593383Y-83175329D01*
X149611107Y-83191393D01*
X149627171Y-83209117D01*
X149641421Y-83228330D01*
X149653718Y-83248847D01*
X149663946Y-83270471D01*
X149672004Y-83292993D01*
X149677816Y-83316197D01*
X149681326Y-83339858D01*
X149682500Y-83363750D01*
X149682500Y-84276250D01*
X149681326Y-84300142D01*
X149677816Y-84323803D01*
X149672004Y-84347007D01*
X149663946Y-84369529D01*
X149653718Y-84391153D01*
X149641421Y-84411670D01*
X149627171Y-84430883D01*
X149611107Y-84448607D01*
X149593383Y-84464671D01*
X149574170Y-84478921D01*
X149553653Y-84491218D01*
X149532029Y-84501446D01*
X149509507Y-84509504D01*
X149486303Y-84515316D01*
X149462642Y-84518826D01*
X149438750Y-84520000D01*
X148951250Y-84520000D01*
X148927358Y-84518826D01*
X148903697Y-84515316D01*
X148880493Y-84509504D01*
X148857971Y-84501446D01*
X148836347Y-84491218D01*
X148815830Y-84478921D01*
X148796617Y-84464671D01*
X148778893Y-84448607D01*
X148762829Y-84430883D01*
X148748579Y-84411670D01*
X148736282Y-84391153D01*
X148726054Y-84369529D01*
X148717996Y-84347007D01*
X148712184Y-84323803D01*
X148708674Y-84300142D01*
X148707500Y-84276250D01*
X148707500Y-83363750D01*
X148708674Y-83339858D01*
X148712184Y-83316197D01*
X148717996Y-83292993D01*
X148726054Y-83270471D01*
X148736282Y-83248847D01*
X148748579Y-83228330D01*
X148762829Y-83209117D01*
X148778893Y-83191393D01*
X148796617Y-83175329D01*
X148815830Y-83161079D01*
X148836347Y-83148782D01*
X148857971Y-83138554D01*
X148880493Y-83130496D01*
X148903697Y-83124684D01*
X148927358Y-83121174D01*
X148951250Y-83120000D01*
X149438750Y-83120000D01*
X149462642Y-83121174D01*
G37*
G36*
X144110142Y-85661174D02*
G01*
X144133803Y-85664684D01*
X144157007Y-85670496D01*
X144179529Y-85678554D01*
X144201153Y-85688782D01*
X144221670Y-85701079D01*
X144240883Y-85715329D01*
X144258607Y-85731393D01*
X144274671Y-85749117D01*
X144288921Y-85768330D01*
X144301218Y-85788847D01*
X144311446Y-85810471D01*
X144319504Y-85832993D01*
X144325316Y-85856197D01*
X144328826Y-85879858D01*
X144330000Y-85903750D01*
X144330000Y-86816250D01*
X144328826Y-86840142D01*
X144325316Y-86863803D01*
X144319504Y-86887007D01*
X144311446Y-86909529D01*
X144301218Y-86931153D01*
X144288921Y-86951670D01*
X144274671Y-86970883D01*
X144258607Y-86988607D01*
X144240883Y-87004671D01*
X144221670Y-87018921D01*
X144201153Y-87031218D01*
X144179529Y-87041446D01*
X144157007Y-87049504D01*
X144133803Y-87055316D01*
X144110142Y-87058826D01*
X144086250Y-87060000D01*
X143598750Y-87060000D01*
X143574858Y-87058826D01*
X143551197Y-87055316D01*
X143527993Y-87049504D01*
X143505471Y-87041446D01*
X143483847Y-87031218D01*
X143463330Y-87018921D01*
X143444117Y-87004671D01*
X143426393Y-86988607D01*
X143410329Y-86970883D01*
X143396079Y-86951670D01*
X143383782Y-86931153D01*
X143373554Y-86909529D01*
X143365496Y-86887007D01*
X143359684Y-86863803D01*
X143356174Y-86840142D01*
X143355000Y-86816250D01*
X143355000Y-85903750D01*
X143356174Y-85879858D01*
X143359684Y-85856197D01*
X143365496Y-85832993D01*
X143373554Y-85810471D01*
X143383782Y-85788847D01*
X143396079Y-85768330D01*
X143410329Y-85749117D01*
X143426393Y-85731393D01*
X143444117Y-85715329D01*
X143463330Y-85701079D01*
X143483847Y-85688782D01*
X143505471Y-85678554D01*
X143527993Y-85670496D01*
X143551197Y-85664684D01*
X143574858Y-85661174D01*
X143598750Y-85660000D01*
X144086250Y-85660000D01*
X144110142Y-85661174D01*
G37*
G36*
X145985142Y-85661174D02*
G01*
X146008803Y-85664684D01*
X146032007Y-85670496D01*
X146054529Y-85678554D01*
X146076153Y-85688782D01*
X146096670Y-85701079D01*
X146115883Y-85715329D01*
X146133607Y-85731393D01*
X146149671Y-85749117D01*
X146163921Y-85768330D01*
X146176218Y-85788847D01*
X146186446Y-85810471D01*
X146194504Y-85832993D01*
X146200316Y-85856197D01*
X146203826Y-85879858D01*
X146205000Y-85903750D01*
X146205000Y-86816250D01*
X146203826Y-86840142D01*
X146200316Y-86863803D01*
X146194504Y-86887007D01*
X146186446Y-86909529D01*
X146176218Y-86931153D01*
X146163921Y-86951670D01*
X146149671Y-86970883D01*
X146133607Y-86988607D01*
X146115883Y-87004671D01*
X146096670Y-87018921D01*
X146076153Y-87031218D01*
X146054529Y-87041446D01*
X146032007Y-87049504D01*
X146008803Y-87055316D01*
X145985142Y-87058826D01*
X145961250Y-87060000D01*
X145473750Y-87060000D01*
X145449858Y-87058826D01*
X145426197Y-87055316D01*
X145402993Y-87049504D01*
X145380471Y-87041446D01*
X145358847Y-87031218D01*
X145338330Y-87018921D01*
X145319117Y-87004671D01*
X145301393Y-86988607D01*
X145285329Y-86970883D01*
X145271079Y-86951670D01*
X145258782Y-86931153D01*
X145248554Y-86909529D01*
X145240496Y-86887007D01*
X145234684Y-86863803D01*
X145231174Y-86840142D01*
X145230000Y-86816250D01*
X145230000Y-85903750D01*
X145231174Y-85879858D01*
X145234684Y-85856197D01*
X145240496Y-85832993D01*
X145248554Y-85810471D01*
X145258782Y-85788847D01*
X145271079Y-85768330D01*
X145285329Y-85749117D01*
X145301393Y-85731393D01*
X145319117Y-85715329D01*
X145338330Y-85701079D01*
X145358847Y-85688782D01*
X145380471Y-85678554D01*
X145402993Y-85670496D01*
X145426197Y-85664684D01*
X145449858Y-85661174D01*
X145473750Y-85660000D01*
X145961250Y-85660000D01*
X145985142Y-85661174D01*
G37*
G36*
X145985142Y-80581174D02*
G01*
X146008803Y-80584684D01*
X146032007Y-80590496D01*
X146054529Y-80598554D01*
X146076153Y-80608782D01*
X146096670Y-80621079D01*
X146115883Y-80635329D01*
X146133607Y-80651393D01*
X146149671Y-80669117D01*
X146163921Y-80688330D01*
X146176218Y-80708847D01*
X146186446Y-80730471D01*
X146194504Y-80752993D01*
X146200316Y-80776197D01*
X146203826Y-80799858D01*
X146205000Y-80823750D01*
X146205000Y-81736250D01*
X146203826Y-81760142D01*
X146200316Y-81783803D01*
X146194504Y-81807007D01*
X146186446Y-81829529D01*
X146176218Y-81851153D01*
X146163921Y-81871670D01*
X146149671Y-81890883D01*
X146133607Y-81908607D01*
X146115883Y-81924671D01*
X146096670Y-81938921D01*
X146076153Y-81951218D01*
X146054529Y-81961446D01*
X146032007Y-81969504D01*
X146008803Y-81975316D01*
X145985142Y-81978826D01*
X145961250Y-81980000D01*
X145473750Y-81980000D01*
X145449858Y-81978826D01*
X145426197Y-81975316D01*
X145402993Y-81969504D01*
X145380471Y-81961446D01*
X145358847Y-81951218D01*
X145338330Y-81938921D01*
X145319117Y-81924671D01*
X145301393Y-81908607D01*
X145285329Y-81890883D01*
X145271079Y-81871670D01*
X145258782Y-81851153D01*
X145248554Y-81829529D01*
X145240496Y-81807007D01*
X145234684Y-81783803D01*
X145231174Y-81760142D01*
X145230000Y-81736250D01*
X145230000Y-80823750D01*
X145231174Y-80799858D01*
X145234684Y-80776197D01*
X145240496Y-80752993D01*
X145248554Y-80730471D01*
X145258782Y-80708847D01*
X145271079Y-80688330D01*
X145285329Y-80669117D01*
X145301393Y-80651393D01*
X145319117Y-80635329D01*
X145338330Y-80621079D01*
X145358847Y-80608782D01*
X145380471Y-80598554D01*
X145402993Y-80590496D01*
X145426197Y-80584684D01*
X145449858Y-80581174D01*
X145473750Y-80580000D01*
X145961250Y-80580000D01*
X145985142Y-80581174D01*
G37*
G36*
X144110142Y-80581174D02*
G01*
X144133803Y-80584684D01*
X144157007Y-80590496D01*
X144179529Y-80598554D01*
X144201153Y-80608782D01*
X144221670Y-80621079D01*
X144240883Y-80635329D01*
X144258607Y-80651393D01*
X144274671Y-80669117D01*
X144288921Y-80688330D01*
X144301218Y-80708847D01*
X144311446Y-80730471D01*
X144319504Y-80752993D01*
X144325316Y-80776197D01*
X144328826Y-80799858D01*
X144330000Y-80823750D01*
X144330000Y-81736250D01*
X144328826Y-81760142D01*
X144325316Y-81783803D01*
X144319504Y-81807007D01*
X144311446Y-81829529D01*
X144301218Y-81851153D01*
X144288921Y-81871670D01*
X144274671Y-81890883D01*
X144258607Y-81908607D01*
X144240883Y-81924671D01*
X144221670Y-81938921D01*
X144201153Y-81951218D01*
X144179529Y-81961446D01*
X144157007Y-81969504D01*
X144133803Y-81975316D01*
X144110142Y-81978826D01*
X144086250Y-81980000D01*
X143598750Y-81980000D01*
X143574858Y-81978826D01*
X143551197Y-81975316D01*
X143527993Y-81969504D01*
X143505471Y-81961446D01*
X143483847Y-81951218D01*
X143463330Y-81938921D01*
X143444117Y-81924671D01*
X143426393Y-81908607D01*
X143410329Y-81890883D01*
X143396079Y-81871670D01*
X143383782Y-81851153D01*
X143373554Y-81829529D01*
X143365496Y-81807007D01*
X143359684Y-81783803D01*
X143356174Y-81760142D01*
X143355000Y-81736250D01*
X143355000Y-80823750D01*
X143356174Y-80799858D01*
X143359684Y-80776197D01*
X143365496Y-80752993D01*
X143373554Y-80730471D01*
X143383782Y-80708847D01*
X143396079Y-80688330D01*
X143410329Y-80669117D01*
X143426393Y-80651393D01*
X143444117Y-80635329D01*
X143463330Y-80621079D01*
X143483847Y-80608782D01*
X143505471Y-80598554D01*
X143527993Y-80590496D01*
X143551197Y-80584684D01*
X143574858Y-80581174D01*
X143598750Y-80580000D01*
X144086250Y-80580000D01*
X144110142Y-80581174D01*
G37*
G36*
X131290142Y-88081174D02*
G01*
X131313803Y-88084684D01*
X131337007Y-88090496D01*
X131359529Y-88098554D01*
X131381153Y-88108782D01*
X131401670Y-88121079D01*
X131420883Y-88135329D01*
X131438607Y-88151393D01*
X131454671Y-88169117D01*
X131468921Y-88188330D01*
X131481218Y-88208847D01*
X131491446Y-88230471D01*
X131499504Y-88252993D01*
X131505316Y-88276197D01*
X131508826Y-88299858D01*
X131510000Y-88323750D01*
X131510000Y-88811250D01*
X131508826Y-88835142D01*
X131505316Y-88858803D01*
X131499504Y-88882007D01*
X131491446Y-88904529D01*
X131481218Y-88926153D01*
X131468921Y-88946670D01*
X131454671Y-88965883D01*
X131438607Y-88983607D01*
X131420883Y-88999671D01*
X131401670Y-89013921D01*
X131381153Y-89026218D01*
X131359529Y-89036446D01*
X131337007Y-89044504D01*
X131313803Y-89050316D01*
X131290142Y-89053826D01*
X131266250Y-89055000D01*
X130353750Y-89055000D01*
X130329858Y-89053826D01*
X130306197Y-89050316D01*
X130282993Y-89044504D01*
X130260471Y-89036446D01*
X130238847Y-89026218D01*
X130218330Y-89013921D01*
X130199117Y-88999671D01*
X130181393Y-88983607D01*
X130165329Y-88965883D01*
X130151079Y-88946670D01*
X130138782Y-88926153D01*
X130128554Y-88904529D01*
X130120496Y-88882007D01*
X130114684Y-88858803D01*
X130111174Y-88835142D01*
X130110000Y-88811250D01*
X130110000Y-88323750D01*
X130111174Y-88299858D01*
X130114684Y-88276197D01*
X130120496Y-88252993D01*
X130128554Y-88230471D01*
X130138782Y-88208847D01*
X130151079Y-88188330D01*
X130165329Y-88169117D01*
X130181393Y-88151393D01*
X130199117Y-88135329D01*
X130218330Y-88121079D01*
X130238847Y-88108782D01*
X130260471Y-88098554D01*
X130282993Y-88090496D01*
X130306197Y-88084684D01*
X130329858Y-88081174D01*
X130353750Y-88080000D01*
X131266250Y-88080000D01*
X131290142Y-88081174D01*
G37*
G36*
X131290142Y-86206174D02*
G01*
X131313803Y-86209684D01*
X131337007Y-86215496D01*
X131359529Y-86223554D01*
X131381153Y-86233782D01*
X131401670Y-86246079D01*
X131420883Y-86260329D01*
X131438607Y-86276393D01*
X131454671Y-86294117D01*
X131468921Y-86313330D01*
X131481218Y-86333847D01*
X131491446Y-86355471D01*
X131499504Y-86377993D01*
X131505316Y-86401197D01*
X131508826Y-86424858D01*
X131510000Y-86448750D01*
X131510000Y-86936250D01*
X131508826Y-86960142D01*
X131505316Y-86983803D01*
X131499504Y-87007007D01*
X131491446Y-87029529D01*
X131481218Y-87051153D01*
X131468921Y-87071670D01*
X131454671Y-87090883D01*
X131438607Y-87108607D01*
X131420883Y-87124671D01*
X131401670Y-87138921D01*
X131381153Y-87151218D01*
X131359529Y-87161446D01*
X131337007Y-87169504D01*
X131313803Y-87175316D01*
X131290142Y-87178826D01*
X131266250Y-87180000D01*
X130353750Y-87180000D01*
X130329858Y-87178826D01*
X130306197Y-87175316D01*
X130282993Y-87169504D01*
X130260471Y-87161446D01*
X130238847Y-87151218D01*
X130218330Y-87138921D01*
X130199117Y-87124671D01*
X130181393Y-87108607D01*
X130165329Y-87090883D01*
X130151079Y-87071670D01*
X130138782Y-87051153D01*
X130128554Y-87029529D01*
X130120496Y-87007007D01*
X130114684Y-86983803D01*
X130111174Y-86960142D01*
X130110000Y-86936250D01*
X130110000Y-86448750D01*
X130111174Y-86424858D01*
X130114684Y-86401197D01*
X130120496Y-86377993D01*
X130128554Y-86355471D01*
X130138782Y-86333847D01*
X130151079Y-86313330D01*
X130165329Y-86294117D01*
X130181393Y-86276393D01*
X130199117Y-86260329D01*
X130218330Y-86246079D01*
X130238847Y-86233782D01*
X130260471Y-86223554D01*
X130282993Y-86215496D01*
X130306197Y-86209684D01*
X130329858Y-86206174D01*
X130353750Y-86205000D01*
X131266250Y-86205000D01*
X131290142Y-86206174D01*
G37*
D12*
X128347000Y-92710000D03*
D13*
X125610000Y-93725000D03*
X125610000Y-91695000D03*
D14*
X128347000Y-93676000D03*
X128347000Y-91744000D03*
D11*
G36*
X161939504Y-83326204D02*
G01*
X161963773Y-83329804D01*
X161987571Y-83335765D01*
X162010671Y-83344030D01*
X162032849Y-83354520D01*
X162053893Y-83367133D01*
X162073598Y-83381747D01*
X162091777Y-83398223D01*
X162108253Y-83416402D01*
X162122867Y-83436107D01*
X162135480Y-83457151D01*
X162145970Y-83479329D01*
X162154235Y-83502429D01*
X162160196Y-83526227D01*
X162163796Y-83550496D01*
X162165000Y-83575000D01*
X162165000Y-84325000D01*
X162163796Y-84349504D01*
X162160196Y-84373773D01*
X162154235Y-84397571D01*
X162145970Y-84420671D01*
X162135480Y-84442849D01*
X162122867Y-84463893D01*
X162108253Y-84483598D01*
X162091777Y-84501777D01*
X162073598Y-84518253D01*
X162053893Y-84532867D01*
X162032849Y-84545480D01*
X162010671Y-84555970D01*
X161987571Y-84564235D01*
X161963773Y-84570196D01*
X161939504Y-84573796D01*
X161915000Y-84575000D01*
X160665000Y-84575000D01*
X160640496Y-84573796D01*
X160616227Y-84570196D01*
X160592429Y-84564235D01*
X160569329Y-84555970D01*
X160547151Y-84545480D01*
X160526107Y-84532867D01*
X160506402Y-84518253D01*
X160488223Y-84501777D01*
X160471747Y-84483598D01*
X160457133Y-84463893D01*
X160444520Y-84442849D01*
X160434030Y-84420671D01*
X160425765Y-84397571D01*
X160419804Y-84373773D01*
X160416204Y-84349504D01*
X160415000Y-84325000D01*
X160415000Y-83575000D01*
X160416204Y-83550496D01*
X160419804Y-83526227D01*
X160425765Y-83502429D01*
X160434030Y-83479329D01*
X160444520Y-83457151D01*
X160457133Y-83436107D01*
X160471747Y-83416402D01*
X160488223Y-83398223D01*
X160506402Y-83381747D01*
X160526107Y-83367133D01*
X160547151Y-83354520D01*
X160569329Y-83344030D01*
X160592429Y-83335765D01*
X160616227Y-83329804D01*
X160640496Y-83326204D01*
X160665000Y-83325000D01*
X161915000Y-83325000D01*
X161939504Y-83326204D01*
G37*
G36*
X161939504Y-80526204D02*
G01*
X161963773Y-80529804D01*
X161987571Y-80535765D01*
X162010671Y-80544030D01*
X162032849Y-80554520D01*
X162053893Y-80567133D01*
X162073598Y-80581747D01*
X162091777Y-80598223D01*
X162108253Y-80616402D01*
X162122867Y-80636107D01*
X162135480Y-80657151D01*
X162145970Y-80679329D01*
X162154235Y-80702429D01*
X162160196Y-80726227D01*
X162163796Y-80750496D01*
X162165000Y-80775000D01*
X162165000Y-81525000D01*
X162163796Y-81549504D01*
X162160196Y-81573773D01*
X162154235Y-81597571D01*
X162145970Y-81620671D01*
X162135480Y-81642849D01*
X162122867Y-81663893D01*
X162108253Y-81683598D01*
X162091777Y-81701777D01*
X162073598Y-81718253D01*
X162053893Y-81732867D01*
X162032849Y-81745480D01*
X162010671Y-81755970D01*
X161987571Y-81764235D01*
X161963773Y-81770196D01*
X161939504Y-81773796D01*
X161915000Y-81775000D01*
X160665000Y-81775000D01*
X160640496Y-81773796D01*
X160616227Y-81770196D01*
X160592429Y-81764235D01*
X160569329Y-81755970D01*
X160547151Y-81745480D01*
X160526107Y-81732867D01*
X160506402Y-81718253D01*
X160488223Y-81701777D01*
X160471747Y-81683598D01*
X160457133Y-81663893D01*
X160444520Y-81642849D01*
X160434030Y-81620671D01*
X160425765Y-81597571D01*
X160419804Y-81573773D01*
X160416204Y-81549504D01*
X160415000Y-81525000D01*
X160415000Y-80775000D01*
X160416204Y-80750496D01*
X160419804Y-80726227D01*
X160425765Y-80702429D01*
X160434030Y-80679329D01*
X160444520Y-80657151D01*
X160457133Y-80636107D01*
X160471747Y-80616402D01*
X160488223Y-80598223D01*
X160506402Y-80581747D01*
X160526107Y-80567133D01*
X160547151Y-80554520D01*
X160569329Y-80544030D01*
X160592429Y-80535765D01*
X160616227Y-80529804D01*
X160640496Y-80526204D01*
X160665000Y-80525000D01*
X161915000Y-80525000D01*
X161939504Y-80526204D01*
G37*
G36*
X161939504Y-90686204D02*
G01*
X161963773Y-90689804D01*
X161987571Y-90695765D01*
X162010671Y-90704030D01*
X162032849Y-90714520D01*
X162053893Y-90727133D01*
X162073598Y-90741747D01*
X162091777Y-90758223D01*
X162108253Y-90776402D01*
X162122867Y-90796107D01*
X162135480Y-90817151D01*
X162145970Y-90839329D01*
X162154235Y-90862429D01*
X162160196Y-90886227D01*
X162163796Y-90910496D01*
X162165000Y-90935000D01*
X162165000Y-91685000D01*
X162163796Y-91709504D01*
X162160196Y-91733773D01*
X162154235Y-91757571D01*
X162145970Y-91780671D01*
X162135480Y-91802849D01*
X162122867Y-91823893D01*
X162108253Y-91843598D01*
X162091777Y-91861777D01*
X162073598Y-91878253D01*
X162053893Y-91892867D01*
X162032849Y-91905480D01*
X162010671Y-91915970D01*
X161987571Y-91924235D01*
X161963773Y-91930196D01*
X161939504Y-91933796D01*
X161915000Y-91935000D01*
X160665000Y-91935000D01*
X160640496Y-91933796D01*
X160616227Y-91930196D01*
X160592429Y-91924235D01*
X160569329Y-91915970D01*
X160547151Y-91905480D01*
X160526107Y-91892867D01*
X160506402Y-91878253D01*
X160488223Y-91861777D01*
X160471747Y-91843598D01*
X160457133Y-91823893D01*
X160444520Y-91802849D01*
X160434030Y-91780671D01*
X160425765Y-91757571D01*
X160419804Y-91733773D01*
X160416204Y-91709504D01*
X160415000Y-91685000D01*
X160415000Y-90935000D01*
X160416204Y-90910496D01*
X160419804Y-90886227D01*
X160425765Y-90862429D01*
X160434030Y-90839329D01*
X160444520Y-90817151D01*
X160457133Y-90796107D01*
X160471747Y-90776402D01*
X160488223Y-90758223D01*
X160506402Y-90741747D01*
X160526107Y-90727133D01*
X160547151Y-90714520D01*
X160569329Y-90704030D01*
X160592429Y-90695765D01*
X160616227Y-90689804D01*
X160640496Y-90686204D01*
X160665000Y-90685000D01*
X161915000Y-90685000D01*
X161939504Y-90686204D01*
G37*
G36*
X161939504Y-93486204D02*
G01*
X161963773Y-93489804D01*
X161987571Y-93495765D01*
X162010671Y-93504030D01*
X162032849Y-93514520D01*
X162053893Y-93527133D01*
X162073598Y-93541747D01*
X162091777Y-93558223D01*
X162108253Y-93576402D01*
X162122867Y-93596107D01*
X162135480Y-93617151D01*
X162145970Y-93639329D01*
X162154235Y-93662429D01*
X162160196Y-93686227D01*
X162163796Y-93710496D01*
X162165000Y-93735000D01*
X162165000Y-94485000D01*
X162163796Y-94509504D01*
X162160196Y-94533773D01*
X162154235Y-94557571D01*
X162145970Y-94580671D01*
X162135480Y-94602849D01*
X162122867Y-94623893D01*
X162108253Y-94643598D01*
X162091777Y-94661777D01*
X162073598Y-94678253D01*
X162053893Y-94692867D01*
X162032849Y-94705480D01*
X162010671Y-94715970D01*
X161987571Y-94724235D01*
X161963773Y-94730196D01*
X161939504Y-94733796D01*
X161915000Y-94735000D01*
X160665000Y-94735000D01*
X160640496Y-94733796D01*
X160616227Y-94730196D01*
X160592429Y-94724235D01*
X160569329Y-94715970D01*
X160547151Y-94705480D01*
X160526107Y-94692867D01*
X160506402Y-94678253D01*
X160488223Y-94661777D01*
X160471747Y-94643598D01*
X160457133Y-94623893D01*
X160444520Y-94602849D01*
X160434030Y-94580671D01*
X160425765Y-94557571D01*
X160419804Y-94533773D01*
X160416204Y-94509504D01*
X160415000Y-94485000D01*
X160415000Y-93735000D01*
X160416204Y-93710496D01*
X160419804Y-93686227D01*
X160425765Y-93662429D01*
X160434030Y-93639329D01*
X160444520Y-93617151D01*
X160457133Y-93596107D01*
X160471747Y-93576402D01*
X160488223Y-93558223D01*
X160506402Y-93541747D01*
X160526107Y-93527133D01*
X160547151Y-93514520D01*
X160569329Y-93504030D01*
X160592429Y-93495765D01*
X160616227Y-93489804D01*
X160640496Y-93486204D01*
X160665000Y-93485000D01*
X161915000Y-93485000D01*
X161939504Y-93486204D01*
G37*
G36*
X126330142Y-86931174D02*
G01*
X126353803Y-86934684D01*
X126377007Y-86940496D01*
X126399529Y-86948554D01*
X126421153Y-86958782D01*
X126441670Y-86971079D01*
X126460883Y-86985329D01*
X126478607Y-87001393D01*
X126494671Y-87019117D01*
X126508921Y-87038330D01*
X126521218Y-87058847D01*
X126531446Y-87080471D01*
X126539504Y-87102993D01*
X126545316Y-87126197D01*
X126548826Y-87149858D01*
X126550000Y-87173750D01*
X126550000Y-88086250D01*
X126548826Y-88110142D01*
X126545316Y-88133803D01*
X126539504Y-88157007D01*
X126531446Y-88179529D01*
X126521218Y-88201153D01*
X126508921Y-88221670D01*
X126494671Y-88240883D01*
X126478607Y-88258607D01*
X126460883Y-88274671D01*
X126441670Y-88288921D01*
X126421153Y-88301218D01*
X126399529Y-88311446D01*
X126377007Y-88319504D01*
X126353803Y-88325316D01*
X126330142Y-88328826D01*
X126306250Y-88330000D01*
X125818750Y-88330000D01*
X125794858Y-88328826D01*
X125771197Y-88325316D01*
X125747993Y-88319504D01*
X125725471Y-88311446D01*
X125703847Y-88301218D01*
X125683330Y-88288921D01*
X125664117Y-88274671D01*
X125646393Y-88258607D01*
X125630329Y-88240883D01*
X125616079Y-88221670D01*
X125603782Y-88201153D01*
X125593554Y-88179529D01*
X125585496Y-88157007D01*
X125579684Y-88133803D01*
X125576174Y-88110142D01*
X125575000Y-88086250D01*
X125575000Y-87173750D01*
X125576174Y-87149858D01*
X125579684Y-87126197D01*
X125585496Y-87102993D01*
X125593554Y-87080471D01*
X125603782Y-87058847D01*
X125616079Y-87038330D01*
X125630329Y-87019117D01*
X125646393Y-87001393D01*
X125664117Y-86985329D01*
X125683330Y-86971079D01*
X125703847Y-86958782D01*
X125725471Y-86948554D01*
X125747993Y-86940496D01*
X125771197Y-86934684D01*
X125794858Y-86931174D01*
X125818750Y-86930000D01*
X126306250Y-86930000D01*
X126330142Y-86931174D01*
G37*
G36*
X128205142Y-86931174D02*
G01*
X128228803Y-86934684D01*
X128252007Y-86940496D01*
X128274529Y-86948554D01*
X128296153Y-86958782D01*
X128316670Y-86971079D01*
X128335883Y-86985329D01*
X128353607Y-87001393D01*
X128369671Y-87019117D01*
X128383921Y-87038330D01*
X128396218Y-87058847D01*
X128406446Y-87080471D01*
X128414504Y-87102993D01*
X128420316Y-87126197D01*
X128423826Y-87149858D01*
X128425000Y-87173750D01*
X128425000Y-88086250D01*
X128423826Y-88110142D01*
X128420316Y-88133803D01*
X128414504Y-88157007D01*
X128406446Y-88179529D01*
X128396218Y-88201153D01*
X128383921Y-88221670D01*
X128369671Y-88240883D01*
X128353607Y-88258607D01*
X128335883Y-88274671D01*
X128316670Y-88288921D01*
X128296153Y-88301218D01*
X128274529Y-88311446D01*
X128252007Y-88319504D01*
X128228803Y-88325316D01*
X128205142Y-88328826D01*
X128181250Y-88330000D01*
X127693750Y-88330000D01*
X127669858Y-88328826D01*
X127646197Y-88325316D01*
X127622993Y-88319504D01*
X127600471Y-88311446D01*
X127578847Y-88301218D01*
X127558330Y-88288921D01*
X127539117Y-88274671D01*
X127521393Y-88258607D01*
X127505329Y-88240883D01*
X127491079Y-88221670D01*
X127478782Y-88201153D01*
X127468554Y-88179529D01*
X127460496Y-88157007D01*
X127454684Y-88133803D01*
X127451174Y-88110142D01*
X127450000Y-88086250D01*
X127450000Y-87173750D01*
X127451174Y-87149858D01*
X127454684Y-87126197D01*
X127460496Y-87102993D01*
X127468554Y-87080471D01*
X127478782Y-87058847D01*
X127491079Y-87038330D01*
X127505329Y-87019117D01*
X127521393Y-87001393D01*
X127539117Y-86985329D01*
X127558330Y-86971079D01*
X127578847Y-86958782D01*
X127600471Y-86948554D01*
X127622993Y-86940496D01*
X127646197Y-86934684D01*
X127669858Y-86931174D01*
X127693750Y-86930000D01*
X128181250Y-86930000D01*
X128205142Y-86931174D01*
G37*
M02*
