G04 #@! TF.GenerationSoftware,KiCad,Pcbnew,(5.1.5-0-10_14)*
G04 #@! TF.CreationDate,2020-06-27T09:28:46-05:00*
G04 #@! TF.ProjectId,Sensors,53656e73-6f72-4732-9e6b-696361645f70,rev?*
G04 #@! TF.SameCoordinates,Original*
G04 #@! TF.FileFunction,Legend,Top*
G04 #@! TF.FilePolarity,Positive*
%FSLAX46Y46*%
G04 Gerber Fmt 4.6, Leading zero omitted, Abs format (unit mm)*
G04 Created by KiCad (PCBNEW (5.1.5-0-10_14)) date 2020-06-27 09:28:46*
%MOMM*%
%LPD*%
G04 APERTURE LIST*
%ADD10C,0.300000*%
%ADD11C,0.381000*%
%ADD12C,0.127000*%
%ADD13C,0.120000*%
%ADD14C,0.050000*%
%ADD15C,0.150000*%
G04 APERTURE END LIST*
D10*
X149431428Y-81943571D02*
X149431428Y-80443571D01*
X150288571Y-81943571D01*
X150288571Y-80443571D01*
X149538571Y-83707857D02*
X150038571Y-83707857D01*
X150252857Y-84493571D02*
X149538571Y-84493571D01*
X149538571Y-82993571D01*
X150252857Y-82993571D01*
X149431428Y-86972142D02*
X149645714Y-87043571D01*
X150002857Y-87043571D01*
X150145714Y-86972142D01*
X150217142Y-86900714D01*
X150288571Y-86757857D01*
X150288571Y-86615000D01*
X150217142Y-86472142D01*
X150145714Y-86400714D01*
X150002857Y-86329285D01*
X149717142Y-86257857D01*
X149574285Y-86186428D01*
X149502857Y-86115000D01*
X149431428Y-85972142D01*
X149431428Y-85829285D01*
X149502857Y-85686428D01*
X149574285Y-85615000D01*
X149717142Y-85543571D01*
X150074285Y-85543571D01*
X150288571Y-85615000D01*
X149217142Y-88093571D02*
X149574285Y-89593571D01*
X149860000Y-88522142D01*
X150145714Y-89593571D01*
X150502857Y-88093571D01*
D11*
X137795000Y-95671821D02*
X138067142Y-95762535D01*
X138520714Y-95762535D01*
X138702142Y-95671821D01*
X138792857Y-95581107D01*
X138883571Y-95399678D01*
X138883571Y-95218250D01*
X138792857Y-95036821D01*
X138702142Y-94946107D01*
X138520714Y-94855392D01*
X138157857Y-94764678D01*
X137976428Y-94673964D01*
X137885714Y-94583250D01*
X137795000Y-94401821D01*
X137795000Y-94220392D01*
X137885714Y-94038964D01*
X137976428Y-93948250D01*
X138157857Y-93857535D01*
X138611428Y-93857535D01*
X138883571Y-93948250D01*
X140425714Y-95671821D02*
X140244285Y-95762535D01*
X139881428Y-95762535D01*
X139700000Y-95671821D01*
X139609285Y-95490392D01*
X139609285Y-94764678D01*
X139700000Y-94583250D01*
X139881428Y-94492535D01*
X140244285Y-94492535D01*
X140425714Y-94583250D01*
X140516428Y-94764678D01*
X140516428Y-94946107D01*
X139609285Y-95127535D01*
X141332857Y-94492535D02*
X141332857Y-95762535D01*
X141332857Y-94673964D02*
X141423571Y-94583250D01*
X141605000Y-94492535D01*
X141877142Y-94492535D01*
X142058571Y-94583250D01*
X142149285Y-94764678D01*
X142149285Y-95762535D01*
X142965714Y-95671821D02*
X143147142Y-95762535D01*
X143510000Y-95762535D01*
X143691428Y-95671821D01*
X143782142Y-95490392D01*
X143782142Y-95399678D01*
X143691428Y-95218250D01*
X143510000Y-95127535D01*
X143237857Y-95127535D01*
X143056428Y-95036821D01*
X142965714Y-94855392D01*
X142965714Y-94764678D01*
X143056428Y-94583250D01*
X143237857Y-94492535D01*
X143510000Y-94492535D01*
X143691428Y-94583250D01*
X144870714Y-95762535D02*
X144689285Y-95671821D01*
X144598571Y-95581107D01*
X144507857Y-95399678D01*
X144507857Y-94855392D01*
X144598571Y-94673964D01*
X144689285Y-94583250D01*
X144870714Y-94492535D01*
X145142857Y-94492535D01*
X145324285Y-94583250D01*
X145415000Y-94673964D01*
X145505714Y-94855392D01*
X145505714Y-95399678D01*
X145415000Y-95581107D01*
X145324285Y-95671821D01*
X145142857Y-95762535D01*
X144870714Y-95762535D01*
X146322142Y-95762535D02*
X146322142Y-94492535D01*
X146322142Y-94855392D02*
X146412857Y-94673964D01*
X146503571Y-94583250D01*
X146685000Y-94492535D01*
X146866428Y-94492535D01*
X140335000Y-97277464D02*
X140425714Y-97186750D01*
X140607142Y-97096035D01*
X141060714Y-97096035D01*
X141242142Y-97186750D01*
X141332857Y-97277464D01*
X141423571Y-97458892D01*
X141423571Y-97640321D01*
X141332857Y-97912464D01*
X140244285Y-99001035D01*
X141423571Y-99001035D01*
X142240000Y-98819607D02*
X142330714Y-98910321D01*
X142240000Y-99001035D01*
X142149285Y-98910321D01*
X142240000Y-98819607D01*
X142240000Y-99001035D01*
X144145000Y-99001035D02*
X143056428Y-99001035D01*
X143600714Y-99001035D02*
X143600714Y-97096035D01*
X143419285Y-97368178D01*
X143237857Y-97549607D01*
X143056428Y-97640321D01*
D12*
X128730000Y-93980000D02*
G75*
G03X128730000Y-93980000I-3000000J0D01*
G01*
D13*
X147578578Y-88190000D02*
X147061422Y-88190000D01*
X147578578Y-89610000D02*
X147061422Y-89610000D01*
X147578578Y-83110000D02*
X147061422Y-83110000D01*
X147578578Y-84530000D02*
X147061422Y-84530000D01*
X147578578Y-85650000D02*
X147061422Y-85650000D01*
X147578578Y-87070000D02*
X147061422Y-87070000D01*
X147578578Y-80570000D02*
X147061422Y-80570000D01*
X147578578Y-81990000D02*
X147061422Y-81990000D01*
X146522064Y-90530000D02*
X145317936Y-90530000D01*
X146522064Y-92350000D02*
X145317936Y-92350000D01*
X158690000Y-79950000D02*
X160020000Y-79950000D01*
X158690000Y-81280000D02*
X158690000Y-79950000D01*
X161290000Y-79950000D02*
X163890000Y-79950000D01*
X161290000Y-82550000D02*
X161290000Y-79950000D01*
X158690000Y-82550000D02*
X161290000Y-82550000D01*
X163890000Y-79950000D02*
X163890000Y-95310000D01*
X158690000Y-82550000D02*
X158690000Y-95310000D01*
X158690000Y-95310000D02*
X163890000Y-95310000D01*
X128861078Y-80570000D02*
X128343922Y-80570000D01*
X128861078Y-81990000D02*
X128343922Y-81990000D01*
X139700000Y-85070000D02*
X136250000Y-85070000D01*
X139700000Y-85070000D02*
X141650000Y-85070000D01*
X139700000Y-90190000D02*
X137750000Y-90190000D01*
X139700000Y-90190000D02*
X141650000Y-90190000D01*
X140291078Y-80570000D02*
X139773922Y-80570000D01*
X140291078Y-81990000D02*
X139773922Y-81990000D01*
X130736078Y-86920000D02*
X130218922Y-86920000D01*
X130736078Y-88340000D02*
X130218922Y-88340000D01*
X155542064Y-93070000D02*
X154337936Y-93070000D01*
X155542064Y-94890000D02*
X154337936Y-94890000D01*
X125988578Y-86920000D02*
X125471422Y-86920000D01*
X125988578Y-88340000D02*
X125471422Y-88340000D01*
D14*
X125690414Y-98885952D02*
X125690414Y-97884202D01*
X126024331Y-98599738D01*
X126358247Y-97884202D01*
X126358247Y-98885952D01*
X126835271Y-98885952D02*
X126835271Y-97884202D01*
X127407700Y-98885952D02*
X126978378Y-98313524D01*
X127407700Y-97884202D02*
X126835271Y-98456631D01*
X128361747Y-98885952D02*
X127789319Y-98885952D01*
X128075533Y-98885952D02*
X128075533Y-97884202D01*
X127980128Y-98027309D01*
X127884724Y-98122714D01*
X127789319Y-98170416D01*
X128897771Y-91797639D02*
X128850086Y-91845324D01*
X128707030Y-91893009D01*
X128611660Y-91893009D01*
X128468604Y-91845324D01*
X128373233Y-91749954D01*
X128325548Y-91654583D01*
X128277863Y-91463842D01*
X128277863Y-91320786D01*
X128325548Y-91130045D01*
X128373233Y-91034675D01*
X128468604Y-90939305D01*
X128611660Y-90891619D01*
X128707030Y-90891619D01*
X128850086Y-90939305D01*
X128897771Y-90986990D01*
X129326938Y-91893009D02*
X129326938Y-90891619D01*
X129660735Y-91606898D01*
X129994531Y-90891619D01*
X129994531Y-91893009D01*
X131043607Y-91797639D02*
X130995921Y-91845324D01*
X130852866Y-91893009D01*
X130757495Y-91893009D01*
X130614440Y-91845324D01*
X130519069Y-91749954D01*
X130471384Y-91654583D01*
X130423699Y-91463842D01*
X130423699Y-91320786D01*
X130471384Y-91130045D01*
X130519069Y-91034675D01*
X130614440Y-90939305D01*
X130757495Y-90891619D01*
X130852866Y-90891619D01*
X130995921Y-90939305D01*
X131043607Y-90986990D01*
X131472774Y-91511527D02*
X132235738Y-91511527D01*
X132664905Y-90986990D02*
X132712590Y-90939305D01*
X132807960Y-90891619D01*
X133046387Y-90891619D01*
X133141757Y-90939305D01*
X133189442Y-90986990D01*
X133237128Y-91082360D01*
X133237128Y-91177731D01*
X133189442Y-91320786D01*
X132617220Y-91893009D01*
X133237128Y-91893009D01*
X133570924Y-90891619D02*
X134238518Y-90891619D01*
X133809350Y-91893009D01*
X135049167Y-91225416D02*
X135049167Y-91893009D01*
X134810740Y-90843934D02*
X134572314Y-91559213D01*
X135192222Y-91559213D01*
X135526019Y-90986990D02*
X135573704Y-90939305D01*
X135669075Y-90891619D01*
X135907501Y-90891619D01*
X136002871Y-90939305D01*
X136050557Y-90986990D01*
X136098242Y-91082360D01*
X136098242Y-91177731D01*
X136050557Y-91320786D01*
X135478334Y-91893009D01*
X136098242Y-91893009D01*
X136527409Y-91893009D02*
X136527409Y-90891619D01*
X136908891Y-90891619D01*
X137004261Y-90939305D01*
X137051947Y-90986990D01*
X137099632Y-91082360D01*
X137099632Y-91225416D01*
X137051947Y-91320786D01*
X137004261Y-91368472D01*
X136908891Y-91416157D01*
X136527409Y-91416157D01*
X137862596Y-91368472D02*
X138005651Y-91416157D01*
X138053337Y-91463842D01*
X138101022Y-91559213D01*
X138101022Y-91702268D01*
X138053337Y-91797639D01*
X138005651Y-91845324D01*
X137910281Y-91893009D01*
X137528799Y-91893009D01*
X137528799Y-90891619D01*
X137862596Y-90891619D01*
X137957966Y-90939305D01*
X138005651Y-90986990D01*
X138053337Y-91082360D01*
X138053337Y-91177731D01*
X138005651Y-91273101D01*
X137957966Y-91320786D01*
X137862596Y-91368472D01*
X137528799Y-91368472D01*
X138816300Y-90891619D02*
X138816300Y-91606898D01*
X138768615Y-91749954D01*
X138673245Y-91845324D01*
X138530189Y-91893009D01*
X138434819Y-91893009D01*
X139293153Y-91511527D02*
X140056117Y-91511527D01*
X140485284Y-91606898D02*
X140962136Y-91606898D01*
X140389913Y-91893009D02*
X140723710Y-90891619D01*
X141057507Y-91893009D01*
D15*
X142073333Y-91797142D02*
X142025714Y-91844761D01*
X141882857Y-91892380D01*
X141787619Y-91892380D01*
X141644761Y-91844761D01*
X141549523Y-91749523D01*
X141501904Y-91654285D01*
X141454285Y-91463809D01*
X141454285Y-91320952D01*
X141501904Y-91130476D01*
X141549523Y-91035238D01*
X141644761Y-90940000D01*
X141787619Y-90892380D01*
X141882857Y-90892380D01*
X142025714Y-90940000D01*
X142073333Y-90987619D01*
X142454285Y-90987619D02*
X142501904Y-90940000D01*
X142597142Y-90892380D01*
X142835238Y-90892380D01*
X142930476Y-90940000D01*
X142978095Y-90987619D01*
X143025714Y-91082857D01*
X143025714Y-91178095D01*
X142978095Y-91320952D01*
X142406666Y-91892380D01*
X143025714Y-91892380D01*
X160956666Y-78402380D02*
X160956666Y-79116666D01*
X160909047Y-79259523D01*
X160813809Y-79354761D01*
X160670952Y-79402380D01*
X160575714Y-79402380D01*
X161956666Y-79402380D02*
X161385238Y-79402380D01*
X161670952Y-79402380D02*
X161670952Y-78402380D01*
X161575714Y-78545238D01*
X161480476Y-78640476D01*
X161385238Y-78688095D01*
X125563333Y-80462380D02*
X125230000Y-79986190D01*
X124991904Y-80462380D02*
X124991904Y-79462380D01*
X125372857Y-79462380D01*
X125468095Y-79510000D01*
X125515714Y-79557619D01*
X125563333Y-79652857D01*
X125563333Y-79795714D01*
X125515714Y-79890952D01*
X125468095Y-79938571D01*
X125372857Y-79986190D01*
X124991904Y-79986190D01*
X126515714Y-80462380D02*
X125944285Y-80462380D01*
X126230000Y-80462380D02*
X126230000Y-79462380D01*
X126134761Y-79605238D01*
X126039523Y-79700476D01*
X125944285Y-79748095D01*
X136398095Y-83682380D02*
X136398095Y-84491904D01*
X136445714Y-84587142D01*
X136493333Y-84634761D01*
X136588571Y-84682380D01*
X136779047Y-84682380D01*
X136874285Y-84634761D01*
X136921904Y-84587142D01*
X136969523Y-84491904D01*
X136969523Y-83682380D01*
X137969523Y-84682380D02*
X137398095Y-84682380D01*
X137683809Y-84682380D02*
X137683809Y-83682380D01*
X137588571Y-83825238D01*
X137493333Y-83920476D01*
X137398095Y-83968095D01*
X135723333Y-81732380D02*
X135390000Y-81256190D01*
X135151904Y-81732380D02*
X135151904Y-80732380D01*
X135532857Y-80732380D01*
X135628095Y-80780000D01*
X135675714Y-80827619D01*
X135723333Y-80922857D01*
X135723333Y-81065714D01*
X135675714Y-81160952D01*
X135628095Y-81208571D01*
X135532857Y-81256190D01*
X135151904Y-81256190D01*
X136104285Y-80827619D02*
X136151904Y-80780000D01*
X136247142Y-80732380D01*
X136485238Y-80732380D01*
X136580476Y-80780000D01*
X136628095Y-80827619D01*
X136675714Y-80922857D01*
X136675714Y-81018095D01*
X136628095Y-81160952D01*
X136056666Y-81732380D01*
X136675714Y-81732380D01*
X130643333Y-85542380D02*
X130310000Y-85066190D01*
X130071904Y-85542380D02*
X130071904Y-84542380D01*
X130452857Y-84542380D01*
X130548095Y-84590000D01*
X130595714Y-84637619D01*
X130643333Y-84732857D01*
X130643333Y-84875714D01*
X130595714Y-84970952D01*
X130548095Y-85018571D01*
X130452857Y-85066190D01*
X130071904Y-85066190D01*
X130976666Y-84542380D02*
X131595714Y-84542380D01*
X131262380Y-84923333D01*
X131405238Y-84923333D01*
X131500476Y-84970952D01*
X131548095Y-85018571D01*
X131595714Y-85113809D01*
X131595714Y-85351904D01*
X131548095Y-85447142D01*
X131500476Y-85494761D01*
X131405238Y-85542380D01*
X131119523Y-85542380D01*
X131024285Y-85494761D01*
X130976666Y-85447142D01*
X154773333Y-91797142D02*
X154725714Y-91844761D01*
X154582857Y-91892380D01*
X154487619Y-91892380D01*
X154344761Y-91844761D01*
X154249523Y-91749523D01*
X154201904Y-91654285D01*
X154154285Y-91463809D01*
X154154285Y-91320952D01*
X154201904Y-91130476D01*
X154249523Y-91035238D01*
X154344761Y-90940000D01*
X154487619Y-90892380D01*
X154582857Y-90892380D01*
X154725714Y-90940000D01*
X154773333Y-90987619D01*
X155106666Y-90892380D02*
X155725714Y-90892380D01*
X155392380Y-91273333D01*
X155535238Y-91273333D01*
X155630476Y-91320952D01*
X155678095Y-91368571D01*
X155725714Y-91463809D01*
X155725714Y-91701904D01*
X155678095Y-91797142D01*
X155630476Y-91844761D01*
X155535238Y-91892380D01*
X155249523Y-91892380D01*
X155154285Y-91844761D01*
X155106666Y-91797142D01*
X125563333Y-85447142D02*
X125515714Y-85494761D01*
X125372857Y-85542380D01*
X125277619Y-85542380D01*
X125134761Y-85494761D01*
X125039523Y-85399523D01*
X124991904Y-85304285D01*
X124944285Y-85113809D01*
X124944285Y-84970952D01*
X124991904Y-84780476D01*
X125039523Y-84685238D01*
X125134761Y-84590000D01*
X125277619Y-84542380D01*
X125372857Y-84542380D01*
X125515714Y-84590000D01*
X125563333Y-84637619D01*
X126515714Y-85542380D02*
X125944285Y-85542380D01*
X126230000Y-85542380D02*
X126230000Y-84542380D01*
X126134761Y-84685238D01*
X126039523Y-84780476D01*
X125944285Y-84828095D01*
M02*
