G04 #@! TF.GenerationSoftware,KiCad,Pcbnew,(5.1.5-0-10_14)*
G04 #@! TF.CreationDate,2020-03-24T10:25:43-05:00*
G04 #@! TF.ProjectId,Sensors,53656e73-6f72-4732-9e6b-696361645f70,rev?*
G04 #@! TF.SameCoordinates,Original*
G04 #@! TF.FileFunction,Soldermask,Top*
G04 #@! TF.FilePolarity,Negative*
%FSLAX46Y46*%
G04 Gerber Fmt 4.6, Leading zero omitted, Abs format (unit mm)*
G04 Created by KiCad (PCBNEW (5.1.5-0-10_14)) date 2020-03-24 10:25:43*
%MOMM*%
%LPD*%
G04 APERTURE LIST*
%ADD10C,0.010000*%
%ADD11C,0.100000*%
G04 APERTURE END LIST*
D10*
G36*
X128784000Y-93422000D02*
G01*
X128858424Y-93418100D01*
X128932033Y-93406441D01*
X129004020Y-93387152D01*
X129073596Y-93360444D01*
X129140000Y-93326610D01*
X129202503Y-93286020D01*
X129260421Y-93239119D01*
X129313119Y-93186421D01*
X129360020Y-93128503D01*
X129400610Y-93066000D01*
X129434444Y-92999596D01*
X129461152Y-92930020D01*
X129480441Y-92858033D01*
X129492100Y-92784424D01*
X129496000Y-92710000D01*
X129492100Y-92635576D01*
X129480441Y-92561967D01*
X129461152Y-92489980D01*
X129434444Y-92420404D01*
X129400610Y-92354000D01*
X129360020Y-92291497D01*
X129313119Y-92233579D01*
X129260421Y-92180881D01*
X129202503Y-92133980D01*
X129140000Y-92093390D01*
X129073596Y-92059556D01*
X129004020Y-92032848D01*
X128932033Y-92013559D01*
X128858424Y-92001900D01*
X128784000Y-91998000D01*
X128709576Y-92001900D01*
X128635967Y-92013559D01*
X128563980Y-92032848D01*
X128494404Y-92059556D01*
X128428000Y-92093390D01*
X128365497Y-92133980D01*
X128307579Y-92180881D01*
X128254881Y-92233579D01*
X128207980Y-92291497D01*
X128167390Y-92354000D01*
X128133556Y-92420404D01*
X128106848Y-92489980D01*
X128087559Y-92561967D01*
X128075900Y-92635576D01*
X128072000Y-92710000D01*
X128075900Y-92784424D01*
X128087559Y-92858033D01*
X128106848Y-92930020D01*
X128133556Y-92999596D01*
X128167390Y-93066000D01*
X128207980Y-93128503D01*
X128254881Y-93186421D01*
X128307579Y-93239119D01*
X128365497Y-93286020D01*
X128428000Y-93326610D01*
X128494404Y-93360444D01*
X128563980Y-93387152D01*
X128635967Y-93406441D01*
X128709576Y-93418100D01*
X128784000Y-93422000D01*
X128784000Y-93015000D01*
X128815881Y-93013329D01*
X128847413Y-93008335D01*
X128878250Y-93000072D01*
X128908055Y-92988631D01*
X128936500Y-92974138D01*
X128963275Y-92956750D01*
X128988085Y-92936659D01*
X129010659Y-92914085D01*
X129030750Y-92889275D01*
X129048138Y-92862500D01*
X129062631Y-92834055D01*
X129074072Y-92804250D01*
X129082335Y-92773413D01*
X129087329Y-92741881D01*
X129089000Y-92710000D01*
X129087329Y-92678119D01*
X129082335Y-92646587D01*
X129074072Y-92615750D01*
X129062631Y-92585945D01*
X129048138Y-92557500D01*
X129030750Y-92530725D01*
X129010659Y-92505915D01*
X128988085Y-92483341D01*
X128963275Y-92463250D01*
X128936500Y-92445862D01*
X128908055Y-92431369D01*
X128878250Y-92419928D01*
X128847413Y-92411665D01*
X128815881Y-92406671D01*
X128784000Y-92405000D01*
X128815881Y-92406671D01*
X128847413Y-92411665D01*
X128878250Y-92419928D01*
X128908055Y-92431369D01*
X128936500Y-92445862D01*
X128963275Y-92463250D01*
X128988085Y-92483341D01*
X129010659Y-92505915D01*
X129030750Y-92530725D01*
X129048138Y-92557500D01*
X129062631Y-92585945D01*
X129074072Y-92615750D01*
X129082335Y-92646587D01*
X129087329Y-92678119D01*
X129089000Y-92710000D01*
X129087329Y-92741881D01*
X129082335Y-92773413D01*
X129074072Y-92804250D01*
X129062631Y-92834055D01*
X129048138Y-92862500D01*
X129030750Y-92889275D01*
X129010659Y-92914085D01*
X128988085Y-92936659D01*
X128963275Y-92956750D01*
X128936500Y-92974138D01*
X128908055Y-92988631D01*
X128878250Y-93000072D01*
X128847413Y-93008335D01*
X128815881Y-93013329D01*
X128784000Y-93015000D01*
X128784000Y-93422000D01*
G37*
X128784000Y-93422000D02*
X128858424Y-93418100D01*
X128932033Y-93406441D01*
X129004020Y-93387152D01*
X129073596Y-93360444D01*
X129140000Y-93326610D01*
X129202503Y-93286020D01*
X129260421Y-93239119D01*
X129313119Y-93186421D01*
X129360020Y-93128503D01*
X129400610Y-93066000D01*
X129434444Y-92999596D01*
X129461152Y-92930020D01*
X129480441Y-92858033D01*
X129492100Y-92784424D01*
X129496000Y-92710000D01*
X129492100Y-92635576D01*
X129480441Y-92561967D01*
X129461152Y-92489980D01*
X129434444Y-92420404D01*
X129400610Y-92354000D01*
X129360020Y-92291497D01*
X129313119Y-92233579D01*
X129260421Y-92180881D01*
X129202503Y-92133980D01*
X129140000Y-92093390D01*
X129073596Y-92059556D01*
X129004020Y-92032848D01*
X128932033Y-92013559D01*
X128858424Y-92001900D01*
X128784000Y-91998000D01*
X128709576Y-92001900D01*
X128635967Y-92013559D01*
X128563980Y-92032848D01*
X128494404Y-92059556D01*
X128428000Y-92093390D01*
X128365497Y-92133980D01*
X128307579Y-92180881D01*
X128254881Y-92233579D01*
X128207980Y-92291497D01*
X128167390Y-92354000D01*
X128133556Y-92420404D01*
X128106848Y-92489980D01*
X128087559Y-92561967D01*
X128075900Y-92635576D01*
X128072000Y-92710000D01*
X128075900Y-92784424D01*
X128087559Y-92858033D01*
X128106848Y-92930020D01*
X128133556Y-92999596D01*
X128167390Y-93066000D01*
X128207980Y-93128503D01*
X128254881Y-93186421D01*
X128307579Y-93239119D01*
X128365497Y-93286020D01*
X128428000Y-93326610D01*
X128494404Y-93360444D01*
X128563980Y-93387152D01*
X128635967Y-93406441D01*
X128709576Y-93418100D01*
X128784000Y-93422000D01*
X128784000Y-93015000D01*
X128815881Y-93013329D01*
X128847413Y-93008335D01*
X128878250Y-93000072D01*
X128908055Y-92988631D01*
X128936500Y-92974138D01*
X128963275Y-92956750D01*
X128988085Y-92936659D01*
X129010659Y-92914085D01*
X129030750Y-92889275D01*
X129048138Y-92862500D01*
X129062631Y-92834055D01*
X129074072Y-92804250D01*
X129082335Y-92773413D01*
X129087329Y-92741881D01*
X129089000Y-92710000D01*
X129087329Y-92678119D01*
X129082335Y-92646587D01*
X129074072Y-92615750D01*
X129062631Y-92585945D01*
X129048138Y-92557500D01*
X129030750Y-92530725D01*
X129010659Y-92505915D01*
X128988085Y-92483341D01*
X128963275Y-92463250D01*
X128936500Y-92445862D01*
X128908055Y-92431369D01*
X128878250Y-92419928D01*
X128847413Y-92411665D01*
X128815881Y-92406671D01*
X128784000Y-92405000D01*
X128815881Y-92406671D01*
X128847413Y-92411665D01*
X128878250Y-92419928D01*
X128908055Y-92431369D01*
X128936500Y-92445862D01*
X128963275Y-92463250D01*
X128988085Y-92483341D01*
X129010659Y-92505915D01*
X129030750Y-92530725D01*
X129048138Y-92557500D01*
X129062631Y-92585945D01*
X129074072Y-92615750D01*
X129082335Y-92646587D01*
X129087329Y-92678119D01*
X129089000Y-92710000D01*
X129087329Y-92741881D01*
X129082335Y-92773413D01*
X129074072Y-92804250D01*
X129062631Y-92834055D01*
X129048138Y-92862500D01*
X129030750Y-92889275D01*
X129010659Y-92914085D01*
X128988085Y-92936659D01*
X128963275Y-92956750D01*
X128936500Y-92974138D01*
X128908055Y-92988631D01*
X128878250Y-93000072D01*
X128847413Y-93008335D01*
X128815881Y-93013329D01*
X128784000Y-93015000D01*
X128784000Y-93422000D01*
D11*
G36*
X158863512Y-93083927D02*
G01*
X159012812Y-93113624D01*
X159176784Y-93181544D01*
X159324354Y-93280147D01*
X159449853Y-93405646D01*
X159548456Y-93553216D01*
X159616376Y-93717188D01*
X159651000Y-93891259D01*
X159651000Y-94068741D01*
X159616376Y-94242812D01*
X159548456Y-94406784D01*
X159449853Y-94554354D01*
X159324354Y-94679853D01*
X159176784Y-94778456D01*
X159012812Y-94846376D01*
X158863512Y-94876073D01*
X158838742Y-94881000D01*
X158661258Y-94881000D01*
X158636488Y-94876073D01*
X158487188Y-94846376D01*
X158323216Y-94778456D01*
X158175646Y-94679853D01*
X158050147Y-94554354D01*
X157951544Y-94406784D01*
X157883624Y-94242812D01*
X157849000Y-94068741D01*
X157849000Y-93891259D01*
X157883624Y-93717188D01*
X157951544Y-93553216D01*
X158050147Y-93405646D01*
X158175646Y-93280147D01*
X158323216Y-93181544D01*
X158487188Y-93113624D01*
X158636488Y-93083927D01*
X158661258Y-93079000D01*
X158838742Y-93079000D01*
X158863512Y-93083927D01*
G37*
G36*
X156323512Y-93083927D02*
G01*
X156472812Y-93113624D01*
X156636784Y-93181544D01*
X156784354Y-93280147D01*
X156909853Y-93405646D01*
X157008456Y-93553216D01*
X157076376Y-93717188D01*
X157111000Y-93891259D01*
X157111000Y-94068741D01*
X157076376Y-94242812D01*
X157008456Y-94406784D01*
X156909853Y-94554354D01*
X156784354Y-94679853D01*
X156636784Y-94778456D01*
X156472812Y-94846376D01*
X156323512Y-94876073D01*
X156298742Y-94881000D01*
X156121258Y-94881000D01*
X156096488Y-94876073D01*
X155947188Y-94846376D01*
X155783216Y-94778456D01*
X155635646Y-94679853D01*
X155510147Y-94554354D01*
X155411544Y-94406784D01*
X155343624Y-94242812D01*
X155309000Y-94068741D01*
X155309000Y-93891259D01*
X155343624Y-93717188D01*
X155411544Y-93553216D01*
X155510147Y-93405646D01*
X155635646Y-93280147D01*
X155783216Y-93181544D01*
X155947188Y-93113624D01*
X156096488Y-93083927D01*
X156121258Y-93079000D01*
X156298742Y-93079000D01*
X156323512Y-93083927D01*
G37*
G36*
X153168604Y-93438347D02*
G01*
X153205144Y-93449432D01*
X153238821Y-93467433D01*
X153268341Y-93491659D01*
X153292567Y-93521179D01*
X153310568Y-93554856D01*
X153321653Y-93591396D01*
X153326000Y-93635538D01*
X153326000Y-94584462D01*
X153321653Y-94628604D01*
X153310568Y-94665144D01*
X153292567Y-94698821D01*
X153268341Y-94728341D01*
X153238821Y-94752567D01*
X153205144Y-94770568D01*
X153168604Y-94781653D01*
X153124462Y-94786000D01*
X151675538Y-94786000D01*
X151631396Y-94781653D01*
X151594856Y-94770568D01*
X151561179Y-94752567D01*
X151531659Y-94728341D01*
X151507433Y-94698821D01*
X151489432Y-94665144D01*
X151478347Y-94628604D01*
X151474000Y-94584462D01*
X151474000Y-93635538D01*
X151478347Y-93591396D01*
X151489432Y-93554856D01*
X151507433Y-93521179D01*
X151531659Y-93491659D01*
X151561179Y-93467433D01*
X151594856Y-93449432D01*
X151631396Y-93438347D01*
X151675538Y-93434000D01*
X153124462Y-93434000D01*
X153168604Y-93438347D01*
G37*
G36*
X131007324Y-91347352D02*
G01*
X131082389Y-91378445D01*
X131149953Y-91423590D01*
X131207410Y-91481047D01*
X131252555Y-91548611D01*
X131283648Y-91623676D01*
X131299500Y-91703371D01*
X131299500Y-91784629D01*
X131283648Y-91864324D01*
X131252555Y-91939389D01*
X131207410Y-92006953D01*
X131149953Y-92064410D01*
X131082389Y-92109555D01*
X131023005Y-92134152D01*
X131009244Y-92139852D01*
X131005139Y-92141552D01*
X130983528Y-92153103D01*
X130964586Y-92168648D01*
X130949041Y-92187589D01*
X130937489Y-92209200D01*
X130930376Y-92232649D01*
X130927974Y-92257035D01*
X130930376Y-92281421D01*
X130937489Y-92304870D01*
X130949040Y-92326481D01*
X130964585Y-92345423D01*
X130983526Y-92360968D01*
X131005137Y-92372520D01*
X131056103Y-92393631D01*
X131114574Y-92432700D01*
X131164300Y-92482426D01*
X131203279Y-92540763D01*
X131203370Y-92540899D01*
X131230281Y-92605868D01*
X131244000Y-92674837D01*
X131244000Y-92745163D01*
X131230281Y-92814132D01*
X131208810Y-92865968D01*
X131203369Y-92879103D01*
X131164300Y-92937574D01*
X131114574Y-92987300D01*
X131056103Y-93026369D01*
X131005137Y-93047480D01*
X130983527Y-93059031D01*
X130964585Y-93074577D01*
X130949040Y-93093519D01*
X130937489Y-93115129D01*
X130930376Y-93138578D01*
X130927974Y-93162965D01*
X130930376Y-93187351D01*
X130937489Y-93210800D01*
X130949040Y-93232410D01*
X130964586Y-93251352D01*
X130983528Y-93266897D01*
X131005139Y-93278448D01*
X131007321Y-93279352D01*
X131007322Y-93279352D01*
X131023005Y-93285848D01*
X131082389Y-93310445D01*
X131149953Y-93355590D01*
X131207410Y-93413047D01*
X131252555Y-93480611D01*
X131283648Y-93555676D01*
X131299500Y-93635371D01*
X131299500Y-93716629D01*
X131283648Y-93796324D01*
X131252555Y-93871389D01*
X131207410Y-93938953D01*
X131149953Y-93996410D01*
X131082389Y-94041555D01*
X131007324Y-94072648D01*
X130927629Y-94088500D01*
X130846371Y-94088500D01*
X130766676Y-94072648D01*
X130691611Y-94041555D01*
X130624047Y-93996410D01*
X130566590Y-93938953D01*
X130521445Y-93871389D01*
X130490352Y-93796324D01*
X130474500Y-93716629D01*
X130474500Y-93635371D01*
X130490352Y-93555676D01*
X130521445Y-93480611D01*
X130566590Y-93413047D01*
X130624047Y-93355590D01*
X130691611Y-93310445D01*
X130750995Y-93285848D01*
X130766678Y-93279352D01*
X130766679Y-93279352D01*
X130768861Y-93278448D01*
X130790472Y-93266897D01*
X130809414Y-93251352D01*
X130824959Y-93232411D01*
X130836511Y-93210800D01*
X130843624Y-93187351D01*
X130846026Y-93162965D01*
X130843624Y-93138579D01*
X130836511Y-93115130D01*
X130824960Y-93093519D01*
X130809415Y-93074577D01*
X130790474Y-93059032D01*
X130768863Y-93047480D01*
X130717897Y-93026369D01*
X130659426Y-92987300D01*
X130609700Y-92937574D01*
X130570631Y-92879103D01*
X130565190Y-92865968D01*
X130543719Y-92814132D01*
X130530000Y-92745163D01*
X130530000Y-92674837D01*
X130543719Y-92605868D01*
X130570630Y-92540899D01*
X130570721Y-92540763D01*
X130609700Y-92482426D01*
X130659426Y-92432700D01*
X130717897Y-92393631D01*
X130768863Y-92372520D01*
X130790473Y-92360969D01*
X130809415Y-92345423D01*
X130824960Y-92326481D01*
X130836511Y-92304871D01*
X130843624Y-92281422D01*
X130846026Y-92257035D01*
X130843624Y-92232649D01*
X130836511Y-92209200D01*
X130824960Y-92187590D01*
X130809414Y-92168648D01*
X130790472Y-92153103D01*
X130768861Y-92141552D01*
X130764757Y-92139852D01*
X130750995Y-92134152D01*
X130691611Y-92109555D01*
X130624047Y-92064410D01*
X130566590Y-92006953D01*
X130521445Y-91939389D01*
X130490352Y-91864324D01*
X130474500Y-91784629D01*
X130474500Y-91703371D01*
X130490352Y-91623676D01*
X130521445Y-91548611D01*
X130566590Y-91481047D01*
X130624047Y-91423590D01*
X130691611Y-91378445D01*
X130766676Y-91347352D01*
X130846371Y-91331500D01*
X130927629Y-91331500D01*
X131007324Y-91347352D01*
G37*
G36*
X128246838Y-93405758D02*
G01*
X128246840Y-93405759D01*
X128246841Y-93405759D01*
X128307261Y-93430786D01*
X128361637Y-93467119D01*
X128407881Y-93513363D01*
X128444214Y-93567739D01*
X128469242Y-93628162D01*
X128482000Y-93692300D01*
X128482000Y-93757700D01*
X128474318Y-93796322D01*
X128469241Y-93821841D01*
X128444214Y-93882261D01*
X128407881Y-93936637D01*
X128361637Y-93982881D01*
X128307261Y-94019214D01*
X128246841Y-94044241D01*
X128246840Y-94044241D01*
X128246838Y-94044242D01*
X128182700Y-94057000D01*
X128117300Y-94057000D01*
X128053162Y-94044242D01*
X128053160Y-94044241D01*
X128053159Y-94044241D01*
X127992739Y-94019214D01*
X127938363Y-93982881D01*
X127892119Y-93936637D01*
X127855786Y-93882261D01*
X127830759Y-93821841D01*
X127825683Y-93796322D01*
X127818000Y-93757700D01*
X127818000Y-93692300D01*
X127830758Y-93628162D01*
X127855786Y-93567739D01*
X127892119Y-93513363D01*
X127938363Y-93467119D01*
X127992739Y-93430786D01*
X128053159Y-93405759D01*
X128053160Y-93405759D01*
X128053162Y-93405758D01*
X128117300Y-93393000D01*
X128182700Y-93393000D01*
X128246838Y-93405758D01*
G37*
G36*
X128835337Y-92540763D02*
G01*
X128867367Y-92554030D01*
X128896194Y-92573292D01*
X128920708Y-92597806D01*
X128939970Y-92626633D01*
X128953237Y-92658663D01*
X128960000Y-92692665D01*
X128960000Y-92727335D01*
X128953237Y-92761337D01*
X128939970Y-92793367D01*
X128920708Y-92822194D01*
X128896194Y-92846708D01*
X128867367Y-92865970D01*
X128835337Y-92879237D01*
X128801335Y-92886000D01*
X128766665Y-92886000D01*
X128732663Y-92879237D01*
X128700633Y-92865970D01*
X128671806Y-92846708D01*
X128647292Y-92822194D01*
X128628030Y-92793367D01*
X128614763Y-92761337D01*
X128608000Y-92727335D01*
X128608000Y-92692665D01*
X128614763Y-92658663D01*
X128628030Y-92626633D01*
X128647292Y-92597806D01*
X128671806Y-92573292D01*
X128700633Y-92554030D01*
X128732663Y-92540763D01*
X128766665Y-92534000D01*
X128801335Y-92534000D01*
X128835337Y-92540763D01*
G37*
G36*
X158863512Y-90543927D02*
G01*
X159012812Y-90573624D01*
X159176784Y-90641544D01*
X159324354Y-90740147D01*
X159449853Y-90865646D01*
X159548456Y-91013216D01*
X159616376Y-91177188D01*
X159651000Y-91351259D01*
X159651000Y-91528741D01*
X159616376Y-91702812D01*
X159548456Y-91866784D01*
X159449853Y-92014354D01*
X159324354Y-92139853D01*
X159176784Y-92238456D01*
X159012812Y-92306376D01*
X158863512Y-92336073D01*
X158838742Y-92341000D01*
X158661258Y-92341000D01*
X158636488Y-92336073D01*
X158487188Y-92306376D01*
X158323216Y-92238456D01*
X158175646Y-92139853D01*
X158050147Y-92014354D01*
X157951544Y-91866784D01*
X157883624Y-91702812D01*
X157849000Y-91528741D01*
X157849000Y-91351259D01*
X157883624Y-91177188D01*
X157951544Y-91013216D01*
X158050147Y-90865646D01*
X158175646Y-90740147D01*
X158323216Y-90641544D01*
X158487188Y-90573624D01*
X158636488Y-90543927D01*
X158661258Y-90539000D01*
X158838742Y-90539000D01*
X158863512Y-90543927D01*
G37*
G36*
X156323512Y-90543927D02*
G01*
X156472812Y-90573624D01*
X156636784Y-90641544D01*
X156784354Y-90740147D01*
X156909853Y-90865646D01*
X157008456Y-91013216D01*
X157076376Y-91177188D01*
X157111000Y-91351259D01*
X157111000Y-91528741D01*
X157076376Y-91702812D01*
X157008456Y-91866784D01*
X156909853Y-92014354D01*
X156784354Y-92139853D01*
X156636784Y-92238456D01*
X156472812Y-92306376D01*
X156323512Y-92336073D01*
X156298742Y-92341000D01*
X156121258Y-92341000D01*
X156096488Y-92336073D01*
X155947188Y-92306376D01*
X155783216Y-92238456D01*
X155635646Y-92139853D01*
X155510147Y-92014354D01*
X155411544Y-91866784D01*
X155343624Y-91702812D01*
X155309000Y-91528741D01*
X155309000Y-91351259D01*
X155343624Y-91177188D01*
X155411544Y-91013216D01*
X155510147Y-90865646D01*
X155635646Y-90740147D01*
X155783216Y-90641544D01*
X155947188Y-90573624D01*
X156096488Y-90543927D01*
X156121258Y-90539000D01*
X156298742Y-90539000D01*
X156323512Y-90543927D01*
G37*
G36*
X128246838Y-91375758D02*
G01*
X128246840Y-91375759D01*
X128246841Y-91375759D01*
X128253330Y-91378447D01*
X128307261Y-91400786D01*
X128361637Y-91437119D01*
X128407881Y-91483363D01*
X128444214Y-91537739D01*
X128469242Y-91598162D01*
X128482000Y-91662300D01*
X128482000Y-91727700D01*
X128473914Y-91768352D01*
X128469241Y-91791841D01*
X128444214Y-91852261D01*
X128407881Y-91906637D01*
X128361637Y-91952881D01*
X128307261Y-91989214D01*
X128246841Y-92014241D01*
X128246840Y-92014241D01*
X128246838Y-92014242D01*
X128182700Y-92027000D01*
X128117300Y-92027000D01*
X128053162Y-92014242D01*
X128053160Y-92014241D01*
X128053159Y-92014241D01*
X127992739Y-91989214D01*
X127938363Y-91952881D01*
X127892119Y-91906637D01*
X127855786Y-91852261D01*
X127830759Y-91791841D01*
X127826087Y-91768352D01*
X127818000Y-91727700D01*
X127818000Y-91662300D01*
X127830758Y-91598162D01*
X127855786Y-91537739D01*
X127892119Y-91483363D01*
X127938363Y-91437119D01*
X127992739Y-91400786D01*
X128046670Y-91378447D01*
X128053159Y-91375759D01*
X128053160Y-91375759D01*
X128053162Y-91375758D01*
X128117300Y-91363000D01*
X128182700Y-91363000D01*
X128246838Y-91375758D01*
G37*
G36*
X153168604Y-90638347D02*
G01*
X153205144Y-90649432D01*
X153238821Y-90667433D01*
X153268341Y-90691659D01*
X153292567Y-90721179D01*
X153310568Y-90754856D01*
X153321653Y-90791396D01*
X153326000Y-90835538D01*
X153326000Y-91784462D01*
X153321653Y-91828604D01*
X153310568Y-91865144D01*
X153292567Y-91898821D01*
X153268341Y-91928341D01*
X153238821Y-91952567D01*
X153205144Y-91970568D01*
X153168604Y-91981653D01*
X153124462Y-91986000D01*
X151675538Y-91986000D01*
X151631396Y-91981653D01*
X151594856Y-91970568D01*
X151561179Y-91952567D01*
X151531659Y-91928341D01*
X151507433Y-91898821D01*
X151489432Y-91865144D01*
X151478347Y-91828604D01*
X151474000Y-91784462D01*
X151474000Y-90835538D01*
X151478347Y-90791396D01*
X151489432Y-90754856D01*
X151507433Y-90721179D01*
X151531659Y-90691659D01*
X151561179Y-90667433D01*
X151594856Y-90649432D01*
X151631396Y-90638347D01*
X151675538Y-90634000D01*
X153124462Y-90634000D01*
X153168604Y-90638347D01*
G37*
G36*
X143109928Y-89186764D02*
G01*
X143131009Y-89193160D01*
X143150445Y-89203548D01*
X143167476Y-89217524D01*
X143181452Y-89234555D01*
X143191840Y-89253991D01*
X143198236Y-89275072D01*
X143201000Y-89303140D01*
X143201000Y-89766860D01*
X143198236Y-89794928D01*
X143191840Y-89816009D01*
X143181452Y-89835445D01*
X143167476Y-89852476D01*
X143150445Y-89866452D01*
X143131009Y-89876840D01*
X143109928Y-89883236D01*
X143081860Y-89886000D01*
X141268140Y-89886000D01*
X141240072Y-89883236D01*
X141218991Y-89876840D01*
X141199555Y-89866452D01*
X141182524Y-89852476D01*
X141168548Y-89835445D01*
X141158160Y-89816009D01*
X141151764Y-89794928D01*
X141149000Y-89766860D01*
X141149000Y-89303140D01*
X141151764Y-89275072D01*
X141158160Y-89253991D01*
X141168548Y-89234555D01*
X141182524Y-89217524D01*
X141199555Y-89203548D01*
X141218991Y-89193160D01*
X141240072Y-89186764D01*
X141268140Y-89184000D01*
X143081860Y-89184000D01*
X143109928Y-89186764D01*
G37*
G36*
X138159928Y-89186764D02*
G01*
X138181009Y-89193160D01*
X138200445Y-89203548D01*
X138217476Y-89217524D01*
X138231452Y-89234555D01*
X138241840Y-89253991D01*
X138248236Y-89275072D01*
X138251000Y-89303140D01*
X138251000Y-89766860D01*
X138248236Y-89794928D01*
X138241840Y-89816009D01*
X138231452Y-89835445D01*
X138217476Y-89852476D01*
X138200445Y-89866452D01*
X138181009Y-89876840D01*
X138159928Y-89883236D01*
X138131860Y-89886000D01*
X136318140Y-89886000D01*
X136290072Y-89883236D01*
X136268991Y-89876840D01*
X136249555Y-89866452D01*
X136232524Y-89852476D01*
X136218548Y-89835445D01*
X136208160Y-89816009D01*
X136201764Y-89794928D01*
X136199000Y-89766860D01*
X136199000Y-89303140D01*
X136201764Y-89275072D01*
X136208160Y-89253991D01*
X136218548Y-89234555D01*
X136232524Y-89217524D01*
X136249555Y-89203548D01*
X136268991Y-89193160D01*
X136290072Y-89186764D01*
X136318140Y-89184000D01*
X138131860Y-89184000D01*
X138159928Y-89186764D01*
G37*
G36*
X158863512Y-88003927D02*
G01*
X159012812Y-88033624D01*
X159176784Y-88101544D01*
X159324354Y-88200147D01*
X159449853Y-88325646D01*
X159548456Y-88473216D01*
X159616376Y-88637188D01*
X159651000Y-88811259D01*
X159651000Y-88988741D01*
X159616376Y-89162812D01*
X159548456Y-89326784D01*
X159449853Y-89474354D01*
X159324354Y-89599853D01*
X159176784Y-89698456D01*
X159012812Y-89766376D01*
X158869268Y-89794928D01*
X158838742Y-89801000D01*
X158661258Y-89801000D01*
X158630732Y-89794928D01*
X158487188Y-89766376D01*
X158323216Y-89698456D01*
X158175646Y-89599853D01*
X158050147Y-89474354D01*
X157951544Y-89326784D01*
X157883624Y-89162812D01*
X157849000Y-88988741D01*
X157849000Y-88811259D01*
X157883624Y-88637188D01*
X157951544Y-88473216D01*
X158050147Y-88325646D01*
X158175646Y-88200147D01*
X158323216Y-88101544D01*
X158487188Y-88033624D01*
X158636488Y-88003927D01*
X158661258Y-87999000D01*
X158838742Y-87999000D01*
X158863512Y-88003927D01*
G37*
G36*
X156323512Y-88003927D02*
G01*
X156472812Y-88033624D01*
X156636784Y-88101544D01*
X156784354Y-88200147D01*
X156909853Y-88325646D01*
X157008456Y-88473216D01*
X157076376Y-88637188D01*
X157111000Y-88811259D01*
X157111000Y-88988741D01*
X157076376Y-89162812D01*
X157008456Y-89326784D01*
X156909853Y-89474354D01*
X156784354Y-89599853D01*
X156636784Y-89698456D01*
X156472812Y-89766376D01*
X156329268Y-89794928D01*
X156298742Y-89801000D01*
X156121258Y-89801000D01*
X156090732Y-89794928D01*
X155947188Y-89766376D01*
X155783216Y-89698456D01*
X155635646Y-89599853D01*
X155510147Y-89474354D01*
X155411544Y-89326784D01*
X155343624Y-89162812D01*
X155309000Y-88988741D01*
X155309000Y-88811259D01*
X155343624Y-88637188D01*
X155411544Y-88473216D01*
X155510147Y-88325646D01*
X155635646Y-88200147D01*
X155783216Y-88101544D01*
X155947188Y-88033624D01*
X156096488Y-88003927D01*
X156121258Y-87999000D01*
X156298742Y-87999000D01*
X156323512Y-88003927D01*
G37*
G36*
X131181968Y-88153565D02*
G01*
X131220638Y-88165296D01*
X131256277Y-88184346D01*
X131287517Y-88209983D01*
X131313154Y-88241223D01*
X131332204Y-88276862D01*
X131343935Y-88315532D01*
X131348500Y-88361888D01*
X131348500Y-89438112D01*
X131343935Y-89484468D01*
X131332204Y-89523138D01*
X131313154Y-89558777D01*
X131287517Y-89590017D01*
X131256277Y-89615654D01*
X131220638Y-89634704D01*
X131181968Y-89646435D01*
X131135612Y-89651000D01*
X130484388Y-89651000D01*
X130438032Y-89646435D01*
X130399362Y-89634704D01*
X130363723Y-89615654D01*
X130332483Y-89590017D01*
X130306846Y-89558777D01*
X130287796Y-89523138D01*
X130276065Y-89484468D01*
X130271500Y-89438112D01*
X130271500Y-88361888D01*
X130276065Y-88315532D01*
X130287796Y-88276862D01*
X130306846Y-88241223D01*
X130332483Y-88209983D01*
X130363723Y-88184346D01*
X130399362Y-88165296D01*
X130438032Y-88153565D01*
X130484388Y-88149000D01*
X131135612Y-88149000D01*
X131181968Y-88153565D01*
G37*
G36*
X149899468Y-88153565D02*
G01*
X149938138Y-88165296D01*
X149973777Y-88184346D01*
X150005017Y-88209983D01*
X150030654Y-88241223D01*
X150049704Y-88276862D01*
X150061435Y-88315532D01*
X150066000Y-88361888D01*
X150066000Y-89438112D01*
X150061435Y-89484468D01*
X150049704Y-89523138D01*
X150030654Y-89558777D01*
X150005017Y-89590017D01*
X149973777Y-89615654D01*
X149938138Y-89634704D01*
X149899468Y-89646435D01*
X149853112Y-89651000D01*
X149201888Y-89651000D01*
X149155532Y-89646435D01*
X149116862Y-89634704D01*
X149081223Y-89615654D01*
X149049983Y-89590017D01*
X149024346Y-89558777D01*
X149005296Y-89523138D01*
X148993565Y-89484468D01*
X148989000Y-89438112D01*
X148989000Y-88361888D01*
X148993565Y-88315532D01*
X149005296Y-88276862D01*
X149024346Y-88241223D01*
X149049983Y-88209983D01*
X149081223Y-88184346D01*
X149116862Y-88165296D01*
X149155532Y-88153565D01*
X149201888Y-88149000D01*
X149853112Y-88149000D01*
X149899468Y-88153565D01*
G37*
G36*
X129306968Y-88153565D02*
G01*
X129345638Y-88165296D01*
X129381277Y-88184346D01*
X129412517Y-88209983D01*
X129438154Y-88241223D01*
X129457204Y-88276862D01*
X129468935Y-88315532D01*
X129473500Y-88361888D01*
X129473500Y-89438112D01*
X129468935Y-89484468D01*
X129457204Y-89523138D01*
X129438154Y-89558777D01*
X129412517Y-89590017D01*
X129381277Y-89615654D01*
X129345638Y-89634704D01*
X129306968Y-89646435D01*
X129260612Y-89651000D01*
X128609388Y-89651000D01*
X128563032Y-89646435D01*
X128524362Y-89634704D01*
X128488723Y-89615654D01*
X128457483Y-89590017D01*
X128431846Y-89558777D01*
X128412796Y-89523138D01*
X128401065Y-89484468D01*
X128396500Y-89438112D01*
X128396500Y-88361888D01*
X128401065Y-88315532D01*
X128412796Y-88276862D01*
X128431846Y-88241223D01*
X128457483Y-88209983D01*
X128488723Y-88184346D01*
X128524362Y-88165296D01*
X128563032Y-88153565D01*
X128609388Y-88149000D01*
X129260612Y-88149000D01*
X129306968Y-88153565D01*
G37*
G36*
X148024468Y-88153565D02*
G01*
X148063138Y-88165296D01*
X148098777Y-88184346D01*
X148130017Y-88209983D01*
X148155654Y-88241223D01*
X148174704Y-88276862D01*
X148186435Y-88315532D01*
X148191000Y-88361888D01*
X148191000Y-89438112D01*
X148186435Y-89484468D01*
X148174704Y-89523138D01*
X148155654Y-89558777D01*
X148130017Y-89590017D01*
X148098777Y-89615654D01*
X148063138Y-89634704D01*
X148024468Y-89646435D01*
X147978112Y-89651000D01*
X147326888Y-89651000D01*
X147280532Y-89646435D01*
X147241862Y-89634704D01*
X147206223Y-89615654D01*
X147174983Y-89590017D01*
X147149346Y-89558777D01*
X147130296Y-89523138D01*
X147118565Y-89484468D01*
X147114000Y-89438112D01*
X147114000Y-88361888D01*
X147118565Y-88315532D01*
X147130296Y-88276862D01*
X147149346Y-88241223D01*
X147174983Y-88209983D01*
X147206223Y-88184346D01*
X147241862Y-88165296D01*
X147280532Y-88153565D01*
X147326888Y-88149000D01*
X147978112Y-88149000D01*
X148024468Y-88153565D01*
G37*
G36*
X140896000Y-89181000D02*
G01*
X138504000Y-89181000D01*
X138504000Y-86079000D01*
X140896000Y-86079000D01*
X140896000Y-89181000D01*
G37*
G36*
X133934468Y-88033565D02*
G01*
X133973138Y-88045296D01*
X134008777Y-88064346D01*
X134040017Y-88089983D01*
X134065654Y-88121223D01*
X134084704Y-88156862D01*
X134096435Y-88195532D01*
X134101000Y-88241888D01*
X134101000Y-88893112D01*
X134096435Y-88939468D01*
X134084704Y-88978138D01*
X134065654Y-89013777D01*
X134040017Y-89045017D01*
X134008777Y-89070654D01*
X133973138Y-89089704D01*
X133934468Y-89101435D01*
X133888112Y-89106000D01*
X132811888Y-89106000D01*
X132765532Y-89101435D01*
X132726862Y-89089704D01*
X132691223Y-89070654D01*
X132659983Y-89045017D01*
X132634346Y-89013777D01*
X132615296Y-88978138D01*
X132603565Y-88939468D01*
X132599000Y-88893112D01*
X132599000Y-88241888D01*
X132603565Y-88195532D01*
X132615296Y-88156862D01*
X132634346Y-88121223D01*
X132659983Y-88089983D01*
X132691223Y-88064346D01*
X132726862Y-88045296D01*
X132765532Y-88033565D01*
X132811888Y-88029000D01*
X133888112Y-88029000D01*
X133934468Y-88033565D01*
G37*
G36*
X143109928Y-87916764D02*
G01*
X143131009Y-87923160D01*
X143150445Y-87933548D01*
X143167476Y-87947524D01*
X143181452Y-87964555D01*
X143191840Y-87983991D01*
X143198236Y-88005072D01*
X143201000Y-88033140D01*
X143201000Y-88496860D01*
X143198236Y-88524928D01*
X143191840Y-88546009D01*
X143181452Y-88565445D01*
X143167476Y-88582476D01*
X143150445Y-88596452D01*
X143131009Y-88606840D01*
X143109928Y-88613236D01*
X143081860Y-88616000D01*
X141268140Y-88616000D01*
X141240072Y-88613236D01*
X141218991Y-88606840D01*
X141199555Y-88596452D01*
X141182524Y-88582476D01*
X141168548Y-88565445D01*
X141158160Y-88546009D01*
X141151764Y-88524928D01*
X141149000Y-88496860D01*
X141149000Y-88033140D01*
X141151764Y-88005072D01*
X141158160Y-87983991D01*
X141168548Y-87964555D01*
X141182524Y-87947524D01*
X141199555Y-87933548D01*
X141218991Y-87923160D01*
X141240072Y-87916764D01*
X141268140Y-87914000D01*
X143081860Y-87914000D01*
X143109928Y-87916764D01*
G37*
G36*
X138159928Y-87916764D02*
G01*
X138181009Y-87923160D01*
X138200445Y-87933548D01*
X138217476Y-87947524D01*
X138231452Y-87964555D01*
X138241840Y-87983991D01*
X138248236Y-88005072D01*
X138251000Y-88033140D01*
X138251000Y-88496860D01*
X138248236Y-88524928D01*
X138241840Y-88546009D01*
X138231452Y-88565445D01*
X138217476Y-88582476D01*
X138200445Y-88596452D01*
X138181009Y-88606840D01*
X138159928Y-88613236D01*
X138131860Y-88616000D01*
X136318140Y-88616000D01*
X136290072Y-88613236D01*
X136268991Y-88606840D01*
X136249555Y-88596452D01*
X136232524Y-88582476D01*
X136218548Y-88565445D01*
X136208160Y-88546009D01*
X136201764Y-88524928D01*
X136199000Y-88496860D01*
X136199000Y-88033140D01*
X136201764Y-88005072D01*
X136208160Y-87983991D01*
X136218548Y-87964555D01*
X136232524Y-87947524D01*
X136249555Y-87933548D01*
X136268991Y-87923160D01*
X136290072Y-87916764D01*
X136318140Y-87914000D01*
X138131860Y-87914000D01*
X138159928Y-87916764D01*
G37*
G36*
X138159928Y-86646764D02*
G01*
X138181009Y-86653160D01*
X138200445Y-86663548D01*
X138217476Y-86677524D01*
X138231452Y-86694555D01*
X138241840Y-86713991D01*
X138248236Y-86735072D01*
X138251000Y-86763140D01*
X138251000Y-87226860D01*
X138248236Y-87254928D01*
X138241840Y-87276009D01*
X138231452Y-87295445D01*
X138217476Y-87312476D01*
X138200445Y-87326452D01*
X138181009Y-87336840D01*
X138159928Y-87343236D01*
X138131860Y-87346000D01*
X136318140Y-87346000D01*
X136290072Y-87343236D01*
X136268991Y-87336840D01*
X136249555Y-87326452D01*
X136232524Y-87312476D01*
X136218548Y-87295445D01*
X136208160Y-87276009D01*
X136201764Y-87254928D01*
X136199000Y-87226860D01*
X136199000Y-86763140D01*
X136201764Y-86735072D01*
X136208160Y-86713991D01*
X136218548Y-86694555D01*
X136232524Y-86677524D01*
X136249555Y-86663548D01*
X136268991Y-86653160D01*
X136290072Y-86646764D01*
X136318140Y-86644000D01*
X138131860Y-86644000D01*
X138159928Y-86646764D01*
G37*
G36*
X143109928Y-86646764D02*
G01*
X143131009Y-86653160D01*
X143150445Y-86663548D01*
X143167476Y-86677524D01*
X143181452Y-86694555D01*
X143191840Y-86713991D01*
X143198236Y-86735072D01*
X143201000Y-86763140D01*
X143201000Y-87226860D01*
X143198236Y-87254928D01*
X143191840Y-87276009D01*
X143181452Y-87295445D01*
X143167476Y-87312476D01*
X143150445Y-87326452D01*
X143131009Y-87336840D01*
X143109928Y-87343236D01*
X143081860Y-87346000D01*
X141268140Y-87346000D01*
X141240072Y-87343236D01*
X141218991Y-87336840D01*
X141199555Y-87326452D01*
X141182524Y-87312476D01*
X141168548Y-87295445D01*
X141158160Y-87276009D01*
X141151764Y-87254928D01*
X141149000Y-87226860D01*
X141149000Y-86763140D01*
X141151764Y-86735072D01*
X141158160Y-86713991D01*
X141168548Y-86694555D01*
X141182524Y-86677524D01*
X141199555Y-86663548D01*
X141218991Y-86653160D01*
X141240072Y-86646764D01*
X141268140Y-86644000D01*
X143081860Y-86644000D01*
X143109928Y-86646764D01*
G37*
G36*
X158863512Y-85463927D02*
G01*
X159012812Y-85493624D01*
X159176784Y-85561544D01*
X159324354Y-85660147D01*
X159449853Y-85785646D01*
X159548456Y-85933216D01*
X159616376Y-86097188D01*
X159651000Y-86271259D01*
X159651000Y-86448741D01*
X159616376Y-86622812D01*
X159548456Y-86786784D01*
X159449853Y-86934354D01*
X159324354Y-87059853D01*
X159176784Y-87158456D01*
X159012812Y-87226376D01*
X158869268Y-87254928D01*
X158838742Y-87261000D01*
X158661258Y-87261000D01*
X158630732Y-87254928D01*
X158487188Y-87226376D01*
X158323216Y-87158456D01*
X158175646Y-87059853D01*
X158050147Y-86934354D01*
X157951544Y-86786784D01*
X157883624Y-86622812D01*
X157849000Y-86448741D01*
X157849000Y-86271259D01*
X157883624Y-86097188D01*
X157951544Y-85933216D01*
X158050147Y-85785646D01*
X158175646Y-85660147D01*
X158323216Y-85561544D01*
X158487188Y-85493624D01*
X158636488Y-85463927D01*
X158661258Y-85459000D01*
X158838742Y-85459000D01*
X158863512Y-85463927D01*
G37*
G36*
X156323512Y-85463927D02*
G01*
X156472812Y-85493624D01*
X156636784Y-85561544D01*
X156784354Y-85660147D01*
X156909853Y-85785646D01*
X157008456Y-85933216D01*
X157076376Y-86097188D01*
X157111000Y-86271259D01*
X157111000Y-86448741D01*
X157076376Y-86622812D01*
X157008456Y-86786784D01*
X156909853Y-86934354D01*
X156784354Y-87059853D01*
X156636784Y-87158456D01*
X156472812Y-87226376D01*
X156329268Y-87254928D01*
X156298742Y-87261000D01*
X156121258Y-87261000D01*
X156090732Y-87254928D01*
X155947188Y-87226376D01*
X155783216Y-87158456D01*
X155635646Y-87059853D01*
X155510147Y-86934354D01*
X155411544Y-86786784D01*
X155343624Y-86622812D01*
X155309000Y-86448741D01*
X155309000Y-86271259D01*
X155343624Y-86097188D01*
X155411544Y-85933216D01*
X155510147Y-85785646D01*
X155635646Y-85660147D01*
X155783216Y-85561544D01*
X155947188Y-85493624D01*
X156096488Y-85463927D01*
X156121258Y-85459000D01*
X156298742Y-85459000D01*
X156323512Y-85463927D01*
G37*
G36*
X133934468Y-86158565D02*
G01*
X133973138Y-86170296D01*
X134008777Y-86189346D01*
X134040017Y-86214983D01*
X134065654Y-86246223D01*
X134084704Y-86281862D01*
X134096435Y-86320532D01*
X134101000Y-86366888D01*
X134101000Y-87018112D01*
X134096435Y-87064468D01*
X134084704Y-87103138D01*
X134065654Y-87138777D01*
X134040017Y-87170017D01*
X134008777Y-87195654D01*
X133973138Y-87214704D01*
X133934468Y-87226435D01*
X133888112Y-87231000D01*
X132811888Y-87231000D01*
X132765532Y-87226435D01*
X132726862Y-87214704D01*
X132691223Y-87195654D01*
X132659983Y-87170017D01*
X132634346Y-87138777D01*
X132615296Y-87103138D01*
X132603565Y-87064468D01*
X132599000Y-87018112D01*
X132599000Y-86366888D01*
X132603565Y-86320532D01*
X132615296Y-86281862D01*
X132634346Y-86246223D01*
X132659983Y-86214983D01*
X132691223Y-86189346D01*
X132726862Y-86170296D01*
X132765532Y-86158565D01*
X132811888Y-86154000D01*
X133888112Y-86154000D01*
X133934468Y-86158565D01*
G37*
G36*
X147086968Y-85613565D02*
G01*
X147125638Y-85625296D01*
X147161277Y-85644346D01*
X147192517Y-85669983D01*
X147218154Y-85701223D01*
X147237204Y-85736862D01*
X147248935Y-85775532D01*
X147253500Y-85821888D01*
X147253500Y-86898112D01*
X147248935Y-86944468D01*
X147237204Y-86983138D01*
X147218154Y-87018777D01*
X147192517Y-87050017D01*
X147161277Y-87075654D01*
X147125638Y-87094704D01*
X147086968Y-87106435D01*
X147040612Y-87111000D01*
X146389388Y-87111000D01*
X146343032Y-87106435D01*
X146304362Y-87094704D01*
X146268723Y-87075654D01*
X146237483Y-87050017D01*
X146211846Y-87018777D01*
X146192796Y-86983138D01*
X146181065Y-86944468D01*
X146176500Y-86898112D01*
X146176500Y-85821888D01*
X146181065Y-85775532D01*
X146192796Y-85736862D01*
X146211846Y-85701223D01*
X146237483Y-85669983D01*
X146268723Y-85644346D01*
X146304362Y-85625296D01*
X146343032Y-85613565D01*
X146389388Y-85609000D01*
X147040612Y-85609000D01*
X147086968Y-85613565D01*
G37*
G36*
X148961968Y-85613565D02*
G01*
X149000638Y-85625296D01*
X149036277Y-85644346D01*
X149067517Y-85669983D01*
X149093154Y-85701223D01*
X149112204Y-85736862D01*
X149123935Y-85775532D01*
X149128500Y-85821888D01*
X149128500Y-86898112D01*
X149123935Y-86944468D01*
X149112204Y-86983138D01*
X149093154Y-87018777D01*
X149067517Y-87050017D01*
X149036277Y-87075654D01*
X149000638Y-87094704D01*
X148961968Y-87106435D01*
X148915612Y-87111000D01*
X148264388Y-87111000D01*
X148218032Y-87106435D01*
X148179362Y-87094704D01*
X148143723Y-87075654D01*
X148112483Y-87050017D01*
X148086846Y-87018777D01*
X148067796Y-86983138D01*
X148056065Y-86944468D01*
X148051500Y-86898112D01*
X148051500Y-85821888D01*
X148056065Y-85775532D01*
X148067796Y-85736862D01*
X148086846Y-85701223D01*
X148112483Y-85669983D01*
X148143723Y-85644346D01*
X148179362Y-85625296D01*
X148218032Y-85613565D01*
X148264388Y-85609000D01*
X148915612Y-85609000D01*
X148961968Y-85613565D01*
G37*
G36*
X138159928Y-85376764D02*
G01*
X138181009Y-85383160D01*
X138200445Y-85393548D01*
X138217476Y-85407524D01*
X138231452Y-85424555D01*
X138241840Y-85443991D01*
X138248236Y-85465072D01*
X138251000Y-85493140D01*
X138251000Y-85956860D01*
X138248236Y-85984928D01*
X138241840Y-86006009D01*
X138231452Y-86025445D01*
X138217476Y-86042476D01*
X138200445Y-86056452D01*
X138181009Y-86066840D01*
X138159928Y-86073236D01*
X138131860Y-86076000D01*
X136318140Y-86076000D01*
X136290072Y-86073236D01*
X136268991Y-86066840D01*
X136249555Y-86056452D01*
X136232524Y-86042476D01*
X136218548Y-86025445D01*
X136208160Y-86006009D01*
X136201764Y-85984928D01*
X136199000Y-85956860D01*
X136199000Y-85493140D01*
X136201764Y-85465072D01*
X136208160Y-85443991D01*
X136218548Y-85424555D01*
X136232524Y-85407524D01*
X136249555Y-85393548D01*
X136268991Y-85383160D01*
X136290072Y-85376764D01*
X136318140Y-85374000D01*
X138131860Y-85374000D01*
X138159928Y-85376764D01*
G37*
G36*
X143109928Y-85376764D02*
G01*
X143131009Y-85383160D01*
X143150445Y-85393548D01*
X143167476Y-85407524D01*
X143181452Y-85424555D01*
X143191840Y-85443991D01*
X143198236Y-85465072D01*
X143201000Y-85493140D01*
X143201000Y-85956860D01*
X143198236Y-85984928D01*
X143191840Y-86006009D01*
X143181452Y-86025445D01*
X143167476Y-86042476D01*
X143150445Y-86056452D01*
X143131009Y-86066840D01*
X143109928Y-86073236D01*
X143081860Y-86076000D01*
X141268140Y-86076000D01*
X141240072Y-86073236D01*
X141218991Y-86066840D01*
X141199555Y-86056452D01*
X141182524Y-86042476D01*
X141168548Y-86025445D01*
X141158160Y-86006009D01*
X141151764Y-85984928D01*
X141149000Y-85956860D01*
X141149000Y-85493140D01*
X141151764Y-85465072D01*
X141158160Y-85443991D01*
X141168548Y-85424555D01*
X141182524Y-85407524D01*
X141199555Y-85393548D01*
X141218991Y-85383160D01*
X141240072Y-85376764D01*
X141268140Y-85374000D01*
X143081860Y-85374000D01*
X143109928Y-85376764D01*
G37*
G36*
X127901000Y-84721000D02*
G01*
X126099000Y-84721000D01*
X126099000Y-82919000D01*
X127901000Y-82919000D01*
X127901000Y-84721000D01*
G37*
G36*
X158863512Y-82923927D02*
G01*
X159012812Y-82953624D01*
X159176784Y-83021544D01*
X159324354Y-83120147D01*
X159449853Y-83245646D01*
X159548456Y-83393216D01*
X159616376Y-83557188D01*
X159651000Y-83731259D01*
X159651000Y-83908741D01*
X159616376Y-84082812D01*
X159548456Y-84246784D01*
X159449853Y-84394354D01*
X159324354Y-84519853D01*
X159176784Y-84618456D01*
X159012812Y-84686376D01*
X158863512Y-84716073D01*
X158838742Y-84721000D01*
X158661258Y-84721000D01*
X158636488Y-84716073D01*
X158487188Y-84686376D01*
X158323216Y-84618456D01*
X158175646Y-84519853D01*
X158050147Y-84394354D01*
X157951544Y-84246784D01*
X157883624Y-84082812D01*
X157849000Y-83908741D01*
X157849000Y-83731259D01*
X157883624Y-83557188D01*
X157951544Y-83393216D01*
X158050147Y-83245646D01*
X158175646Y-83120147D01*
X158323216Y-83021544D01*
X158487188Y-82953624D01*
X158636488Y-82923927D01*
X158661258Y-82919000D01*
X158838742Y-82919000D01*
X158863512Y-82923927D01*
G37*
G36*
X156323512Y-82923927D02*
G01*
X156472812Y-82953624D01*
X156636784Y-83021544D01*
X156784354Y-83120147D01*
X156909853Y-83245646D01*
X157008456Y-83393216D01*
X157076376Y-83557188D01*
X157111000Y-83731259D01*
X157111000Y-83908741D01*
X157076376Y-84082812D01*
X157008456Y-84246784D01*
X156909853Y-84394354D01*
X156784354Y-84519853D01*
X156636784Y-84618456D01*
X156472812Y-84686376D01*
X156323512Y-84716073D01*
X156298742Y-84721000D01*
X156121258Y-84721000D01*
X156096488Y-84716073D01*
X155947188Y-84686376D01*
X155783216Y-84618456D01*
X155635646Y-84519853D01*
X155510147Y-84394354D01*
X155411544Y-84246784D01*
X155343624Y-84082812D01*
X155309000Y-83908741D01*
X155309000Y-83731259D01*
X155343624Y-83557188D01*
X155411544Y-83393216D01*
X155510147Y-83245646D01*
X155635646Y-83120147D01*
X155783216Y-83021544D01*
X155947188Y-82953624D01*
X156096488Y-82923927D01*
X156121258Y-82919000D01*
X156298742Y-82919000D01*
X156323512Y-82923927D01*
G37*
G36*
X153168604Y-83278347D02*
G01*
X153205144Y-83289432D01*
X153238821Y-83307433D01*
X153268341Y-83331659D01*
X153292567Y-83361179D01*
X153310568Y-83394856D01*
X153321653Y-83431396D01*
X153326000Y-83475538D01*
X153326000Y-84424462D01*
X153321653Y-84468604D01*
X153310568Y-84505144D01*
X153292567Y-84538821D01*
X153268341Y-84568341D01*
X153238821Y-84592567D01*
X153205144Y-84610568D01*
X153168604Y-84621653D01*
X153124462Y-84626000D01*
X151675538Y-84626000D01*
X151631396Y-84621653D01*
X151594856Y-84610568D01*
X151561179Y-84592567D01*
X151531659Y-84568341D01*
X151507433Y-84538821D01*
X151489432Y-84505144D01*
X151478347Y-84468604D01*
X151474000Y-84424462D01*
X151474000Y-83475538D01*
X151478347Y-83431396D01*
X151489432Y-83394856D01*
X151507433Y-83361179D01*
X151531659Y-83331659D01*
X151561179Y-83307433D01*
X151594856Y-83289432D01*
X151631396Y-83278347D01*
X151675538Y-83274000D01*
X153124462Y-83274000D01*
X153168604Y-83278347D01*
G37*
G36*
X147691968Y-83073565D02*
G01*
X147730638Y-83085296D01*
X147766277Y-83104346D01*
X147797517Y-83129983D01*
X147823154Y-83161223D01*
X147842204Y-83196862D01*
X147853935Y-83235532D01*
X147858500Y-83281888D01*
X147858500Y-84358112D01*
X147853935Y-84404468D01*
X147842204Y-84443138D01*
X147823154Y-84478777D01*
X147797517Y-84510017D01*
X147766277Y-84535654D01*
X147730638Y-84554704D01*
X147691968Y-84566435D01*
X147645612Y-84571000D01*
X146994388Y-84571000D01*
X146948032Y-84566435D01*
X146909362Y-84554704D01*
X146873723Y-84535654D01*
X146842483Y-84510017D01*
X146816846Y-84478777D01*
X146797796Y-84443138D01*
X146786065Y-84404468D01*
X146781500Y-84358112D01*
X146781500Y-83281888D01*
X146786065Y-83235532D01*
X146797796Y-83196862D01*
X146816846Y-83161223D01*
X146842483Y-83129983D01*
X146873723Y-83104346D01*
X146909362Y-83085296D01*
X146948032Y-83073565D01*
X146994388Y-83069000D01*
X147645612Y-83069000D01*
X147691968Y-83073565D01*
G37*
G36*
X149566968Y-83073565D02*
G01*
X149605638Y-83085296D01*
X149641277Y-83104346D01*
X149672517Y-83129983D01*
X149698154Y-83161223D01*
X149717204Y-83196862D01*
X149728935Y-83235532D01*
X149733500Y-83281888D01*
X149733500Y-84358112D01*
X149728935Y-84404468D01*
X149717204Y-84443138D01*
X149698154Y-84478777D01*
X149672517Y-84510017D01*
X149641277Y-84535654D01*
X149605638Y-84554704D01*
X149566968Y-84566435D01*
X149520612Y-84571000D01*
X148869388Y-84571000D01*
X148823032Y-84566435D01*
X148784362Y-84554704D01*
X148748723Y-84535654D01*
X148717483Y-84510017D01*
X148691846Y-84478777D01*
X148672796Y-84443138D01*
X148661065Y-84404468D01*
X148656500Y-84358112D01*
X148656500Y-83281888D01*
X148661065Y-83235532D01*
X148672796Y-83196862D01*
X148691846Y-83161223D01*
X148717483Y-83129983D01*
X148748723Y-83104346D01*
X148784362Y-83085296D01*
X148823032Y-83073565D01*
X148869388Y-83069000D01*
X149520612Y-83069000D01*
X149566968Y-83073565D01*
G37*
G36*
X133056968Y-81803565D02*
G01*
X133095638Y-81815296D01*
X133131277Y-81834346D01*
X133162517Y-81859983D01*
X133188154Y-81891223D01*
X133207204Y-81926862D01*
X133218935Y-81965532D01*
X133223500Y-82011888D01*
X133223500Y-83088112D01*
X133218935Y-83134468D01*
X133207204Y-83173138D01*
X133188154Y-83208777D01*
X133162517Y-83240017D01*
X133131277Y-83265654D01*
X133095638Y-83284704D01*
X133056968Y-83296435D01*
X133010612Y-83301000D01*
X132359388Y-83301000D01*
X132313032Y-83296435D01*
X132274362Y-83284704D01*
X132238723Y-83265654D01*
X132207483Y-83240017D01*
X132181846Y-83208777D01*
X132162796Y-83173138D01*
X132151065Y-83134468D01*
X132146500Y-83088112D01*
X132146500Y-82011888D01*
X132151065Y-81965532D01*
X132162796Y-81926862D01*
X132181846Y-81891223D01*
X132207483Y-81859983D01*
X132238723Y-81834346D01*
X132274362Y-81815296D01*
X132313032Y-81803565D01*
X132359388Y-81799000D01*
X133010612Y-81799000D01*
X133056968Y-81803565D01*
G37*
G36*
X131181968Y-81803565D02*
G01*
X131220638Y-81815296D01*
X131256277Y-81834346D01*
X131287517Y-81859983D01*
X131313154Y-81891223D01*
X131332204Y-81926862D01*
X131343935Y-81965532D01*
X131348500Y-82011888D01*
X131348500Y-83088112D01*
X131343935Y-83134468D01*
X131332204Y-83173138D01*
X131313154Y-83208777D01*
X131287517Y-83240017D01*
X131256277Y-83265654D01*
X131220638Y-83284704D01*
X131181968Y-83296435D01*
X131135612Y-83301000D01*
X130484388Y-83301000D01*
X130438032Y-83296435D01*
X130399362Y-83284704D01*
X130363723Y-83265654D01*
X130332483Y-83240017D01*
X130306846Y-83208777D01*
X130287796Y-83173138D01*
X130276065Y-83134468D01*
X130271500Y-83088112D01*
X130271500Y-82011888D01*
X130276065Y-81965532D01*
X130287796Y-81926862D01*
X130306846Y-81891223D01*
X130332483Y-81859983D01*
X130363723Y-81834346D01*
X130399362Y-81815296D01*
X130438032Y-81803565D01*
X130484388Y-81799000D01*
X131135612Y-81799000D01*
X131181968Y-81803565D01*
G37*
G36*
X157111000Y-82181000D02*
G01*
X155309000Y-82181000D01*
X155309000Y-80379000D01*
X157111000Y-80379000D01*
X157111000Y-82181000D01*
G37*
G36*
X158863512Y-80383927D02*
G01*
X159012812Y-80413624D01*
X159176784Y-80481544D01*
X159324354Y-80580147D01*
X159449853Y-80705646D01*
X159548456Y-80853216D01*
X159616376Y-81017188D01*
X159651000Y-81191259D01*
X159651000Y-81368741D01*
X159616376Y-81542812D01*
X159548456Y-81706784D01*
X159449853Y-81854354D01*
X159324354Y-81979853D01*
X159176784Y-82078456D01*
X159012812Y-82146376D01*
X158863512Y-82176073D01*
X158838742Y-82181000D01*
X158661258Y-82181000D01*
X158636488Y-82176073D01*
X158487188Y-82146376D01*
X158323216Y-82078456D01*
X158175646Y-81979853D01*
X158050147Y-81854354D01*
X157951544Y-81706784D01*
X157883624Y-81542812D01*
X157849000Y-81368741D01*
X157849000Y-81191259D01*
X157883624Y-81017188D01*
X157951544Y-80853216D01*
X158050147Y-80705646D01*
X158175646Y-80580147D01*
X158323216Y-80481544D01*
X158487188Y-80413624D01*
X158636488Y-80383927D01*
X158661258Y-80379000D01*
X158838742Y-80379000D01*
X158863512Y-80383927D01*
G37*
G36*
X148961968Y-80533565D02*
G01*
X149000638Y-80545296D01*
X149036277Y-80564346D01*
X149067517Y-80589983D01*
X149093154Y-80621223D01*
X149112204Y-80656862D01*
X149123935Y-80695532D01*
X149128500Y-80741888D01*
X149128500Y-81818112D01*
X149123935Y-81864468D01*
X149112204Y-81903138D01*
X149093154Y-81938777D01*
X149067517Y-81970017D01*
X149036277Y-81995654D01*
X149000638Y-82014704D01*
X148961968Y-82026435D01*
X148915612Y-82031000D01*
X148264388Y-82031000D01*
X148218032Y-82026435D01*
X148179362Y-82014704D01*
X148143723Y-81995654D01*
X148112483Y-81970017D01*
X148086846Y-81938777D01*
X148067796Y-81903138D01*
X148056065Y-81864468D01*
X148051500Y-81818112D01*
X148051500Y-80741888D01*
X148056065Y-80695532D01*
X148067796Y-80656862D01*
X148086846Y-80621223D01*
X148112483Y-80589983D01*
X148143723Y-80564346D01*
X148179362Y-80545296D01*
X148218032Y-80533565D01*
X148264388Y-80529000D01*
X148915612Y-80529000D01*
X148961968Y-80533565D01*
G37*
G36*
X147086968Y-80533565D02*
G01*
X147125638Y-80545296D01*
X147161277Y-80564346D01*
X147192517Y-80589983D01*
X147218154Y-80621223D01*
X147237204Y-80656862D01*
X147248935Y-80695532D01*
X147253500Y-80741888D01*
X147253500Y-81818112D01*
X147248935Y-81864468D01*
X147237204Y-81903138D01*
X147218154Y-81938777D01*
X147192517Y-81970017D01*
X147161277Y-81995654D01*
X147125638Y-82014704D01*
X147086968Y-82026435D01*
X147040612Y-82031000D01*
X146389388Y-82031000D01*
X146343032Y-82026435D01*
X146304362Y-82014704D01*
X146268723Y-81995654D01*
X146237483Y-81970017D01*
X146211846Y-81938777D01*
X146192796Y-81903138D01*
X146181065Y-81864468D01*
X146176500Y-81818112D01*
X146176500Y-80741888D01*
X146181065Y-80695532D01*
X146192796Y-80656862D01*
X146211846Y-80621223D01*
X146237483Y-80589983D01*
X146268723Y-80564346D01*
X146304362Y-80545296D01*
X146343032Y-80533565D01*
X146389388Y-80529000D01*
X147040612Y-80529000D01*
X147086968Y-80533565D01*
G37*
G36*
X141341968Y-80533565D02*
G01*
X141380638Y-80545296D01*
X141416277Y-80564346D01*
X141447517Y-80589983D01*
X141473154Y-80621223D01*
X141492204Y-80656862D01*
X141503935Y-80695532D01*
X141508500Y-80741888D01*
X141508500Y-81818112D01*
X141503935Y-81864468D01*
X141492204Y-81903138D01*
X141473154Y-81938777D01*
X141447517Y-81970017D01*
X141416277Y-81995654D01*
X141380638Y-82014704D01*
X141341968Y-82026435D01*
X141295612Y-82031000D01*
X140644388Y-82031000D01*
X140598032Y-82026435D01*
X140559362Y-82014704D01*
X140523723Y-81995654D01*
X140492483Y-81970017D01*
X140466846Y-81938777D01*
X140447796Y-81903138D01*
X140436065Y-81864468D01*
X140431500Y-81818112D01*
X140431500Y-80741888D01*
X140436065Y-80695532D01*
X140447796Y-80656862D01*
X140466846Y-80621223D01*
X140492483Y-80589983D01*
X140523723Y-80564346D01*
X140559362Y-80545296D01*
X140598032Y-80533565D01*
X140644388Y-80529000D01*
X141295612Y-80529000D01*
X141341968Y-80533565D01*
G37*
G36*
X139466968Y-80533565D02*
G01*
X139505638Y-80545296D01*
X139541277Y-80564346D01*
X139572517Y-80589983D01*
X139598154Y-80621223D01*
X139617204Y-80656862D01*
X139628935Y-80695532D01*
X139633500Y-80741888D01*
X139633500Y-81818112D01*
X139628935Y-81864468D01*
X139617204Y-81903138D01*
X139598154Y-81938777D01*
X139572517Y-81970017D01*
X139541277Y-81995654D01*
X139505638Y-82014704D01*
X139466968Y-82026435D01*
X139420612Y-82031000D01*
X138769388Y-82031000D01*
X138723032Y-82026435D01*
X138684362Y-82014704D01*
X138648723Y-81995654D01*
X138617483Y-81970017D01*
X138591846Y-81938777D01*
X138572796Y-81903138D01*
X138561065Y-81864468D01*
X138556500Y-81818112D01*
X138556500Y-80741888D01*
X138561065Y-80695532D01*
X138572796Y-80656862D01*
X138591846Y-80621223D01*
X138617483Y-80589983D01*
X138648723Y-80564346D01*
X138684362Y-80545296D01*
X138723032Y-80533565D01*
X138769388Y-80529000D01*
X139420612Y-80529000D01*
X139466968Y-80533565D01*
G37*
G36*
X153168604Y-80478347D02*
G01*
X153205144Y-80489432D01*
X153238821Y-80507433D01*
X153268341Y-80531659D01*
X153292567Y-80561179D01*
X153310568Y-80594856D01*
X153321653Y-80631396D01*
X153326000Y-80675538D01*
X153326000Y-81624462D01*
X153321653Y-81668604D01*
X153310568Y-81705144D01*
X153292567Y-81738821D01*
X153268341Y-81768341D01*
X153238821Y-81792567D01*
X153205144Y-81810568D01*
X153168604Y-81821653D01*
X153124462Y-81826000D01*
X151675538Y-81826000D01*
X151631396Y-81821653D01*
X151594856Y-81810568D01*
X151561179Y-81792567D01*
X151531659Y-81768341D01*
X151507433Y-81738821D01*
X151489432Y-81705144D01*
X151478347Y-81668604D01*
X151474000Y-81624462D01*
X151474000Y-80675538D01*
X151478347Y-80631396D01*
X151489432Y-80594856D01*
X151507433Y-80561179D01*
X151531659Y-80531659D01*
X151561179Y-80507433D01*
X151594856Y-80489432D01*
X151631396Y-80478347D01*
X151675538Y-80474000D01*
X153124462Y-80474000D01*
X153168604Y-80478347D01*
G37*
G36*
X127901000Y-80911000D02*
G01*
X126099000Y-80911000D01*
X126099000Y-79109000D01*
X127901000Y-79109000D01*
X127901000Y-80911000D01*
G37*
G36*
X133056968Y-79263565D02*
G01*
X133095638Y-79275296D01*
X133131277Y-79294346D01*
X133162517Y-79319983D01*
X133188154Y-79351223D01*
X133207204Y-79386862D01*
X133218935Y-79425532D01*
X133223500Y-79471888D01*
X133223500Y-80548112D01*
X133218935Y-80594468D01*
X133207204Y-80633138D01*
X133188154Y-80668777D01*
X133162517Y-80700017D01*
X133131277Y-80725654D01*
X133095638Y-80744704D01*
X133056968Y-80756435D01*
X133010612Y-80761000D01*
X132359388Y-80761000D01*
X132313032Y-80756435D01*
X132274362Y-80744704D01*
X132238723Y-80725654D01*
X132207483Y-80700017D01*
X132181846Y-80668777D01*
X132162796Y-80633138D01*
X132151065Y-80594468D01*
X132146500Y-80548112D01*
X132146500Y-79471888D01*
X132151065Y-79425532D01*
X132162796Y-79386862D01*
X132181846Y-79351223D01*
X132207483Y-79319983D01*
X132238723Y-79294346D01*
X132274362Y-79275296D01*
X132313032Y-79263565D01*
X132359388Y-79259000D01*
X133010612Y-79259000D01*
X133056968Y-79263565D01*
G37*
G36*
X131181968Y-79263565D02*
G01*
X131220638Y-79275296D01*
X131256277Y-79294346D01*
X131287517Y-79319983D01*
X131313154Y-79351223D01*
X131332204Y-79386862D01*
X131343935Y-79425532D01*
X131348500Y-79471888D01*
X131348500Y-80548112D01*
X131343935Y-80594468D01*
X131332204Y-80633138D01*
X131313154Y-80668777D01*
X131287517Y-80700017D01*
X131256277Y-80725654D01*
X131220638Y-80744704D01*
X131181968Y-80756435D01*
X131135612Y-80761000D01*
X130484388Y-80761000D01*
X130438032Y-80756435D01*
X130399362Y-80744704D01*
X130363723Y-80725654D01*
X130332483Y-80700017D01*
X130306846Y-80668777D01*
X130287796Y-80633138D01*
X130276065Y-80594468D01*
X130271500Y-80548112D01*
X130271500Y-79471888D01*
X130276065Y-79425532D01*
X130287796Y-79386862D01*
X130306846Y-79351223D01*
X130332483Y-79319983D01*
X130363723Y-79294346D01*
X130399362Y-79275296D01*
X130438032Y-79263565D01*
X130484388Y-79259000D01*
X131135612Y-79259000D01*
X131181968Y-79263565D01*
G37*
M02*
