G04 #@! TF.GenerationSoftware,KiCad,Pcbnew,(5.1.5-0-10_14)*
G04 #@! TF.CreationDate,2020-03-24T20:34:03-05:00*
G04 #@! TF.ProjectId,Sensors,53656e73-6f72-4732-9e6b-696361645f70,rev?*
G04 #@! TF.SameCoordinates,Original*
G04 #@! TF.FileFunction,Legend,Top*
G04 #@! TF.FilePolarity,Positive*
%FSLAX46Y46*%
G04 Gerber Fmt 4.6, Leading zero omitted, Abs format (unit mm)*
G04 Created by KiCad (PCBNEW (5.1.5-0-10_14)) date 2020-03-24 20:34:03*
%MOMM*%
%LPD*%
G04 APERTURE LIST*
%ADD10C,0.300000*%
%ADD11C,0.120000*%
%ADD12C,0.200000*%
%ADD13C,0.127000*%
%ADD14C,0.050000*%
%ADD15C,0.150000*%
%ADD16C,0.015000*%
G04 APERTURE END LIST*
D10*
X144351428Y-81943571D02*
X144351428Y-80443571D01*
X145208571Y-81943571D01*
X145208571Y-80443571D01*
X144458571Y-83707857D02*
X144958571Y-83707857D01*
X145172857Y-84493571D02*
X144458571Y-84493571D01*
X144458571Y-82993571D01*
X145172857Y-82993571D01*
X144351428Y-86972142D02*
X144565714Y-87043571D01*
X144922857Y-87043571D01*
X145065714Y-86972142D01*
X145137142Y-86900714D01*
X145208571Y-86757857D01*
X145208571Y-86615000D01*
X145137142Y-86472142D01*
X145065714Y-86400714D01*
X144922857Y-86329285D01*
X144637142Y-86257857D01*
X144494285Y-86186428D01*
X144422857Y-86115000D01*
X144351428Y-85972142D01*
X144351428Y-85829285D01*
X144422857Y-85686428D01*
X144494285Y-85615000D01*
X144637142Y-85543571D01*
X144994285Y-85543571D01*
X145208571Y-85615000D01*
X144137142Y-88093571D02*
X144494285Y-89593571D01*
X144780000Y-88522142D01*
X145065714Y-89593571D01*
X145422857Y-88093571D01*
X160861428Y-81943571D02*
X160861428Y-80443571D01*
X161718571Y-81943571D01*
X161718571Y-80443571D01*
X160968571Y-83707857D02*
X161468571Y-83707857D01*
X161682857Y-84493571D02*
X160968571Y-84493571D01*
X160968571Y-82993571D01*
X161682857Y-82993571D01*
X160861428Y-86972142D02*
X161075714Y-87043571D01*
X161432857Y-87043571D01*
X161575714Y-86972142D01*
X161647142Y-86900714D01*
X161718571Y-86757857D01*
X161718571Y-86615000D01*
X161647142Y-86472142D01*
X161575714Y-86400714D01*
X161432857Y-86329285D01*
X161147142Y-86257857D01*
X161004285Y-86186428D01*
X160932857Y-86115000D01*
X160861428Y-85972142D01*
X160861428Y-85829285D01*
X160932857Y-85686428D01*
X161004285Y-85615000D01*
X161147142Y-85543571D01*
X161504285Y-85543571D01*
X161718571Y-85615000D01*
X160647142Y-88093571D02*
X161004285Y-89593571D01*
X161290000Y-88522142D01*
X161575714Y-89593571D01*
X161932857Y-88093571D01*
D11*
X127591078Y-81840000D02*
X127073922Y-81840000D01*
X127591078Y-83260000D02*
X127073922Y-83260000D01*
X132006078Y-81840000D02*
X131488922Y-81840000D01*
X132006078Y-83260000D02*
X131488922Y-83260000D01*
D12*
X130987000Y-90710000D02*
G75*
G03X130987000Y-90710000I-100000J0D01*
G01*
D13*
X129040000Y-91210000D02*
X130040000Y-91210000D01*
X130040000Y-94210000D02*
X129040000Y-94210000D01*
D11*
X139700000Y-85070000D02*
X136250000Y-85070000D01*
X139700000Y-85070000D02*
X141650000Y-85070000D01*
X139700000Y-90190000D02*
X137750000Y-90190000D01*
X139700000Y-90190000D02*
X141650000Y-90190000D01*
X148848578Y-88190000D02*
X148331422Y-88190000D01*
X148848578Y-89610000D02*
X148331422Y-89610000D01*
X140291078Y-80570000D02*
X139773922Y-80570000D01*
X140291078Y-81990000D02*
X139773922Y-81990000D01*
X148516078Y-83110000D02*
X147998922Y-83110000D01*
X148516078Y-84530000D02*
X147998922Y-84530000D01*
X147911078Y-85650000D02*
X147393922Y-85650000D01*
X147911078Y-87070000D02*
X147393922Y-87070000D01*
X147393922Y-81990000D02*
X147911078Y-81990000D01*
X147393922Y-80570000D02*
X147911078Y-80570000D01*
X132640000Y-87371422D02*
X132640000Y-87888578D01*
X134060000Y-87371422D02*
X134060000Y-87888578D01*
X154880000Y-79950000D02*
X156210000Y-79950000D01*
X154880000Y-81280000D02*
X154880000Y-79950000D01*
X157480000Y-79950000D02*
X160080000Y-79950000D01*
X157480000Y-82550000D02*
X157480000Y-79950000D01*
X154880000Y-82550000D02*
X157480000Y-82550000D01*
X160080000Y-79950000D02*
X160080000Y-95310000D01*
X154880000Y-82550000D02*
X154880000Y-95310000D01*
X154880000Y-95310000D02*
X160080000Y-95310000D01*
X151490000Y-81947936D02*
X151490000Y-83152064D01*
X153310000Y-81947936D02*
X153310000Y-83152064D01*
X153310000Y-93312064D02*
X153310000Y-92107936D01*
X151490000Y-93312064D02*
X151490000Y-92107936D01*
X130131078Y-88190000D02*
X129613922Y-88190000D01*
X130131078Y-89610000D02*
X129613922Y-89610000D01*
D14*
X123418184Y-95703172D02*
X123418184Y-94701422D01*
X123752101Y-95416958D01*
X124086017Y-94701422D01*
X124086017Y-95703172D01*
X124563041Y-95703172D02*
X124563041Y-94701422D01*
X125135470Y-95703172D02*
X124706148Y-95130744D01*
X125135470Y-94701422D02*
X124563041Y-95273851D01*
X125517089Y-94796827D02*
X125564791Y-94749125D01*
X125660196Y-94701422D01*
X125898708Y-94701422D01*
X125994113Y-94749125D01*
X126041815Y-94796827D01*
X126089517Y-94892232D01*
X126089517Y-94987636D01*
X126041815Y-95130744D01*
X125469386Y-95703172D01*
X126089517Y-95703172D01*
X122387082Y-86813009D02*
X122387082Y-85811619D01*
X122720878Y-86526898D01*
X123054675Y-85811619D01*
X123054675Y-86813009D01*
X123531527Y-86813009D02*
X123531527Y-85811619D01*
X124580603Y-86717639D02*
X124532917Y-86765324D01*
X124389862Y-86813009D01*
X124294491Y-86813009D01*
X124151435Y-86765324D01*
X124056065Y-86669954D01*
X124008380Y-86574583D01*
X123960695Y-86383842D01*
X123960695Y-86240786D01*
X124008380Y-86050045D01*
X124056065Y-85954675D01*
X124151435Y-85859305D01*
X124294491Y-85811619D01*
X124389862Y-85811619D01*
X124532917Y-85859305D01*
X124580603Y-85906990D01*
D15*
X129373333Y-81732380D02*
X129040000Y-81256190D01*
X128801904Y-81732380D02*
X128801904Y-80732380D01*
X129182857Y-80732380D01*
X129278095Y-80780000D01*
X129325714Y-80827619D01*
X129373333Y-80922857D01*
X129373333Y-81065714D01*
X129325714Y-81160952D01*
X129278095Y-81208571D01*
X129182857Y-81256190D01*
X128801904Y-81256190D01*
X129944761Y-81160952D02*
X129849523Y-81113333D01*
X129801904Y-81065714D01*
X129754285Y-80970476D01*
X129754285Y-80922857D01*
X129801904Y-80827619D01*
X129849523Y-80780000D01*
X129944761Y-80732380D01*
X130135238Y-80732380D01*
X130230476Y-80780000D01*
X130278095Y-80827619D01*
X130325714Y-80922857D01*
X130325714Y-80970476D01*
X130278095Y-81065714D01*
X130230476Y-81113333D01*
X130135238Y-81160952D01*
X129944761Y-81160952D01*
X129849523Y-81208571D01*
X129801904Y-81256190D01*
X129754285Y-81351428D01*
X129754285Y-81541904D01*
X129801904Y-81637142D01*
X129849523Y-81684761D01*
X129944761Y-81732380D01*
X130135238Y-81732380D01*
X130230476Y-81684761D01*
X130278095Y-81637142D01*
X130325714Y-81541904D01*
X130325714Y-81351428D01*
X130278095Y-81256190D01*
X130230476Y-81208571D01*
X130135238Y-81160952D01*
X130643333Y-85542380D02*
X130310000Y-85066190D01*
X130071904Y-85542380D02*
X130071904Y-84542380D01*
X130452857Y-84542380D01*
X130548095Y-84590000D01*
X130595714Y-84637619D01*
X130643333Y-84732857D01*
X130643333Y-84875714D01*
X130595714Y-84970952D01*
X130548095Y-85018571D01*
X130452857Y-85066190D01*
X130071904Y-85066190D01*
X130976666Y-84542380D02*
X131643333Y-84542380D01*
X131214761Y-85542380D01*
D16*
X132659904Y-94547619D02*
X131859904Y-94547619D01*
X132431333Y-94280952D01*
X131859904Y-94014285D01*
X132659904Y-94014285D01*
X132659904Y-93633333D02*
X131859904Y-93633333D01*
X132659904Y-93176190D02*
X132202761Y-93519047D01*
X131859904Y-93176190D02*
X132317047Y-93633333D01*
X132659904Y-92414285D02*
X132659904Y-92871428D01*
X132659904Y-92642857D02*
X131859904Y-92642857D01*
X131974190Y-92719047D01*
X132050380Y-92795238D01*
X132088476Y-92871428D01*
D15*
X136398095Y-83682380D02*
X136398095Y-84491904D01*
X136445714Y-84587142D01*
X136493333Y-84634761D01*
X136588571Y-84682380D01*
X136779047Y-84682380D01*
X136874285Y-84634761D01*
X136921904Y-84587142D01*
X136969523Y-84491904D01*
X136969523Y-83682380D01*
X137969523Y-84682380D02*
X137398095Y-84682380D01*
X137683809Y-84682380D02*
X137683809Y-83682380D01*
X137588571Y-83825238D01*
X137493333Y-83920476D01*
X137398095Y-83968095D01*
X148423333Y-91002380D02*
X148090000Y-90526190D01*
X147851904Y-91002380D02*
X147851904Y-90002380D01*
X148232857Y-90002380D01*
X148328095Y-90050000D01*
X148375714Y-90097619D01*
X148423333Y-90192857D01*
X148423333Y-90335714D01*
X148375714Y-90430952D01*
X148328095Y-90478571D01*
X148232857Y-90526190D01*
X147851904Y-90526190D01*
X149280476Y-90002380D02*
X149090000Y-90002380D01*
X148994761Y-90050000D01*
X148947142Y-90097619D01*
X148851904Y-90240476D01*
X148804285Y-90430952D01*
X148804285Y-90811904D01*
X148851904Y-90907142D01*
X148899523Y-90954761D01*
X148994761Y-91002380D01*
X149185238Y-91002380D01*
X149280476Y-90954761D01*
X149328095Y-90907142D01*
X149375714Y-90811904D01*
X149375714Y-90573809D01*
X149328095Y-90478571D01*
X149280476Y-90430952D01*
X149185238Y-90383333D01*
X148994761Y-90383333D01*
X148899523Y-90430952D01*
X148851904Y-90478571D01*
X148804285Y-90573809D01*
X139533333Y-84272380D02*
X139200000Y-83796190D01*
X138961904Y-84272380D02*
X138961904Y-83272380D01*
X139342857Y-83272380D01*
X139438095Y-83320000D01*
X139485714Y-83367619D01*
X139533333Y-83462857D01*
X139533333Y-83605714D01*
X139485714Y-83700952D01*
X139438095Y-83748571D01*
X139342857Y-83796190D01*
X138961904Y-83796190D01*
X140438095Y-83272380D02*
X139961904Y-83272380D01*
X139914285Y-83748571D01*
X139961904Y-83700952D01*
X140057142Y-83653333D01*
X140295238Y-83653333D01*
X140390476Y-83700952D01*
X140438095Y-83748571D01*
X140485714Y-83843809D01*
X140485714Y-84081904D01*
X140438095Y-84177142D01*
X140390476Y-84224761D01*
X140295238Y-84272380D01*
X140057142Y-84272380D01*
X139961904Y-84224761D01*
X139914285Y-84177142D01*
X148090833Y-85922380D02*
X147757500Y-85446190D01*
X147519404Y-85922380D02*
X147519404Y-84922380D01*
X147900357Y-84922380D01*
X147995595Y-84970000D01*
X148043214Y-85017619D01*
X148090833Y-85112857D01*
X148090833Y-85255714D01*
X148043214Y-85350952D01*
X147995595Y-85398571D01*
X147900357Y-85446190D01*
X147519404Y-85446190D01*
X148947976Y-85255714D02*
X148947976Y-85922380D01*
X148709880Y-84874761D02*
X148471785Y-85589047D01*
X149090833Y-85589047D01*
X147485833Y-89352380D02*
X147152500Y-88876190D01*
X146914404Y-89352380D02*
X146914404Y-88352380D01*
X147295357Y-88352380D01*
X147390595Y-88400000D01*
X147438214Y-88447619D01*
X147485833Y-88542857D01*
X147485833Y-88685714D01*
X147438214Y-88780952D01*
X147390595Y-88828571D01*
X147295357Y-88876190D01*
X146914404Y-88876190D01*
X147819166Y-88352380D02*
X148438214Y-88352380D01*
X148104880Y-88733333D01*
X148247738Y-88733333D01*
X148342976Y-88780952D01*
X148390595Y-88828571D01*
X148438214Y-88923809D01*
X148438214Y-89161904D01*
X148390595Y-89257142D01*
X148342976Y-89304761D01*
X148247738Y-89352380D01*
X147962023Y-89352380D01*
X147866785Y-89304761D01*
X147819166Y-89257142D01*
X149693333Y-80462380D02*
X149360000Y-79986190D01*
X149121904Y-80462380D02*
X149121904Y-79462380D01*
X149502857Y-79462380D01*
X149598095Y-79510000D01*
X149645714Y-79557619D01*
X149693333Y-79652857D01*
X149693333Y-79795714D01*
X149645714Y-79890952D01*
X149598095Y-79938571D01*
X149502857Y-79986190D01*
X149121904Y-79986190D01*
X150074285Y-79557619D02*
X150121904Y-79510000D01*
X150217142Y-79462380D01*
X150455238Y-79462380D01*
X150550476Y-79510000D01*
X150598095Y-79557619D01*
X150645714Y-79652857D01*
X150645714Y-79748095D01*
X150598095Y-79890952D01*
X150026666Y-80462380D01*
X150645714Y-80462380D01*
X133183333Y-85542380D02*
X132850000Y-85066190D01*
X132611904Y-85542380D02*
X132611904Y-84542380D01*
X132992857Y-84542380D01*
X133088095Y-84590000D01*
X133135714Y-84637619D01*
X133183333Y-84732857D01*
X133183333Y-84875714D01*
X133135714Y-84970952D01*
X133088095Y-85018571D01*
X132992857Y-85066190D01*
X132611904Y-85066190D01*
X134135714Y-85542380D02*
X133564285Y-85542380D01*
X133850000Y-85542380D02*
X133850000Y-84542380D01*
X133754761Y-84685238D01*
X133659523Y-84780476D01*
X133564285Y-84828095D01*
X157146666Y-78402380D02*
X157146666Y-79116666D01*
X157099047Y-79259523D01*
X157003809Y-79354761D01*
X156860952Y-79402380D01*
X156765714Y-79402380D01*
X158146666Y-79402380D02*
X157575238Y-79402380D01*
X157860952Y-79402380D02*
X157860952Y-78402380D01*
X157765714Y-78545238D01*
X157670476Y-78640476D01*
X157575238Y-78688095D01*
X153503333Y-79097142D02*
X153455714Y-79144761D01*
X153312857Y-79192380D01*
X153217619Y-79192380D01*
X153074761Y-79144761D01*
X152979523Y-79049523D01*
X152931904Y-78954285D01*
X152884285Y-78763809D01*
X152884285Y-78620952D01*
X152931904Y-78430476D01*
X152979523Y-78335238D01*
X153074761Y-78240000D01*
X153217619Y-78192380D01*
X153312857Y-78192380D01*
X153455714Y-78240000D01*
X153503333Y-78287619D01*
X153836666Y-78192380D02*
X154455714Y-78192380D01*
X154122380Y-78573333D01*
X154265238Y-78573333D01*
X154360476Y-78620952D01*
X154408095Y-78668571D01*
X154455714Y-78763809D01*
X154455714Y-79001904D01*
X154408095Y-79097142D01*
X154360476Y-79144761D01*
X154265238Y-79192380D01*
X153979523Y-79192380D01*
X153884285Y-79144761D01*
X153836666Y-79097142D01*
X152233333Y-89257142D02*
X152185714Y-89304761D01*
X152042857Y-89352380D01*
X151947619Y-89352380D01*
X151804761Y-89304761D01*
X151709523Y-89209523D01*
X151661904Y-89114285D01*
X151614285Y-88923809D01*
X151614285Y-88780952D01*
X151661904Y-88590476D01*
X151709523Y-88495238D01*
X151804761Y-88400000D01*
X151947619Y-88352380D01*
X152042857Y-88352380D01*
X152185714Y-88400000D01*
X152233333Y-88447619D01*
X152614285Y-88447619D02*
X152661904Y-88400000D01*
X152757142Y-88352380D01*
X152995238Y-88352380D01*
X153090476Y-88400000D01*
X153138095Y-88447619D01*
X153185714Y-88542857D01*
X153185714Y-88638095D01*
X153138095Y-88780952D01*
X152566666Y-89352380D01*
X153185714Y-89352380D01*
X130643333Y-86717142D02*
X130595714Y-86764761D01*
X130452857Y-86812380D01*
X130357619Y-86812380D01*
X130214761Y-86764761D01*
X130119523Y-86669523D01*
X130071904Y-86574285D01*
X130024285Y-86383809D01*
X130024285Y-86240952D01*
X130071904Y-86050476D01*
X130119523Y-85955238D01*
X130214761Y-85860000D01*
X130357619Y-85812380D01*
X130452857Y-85812380D01*
X130595714Y-85860000D01*
X130643333Y-85907619D01*
X131595714Y-86812380D02*
X131024285Y-86812380D01*
X131310000Y-86812380D02*
X131310000Y-85812380D01*
X131214761Y-85955238D01*
X131119523Y-86050476D01*
X131024285Y-86098095D01*
M02*
