G04 #@! TF.GenerationSoftware,KiCad,Pcbnew,(5.1.5-0-10_14)*
G04 #@! TF.CreationDate,2020-06-27T09:28:46-05:00*
G04 #@! TF.ProjectId,Sensors,53656e73-6f72-4732-9e6b-696361645f70,rev?*
G04 #@! TF.SameCoordinates,Original*
G04 #@! TF.FileFunction,Copper,L2,Bot*
G04 #@! TF.FilePolarity,Positive*
%FSLAX46Y46*%
G04 Gerber Fmt 4.6, Leading zero omitted, Abs format (unit mm)*
G04 Created by KiCad (PCBNEW (5.1.5-0-10_14)) date 2020-06-27 09:28:46*
%MOMM*%
%LPD*%
G04 APERTURE LIST*
%ADD10C,1.208000*%
%ADD11O,1.700000X1.700000*%
%ADD12R,1.700000X1.700000*%
%ADD13C,0.800000*%
%ADD14C,0.250000*%
%ADD15C,0.254000*%
G04 APERTURE END LIST*
D10*
X124730000Y-93030000D03*
X124730000Y-94930000D03*
D11*
X162560000Y-93980000D03*
X160020000Y-93980000D03*
X162560000Y-91440000D03*
X160020000Y-91440000D03*
X162560000Y-88900000D03*
X160020000Y-88900000D03*
X162560000Y-86360000D03*
X160020000Y-86360000D03*
X162560000Y-83820000D03*
X160020000Y-83820000D03*
X162560000Y-81280000D03*
D12*
X160020000Y-81280000D03*
D13*
X144780000Y-81280000D03*
X142240000Y-81280000D03*
X134620000Y-88900000D03*
X148590000Y-91440000D03*
X152400000Y-91440000D03*
D14*
X142240000Y-81280000D02*
X144780000Y-81280000D01*
X134620000Y-86360000D02*
X137160000Y-86360000D01*
X134620000Y-88900000D02*
X134620000Y-86360000D01*
X129540000Y-86360000D02*
X134620000Y-86360000D01*
X152400000Y-85090000D02*
X152400000Y-86360000D01*
X152400000Y-87630000D02*
X152400000Y-91440000D01*
X152400000Y-86360000D02*
X152400000Y-87630000D01*
X152400000Y-87630000D02*
X161290000Y-87630000D01*
X161290000Y-87630000D02*
X162560000Y-88900000D01*
X148590000Y-91440000D02*
X152400000Y-91440000D01*
X162560000Y-86360000D02*
X162560000Y-88900000D01*
X123190000Y-86360000D02*
X129540000Y-86360000D01*
X143510000Y-85090000D02*
X142240000Y-86360000D01*
X142240000Y-86360000D02*
X134620000Y-86360000D01*
X152400000Y-85090000D02*
X143510000Y-85090000D01*
X123190000Y-93390000D02*
X123190000Y-86360000D01*
X124730000Y-94930000D02*
X123190000Y-93390000D01*
X162560000Y-91440000D02*
X162560000Y-93980000D01*
D15*
G36*
X163703000Y-80322893D02*
G01*
X163506632Y-80126525D01*
X163263411Y-79964010D01*
X162993158Y-79852068D01*
X162706260Y-79795000D01*
X162413740Y-79795000D01*
X162126842Y-79852068D01*
X161856589Y-79964010D01*
X161613368Y-80126525D01*
X161481513Y-80258380D01*
X161459502Y-80185820D01*
X161400537Y-80075506D01*
X161321185Y-79978815D01*
X161224494Y-79899463D01*
X161114180Y-79840498D01*
X160994482Y-79804188D01*
X160870000Y-79791928D01*
X159170000Y-79791928D01*
X159045518Y-79804188D01*
X158925820Y-79840498D01*
X158815506Y-79899463D01*
X158718815Y-79978815D01*
X158639463Y-80075506D01*
X158580498Y-80185820D01*
X158544188Y-80305518D01*
X158531928Y-80430000D01*
X158531928Y-82130000D01*
X158544188Y-82254482D01*
X158580498Y-82374180D01*
X158639463Y-82484494D01*
X158718815Y-82581185D01*
X158815506Y-82660537D01*
X158925820Y-82719502D01*
X158998380Y-82741513D01*
X158866525Y-82873368D01*
X158704010Y-83116589D01*
X158592068Y-83386842D01*
X158535000Y-83673740D01*
X158535000Y-83966260D01*
X158592068Y-84253158D01*
X158704010Y-84523411D01*
X158866525Y-84766632D01*
X159073368Y-84973475D01*
X159247760Y-85090000D01*
X159073368Y-85206525D01*
X158866525Y-85413368D01*
X158704010Y-85656589D01*
X158592068Y-85926842D01*
X158535000Y-86213740D01*
X158535000Y-86506260D01*
X158592068Y-86793158D01*
X158704010Y-87063411D01*
X158866525Y-87306632D01*
X159073368Y-87513475D01*
X159247760Y-87630000D01*
X159073368Y-87746525D01*
X158866525Y-87953368D01*
X158704010Y-88196589D01*
X158592068Y-88466842D01*
X158535000Y-88753740D01*
X158535000Y-89046260D01*
X158592068Y-89333158D01*
X158704010Y-89603411D01*
X158866525Y-89846632D01*
X159073368Y-90053475D01*
X159247760Y-90170000D01*
X159073368Y-90286525D01*
X158866525Y-90493368D01*
X158704010Y-90736589D01*
X158592068Y-91006842D01*
X158535000Y-91293740D01*
X158535000Y-91586260D01*
X158592068Y-91873158D01*
X158704010Y-92143411D01*
X158866525Y-92386632D01*
X159073368Y-92593475D01*
X159247760Y-92710000D01*
X159073368Y-92826525D01*
X158866525Y-93033368D01*
X158704010Y-93276589D01*
X158592068Y-93546842D01*
X158535000Y-93833740D01*
X158535000Y-94126260D01*
X158592068Y-94413158D01*
X158704010Y-94683411D01*
X158866525Y-94926632D01*
X159073368Y-95133475D01*
X159316589Y-95295990D01*
X159586842Y-95407932D01*
X159873740Y-95465000D01*
X160166260Y-95465000D01*
X160453158Y-95407932D01*
X160723411Y-95295990D01*
X160966632Y-95133475D01*
X161173475Y-94926632D01*
X161290000Y-94752240D01*
X161406525Y-94926632D01*
X161613368Y-95133475D01*
X161856589Y-95295990D01*
X162126842Y-95407932D01*
X162413740Y-95465000D01*
X162706260Y-95465000D01*
X162993158Y-95407932D01*
X163263411Y-95295990D01*
X163506632Y-95133475D01*
X163703000Y-94937107D01*
X163703000Y-98933000D01*
X152527000Y-98933000D01*
X152527000Y-92710000D01*
X152524560Y-92685224D01*
X152517333Y-92661399D01*
X152505597Y-92639443D01*
X152489803Y-92620197D01*
X152470557Y-92604403D01*
X152448601Y-92592667D01*
X152424776Y-92585440D01*
X152400000Y-92583000D01*
X130810000Y-92583000D01*
X130785224Y-92585440D01*
X130761399Y-92592667D01*
X130739443Y-92604403D01*
X130720197Y-92620197D01*
X130704403Y-92639443D01*
X130692667Y-92661399D01*
X130685440Y-92685224D01*
X130683000Y-92710000D01*
X130683000Y-98933000D01*
X120777000Y-98933000D01*
X120777000Y-95782626D01*
X124056979Y-95782626D01*
X124104773Y-96006617D01*
X124326824Y-96107906D01*
X124564369Y-96163929D01*
X124808280Y-96172532D01*
X125049182Y-96133386D01*
X125277818Y-96047995D01*
X125355227Y-96006617D01*
X125403021Y-95782626D01*
X124730000Y-95109605D01*
X124056979Y-95782626D01*
X120777000Y-95782626D01*
X120777000Y-95008280D01*
X123487468Y-95008280D01*
X123526614Y-95249182D01*
X123612005Y-95477818D01*
X123653383Y-95555227D01*
X123877374Y-95603021D01*
X124550395Y-94930000D01*
X124909605Y-94930000D01*
X125582626Y-95603021D01*
X125806617Y-95555227D01*
X125907906Y-95333176D01*
X125963929Y-95095631D01*
X125972532Y-94851720D01*
X125933386Y-94610818D01*
X125847995Y-94382182D01*
X125806617Y-94304773D01*
X125582626Y-94256979D01*
X124909605Y-94930000D01*
X124550395Y-94930000D01*
X123877374Y-94256979D01*
X123653383Y-94304773D01*
X123552094Y-94526824D01*
X123496071Y-94764369D01*
X123487468Y-95008280D01*
X120777000Y-95008280D01*
X120777000Y-92907969D01*
X123491000Y-92907969D01*
X123491000Y-93152031D01*
X123538614Y-93391403D01*
X123632012Y-93616887D01*
X123767606Y-93819816D01*
X123940184Y-93992394D01*
X124058275Y-94071301D01*
X124056979Y-94077374D01*
X124730000Y-94750395D01*
X125403021Y-94077374D01*
X125401725Y-94071301D01*
X125519816Y-93992394D01*
X125692394Y-93819816D01*
X125827988Y-93616887D01*
X125921386Y-93391403D01*
X125969000Y-93152031D01*
X125969000Y-92907969D01*
X125921386Y-92668597D01*
X125827988Y-92443113D01*
X125692394Y-92240184D01*
X125519816Y-92067606D01*
X125316887Y-91932012D01*
X125091403Y-91838614D01*
X124852031Y-91791000D01*
X124607969Y-91791000D01*
X124368597Y-91838614D01*
X124143113Y-91932012D01*
X123940184Y-92067606D01*
X123767606Y-92240184D01*
X123632012Y-92443113D01*
X123538614Y-92668597D01*
X123491000Y-92907969D01*
X120777000Y-92907969D01*
X120777000Y-81178061D01*
X141205000Y-81178061D01*
X141205000Y-81381939D01*
X141244774Y-81581898D01*
X141322795Y-81770256D01*
X141436063Y-81939774D01*
X141580226Y-82083937D01*
X141749744Y-82197205D01*
X141938102Y-82275226D01*
X142138061Y-82315000D01*
X142341939Y-82315000D01*
X142541898Y-82275226D01*
X142730256Y-82197205D01*
X142899774Y-82083937D01*
X142943711Y-82040000D01*
X144076289Y-82040000D01*
X144120226Y-82083937D01*
X144289744Y-82197205D01*
X144478102Y-82275226D01*
X144678061Y-82315000D01*
X144881939Y-82315000D01*
X145081898Y-82275226D01*
X145270256Y-82197205D01*
X145439774Y-82083937D01*
X145583937Y-81939774D01*
X145697205Y-81770256D01*
X145775226Y-81581898D01*
X145815000Y-81381939D01*
X145815000Y-81178061D01*
X145775226Y-80978102D01*
X145697205Y-80789744D01*
X145583937Y-80620226D01*
X145439774Y-80476063D01*
X145270256Y-80362795D01*
X145081898Y-80284774D01*
X144881939Y-80245000D01*
X144678061Y-80245000D01*
X144478102Y-80284774D01*
X144289744Y-80362795D01*
X144120226Y-80476063D01*
X144076289Y-80520000D01*
X142943711Y-80520000D01*
X142899774Y-80476063D01*
X142730256Y-80362795D01*
X142541898Y-80284774D01*
X142341939Y-80245000D01*
X142138061Y-80245000D01*
X141938102Y-80284774D01*
X141749744Y-80362795D01*
X141580226Y-80476063D01*
X141436063Y-80620226D01*
X141322795Y-80789744D01*
X141244774Y-80978102D01*
X141205000Y-81178061D01*
X120777000Y-81178061D01*
X120777000Y-78867000D01*
X163703000Y-78867000D01*
X163703000Y-80322893D01*
G37*
X163703000Y-80322893D02*
X163506632Y-80126525D01*
X163263411Y-79964010D01*
X162993158Y-79852068D01*
X162706260Y-79795000D01*
X162413740Y-79795000D01*
X162126842Y-79852068D01*
X161856589Y-79964010D01*
X161613368Y-80126525D01*
X161481513Y-80258380D01*
X161459502Y-80185820D01*
X161400537Y-80075506D01*
X161321185Y-79978815D01*
X161224494Y-79899463D01*
X161114180Y-79840498D01*
X160994482Y-79804188D01*
X160870000Y-79791928D01*
X159170000Y-79791928D01*
X159045518Y-79804188D01*
X158925820Y-79840498D01*
X158815506Y-79899463D01*
X158718815Y-79978815D01*
X158639463Y-80075506D01*
X158580498Y-80185820D01*
X158544188Y-80305518D01*
X158531928Y-80430000D01*
X158531928Y-82130000D01*
X158544188Y-82254482D01*
X158580498Y-82374180D01*
X158639463Y-82484494D01*
X158718815Y-82581185D01*
X158815506Y-82660537D01*
X158925820Y-82719502D01*
X158998380Y-82741513D01*
X158866525Y-82873368D01*
X158704010Y-83116589D01*
X158592068Y-83386842D01*
X158535000Y-83673740D01*
X158535000Y-83966260D01*
X158592068Y-84253158D01*
X158704010Y-84523411D01*
X158866525Y-84766632D01*
X159073368Y-84973475D01*
X159247760Y-85090000D01*
X159073368Y-85206525D01*
X158866525Y-85413368D01*
X158704010Y-85656589D01*
X158592068Y-85926842D01*
X158535000Y-86213740D01*
X158535000Y-86506260D01*
X158592068Y-86793158D01*
X158704010Y-87063411D01*
X158866525Y-87306632D01*
X159073368Y-87513475D01*
X159247760Y-87630000D01*
X159073368Y-87746525D01*
X158866525Y-87953368D01*
X158704010Y-88196589D01*
X158592068Y-88466842D01*
X158535000Y-88753740D01*
X158535000Y-89046260D01*
X158592068Y-89333158D01*
X158704010Y-89603411D01*
X158866525Y-89846632D01*
X159073368Y-90053475D01*
X159247760Y-90170000D01*
X159073368Y-90286525D01*
X158866525Y-90493368D01*
X158704010Y-90736589D01*
X158592068Y-91006842D01*
X158535000Y-91293740D01*
X158535000Y-91586260D01*
X158592068Y-91873158D01*
X158704010Y-92143411D01*
X158866525Y-92386632D01*
X159073368Y-92593475D01*
X159247760Y-92710000D01*
X159073368Y-92826525D01*
X158866525Y-93033368D01*
X158704010Y-93276589D01*
X158592068Y-93546842D01*
X158535000Y-93833740D01*
X158535000Y-94126260D01*
X158592068Y-94413158D01*
X158704010Y-94683411D01*
X158866525Y-94926632D01*
X159073368Y-95133475D01*
X159316589Y-95295990D01*
X159586842Y-95407932D01*
X159873740Y-95465000D01*
X160166260Y-95465000D01*
X160453158Y-95407932D01*
X160723411Y-95295990D01*
X160966632Y-95133475D01*
X161173475Y-94926632D01*
X161290000Y-94752240D01*
X161406525Y-94926632D01*
X161613368Y-95133475D01*
X161856589Y-95295990D01*
X162126842Y-95407932D01*
X162413740Y-95465000D01*
X162706260Y-95465000D01*
X162993158Y-95407932D01*
X163263411Y-95295990D01*
X163506632Y-95133475D01*
X163703000Y-94937107D01*
X163703000Y-98933000D01*
X152527000Y-98933000D01*
X152527000Y-92710000D01*
X152524560Y-92685224D01*
X152517333Y-92661399D01*
X152505597Y-92639443D01*
X152489803Y-92620197D01*
X152470557Y-92604403D01*
X152448601Y-92592667D01*
X152424776Y-92585440D01*
X152400000Y-92583000D01*
X130810000Y-92583000D01*
X130785224Y-92585440D01*
X130761399Y-92592667D01*
X130739443Y-92604403D01*
X130720197Y-92620197D01*
X130704403Y-92639443D01*
X130692667Y-92661399D01*
X130685440Y-92685224D01*
X130683000Y-92710000D01*
X130683000Y-98933000D01*
X120777000Y-98933000D01*
X120777000Y-95782626D01*
X124056979Y-95782626D01*
X124104773Y-96006617D01*
X124326824Y-96107906D01*
X124564369Y-96163929D01*
X124808280Y-96172532D01*
X125049182Y-96133386D01*
X125277818Y-96047995D01*
X125355227Y-96006617D01*
X125403021Y-95782626D01*
X124730000Y-95109605D01*
X124056979Y-95782626D01*
X120777000Y-95782626D01*
X120777000Y-95008280D01*
X123487468Y-95008280D01*
X123526614Y-95249182D01*
X123612005Y-95477818D01*
X123653383Y-95555227D01*
X123877374Y-95603021D01*
X124550395Y-94930000D01*
X124909605Y-94930000D01*
X125582626Y-95603021D01*
X125806617Y-95555227D01*
X125907906Y-95333176D01*
X125963929Y-95095631D01*
X125972532Y-94851720D01*
X125933386Y-94610818D01*
X125847995Y-94382182D01*
X125806617Y-94304773D01*
X125582626Y-94256979D01*
X124909605Y-94930000D01*
X124550395Y-94930000D01*
X123877374Y-94256979D01*
X123653383Y-94304773D01*
X123552094Y-94526824D01*
X123496071Y-94764369D01*
X123487468Y-95008280D01*
X120777000Y-95008280D01*
X120777000Y-92907969D01*
X123491000Y-92907969D01*
X123491000Y-93152031D01*
X123538614Y-93391403D01*
X123632012Y-93616887D01*
X123767606Y-93819816D01*
X123940184Y-93992394D01*
X124058275Y-94071301D01*
X124056979Y-94077374D01*
X124730000Y-94750395D01*
X125403021Y-94077374D01*
X125401725Y-94071301D01*
X125519816Y-93992394D01*
X125692394Y-93819816D01*
X125827988Y-93616887D01*
X125921386Y-93391403D01*
X125969000Y-93152031D01*
X125969000Y-92907969D01*
X125921386Y-92668597D01*
X125827988Y-92443113D01*
X125692394Y-92240184D01*
X125519816Y-92067606D01*
X125316887Y-91932012D01*
X125091403Y-91838614D01*
X124852031Y-91791000D01*
X124607969Y-91791000D01*
X124368597Y-91838614D01*
X124143113Y-91932012D01*
X123940184Y-92067606D01*
X123767606Y-92240184D01*
X123632012Y-92443113D01*
X123538614Y-92668597D01*
X123491000Y-92907969D01*
X120777000Y-92907969D01*
X120777000Y-81178061D01*
X141205000Y-81178061D01*
X141205000Y-81381939D01*
X141244774Y-81581898D01*
X141322795Y-81770256D01*
X141436063Y-81939774D01*
X141580226Y-82083937D01*
X141749744Y-82197205D01*
X141938102Y-82275226D01*
X142138061Y-82315000D01*
X142341939Y-82315000D01*
X142541898Y-82275226D01*
X142730256Y-82197205D01*
X142899774Y-82083937D01*
X142943711Y-82040000D01*
X144076289Y-82040000D01*
X144120226Y-82083937D01*
X144289744Y-82197205D01*
X144478102Y-82275226D01*
X144678061Y-82315000D01*
X144881939Y-82315000D01*
X145081898Y-82275226D01*
X145270256Y-82197205D01*
X145439774Y-82083937D01*
X145583937Y-81939774D01*
X145697205Y-81770256D01*
X145775226Y-81581898D01*
X145815000Y-81381939D01*
X145815000Y-81178061D01*
X145775226Y-80978102D01*
X145697205Y-80789744D01*
X145583937Y-80620226D01*
X145439774Y-80476063D01*
X145270256Y-80362795D01*
X145081898Y-80284774D01*
X144881939Y-80245000D01*
X144678061Y-80245000D01*
X144478102Y-80284774D01*
X144289744Y-80362795D01*
X144120226Y-80476063D01*
X144076289Y-80520000D01*
X142943711Y-80520000D01*
X142899774Y-80476063D01*
X142730256Y-80362795D01*
X142541898Y-80284774D01*
X142341939Y-80245000D01*
X142138061Y-80245000D01*
X141938102Y-80284774D01*
X141749744Y-80362795D01*
X141580226Y-80476063D01*
X141436063Y-80620226D01*
X141322795Y-80789744D01*
X141244774Y-80978102D01*
X141205000Y-81178061D01*
X120777000Y-81178061D01*
X120777000Y-78867000D01*
X163703000Y-78867000D01*
X163703000Y-80322893D01*
G36*
X162687000Y-86233000D02*
G01*
X162707000Y-86233000D01*
X162707000Y-86487000D01*
X162687000Y-86487000D01*
X162687000Y-88773000D01*
X162707000Y-88773000D01*
X162707000Y-89027000D01*
X162687000Y-89027000D01*
X162687000Y-89047000D01*
X162433000Y-89047000D01*
X162433000Y-89027000D01*
X162413000Y-89027000D01*
X162413000Y-88773000D01*
X162433000Y-88773000D01*
X162433000Y-86487000D01*
X162413000Y-86487000D01*
X162413000Y-86233000D01*
X162433000Y-86233000D01*
X162433000Y-86213000D01*
X162687000Y-86213000D01*
X162687000Y-86233000D01*
G37*
X162687000Y-86233000D02*
X162707000Y-86233000D01*
X162707000Y-86487000D01*
X162687000Y-86487000D01*
X162687000Y-88773000D01*
X162707000Y-88773000D01*
X162707000Y-89027000D01*
X162687000Y-89027000D01*
X162687000Y-89047000D01*
X162433000Y-89047000D01*
X162433000Y-89027000D01*
X162413000Y-89027000D01*
X162413000Y-88773000D01*
X162433000Y-88773000D01*
X162433000Y-86487000D01*
X162413000Y-86487000D01*
X162413000Y-86233000D01*
X162433000Y-86233000D01*
X162433000Y-86213000D01*
X162687000Y-86213000D01*
X162687000Y-86233000D01*
G36*
X161462412Y-87360269D02*
G01*
X161678645Y-87555178D01*
X161804255Y-87630000D01*
X161678645Y-87704822D01*
X161462412Y-87899731D01*
X161291100Y-88129406D01*
X161173475Y-87953368D01*
X160966632Y-87746525D01*
X160792240Y-87630000D01*
X160966632Y-87513475D01*
X161173475Y-87306632D01*
X161291100Y-87130594D01*
X161462412Y-87360269D01*
G37*
X161462412Y-87360269D02*
X161678645Y-87555178D01*
X161804255Y-87630000D01*
X161678645Y-87704822D01*
X161462412Y-87899731D01*
X161291100Y-88129406D01*
X161173475Y-87953368D01*
X160966632Y-87746525D01*
X160792240Y-87630000D01*
X160966632Y-87513475D01*
X161173475Y-87306632D01*
X161291100Y-87130594D01*
X161462412Y-87360269D01*
M02*
