G04 #@! TF.GenerationSoftware,KiCad,Pcbnew,(5.1.5-0-10_14)*
G04 #@! TF.CreationDate,2020-06-27T09:28:46-05:00*
G04 #@! TF.ProjectId,Sensors,53656e73-6f72-4732-9e6b-696361645f70,rev?*
G04 #@! TF.SameCoordinates,Original*
G04 #@! TF.FileFunction,Soldermask,Top*
G04 #@! TF.FilePolarity,Negative*
%FSLAX46Y46*%
G04 Gerber Fmt 4.6, Leading zero omitted, Abs format (unit mm)*
G04 Created by KiCad (PCBNEW (5.1.5-0-10_14)) date 2020-06-27 09:28:46*
%MOMM*%
%LPD*%
G04 APERTURE LIST*
%ADD10C,0.100000*%
G04 APERTURE END LIST*
D10*
G36*
X124921055Y-94300171D02*
G01*
X125040257Y-94349546D01*
X125040259Y-94349547D01*
X125147538Y-94421228D01*
X125238772Y-94512462D01*
X125266762Y-94554353D01*
X125310454Y-94619743D01*
X125359829Y-94738945D01*
X125385000Y-94865487D01*
X125385000Y-94994513D01*
X125359829Y-95121055D01*
X125310454Y-95240257D01*
X125310453Y-95240259D01*
X125238772Y-95347538D01*
X125147538Y-95438772D01*
X125040259Y-95510453D01*
X125040258Y-95510454D01*
X125040257Y-95510454D01*
X124921055Y-95559829D01*
X124794513Y-95585000D01*
X124665487Y-95585000D01*
X124538945Y-95559829D01*
X124419743Y-95510454D01*
X124419742Y-95510454D01*
X124419741Y-95510453D01*
X124312462Y-95438772D01*
X124221228Y-95347538D01*
X124149547Y-95240259D01*
X124149546Y-95240257D01*
X124100171Y-95121055D01*
X124075000Y-94994513D01*
X124075000Y-94865487D01*
X124100171Y-94738945D01*
X124149546Y-94619743D01*
X124193238Y-94554353D01*
X124221228Y-94512462D01*
X124312462Y-94421228D01*
X124419741Y-94349547D01*
X124419743Y-94349546D01*
X124538945Y-94300171D01*
X124665487Y-94275000D01*
X124794513Y-94275000D01*
X124921055Y-94300171D01*
G37*
G36*
X156858604Y-93058347D02*
G01*
X156895144Y-93069432D01*
X156928821Y-93087433D01*
X156958341Y-93111659D01*
X156982567Y-93141179D01*
X157000568Y-93174856D01*
X157011653Y-93211396D01*
X157016000Y-93255538D01*
X157016000Y-94704462D01*
X157011653Y-94748604D01*
X157000568Y-94785144D01*
X156982567Y-94818821D01*
X156958341Y-94848341D01*
X156928821Y-94872567D01*
X156895144Y-94890568D01*
X156858604Y-94901653D01*
X156814462Y-94906000D01*
X155865538Y-94906000D01*
X155821396Y-94901653D01*
X155784856Y-94890568D01*
X155751179Y-94872567D01*
X155721659Y-94848341D01*
X155697433Y-94818821D01*
X155679432Y-94785144D01*
X155668347Y-94748604D01*
X155664000Y-94704462D01*
X155664000Y-93255538D01*
X155668347Y-93211396D01*
X155679432Y-93174856D01*
X155697433Y-93141179D01*
X155721659Y-93111659D01*
X155751179Y-93087433D01*
X155784856Y-93069432D01*
X155821396Y-93058347D01*
X155865538Y-93054000D01*
X156814462Y-93054000D01*
X156858604Y-93058347D01*
G37*
G36*
X154058604Y-93058347D02*
G01*
X154095144Y-93069432D01*
X154128821Y-93087433D01*
X154158341Y-93111659D01*
X154182567Y-93141179D01*
X154200568Y-93174856D01*
X154211653Y-93211396D01*
X154216000Y-93255538D01*
X154216000Y-94704462D01*
X154211653Y-94748604D01*
X154200568Y-94785144D01*
X154182567Y-94818821D01*
X154158341Y-94848341D01*
X154128821Y-94872567D01*
X154095144Y-94890568D01*
X154058604Y-94901653D01*
X154014462Y-94906000D01*
X153065538Y-94906000D01*
X153021396Y-94901653D01*
X152984856Y-94890568D01*
X152951179Y-94872567D01*
X152921659Y-94848341D01*
X152897433Y-94818821D01*
X152879432Y-94785144D01*
X152868347Y-94748604D01*
X152864000Y-94704462D01*
X152864000Y-93255538D01*
X152868347Y-93211396D01*
X152879432Y-93174856D01*
X152897433Y-93141179D01*
X152921659Y-93111659D01*
X152951179Y-93087433D01*
X152984856Y-93069432D01*
X153021396Y-93058347D01*
X153065538Y-93054000D01*
X154014462Y-93054000D01*
X154058604Y-93058347D01*
G37*
G36*
X162673512Y-93083927D02*
G01*
X162822812Y-93113624D01*
X162986784Y-93181544D01*
X163134354Y-93280147D01*
X163259853Y-93405646D01*
X163358456Y-93553216D01*
X163426376Y-93717188D01*
X163461000Y-93891259D01*
X163461000Y-94068741D01*
X163426376Y-94242812D01*
X163358456Y-94406784D01*
X163259853Y-94554354D01*
X163134354Y-94679853D01*
X162986784Y-94778456D01*
X162822812Y-94846376D01*
X162673512Y-94876073D01*
X162648742Y-94881000D01*
X162471258Y-94881000D01*
X162446488Y-94876073D01*
X162297188Y-94846376D01*
X162133216Y-94778456D01*
X161985646Y-94679853D01*
X161860147Y-94554354D01*
X161761544Y-94406784D01*
X161693624Y-94242812D01*
X161659000Y-94068741D01*
X161659000Y-93891259D01*
X161693624Y-93717188D01*
X161761544Y-93553216D01*
X161860147Y-93405646D01*
X161985646Y-93280147D01*
X162133216Y-93181544D01*
X162297188Y-93113624D01*
X162446488Y-93083927D01*
X162471258Y-93079000D01*
X162648742Y-93079000D01*
X162673512Y-93083927D01*
G37*
G36*
X160133512Y-93083927D02*
G01*
X160282812Y-93113624D01*
X160446784Y-93181544D01*
X160594354Y-93280147D01*
X160719853Y-93405646D01*
X160818456Y-93553216D01*
X160886376Y-93717188D01*
X160921000Y-93891259D01*
X160921000Y-94068741D01*
X160886376Y-94242812D01*
X160818456Y-94406784D01*
X160719853Y-94554354D01*
X160594354Y-94679853D01*
X160446784Y-94778456D01*
X160282812Y-94846376D01*
X160133512Y-94876073D01*
X160108742Y-94881000D01*
X159931258Y-94881000D01*
X159906488Y-94876073D01*
X159757188Y-94846376D01*
X159593216Y-94778456D01*
X159445646Y-94679853D01*
X159320147Y-94554354D01*
X159221544Y-94406784D01*
X159153624Y-94242812D01*
X159119000Y-94068741D01*
X159119000Y-93891259D01*
X159153624Y-93717188D01*
X159221544Y-93553216D01*
X159320147Y-93405646D01*
X159445646Y-93280147D01*
X159593216Y-93181544D01*
X159757188Y-93113624D01*
X159906488Y-93083927D01*
X159931258Y-93079000D01*
X160108742Y-93079000D01*
X160133512Y-93083927D01*
G37*
G36*
X124921055Y-92400171D02*
G01*
X125040257Y-92449546D01*
X125040259Y-92449547D01*
X125147538Y-92521228D01*
X125238772Y-92612462D01*
X125310453Y-92719741D01*
X125310454Y-92719743D01*
X125359829Y-92838945D01*
X125385000Y-92965487D01*
X125385000Y-93094513D01*
X125359829Y-93221055D01*
X125335352Y-93280147D01*
X125310453Y-93340259D01*
X125238772Y-93447538D01*
X125147538Y-93538772D01*
X125040259Y-93610453D01*
X125040258Y-93610454D01*
X125040257Y-93610454D01*
X124921055Y-93659829D01*
X124794513Y-93685000D01*
X124665487Y-93685000D01*
X124538945Y-93659829D01*
X124419743Y-93610454D01*
X124419742Y-93610454D01*
X124419741Y-93610453D01*
X124312462Y-93538772D01*
X124221228Y-93447538D01*
X124149547Y-93340259D01*
X124124648Y-93280147D01*
X124100171Y-93221055D01*
X124075000Y-93094513D01*
X124075000Y-92965487D01*
X124100171Y-92838945D01*
X124149546Y-92719743D01*
X124149547Y-92719741D01*
X124221228Y-92612462D01*
X124312462Y-92521228D01*
X124419741Y-92449547D01*
X124419743Y-92449546D01*
X124538945Y-92400171D01*
X124665487Y-92375000D01*
X124794513Y-92375000D01*
X124921055Y-92400171D01*
G37*
G36*
X147838604Y-90518347D02*
G01*
X147875144Y-90529432D01*
X147908821Y-90547433D01*
X147938341Y-90571659D01*
X147962567Y-90601179D01*
X147980568Y-90634856D01*
X147991653Y-90671396D01*
X147996000Y-90715538D01*
X147996000Y-92164462D01*
X147991653Y-92208604D01*
X147980568Y-92245144D01*
X147962567Y-92278821D01*
X147938341Y-92308341D01*
X147908821Y-92332567D01*
X147875144Y-92350568D01*
X147838604Y-92361653D01*
X147794462Y-92366000D01*
X146845538Y-92366000D01*
X146801396Y-92361653D01*
X146764856Y-92350568D01*
X146731179Y-92332567D01*
X146701659Y-92308341D01*
X146677433Y-92278821D01*
X146659432Y-92245144D01*
X146648347Y-92208604D01*
X146644000Y-92164462D01*
X146644000Y-90715538D01*
X146648347Y-90671396D01*
X146659432Y-90634856D01*
X146677433Y-90601179D01*
X146701659Y-90571659D01*
X146731179Y-90547433D01*
X146764856Y-90529432D01*
X146801396Y-90518347D01*
X146845538Y-90514000D01*
X147794462Y-90514000D01*
X147838604Y-90518347D01*
G37*
G36*
X145038604Y-90518347D02*
G01*
X145075144Y-90529432D01*
X145108821Y-90547433D01*
X145138341Y-90571659D01*
X145162567Y-90601179D01*
X145180568Y-90634856D01*
X145191653Y-90671396D01*
X145196000Y-90715538D01*
X145196000Y-92164462D01*
X145191653Y-92208604D01*
X145180568Y-92245144D01*
X145162567Y-92278821D01*
X145138341Y-92308341D01*
X145108821Y-92332567D01*
X145075144Y-92350568D01*
X145038604Y-92361653D01*
X144994462Y-92366000D01*
X144045538Y-92366000D01*
X144001396Y-92361653D01*
X143964856Y-92350568D01*
X143931179Y-92332567D01*
X143901659Y-92308341D01*
X143877433Y-92278821D01*
X143859432Y-92245144D01*
X143848347Y-92208604D01*
X143844000Y-92164462D01*
X143844000Y-90715538D01*
X143848347Y-90671396D01*
X143859432Y-90634856D01*
X143877433Y-90601179D01*
X143901659Y-90571659D01*
X143931179Y-90547433D01*
X143964856Y-90529432D01*
X144001396Y-90518347D01*
X144045538Y-90514000D01*
X144994462Y-90514000D01*
X145038604Y-90518347D01*
G37*
G36*
X160133512Y-90543927D02*
G01*
X160282812Y-90573624D01*
X160446784Y-90641544D01*
X160594354Y-90740147D01*
X160719853Y-90865646D01*
X160818456Y-91013216D01*
X160886376Y-91177188D01*
X160921000Y-91351259D01*
X160921000Y-91528741D01*
X160886376Y-91702812D01*
X160818456Y-91866784D01*
X160719853Y-92014354D01*
X160594354Y-92139853D01*
X160446784Y-92238456D01*
X160282812Y-92306376D01*
X160133512Y-92336073D01*
X160108742Y-92341000D01*
X159931258Y-92341000D01*
X159906488Y-92336073D01*
X159757188Y-92306376D01*
X159593216Y-92238456D01*
X159445646Y-92139853D01*
X159320147Y-92014354D01*
X159221544Y-91866784D01*
X159153624Y-91702812D01*
X159119000Y-91528741D01*
X159119000Y-91351259D01*
X159153624Y-91177188D01*
X159221544Y-91013216D01*
X159320147Y-90865646D01*
X159445646Y-90740147D01*
X159593216Y-90641544D01*
X159757188Y-90573624D01*
X159906488Y-90543927D01*
X159931258Y-90539000D01*
X160108742Y-90539000D01*
X160133512Y-90543927D01*
G37*
G36*
X162673512Y-90543927D02*
G01*
X162822812Y-90573624D01*
X162986784Y-90641544D01*
X163134354Y-90740147D01*
X163259853Y-90865646D01*
X163358456Y-91013216D01*
X163426376Y-91177188D01*
X163461000Y-91351259D01*
X163461000Y-91528741D01*
X163426376Y-91702812D01*
X163358456Y-91866784D01*
X163259853Y-92014354D01*
X163134354Y-92139853D01*
X162986784Y-92238456D01*
X162822812Y-92306376D01*
X162673512Y-92336073D01*
X162648742Y-92341000D01*
X162471258Y-92341000D01*
X162446488Y-92336073D01*
X162297188Y-92306376D01*
X162133216Y-92238456D01*
X161985646Y-92139853D01*
X161860147Y-92014354D01*
X161761544Y-91866784D01*
X161693624Y-91702812D01*
X161659000Y-91528741D01*
X161659000Y-91351259D01*
X161693624Y-91177188D01*
X161761544Y-91013216D01*
X161860147Y-90865646D01*
X161985646Y-90740147D01*
X162133216Y-90641544D01*
X162297188Y-90573624D01*
X162446488Y-90543927D01*
X162471258Y-90539000D01*
X162648742Y-90539000D01*
X162673512Y-90543927D01*
G37*
G36*
X138159928Y-89186764D02*
G01*
X138181009Y-89193160D01*
X138200445Y-89203548D01*
X138217476Y-89217524D01*
X138231452Y-89234555D01*
X138241840Y-89253991D01*
X138248236Y-89275072D01*
X138251000Y-89303140D01*
X138251000Y-89766860D01*
X138248236Y-89794928D01*
X138241840Y-89816009D01*
X138231452Y-89835445D01*
X138217476Y-89852476D01*
X138200445Y-89866452D01*
X138181009Y-89876840D01*
X138159928Y-89883236D01*
X138131860Y-89886000D01*
X136318140Y-89886000D01*
X136290072Y-89883236D01*
X136268991Y-89876840D01*
X136249555Y-89866452D01*
X136232524Y-89852476D01*
X136218548Y-89835445D01*
X136208160Y-89816009D01*
X136201764Y-89794928D01*
X136199000Y-89766860D01*
X136199000Y-89303140D01*
X136201764Y-89275072D01*
X136208160Y-89253991D01*
X136218548Y-89234555D01*
X136232524Y-89217524D01*
X136249555Y-89203548D01*
X136268991Y-89193160D01*
X136290072Y-89186764D01*
X136318140Y-89184000D01*
X138131860Y-89184000D01*
X138159928Y-89186764D01*
G37*
G36*
X143109928Y-89186764D02*
G01*
X143131009Y-89193160D01*
X143150445Y-89203548D01*
X143167476Y-89217524D01*
X143181452Y-89234555D01*
X143191840Y-89253991D01*
X143198236Y-89275072D01*
X143201000Y-89303140D01*
X143201000Y-89766860D01*
X143198236Y-89794928D01*
X143191840Y-89816009D01*
X143181452Y-89835445D01*
X143167476Y-89852476D01*
X143150445Y-89866452D01*
X143131009Y-89876840D01*
X143109928Y-89883236D01*
X143081860Y-89886000D01*
X141268140Y-89886000D01*
X141240072Y-89883236D01*
X141218991Y-89876840D01*
X141199555Y-89866452D01*
X141182524Y-89852476D01*
X141168548Y-89835445D01*
X141158160Y-89816009D01*
X141151764Y-89794928D01*
X141149000Y-89766860D01*
X141149000Y-89303140D01*
X141151764Y-89275072D01*
X141158160Y-89253991D01*
X141168548Y-89234555D01*
X141182524Y-89217524D01*
X141199555Y-89203548D01*
X141218991Y-89193160D01*
X141240072Y-89186764D01*
X141268140Y-89184000D01*
X143081860Y-89184000D01*
X143109928Y-89186764D01*
G37*
G36*
X162673512Y-88003927D02*
G01*
X162822812Y-88033624D01*
X162986784Y-88101544D01*
X163134354Y-88200147D01*
X163259853Y-88325646D01*
X163358456Y-88473216D01*
X163426376Y-88637188D01*
X163461000Y-88811259D01*
X163461000Y-88988741D01*
X163426376Y-89162812D01*
X163358456Y-89326784D01*
X163259853Y-89474354D01*
X163134354Y-89599853D01*
X162986784Y-89698456D01*
X162822812Y-89766376D01*
X162679268Y-89794928D01*
X162648742Y-89801000D01*
X162471258Y-89801000D01*
X162440732Y-89794928D01*
X162297188Y-89766376D01*
X162133216Y-89698456D01*
X161985646Y-89599853D01*
X161860147Y-89474354D01*
X161761544Y-89326784D01*
X161693624Y-89162812D01*
X161659000Y-88988741D01*
X161659000Y-88811259D01*
X161693624Y-88637188D01*
X161761544Y-88473216D01*
X161860147Y-88325646D01*
X161985646Y-88200147D01*
X162133216Y-88101544D01*
X162297188Y-88033624D01*
X162446488Y-88003927D01*
X162471258Y-87999000D01*
X162648742Y-87999000D01*
X162673512Y-88003927D01*
G37*
G36*
X160133512Y-88003927D02*
G01*
X160282812Y-88033624D01*
X160446784Y-88101544D01*
X160594354Y-88200147D01*
X160719853Y-88325646D01*
X160818456Y-88473216D01*
X160886376Y-88637188D01*
X160921000Y-88811259D01*
X160921000Y-88988741D01*
X160886376Y-89162812D01*
X160818456Y-89326784D01*
X160719853Y-89474354D01*
X160594354Y-89599853D01*
X160446784Y-89698456D01*
X160282812Y-89766376D01*
X160139268Y-89794928D01*
X160108742Y-89801000D01*
X159931258Y-89801000D01*
X159900732Y-89794928D01*
X159757188Y-89766376D01*
X159593216Y-89698456D01*
X159445646Y-89599853D01*
X159320147Y-89474354D01*
X159221544Y-89326784D01*
X159153624Y-89162812D01*
X159119000Y-88988741D01*
X159119000Y-88811259D01*
X159153624Y-88637188D01*
X159221544Y-88473216D01*
X159320147Y-88325646D01*
X159445646Y-88200147D01*
X159593216Y-88101544D01*
X159757188Y-88033624D01*
X159906488Y-88003927D01*
X159931258Y-87999000D01*
X160108742Y-87999000D01*
X160133512Y-88003927D01*
G37*
G36*
X148629468Y-88153565D02*
G01*
X148668138Y-88165296D01*
X148703777Y-88184346D01*
X148735017Y-88209983D01*
X148760654Y-88241223D01*
X148779704Y-88276862D01*
X148791435Y-88315532D01*
X148796000Y-88361888D01*
X148796000Y-89438112D01*
X148791435Y-89484468D01*
X148779704Y-89523138D01*
X148760654Y-89558777D01*
X148735017Y-89590017D01*
X148703777Y-89615654D01*
X148668138Y-89634704D01*
X148629468Y-89646435D01*
X148583112Y-89651000D01*
X147931888Y-89651000D01*
X147885532Y-89646435D01*
X147846862Y-89634704D01*
X147811223Y-89615654D01*
X147779983Y-89590017D01*
X147754346Y-89558777D01*
X147735296Y-89523138D01*
X147723565Y-89484468D01*
X147719000Y-89438112D01*
X147719000Y-88361888D01*
X147723565Y-88315532D01*
X147735296Y-88276862D01*
X147754346Y-88241223D01*
X147779983Y-88209983D01*
X147811223Y-88184346D01*
X147846862Y-88165296D01*
X147885532Y-88153565D01*
X147931888Y-88149000D01*
X148583112Y-88149000D01*
X148629468Y-88153565D01*
G37*
G36*
X146754468Y-88153565D02*
G01*
X146793138Y-88165296D01*
X146828777Y-88184346D01*
X146860017Y-88209983D01*
X146885654Y-88241223D01*
X146904704Y-88276862D01*
X146916435Y-88315532D01*
X146921000Y-88361888D01*
X146921000Y-89438112D01*
X146916435Y-89484468D01*
X146904704Y-89523138D01*
X146885654Y-89558777D01*
X146860017Y-89590017D01*
X146828777Y-89615654D01*
X146793138Y-89634704D01*
X146754468Y-89646435D01*
X146708112Y-89651000D01*
X146056888Y-89651000D01*
X146010532Y-89646435D01*
X145971862Y-89634704D01*
X145936223Y-89615654D01*
X145904983Y-89590017D01*
X145879346Y-89558777D01*
X145860296Y-89523138D01*
X145848565Y-89484468D01*
X145844000Y-89438112D01*
X145844000Y-88361888D01*
X145848565Y-88315532D01*
X145860296Y-88276862D01*
X145879346Y-88241223D01*
X145904983Y-88209983D01*
X145936223Y-88184346D01*
X145971862Y-88165296D01*
X146010532Y-88153565D01*
X146056888Y-88149000D01*
X146708112Y-88149000D01*
X146754468Y-88153565D01*
G37*
G36*
X140896000Y-89181000D02*
G01*
X138504000Y-89181000D01*
X138504000Y-86079000D01*
X140896000Y-86079000D01*
X140896000Y-89181000D01*
G37*
G36*
X143109928Y-87916764D02*
G01*
X143131009Y-87923160D01*
X143150445Y-87933548D01*
X143167476Y-87947524D01*
X143181452Y-87964555D01*
X143191840Y-87983991D01*
X143198236Y-88005072D01*
X143201000Y-88033140D01*
X143201000Y-88496860D01*
X143198236Y-88524928D01*
X143191840Y-88546009D01*
X143181452Y-88565445D01*
X143167476Y-88582476D01*
X143150445Y-88596452D01*
X143131009Y-88606840D01*
X143109928Y-88613236D01*
X143081860Y-88616000D01*
X141268140Y-88616000D01*
X141240072Y-88613236D01*
X141218991Y-88606840D01*
X141199555Y-88596452D01*
X141182524Y-88582476D01*
X141168548Y-88565445D01*
X141158160Y-88546009D01*
X141151764Y-88524928D01*
X141149000Y-88496860D01*
X141149000Y-88033140D01*
X141151764Y-88005072D01*
X141158160Y-87983991D01*
X141168548Y-87964555D01*
X141182524Y-87947524D01*
X141199555Y-87933548D01*
X141218991Y-87923160D01*
X141240072Y-87916764D01*
X141268140Y-87914000D01*
X143081860Y-87914000D01*
X143109928Y-87916764D01*
G37*
G36*
X138159928Y-87916764D02*
G01*
X138181009Y-87923160D01*
X138200445Y-87933548D01*
X138217476Y-87947524D01*
X138231452Y-87964555D01*
X138241840Y-87983991D01*
X138248236Y-88005072D01*
X138251000Y-88033140D01*
X138251000Y-88496860D01*
X138248236Y-88524928D01*
X138241840Y-88546009D01*
X138231452Y-88565445D01*
X138217476Y-88582476D01*
X138200445Y-88596452D01*
X138181009Y-88606840D01*
X138159928Y-88613236D01*
X138131860Y-88616000D01*
X136318140Y-88616000D01*
X136290072Y-88613236D01*
X136268991Y-88606840D01*
X136249555Y-88596452D01*
X136232524Y-88582476D01*
X136218548Y-88565445D01*
X136208160Y-88546009D01*
X136201764Y-88524928D01*
X136199000Y-88496860D01*
X136199000Y-88033140D01*
X136201764Y-88005072D01*
X136208160Y-87983991D01*
X136218548Y-87964555D01*
X136232524Y-87947524D01*
X136249555Y-87933548D01*
X136268991Y-87923160D01*
X136290072Y-87916764D01*
X136318140Y-87914000D01*
X138131860Y-87914000D01*
X138159928Y-87916764D01*
G37*
G36*
X127039468Y-86883565D02*
G01*
X127078138Y-86895296D01*
X127113777Y-86914346D01*
X127145017Y-86939983D01*
X127170654Y-86971223D01*
X127189704Y-87006862D01*
X127201435Y-87045532D01*
X127206000Y-87091888D01*
X127206000Y-88168112D01*
X127201435Y-88214468D01*
X127189704Y-88253138D01*
X127170654Y-88288777D01*
X127145017Y-88320017D01*
X127113777Y-88345654D01*
X127078138Y-88364704D01*
X127039468Y-88376435D01*
X126993112Y-88381000D01*
X126341888Y-88381000D01*
X126295532Y-88376435D01*
X126256862Y-88364704D01*
X126221223Y-88345654D01*
X126189983Y-88320017D01*
X126164346Y-88288777D01*
X126145296Y-88253138D01*
X126133565Y-88214468D01*
X126129000Y-88168112D01*
X126129000Y-87091888D01*
X126133565Y-87045532D01*
X126145296Y-87006862D01*
X126164346Y-86971223D01*
X126189983Y-86939983D01*
X126221223Y-86914346D01*
X126256862Y-86895296D01*
X126295532Y-86883565D01*
X126341888Y-86879000D01*
X126993112Y-86879000D01*
X127039468Y-86883565D01*
G37*
G36*
X125164468Y-86883565D02*
G01*
X125203138Y-86895296D01*
X125238777Y-86914346D01*
X125270017Y-86939983D01*
X125295654Y-86971223D01*
X125314704Y-87006862D01*
X125326435Y-87045532D01*
X125331000Y-87091888D01*
X125331000Y-88168112D01*
X125326435Y-88214468D01*
X125314704Y-88253138D01*
X125295654Y-88288777D01*
X125270017Y-88320017D01*
X125238777Y-88345654D01*
X125203138Y-88364704D01*
X125164468Y-88376435D01*
X125118112Y-88381000D01*
X124466888Y-88381000D01*
X124420532Y-88376435D01*
X124381862Y-88364704D01*
X124346223Y-88345654D01*
X124314983Y-88320017D01*
X124289346Y-88288777D01*
X124270296Y-88253138D01*
X124258565Y-88214468D01*
X124254000Y-88168112D01*
X124254000Y-87091888D01*
X124258565Y-87045532D01*
X124270296Y-87006862D01*
X124289346Y-86971223D01*
X124314983Y-86939983D01*
X124346223Y-86914346D01*
X124381862Y-86895296D01*
X124420532Y-86883565D01*
X124466888Y-86879000D01*
X125118112Y-86879000D01*
X125164468Y-86883565D01*
G37*
G36*
X131786968Y-86883565D02*
G01*
X131825638Y-86895296D01*
X131861277Y-86914346D01*
X131892517Y-86939983D01*
X131918154Y-86971223D01*
X131937204Y-87006862D01*
X131948935Y-87045532D01*
X131953500Y-87091888D01*
X131953500Y-88168112D01*
X131948935Y-88214468D01*
X131937204Y-88253138D01*
X131918154Y-88288777D01*
X131892517Y-88320017D01*
X131861277Y-88345654D01*
X131825638Y-88364704D01*
X131786968Y-88376435D01*
X131740612Y-88381000D01*
X131089388Y-88381000D01*
X131043032Y-88376435D01*
X131004362Y-88364704D01*
X130968723Y-88345654D01*
X130937483Y-88320017D01*
X130911846Y-88288777D01*
X130892796Y-88253138D01*
X130881065Y-88214468D01*
X130876500Y-88168112D01*
X130876500Y-87091888D01*
X130881065Y-87045532D01*
X130892796Y-87006862D01*
X130911846Y-86971223D01*
X130937483Y-86939983D01*
X130968723Y-86914346D01*
X131004362Y-86895296D01*
X131043032Y-86883565D01*
X131089388Y-86879000D01*
X131740612Y-86879000D01*
X131786968Y-86883565D01*
G37*
G36*
X129911968Y-86883565D02*
G01*
X129950638Y-86895296D01*
X129986277Y-86914346D01*
X130017517Y-86939983D01*
X130043154Y-86971223D01*
X130062204Y-87006862D01*
X130073935Y-87045532D01*
X130078500Y-87091888D01*
X130078500Y-88168112D01*
X130073935Y-88214468D01*
X130062204Y-88253138D01*
X130043154Y-88288777D01*
X130017517Y-88320017D01*
X129986277Y-88345654D01*
X129950638Y-88364704D01*
X129911968Y-88376435D01*
X129865612Y-88381000D01*
X129214388Y-88381000D01*
X129168032Y-88376435D01*
X129129362Y-88364704D01*
X129093723Y-88345654D01*
X129062483Y-88320017D01*
X129036846Y-88288777D01*
X129017796Y-88253138D01*
X129006065Y-88214468D01*
X129001500Y-88168112D01*
X129001500Y-87091888D01*
X129006065Y-87045532D01*
X129017796Y-87006862D01*
X129036846Y-86971223D01*
X129062483Y-86939983D01*
X129093723Y-86914346D01*
X129129362Y-86895296D01*
X129168032Y-86883565D01*
X129214388Y-86879000D01*
X129865612Y-86879000D01*
X129911968Y-86883565D01*
G37*
G36*
X138159928Y-86646764D02*
G01*
X138181009Y-86653160D01*
X138200445Y-86663548D01*
X138217476Y-86677524D01*
X138231452Y-86694555D01*
X138241840Y-86713991D01*
X138248236Y-86735072D01*
X138251000Y-86763140D01*
X138251000Y-87226860D01*
X138248236Y-87254928D01*
X138241840Y-87276009D01*
X138231452Y-87295445D01*
X138217476Y-87312476D01*
X138200445Y-87326452D01*
X138181009Y-87336840D01*
X138159928Y-87343236D01*
X138131860Y-87346000D01*
X136318140Y-87346000D01*
X136290072Y-87343236D01*
X136268991Y-87336840D01*
X136249555Y-87326452D01*
X136232524Y-87312476D01*
X136218548Y-87295445D01*
X136208160Y-87276009D01*
X136201764Y-87254928D01*
X136199000Y-87226860D01*
X136199000Y-86763140D01*
X136201764Y-86735072D01*
X136208160Y-86713991D01*
X136218548Y-86694555D01*
X136232524Y-86677524D01*
X136249555Y-86663548D01*
X136268991Y-86653160D01*
X136290072Y-86646764D01*
X136318140Y-86644000D01*
X138131860Y-86644000D01*
X138159928Y-86646764D01*
G37*
G36*
X143109928Y-86646764D02*
G01*
X143131009Y-86653160D01*
X143150445Y-86663548D01*
X143167476Y-86677524D01*
X143181452Y-86694555D01*
X143191840Y-86713991D01*
X143198236Y-86735072D01*
X143201000Y-86763140D01*
X143201000Y-87226860D01*
X143198236Y-87254928D01*
X143191840Y-87276009D01*
X143181452Y-87295445D01*
X143167476Y-87312476D01*
X143150445Y-87326452D01*
X143131009Y-87336840D01*
X143109928Y-87343236D01*
X143081860Y-87346000D01*
X141268140Y-87346000D01*
X141240072Y-87343236D01*
X141218991Y-87336840D01*
X141199555Y-87326452D01*
X141182524Y-87312476D01*
X141168548Y-87295445D01*
X141158160Y-87276009D01*
X141151764Y-87254928D01*
X141149000Y-87226860D01*
X141149000Y-86763140D01*
X141151764Y-86735072D01*
X141158160Y-86713991D01*
X141168548Y-86694555D01*
X141182524Y-86677524D01*
X141199555Y-86663548D01*
X141218991Y-86653160D01*
X141240072Y-86646764D01*
X141268140Y-86644000D01*
X143081860Y-86644000D01*
X143109928Y-86646764D01*
G37*
G36*
X160133512Y-85463927D02*
G01*
X160282812Y-85493624D01*
X160446784Y-85561544D01*
X160594354Y-85660147D01*
X160719853Y-85785646D01*
X160818456Y-85933216D01*
X160886376Y-86097188D01*
X160921000Y-86271259D01*
X160921000Y-86448741D01*
X160886376Y-86622812D01*
X160818456Y-86786784D01*
X160719853Y-86934354D01*
X160594354Y-87059853D01*
X160446784Y-87158456D01*
X160282812Y-87226376D01*
X160139268Y-87254928D01*
X160108742Y-87261000D01*
X159931258Y-87261000D01*
X159900732Y-87254928D01*
X159757188Y-87226376D01*
X159593216Y-87158456D01*
X159445646Y-87059853D01*
X159320147Y-86934354D01*
X159221544Y-86786784D01*
X159153624Y-86622812D01*
X159119000Y-86448741D01*
X159119000Y-86271259D01*
X159153624Y-86097188D01*
X159221544Y-85933216D01*
X159320147Y-85785646D01*
X159445646Y-85660147D01*
X159593216Y-85561544D01*
X159757188Y-85493624D01*
X159906488Y-85463927D01*
X159931258Y-85459000D01*
X160108742Y-85459000D01*
X160133512Y-85463927D01*
G37*
G36*
X162673512Y-85463927D02*
G01*
X162822812Y-85493624D01*
X162986784Y-85561544D01*
X163134354Y-85660147D01*
X163259853Y-85785646D01*
X163358456Y-85933216D01*
X163426376Y-86097188D01*
X163461000Y-86271259D01*
X163461000Y-86448741D01*
X163426376Y-86622812D01*
X163358456Y-86786784D01*
X163259853Y-86934354D01*
X163134354Y-87059853D01*
X162986784Y-87158456D01*
X162822812Y-87226376D01*
X162679268Y-87254928D01*
X162648742Y-87261000D01*
X162471258Y-87261000D01*
X162440732Y-87254928D01*
X162297188Y-87226376D01*
X162133216Y-87158456D01*
X161985646Y-87059853D01*
X161860147Y-86934354D01*
X161761544Y-86786784D01*
X161693624Y-86622812D01*
X161659000Y-86448741D01*
X161659000Y-86271259D01*
X161693624Y-86097188D01*
X161761544Y-85933216D01*
X161860147Y-85785646D01*
X161985646Y-85660147D01*
X162133216Y-85561544D01*
X162297188Y-85493624D01*
X162446488Y-85463927D01*
X162471258Y-85459000D01*
X162648742Y-85459000D01*
X162673512Y-85463927D01*
G37*
G36*
X146754468Y-85613565D02*
G01*
X146793138Y-85625296D01*
X146828777Y-85644346D01*
X146860017Y-85669983D01*
X146885654Y-85701223D01*
X146904704Y-85736862D01*
X146916435Y-85775532D01*
X146921000Y-85821888D01*
X146921000Y-86898112D01*
X146916435Y-86944468D01*
X146904704Y-86983138D01*
X146885654Y-87018777D01*
X146860017Y-87050017D01*
X146828777Y-87075654D01*
X146793138Y-87094704D01*
X146754468Y-87106435D01*
X146708112Y-87111000D01*
X146056888Y-87111000D01*
X146010532Y-87106435D01*
X145971862Y-87094704D01*
X145936223Y-87075654D01*
X145904983Y-87050017D01*
X145879346Y-87018777D01*
X145860296Y-86983138D01*
X145848565Y-86944468D01*
X145844000Y-86898112D01*
X145844000Y-85821888D01*
X145848565Y-85775532D01*
X145860296Y-85736862D01*
X145879346Y-85701223D01*
X145904983Y-85669983D01*
X145936223Y-85644346D01*
X145971862Y-85625296D01*
X146010532Y-85613565D01*
X146056888Y-85609000D01*
X146708112Y-85609000D01*
X146754468Y-85613565D01*
G37*
G36*
X148629468Y-85613565D02*
G01*
X148668138Y-85625296D01*
X148703777Y-85644346D01*
X148735017Y-85669983D01*
X148760654Y-85701223D01*
X148779704Y-85736862D01*
X148791435Y-85775532D01*
X148796000Y-85821888D01*
X148796000Y-86898112D01*
X148791435Y-86944468D01*
X148779704Y-86983138D01*
X148760654Y-87018777D01*
X148735017Y-87050017D01*
X148703777Y-87075654D01*
X148668138Y-87094704D01*
X148629468Y-87106435D01*
X148583112Y-87111000D01*
X147931888Y-87111000D01*
X147885532Y-87106435D01*
X147846862Y-87094704D01*
X147811223Y-87075654D01*
X147779983Y-87050017D01*
X147754346Y-87018777D01*
X147735296Y-86983138D01*
X147723565Y-86944468D01*
X147719000Y-86898112D01*
X147719000Y-85821888D01*
X147723565Y-85775532D01*
X147735296Y-85736862D01*
X147754346Y-85701223D01*
X147779983Y-85669983D01*
X147811223Y-85644346D01*
X147846862Y-85625296D01*
X147885532Y-85613565D01*
X147931888Y-85609000D01*
X148583112Y-85609000D01*
X148629468Y-85613565D01*
G37*
G36*
X138159928Y-85376764D02*
G01*
X138181009Y-85383160D01*
X138200445Y-85393548D01*
X138217476Y-85407524D01*
X138231452Y-85424555D01*
X138241840Y-85443991D01*
X138248236Y-85465072D01*
X138251000Y-85493140D01*
X138251000Y-85956860D01*
X138248236Y-85984928D01*
X138241840Y-86006009D01*
X138231452Y-86025445D01*
X138217476Y-86042476D01*
X138200445Y-86056452D01*
X138181009Y-86066840D01*
X138159928Y-86073236D01*
X138131860Y-86076000D01*
X136318140Y-86076000D01*
X136290072Y-86073236D01*
X136268991Y-86066840D01*
X136249555Y-86056452D01*
X136232524Y-86042476D01*
X136218548Y-86025445D01*
X136208160Y-86006009D01*
X136201764Y-85984928D01*
X136199000Y-85956860D01*
X136199000Y-85493140D01*
X136201764Y-85465072D01*
X136208160Y-85443991D01*
X136218548Y-85424555D01*
X136232524Y-85407524D01*
X136249555Y-85393548D01*
X136268991Y-85383160D01*
X136290072Y-85376764D01*
X136318140Y-85374000D01*
X138131860Y-85374000D01*
X138159928Y-85376764D01*
G37*
G36*
X143109928Y-85376764D02*
G01*
X143131009Y-85383160D01*
X143150445Y-85393548D01*
X143167476Y-85407524D01*
X143181452Y-85424555D01*
X143191840Y-85443991D01*
X143198236Y-85465072D01*
X143201000Y-85493140D01*
X143201000Y-85956860D01*
X143198236Y-85984928D01*
X143191840Y-86006009D01*
X143181452Y-86025445D01*
X143167476Y-86042476D01*
X143150445Y-86056452D01*
X143131009Y-86066840D01*
X143109928Y-86073236D01*
X143081860Y-86076000D01*
X141268140Y-86076000D01*
X141240072Y-86073236D01*
X141218991Y-86066840D01*
X141199555Y-86056452D01*
X141182524Y-86042476D01*
X141168548Y-86025445D01*
X141158160Y-86006009D01*
X141151764Y-85984928D01*
X141149000Y-85956860D01*
X141149000Y-85493140D01*
X141151764Y-85465072D01*
X141158160Y-85443991D01*
X141168548Y-85424555D01*
X141182524Y-85407524D01*
X141199555Y-85393548D01*
X141218991Y-85383160D01*
X141240072Y-85376764D01*
X141268140Y-85374000D01*
X143081860Y-85374000D01*
X143109928Y-85376764D01*
G37*
G36*
X160133512Y-82923927D02*
G01*
X160282812Y-82953624D01*
X160446784Y-83021544D01*
X160594354Y-83120147D01*
X160719853Y-83245646D01*
X160818456Y-83393216D01*
X160886376Y-83557188D01*
X160921000Y-83731259D01*
X160921000Y-83908741D01*
X160886376Y-84082812D01*
X160818456Y-84246784D01*
X160719853Y-84394354D01*
X160594354Y-84519853D01*
X160446784Y-84618456D01*
X160282812Y-84686376D01*
X160133512Y-84716073D01*
X160108742Y-84721000D01*
X159931258Y-84721000D01*
X159906488Y-84716073D01*
X159757188Y-84686376D01*
X159593216Y-84618456D01*
X159445646Y-84519853D01*
X159320147Y-84394354D01*
X159221544Y-84246784D01*
X159153624Y-84082812D01*
X159119000Y-83908741D01*
X159119000Y-83731259D01*
X159153624Y-83557188D01*
X159221544Y-83393216D01*
X159320147Y-83245646D01*
X159445646Y-83120147D01*
X159593216Y-83021544D01*
X159757188Y-82953624D01*
X159906488Y-82923927D01*
X159931258Y-82919000D01*
X160108742Y-82919000D01*
X160133512Y-82923927D01*
G37*
G36*
X162673512Y-82923927D02*
G01*
X162822812Y-82953624D01*
X162986784Y-83021544D01*
X163134354Y-83120147D01*
X163259853Y-83245646D01*
X163358456Y-83393216D01*
X163426376Y-83557188D01*
X163461000Y-83731259D01*
X163461000Y-83908741D01*
X163426376Y-84082812D01*
X163358456Y-84246784D01*
X163259853Y-84394354D01*
X163134354Y-84519853D01*
X162986784Y-84618456D01*
X162822812Y-84686376D01*
X162673512Y-84716073D01*
X162648742Y-84721000D01*
X162471258Y-84721000D01*
X162446488Y-84716073D01*
X162297188Y-84686376D01*
X162133216Y-84618456D01*
X161985646Y-84519853D01*
X161860147Y-84394354D01*
X161761544Y-84246784D01*
X161693624Y-84082812D01*
X161659000Y-83908741D01*
X161659000Y-83731259D01*
X161693624Y-83557188D01*
X161761544Y-83393216D01*
X161860147Y-83245646D01*
X161985646Y-83120147D01*
X162133216Y-83021544D01*
X162297188Y-82953624D01*
X162446488Y-82923927D01*
X162471258Y-82919000D01*
X162648742Y-82919000D01*
X162673512Y-82923927D01*
G37*
G36*
X148629468Y-83073565D02*
G01*
X148668138Y-83085296D01*
X148703777Y-83104346D01*
X148735017Y-83129983D01*
X148760654Y-83161223D01*
X148779704Y-83196862D01*
X148791435Y-83235532D01*
X148796000Y-83281888D01*
X148796000Y-84358112D01*
X148791435Y-84404468D01*
X148779704Y-84443138D01*
X148760654Y-84478777D01*
X148735017Y-84510017D01*
X148703777Y-84535654D01*
X148668138Y-84554704D01*
X148629468Y-84566435D01*
X148583112Y-84571000D01*
X147931888Y-84571000D01*
X147885532Y-84566435D01*
X147846862Y-84554704D01*
X147811223Y-84535654D01*
X147779983Y-84510017D01*
X147754346Y-84478777D01*
X147735296Y-84443138D01*
X147723565Y-84404468D01*
X147719000Y-84358112D01*
X147719000Y-83281888D01*
X147723565Y-83235532D01*
X147735296Y-83196862D01*
X147754346Y-83161223D01*
X147779983Y-83129983D01*
X147811223Y-83104346D01*
X147846862Y-83085296D01*
X147885532Y-83073565D01*
X147931888Y-83069000D01*
X148583112Y-83069000D01*
X148629468Y-83073565D01*
G37*
G36*
X146754468Y-83073565D02*
G01*
X146793138Y-83085296D01*
X146828777Y-83104346D01*
X146860017Y-83129983D01*
X146885654Y-83161223D01*
X146904704Y-83196862D01*
X146916435Y-83235532D01*
X146921000Y-83281888D01*
X146921000Y-84358112D01*
X146916435Y-84404468D01*
X146904704Y-84443138D01*
X146885654Y-84478777D01*
X146860017Y-84510017D01*
X146828777Y-84535654D01*
X146793138Y-84554704D01*
X146754468Y-84566435D01*
X146708112Y-84571000D01*
X146056888Y-84571000D01*
X146010532Y-84566435D01*
X145971862Y-84554704D01*
X145936223Y-84535654D01*
X145904983Y-84510017D01*
X145879346Y-84478777D01*
X145860296Y-84443138D01*
X145848565Y-84404468D01*
X145844000Y-84358112D01*
X145844000Y-83281888D01*
X145848565Y-83235532D01*
X145860296Y-83196862D01*
X145879346Y-83161223D01*
X145904983Y-83129983D01*
X145936223Y-83104346D01*
X145971862Y-83085296D01*
X146010532Y-83073565D01*
X146056888Y-83069000D01*
X146708112Y-83069000D01*
X146754468Y-83073565D01*
G37*
G36*
X162673512Y-80383927D02*
G01*
X162822812Y-80413624D01*
X162986784Y-80481544D01*
X163134354Y-80580147D01*
X163259853Y-80705646D01*
X163358456Y-80853216D01*
X163426376Y-81017188D01*
X163461000Y-81191259D01*
X163461000Y-81368741D01*
X163426376Y-81542812D01*
X163358456Y-81706784D01*
X163259853Y-81854354D01*
X163134354Y-81979853D01*
X162986784Y-82078456D01*
X162822812Y-82146376D01*
X162673512Y-82176073D01*
X162648742Y-82181000D01*
X162471258Y-82181000D01*
X162446488Y-82176073D01*
X162297188Y-82146376D01*
X162133216Y-82078456D01*
X161985646Y-81979853D01*
X161860147Y-81854354D01*
X161761544Y-81706784D01*
X161693624Y-81542812D01*
X161659000Y-81368741D01*
X161659000Y-81191259D01*
X161693624Y-81017188D01*
X161761544Y-80853216D01*
X161860147Y-80705646D01*
X161985646Y-80580147D01*
X162133216Y-80481544D01*
X162297188Y-80413624D01*
X162446488Y-80383927D01*
X162471258Y-80379000D01*
X162648742Y-80379000D01*
X162673512Y-80383927D01*
G37*
G36*
X160921000Y-82181000D02*
G01*
X159119000Y-82181000D01*
X159119000Y-80379000D01*
X160921000Y-80379000D01*
X160921000Y-82181000D01*
G37*
G36*
X128036968Y-80533565D02*
G01*
X128075638Y-80545296D01*
X128111277Y-80564346D01*
X128142517Y-80589983D01*
X128168154Y-80621223D01*
X128187204Y-80656862D01*
X128198935Y-80695532D01*
X128203500Y-80741888D01*
X128203500Y-81818112D01*
X128198935Y-81864468D01*
X128187204Y-81903138D01*
X128168154Y-81938777D01*
X128142517Y-81970017D01*
X128111277Y-81995654D01*
X128075638Y-82014704D01*
X128036968Y-82026435D01*
X127990612Y-82031000D01*
X127339388Y-82031000D01*
X127293032Y-82026435D01*
X127254362Y-82014704D01*
X127218723Y-81995654D01*
X127187483Y-81970017D01*
X127161846Y-81938777D01*
X127142796Y-81903138D01*
X127131065Y-81864468D01*
X127126500Y-81818112D01*
X127126500Y-80741888D01*
X127131065Y-80695532D01*
X127142796Y-80656862D01*
X127161846Y-80621223D01*
X127187483Y-80589983D01*
X127218723Y-80564346D01*
X127254362Y-80545296D01*
X127293032Y-80533565D01*
X127339388Y-80529000D01*
X127990612Y-80529000D01*
X128036968Y-80533565D01*
G37*
G36*
X129911968Y-80533565D02*
G01*
X129950638Y-80545296D01*
X129986277Y-80564346D01*
X130017517Y-80589983D01*
X130043154Y-80621223D01*
X130062204Y-80656862D01*
X130073935Y-80695532D01*
X130078500Y-80741888D01*
X130078500Y-81818112D01*
X130073935Y-81864468D01*
X130062204Y-81903138D01*
X130043154Y-81938777D01*
X130017517Y-81970017D01*
X129986277Y-81995654D01*
X129950638Y-82014704D01*
X129911968Y-82026435D01*
X129865612Y-82031000D01*
X129214388Y-82031000D01*
X129168032Y-82026435D01*
X129129362Y-82014704D01*
X129093723Y-81995654D01*
X129062483Y-81970017D01*
X129036846Y-81938777D01*
X129017796Y-81903138D01*
X129006065Y-81864468D01*
X129001500Y-81818112D01*
X129001500Y-80741888D01*
X129006065Y-80695532D01*
X129017796Y-80656862D01*
X129036846Y-80621223D01*
X129062483Y-80589983D01*
X129093723Y-80564346D01*
X129129362Y-80545296D01*
X129168032Y-80533565D01*
X129214388Y-80529000D01*
X129865612Y-80529000D01*
X129911968Y-80533565D01*
G37*
G36*
X148629468Y-80533565D02*
G01*
X148668138Y-80545296D01*
X148703777Y-80564346D01*
X148735017Y-80589983D01*
X148760654Y-80621223D01*
X148779704Y-80656862D01*
X148791435Y-80695532D01*
X148796000Y-80741888D01*
X148796000Y-81818112D01*
X148791435Y-81864468D01*
X148779704Y-81903138D01*
X148760654Y-81938777D01*
X148735017Y-81970017D01*
X148703777Y-81995654D01*
X148668138Y-82014704D01*
X148629468Y-82026435D01*
X148583112Y-82031000D01*
X147931888Y-82031000D01*
X147885532Y-82026435D01*
X147846862Y-82014704D01*
X147811223Y-81995654D01*
X147779983Y-81970017D01*
X147754346Y-81938777D01*
X147735296Y-81903138D01*
X147723565Y-81864468D01*
X147719000Y-81818112D01*
X147719000Y-80741888D01*
X147723565Y-80695532D01*
X147735296Y-80656862D01*
X147754346Y-80621223D01*
X147779983Y-80589983D01*
X147811223Y-80564346D01*
X147846862Y-80545296D01*
X147885532Y-80533565D01*
X147931888Y-80529000D01*
X148583112Y-80529000D01*
X148629468Y-80533565D01*
G37*
G36*
X146754468Y-80533565D02*
G01*
X146793138Y-80545296D01*
X146828777Y-80564346D01*
X146860017Y-80589983D01*
X146885654Y-80621223D01*
X146904704Y-80656862D01*
X146916435Y-80695532D01*
X146921000Y-80741888D01*
X146921000Y-81818112D01*
X146916435Y-81864468D01*
X146904704Y-81903138D01*
X146885654Y-81938777D01*
X146860017Y-81970017D01*
X146828777Y-81995654D01*
X146793138Y-82014704D01*
X146754468Y-82026435D01*
X146708112Y-82031000D01*
X146056888Y-82031000D01*
X146010532Y-82026435D01*
X145971862Y-82014704D01*
X145936223Y-81995654D01*
X145904983Y-81970017D01*
X145879346Y-81938777D01*
X145860296Y-81903138D01*
X145848565Y-81864468D01*
X145844000Y-81818112D01*
X145844000Y-80741888D01*
X145848565Y-80695532D01*
X145860296Y-80656862D01*
X145879346Y-80621223D01*
X145904983Y-80589983D01*
X145936223Y-80564346D01*
X145971862Y-80545296D01*
X146010532Y-80533565D01*
X146056888Y-80529000D01*
X146708112Y-80529000D01*
X146754468Y-80533565D01*
G37*
G36*
X139466968Y-80533565D02*
G01*
X139505638Y-80545296D01*
X139541277Y-80564346D01*
X139572517Y-80589983D01*
X139598154Y-80621223D01*
X139617204Y-80656862D01*
X139628935Y-80695532D01*
X139633500Y-80741888D01*
X139633500Y-81818112D01*
X139628935Y-81864468D01*
X139617204Y-81903138D01*
X139598154Y-81938777D01*
X139572517Y-81970017D01*
X139541277Y-81995654D01*
X139505638Y-82014704D01*
X139466968Y-82026435D01*
X139420612Y-82031000D01*
X138769388Y-82031000D01*
X138723032Y-82026435D01*
X138684362Y-82014704D01*
X138648723Y-81995654D01*
X138617483Y-81970017D01*
X138591846Y-81938777D01*
X138572796Y-81903138D01*
X138561065Y-81864468D01*
X138556500Y-81818112D01*
X138556500Y-80741888D01*
X138561065Y-80695532D01*
X138572796Y-80656862D01*
X138591846Y-80621223D01*
X138617483Y-80589983D01*
X138648723Y-80564346D01*
X138684362Y-80545296D01*
X138723032Y-80533565D01*
X138769388Y-80529000D01*
X139420612Y-80529000D01*
X139466968Y-80533565D01*
G37*
G36*
X141341968Y-80533565D02*
G01*
X141380638Y-80545296D01*
X141416277Y-80564346D01*
X141447517Y-80589983D01*
X141473154Y-80621223D01*
X141492204Y-80656862D01*
X141503935Y-80695532D01*
X141508500Y-80741888D01*
X141508500Y-81818112D01*
X141503935Y-81864468D01*
X141492204Y-81903138D01*
X141473154Y-81938777D01*
X141447517Y-81970017D01*
X141416277Y-81995654D01*
X141380638Y-82014704D01*
X141341968Y-82026435D01*
X141295612Y-82031000D01*
X140644388Y-82031000D01*
X140598032Y-82026435D01*
X140559362Y-82014704D01*
X140523723Y-81995654D01*
X140492483Y-81970017D01*
X140466846Y-81938777D01*
X140447796Y-81903138D01*
X140436065Y-81864468D01*
X140431500Y-81818112D01*
X140431500Y-80741888D01*
X140436065Y-80695532D01*
X140447796Y-80656862D01*
X140466846Y-80621223D01*
X140492483Y-80589983D01*
X140523723Y-80564346D01*
X140559362Y-80545296D01*
X140598032Y-80533565D01*
X140644388Y-80529000D01*
X141295612Y-80529000D01*
X141341968Y-80533565D01*
G37*
M02*
