  0
SECTION
  2
HEADER
  9
$ACADVER
  1
AC1009
  9
$DWGCODEPAGE
  3
ansi_1252
  9
$INSBASE
 10
0.0
 20
0.0
 30
0.0
  9
$EXTMIN
 10
-99.68393439902296
 20
-106.4564411797727
 30
0.0
  9
$EXTMAX
 10
121.820637599536
 20
92.8911255453495
 30
0.0
  9
$LIMMIN
 10
0.0
 20
0.0
  9
$LIMMAX
 10
12.0
 20
9.0
  9
$ORTHOMODE
 70
     0
  9
$REGENMODE
 70
     1
  9
$FILLMODE
 70
     1
  9
$QTEXTMODE
 70
     0
  9
$MIRRTEXT
 70
     1
  9
$DRAGMODE
 70
     2
  9
$LTSCALE
 40
1.0
  9
$OSMODE
 70
    37
  9
$ATTMODE
 70
     1
  9
$TEXTSIZE
 40
0.2
  9
$TRACEWID
 40
0.05
  9
$TEXTSTYLE
  7
STANDARD
  9
$CLAYER
  8
0
  9
$CELTYPE
  6
BYLAYER
  9
$CECOLOR
 62
   256
  9
$DIMSCALE
 40
1.0
  9
$DIMASZ
 40
0.18
  9
$DIMEXO
 40
0.0625
  9
$DIMDLI
 40
0.38
  9
$DIMRND
 40
0.0
  9
$DIMDLE
 40
0.0
  9
$DIMEXE
 40
0.18
  9
$DIMTP
 40
0.0
  9
$DIMTM
 40
0.0
  9
$DIMTXT
 40
0.18
  9
$DIMCEN
 40
0.09
  9
$DIMTSZ
 40
0.0
  9
$DIMTOL
 70
     0
  9
$DIMLIM
 70
     0
  9
$DIMTIH
 70
     1
  9
$DIMTOH
 70
     1
  9
$DIMSE1
 70
     0
  9
$DIMSE2
 70
     0
  9
$DIMTAD
 70
     0
  9
$DIMZIN
 70
     0
  9
$DIMBLK
  1

  9
$DIMASO
 70
     1
  9
$DIMSHO
 70
     1
  9
$DIMPOST
  1

  9
$DIMAPOST
  1

  9
$DIMALT
 70
     0
  9
$DIMALTD
 70
     2
  9
$DIMALTF
 40
25.4
  9
$DIMLFAC
 40
1.0
  9
$DIMTOFL
 70
     0
  9
$DIMTVP
 40
0.0
  9
$DIMTIX
 70
     0
  9
$DIMSOXD
 70
     0
  9
$DIMSAH
 70
     0
  9
$DIMBLK1
  1

  9
$DIMBLK2
  1

  9
$DIMSTYLE
  2
STANDARD
  9
$DIMCLRD
 70
     0
  9
$DIMCLRE
 70
     0
  9
$DIMCLRT
 70
     0
  9
$DIMTFAC
 40
1.0
  9
$DIMGAP
 40
0.09
  9
$LUNITS
 70
     2
  9
$LUPREC
 70
     4
  9
$SKETCHINC
 40
0.1
  9
$FILLETRAD
 40
0.0
  9
$AUNITS
 70
     0
  9
$AUPREC
 70
     0
  9
$MENU
  1
.
  9
$ELEVATION
 40
0.0
  9
$PELEVATION
 40
0.0
  9
$THICKNESS
 40
0.0
  9
$LIMCHECK
 70
     0
  9
$CHAMFERA
 40
0.0
  9
$CHAMFERB
 40
0.0
  9
$SKPOLY
 70
     0
  9
$TDCREATE
 40
2454910.5
  9
$TDUPDATE
 40
2461060.375758067
  9
$TDINDWG
 40
0.0000000116
  9
$TDUSRTIMER
 40
0.0000000116
  9
$USRTIMER
 70
     1
  9
$ANGBASE
 50
0.0
  9
$ANGDIR
 70
     0
  9
$PDMODE
 70
     0
  9
$PDSIZE
 40
0.0
  9
$PLINEWID
 40
0.0
  9
$COORDS
 70
     1
  9
$SPLFRAME
 70
     0
  9
$SPLINETYPE
 70
     6
  9
$SPLINESEGS
 70
     8
  9
$ATTDIA
 70
     0
  9
$ATTREQ
 70
     1
  9
$HANDLING
 70
     1
  9
$HANDSEED
  5
73C
  9
$SURFTAB1
 70
     6
  9
$SURFTAB2
 70
     6
  9
$SURFTYPE
 70
     6
  9
$SURFU
 70
     6
  9
$SURFV
 70
     6
  9
$UCSNAME
  2

  9
$UCSORG
 10
0.0
 20
0.0
 30
0.0
  9
$UCSXDIR
 10
1.0
 20
0.0
 30
0.0
  9
$UCSYDIR
 10
0.0
 20
1.0
 30
0.0
  9
$PUCSNAME
  2

  9
$PUCSORG
 10
0.0
 20
0.0
 30
0.0
  9
$PUCSXDIR
 10
1.0
 20
0.0
 30
0.0
  9
$PUCSYDIR
 10
0.0
 20
1.0
 30
0.0
  9
$USERI1
 70
     0
  9
$USERI2
 70
     0
  9
$USERI3
 70
     0
  9
$USERI4
 70
     0
  9
$USERI5
 70
     0
  9
$USERR1
 40
0.0
  9
$USERR2
 40
0.0
  9
$USERR3
 40
0.0
  9
$USERR4
 40
0.0
  9
$USERR5
 40
0.0
  9
$WORLDVIEW
 70
     1
  9
$SHADEDGE
 70
     3
  9
$SHADEDIF
 70
    70
  9
$TILEMODE
 70
     1
  9
$MAXACTVP
 70
    64
  9
$PLIMCHECK
 70
     0
  9
$PEXTMIN
 10
1.000000000000000E+20
 20
1.000000000000000E+20
 30
1.000000000000000E+20
  9
$PEXTMAX
 10
-1.000000000000000E+20
 20
-1.000000000000000E+20
 30
-1.000000000000000E+20
  9
$PLIMMIN
 10
0.0
 20
0.0
  9
$PLIMMAX
 10
12.0
 20
9.0
  9
$UNITMODE
 70
     0
  9
$VISRETAIN
 70
     1
  9
$PLINEGEN
 70
     0
  9
$PSLTSCALE
 70
     1
  0
ENDSEC
  0
SECTION
  2
TABLES
  0
TABLE
  2
VPORT
 70
     1
  0
VPORT
  2
*ACTIVE
 70
     0
 10
0.0
 20
0.0
 11
1.0
 21
1.0
 12
10.42990654205607
 22
4.5
 13
0.0
 23
0.0
 14
0.5
 24
0.5
 15
0.5
 25
0.5
 16
0.0
 26
0.0
 36
1.0
 17
0.0
 27
0.0
 37
0.0
 40
9.0
 41
1.972972972850329
 42
50.0
 43
0.0
 44
0.0
 50
0.0
 51
0.0
 71
     0
 72
   100
 73
     1
 74
     3
 75
     0
 76
     0
 77
     0
 78
     0
  0
ENDTAB
  0
TABLE
  2
LTYPE
 70
     2
  0
LTYPE
  2
CONTINUOUS
 70
     0
  3
Solid line
 72
    65
 73
     0
 40
0.0
  0
LTYPE
  2
CONTINUOUS2
 70
     0
  3
Solid Line
 72
    65
 73
     0
 40
0.0
  0
ENDTAB
  0
TABLE
  2
LAYER
 70
     2
  0
LAYER
  2
0
 70
     0
 62
     7
  6
CONTINUOUS
  0
LAYER
  2
LAYER0
 70
     0
 62
    13
  6
CONTINUOUS
  0
ENDTAB
  0
TABLE
  2
STYLE
 70
     1
  0
STYLE
  2
STANDARD
 70
     0
 40
0.0
 41
1.0
 50
0.0
 71
     0
 42
0.2
  3
txt
  4

  0
ENDTAB
  0
TABLE
  2
VIEW
 70
     0
  0
ENDTAB
  0
TABLE
  2
UCS
 70
     0
  0
ENDTAB
  0
TABLE
  2
APPID
 70
     1
  0
APPID
  2
ACAD
 70
     0
  0
ENDTAB
  0
TABLE
  2
DIMSTYLE
 70
     1
  0
DIMSTYLE
  2
STANDARD
 70
     0
  3

  4

  5

  6

  7

 40
1.0
 41
0.18
 42
0.0625
 43
0.38
 44
0.18
 45
0.0
 46
0.0
 47
0.0
 48
0.0
140
0.18
141
0.09
142
0.0
143
25.4
144
1.0
145
0.0
146
1.0
147
0.09
 71
     0
 72
     0
 73
     1
 74
     1
 75
     0
 76
     0
 77
     0
 78
     0
170
     0
171
     2
172
     0
173
     0
174
     0
175
     0
176
     0
177
     0
178
     0
  0
ENDTAB
  0
ENDSEC
  0
SECTION
  2
BLOCKS
  0
BLOCK
  8
0
  2
$MODEL_SPACE
 70
     0
 10
0.0
 20
0.0
 30
0.0
  3
$MODEL_SPACE
  1

  0
ENDBLK
  5
21
  8
0
  0
BLOCK
 67
     1
  8
0
  2
$PAPER_SPACE
 70
     0
 10
0.0
 20
0.0
 30
0.0
  3
$PAPER_SPACE
  1

  0
ENDBLK
  5
1D
 67
     1
  8
0
  0
ENDSEC
  0
SECTION
  2
ENTITIES
  0
POLYLINE
  5
60
  8
LAYER0
 66
     1
 10
0.0
 20
0.0
 30
0.0
 70
     1
  0
VERTEX
  5
FA
  8
LAYER0
 10
79.50881395224135
 20
-96.04419739963531
 30
0.0
  0
VERTEX
  5
FB
  8
LAYER0
 10
79.33506645725137
 20
-95.9749589226814
 30
0.0
  0
VERTEX
  5
FC
  8
LAYER0
 10
79.17294220875439
 20
-95.89870641767138
 30
0.0
  0
VERTEX
  5
FD
  8
LAYER0
 10
79.02244120675037
 20
-95.81543988460524
 30
0.0
  0
VERTEX
  5
FE
  8
LAYER0
 10
78.88356345123935
 20
-95.725159323483
 30
0.0
  0
VERTEX
  5
FF
  8
LAYER0
 10
78.75630894222131
 20
-95.62786473430464
 30
0.0
  0
VERTEX
  5
100
  8
LAYER0
 10
78.64067767969627
 20
-95.52355611707017
 30
0.0
  0
VERTEX
  5
101
  8
LAYER0
 10
78.5366696636642
 20
-95.41223347177959
 30
0.0
  0
VERTEX
  5
102
  8
LAYER0
 10
78.44428489412512
 20
-95.2938967984329
 30
0.0
  0
VERTEX
  5
103
  8
LAYER0
 10
78.3631225694758
 20
-95.16904709903409
 30
0.0
  0
VERTEX
  5
104
  8
LAYER0
 10
78.29278188811308
 20
-95.0381853755872
 30
0.0
  0
VERTEX
  5
105
  8
LAYER0
 10
78.23326285003694
 20
-94.90131162809222
 30
0.0
  0
VERTEX
  5
106
  8
LAYER0
 10
78.18456545524737
 20
-94.75842585654914
 30
0.0
  0
VERTEX
  5
107
  8
LAYER0
 10
78.14668970374436
 20
-94.60952806095796
 30
0.0
  0
VERTEX
  5
108
  8
LAYER0
 10
78.11963559552792
 20
-94.45461824131868
 30
0.0
  0
VERTEX
  5
109
  8
LAYER0
 10
78.10340313059807
 20
-94.2936963976313
 30
0.0
  0
VERTEX
  5
10A
  8
LAYER0
 10
78.09799230895479
 20
-94.12676252989583
 30
0.0
  0
VERTEX
  5
10B
  8
LAYER0
 10
78.10951535504697
 20
-93.8753597242846
 30
0.0
  0
VERTEX
  5
10C
  8
LAYER0
 10
78.14408449332352
 20
-93.63417735955514
 30
0.0
  0
VERTEX
  5
10D
  8
LAYER0
 10
78.20169972378444
 20
-93.40321543570744
 30
0.0
  0
VERTEX
  5
10E
  8
LAYER0
 10
78.28236104642974
 20
-93.1824739527415
 30
0.0
  0
VERTEX
  5
10F
  8
LAYER0
 10
78.3860684612594
 20
-92.97195291065734
 30
0.0
  0
VERTEX
  5
110
  8
LAYER0
 10
78.51282196827341
 20
-92.77165230945494
 30
0.0
  0
VERTEX
  5
111
  8
LAYER0
 10
78.6626215674718
 20
-92.58157214913429
 30
0.0
  0
VERTEX
  5
112
  8
LAYER0
 10
78.83546725885458
 20
-92.40171242969542
 30
0.0
  0
VERTEX
  5
113
  8
LAYER0
 10
79.02745122679046
 20
-92.23788477438481
 30
0.0
  0
VERTEX
  5
114
  8
LAYER0
 10
79.23466565564817
 20
-92.09590080644892
 30
0.0
  0
VERTEX
  5
115
  8
LAYER0
 10
79.45711054542774
 20
-91.97576052588781
 30
0.0
  0
VERTEX
  5
116
  8
LAYER0
 10
79.69478589612913
 20
-91.87746393270143
 30
0.0
  0
VERTEX
  5
117
  8
LAYER0
 10
79.94769170775238
 20
-91.80101102688981
 30
0.0
  0
VERTEX
  5
118
  8
LAYER0
 10
80.21582798029746
 20
-91.74640180845293
 30
0.0
  0
VERTEX
  5
119
  8
LAYER0
 10
80.49919471376441
 20
-91.7136362773908
 30
0.0
  0
VERTEX
  5
11A
  8
LAYER0
 10
80.79779190815319
 20
-91.70271443370343
 30
0.0
  0
VERTEX
  5
11B
  8
LAYER0
 10
81.09809250935561
 20
-91.7138867783928
 30
0.0
  0
VERTEX
  5
11C
  8
LAYER0
 10
81.38336305043777
 20
-91.74740381246095
 30
0.0
  0
VERTEX
  5
11D
  8
LAYER0
 10
81.65360353139968
 20
-91.80326553590784
 30
0.0
  0
VERTEX
  5
11E
  8
LAYER0
 10
81.90881395224136
 20
-91.88147194873349
 30
0.0
  0
VERTEX
  5
11F
  8
LAYER0
 10
82.1489943129628
 20
-91.98202305093791
 30
0.0
  0
VERTEX
  5
120
  8
LAYER0
 10
82.374144613564
 20
-92.10491884252107
 30
0.0
  0
VERTEX
  5
121
  8
LAYER0
 10
82.58426485404496
 20
-92.250159323483
 30
0.0
  0
VERTEX
  5
122
  8
LAYER0
 10
82.77935503440568
 20
-92.41774449382368
 30
0.0
  0
VERTEX
  5
123
  8
LAYER0
 10
82.95520673781249
 20
-92.6013617282926
 30
0.0
  0
VERTEX
  5
124
  8
LAYER0
 10
83.10761154743173
 20
-92.7946984016393
 30
0.0
  0
VERTEX
  5
125
  8
LAYER0
 10
83.23656946326341
 20
-92.99775451386375
 30
0.0
  0
VERTEX
  5
126
  8
LAYER0
 10
83.34208048530749
 20
-93.21053006496595
 30
0.0
  0
VERTEX
  5
127
  8
LAYER0
 10
83.424144613564
 20
-93.43302505494592
 30
0.0
  0
VERTEX
  5
128
  8
LAYER0
 10
83.48276184803294
 20
-93.66523948380363
 30
0.0
  0
VERTEX
  5
129
  8
LAYER0
 10
83.5179321887143
 20
-93.9071733515391
 30
0.0
  0
VERTEX
  5
12A
  8
LAYER0
 10
83.5296556356081
 20
-94.15882665815234
 30
0.0
  0
VERTEX
  5
12B
  8
LAYER0
 10
83.52429491416521
 20
-94.31969840163933
 30
0.0
  0
VERTEX
  5
12C
  8
LAYER0
 10
83.50821274983655
 20
-94.47525952388382
 30
0.0
  0
VERTEX
  5
12D
  8
LAYER0
 10
83.48140914262211
 20
-94.62551002488583
 30
0.0
  0
VERTEX
  5
12E
  8
LAYER0
 10
83.44388409252191
 20
-94.77044990464533
 30
0.0
  0
VERTEX
  5
12F
  8
LAYER0
 10
83.39563759953595
 20
-94.91007916316235
 30
0.0
  0
VERTEX
  5
130
  8
LAYER0
 10
83.3366696636642
 20
-95.04439780043691
 30
0.0
  0
VERTEX
  5
131
  8
LAYER0
 10
83.26698028490668
 20
-95.17340581646897
 30
0.0
  0
VERTEX
  5
132
  8
LAYER0
 10
83.1865694632634
 20
-95.29710321125854
 30
0.0
  0
VERTEX
  5
133
  8
LAYER0
 10
83.09523679793273
 20
-95.41468838159922
 30
0.0
  0
VERTEX
  5
134
  8
LAYER0
 10
82.99278188811309
 20
-95.5253597242846
 30
0.0
  0
VERTEX
  5
135
  8
LAYER0
 10
82.87920473380447
 20
-95.62911723931467
 30
0.0
  0
VERTEX
  5
136
  8
LAYER0
 10
82.75450533500688
 20
-95.72596092668941
 30
0.0
  0
VERTEX
  5
137
  8
LAYER0
 10
82.61868369172032
 20
-95.81589078640886
 30
0.0
  0
VERTEX
  5
138
  8
LAYER0
 10
82.47173980394476
 20
-95.89890681847298
 30
0.0
  0
VERTEX
  5
139
  8
LAYER0
 10
82.31367367168023
 20
-95.97500902288179
 30
0.0
  0
VERTEX
  5
13A
  8
LAYER0
 10
82.14448529492672
 20
-96.04419739963531
 30
0.0
  0
VERTEX
  5
13B
  8
LAYER0
 10
82.3544552348065
 20
-96.12014930344293
 30
0.0
  0
VERTEX
  5
13C
  8
LAYER0
 10
82.55149932298283
 20
-96.2069228505371
 30
0.0
  0
VERTEX
  5
13D
  8
LAYER0
 10
82.73561755945579
 20
-96.30451804091787
 30
0.0
  0
VERTEX
  5
13E
  8
LAYER0
 10
82.90680994422533
 20
-96.4129348745852
 30
0.0
  0
VERTEX
  5
13F
  8
LAYER0
 10
83.06507647729146
 20
-96.53217335153911
 30
0.0
  0
VERTEX
  5
140
  8
LAYER0
 10
83.21041715865418
 20
-96.66223347177959
 30
0.0
  0
VERTEX
  5
141
  8
LAYER0
 10
83.3428319883135
 20
-96.80311523530665
 30
0.0
  0
VERTEX
  5
142
  8
LAYER0
 10
83.46232096626942
 20
-96.95481864212027
 30
0.0
  0
VERTEX
  5
143
  8
LAYER0
 10
83.5682828901171
 20
-97.11574048580763
 30
0.0
  0
VERTEX
  5
144
  8
LAYER0
 10
83.66011655745177
 20
-97.28427755995594
 30
0.0
  0
VERTEX
  5
145
  8
LAYER0
 10
83.73782196827342
 20
-97.46042986456516
 30
0.0
  0
VERTEX
  5
146
  8
LAYER0
 10
83.80139912258204
 20
-97.64419739963529
 30
0.0
  0
VERTEX
  5
147
  8
LAYER0
 10
83.85084802037763
 20
-97.83558016516636
 30
0.0
  0
VERTEX
  5
148
  8
LAYER0
 10
83.88616866166018
 20
-98.03457816115835
 30
0.0
  0
VERTEX
  5
149
  8
LAYER0
 10
83.90736104642973
 20
-98.24119138761125
 30
0.0
  0
VERTEX
  5
14A
  8
LAYER0
 10
83.91442517468624
 20
-98.45541984452508
 30
0.0
  0
VERTEX
  5
14B
  8
LAYER0
 10
83.90109852137964
 20
-98.75081062608822
 30
0.0
  0
VERTEX
  5
14C
  8
LAYER0
 10
83.8611185614598
 20
-99.03417735955516
 30
0.0
  0
VERTEX
  5
14D
  8
LAYER0
 10
83.79448529492673
 20
-99.3055200449259
 30
0.0
  0
VERTEX
  5
14E
  8
LAYER0
 10
83.70119872178044
 20
-99.56483868220045
 30
0.0
  0
VERTEX
  5
14F
  8
LAYER0
 10
83.58125884202093
 20
-99.8121332713788
 30
0.0
  0
VERTEX
  5
150
  8
LAYER0
 10
83.43466565564817
 20
-100.047403812461
 30
0.0
  0
VERTEX
  5
151
  8
LAYER0
 10
83.26141916266221
 20
-100.2706503054469
 30
0.0
  0
VERTEX
  5
152
  8
LAYER0
 10
83.061519363063
 20
-100.4818727503367
 30
0.0
  0
VERTEX
  5
153
  8
LAYER0
 10
82.95280192819325
 20
-100.5812715479319
 30
0.0
  0
VERTEX
  5
154
  8
LAYER0
 10
82.83987607648986
 20
-100.6742575198758
 30
0.0
  0
VERTEX
  5
155
  8
LAYER0
 10
82.72274180795277
 20
-100.7608306661684
 30
0.0
  0
VERTEX
  5
156
  8
LAYER0
 10
82.60139912258204
 20
-100.8409909868097
 30
0.0
  0
VERTEX
  5
157
  8
LAYER0
 10
82.47584802037763
 20
-100.9147384817996
 30
0.0
  0
VERTEX
  5
158
  8
LAYER0
 10
82.34608850133955
 20
-100.9820731511383
 30
0.0
  0
VERTEX
  5
159
  8
LAYER0
 10
82.2121205654678
 20
-101.0429949948257
 30
0.0
  0
VERTEX
  5
15A
  8
LAYER0
 10
82.07394421276238
 20
-101.0975040128617
 30
0.0
  0
VERTEX
  5
15B
  8
LAYER0
 10
81.78496625685057
 20
-101.18728357198
 30
0.0
  0
VERTEX
  5
15C
  8
LAYER0
 10
81.47915463360407
 20
-101.251411828493
 30
0.0
  0
VERTEX
  5
15D
  8
LAYER0
 10
81.15650934302292
 20
-101.2898887824008
 30
0.0
  0
VERTEX
  5
15E
  8
LAYER0
 10
80.81703038510709
 20
-101.3027144337034
 30
0.0
  0
VERTEX
  5
15F
  8
LAYER0
 10
80.47755142719126
 20
-101.2898386822004
 30
0.0
  0
VERTEX
  5
160
  8
LAYER0
 10
80.15490613661011
 20
-101.2512114276914
 30
0.0
  0
VERTEX
  5
161
  8
LAYER0
 10
79.84909451336361
 20
-101.1868326701764
 30
0.0
  0
VERTEX
  5
162
  8
LAYER0
 10
79.56011655745179
 20
-101.0967024096554
 30
0.0
  0
VERTEX
  5
163
  8
LAYER0
 10
79.42194020474638
 20
-101.0419804657676
 30
0.0
  0
VERTEX
  5
164
  8
LAYER0
 10
79.28797226887463
 20
-100.9808206461283
 30
0.0
  0
VERTEX
  5
165
  8
LAYER0
 10
79.15821274983655
 20
-100.9132229507375
 30
0.0
  0
VERTEX
  5
166
  8
LAYER0
 10
79.03266164763214
 20
-100.8391873795952
 30
0.0
  0
VERTEX
  5
167
  8
LAYER0
 10
78.9113189622614
 20
-100.7587139327014
 30
0.0
  0
VERTEX
  5
168
  8
LAYER0
 10
78.79418469372432
 20
-100.6718026100561
 30
0.0
  0
VERTEX
  5
169
  8
LAYER0
 10
78.68125884202092
 20
-100.5784534116594
 30
0.0
  0
VERTEX
  5
16A
  8
LAYER0
 10
78.57254140715118
 20
-100.4786663375111
 30
0.0
  0
VERTEX
  5
16B
  8
LAYER0
 10
78.37264160755197
 20
-100.2662915880121
 30
0.0
  0
VERTEX
  5
16C
  8
LAYER0
 10
78.199395114566
 20
-100.0411913876113
 30
0.0
  0
VERTEX
  5
16D
  8
LAYER0
 10
78.05280192819325
 20
-99.80336573630866
 30
0.0
  0
VERTEX
  5
16E
  8
LAYER0
 10
77.93286204843373
 20
-99.55281463410425
 30
0.0
  0
VERTEX
  5
16F
  8
LAYER0
 10
77.83957547528745
 20
-99.28953808099804
 30
0.0
  0
VERTEX
  5
170
  8
LAYER0
 10
77.77294220875437
 20
-99.01353607699002
 30
0.0
  0
VERTEX
  5
171
  8
LAYER0
 10
77.73296224883454
 20
-98.72480862208019
 30
0.0
  0
VERTEX
  5
172
  8
LAYER0
 10
77.71963559552793
 20
-98.42335571626857
 30
0.0
  0
VERTEX
  5
173
  8
LAYER0
 10
77.72690012458604
 20
-98.19875651787177
 30
0.0
  0
VERTEX
  5
174
  8
LAYER0
 10
77.7486937117604
 20
-97.98347595674954
 30
0.0
  0
VERTEX
  5
175
  8
LAYER0
 10
77.78501635705098
 20
-97.77751403290183
 30
0.0
  0
VERTEX
  5
176
  8
LAYER0
 10
77.8358680604578
 20
-97.58087074632869
 30
0.0
  0
VERTEX
  5
177
  8
LAYER0
 10
77.90124882198083
 20
-97.39354609703008
 30
0.0
  0
VERTEX
  5
178
  8
LAYER0
 10
77.98115864162011
 20
-97.21554008500604
 30
0.0
  0
VERTEX
  5
179
  8
LAYER0
 10
78.0755975193756
 20
-97.04685271025654
 30
0.0
  0
VERTEX
  5
17A
  8
LAYER0
 10
78.18456545524737
 20
-96.8874839727816
 30
0.0
  0
VERTEX
  5
17B
  8
LAYER0
 10
78.30696024482654
 20
-96.73893687859322
 30
0.0
  0
VERTEX
  5
17C
  8
LAYER0
 10
78.44167968370428
 20
-96.60271443370345
 30
0.0
  0
VERTEX
  5
17D
  8
LAYER0
 10
78.58872377188064
 20
-96.47881663811228
 30
0.0
  0
VERTEX
  5
17E
  8
LAYER0
 10
78.74809250935557
 20
-96.36724349181968
 30
0.0
  0
VERTEX
  5
17F
  8
LAYER0
 10
78.91978589612913
 20
-96.2679949948257
 30
0.0
  0
VERTEX
  5
180
  8
LAYER0
 10
79.10380393220127
 20
-96.1810711471303
 30
0.0
  0
VERTEX
  5
181
  8
LAYER0
 10
79.30014661757203
 20
-96.1064719487335
 30
0.0
  0
SEQEND
  5
6A9
  8
LAYER0
  0
POLYLINE
  5
61
  8
LAYER0
 66
     1
 10
0.0
 20
0.0
 30
0.0
 70
     1
  0
VERTEX
  5
182
  8
LAYER0
 10
79.27795222879446
 20
-94.08828557598801
 30
0.0
  0
VERTEX
  5
183
  8
LAYER0
 10
79.28466565564817
 20
-94.25121142769142
 30
0.0
  0
VERTEX
  5
184
  8
LAYER0
 10
79.30480593620929
 20
-94.40652204893391
 30
0.0
  0
VERTEX
  5
185
  8
LAYER0
 10
79.33837307047783
 20
-94.55421743971547
 30
0.0
  0
VERTEX
  5
186
  8
LAYER0
 10
79.38536705845378
 20
-94.69429760003611
 30
0.0
  0
VERTEX
  5
187
  8
LAYER0
 10
79.44578790013715
 20
-94.82676252989582
 30
0.0
  0
VERTEX
  5
188
  8
LAYER0
 10
79.51963559552793
 20
-94.95161222929462
 30
0.0
  0
VERTEX
  5
189
  8
LAYER0
 10
79.60691014462613
 20
-95.0688466982325
 30
0.0
  0
VERTEX
  5
18A
  8
LAYER0
 10
79.70761154743174
 20
-95.17846593670944
 30
0.0
  0
VERTEX
  5
18B
  8
LAYER0
 10
79.81903439312312
 20
-95.27766433350303
 30
0.0
  0
VERTEX
  5
18C
  8
LAYER0
 10
79.93847327087863
 20
-95.36363627739081
 30
0.0
  0
VERTEX
  5
18D
  8
LAYER0
 10
80.06592818069828
 20
-95.43638176837277
 30
0.0
  0
VERTEX
  5
18E
  8
LAYER0
 10
80.20139912258205
 20
-95.49590080644893
 30
0.0
  0
VERTEX
  5
18F
  8
LAYER0
 10
80.34488609652993
 20
-95.54219339161928
 30
0.0
  0
VERTEX
  5
190
  8
LAYER0
 10
80.49638910254197
 20
-95.5752595238838
 30
0.0
  0
VERTEX
  5
191
  8
LAYER0
 10
80.65590814061812
 20
-95.59509920324251
 30
0.0
  0
VERTEX
  5
192
  8
LAYER0
 10
80.82344321075838
 20
-95.60171242969543
 30
0.0
  0
VERTEX
  5
193
  8
LAYER0
 10
80.98641916266219
 20
-95.59514930344292
 30
0.0
  0
VERTEX
  5
194
  8
LAYER0
 10
81.14188008450587
 20
-95.5754599246854
 30
0.0
  0
VERTEX
  5
195
  8
LAYER0
 10
81.28982597628944
 20
-95.54264429342288
 30
0.0
  0
VERTEX
  5
196
  8
LAYER0
 10
81.4302568380129
 20
-95.49670240965534
 30
0.0
  0
VERTEX
  5
197
  8
LAYER0
 10
81.56317266967622
 20
-95.4376342733828
 30
0.0
  0
VERTEX
  5
198
  8
LAYER0
 10
81.68857347127943
 20
-95.36543988460524
 30
0.0
  0
VERTEX
  5
199
  8
LAYER0
 10
81.80645924282251
 20
-95.28011924332267
 30
0.0
  0
VERTEX
  5
19A
  8
LAYER0
 10
81.91682998430548
 20
-95.1816723495351
 30
0.0
  0
VERTEX
  5
19B
  8
LAYER0
 10
82.01677988410509
 20
-95.0737064176714
 30
0.0
  0
VERTEX
  5
19C
  8
LAYER0
 10
82.10340313059808
 20
-94.95982866216038
 30
0.0
  0
VERTEX
  5
19D
  8
LAYER0
 10
82.17669972378445
 20
-94.84003908300205
 30
0.0
  0
VERTEX
  5
19E
  8
LAYER0
 10
82.2366696636642
 20
-94.71433768019644
 30
0.0
  0
VERTEX
  5
19F
  8
LAYER0
 10
82.28331295023736
 20
-94.58272445374354
 30
0.0
  0
VERTEX
  5
1A0
  8
LAYER0
 10
82.3166295835039
 20
-94.44519940364333
 30
0.0
  0
VERTEX
  5
1A1
  8
LAYER0
 10
82.3366195634638
 20
-94.30176252989584
 30
0.0
  0
VERTEX
  5
1A2
  8
LAYER0
 10
82.34328289011711
 20
-94.15241383250104
 30
0.0
  0
VERTEX
  5
1A3
  8
LAYER0
 10
82.3364191626622
 20
-93.99685271025655
 30
0.0
  0
VERTEX
  5
1A4
  8
LAYER0
 10
82.31582798029747
 20
-93.84760421326256
 30
0.0
  0
VERTEX
  5
1A5
  8
LAYER0
 10
82.28150934302292
 20
-93.70466834151907
 30
0.0
  0
VERTEX
  5
1A6
  8
LAYER0
 10
82.23346325083855
 20
-93.56804509502608
 30
0.0
  0
VERTEX
  5
1A7
  8
LAYER0
 10
82.17168970374436
 20
-93.43773447378359
 30
0.0
  0
VERTEX
  5
1A8
  8
LAYER0
 10
82.09618870174036
 20
-93.31373647779162
 30
0.0
  0
VERTEX
  5
1A9
  8
LAYER0
 10
82.00696024482653
 20
-93.19605110705012
 30
0.0
  0
VERTEX
  5
1AA
  8
LAYER0
 10
81.90400433300287
 20
-93.08467836155916
 30
0.0
  0
VERTEX
  5
1AB
  8
LAYER0
 10
81.79082798029746
 20
-92.98322545574752
 30
0.0
  0
VERTEX
  5
1AC
  8
LAYER0
 10
81.67093820073835
 20
-92.89529960404411
 30
0.0
  0
VERTEX
  5
1AD
  8
LAYER0
 10
81.54433499432552
 20
-92.82090080644892
 30
0.0
  0
VERTEX
  5
1AE
  8
LAYER0
 10
81.41101836105899
 20
-92.76002906296196
 30
0.0
  0
VERTEX
  5
1AF
  8
LAYER0
 10
81.27098830093875
 20
-92.71268437358319
 30
0.0
  0
VERTEX
  5
1B0
  8
LAYER0
 10
81.12424481396481
 20
-92.67886673831266
 30
0.0
  0
VERTEX
  5
1B1
  8
LAYER0
 10
80.97078790013715
 20
-92.65857615715034
 30
0.0
  0
VERTEX
  5
1B2
  8
LAYER0
 10
80.81061755945579
 20
-92.65181263009623
 30
0.0
  0
VERTEX
  5
1B3
  8
LAYER0
 10
80.64899431296281
 20
-92.65842585654913
 30
0.0
  0
VERTEX
  5
1B4
  8
LAYER0
 10
80.49438509452592
 20
-92.67826553590784
 30
0.0
  0
VERTEX
  5
1B5
  8
LAYER0
 10
80.34678990414517
 20
-92.71133166817238
 30
0.0
  0
VERTEX
  5
1B6
  8
LAYER0
 10
80.20620874182052
 20
-92.75762425334271
 30
0.0
  0
VERTEX
  5
1B7
  8
LAYER0
 10
80.07264160755197
 20
-92.81714329141886
 30
0.0
  0
VERTEX
  5
1B8
  8
LAYER0
 10
79.94608850133955
 20
-92.88988878240083
 30
0.0
  0
VERTEX
  5
1B9
  8
LAYER0
 10
79.82654942318324
 20
-92.9758607262886
 30
0.0
  0
VERTEX
  5
1BA
  8
LAYER0
 10
79.71402437308303
 20
-93.0750591230822
 30
0.0
  0
VERTEX
  5
1BB
  8
LAYER0
 10
79.61181996426541
 20
-93.18347595674953
 30
0.0
  0
VERTEX
  5
1BC
  8
LAYER0
 10
79.52324280995678
 20
-93.29710321125856
 30
0.0
  0
VERTEX
  5
1BD
  8
LAYER0
 10
79.44829291015719
 20
-93.41594088660926
 30
0.0
  0
VERTEX
  5
1BE
  8
LAYER0
 10
79.3869702648666
 20
-93.53998898280165
 30
0.0
  0
VERTEX
  5
1BF
  8
LAYER0
 10
79.33927487408504
 20
-93.6692474998357
 30
0.0
  0
VERTEX
  5
1C0
  8
LAYER0
 10
79.3052067378125
 20
-93.80371643771146
 30
0.0
  0
VERTEX
  5
1C1
  8
LAYER0
 10
79.28476585604898
 20
-93.9433957964289
 30
0.0
  0
SEQEND
  5
6AA
  8
LAYER0
  0
POLYLINE
  5
62
  8
LAYER0
 66
     1
 10
0.0
 20
0.0
 30
0.0
 70
     1
  0
VERTEX
  5
1C2
  8
LAYER0
 10
78.90600834101892
 20
-98.42976854191987
 30
0.0
  0
VERTEX
  5
1C3
  8
LAYER0
 10
78.92063759953595
 20
-98.67465832147899
 30
0.0
  0
VERTEX
  5
1C4
  8
LAYER0
 10
78.96452537508705
 20
-98.91554008500604
 30
0.0
  0
VERTEX
  5
1C5
  8
LAYER0
 10
79.03767166767221
 20
-99.15241383250104
 30
0.0
  0
VERTEX
  5
1C6
  8
LAYER0
 10
79.14007647729146
 20
-99.38527956396396
 30
0.0
  0
VERTEX
  5
1C7
  8
LAYER0
 10
79.20215062558808
 20
-99.49745391266136
 30
0.0
  0
VERTEX
  5
1C8
  8
LAYER0
 10
79.27133900234156
 20
-99.60311523530666
 30
0.0
  0
VERTEX
  5
1C9
  8
LAYER0
 10
79.34764160755199
 20
-99.70226353189983
 30
0.0
  0
VERTEX
  5
1CA
  8
LAYER0
 10
79.4310584412193
 20
-99.79489880244091
 30
0.0
  0
VERTEX
  5
1CB
  8
LAYER0
 10
79.52158950334356
 20
-99.88102104692989
 30
0.0
  0
VERTEX
  5
1CC
  8
LAYER0
 10
79.6192347939247
 20
-99.96063026536677
 30
0.0
  0
VERTEX
  5
1CD
  8
LAYER0
 10
79.72399431296279
 20
-100.0337264577515
 30
0.0
  0
VERTEX
  5
1CE
  8
LAYER0
 10
79.83586806045778
 20
-100.1003096240842
 30
0.0
  0
VERTEX
  5
1CF
  8
LAYER0
 10
79.95240112659005
 20
-100.1596783615592
 30
0.0
  0
VERTEX
  5
1D0
  8
LAYER0
 10
80.07113860153996
 20
-100.2111312673708
 30
0.0
  0
VERTEX
  5
1D1
  8
LAYER0
 10
80.19208048530749
 20
-100.2546683415191
 30
0.0
  0
VERTEX
  5
1D2
  8
LAYER0
 10
80.31522677789266
 20
-100.2902895840041
 30
0.0
  0
VERTEX
  5
1D3
  8
LAYER0
 10
80.44057747929546
 20
-100.3179949948257
 30
0.0
  0
VERTEX
  5
1D4
  8
LAYER0
 10
80.5681325895159
 20
-100.337784573984
 30
0.0
  0
VERTEX
  5
1D5
  8
LAYER0
 10
80.69789210855399
 20
-100.349658321479
 30
0.0
  0
VERTEX
  5
1D6
  8
LAYER0
 10
80.8298560364097
 20
-100.3536162373107
 30
0.0
  0
VERTEX
  5
1D7
  8
LAYER0
 10
81.03216064562812
 20
-100.3452996040441
 30
0.0
  0
VERTEX
  5
1D8
  8
LAYER0
 10
81.22544721877443
 20
-100.3203497042445
 30
0.0
  0
VERTEX
  5
1D9
  8
LAYER0
 10
81.40971575584857
 20
-100.2787665379118
 30
0.0
  0
VERTEX
  5
1DA
  8
LAYER0
 10
81.58496625685058
 20
-100.2205501050461
 30
0.0
  0
VERTEX
  5
1DB
  8
LAYER0
 10
81.75119872178043
 20
-100.1457004056473
 30
0.0
  0
VERTEX
  5
1DC
  8
LAYER0
 10
81.90841315063815
 20
-100.0542174397155
 30
0.0
  0
VERTEX
  5
1DD
  8
LAYER0
 10
82.05660954342372
 20
-99.94610120725052
 30
0.0
  0
VERTEX
  5
1DE
  8
LAYER0
 10
82.19578790013715
 20
-99.82135170825254
 30
0.0
  0
VERTEX
  5
1DF
  8
LAYER0
 10
82.32204040514718
 20
-99.68377655795193
 30
0.0
  0
VERTEX
  5
1E0
  8
LAYER0
 10
82.43145924282253
 20
-99.5371833715792
 30
0.0
  0
VERTEX
  5
1E1
  8
LAYER0
 10
82.52404441316321
 20
-99.38157214913431
 30
0.0
  0
VERTEX
  5
1E2
  8
LAYER0
 10
82.59979591616921
 20
-99.21694289061728
 30
0.0
  0
VERTEX
  5
1E3
  8
LAYER0
 10
82.65871375184057
 20
-99.04329559602809
 30
0.0
  0
VERTEX
  5
1E4
  8
LAYER0
 10
82.70079792017722
 20
-98.86063026536678
 30
0.0
  0
VERTEX
  5
1E5
  8
LAYER0
 10
82.72604842117923
 20
-98.6689468986333
 30
0.0
  0
VERTEX
  5
1E6
  8
LAYER0
 10
82.73446525484657
 20
-98.46824549582769
 30
0.0
  0
VERTEX
  5
1E7
  8
LAYER0
 10
82.72579792017723
 20
-98.26433768019643
 30
0.0
  0
VERTEX
  5
1E8
  8
LAYER0
 10
82.69979591616922
 20
-98.0694479006373
 30
0.0
  0
VERTEX
  5
1E9
  8
LAYER0
 10
82.65645924282254
 20
-97.88357615715034
 30
0.0
  0
VERTEX
  5
1EA
  8
LAYER0
 10
82.59578790013715
 20
-97.70672244973551
 30
0.0
  0
VERTEX
  5
1EB
  8
LAYER0
 10
82.5177818881131
 20
-97.53888677839282
 30
0.0
  0
VERTEX
  5
1EC
  8
LAYER0
 10
82.42244120675038
 20
-97.38006914312228
 30
0.0
  0
VERTEX
  5
1ED
  8
LAYER0
 10
82.30976585604898
 20
-97.2302695439239
 30
0.0
  0
VERTEX
  5
1EE
  8
LAYER0
 10
82.1797558360089
 20
-97.08948798079763
 30
0.0
  0
VERTEX
  5
1EF
  8
LAYER0
 10
82.0367197638646
 20
-96.96173246977558
 30
0.0
  0
VERTEX
  5
1F0
  8
LAYER0
 10
81.88496625685056
 20
-96.85101102688981
 30
0.0
  0
VERTEX
  5
1F1
  8
LAYER0
 10
81.72449531496682
 20
-96.75732365214031
 30
0.0
  0
VERTEX
  5
1F2
  8
LAYER0
 10
81.5553069382133
 20
-96.68067034552709
 30
0.0
  0
VERTEX
  5
1F3
  8
LAYER0
 10
81.37740112659006
 20
-96.62105110705014
 30
0.0
  0
VERTEX
  5
1F4
  8
LAYER0
 10
81.19077788009707
 20
-96.57846593670945
 30
0.0
  0
VERTEX
  5
1F5
  8
LAYER0
 10
80.99543719873435
 20
-96.55291483450505
 30
0.0
  0
VERTEX
  5
1F6
  8
LAYER0
 10
80.79137908250188
 20
-96.54439780043691
 30
0.0
  0
VERTEX
  5
1F7
  8
LAYER0
 10
80.59213058550787
 20
-96.55281463410424
 30
0.0
  0
VERTEX
  5
1F8
  8
LAYER0
 10
80.40159952338365
 20
-96.57806513510624
 30
0.0
  0
VERTEX
  5
1F9
  8
LAYER0
 10
80.21978589612914
 20
-96.62014930344291
 30
0.0
  0
VERTEX
  5
1FA
  8
LAYER0
 10
80.04668970374436
 20
-96.67906713911427
 30
0.0
  0
VERTEX
  5
1FB
  8
LAYER0
 10
79.88231094622932
 20
-96.75481864212028
 30
0.0
  0
VERTEX
  5
1FC
  8
LAYER0
 10
79.72664962358405
 20
-96.84740381246095
 30
0.0
  0
VERTEX
  5
1FD
  8
LAYER0
 10
79.57970573580849
 20
-96.9568226501363
 30
0.0
  0
VERTEX
  5
1FE
  8
LAYER0
 10
79.44147928290268
 20
-97.08307515514633
 30
0.0
  0
VERTEX
  5
1FF
  8
LAYER0
 10
79.31597828089868
 20
-97.22195291065735
 30
0.0
  0
VERTEX
  5
200
  8
LAYER0
 10
79.20721074582853
 20
-97.3692474998357
 30
0.0
  0
VERTEX
  5
201
  8
LAYER0
 10
79.11517667769226
 20
-97.52495892268139
 30
0.0
  0
VERTEX
  5
202
  8
LAYER0
 10
79.03987607648985
 20
-97.68908717919442
 30
0.0
  0
VERTEX
  5
203
  8
LAYER0
 10
78.98130894222132
 20
-97.86163226937478
 30
0.0
  0
VERTEX
  5
204
  8
LAYER0
 10
78.93947527488665
 20
-98.04259419322247
 30
0.0
  0
VERTEX
  5
205
  8
LAYER0
 10
78.91437507448586
 20
-98.2319729507375
 30
0.0
  0
SEQEND
  5
6AB
  8
LAYER0
  0
POLYLINE
  5
63
  8
LAYER0
 66
     1
 10
0.0
 20
0.0
 30
0.0
 70
     1
  0
VERTEX
  5
206
  8
LAYER0
 10
84.90841315063815
 20
-98.32075050584773
 30
0.0
  0
VERTEX
  5
207
  8
LAYER0
 10
84.90841315063815
 20
-97.16002906296195
 30
0.0
  0
VERTEX
  5
208
  8
LAYER0
 10
88.45470573580849
 20
-97.16002906296195
 30
0.0
  0
VERTEX
  5
209
  8
LAYER0
 10
88.45470573580849
 20
-98.32075050584773
 30
0.0
  0
SEQEND
  5
6AC
  8
LAYER0
  0
POLYLINE
  5
64
  8
LAYER0
 66
     1
 10
0.0
 20
0.0
 30
0.0
 70
     1
  0
VERTEX
  5
20A
  8
LAYER0
 10
95.47674982398485
 20
-100.0329749547455
 30
0.0
  0
VERTEX
  5
20B
  8
LAYER0
 10
95.47674982398485
 20
-101.1423937924209
 30
0.0
  0
VERTEX
  5
20C
  8
LAYER0
 10
89.26272176787262
 20
-101.1423937924209
 30
0.0
  0
VERTEX
  5
20D
  8
LAYER0
 10
89.26632898230147
 20
-100.9359809667696
 30
0.0
  0
VERTEX
  5
20E
  8
LAYER0
 10
89.28997627689066
 20
-100.7335761571503
 30
0.0
  0
VERTEX
  5
20F
  8
LAYER0
 10
89.33366365164017
 20
-100.5351793635632
 30
0.0
  0
VERTEX
  5
210
  8
LAYER0
 10
89.39739110654997
 20
-100.3407905860081
 30
0.0
  0
VERTEX
  5
211
  8
LAYER0
 10
89.4611686616602
 20
-100.1823737523407
 30
0.0
  0
VERTEX
  5
212
  8
LAYER0
 10
89.53386405244176
 20
-100.0245581210782
 30
0.0
  0
VERTEX
  5
213
  8
LAYER0
 10
89.61547727889466
 20
-99.86734369222047
 30
0.0
  0
VERTEX
  5
214
  8
LAYER0
 10
89.70600834101892
 20
-99.71073046576757
 30
0.0
  0
VERTEX
  5
215
  8
LAYER0
 10
89.80545723881451
 20
-99.55471844171946
 30
0.0
  0
VERTEX
  5
216
  8
LAYER0
 10
89.91382397228143
 20
-99.39930762007617
 30
0.0
  0
VERTEX
  5
217
  8
LAYER0
 10
90.15731094622933
 20
-99.09028958400404
 30
0.0
  0
VERTEX
  5
218
  8
LAYER0
 10
90.44769170775237
 20
-98.77044990464532
 30
0.0
  0
VERTEX
  5
219
  8
LAYER0
 10
90.79618870174036
 20
-98.42656212909422
 30
0.0
  0
VERTEX
  5
21A
  8
LAYER0
 10
91.20280192819325
 20
-98.05862625735074
 30
0.0
  0
VERTEX
  5
21B
  8
LAYER0
 10
91.6675313871111
 20
-97.66664228941487
 30
0.0
  0
VERTEX
  5
21C
  8
LAYER0
 10
92.03516665765217
 20
-97.36058016516635
 30
0.0
  0
VERTEX
  5
21D
  8
LAYER0
 10
92.37173980394476
 20
-97.07085070624852
 30
0.0
  0
VERTEX
  5
21E
  8
LAYER0
 10
92.67725082598885
 20
-96.79745391266135
 30
0.0
  0
VERTEX
  5
21F
  8
LAYER0
 10
92.95169972378444
 20
-96.54038978440485
 30
0.0
  0
VERTEX
  5
220
  8
LAYER0
 10
93.19508649733153
 20
-96.299658321479
 30
0.0
  0
VERTEX
  5
221
  8
LAYER0
 10
93.40741114663014
 20
-96.0752595238838
 30
0.0
  0
VERTEX
  5
222
  8
LAYER0
 10
93.58867367168023
 20
-95.86719339161928
 30
0.0
  0
VERTEX
  5
223
  8
LAYER0
 10
93.73887407248183
 20
-95.6754599246854
 30
0.0
  0
VERTEX
  5
224
  8
LAYER0
 10
93.86512657749186
 20
-95.49314529542687
 30
0.0
  0
VERTEX
  5
225
  8
LAYER0
 10
93.97454541516721
 20
-95.31333567618842
 30
0.0
  0
VERTEX
  5
226
  8
LAYER0
 10
94.0671305855079
 20
-95.13603106696996
 30
0.0
  0
VERTEX
  5
227
  8
LAYER0
 10
94.1428820885139
 20
-94.96123146777157
 30
0.0
  0
VERTEX
  5
228
  8
LAYER0
 10
94.20179992418525
 20
-94.7889368785932
 30
0.0
  0
VERTEX
  5
229
  8
LAYER0
 10
94.24388409252191
 20
-94.6191472994349
 30
0.0
  0
VERTEX
  5
22A
  8
LAYER0
 10
94.26913459352392
 20
-94.45186273029663
 30
0.0
  0
VERTEX
  5
22B
  8
LAYER0
 10
94.27755142719126
 20
-94.2870831711784
 30
0.0
  0
VERTEX
  5
22C
  8
LAYER0
 10
94.26988609652994
 20
-94.11889679843291
 30
0.0
  0
VERTEX
  5
22D
  8
LAYER0
 10
94.24689010454597
 20
-93.95742385254113
 30
0.0
  0
VERTEX
  5
22E
  8
LAYER0
 10
94.20856345123934
 20
-93.80266433350305
 30
0.0
  0
VERTEX
  5
22F
  8
LAYER0
 10
94.1549061366101
 20
-93.65461824131867
 30
0.0
  0
VERTEX
  5
230
  8
LAYER0
 10
94.0859181606582
 20
-93.51328557598801
 30
0.0
  0
VERTEX
  5
231
  8
LAYER0
 10
94.00159952338365
 20
-93.37866633751105
 30
0.0
  0
VERTEX
  5
232
  8
LAYER0
 10
93.90195022478645
 20
-93.2507605258878
 30
0.0
  0
VERTEX
  5
233
  8
LAYER0
 10
93.78697026486661
 20
-93.12956814111827
 30
0.0
  0
VERTEX
  5
234
  8
LAYER0
 10
93.65966565564818
 20
-93.01909719923452
 30
0.0
  0
VERTEX
  5
235
  8
LAYER0
 10
93.5230424091552
 20
-92.92335571626859
 30
0.0
  0
VERTEX
  5
236
  8
LAYER0
 10
93.37710052538766
 20
-92.84234369222048
 30
0.0
  0
VERTEX
  5
237
  8
LAYER0
 10
93.22184000434558
 20
-92.77606112709022
 30
0.0
  0
VERTEX
  5
238
  8
LAYER0
 10
93.05726084602894
 20
-92.7245080208778
 30
0.0
  0
VERTEX
  5
239
  8
LAYER0
 10
92.88336305043775
 20
-92.68768437358321
 30
0.0
  0
VERTEX
  5
23A
  8
LAYER0
 10
92.70014661757202
 20
-92.66559018520645
 30
0.0
  0
VERTEX
  5
23B
  8
LAYER0
 10
92.50761154743174
 20
-92.65822545574753
 30
0.0
  0
VERTEX
  5
23C
  8
LAYER0
 10
92.3044051346061
 20
-92.66604108701006
 30
0.0
  0
VERTEX
  5
23D
  8
LAYER0
 10
92.1116195634638
 20
-92.68948798079762
 30
0.0
  0
VERTEX
  5
23E
  8
LAYER0
 10
91.9292548340049
 20
-92.72856613711025
 30
0.0
  0
VERTEX
  5
23F
  8
LAYER0
 10
91.75731094622934
 20
-92.78327555594792
 30
0.0
  0
VERTEX
  5
240
  8
LAYER0
 10
91.59578790013717
 20
-92.85361623731065
 30
0.0
  0
VERTEX
  5
241
  8
LAYER0
 10
91.44468569572834
 20
-92.93958818119842
 30
0.0
  0
VERTEX
  5
242
  8
LAYER0
 10
91.3040043330029
 20
-93.04119138761125
 30
0.0
  0
VERTEX
  5
243
  8
LAYER0
 10
91.17374381196079
 20
-93.15842585654913
 30
0.0
  0
VERTEX
  5
244
  8
LAYER0
 10
91.0564091426221
 20
-93.28948798079763
 30
0.0
  0
VERTEX
  5
245
  8
LAYER0
 10
90.95450533500689
 20
-93.43257415314231
 30
0.0
  0
VERTEX
  5
246
  8
LAYER0
 10
90.8680323891151
 20
-93.58768437358319
 30
0.0
  0
VERTEX
  5
247
  8
LAYER0
 10
90.79699030494677
 20
-93.75481864212027
 30
0.0
  0
VERTEX
  5
248
  8
LAYER0
 10
90.74137908250188
 20
-93.93397695875353
 30
0.0
  0
VERTEX
  5
249
  8
LAYER0
 10
90.70119872178046
 20
-94.12515932348299
 30
0.0
  0
VERTEX
  5
24A
  8
LAYER0
 10
90.67644922278245
 20
-94.32836573630865
 30
0.0
  0
VERTEX
  5
24B
  8
LAYER0
 10
90.66713058550789
 20
-94.5435961972305
 30
0.0
  0
VERTEX
  5
24C
  8
LAYER0
 10
89.4807578400169
 20
-94.42175250985575
 30
0.0
  0
VERTEX
  5
24D
  8
LAYER0
 10
89.52173980394477
 20
-94.09975852187978
 30
0.0
  0
VERTEX
  5
24E
  8
LAYER0
 10
89.58376385204096
 20
-93.79750401286176
 30
0.0
  0
VERTEX
  5
24F
  8
LAYER0
 10
89.6668299843055
 20
-93.51498898280164
 30
0.0
  0
VERTEX
  5
250
  8
LAYER0
 10
89.77093820073836
 20
-93.25221343169943
 30
0.0
  0
VERTEX
  5
251
  8
LAYER0
 10
89.89608850133956
 20
-93.00917735955512
 30
0.0
  0
VERTEX
  5
252
  8
LAYER0
 10
90.0422808861091
 20
-92.78588076636876
 30
0.0
  0
VERTEX
  5
253
  8
LAYER0
 10
90.20951535504697
 20
-92.5823236521403
 30
0.0
  0
VERTEX
  5
254
  8
LAYER0
 10
90.39779190815318
 20
-92.39850601686977
 30
0.0
  0
VERTEX
  5
255
  8
LAYER0
 10
90.6051065374117
 20
-92.23542986456516
 30
0.0
  0
VERTEX
  5
256
  8
LAYER0
 10
90.82945523480649
 20
-92.0940971992345
 30
0.0
  0
VERTEX
  5
257
  8
LAYER0
 10
91.07083800033755
 20
-91.97450802087778
 30
0.0
  0
VERTEX
  5
258
  8
LAYER0
 10
91.32925483400487
 20
-91.87666232949502
 30
0.0
  0
VERTEX
  5
259
  8
LAYER0
 10
91.60470573580848
 20
-91.8005601250862
 30
0.0
  0
VERTEX
  5
25A
  8
LAYER0
 10
91.89719070574836
 20
-91.74620140765133
 30
0.0
  0
VERTEX
  5
25B
  8
LAYER0
 10
92.20670974382452
 20
-91.71358617719041
 30
0.0
  0
VERTEX
  5
25C
  8
LAYER0
 10
92.53326285003695
 20
-91.70271443370343
 30
0.0
  0
VERTEX
  5
25D
  8
LAYER0
 10
92.86272176787261
 20
-91.71443788059722
 30
0.0
  0
VERTEX
  5
25E
  8
LAYER0
 10
93.17454541516722
 20
-91.74960822127858
 30
0.0
  0
VERTEX
  5
25F
  8
LAYER0
 10
93.46873379192073
 20
-91.80822545574753
 30
0.0
  0
VERTEX
  5
260
  8
LAYER0
 10
93.74528689813314
 20
-91.89028958400404
 30
0.0
  0
VERTEX
  5
261
  8
LAYER0
 10
94.0042047338045
 20
-91.99580060604814
 30
0.0
  0
VERTEX
  5
262
  8
LAYER0
 10
94.24548729893476
 20
-92.1247585218798
 30
0.0
  0
VERTEX
  5
263
  8
LAYER0
 10
94.46913459352393
 20
-92.27716333149904
 30
0.0
  0
VERTEX
  5
264
  8
LAYER0
 10
94.67514661757203
 20
-92.45301503490585
 30
0.0
  0
VERTEX
  5
265
  8
LAYER0
 10
94.86001635705098
 20
-92.64620140765135
 30
0.0
  0
VERTEX
  5
266
  8
LAYER0
 10
95.02023679793274
 20
-92.85061022528662
 30
0.0
  0
VERTEX
  5
267
  8
LAYER0
 10
95.15580794021731
 20
-93.06624148781167
 30
0.0
  0
VERTEX
  5
268
  8
LAYER0
 10
95.26672978390468
 20
-93.2930951952265
 30
0.0
  0
VERTEX
  5
269
  8
LAYER0
 10
95.35300232899486
 20
-93.5311713475311
 30
0.0
  0
VERTEX
  5
26A
  8
LAYER0
 10
95.41462557548785
 20
-93.7804699447255
 30
0.0
  0
VERTEX
  5
26B
  8
LAYER0
 10
95.45159952338363
 20
-94.04099098680966
 30
0.0
  0
VERTEX
  5
26C
  8
LAYER0
 10
95.46392417268224
 20
-94.3127344737836
 30
0.0
  0
VERTEX
  5
26D
  8
LAYER0
 10
95.44949531496681
 20
-94.5936963976313
 30
0.0
  0
VERTEX
  5
26E
  8
LAYER0
 10
95.40620874182052
 20
-94.87225351185975
 30
0.0
  0
VERTEX
  5
26F
  8
LAYER0
 10
95.33406445324337
 20
-95.14840581646897
 30
0.0
  0
VERTEX
  5
270
  8
LAYER0
 10
95.23306244923535
 20
-95.42215331145896
 30
0.0
  0
VERTEX
  5
271
  8
LAYER0
 10
95.17058749933554
 20
-95.55932766015636
 30
0.0
  0
VERTEX
  5
272
  8
LAYER0
 10
95.0985935113596
 20
-95.69830561606818
 30
0.0
  0
VERTEX
  5
273
  8
LAYER0
 10
94.92604842117923
 20
-95.9816723495351
 30
0.0
  0
VERTEX
  5
274
  8
LAYER0
 10
94.71542717869426
 20
-96.27225351185976
 30
0.0
  0
VERTEX
  5
275
  8
LAYER0
 10
94.46672978390468
 20
-96.57004910304212
 30
0.0
  0
VERTEX
  5
276
  8
LAYER0
 10
94.15470573580848
 20
-96.89950802087779
 30
0.0
  0
VERTEX
  5
277
  8
LAYER0
 10
93.75410453340368
 20
-97.28507916316235
 30
0.0
  0
VERTEX
  5
278
  8
LAYER0
 10
93.26492617669024
 20
-97.72676252989584
 30
0.0
  0
VERTEX
  5
279
  8
LAYER0
 10
92.6871706656682
 20
-98.22455812107819
 30
0.0
  0
VERTEX
  5
27A
  8
LAYER0
 10
91.83426485404497
 20
-98.9564218485331
 30
0.0
  0
VERTEX
  5
27B
  8
LAYER0
 10
91.54729090614919
 20
-99.21714329141889
 30
0.0
  0
VERTEX
  5
27C
  8
LAYER0
 10
91.35330293019727
 20
-99.40772445374353
 30
0.0
  0
VERTEX
  5
27D
  8
LAYER0
 10
91.21222076586862
 20
-99.56343587658921
 30
0.0
  0
VERTEX
  5
27E
  8
LAYER0
 10
91.08396425284256
 20
-99.7195481010381
 30
0.0
  0
VERTEX
  5
27F
  8
LAYER0
 10
90.96853339111912
 20
-99.87606112709022
 30
0.0
  0
VERTEX
  5
280
  8
LAYER0
 10
90.86592818069828
 20
-100.0329749547455
 30
0.0
  0
SEQEND
  5
6AD
  8
LAYER0
  0
POLYLINE
  5
65
  8
LAYER0
 66
     1
 10
0.0
 20
0.0
 30
0.0
 70
     1
  0
VERTEX
  5
281
  8
LAYER0
 10
102.7040043330029
 20
-94.0433957964289
 30
0.0
  0
VERTEX
  5
282
  8
LAYER0
 10
101.5561085414197
 20
-94.13317535554712
 30
0.0
  0
VERTEX
  5
283
  8
LAYER0
 10
101.47113860154
 20
-93.81654208901406
 30
0.0
  0
VERTEX
  5
284
  8
LAYER0
 10
101.422641607552
 20
-93.675660325487
 30
0.0
  0
VERTEX
  5
285
  8
LAYER0
 10
101.3701365975319
 20
-93.54640180845294
 30
0.0
  0
VERTEX
  5
286
  8
LAYER0
 10
101.3136235714798
 20
-93.42876653791186
 30
0.0
  0
VERTEX
  5
287
  8
LAYER0
 10
101.2531025293957
 20
-93.32275451386377
 30
0.0
  0
VERTEX
  5
288
  8
LAYER0
 10
101.1885734712794
 20
-93.22836573630865
 30
0.0
  0
VERTEX
  5
289
  8
LAYER0
 10
101.1200363971311
 20
-93.14560020524652
 30
0.0
  0
VERTEX
  5
28A
  8
LAYER0
 10
100.9995955153676
 20
-93.02986874232066
 30
0.0
  0
VERTEX
  5
28B
  8
LAYER0
 10
100.8723410063496
 20
-92.92956814111827
 30
0.0
  0
VERTEX
  5
28C
  8
LAYER0
 10
100.7382728700771
 20
-92.8446984016393
 30
0.0
  0
VERTEX
  5
28D
  8
LAYER0
 10
100.59739110655
 20
-92.7752595238838
 30
0.0
  0
VERTEX
  5
28E
  8
LAYER0
 10
100.4496957157684
 20
-92.72125150785175
 30
0.0
  0
VERTEX
  5
28F
  8
LAYER0
 10
100.2951866977323
 20
-92.68267435354313
 30
0.0
  0
VERTEX
  5
290
  8
LAYER0
 10
100.1338640524418
 20
-92.65952806095795
 30
0.0
  0
VERTEX
  5
291
  8
LAYER0
 10
99.96572777989668
 20
-92.65181263009623
 30
0.0
  0
VERTEX
  5
292
  8
LAYER0
 10
99.8299562368105
 20
-92.6566222493347
 30
0.0
  0
VERTEX
  5
293
  8
LAYER0
 10
99.69839311055799
 20
-92.67105110705013
 30
0.0
  0
VERTEX
  5
294
  8
LAYER0
 10
99.57103840113916
 20
-92.69509920324252
 30
0.0
  0
VERTEX
  5
295
  8
LAYER0
 10
99.44789210855399
 20
-92.72876653791187
 30
0.0
  0
VERTEX
  5
296
  8
LAYER0
 10
99.32895423280249
 20
-92.77205311105816
 30
0.0
  0
VERTEX
  5
297
  8
LAYER0
 10
99.21422477388465
 20
-92.82495892268139
 30
0.0
  0
VERTEX
  5
298
  8
LAYER0
 10
99.1037037318005
 20
-92.88748397278158
 30
0.0
  0
VERTEX
  5
299
  8
LAYER0
 10
98.99739110654998
 20
-92.95962826135874
 30
0.0
  0
VERTEX
  5
29A
  8
LAYER0
 10
98.86472577588867
 20
-93.06473848179962
 30
0.0
  0
VERTEX
  5
29B
  8
LAYER0
 10
98.73927487408505
 20
-93.18127154793189
 30
0.0
  0
VERTEX
  5
29C
  8
LAYER0
 10
98.62103840113917
 20
-93.30922745975555
 30
0.0
  0
VERTEX
  5
29D
  8
LAYER0
 10
98.51001635705099
 20
-93.44860621727057
 30
0.0
  0
VERTEX
  5
29E
  8
LAYER0
 10
98.40620874182054
 20
-93.59940782047698
 30
0.0
  0
VERTEX
  5
29F
  8
LAYER0
 10
98.30961555544778
 20
-93.76163226937476
 30
0.0
  0
VERTEX
  5
2A0
  8
LAYER0
 10
98.22023679793276
 20
-93.93527956396395
 30
0.0
  0
VERTEX
  5
2A1
  8
LAYER0
 10
98.13807246927543
 20
-94.12034970424452
 30
0.0
  0
VERTEX
  5
2A2
  8
LAYER0
 10
98.06422477388465
 20
-94.32125150785174
 30
0.0
  0
VERTEX
  5
2A3
  8
LAYER0
 10
97.99979591616922
 20
-94.54239379242088
 30
0.0
  0
VERTEX
  5
2A4
  8
LAYER0
 10
97.94478589612915
 20
-94.78377655795194
 30
0.0
  0
VERTEX
  5
2A5
  8
LAYER0
 10
97.89919471376442
 20
-95.04539980444493
 30
0.0
  0
VERTEX
  5
2A6
  8
LAYER0
 10
97.86302236907504
 20
-95.32726353189983
 30
0.0
  0
VERTEX
  5
2A7
  8
LAYER0
 10
97.836268862061
 20
-95.62936774031667
 30
0.0
  0
VERTEX
  5
2A8
  8
LAYER0
 10
97.81893419272232
 20
-95.95171242969542
 30
0.0
  0
VERTEX
  5
2A9
  8
LAYER0
 10
97.811018361059
 20
-96.2942976000361
 30
0.0
  0
VERTEX
  5
2AA
  8
LAYER0
 10
97.91813258951592
 20
-96.14069038560724
 30
0.0
  0
VERTEX
  5
2AB
  8
LAYER0
 10
98.03105844121933
 20
-95.99730361206015
 30
0.0
  0
VERTEX
  5
2AC
  8
LAYER0
 10
98.14979591616923
 20
-95.86413727939481
 30
0.0
  0
VERTEX
  5
2AD
  8
LAYER0
 10
98.27434501436562
 20
-95.74119138761125
 30
0.0
  0
VERTEX
  5
2AE
  8
LAYER0
 10
98.4047057358085
 20
-95.62846593670943
 30
0.0
  0
VERTEX
  5
2AF
  8
LAYER0
 10
98.54087808049788
 20
-95.52596092668941
 30
0.0
  0
VERTEX
  5
2B0
  8
LAYER0
 10
98.68286204843375
 20
-95.43367635755114
 30
0.0
  0
VERTEX
  5
2B1
  8
LAYER0
 10
98.83065763961612
 20
-95.35161222929462
 30
0.0
  0
VERTEX
  5
2B2
  8
LAYER0
 10
98.98226084602896
 20
-95.27946794071747
 30
0.0
  0
VERTEX
  5
2B3
  8
LAYER0
 10
99.1356676596562
 20
-95.21694289061726
 30
0.0
  0
VERTEX
  5
2B4
  8
LAYER0
 10
99.29087808049789
 20
-95.16403707899401
 30
0.0
  0
VERTEX
  5
2B5
  8
LAYER0
 10
99.44789210855399
 20
-95.12075050584772
 30
0.0
  0
VERTEX
  5
2B6
  8
LAYER0
 10
99.60670974382452
 20
-95.08708317117839
 30
0.0
  0
VERTEX
  5
2B7
  8
LAYER0
 10
99.7673309863095
 20
-95.063035074986
 30
0.0
  0
VERTEX
  5
2B8
  8
LAYER0
 10
99.9297558360089
 20
-95.04860621727059
 30
0.0
  0
VERTEX
  5
2B9
  8
LAYER0
 10
100.0939842929227
 20
-95.0437965980321
 30
0.0
  0
VERTEX
  5
2BA
  8
LAYER0
 10
100.3772007257885
 20
-95.05707315113831
 30
0.0
  0
VERTEX
  5
2BB
  8
LAYER0
 10
100.6496957157684
 20
-95.09690281045695
 30
0.0
  0
VERTEX
  5
2BC
  8
LAYER0
 10
100.9114692628626
 20
-95.163285575988
 30
0.0
  0
VERTEX
  5
2BD
  8
LAYER0
 10
101.162521367071
 20
-95.25622144773149
 30
0.0
  0
VERTEX
  5
2BE
  8
LAYER0
 10
101.4028520283937
 20
-95.3757104256874
 30
0.0
  0
VERTEX
  5
2BF
  8
LAYER0
 10
101.6324612468305
 20
-95.52175250985574
 30
0.0
  0
VERTEX
  5
2C0
  8
LAYER0
 10
101.8513490223817
 20
-95.6943477002365
 30
0.0
  0
VERTEX
  5
2C1
  8
LAYER0
 10
102.059515355047
 20
-95.8934959968297
 30
0.0
  0
VERTEX
  5
2C2
  8
LAYER0
 10
102.249645615568
 20
-96.11368637759122
 30
0.0
  0
VERTEX
  5
2C3
  8
LAYER0
 10
102.4144251746863
 20
-96.349407820477
 30
0.0
  0
VERTEX
  5
2C4
  8
LAYER0
 10
102.5538540324017
 20
-96.60066032548701
 30
0.0
  0
VERTEX
  5
2C5
  8
LAYER0
 10
102.6679321887143
 20
-96.86744389262128
 30
0.0
  0
VERTEX
  5
2C6
  8
LAYER0
 10
102.7566596436241
 20
-97.14975852187979
 30
0.0
  0
VERTEX
  5
2C7
  8
LAYER0
 10
102.8200363971311
 20
-97.44760421326257
 30
0.0
  0
VERTEX
  5
2C8
  8
LAYER0
 10
102.8580624492353
 20
-97.76098096676958
 30
0.0
  0
VERTEX
  5
2C9
  8
LAYER0
 10
102.8707377999368
 20
-98.08988878240083
 30
0.0
  0
VERTEX
  5
2CA
  8
LAYER0
 10
102.8647758760891
 20
-98.30917735955515
 30
0.0
  0
VERTEX
  5
2CB
  8
LAYER0
 10
102.846890104546
 20
-98.52455812107819
 30
0.0
  0
VERTEX
  5
2CC
  8
LAYER0
 10
102.8170804853075
 20
-98.73603106696999
 30
0.0
  0
VERTEX
  5
2CD
  8
LAYER0
 10
102.7753470183736
 20
-98.9435961972305
 30
0.0
  0
VERTEX
  5
2CE
  8
LAYER0
 10
102.7216897037444
 20
-99.14725351185976
 30
0.0
  0
VERTEX
  5
2CF
  8
LAYER0
 10
102.6561085414197
 20
-99.34700301085775
 30
0.0
  0
VERTEX
  5
2D0
  8
LAYER0
 10
102.5786035313997
 20
-99.54284469422448
 30
0.0
  0
VERTEX
  5
2D1
  8
LAYER0
 10
102.4891746736842
 20
-99.73477856195996
 30
0.0
  0
VERTEX
  5
2D2
  8
LAYER0
 10
102.3893249742855
 20
-99.9191973996353
 30
0.0
  0
VERTEX
  5
2D3
  8
LAYER0
 10
102.2805574392153
 20
-100.0924939928217
 30
0.0
  0
VERTEX
  5
2D4
  8
LAYER0
 10
102.1628720684738
 20
-100.2546683415191
 30
0.0
  0
VERTEX
  5
2D5
  8
LAYER0
 10
102.036268862061
 20
-100.4057204457275
 30
0.0
  0
VERTEX
  5
2D6
  8
LAYER0
 10
101.9007478199768
 20
-100.5456503054469
 30
0.0
  0
VERTEX
  5
2D7
  8
LAYER0
 10
101.7563089422213
 20
-100.6744579206774
 30
0.0
  0
VERTEX
  5
2D8
  8
LAYER0
 10
101.6029522287945
 20
-100.7921432914189
 30
0.0
  0
VERTEX
  5
2D9
  8
LAYER0
 10
101.4406776796963
 20
-100.8987064176714
 30
0.0
  0
VERTEX
  5
2DA
  8
LAYER0
 10
101.2711386015399
 20
-100.9933957964289
 30
0.0
  0
VERTEX
  5
2DB
  8
LAYER0
 10
101.0959883009388
 20
-101.0754599246854
 30
0.0
  0
VERTEX
  5
2DC
  8
LAYER0
 10
100.9152267778927
 20
-101.1448988024409
 30
0.0
  0
VERTEX
  5
2DD
  8
LAYER0
 10
100.7288540324017
 20
-101.2017124296954
 30
0.0
  0
VERTEX
  5
2DE
  8
LAYER0
 10
100.5368700644658
 20
-101.2459008064489
 30
0.0
  0
VERTEX
  5
2DF
  8
LAYER0
 10
100.339274874085
 20
-101.2774639327015
 30
0.0
  0
VERTEX
  5
2E0
  8
LAYER0
 10
100.1360684612594
 20
-101.296401808453
 30
0.0
  0
VERTEX
  5
2E1
  8
LAYER0
 10
99.92725082598886
 20
-101.3027144337034
 30
0.0
  0
VERTEX
  5
2E2
  8
LAYER0
 10
99.74896926286263
 20
-101.2985686421203
 30
0.0
  0
VERTEX
  5
2E3
  8
LAYER0
 10
99.57484601636963
 20
-101.2861312673708
 30
0.0
  0
VERTEX
  5
2E4
  8
LAYER0
 10
99.4048810865099
 20
-101.265402309455
 30
0.0
  0
VERTEX
  5
2E5
  8
LAYER0
 10
99.23907447328345
 20
-101.2363817683728
 30
0.0
  0
VERTEX
  5
2E6
  8
LAYER0
 10
99.07742617669028
 20
-101.1990696441243
 30
0.0
  0
VERTEX
  5
2E7
  8
LAYER0
 10
98.91993619673035
 20
-101.1534659367095
 30
0.0
  0
VERTEX
  5
2E8
  8
LAYER0
 10
98.7666045334037
 20
-101.0995706461283
 30
0.0
  0
VERTEX
  5
2E9
  8
LAYER0
 10
98.6174311867103
 20
-101.0373837723808
 30
0.0
  0
VERTEX
  5
2EA
  8
LAYER0
 10
98.4724161566502
 20
-100.966905315467
 30
0.0
  0
VERTEX
  5
2EB
  8
LAYER0
 10
98.33155944322336
 20
-100.8881352753868
 30
0.0
  0
VERTEX
  5
2EC
  8
LAYER0
 10
98.19486104642978
 20
-100.8010736521403
 30
0.0
  0
VERTEX
  5
2ED
  8
LAYER0
 10
98.06232096626944
 20
-100.7057204457275
 30
0.0
  0
VERTEX
  5
2EE
  8
LAYER0
 10
97.93393920274238
 20
-100.6020756561483
 30
0.0
  0
VERTEX
  5
2EF
  8
LAYER0
 10
97.8097157558486
 20
-100.4901392834028
 30
0.0
  0
VERTEX
  5
2F0
  8
LAYER0
 10
97.68965062558809
 20
-100.369911327491
 30
0.0
  0
VERTEX
  5
2F1
  8
LAYER0
 10
97.57374381196081
 20
-100.2413917884129
 30
0.0
  0
VERTEX
  5
2F2
  8
LAYER0
 10
97.46347327087864
 20
-100.1033532112585
 30
0.0
  0
VERTEX
  5
2F3
  8
LAYER0
 10
97.36031695825338
 20
-99.95456814111826
 30
0.0
  0
VERTEX
  5
2F4
  8
LAYER0
 10
97.26427487408506
 20
-99.79503657799201
 30
0.0
  0
VERTEX
  5
2F5
  8
LAYER0
 10
97.17534701837363
 20
-99.62475852187978
 30
0.0
  0
VERTEX
  5
2F6
  8
LAYER0
 10
97.09353339111912
 20
-99.44373397278159
 30
0.0
  0
VERTEX
  5
2F7
  8
LAYER0
 10
97.01883399232152
 20
-99.25196293069743
 30
0.0
  0
VERTEX
  5
2F8
  8
LAYER0
 10
96.95124882198084
 20
-99.04944539562729
 30
0.0
  0
VERTEX
  5
2F9
  8
LAYER0
 10
96.89077788009708
 20
-98.83618136757119
 30
0.0
  0
VERTEX
  5
2FA
  8
LAYER0
 10
96.83742116667023
 20
-98.6121708465291
 30
0.0
  0
VERTEX
  5
2FB
  8
LAYER0
 10
96.79117868170027
 20
-98.37741383250103
 30
0.0
  0
VERTEX
  5
2FC
  8
LAYER0
 10
96.75205042518726
 20
-98.13191032548701
 30
0.0
  0
VERTEX
  5
2FD
  8
LAYER0
 10
96.72003639713114
 20
-97.875660325487
 30
0.0
  0
VERTEX
  5
2FE
  8
LAYER0
 10
96.69513659753196
 20
-97.60866383250102
 30
0.0
  0
VERTEX
  5
2FF
  8
LAYER0
 10
96.67735102638966
 20
-97.33092084652908
 30
0.0
  0
VERTEX
  5
300
  8
LAYER0
 10
96.66312256947583
 20
-96.74319539562728
 30
0.0
  0
VERTEX
  5
301
  8
LAYER0
 10
96.66705543520729
 20
-96.40832565614832
 30
0.0
  0
VERTEX
  5
302
  8
LAYER0
 10
96.67885403240169
 20
-96.08507916316236
 30
0.0
  0
VERTEX
  5
303
  8
LAYER0
 10
96.698518361059
 20
-95.77345591666936
 30
0.0
  0
VERTEX
  5
304
  8
LAYER0
 10
96.72604842117924
 20
-95.47345591666937
 30
0.0
  0
VERTEX
  5
305
  8
LAYER0
 10
96.76144421276241
 20
-95.18507916316234
 30
0.0
  0
VERTEX
  5
306
  8
LAYER0
 10
96.80470573580851
 20
-94.90832565614832
 30
0.0
  0
VERTEX
  5
307
  8
LAYER0
 10
96.85583299031752
 20
-94.64319539562727
 30
0.0
  0
VERTEX
  5
308
  8
LAYER0
 10
96.91482597628946
 20
-94.38968838159923
 30
0.0
  0
VERTEX
  5
309
  8
LAYER0
 10
96.98168469372433
 20
-94.14780461406416
 30
0.0
  0
VERTEX
  5
30A
  8
LAYER0
 10
97.05640914262213
 20
-93.91754409302209
 30
0.0
  0
VERTEX
  5
30B
  8
LAYER0
 10
97.13899932298284
 20
-93.69890681847298
 30
0.0
  0
VERTEX
  5
30C
  8
LAYER0
 10
97.2294552348065
 20
-93.49189279041687
 30
0.0
  0
VERTEX
  5
30D
  8
LAYER0
 10
97.32777687809308
 20
-93.29650200885374
 30
0.0
  0
VERTEX
  5
30E
  8
LAYER0
 10
97.43396425284257
 20
-93.1127344737836
 30
0.0
  0
VERTEX
  5
30F
  8
LAYER0
 10
97.548017359055
 20
-92.94059018520645
 30
0.0
  0
VERTEX
  5
310
  8
LAYER0
 10
97.66993619673035
 20
-92.78006914312228
 30
0.0
  0
VERTEX
  5
311
  8
LAYER0
 10
97.78213559552793
 20
-92.64960822127858
 30
0.0
  0
VERTEX
  5
312
  8
LAYER0
 10
97.89909451336361
 20
-92.52756413310223
 30
0.0
  0
VERTEX
  5
313
  8
LAYER0
 10
98.02081295023736
 20
-92.41393687859322
 30
0.0
  0
VERTEX
  5
314
  8
LAYER0
 10
98.14729090614918
 20
-92.30872645775153
 30
0.0
  0
VERTEX
  5
315
  8
LAYER0
 10
98.27852838109908
 20
-92.21193287057719
 30
0.0
  0
VERTEX
  5
316
  8
LAYER0
 10
98.41452537508707
 20
-92.12355611707017
 30
0.0
  0
VERTEX
  5
317
  8
LAYER0
 10
98.55528188811311
 20
-92.04359619723049
 30
0.0
  0
VERTEX
  5
318
  8
LAYER0
 10
98.70079792017724
 20
-91.97205311105814
 30
0.0
  0
VERTEX
  5
319
  8
LAYER0
 10
98.85107347127945
 20
-91.90892685855314
 30
0.0
  0
VERTEX
  5
31A
  8
LAYER0
 10
99.00610854141974
 20
-91.85421743971546
 30
0.0
  0
VERTEX
  5
31B
  8
LAYER0
 10
99.16590313059808
 20
-91.80792485454512
 30
0.0
  0
VERTEX
  5
31C
  8
LAYER0
 10
99.33045723881452
 20
-91.77004910304211
 30
0.0
  0
VERTEX
  5
31D
  8
LAYER0
 10
99.49977086606904
 20
-91.74059018520644
 30
0.0
  0
VERTEX
  5
31E
  8
LAYER0
 10
99.67384401236163
 20
-91.7195481010381
 30
0.0
  0
VERTEX
  5
31F
  8
LAYER0
 10
99.85267667769227
 20
-91.7069228505371
 30
0.0
  0
VERTEX
  5
320
  8
LAYER0
 10
100.036268862061
 20
-91.70271443370343
 30
0.0
  0
VERTEX
  5
321
  8
LAYER0
 10
100.3073610464297
 20
-91.71243387258119
 30
0.0
  0
VERTEX
  5
322
  8
LAYER0
 10
100.5659281806983
 20
-91.74159218921446
 30
0.0
  0
VERTEX
  5
323
  8
LAYER0
 10
100.8119702648666
 20
-91.79018938360323
 30
0.0
  0
VERTEX
  5
324
  8
LAYER0
 10
101.0454872989347
 20
-91.85822545574753
 30
0.0
  0
VERTEX
  5
325
  8
LAYER0
 10
101.2664792829027
 20
-91.94570040564733
 30
0.0
  0
VERTEX
  5
326
  8
LAYER0
 10
101.4749462167704
 20
-92.05261423330265
 30
0.0
  0
VERTEX
  5
327
  8
LAYER0
 10
101.670888100538
 20
-92.17896693871347
 30
0.0
  0
VERTEX
  5
328
  8
LAYER0
 10
101.8543049342053
 20
-92.3247585218798
 30
0.0
  0
VERTEX
  5
329
  8
LAYER0
 10
102.0225915073516
 20
-92.4876843735832
 30
0.0
  0
VERTEX
  5
32A
  8
LAYER0
 10
102.173142609556
 20
-92.66543988460525
 30
0.0
  0
VERTEX
  5
32B
  8
LAYER0
 10
102.3059582408185
 20
-92.85802505494593
 30
0.0
  0
VERTEX
  5
32C
  8
LAYER0
 10
102.4210384011392
 20
-93.06543988460524
 30
0.0
  0
VERTEX
  5
32D
  8
LAYER0
 10
102.5183830905179
 20
-93.2876843735832
 30
0.0
  0
VERTEX
  5
32E
  8
LAYER0
 10
102.5979923089548
 20
-93.5247585218798
 30
0.0
  0
VERTEX
  5
32F
  8
LAYER0
 10
102.6598660564498
 20
-93.77666232949504
 30
0.0
  0
SEQEND
  5
6AE
  8
LAYER0
  0
POLYLINE
  5
66
  8
LAYER0
 66
     1
 10
0.0
 20
0.0
 30
0.0
 70
     1
  0
VERTEX
  5
330
  8
LAYER0
 10
97.99057747929548
 20
-98.09630160805214
 30
0.0
  0
VERTEX
  5
331
  8
LAYER0
 10
97.99453539512714
 20
-98.24459820123852
 30
0.0
  0
VERTEX
  5
332
  8
LAYER0
 10
98.00640914262215
 20
-98.39129158801207
 30
0.0
  0
VERTEX
  5
333
  8
LAYER0
 10
98.02619872178046
 20
-98.53638176837279
 30
0.0
  0
VERTEX
  5
334
  8
LAYER0
 10
98.0539041326021
 20
-98.67986874232068
 30
0.0
  0
VERTEX
  5
335
  8
LAYER0
 10
98.08952537508706
 20
-98.82175250985576
 30
0.0
  0
VERTEX
  5
336
  8
LAYER0
 10
98.13306244923535
 20
-98.962033070978
 30
0.0
  0
VERTEX
  5
337
  8
LAYER0
 10
98.18451535504697
 20
-99.10071042568741
 30
0.0
  0
VERTEX
  5
338
  8
LAYER0
 10
98.24388409252192
 20
-99.237784573984
 30
0.0
  0
VERTEX
  5
339
  8
LAYER0
 10
98.31036705845379
 20
-99.36999900284171
 30
0.0
  0
VERTEX
  5
33A
  8
LAYER0
 10
98.38316264963616
 20
-99.49409719923449
 30
0.0
  0
VERTEX
  5
33B
  8
LAYER0
 10
98.46227086606902
 20
-99.61007916316234
 30
0.0
  0
VERTEX
  5
33C
  8
LAYER0
 10
98.54769170775239
 20
-99.71794489462528
 30
0.0
  0
VERTEX
  5
33D
  8
LAYER0
 10
98.63942517468627
 20
-99.81769439362327
 30
0.0
  0
VERTEX
  5
33E
  8
LAYER0
 10
98.73747126687064
 20
-99.90932766015634
 30
0.0
  0
VERTEX
  5
33F
  8
LAYER0
 10
98.84182998430549
 20
-99.99284469422447
 30
0.0
  0
VERTEX
  5
340
  8
LAYER0
 10
98.95250132699087
 20
-100.0682454958277
 30
0.0
  0
VERTEX
  5
341
  8
LAYER0
 10
99.0670303851071
 20
-100.1351292633628
 30
0.0
  0
VERTEX
  5
342
  8
LAYER0
 10
99.18296224883457
 20
-100.1930951952265
 30
0.0
  0
VERTEX
  5
343
  8
LAYER0
 10
99.30029691817325
 20
-100.2421432914189
 30
0.0
  0
VERTEX
  5
344
  8
LAYER0
 10
99.41903439312314
 20
-100.2822735519399
 30
0.0
  0
VERTEX
  5
345
  8
LAYER0
 10
99.53917467368427
 20
-100.3134859767896
 30
0.0
  0
VERTEX
  5
346
  8
LAYER0
 10
99.66071775985661
 20
-100.335780565968
 30
0.0
  0
VERTEX
  5
347
  8
LAYER0
 10
99.78366365164017
 20
-100.349157319475
 30
0.0
  0
VERTEX
  5
348
  8
LAYER0
 10
99.90801234903495
 20
-100.3536162373107
 30
0.0
  0
VERTEX
  5
349
  8
LAYER0
 10
100.0875714672714
 20
-100.3443978004369
 30
0.0
  0
VERTEX
  5
34A
  8
LAYER0
 10
100.2607177598566
 20
-100.3167424898157
 30
0.0
  0
VERTEX
  5
34B
  8
LAYER0
 10
100.4274512267905
 20
-100.2706503054469
 30
0.0
  0
VERTEX
  5
34C
  8
LAYER0
 10
100.587771868073
 20
-100.2061212473307
 30
0.0
  0
VERTEX
  5
34D
  8
LAYER0
 10
100.7416796837043
 20
-100.123155315467
 30
0.0
  0
VERTEX
  5
34E
  8
LAYER0
 10
100.8891746736843
 20
-100.0217525098557
 30
0.0
  0
VERTEX
  5
34F
  8
LAYER0
 10
101.0302568380129
 20
-99.90191283049703
 30
0.0
  0
VERTEX
  5
350
  8
LAYER0
 10
101.1649261766903
 20
-99.76363627739082
 30
0.0
  0
VERTEX
  5
351
  8
LAYER0
 10
101.2881726696762
 20
-99.60952806095796
 30
0.0
  0
VERTEX
  5
352
  8
LAYER0
 10
101.3949862969308
 20
-99.44219339161928
 30
0.0
  0
VERTEX
  5
353
  8
LAYER0
 10
101.4853670584538
 20
-99.26163226937479
 30
0.0
  0
VERTEX
  5
354
  8
LAYER0
 10
101.5593149542454
 20
-99.06784469422449
 30
0.0
  0
VERTEX
  5
355
  8
LAYER0
 10
101.6168299843055
 20
-98.86083066616838
 30
0.0
  0
VERTEX
  5
356
  8
LAYER0
 10
101.6579121486342
 20
-98.64059018520645
 30
0.0
  0
VERTEX
  5
357
  8
LAYER0
 10
101.6825614472314
 20
-98.4071232513387
 30
0.0
  0
VERTEX
  5
358
  8
LAYER0
 10
101.6907778800971
 20
-98.16042986456516
 30
0.0
  0
VERTEX
  5
359
  8
LAYER0
 10
101.6826616476321
 20
-97.92320541566737
 30
0.0
  0
VERTEX
  5
35A
  8
LAYER0
 10
101.6583129502374
 20
-97.69890681847298
 30
0.0
  0
VERTEX
  5
35B
  8
LAYER0
 10
101.6177317879127
 20
-97.48753407298199
 30
0.0
  0
VERTEX
  5
35C
  8
LAYER0
 10
101.5609181606582
 20
-97.28908717919441
 30
0.0
  0
VERTEX
  5
35D
  8
LAYER0
 10
101.4878720684738
 20
-97.10356613711025
 30
0.0
  0
VERTEX
  5
35E
  8
LAYER0
 10
101.3985935113596
 20
-96.9309709467295
 30
0.0
  0
VERTEX
  5
35F
  8
LAYER0
 10
101.2930824893155
 20
-96.77130160805214
 30
0.0
  0
VERTEX
  5
360
  8
LAYER0
 10
101.1713390023416
 20
-96.6245581210782
 30
0.0
  0
VERTEX
  5
361
  8
LAYER0
 10
101.037270866069
 20
-96.49304509502609
 30
0.0
  0
VERTEX
  5
362
  8
LAYER0
 10
100.8947858961292
 20
-96.37906713911426
 30
0.0
  0
VERTEX
  5
363
  8
LAYER0
 10
100.7438840925219
 20
-96.28262425334272
 30
0.0
  0
VERTEX
  5
364
  8
LAYER0
 10
100.5845654552474
 20
-96.20371643771145
 30
0.0
  0
VERTEX
  5
365
  8
LAYER0
 10
100.4168299843055
 20
-96.14234369222046
 30
0.0
  0
VERTEX
  5
366
  8
LAYER0
 10
100.2406776796963
 20
-96.09850601686976
 30
0.0
  0
VERTEX
  5
367
  8
LAYER0
 10
100.0561085414197
 20
-96.07220341165934
 30
0.0
  0
VERTEX
  5
368
  8
LAYER0
 10
99.86312256947583
 20
-96.06343587658921
 30
0.0
  0
VERTEX
  5
369
  8
LAYER0
 10
99.67123880194077
 20
-96.07220341165934
 30
0.0
  0
VERTEX
  5
36A
  8
LAYER0
 10
99.48676986406502
 20
-96.09850601686976
 30
0.0
  0
VERTEX
  5
36B
  8
LAYER0
 10
99.30971575584859
 20
-96.14234369222046
 30
0.0
  0
VERTEX
  5
36C
  8
LAYER0
 10
99.14007647729147
 20
-96.20371643771145
 30
0.0
  0
VERTEX
  5
36D
  8
LAYER0
 10
98.97785202839367
 20
-96.28262425334272
 30
0.0
  0
VERTEX
  5
36E
  8
LAYER0
 10
98.82304240915519
 20
-96.37906713911426
 30
0.0
  0
VERTEX
  5
36F
  8
LAYER0
 10
98.67564761957604
 20
-96.49304509502609
 30
0.0
  0
VERTEX
  5
370
  8
LAYER0
 10
98.5356676596562
 20
-96.6245581210782
 30
0.0
  0
VERTEX
  5
371
  8
LAYER0
 10
98.40791214863415
 20
-96.77029960404413
 30
0.0
  0
VERTEX
  5
372
  8
LAYER0
 10
98.29719070574838
 20
-96.92696293069743
 30
0.0
  0
VERTEX
  5
373
  8
LAYER0
 10
98.20350333099888
 20
-97.09454810103813
 30
0.0
  0
VERTEX
  5
374
  8
LAYER0
 10
98.12685002438566
 20
-97.27305511506617
 30
0.0
  0
VERTEX
  5
375
  8
LAYER0
 10
98.0672307859087
 20
-97.4624839727816
 30
0.0
  0
VERTEX
  5
376
  8
LAYER0
 10
98.02464561556803
 20
-97.66283467418441
 30
0.0
  0
VERTEX
  5
377
  8
LAYER0
 10
97.99909451336362
 20
-97.8741072192746
 30
0.0
  0
SEQEND
  5
6AF
  8
LAYER0
  0
POLYLINE
  5
67
  8
LAYER0
 66
     1
 10
0.0
 20
0.0
 30
0.0
 70
     1
  0
VERTEX
  5
378
  8
LAYER0
 10
103.8903770784939
 20
-98.32075050584773
 30
0.0
  0
VERTEX
  5
379
  8
LAYER0
 10
103.8903770784939
 20
-97.16002906296195
 30
0.0
  0
VERTEX
  5
37A
  8
LAYER0
 10
107.4366696636642
 20
-97.16002906296195
 30
0.0
  0
VERTEX
  5
37B
  8
LAYER0
 10
107.4366696636642
 20
-98.32075050584773
 30
0.0
  0
SEQEND
  5
6B0
  8
LAYER0
  0
POLYLINE
  5
68
  8
LAYER0
 66
     1
 10
0.0
 20
0.0
 30
0.0
 70
     1
  0
VERTEX
  5
37C
  8
LAYER0
 10
114.4587137518406
 20
-100.0329749547455
 30
0.0
  0
VERTEX
  5
37D
  8
LAYER0
 10
114.4587137518406
 20
-101.1423937924209
 30
0.0
  0
VERTEX
  5
37E
  8
LAYER0
 10
108.2446856957283
 20
-101.1423937924209
 30
0.0
  0
VERTEX
  5
37F
  8
LAYER0
 10
108.2482929101572
 20
-100.9359809667696
 30
0.0
  0
VERTEX
  5
380
  8
LAYER0
 10
108.2719402047464
 20
-100.7335761571503
 30
0.0
  0
VERTEX
  5
381
  8
LAYER0
 10
108.3156275794959
 20
-100.5351793635632
 30
0.0
  0
VERTEX
  5
382
  8
LAYER0
 10
108.3793550344057
 20
-100.3407905860081
 30
0.0
  0
VERTEX
  5
383
  8
LAYER0
 10
108.4431325895159
 20
-100.1823737523407
 30
0.0
  0
VERTEX
  5
384
  8
LAYER0
 10
108.5158279802975
 20
-100.0245581210782
 30
0.0
  0
VERTEX
  5
385
  8
LAYER0
 10
108.5974412067504
 20
-99.86734369222047
 30
0.0
  0
VERTEX
  5
386
  8
LAYER0
 10
108.6879722688746
 20
-99.71073046576757
 30
0.0
  0
VERTEX
  5
387
  8
LAYER0
 10
108.7874211666702
 20
-99.55471844171946
 30
0.0
  0
VERTEX
  5
388
  8
LAYER0
 10
108.8957879001372
 20
-99.39930762007617
 30
0.0
  0
VERTEX
  5
389
  8
LAYER0
 10
109.139274874085
 20
-99.09028958400404
 30
0.0
  0
VERTEX
  5
38A
  8
LAYER0
 10
109.4296556356081
 20
-98.77044990464532
 30
0.0
  0
VERTEX
  5
38B
  8
LAYER0
 10
109.7781526295961
 20
-98.42656212909422
 30
0.0
  0
VERTEX
  5
38C
  8
LAYER0
 10
110.184765856049
 20
-98.05862625735074
 30
0.0
  0
VERTEX
  5
38D
  8
LAYER0
 10
110.6494953149668
 20
-97.66664228941487
 30
0.0
  0
VERTEX
  5
38E
  8
LAYER0
 10
111.0171305855079
 20
-97.36058016516635
 30
0.0
  0
VERTEX
  5
38F
  8
LAYER0
 10
111.3537037318005
 20
-97.07085070624852
 30
0.0
  0
VERTEX
  5
390
  8
LAYER0
 10
111.6592147538446
 20
-96.79745391266135
 30
0.0
  0
VERTEX
  5
391
  8
LAYER0
 10
111.9336636516402
 20
-96.54038978440485
 30
0.0
  0
VERTEX
  5
392
  8
LAYER0
 10
112.1770504251872
 20
-96.299658321479
 30
0.0
  0
VERTEX
  5
393
  8
LAYER0
 10
112.3893750744859
 20
-96.0752595238838
 30
0.0
  0
VERTEX
  5
394
  8
LAYER0
 10
112.570637599536
 20
-95.86719339161928
 30
0.0
  0
VERTEX
  5
395
  8
LAYER0
 10
112.7208380003376
 20
-95.6754599246854
 30
0.0
  0
VERTEX
  5
396
  8
LAYER0
 10
112.8470905053476
 20
-95.49314529542687
 30
0.0
  0
VERTEX
  5
397
  8
LAYER0
 10
112.9565093430229
 20
-95.31333567618842
 30
0.0
  0
VERTEX
  5
398
  8
LAYER0
 10
113.0490945133636
 20
-95.13603106696996
 30
0.0
  0
VERTEX
  5
399
  8
LAYER0
 10
113.1248460163696
 20
-94.96123146777157
 30
0.0
  0
VERTEX
  5
39A
  8
LAYER0
 10
113.183763852041
 20
-94.7889368785932
 30
0.0
  0
VERTEX
  5
39B
  8
LAYER0
 10
113.2258480203776
 20
-94.6191472994349
 30
0.0
  0
VERTEX
  5
39C
  8
LAYER0
 10
113.2510985213796
 20
-94.45186273029663
 30
0.0
  0
VERTEX
  5
39D
  8
LAYER0
 10
113.259515355047
 20
-94.2870831711784
 30
0.0
  0
VERTEX
  5
39E
  8
LAYER0
 10
113.2518500243856
 20
-94.11889679843291
 30
0.0
  0
VERTEX
  5
39F
  8
LAYER0
 10
113.2288540324017
 20
-93.95742385254113
 30
0.0
  0
VERTEX
  5
3A0
  8
LAYER0
 10
113.1905273790951
 20
-93.80266433350305
 30
0.0
  0
VERTEX
  5
3A1
  8
LAYER0
 10
113.1368700644658
 20
-93.65461824131867
 30
0.0
  0
VERTEX
  5
3A2
  8
LAYER0
 10
113.0678820885139
 20
-93.51328557598801
 30
0.0
  0
VERTEX
  5
3A3
  8
LAYER0
 10
112.9835634512393
 20
-93.37866633751105
 30
0.0
  0
VERTEX
  5
3A4
  8
LAYER0
 10
112.8839141526422
 20
-93.2507605258878
 30
0.0
  0
VERTEX
  5
3A5
  8
LAYER0
 10
112.7689341927223
 20
-93.12956814111827
 30
0.0
  0
VERTEX
  5
3A6
  8
LAYER0
 10
112.6416295835039
 20
-93.01909719923452
 30
0.0
  0
VERTEX
  5
3A7
  8
LAYER0
 10
112.5050063370109
 20
-92.92335571626859
 30
0.0
  0
VERTEX
  5
3A8
  8
LAYER0
 10
112.3590644532434
 20
-92.84234369222048
 30
0.0
  0
VERTEX
  5
3A9
  8
LAYER0
 10
112.2038039322013
 20
-92.77606112709022
 30
0.0
  0
VERTEX
  5
3AA
  8
LAYER0
 10
112.0392247738846
 20
-92.7245080208778
 30
0.0
  0
VERTEX
  5
3AB
  8
LAYER0
 10
111.8653269782935
 20
-92.68768437358321
 30
0.0
  0
VERTEX
  5
3AC
  8
LAYER0
 10
111.6821105454277
 20
-92.66559018520645
 30
0.0
  0
VERTEX
  5
3AD
  8
LAYER0
 10
111.4895754752875
 20
-92.65822545574753
 30
0.0
  0
VERTEX
  5
3AE
  8
LAYER0
 10
111.2863690624618
 20
-92.66604108701006
 30
0.0
  0
VERTEX
  5
3AF
  8
LAYER0
 10
111.0935834913195
 20
-92.68948798079762
 30
0.0
  0
VERTEX
  5
3B0
  8
LAYER0
 10
110.9112187618606
 20
-92.72856613711025
 30
0.0
  0
VERTEX
  5
3B1
  8
LAYER0
 10
110.739274874085
 20
-92.78327555594792
 30
0.0
  0
VERTEX
  5
3B2
  8
LAYER0
 10
110.5777518279929
 20
-92.85361623731065
 30
0.0
  0
VERTEX
  5
3B3
  8
LAYER0
 10
110.426649623584
 20
-92.93958818119842
 30
0.0
  0
VERTEX
  5
3B4
  8
LAYER0
 10
110.2859682608586
 20
-93.04119138761125
 30
0.0
  0
VERTEX
  5
3B5
  8
LAYER0
 10
110.1557077398165
 20
-93.15842585654913
 30
0.0
  0
VERTEX
  5
3B6
  8
LAYER0
 10
110.0383730704778
 20
-93.28948798079763
 30
0.0
  0
VERTEX
  5
3B7
  8
LAYER0
 10
109.9364692628626
 20
-93.43257415314231
 30
0.0
  0
VERTEX
  5
3B8
  8
LAYER0
 10
109.8499963169708
 20
-93.58768437358319
 30
0.0
  0
VERTEX
  5
3B9
  8
LAYER0
 10
109.7789542328025
 20
-93.75481864212027
 30
0.0
  0
VERTEX
  5
3BA
  8
LAYER0
 10
109.7233430103576
 20
-93.93397695875353
 30
0.0
  0
VERTEX
  5
3BB
  8
LAYER0
 10
109.6831626496362
 20
-94.12515932348299
 30
0.0
  0
VERTEX
  5
3BC
  8
LAYER0
 10
109.6584131506382
 20
-94.32836573630865
 30
0.0
  0
VERTEX
  5
3BD
  8
LAYER0
 10
109.6490945133636
 20
-94.5435961972305
 30
0.0
  0
VERTEX
  5
3BE
  8
LAYER0
 10
108.4627217678726
 20
-94.42175250985575
 30
0.0
  0
VERTEX
  5
3BF
  8
LAYER0
 10
108.5037037318005
 20
-94.09975852187978
 30
0.0
  0
VERTEX
  5
3C0
  8
LAYER0
 10
108.5657277798967
 20
-93.79750401286176
 30
0.0
  0
VERTEX
  5
3C1
  8
LAYER0
 10
108.6487939121612
 20
-93.51498898280164
 30
0.0
  0
VERTEX
  5
3C2
  8
LAYER0
 10
108.7529021285941
 20
-93.25221343169943
 30
0.0
  0
VERTEX
  5
3C3
  8
LAYER0
 10
108.8780524291953
 20
-93.00917735955512
 30
0.0
  0
VERTEX
  5
3C4
  8
LAYER0
 10
109.0242448139648
 20
-92.78588076636876
 30
0.0
  0
VERTEX
  5
3C5
  8
LAYER0
 10
109.1914792829027
 20
-92.5823236521403
 30
0.0
  0
VERTEX
  5
3C6
  8
LAYER0
 10
109.3797558360089
 20
-92.39850601686977
 30
0.0
  0
VERTEX
  5
3C7
  8
LAYER0
 10
109.5870704652674
 20
-92.23542986456516
 30
0.0
  0
VERTEX
  5
3C8
  8
LAYER0
 10
109.8114191626622
 20
-92.0940971992345
 30
0.0
  0
VERTEX
  5
3C9
  8
LAYER0
 10
110.0528019281933
 20
-91.97450802087778
 30
0.0
  0
VERTEX
  5
3CA
  8
LAYER0
 10
110.3112187618606
 20
-91.87666232949502
 30
0.0
  0
VERTEX
  5
3CB
  8
LAYER0
 10
110.5866696636642
 20
-91.8005601250862
 30
0.0
  0
VERTEX
  5
3CC
  8
LAYER0
 10
110.8791546336041
 20
-91.74620140765133
 30
0.0
  0
VERTEX
  5
3CD
  8
LAYER0
 10
111.1886736716802
 20
-91.71358617719041
 30
0.0
  0
VERTEX
  5
3CE
  8
LAYER0
 10
111.5152267778927
 20
-91.70271443370343
 30
0.0
  0
VERTEX
  5
3CF
  8
LAYER0
 10
111.8446856957283
 20
-91.71443788059722
 30
0.0
  0
VERTEX
  5
3D0
  8
LAYER0
 10
112.1565093430229
 20
-91.74960822127858
 30
0.0
  0
VERTEX
  5
3D1
  8
LAYER0
 10
112.4506977197764
 20
-91.80822545574753
 30
0.0
  0
VERTEX
  5
3D2
  8
LAYER0
 10
112.7272508259889
 20
-91.89028958400404
 30
0.0
  0
VERTEX
  5
3D3
  8
LAYER0
 10
112.9861686616602
 20
-91.99580060604814
 30
0.0
  0
VERTEX
  5
3D4
  8
LAYER0
 10
113.2274512267905
 20
-92.1247585218798
 30
0.0
  0
VERTEX
  5
3D5
  8
LAYER0
 10
113.4510985213796
 20
-92.27716333149904
 30
0.0
  0
VERTEX
  5
3D6
  8
LAYER0
 10
113.6571105454277
 20
-92.45301503490585
 30
0.0
  0
VERTEX
  5
3D7
  8
LAYER0
 10
113.8419802849067
 20
-92.64620140765135
 30
0.0
  0
VERTEX
  5
3D8
  8
LAYER0
 10
114.0022007257885
 20
-92.85061022528662
 30
0.0
  0
VERTEX
  5
3D9
  8
LAYER0
 10
114.137771868073
 20
-93.06624148781167
 30
0.0
  0
VERTEX
  5
3DA
  8
LAYER0
 10
114.2486937117604
 20
-93.2930951952265
 30
0.0
  0
VERTEX
  5
3DB
  8
LAYER0
 10
114.3349662568506
 20
-93.5311713475311
 30
0.0
  0
VERTEX
  5
3DC
  8
LAYER0
 10
114.3965895033436
 20
-93.7804699447255
 30
0.0
  0
VERTEX
  5
3DD
  8
LAYER0
 10
114.4335634512394
 20
-94.04099098680966
 30
0.0
  0
VERTEX
  5
3DE
  8
LAYER0
 10
114.445888100538
 20
-94.3127344737836
 30
0.0
  0
VERTEX
  5
3DF
  8
LAYER0
 10
114.4314592428225
 20
-94.5936963976313
 30
0.0
  0
VERTEX
  5
3E0
  8
LAYER0
 10
114.3881726696762
 20
-94.87225351185975
 30
0.0
  0
VERTEX
  5
3E1
  8
LAYER0
 10
114.3160283810991
 20
-95.14840581646897
 30
0.0
  0
VERTEX
  5
3E2
  8
LAYER0
 10
114.2150263770911
 20
-95.42215331145896
 30
0.0
  0
VERTEX
  5
3E3
  8
LAYER0
 10
114.1525514271913
 20
-95.55932766015636
 30
0.0
  0
VERTEX
  5
3E4
  8
LAYER0
 10
114.0805574392153
 20
-95.69830561606818
 30
0.0
  0
VERTEX
  5
3E5
  8
LAYER0
 10
113.9080123490349
 20
-95.9816723495351
 30
0.0
  0
VERTEX
  5
3E6
  8
LAYER0
 10
113.69739110655
 20
-96.27225351185976
 30
0.0
  0
VERTEX
  5
3E7
  8
LAYER0
 10
113.4486937117604
 20
-96.57004910304212
 30
0.0
  0
VERTEX
  5
3E8
  8
LAYER0
 10
113.1366696636642
 20
-96.89950802087779
 30
0.0
  0
VERTEX
  5
3E9
  8
LAYER0
 10
112.7360684612594
 20
-97.28507916316235
 30
0.0
  0
VERTEX
  5
3EA
  8
LAYER0
 10
112.246890104546
 20
-97.72676252989584
 30
0.0
  0
VERTEX
  5
3EB
  8
LAYER0
 10
111.6691345935239
 20
-98.22455812107819
 30
0.0
  0
VERTEX
  5
3EC
  8
LAYER0
 10
110.8162287819007
 20
-98.9564218485331
 30
0.0
  0
VERTEX
  5
3ED
  8
LAYER0
 10
110.5292548340049
 20
-99.21714329141889
 30
0.0
  0
VERTEX
  5
3EE
  8
LAYER0
 10
110.335266858053
 20
-99.40772445374353
 30
0.0
  0
VERTEX
  5
3EF
  8
LAYER0
 10
110.1941846937243
 20
-99.56343587658921
 30
0.0
  0
VERTEX
  5
3F0
  8
LAYER0
 10
110.0659281806983
 20
-99.7195481010381
 30
0.0
  0
VERTEX
  5
3F1
  8
LAYER0
 10
109.9504973189748
 20
-99.87606112709022
 30
0.0
  0
VERTEX
  5
3F2
  8
LAYER0
 10
109.847892108554
 20
-100.0329749547455
 30
0.0
  0
SEQEND
  5
6B1
  8
LAYER0
  0
POLYLINE
  5
69
  8
LAYER0
 66
     1
 10
0.0
 20
0.0
 30
0.0
 70
     1
  0
VERTEX
  5
3F3
  8
LAYER0
 10
119.3965895033436
 20
-101.1423937924209
 30
0.0
  0
VERTEX
  5
3F4
  8
LAYER0
 10
119.3965895033436
 20
-98.89149198881366
 30
0.0
  0
VERTEX
  5
3F5
  8
LAYER0
 10
115.3180323891151
 20
-98.89149198881366
 30
0.0
  0
VERTEX
  5
3F6
  8
LAYER0
 10
115.3180323891151
 20
-97.83337575634873
 30
0.0
  0
VERTEX
  5
3F7
  8
LAYER0
 10
119.6082127498366
 20
-91.74119138761125
 30
0.0
  0
VERTEX
  5
3F8
  8
LAYER0
 10
120.5508981205781
 20
-91.74119138761125
 30
0.0
  0
VERTEX
  5
3F9
  8
LAYER0
 10
120.5508981205781
 20
-97.83337575634873
 30
0.0
  0
VERTEX
  5
3FA
  8
LAYER0
 10
121.820637599536
 20
-97.83337575634873
 30
0.0
  0
VERTEX
  5
3FB
  8
LAYER0
 10
121.820637599536
 20
-98.89149198881366
 30
0.0
  0
VERTEX
  5
3FC
  8
LAYER0
 10
120.5508981205781
 20
-98.89149198881366
 30
0.0
  0
VERTEX
  5
3FD
  8
LAYER0
 10
120.5508981205781
 20
-101.1423937924209
 30
0.0
  0
SEQEND
  5
6B2
  8
LAYER0
  0
POLYLINE
  5
6A
  8
LAYER0
 66
     1
 10
0.0
 20
0.0
 30
0.0
 70
     1
  0
VERTEX
  5
3FE
  8
LAYER0
 10
119.3965895033436
 20
-97.83337575634873
 30
0.0
  0
VERTEX
  5
3FF
  8
LAYER0
 10
119.3965895033436
 20
-93.5944980008377
 30
0.0
  0
VERTEX
  5
400
  8
LAYER0
 10
116.4531025293957
 20
-97.83337575634873
 30
0.0
  0
SEQEND
  5
6B3
  8
LAYER0
  0
POLYLINE
  5
6B
  8
LAYER0
 66
     1
 10
0.0
 20
0.0
 30
0.0
 70
     1
  0
VERTEX
  5
401
  8
LAYER0
 10
-67.68393439902333
 20
-56.56518005892006
 30
0.0
  0
VERTEX
  5
402
  8
LAYER0
 10
-97.18393439902019
 20
-56.56518005891886
 30
0.0
 42
0.4142141797748344
  0
VERTEX
  5
403
  8
LAYER0
 10
-99.68393439902066
 20
-59.06518532877816
 30
0.0
  0
VERTEX
  5
404
  8
LAYER0
 10
-99.68393439902296
 20
-74.0651964367524
 30
0.0
 42
0.4152741477298926
  0
VERTEX
  5
405
  8
LAYER0
 10
-97.17488515222959
 20
-76.56518005892025
 30
0.0
  0
VERTEX
  5
406
  8
LAYER0
 10
-67.68393439902333
 20
-76.56518005892025
 30
0.0
  0
SEQEND
  5
6B4
  8
LAYER0
  0
POLYLINE
  5
6C
  8
LAYER0
 66
     1
 10
0.0
 20
0.0
 30
0.0
 70
     1
  0
VERTEX
  5
407
  8
LAYER0
 10
-94.3494416046873
 20
-72.40114744091919
 30
0.0
  0
VERTEX
  5
408
  8
LAYER0
 10
-73.3494416046873
 20
-72.40114744091919
 30
0.0
  0
VERTEX
  5
409
  8
LAYER0
 10
-73.3494416046873
 20
-60.40114744091904
 30
0.0
  0
VERTEX
  5
40A
  8
LAYER0
 10
-94.3494416046873
 20
-60.40114744091904
 30
0.0
  0
SEQEND
  5
6B5
  8
LAYER0
  0
POLYLINE
  5
6D
  8
LAYER0
 66
     1
 10
0.0
 20
0.0
 30
0.0
 70
     1
  0
VERTEX
  5
40B
  8
LAYER0
 10
-67.68393439902333
 20
-56.56518005892006
 30
0.0
  0
VERTEX
  5
40C
  8
LAYER0
 10
-97.18393439902019
 20
-56.56518005891886
 30
0.0
 42
0.4142141797748344
  0
VERTEX
  5
40D
  8
LAYER0
 10
-99.68393439902066
 20
-59.06518532877816
 30
0.0
  0
VERTEX
  5
40E
  8
LAYER0
 10
-99.68393439902296
 20
-74.0651964367524
 30
0.0
 42
0.4152741477298926
  0
VERTEX
  5
40F
  8
LAYER0
 10
-97.17488515222959
 20
-76.56518005892025
 30
0.0
  0
VERTEX
  5
410
  8
LAYER0
 10
-67.68393439902333
 20
-76.56518005892025
 30
0.0
  0
SEQEND
  5
6B6
  8
LAYER0
  0
POLYLINE
  5
6E
  8
LAYER0
 66
     1
 10
0.0
 20
0.0
 30
0.0
 70
     1
  0
VERTEX
  5
411
  8
LAYER0
 10
-94.3494416046873
 20
-72.40114744091919
 30
0.0
  0
VERTEX
  5
412
  8
LAYER0
 10
-73.3494416046873
 20
-72.40114744091919
 30
0.0
  0
VERTEX
  5
413
  8
LAYER0
 10
-73.3494416046873
 20
-60.40114744091904
 30
0.0
  0
VERTEX
  5
414
  8
LAYER0
 10
-94.3494416046873
 20
-60.40114744091904
 30
0.0
  0
SEQEND
  5
6B7
  8
LAYER0
  0
POLYLINE
  5
6F
  8
LAYER0
 66
     1
 10
0.0
 20
0.0
 30
0.0
 70
     1
  0
VERTEX
  5
415
  8
LAYER0
 10
-27.29305809946807
 20
-56.56518005891886
 30
0.0
  0
VERTEX
  5
416
  8
LAYER0
 10
-56.793058099468
 20
-56.56518005891886
 30
0.0
 42
0.4142135623730837
  0
VERTEX
  5
417
  8
LAYER0
 10
-59.29305809946801
 20
-59.06518005891888
 30
0.0
  0
VERTEX
  5
418
  8
LAYER0
 10
-59.29305809946801
 20
-74.06519568391901
 30
0.0
 42
0.4152494763207579
  0
VERTEX
  5
419
  8
LAYER0
 10
-56.78421927879603
 20
-76.56518005891905
 30
0.0
  0
VERTEX
  5
41A
  8
LAYER0
 10
-27.29305809946807
 20
-76.56518005891905
 30
0.0
  0
SEQEND
  5
6B8
  8
LAYER0
  0
POLYLINE
  5
70
  8
LAYER0
 66
     1
 10
0.0
 20
0.0
 30
0.0
 70
     1
  0
VERTEX
  5
41B
  8
LAYER0
 10
-53.42464177457363
 20
-72.49215828971761
 30
0.0
  0
VERTEX
  5
41C
  8
LAYER0
 10
-32.42464177457367
 20
-72.49215828971761
 30
0.0
  0
VERTEX
  5
41D
  8
LAYER0
 10
-32.42464177457367
 20
-60.49215828971746
 30
0.0
  0
VERTEX
  5
41E
  8
LAYER0
 10
-53.42464177457363
 20
-60.49215828971746
 30
0.0
  0
SEQEND
  5
6B9
  8
LAYER0
  0
POLYLINE
  5
71
  8
LAYER0
 66
     1
 10
0.0
 20
0.0
 30
0.0
 70
     1
  0
VERTEX
  5
41F
  8
LAYER0
 10
-27.29305809946807
 20
-56.56518005891886
 30
0.0
  0
VERTEX
  5
420
  8
LAYER0
 10
-56.793058099468
 20
-56.56518005891886
 30
0.0
 42
0.4142135623730837
  0
VERTEX
  5
421
  8
LAYER0
 10
-59.29305809946801
 20
-59.06518005891888
 30
0.0
  0
VERTEX
  5
422
  8
LAYER0
 10
-59.29305809946801
 20
-74.06519568391901
 30
0.0
 42
0.4152494763207579
  0
VERTEX
  5
423
  8
LAYER0
 10
-56.78421927879603
 20
-76.56518005891905
 30
0.0
  0
VERTEX
  5
424
  8
LAYER0
 10
-27.29305809946807
 20
-76.56518005891905
 30
0.0
  0
SEQEND
  5
6BA
  8
LAYER0
  0
POLYLINE
  5
72
  8
LAYER0
 66
     1
 10
0.0
 20
0.0
 30
0.0
 70
     1
  0
VERTEX
  5
425
  8
LAYER0
 10
-53.42464177457363
 20
-72.49215828971761
 30
0.0
  0
VERTEX
  5
426
  8
LAYER0
 10
-32.42464177457367
 20
-72.49215828971761
 30
0.0
  0
VERTEX
  5
427
  8
LAYER0
 10
-32.42464177457367
 20
-60.49215828971746
 30
0.0
  0
VERTEX
  5
428
  8
LAYER0
 10
-53.42464177457363
 20
-60.49215828971746
 30
0.0
  0
SEQEND
  5
6BB
  8
LAYER0
  0
POLYLINE
  5
73
  8
LAYER0
 66
     1
 10
0.0
 20
0.0
 30
0.0
 70
     1
  0
VERTEX
  5
429
  8
LAYER0
 10
11.94379316295724
 20
-56.56518005892006
 30
0.0
  0
VERTEX
  5
42A
  8
LAYER0
 10
-17.55620683703963
 20
-56.56518005891886
 30
0.0
 42
0.4142141797748344
  0
VERTEX
  5
42B
  8
LAYER0
 10
-20.0562068370401
 20
-59.06518532877816
 30
0.0
  0
VERTEX
  5
42C
  8
LAYER0
 10
-20.0562068370424
 20
-74.0651964367524
 30
0.0
 42
0.4152741477298926
  0
VERTEX
  5
42D
  8
LAYER0
 10
-17.54715759024903
 20
-76.56518005892025
 30
0.0
  0
VERTEX
  5
42E
  8
LAYER0
 10
11.94379316295724
 20
-76.56518005892025
 30
0.0
  0
SEQEND
  5
6BC
  8
LAYER0
  0
POLYLINE
  5
74
  8
LAYER0
 66
     1
 10
0.0
 20
0.0
 30
0.0
 70
     1
  0
VERTEX
  5
42F
  8
LAYER0
 10
-14.72171404270674
 20
-72.40114744091919
 30
0.0
  0
VERTEX
  5
430
  8
LAYER0
 10
6.27828595729326
 20
-72.40114744091919
 30
0.0
  0
VERTEX
  5
431
  8
LAYER0
 10
6.27828595729326
 20
-60.40114744091904
 30
0.0
  0
VERTEX
  5
432
  8
LAYER0
 10
-14.72171404270674
 20
-60.40114744091904
 30
0.0
  0
SEQEND
  5
6BD
  8
LAYER0
  0
POLYLINE
  5
75
  8
LAYER0
 66
     1
 10
0.0
 20
0.0
 30
0.0
 70
     1
  0
VERTEX
  5
433
  8
LAYER0
 10
11.94379316295724
 20
-56.56518005892006
 30
0.0
  0
VERTEX
  5
434
  8
LAYER0
 10
-17.55620683703963
 20
-56.56518005891886
 30
0.0
 42
0.4142141797748344
  0
VERTEX
  5
435
  8
LAYER0
 10
-20.0562068370401
 20
-59.06518532877816
 30
0.0
  0
VERTEX
  5
436
  8
LAYER0
 10
-20.0562068370424
 20
-74.0651964367524
 30
0.0
 42
0.4152741477298926
  0
VERTEX
  5
437
  8
LAYER0
 10
-17.54715759024903
 20
-76.56518005892025
 30
0.0
  0
VERTEX
  5
438
  8
LAYER0
 10
11.94379316295724
 20
-76.56518005892025
 30
0.0
  0
SEQEND
  5
6BE
  8
LAYER0
  0
POLYLINE
  5
76
  8
LAYER0
 66
     1
 10
0.0
 20
0.0
 30
0.0
 70
     1
  0
VERTEX
  5
439
  8
LAYER0
 10
-14.72171404270674
 20
-72.40114744091919
 30
0.0
  0
VERTEX
  5
43A
  8
LAYER0
 10
6.27828595729326
 20
-72.40114744091919
 30
0.0
  0
VERTEX
  5
43B
  8
LAYER0
 10
6.27828595729326
 20
-60.40114744091904
 30
0.0
  0
VERTEX
  5
43C
  8
LAYER0
 10
-14.72171404270674
 20
-60.40114744091904
 30
0.0
  0
SEQEND
  5
6BF
  8
LAYER0
  0
POLYLINE
  5
77
  8
LAYER0
 66
     1
 10
0.0
 20
0.0
 30
0.0
 70
     1
  0
VERTEX
  5
43D
  8
LAYER0
 10
52.33466946251298
 20
-56.56518005891886
 30
0.0
  0
VERTEX
  5
43E
  8
LAYER0
 10
22.83466946251261
 20
-56.56518005891886
 30
0.0
 42
0.4142135623730837
  0
VERTEX
  5
43F
  8
LAYER0
 10
20.33466946251258
 20
-59.06518005891888
 30
0.0
  0
VERTEX
  5
440
  8
LAYER0
 10
20.33466946251258
 20
-74.06519568391901
 30
0.0
 42
0.4152494763207579
  0
VERTEX
  5
441
  8
LAYER0
 10
22.84350828318455
 20
-76.56518005891905
 30
0.0
  0
VERTEX
  5
442
  8
LAYER0
 10
52.33466946251298
 20
-76.56518005891905
 30
0.0
  0
SEQEND
  5
6C0
  8
LAYER0
  0
POLYLINE
  5
78
  8
LAYER0
 66
     1
 10
0.0
 20
0.0
 30
0.0
 70
     1
  0
VERTEX
  5
443
  8
LAYER0
 10
26.203085787407
 20
-72.49215828971761
 30
0.0
  0
VERTEX
  5
444
  8
LAYER0
 10
47.2030857874073
 20
-72.49215828971761
 30
0.0
  0
VERTEX
  5
445
  8
LAYER0
 10
47.2030857874073
 20
-60.49215828971746
 30
0.0
  0
VERTEX
  5
446
  8
LAYER0
 10
26.203085787407
 20
-60.49215828971746
 30
0.0
  0
SEQEND
  5
6C1
  8
LAYER0
  0
POLYLINE
  5
79
  8
LAYER0
 66
     1
 10
0.0
 20
0.0
 30
0.0
 70
     1
  0
VERTEX
  5
447
  8
LAYER0
 10
52.33466946251298
 20
-56.56518005891886
 30
0.0
  0
VERTEX
  5
448
  8
LAYER0
 10
22.83466946251261
 20
-56.56518005891886
 30
0.0
 42
0.4142135623730837
  0
VERTEX
  5
449
  8
LAYER0
 10
20.33466946251258
 20
-59.06518005891888
 30
0.0
  0
VERTEX
  5
44A
  8
LAYER0
 10
20.33466946251258
 20
-74.06519568391901
 30
0.0
 42
0.4152494763207579
  0
VERTEX
  5
44B
  8
LAYER0
 10
22.84350828318455
 20
-76.56518005891905
 30
0.0
  0
VERTEX
  5
44C
  8
LAYER0
 10
52.33466946251298
 20
-76.56518005891905
 30
0.0
  0
SEQEND
  5
6C2
  8
LAYER0
  0
POLYLINE
  5
7A
  8
LAYER0
 66
     1
 10
0.0
 20
0.0
 30
0.0
 70
     1
  0
VERTEX
  5
44D
  8
LAYER0
 10
26.203085787407
 20
-72.49215828971761
 30
0.0
  0
VERTEX
  5
44E
  8
LAYER0
 10
47.2030857874073
 20
-72.49215828971761
 30
0.0
  0
VERTEX
  5
44F
  8
LAYER0
 10
47.2030857874073
 20
-60.49215828971746
 30
0.0
  0
VERTEX
  5
450
  8
LAYER0
 10
26.203085787407
 20
-60.49215828971746
 30
0.0
  0
SEQEND
  5
6C3
  8
LAYER0
  0
POLYLINE
  5
7B
  8
LAYER0
 66
     1
 10
0.0
 20
0.0
 30
0.0
 70
     1
  0
VERTEX
  5
451
  8
LAYER0
 10
93.09548008185885
 20
-56.56518005891886
 30
0.0
  0
VERTEX
  5
452
  8
LAYER0
 10
63.59548008185851
 20
-56.56518005891886
 30
0.0
 42
0.4142135623730837
  0
VERTEX
  5
453
  8
LAYER0
 10
61.09548008185848
 20
-59.06518005891888
 30
0.0
  0
VERTEX
  5
454
  8
LAYER0
 10
61.09548008185848
 20
-74.06519568391901
 30
0.0
 42
0.4152494763207579
  0
VERTEX
  5
455
  8
LAYER0
 10
63.60431890253045
 20
-76.56518005891905
 30
0.0
  0
VERTEX
  5
456
  8
LAYER0
 10
93.09548008185885
 20
-76.56518005891905
 30
0.0
  0
SEQEND
  5
6C4
  8
LAYER0
  0
POLYLINE
  5
7C
  8
LAYER0
 66
     1
 10
0.0
 20
0.0
 30
0.0
 70
     1
  0
VERTEX
  5
457
  8
LAYER0
 10
66.9638964067529
 20
-72.49215828971761
 30
0.0
  0
VERTEX
  5
458
  8
LAYER0
 10
87.96389640675318
 20
-72.49215828971761
 30
0.0
  0
VERTEX
  5
459
  8
LAYER0
 10
87.96389640675318
 20
-60.49215828971746
 30
0.0
  0
VERTEX
  5
45A
  8
LAYER0
 10
66.9638964067529
 20
-60.49215828971746
 30
0.0
  0
SEQEND
  5
6C5
  8
LAYER0
  0
POLYLINE
  5
7D
  8
LAYER0
 66
     1
 10
0.0
 20
0.0
 30
0.0
 70
     1
  0
VERTEX
  5
45B
  8
LAYER0
 10
93.09548008185885
 20
-56.56518005891886
 30
0.0
  0
VERTEX
  5
45C
  8
LAYER0
 10
63.59548008185851
 20
-56.56518005891886
 30
0.0
 42
0.4142135623730837
  0
VERTEX
  5
45D
  8
LAYER0
 10
61.09548008185848
 20
-59.06518005891888
 30
0.0
  0
VERTEX
  5
45E
  8
LAYER0
 10
61.09548008185848
 20
-74.06519568391901
 30
0.0
 42
0.4152494763207579
  0
VERTEX
  5
45F
  8
LAYER0
 10
63.60431890253045
 20
-76.56518005891905
 30
0.0
  0
VERTEX
  5
460
  8
LAYER0
 10
93.09548008185885
 20
-76.56518005891905
 30
0.0
  0
SEQEND
  5
6C6
  8
LAYER0
  0
POLYLINE
  5
7E
  8
LAYER0
 66
     1
 10
0.0
 20
0.0
 30
0.0
 70
     1
  0
VERTEX
  5
461
  8
LAYER0
 10
66.9638964067529
 20
-72.49215828971761
 30
0.0
  0
VERTEX
  5
462
  8
LAYER0
 10
87.96389640675318
 20
-72.49215828971761
 30
0.0
  0
VERTEX
  5
463
  8
LAYER0
 10
87.96389640675318
 20
-60.49215828971746
 30
0.0
  0
VERTEX
  5
464
  8
LAYER0
 10
66.9638964067529
 20
-60.49215828971746
 30
0.0
  0
SEQEND
  5
6C7
  8
LAYER0
  0
POLYLINE
  5
7F
  8
LAYER0
 66
     1
 10
0.0
 20
0.0
 30
0.0
 70
     1
  0
VERTEX
  5
465
  8
LAYER0
 10
67.2803000229398
 20
-86.4564411797725
 30
0.0
  0
VERTEX
  5
466
  8
LAYER0
 10
37.78030002293946
 20
-86.4564411797725
 30
0.0
 42
0.4142135623730837
  0
VERTEX
  5
467
  8
LAYER0
 10
35.28030002293943
 20
-88.95644117977253
 30
0.0
  0
VERTEX
  5
468
  8
LAYER0
 10
35.28030002293943
 20
-103.9564568047727
 30
0.0
 42
0.4152494763207579
  0
VERTEX
  5
469
  8
LAYER0
 10
37.7891388436114
 20
-106.4564411797727
 30
0.0
  0
VERTEX
  5
46A
  8
LAYER0
 10
67.2803000229398
 20
-106.4564411797727
 30
0.0
  0
SEQEND
  5
6C8
  8
LAYER0
  0
POLYLINE
  5
80
  8
LAYER0
 66
     1
 10
0.0
 20
0.0
 30
0.0
 70
     1
  0
VERTEX
  5
46B
  8
LAYER0
 10
41.14871634783384
 20
-102.3834194105712
 30
0.0
  0
VERTEX
  5
46C
  8
LAYER0
 10
62.14871634783412
 20
-102.3834194105712
 30
0.0
  0
VERTEX
  5
46D
  8
LAYER0
 10
62.14871634783412
 20
-90.3834194105711
 30
0.0
  0
VERTEX
  5
46E
  8
LAYER0
 10
41.14871634783384
 20
-90.3834194105711
 30
0.0
  0
SEQEND
  5
6C9
  8
LAYER0
  0
POLYLINE
  5
81
  8
LAYER0
 66
     1
 10
0.0
 20
0.0
 30
0.0
 70
     1
  0
VERTEX
  5
46F
  8
LAYER0
 10
67.2803000229398
 20
-86.4564411797725
 30
0.0
  0
VERTEX
  5
470
  8
LAYER0
 10
37.78030002293946
 20
-86.4564411797725
 30
0.0
 42
0.4142135623730837
  0
VERTEX
  5
471
  8
LAYER0
 10
35.28030002293943
 20
-88.95644117977253
 30
0.0
  0
VERTEX
  5
472
  8
LAYER0
 10
35.28030002293943
 20
-103.9564568047727
 30
0.0
 42
0.4152494763207579
  0
VERTEX
  5
473
  8
LAYER0
 10
37.7891388436114
 20
-106.4564411797727
 30
0.0
  0
VERTEX
  5
474
  8
LAYER0
 10
67.2803000229398
 20
-106.4564411797727
 30
0.0
  0
SEQEND
  5
6CA
  8
LAYER0
  0
POLYLINE
  5
82
  8
LAYER0
 66
     1
 10
0.0
 20
0.0
 30
0.0
 70
     1
  0
VERTEX
  5
475
  8
LAYER0
 10
41.14871634783384
 20
-102.3834194105712
 30
0.0
  0
VERTEX
  5
476
  8
LAYER0
 10
62.14871634783412
 20
-102.3834194105712
 30
0.0
  0
VERTEX
  5
477
  8
LAYER0
 10
62.14871634783412
 20
-90.3834194105711
 30
0.0
  0
VERTEX
  5
478
  8
LAYER0
 10
41.14871634783384
 20
-90.3834194105711
 30
0.0
  0
SEQEND
  5
6CB
  8
LAYER0
  0
POLYLINE
  5
83
  8
LAYER0
 66
     1
 10
0.0
 20
0.0
 30
0.0
 70
     1
  0
VERTEX
  5
479
  8
LAYER0
 10
-49.02820087161675
 20
-86.26179131716353
 30
0.0
  0
VERTEX
  5
47A
  8
LAYER0
 10
-78.52820087161669
 20
-86.26179131716353
 30
0.0
 42
0.4142135623730837
  0
VERTEX
  5
47B
  8
LAYER0
 10
-81.0282008716167
 20
-88.76179131716353
 30
0.0
  0
VERTEX
  5
47C
  8
LAYER0
 10
-81.0282008716167
 20
-103.7618069421636
 30
0.0
 42
0.4152494763207579
  0
VERTEX
  5
47D
  8
LAYER0
 10
-78.51936205094472
 20
-106.2617913171637
 30
0.0
  0
VERTEX
  5
47E
  8
LAYER0
 10
-49.02820087161675
 20
-106.2617913171637
 30
0.0
  0
SEQEND
  5
6CC
  8
LAYER0
  0
POLYLINE
  5
84
  8
LAYER0
 66
     1
 10
0.0
 20
0.0
 30
0.0
 70
     1
  0
VERTEX
  5
47F
  8
LAYER0
 10
-75.15978454672232
 20
-102.1887695479622
 30
0.0
  0
VERTEX
  5
480
  8
LAYER0
 10
-54.15978454672234
 20
-102.1887695479622
 30
0.0
  0
VERTEX
  5
481
  8
LAYER0
 10
-54.15978454672234
 20
-90.18876954796211
 30
0.0
  0
VERTEX
  5
482
  8
LAYER0
 10
-75.15978454672232
 20
-90.18876954796211
 30
0.0
  0
SEQEND
  5
6CD
  8
LAYER0
  0
POLYLINE
  5
85
  8
LAYER0
 66
     1
 10
0.0
 20
0.0
 30
0.0
 70
     1
  0
VERTEX
  5
483
  8
LAYER0
 10
-49.02820087161675
 20
-86.26179131716353
 30
0.0
  0
VERTEX
  5
484
  8
LAYER0
 10
-78.52820087161669
 20
-86.26179131716353
 30
0.0
 42
0.4142135623730837
  0
VERTEX
  5
485
  8
LAYER0
 10
-81.0282008716167
 20
-88.76179131716353
 30
0.0
  0
VERTEX
  5
486
  8
LAYER0
 10
-81.0282008716167
 20
-103.7618069421636
 30
0.0
 42
0.4152494763207579
  0
VERTEX
  5
487
  8
LAYER0
 10
-78.51936205094472
 20
-106.2617913171637
 30
0.0
  0
VERTEX
  5
488
  8
LAYER0
 10
-49.02820087161675
 20
-106.2617913171637
 30
0.0
  0
SEQEND
  5
6CE
  8
LAYER0
  0
POLYLINE
  5
86
  8
LAYER0
 66
     1
 10
0.0
 20
0.0
 30
0.0
 70
     1
  0
VERTEX
  5
489
  8
LAYER0
 10
-75.15978454672232
 20
-102.1887695479622
 30
0.0
  0
VERTEX
  5
48A
  8
LAYER0
 10
-54.15978454672234
 20
-102.1887695479622
 30
0.0
  0
VERTEX
  5
48B
  8
LAYER0
 10
-54.15978454672234
 20
-90.18876954796211
 30
0.0
  0
VERTEX
  5
48C
  8
LAYER0
 10
-75.15978454672232
 20
-90.18876954796211
 30
0.0
  0
SEQEND
  5
6CF
  8
LAYER0
  0
POLYLINE
  5
87
  8
LAYER0
 66
     1
 10
0.0
 20
0.0
 30
0.0
 70
     1
  0
VERTEX
  5
48D
  8
LAYER0
 10
-9.791349609191474
 20
-86.26179131716472
 30
0.0
  0
VERTEX
  5
48E
  8
LAYER0
 10
-39.29134960918833
 20
-86.26179131716353
 30
0.0
 42
0.4142141797748344
  0
VERTEX
  5
48F
  8
LAYER0
 10
-41.79134960918879
 20
-88.76179658702281
 30
0.0
  0
VERTEX
  5
490
  8
LAYER0
 10
-41.79134960919109
 20
-103.761807694997
 30
0.0
 42
0.4152741477298926
  0
VERTEX
  5
491
  8
LAYER0
 10
-39.28230036239773
 20
-106.2617913171649
 30
0.0
  0
VERTEX
  5
492
  8
LAYER0
 10
-9.791349609191474
 20
-106.2617913171649
 30
0.0
  0
SEQEND
  5
6D0
  8
LAYER0
  0
POLYLINE
  5
88
  8
LAYER0
 66
     1
 10
0.0
 20
0.0
 30
0.0
 70
     1
  0
VERTEX
  5
493
  8
LAYER0
 10
-36.45685681485544
 20
-102.0977586991638
 30
0.0
  0
VERTEX
  5
494
  8
LAYER0
 10
-15.45685681485545
 20
-102.0977586991638
 30
0.0
  0
VERTEX
  5
495
  8
LAYER0
 10
-15.45685681485545
 20
-90.09775869916369
 30
0.0
  0
VERTEX
  5
496
  8
LAYER0
 10
-36.45685681485544
 20
-90.09775869916369
 30
0.0
  0
SEQEND
  5
6D1
  8
LAYER0
  0
POLYLINE
  5
89
  8
LAYER0
 66
     1
 10
0.0
 20
0.0
 30
0.0
 70
     1
  0
VERTEX
  5
497
  8
LAYER0
 10
-9.791349609191474
 20
-86.26179131716472
 30
0.0
  0
VERTEX
  5
498
  8
LAYER0
 10
-39.29134960918833
 20
-86.26179131716353
 30
0.0
 42
0.4142141797748344
  0
VERTEX
  5
499
  8
LAYER0
 10
-41.79134960918879
 20
-88.76179658702281
 30
0.0
  0
VERTEX
  5
49A
  8
LAYER0
 10
-41.79134960919109
 20
-103.761807694997
 30
0.0
 42
0.4152741477298926
  0
VERTEX
  5
49B
  8
LAYER0
 10
-39.28230036239773
 20
-106.2617913171649
 30
0.0
  0
VERTEX
  5
49C
  8
LAYER0
 10
-9.791349609191474
 20
-106.2617913171649
 30
0.0
  0
SEQEND
  5
6D2
  8
LAYER0
  0
POLYLINE
  5
8A
  8
LAYER0
 66
     1
 10
0.0
 20
0.0
 30
0.0
 70
     1
  0
VERTEX
  5
49D
  8
LAYER0
 10
-36.45685681485544
 20
-102.0977586991638
 30
0.0
  0
VERTEX
  5
49E
  8
LAYER0
 10
-15.45685681485545
 20
-102.0977586991638
 30
0.0
  0
VERTEX
  5
49F
  8
LAYER0
 10
-15.45685681485545
 20
-90.09775869916369
 30
0.0
  0
VERTEX
  5
4A0
  8
LAYER0
 10
-36.45685681485544
 20
-90.09775869916369
 30
0.0
  0
SEQEND
  5
6D3
  8
LAYER0
  0
POLYLINE
  5
8B
  8
LAYER0
 66
     1
 10
0.0
 20
0.0
 30
0.0
 70
     1
  0
VERTEX
  5
4A1
  8
LAYER0
 10
30.59952669036428
 20
-86.26179131716353
 30
0.0
  0
VERTEX
  5
4A2
  8
LAYER0
 10
1.099526690363884
 20
-86.26179131716353
 30
0.0
 42
0.4142135623730837
  0
VERTEX
  5
4A3
  8
LAYER0
 10
-1.400473309636141
 20
-88.76179131716353
 30
0.0
  0
VERTEX
  5
4A4
  8
LAYER0
 10
-1.400473309636141
 20
-103.7618069421636
 30
0.0
 42
0.4152494763207579
  0
VERTEX
  5
4A5
  8
LAYER0
 10
1.108365511035824
 20
-106.2617913171637
 30
0.0
  0
VERTEX
  5
4A6
  8
LAYER0
 10
30.59952669036428
 20
-106.2617913171637
 30
0.0
  0
SEQEND
  5
6D4
  8
LAYER0
  0
POLYLINE
  5
8C
  8
LAYER0
 66
     1
 10
0.0
 20
0.0
 30
0.0
 70
     1
  0
VERTEX
  5
4A7
  8
LAYER0
 10
4.46794301525826
 20
-102.1887695479622
 30
0.0
  0
VERTEX
  5
4A8
  8
LAYER0
 10
25.46794301525859
 20
-102.1887695479622
 30
0.0
  0
VERTEX
  5
4A9
  8
LAYER0
 10
25.46794301525859
 20
-90.18876954796211
 30
0.0
  0
VERTEX
  5
4AA
  8
LAYER0
 10
4.46794301525826
 20
-90.18876954796211
 30
0.0
  0
SEQEND
  5
6D5
  8
LAYER0
  0
POLYLINE
  5
8D
  8
LAYER0
 66
     1
 10
0.0
 20
0.0
 30
0.0
 70
     1
  0
VERTEX
  5
4AB
  8
LAYER0
 10
30.59952669036428
 20
-86.26179131716353
 30
0.0
  0
VERTEX
  5
4AC
  8
LAYER0
 10
1.099526690363884
 20
-86.26179131716353
 30
0.0
 42
0.4142135623730837
  0
VERTEX
  5
4AD
  8
LAYER0
 10
-1.400473309636141
 20
-88.76179131716353
 30
0.0
  0
VERTEX
  5
4AE
  8
LAYER0
 10
-1.400473309636141
 20
-103.7618069421636
 30
0.0
 42
0.4152494763207579
  0
VERTEX
  5
4AF
  8
LAYER0
 10
1.108365511035824
 20
-106.2617913171637
 30
0.0
  0
VERTEX
  5
4B0
  8
LAYER0
 10
30.59952669036428
 20
-106.2617913171637
 30
0.0
  0
SEQEND
  5
6D6
  8
LAYER0
  0
POLYLINE
  5
8E
  8
LAYER0
 66
     1
 10
0.0
 20
0.0
 30
0.0
 70
     1
  0
VERTEX
  5
4B1
  8
LAYER0
 10
4.46794301525826
 20
-102.1887695479622
 30
0.0
  0
VERTEX
  5
4B2
  8
LAYER0
 10
25.46794301525859
 20
-102.1887695479622
 30
0.0
  0
VERTEX
  5
4B3
  8
LAYER0
 10
25.46794301525859
 20
-90.18876954796211
 30
0.0
  0
VERTEX
  5
4B4
  8
LAYER0
 10
4.46794301525826
 20
-90.18876954796211
 30
0.0
  0
SEQEND
  5
6D7
  8
LAYER0
  0
POLYLINE
  5
8F
  8
LAYER0
 66
     1
 10
0.0
 20
0.0
 30
0.0
 70
     1
  0
VERTEX
  5
4B5
  8
LAYER0
 10
-67.68393439902333
 20
-26.67391893806641
 30
0.0
  0
VERTEX
  5
4B6
  8
LAYER0
 10
-97.18393439902019
 20
-26.67391893806522
 30
0.0
 42
0.4142141797748344
  0
VERTEX
  5
4B7
  8
LAYER0
 10
-99.68393439902066
 20
-29.17392420792452
 30
0.0
  0
VERTEX
  5
4B8
  8
LAYER0
 10
-99.68393439902296
 20
-44.17393531589876
 30
0.0
 42
0.4152741477298926
  0
VERTEX
  5
4B9
  8
LAYER0
 10
-97.17488515222959
 20
-46.67391893806661
 30
0.0
  0
VERTEX
  5
4BA
  8
LAYER0
 10
-67.68393439902333
 20
-46.67391893806661
 30
0.0
  0
SEQEND
  5
6D8
  8
LAYER0
  0
POLYLINE
  5
90
  8
LAYER0
 66
     1
 10
0.0
 20
0.0
 30
0.0
 70
     1
  0
VERTEX
  5
4BB
  8
LAYER0
 10
-94.3494416046873
 20
-42.50988632006555
 30
0.0
  0
VERTEX
  5
4BC
  8
LAYER0
 10
-73.3494416046873
 20
-42.50988632006555
 30
0.0
  0
VERTEX
  5
4BD
  8
LAYER0
 10
-73.3494416046873
 20
-30.5098863200654
 30
0.0
  0
VERTEX
  5
4BE
  8
LAYER0
 10
-94.3494416046873
 20
-30.5098863200654
 30
0.0
  0
SEQEND
  5
6D9
  8
LAYER0
  0
POLYLINE
  5
91
  8
LAYER0
 66
     1
 10
0.0
 20
0.0
 30
0.0
 70
     1
  0
VERTEX
  5
4BF
  8
LAYER0
 10
-67.68393439902333
 20
-26.67391893806641
 30
0.0
  0
VERTEX
  5
4C0
  8
LAYER0
 10
-97.18393439902019
 20
-26.67391893806522
 30
0.0
 42
0.4142141797748344
  0
VERTEX
  5
4C1
  8
LAYER0
 10
-99.68393439902066
 20
-29.17392420792452
 30
0.0
  0
VERTEX
  5
4C2
  8
LAYER0
 10
-99.68393439902296
 20
-44.17393531589876
 30
0.0
 42
0.4152741477298926
  0
VERTEX
  5
4C3
  8
LAYER0
 10
-97.17488515222959
 20
-46.67391893806661
 30
0.0
  0
VERTEX
  5
4C4
  8
LAYER0
 10
-67.68393439902333
 20
-46.67391893806661
 30
0.0
  0
SEQEND
  5
6DA
  8
LAYER0
  0
POLYLINE
  5
92
  8
LAYER0
 66
     1
 10
0.0
 20
0.0
 30
0.0
 70
     1
  0
VERTEX
  5
4C5
  8
LAYER0
 10
-94.3494416046873
 20
-42.50988632006555
 30
0.0
  0
VERTEX
  5
4C6
  8
LAYER0
 10
-73.3494416046873
 20
-42.50988632006555
 30
0.0
  0
VERTEX
  5
4C7
  8
LAYER0
 10
-73.3494416046873
 20
-30.5098863200654
 30
0.0
  0
VERTEX
  5
4C8
  8
LAYER0
 10
-94.3494416046873
 20
-30.5098863200654
 30
0.0
  0
SEQEND
  5
6DB
  8
LAYER0
  0
POLYLINE
  5
93
  8
LAYER0
 66
     1
 10
0.0
 20
0.0
 30
0.0
 70
     1
  0
VERTEX
  5
4C9
  8
LAYER0
 10
-27.29305809946807
 20
-26.67391893806522
 30
0.0
  0
VERTEX
  5
4CA
  8
LAYER0
 10
-56.793058099468
 20
-26.67391893806522
 30
0.0
 42
0.4142135623730837
  0
VERTEX
  5
4CB
  8
LAYER0
 10
-59.29305809946801
 20
-29.17391893806523
 30
0.0
  0
VERTEX
  5
4CC
  8
LAYER0
 10
-59.29305809946801
 20
-44.17393456306537
 30
0.0
 42
0.4152494763207579
  0
VERTEX
  5
4CD
  8
LAYER0
 10
-56.78421927879603
 20
-46.67391893806541
 30
0.0
  0
VERTEX
  5
4CE
  8
LAYER0
 10
-27.29305809946807
 20
-46.67391893806541
 30
0.0
  0
SEQEND
  5
6DC
  8
LAYER0
  0
POLYLINE
  5
94
  8
LAYER0
 66
     1
 10
0.0
 20
0.0
 30
0.0
 70
     1
  0
VERTEX
  5
4CF
  8
LAYER0
 10
-53.42464177457363
 20
-42.60089716886397
 30
0.0
  0
VERTEX
  5
4D0
  8
LAYER0
 10
-32.42464177457367
 20
-42.60089716886397
 30
0.0
  0
VERTEX
  5
4D1
  8
LAYER0
 10
-32.42464177457367
 20
-30.60089716886382
 30
0.0
  0
VERTEX
  5
4D2
  8
LAYER0
 10
-53.42464177457363
 20
-30.60089716886382
 30
0.0
  0
SEQEND
  5
6DD
  8
LAYER0
  0
POLYLINE
  5
95
  8
LAYER0
 66
     1
 10
0.0
 20
0.0
 30
0.0
 70
     1
  0
VERTEX
  5
4D3
  8
LAYER0
 10
-27.29305809946807
 20
-26.67391893806522
 30
0.0
  0
VERTEX
  5
4D4
  8
LAYER0
 10
-56.793058099468
 20
-26.67391893806522
 30
0.0
 42
0.4142135623730837
  0
VERTEX
  5
4D5
  8
LAYER0
 10
-59.29305809946801
 20
-29.17391893806523
 30
0.0
  0
VERTEX
  5
4D6
  8
LAYER0
 10
-59.29305809946801
 20
-44.17393456306537
 30
0.0
 42
0.4152494763207579
  0
VERTEX
  5
4D7
  8
LAYER0
 10
-56.78421927879603
 20
-46.67391893806541
 30
0.0
  0
VERTEX
  5
4D8
  8
LAYER0
 10
-27.29305809946807
 20
-46.67391893806541
 30
0.0
  0
SEQEND
  5
6DE
  8
LAYER0
  0
POLYLINE
  5
96
  8
LAYER0
 66
     1
 10
0.0
 20
0.0
 30
0.0
 70
     1
  0
VERTEX
  5
4D9
  8
LAYER0
 10
-53.42464177457363
 20
-42.60089716886397
 30
0.0
  0
VERTEX
  5
4DA
  8
LAYER0
 10
-32.42464177457367
 20
-42.60089716886397
 30
0.0
  0
VERTEX
  5
4DB
  8
LAYER0
 10
-32.42464177457367
 20
-30.60089716886382
 30
0.0
  0
VERTEX
  5
4DC
  8
LAYER0
 10
-53.42464177457363
 20
-30.60089716886382
 30
0.0
  0
SEQEND
  5
6DF
  8
LAYER0
  0
POLYLINE
  5
97
  8
LAYER0
 66
     1
 10
0.0
 20
0.0
 30
0.0
 70
     1
  0
VERTEX
  5
4DD
  8
LAYER0
 10
11.94379316295724
 20
-26.67391893806641
 30
0.0
  0
VERTEX
  5
4DE
  8
LAYER0
 10
-17.55620683703963
 20
-26.67391893806522
 30
0.0
 42
0.4142141797748344
  0
VERTEX
  5
4DF
  8
LAYER0
 10
-20.0562068370401
 20
-29.17392420792452
 30
0.0
  0
VERTEX
  5
4E0
  8
LAYER0
 10
-20.0562068370424
 20
-44.17393531589876
 30
0.0
 42
0.4152741477298926
  0
VERTEX
  5
4E1
  8
LAYER0
 10
-17.54715759024903
 20
-46.67391893806661
 30
0.0
  0
VERTEX
  5
4E2
  8
LAYER0
 10
11.94379316295724
 20
-46.67391893806661
 30
0.0
  0
SEQEND
  5
6E0
  8
LAYER0
  0
POLYLINE
  5
98
  8
LAYER0
 66
     1
 10
0.0
 20
0.0
 30
0.0
 70
     1
  0
VERTEX
  5
4E3
  8
LAYER0
 10
-14.72171404270674
 20
-42.50988632006555
 30
0.0
  0
VERTEX
  5
4E4
  8
LAYER0
 10
6.27828595729326
 20
-42.50988632006555
 30
0.0
  0
VERTEX
  5
4E5
  8
LAYER0
 10
6.27828595729326
 20
-30.5098863200654
 30
0.0
  0
VERTEX
  5
4E6
  8
LAYER0
 10
-14.72171404270674
 20
-30.5098863200654
 30
0.0
  0
SEQEND
  5
6E1
  8
LAYER0
  0
POLYLINE
  5
99
  8
LAYER0
 66
     1
 10
0.0
 20
0.0
 30
0.0
 70
     1
  0
VERTEX
  5
4E7
  8
LAYER0
 10
11.94379316295724
 20
-26.67391893806641
 30
0.0
  0
VERTEX
  5
4E8
  8
LAYER0
 10
-17.55620683703963
 20
-26.67391893806522
 30
0.0
 42
0.4142141797748344
  0
VERTEX
  5
4E9
  8
LAYER0
 10
-20.0562068370401
 20
-29.17392420792452
 30
0.0
  0
VERTEX
  5
4EA
  8
LAYER0
 10
-20.0562068370424
 20
-44.17393531589876
 30
0.0
 42
0.4152741477298926
  0
VERTEX
  5
4EB
  8
LAYER0
 10
-17.54715759024903
 20
-46.67391893806661
 30
0.0
  0
VERTEX
  5
4EC
  8
LAYER0
 10
11.94379316295724
 20
-46.67391893806661
 30
0.0
  0
SEQEND
  5
6E2
  8
LAYER0
  0
POLYLINE
  5
9A
  8
LAYER0
 66
     1
 10
0.0
 20
0.0
 30
0.0
 70
     1
  0
VERTEX
  5
4ED
  8
LAYER0
 10
-14.72171404270674
 20
-42.50988632006555
 30
0.0
  0
VERTEX
  5
4EE
  8
LAYER0
 10
6.27828595729326
 20
-42.50988632006555
 30
0.0
  0
VERTEX
  5
4EF
  8
LAYER0
 10
6.27828595729326
 20
-30.5098863200654
 30
0.0
  0
VERTEX
  5
4F0
  8
LAYER0
 10
-14.72171404270674
 20
-30.5098863200654
 30
0.0
  0
SEQEND
  5
6E3
  8
LAYER0
  0
POLYLINE
  5
9B
  8
LAYER0
 66
     1
 10
0.0
 20
0.0
 30
0.0
 70
     1
  0
VERTEX
  5
4F1
  8
LAYER0
 10
52.33466946251298
 20
-26.67391893806522
 30
0.0
  0
VERTEX
  5
4F2
  8
LAYER0
 10
22.83466946251261
 20
-26.67391893806522
 30
0.0
 42
0.4142135623730837
  0
VERTEX
  5
4F3
  8
LAYER0
 10
20.33466946251258
 20
-29.17391893806523
 30
0.0
  0
VERTEX
  5
4F4
  8
LAYER0
 10
20.33466946251258
 20
-44.17393456306537
 30
0.0
 42
0.4152494763207579
  0
VERTEX
  5
4F5
  8
LAYER0
 10
22.84350828318455
 20
-46.67391893806541
 30
0.0
  0
VERTEX
  5
4F6
  8
LAYER0
 10
52.33466946251298
 20
-46.67391893806541
 30
0.0
  0
SEQEND
  5
6E4
  8
LAYER0
  0
POLYLINE
  5
9C
  8
LAYER0
 66
     1
 10
0.0
 20
0.0
 30
0.0
 70
     1
  0
VERTEX
  5
4F7
  8
LAYER0
 10
26.203085787407
 20
-42.60089716886397
 30
0.0
  0
VERTEX
  5
4F8
  8
LAYER0
 10
47.2030857874073
 20
-42.60089716886397
 30
0.0
  0
VERTEX
  5
4F9
  8
LAYER0
 10
47.2030857874073
 20
-30.60089716886382
 30
0.0
  0
VERTEX
  5
4FA
  8
LAYER0
 10
26.203085787407
 20
-30.60089716886382
 30
0.0
  0
SEQEND
  5
6E5
  8
LAYER0
  0
POLYLINE
  5
9D
  8
LAYER0
 66
     1
 10
0.0
 20
0.0
 30
0.0
 70
     1
  0
VERTEX
  5
4FB
  8
LAYER0
 10
52.33466946251298
 20
-26.67391893806522
 30
0.0
  0
VERTEX
  5
4FC
  8
LAYER0
 10
22.83466946251261
 20
-26.67391893806522
 30
0.0
 42
0.4142135623730837
  0
VERTEX
  5
4FD
  8
LAYER0
 10
20.33466946251258
 20
-29.17391893806523
 30
0.0
  0
VERTEX
  5
4FE
  8
LAYER0
 10
20.33466946251258
 20
-44.17393456306537
 30
0.0
 42
0.4152494763207579
  0
VERTEX
  5
4FF
  8
LAYER0
 10
22.84350828318455
 20
-46.67391893806541
 30
0.0
  0
VERTEX
  5
500
  8
LAYER0
 10
52.33466946251298
 20
-46.67391893806541
 30
0.0
  0
SEQEND
  5
6E6
  8
LAYER0
  0
POLYLINE
  5
9E
  8
LAYER0
 66
     1
 10
0.0
 20
0.0
 30
0.0
 70
     1
  0
VERTEX
  5
501
  8
LAYER0
 10
26.203085787407
 20
-42.60089716886397
 30
0.0
  0
VERTEX
  5
502
  8
LAYER0
 10
47.2030857874073
 20
-42.60089716886397
 30
0.0
  0
VERTEX
  5
503
  8
LAYER0
 10
47.2030857874073
 20
-30.60089716886382
 30
0.0
  0
VERTEX
  5
504
  8
LAYER0
 10
26.203085787407
 20
-30.60089716886382
 30
0.0
  0
SEQEND
  5
6E7
  8
LAYER0
  0
POLYLINE
  5
9F
  8
LAYER0
 66
     1
 10
0.0
 20
0.0
 30
0.0
 70
     1
  0
VERTEX
  5
505
  8
LAYER0
 10
93.09548008185885
 20
-26.67391893806522
 30
0.0
  0
VERTEX
  5
506
  8
LAYER0
 10
63.59548008185851
 20
-26.67391893806522
 30
0.0
 42
0.4142135623730837
  0
VERTEX
  5
507
  8
LAYER0
 10
61.09548008185848
 20
-29.17391893806523
 30
0.0
  0
VERTEX
  5
508
  8
LAYER0
 10
61.09548008185848
 20
-44.17393456306537
 30
0.0
 42
0.4152494763207579
  0
VERTEX
  5
509
  8
LAYER0
 10
63.60431890253045
 20
-46.67391893806541
 30
0.0
  0
VERTEX
  5
50A
  8
LAYER0
 10
93.09548008185885
 20
-46.67391893806541
 30
0.0
  0
SEQEND
  5
6E8
  8
LAYER0
  0
POLYLINE
  5
A0
  8
LAYER0
 66
     1
 10
0.0
 20
0.0
 30
0.0
 70
     1
  0
VERTEX
  5
50B
  8
LAYER0
 10
66.9638964067529
 20
-42.60089716886397
 30
0.0
  0
VERTEX
  5
50C
  8
LAYER0
 10
87.96389640675318
 20
-42.60089716886397
 30
0.0
  0
VERTEX
  5
50D
  8
LAYER0
 10
87.96389640675318
 20
-30.60089716886382
 30
0.0
  0
VERTEX
  5
50E
  8
LAYER0
 10
66.9638964067529
 20
-30.60089716886382
 30
0.0
  0
SEQEND
  5
6E9
  8
LAYER0
  0
POLYLINE
  5
A1
  8
LAYER0
 66
     1
 10
0.0
 20
0.0
 30
0.0
 70
     1
  0
VERTEX
  5
50F
  8
LAYER0
 10
93.09548008185885
 20
-26.67391893806522
 30
0.0
  0
VERTEX
  5
510
  8
LAYER0
 10
63.59548008185851
 20
-26.67391893806522
 30
0.0
 42
0.4142135623730837
  0
VERTEX
  5
511
  8
LAYER0
 10
61.09548008185848
 20
-29.17391893806523
 30
0.0
  0
VERTEX
  5
512
  8
LAYER0
 10
61.09548008185848
 20
-44.17393456306537
 30
0.0
 42
0.4152494763207579
  0
VERTEX
  5
513
  8
LAYER0
 10
63.60431890253045
 20
-46.67391893806541
 30
0.0
  0
VERTEX
  5
514
  8
LAYER0
 10
93.09548008185885
 20
-46.67391893806541
 30
0.0
  0
SEQEND
  5
6EA
  8
LAYER0
  0
POLYLINE
  5
A2
  8
LAYER0
 66
     1
 10
0.0
 20
0.0
 30
0.0
 70
     1
  0
VERTEX
  5
515
  8
LAYER0
 10
66.9638964067529
 20
-42.60089716886397
 30
0.0
  0
VERTEX
  5
516
  8
LAYER0
 10
87.96389640675318
 20
-42.60089716886397
 30
0.0
  0
VERTEX
  5
517
  8
LAYER0
 10
87.96389640675318
 20
-30.60089716886382
 30
0.0
  0
VERTEX
  5
518
  8
LAYER0
 10
66.9638964067529
 20
-30.60089716886382
 30
0.0
  0
SEQEND
  5
6EB
  8
LAYER0
  0
POLYLINE
  5
A3
  8
LAYER0
 66
     1
 10
0.0
 20
0.0
 30
0.0
 70
     1
  0
VERTEX
  5
519
  8
LAYER0
 10
-67.68393439902333
 20
4.576035870098828
 30
0.0
  0
VERTEX
  5
51A
  8
LAYER0
 10
-97.18393439902019
 20
4.576035870100021
 30
0.0
 42
0.4142141797748344
  0
VERTEX
  5
51B
  8
LAYER0
 10
-99.68393439902066
 20
2.076030600240721
 30
0.0
  0
VERTEX
  5
51C
  8
LAYER0
 10
-99.68393439902296
 20
-12.92398050773354
 30
0.0
 42
0.4152741477298926
  0
VERTEX
  5
51D
  8
LAYER0
 10
-97.17488515222959
 20
-15.42396412990139
 30
0.0
  0
VERTEX
  5
51E
  8
LAYER0
 10
-67.68393439902333
 20
-15.42396412990139
 30
0.0
  0
SEQEND
  5
6EC
  8
LAYER0
  0
POLYLINE
  5
A4
  8
LAYER0
 66
     1
 10
0.0
 20
0.0
 30
0.0
 70
     1
  0
VERTEX
  5
51F
  8
LAYER0
 10
-94.3494416046873
 20
-11.25993151190032
 30
0.0
  0
VERTEX
  5
520
  8
LAYER0
 10
-73.3494416046873
 20
-11.25993151190032
 30
0.0
  0
VERTEX
  5
521
  8
LAYER0
 10
-73.3494416046873
 20
0.740068488099844
 30
0.0
  0
VERTEX
  5
522
  8
LAYER0
 10
-94.3494416046873
 20
0.740068488099844
 30
0.0
  0
SEQEND
  5
6ED
  8
LAYER0
  0
POLYLINE
  5
A5
  8
LAYER0
 66
     1
 10
0.0
 20
0.0
 30
0.0
 70
     1
  0
VERTEX
  5
523
  8
LAYER0
 10
-67.68393439902333
 20
4.576035870098828
 30
0.0
  0
VERTEX
  5
524
  8
LAYER0
 10
-97.18393439902019
 20
4.576035870100021
 30
0.0
 42
0.4142141797748344
  0
VERTEX
  5
525
  8
LAYER0
 10
-99.68393439902066
 20
2.076030600240721
 30
0.0
  0
VERTEX
  5
526
  8
LAYER0
 10
-99.68393439902296
 20
-12.92398050773354
 30
0.0
 42
0.4152741477298926
  0
VERTEX
  5
527
  8
LAYER0
 10
-97.17488515222959
 20
-15.42396412990139
 30
0.0
  0
VERTEX
  5
528
  8
LAYER0
 10
-67.68393439902333
 20
-15.42396412990139
 30
0.0
  0
SEQEND
  5
6EE
  8
LAYER0
  0
POLYLINE
  5
A6
  8
LAYER0
 66
     1
 10
0.0
 20
0.0
 30
0.0
 70
     1
  0
VERTEX
  5
529
  8
LAYER0
 10
-94.3494416046873
 20
-11.25993151190032
 30
0.0
  0
VERTEX
  5
52A
  8
LAYER0
 10
-73.3494416046873
 20
-11.25993151190032
 30
0.0
  0
VERTEX
  5
52B
  8
LAYER0
 10
-73.3494416046873
 20
0.740068488099844
 30
0.0
  0
VERTEX
  5
52C
  8
LAYER0
 10
-94.3494416046873
 20
0.740068488099844
 30
0.0
  0
SEQEND
  5
6EF
  8
LAYER0
  0
POLYLINE
  5
A7
  8
LAYER0
 66
     1
 10
0.0
 20
0.0
 30
0.0
 70
     1
  0
VERTEX
  5
52D
  8
LAYER0
 10
-27.29305809946807
 20
4.576035870100021
 30
0.0
  0
VERTEX
  5
52E
  8
LAYER0
 10
-56.793058099468
 20
4.576035870100021
 30
0.0
 42
0.4142135623730837
  0
VERTEX
  5
52F
  8
LAYER0
 10
-59.29305809946801
 20
2.076035870100007
 30
0.0
  0
VERTEX
  5
530
  8
LAYER0
 10
-59.29305809946801
 20
-12.92397975490015
 30
0.0
 42
0.4152494763207579
  0
VERTEX
  5
531
  8
LAYER0
 10
-56.78421927879603
 20
-15.4239641299002
 30
0.0
  0
VERTEX
  5
532
  8
LAYER0
 10
-27.29305809946807
 20
-15.4239641299002
 30
0.0
  0
SEQEND
  5
6F0
  8
LAYER0
  0
POLYLINE
  5
A8
  8
LAYER0
 66
     1
 10
0.0
 20
0.0
 30
0.0
 70
     1
  0
VERTEX
  5
533
  8
LAYER0
 10
-53.42464177457363
 20
-11.35094236069874
 30
0.0
  0
VERTEX
  5
534
  8
LAYER0
 10
-32.42464177457367
 20
-11.35094236069874
 30
0.0
  0
VERTEX
  5
535
  8
LAYER0
 10
-32.42464177457367
 20
0.6490576393014251
 30
0.0
  0
VERTEX
  5
536
  8
LAYER0
 10
-53.42464177457363
 20
0.6490576393014251
 30
0.0
  0
SEQEND
  5
6F1
  8
LAYER0
  0
POLYLINE
  5
A9
  8
LAYER0
 66
     1
 10
0.0
 20
0.0
 30
0.0
 70
     1
  0
VERTEX
  5
537
  8
LAYER0
 10
-27.29305809946807
 20
4.576035870100021
 30
0.0
  0
VERTEX
  5
538
  8
LAYER0
 10
-56.793058099468
 20
4.576035870100021
 30
0.0
 42
0.4142135623730837
  0
VERTEX
  5
539
  8
LAYER0
 10
-59.29305809946801
 20
2.076035870100007
 30
0.0
  0
VERTEX
  5
53A
  8
LAYER0
 10
-59.29305809946801
 20
-12.92397975490015
 30
0.0
 42
0.4152494763207579
  0
VERTEX
  5
53B
  8
LAYER0
 10
-56.78421927879603
 20
-15.4239641299002
 30
0.0
  0
VERTEX
  5
53C
  8
LAYER0
 10
-27.29305809946807
 20
-15.4239641299002
 30
0.0
  0
SEQEND
  5
6F2
  8
LAYER0
  0
POLYLINE
  5
AA
  8
LAYER0
 66
     1
 10
0.0
 20
0.0
 30
0.0
 70
     1
  0
VERTEX
  5
53D
  8
LAYER0
 10
-53.42464177457363
 20
-11.35094236069874
 30
0.0
  0
VERTEX
  5
53E
  8
LAYER0
 10
-32.42464177457367
 20
-11.35094236069874
 30
0.0
  0
VERTEX
  5
53F
  8
LAYER0
 10
-32.42464177457367
 20
0.6490576393014251
 30
0.0
  0
VERTEX
  5
540
  8
LAYER0
 10
-53.42464177457363
 20
0.6490576393014251
 30
0.0
  0
SEQEND
  5
6F3
  8
LAYER0
  0
POLYLINE
  5
AB
  8
LAYER0
 66
     1
 10
0.0
 20
0.0
 30
0.0
 70
     1
  0
VERTEX
  5
541
  8
LAYER0
 10
11.94379316295724
 20
4.576035870098828
 30
0.0
  0
VERTEX
  5
542
  8
LAYER0
 10
-17.55620683703963
 20
4.576035870100021
 30
0.0
 42
0.4142141797748344
  0
VERTEX
  5
543
  8
LAYER0
 10
-20.0562068370401
 20
2.076030600240721
 30
0.0
  0
VERTEX
  5
544
  8
LAYER0
 10
-20.0562068370424
 20
-12.92398050773354
 30
0.0
 42
0.4152741477298926
  0
VERTEX
  5
545
  8
LAYER0
 10
-17.54715759024903
 20
-15.42396412990139
 30
0.0
  0
VERTEX
  5
546
  8
LAYER0
 10
11.94379316295724
 20
-15.42396412990139
 30
0.0
  0
SEQEND
  5
6F4
  8
LAYER0
  0
POLYLINE
  5
AC
  8
LAYER0
 66
     1
 10
0.0
 20
0.0
 30
0.0
 70
     1
  0
VERTEX
  5
547
  8
LAYER0
 10
-14.72171404270674
 20
-11.25993151190032
 30
0.0
  0
VERTEX
  5
548
  8
LAYER0
 10
6.27828595729326
 20
-11.25993151190032
 30
0.0
  0
VERTEX
  5
549
  8
LAYER0
 10
6.27828595729326
 20
0.740068488099844
 30
0.0
  0
VERTEX
  5
54A
  8
LAYER0
 10
-14.72171404270674
 20
0.740068488099844
 30
0.0
  0
SEQEND
  5
6F5
  8
LAYER0
  0
POLYLINE
  5
AD
  8
LAYER0
 66
     1
 10
0.0
 20
0.0
 30
0.0
 70
     1
  0
VERTEX
  5
54B
  8
LAYER0
 10
11.94379316295724
 20
4.576035870098828
 30
0.0
  0
VERTEX
  5
54C
  8
LAYER0
 10
-17.55620683703963
 20
4.576035870100021
 30
0.0
 42
0.4142141797748344
  0
VERTEX
  5
54D
  8
LAYER0
 10
-20.0562068370401
 20
2.076030600240721
 30
0.0
  0
VERTEX
  5
54E
  8
LAYER0
 10
-20.0562068370424
 20
-12.92398050773354
 30
0.0
 42
0.4152741477298926
  0
VERTEX
  5
54F
  8
LAYER0
 10
-17.54715759024903
 20
-15.42396412990139
 30
0.0
  0
VERTEX
  5
550
  8
LAYER0
 10
11.94379316295724
 20
-15.42396412990139
 30
0.0
  0
SEQEND
  5
6F6
  8
LAYER0
  0
POLYLINE
  5
AE
  8
LAYER0
 66
     1
 10
0.0
 20
0.0
 30
0.0
 70
     1
  0
VERTEX
  5
551
  8
LAYER0
 10
-14.72171404270674
 20
-11.25993151190032
 30
0.0
  0
VERTEX
  5
552
  8
LAYER0
 10
6.27828595729326
 20
-11.25993151190032
 30
0.0
  0
VERTEX
  5
553
  8
LAYER0
 10
6.27828595729326
 20
0.740068488099844
 30
0.0
  0
VERTEX
  5
554
  8
LAYER0
 10
-14.72171404270674
 20
0.740068488099844
 30
0.0
  0
SEQEND
  5
6F7
  8
LAYER0
  0
POLYLINE
  5
AF
  8
LAYER0
 66
     1
 10
0.0
 20
0.0
 30
0.0
 70
     1
  0
VERTEX
  5
555
  8
LAYER0
 10
52.33466946251298
 20
4.576035870100021
 30
0.0
  0
VERTEX
  5
556
  8
LAYER0
 10
22.83466946251261
 20
4.576035870100021
 30
0.0
 42
0.4142135623730837
  0
VERTEX
  5
557
  8
LAYER0
 10
20.33466946251258
 20
2.076035870100007
 30
0.0
  0
VERTEX
  5
558
  8
LAYER0
 10
20.33466946251258
 20
-12.92397975490015
 30
0.0
 42
0.4152494763207579
  0
VERTEX
  5
559
  8
LAYER0
 10
22.84350828318455
 20
-15.4239641299002
 30
0.0
  0
VERTEX
  5
55A
  8
LAYER0
 10
52.33466946251298
 20
-15.4239641299002
 30
0.0
  0
SEQEND
  5
6F8
  8
LAYER0
  0
POLYLINE
  5
B0
  8
LAYER0
 66
     1
 10
0.0
 20
0.0
 30
0.0
 70
     1
  0
VERTEX
  5
55B
  8
LAYER0
 10
26.203085787407
 20
-11.35094236069874
 30
0.0
  0
VERTEX
  5
55C
  8
LAYER0
 10
47.2030857874073
 20
-11.35094236069874
 30
0.0
  0
VERTEX
  5
55D
  8
LAYER0
 10
47.2030857874073
 20
0.6490576393014251
 30
0.0
  0
VERTEX
  5
55E
  8
LAYER0
 10
26.203085787407
 20
0.6490576393014251
 30
0.0
  0
SEQEND
  5
6F9
  8
LAYER0
  0
POLYLINE
  5
B1
  8
LAYER0
 66
     1
 10
0.0
 20
0.0
 30
0.0
 70
     1
  0
VERTEX
  5
55F
  8
LAYER0
 10
52.33466946251298
 20
4.576035870100021
 30
0.0
  0
VERTEX
  5
560
  8
LAYER0
 10
22.83466946251261
 20
4.576035870100021
 30
0.0
 42
0.4142135623730837
  0
VERTEX
  5
561
  8
LAYER0
 10
20.33466946251258
 20
2.076035870100007
 30
0.0
  0
VERTEX
  5
562
  8
LAYER0
 10
20.33466946251258
 20
-12.92397975490015
 30
0.0
 42
0.4152494763207579
  0
VERTEX
  5
563
  8
LAYER0
 10
22.84350828318455
 20
-15.4239641299002
 30
0.0
  0
VERTEX
  5
564
  8
LAYER0
 10
52.33466946251298
 20
-15.4239641299002
 30
0.0
  0
SEQEND
  5
6FA
  8
LAYER0
  0
POLYLINE
  5
B2
  8
LAYER0
 66
     1
 10
0.0
 20
0.0
 30
0.0
 70
     1
  0
VERTEX
  5
565
  8
LAYER0
 10
26.203085787407
 20
-11.35094236069874
 30
0.0
  0
VERTEX
  5
566
  8
LAYER0
 10
47.2030857874073
 20
-11.35094236069874
 30
0.0
  0
VERTEX
  5
567
  8
LAYER0
 10
47.2030857874073
 20
0.6490576393014251
 30
0.0
  0
VERTEX
  5
568
  8
LAYER0
 10
26.203085787407
 20
0.6490576393014251
 30
0.0
  0
SEQEND
  5
6FB
  8
LAYER0
  0
POLYLINE
  5
B3
  8
LAYER0
 66
     1
 10
0.0
 20
0.0
 30
0.0
 70
     1
  0
VERTEX
  5
569
  8
LAYER0
 10
93.09548008185885
 20
4.576035870100021
 30
0.0
  0
VERTEX
  5
56A
  8
LAYER0
 10
63.59548008185851
 20
4.576035870100021
 30
0.0
 42
0.4142135623730837
  0
VERTEX
  5
56B
  8
LAYER0
 10
61.09548008185848
 20
2.076035870100007
 30
0.0
  0
VERTEX
  5
56C
  8
LAYER0
 10
61.09548008185848
 20
-12.92397975490015
 30
0.0
 42
0.4152494763207579
  0
VERTEX
  5
56D
  8
LAYER0
 10
63.60431890253045
 20
-15.4239641299002
 30
0.0
  0
VERTEX
  5
56E
  8
LAYER0
 10
93.09548008185885
 20
-15.4239641299002
 30
0.0
  0
SEQEND
  5
6FC
  8
LAYER0
  0
POLYLINE
  5
B4
  8
LAYER0
 66
     1
 10
0.0
 20
0.0
 30
0.0
 70
     1
  0
VERTEX
  5
56F
  8
LAYER0
 10
66.9638964067529
 20
-11.35094236069874
 30
0.0
  0
VERTEX
  5
570
  8
LAYER0
 10
87.96389640675318
 20
-11.35094236069874
 30
0.0
  0
VERTEX
  5
571
  8
LAYER0
 10
87.96389640675318
 20
0.6490576393014251
 30
0.0
  0
VERTEX
  5
572
  8
LAYER0
 10
66.9638964067529
 20
0.6490576393014251
 30
0.0
  0
SEQEND
  5
6FD
  8
LAYER0
  0
POLYLINE
  5
B5
  8
LAYER0
 66
     1
 10
0.0
 20
0.0
 30
0.0
 70
     1
  0
VERTEX
  5
573
  8
LAYER0
 10
93.09548008185885
 20
4.576035870100021
 30
0.0
  0
VERTEX
  5
574
  8
LAYER0
 10
63.59548008185851
 20
4.576035870100021
 30
0.0
 42
0.4142135623730837
  0
VERTEX
  5
575
  8
LAYER0
 10
61.09548008185848
 20
2.076035870100007
 30
0.0
  0
VERTEX
  5
576
  8
LAYER0
 10
61.09548008185848
 20
-12.92397975490015
 30
0.0
 42
0.4152494763207579
  0
VERTEX
  5
577
  8
LAYER0
 10
63.60431890253045
 20
-15.4239641299002
 30
0.0
  0
VERTEX
  5
578
  8
LAYER0
 10
93.09548008185885
 20
-15.4239641299002
 30
0.0
  0
SEQEND
  5
6FE
  8
LAYER0
  0
POLYLINE
  5
B6
  8
LAYER0
 66
     1
 10
0.0
 20
0.0
 30
0.0
 70
     1
  0
VERTEX
  5
579
  8
LAYER0
 10
66.9638964067529
 20
-11.35094236069874
 30
0.0
  0
VERTEX
  5
57A
  8
LAYER0
 10
87.96389640675318
 20
-11.35094236069874
 30
0.0
  0
VERTEX
  5
57B
  8
LAYER0
 10
87.96389640675318
 20
0.6490576393014251
 30
0.0
  0
VERTEX
  5
57C
  8
LAYER0
 10
66.9638964067529
 20
0.6490576393014251
 30
0.0
  0
SEQEND
  5
6FF
  8
LAYER0
  0
POLYLINE
  5
B7
  8
LAYER0
 66
     1
 10
0.0
 20
0.0
 30
0.0
 70
     1
  0
VERTEX
  5
57D
  8
LAYER0
 10
-67.68393439902333
 20
34.46729699095255
 30
0.0
  0
VERTEX
  5
57E
  8
LAYER0
 10
-97.18393439902019
 20
34.46729699095374
 30
0.0
 42
0.4142141797748344
  0
VERTEX
  5
57F
  8
LAYER0
 10
-99.68393439902066
 20
31.96729172109444
 30
0.0
  0
VERTEX
  5
580
  8
LAYER0
 10
-99.68393439902296
 20
16.96728061312018
 30
0.0
 42
0.4152741477298926
  0
VERTEX
  5
581
  8
LAYER0
 10
-97.17488515222959
 20
14.46729699095233
 30
0.0
  0
VERTEX
  5
582
  8
LAYER0
 10
-67.68393439902333
 20
14.46729699095233
 30
0.0
  0
SEQEND
  5
700
  8
LAYER0
  0
POLYLINE
  5
B8
  8
LAYER0
 66
     1
 10
0.0
 20
0.0
 30
0.0
 70
     1
  0
VERTEX
  5
583
  8
LAYER0
 10
-94.3494416046873
 20
18.6313296089534
 30
0.0
  0
VERTEX
  5
584
  8
LAYER0
 10
-73.3494416046873
 20
18.6313296089534
 30
0.0
  0
VERTEX
  5
585
  8
LAYER0
 10
-73.3494416046873
 20
30.63132960895356
 30
0.0
  0
VERTEX
  5
586
  8
LAYER0
 10
-94.3494416046873
 20
30.63132960895356
 30
0.0
  0
SEQEND
  5
701
  8
LAYER0
  0
POLYLINE
  5
B9
  8
LAYER0
 66
     1
 10
0.0
 20
0.0
 30
0.0
 70
     1
  0
VERTEX
  5
587
  8
LAYER0
 10
-67.68393439902333
 20
34.46729699095255
 30
0.0
  0
VERTEX
  5
588
  8
LAYER0
 10
-97.18393439902019
 20
34.46729699095374
 30
0.0
 42
0.4142141797748344
  0
VERTEX
  5
589
  8
LAYER0
 10
-99.68393439902066
 20
31.96729172109444
 30
0.0
  0
VERTEX
  5
58A
  8
LAYER0
 10
-99.68393439902296
 20
16.96728061312018
 30
0.0
 42
0.4152741477298926
  0
VERTEX
  5
58B
  8
LAYER0
 10
-97.17488515222959
 20
14.46729699095233
 30
0.0
  0
VERTEX
  5
58C
  8
LAYER0
 10
-67.68393439902333
 20
14.46729699095233
 30
0.0
  0
SEQEND
  5
702
  8
LAYER0
  0
POLYLINE
  5
BA
  8
LAYER0
 66
     1
 10
0.0
 20
0.0
 30
0.0
 70
     1
  0
VERTEX
  5
58D
  8
LAYER0
 10
-94.3494416046873
 20
18.6313296089534
 30
0.0
  0
VERTEX
  5
58E
  8
LAYER0
 10
-73.3494416046873
 20
18.6313296089534
 30
0.0
  0
VERTEX
  5
58F
  8
LAYER0
 10
-73.3494416046873
 20
30.63132960895356
 30
0.0
  0
VERTEX
  5
590
  8
LAYER0
 10
-94.3494416046873
 20
30.63132960895356
 30
0.0
  0
SEQEND
  5
703
  8
LAYER0
  0
POLYLINE
  5
BB
  8
LAYER0
 66
     1
 10
0.0
 20
0.0
 30
0.0
 70
     1
  0
VERTEX
  5
591
  8
LAYER0
 10
-27.29305809946807
 20
34.46729699095374
 30
0.0
  0
VERTEX
  5
592
  8
LAYER0
 10
-56.793058099468
 20
34.46729699095374
 30
0.0
 42
0.4142135623730837
  0
VERTEX
  5
593
  8
LAYER0
 10
-59.29305809946801
 20
31.96729699095373
 30
0.0
  0
VERTEX
  5
594
  8
LAYER0
 10
-59.29305809946801
 20
16.96728136595357
 30
0.0
 42
0.4152494763207579
  0
VERTEX
  5
595
  8
LAYER0
 10
-56.78421927879603
 20
14.46729699095352
 30
0.0
  0
VERTEX
  5
596
  8
LAYER0
 10
-27.29305809946807
 20
14.46729699095352
 30
0.0
  0
SEQEND
  5
704
  8
LAYER0
  0
POLYLINE
  5
BC
  8
LAYER0
 66
     1
 10
0.0
 20
0.0
 30
0.0
 70
     1
  0
VERTEX
  5
597
  8
LAYER0
 10
-53.42464177457363
 20
18.54031876015498
 30
0.0
  0
VERTEX
  5
598
  8
LAYER0
 10
-32.42464177457367
 20
18.54031876015498
 30
0.0
  0
VERTEX
  5
599
  8
LAYER0
 10
-32.42464177457367
 20
30.54031876015515
 30
0.0
  0
VERTEX
  5
59A
  8
LAYER0
 10
-53.42464177457363
 20
30.54031876015515
 30
0.0
  0
SEQEND
  5
705
  8
LAYER0
  0
POLYLINE
  5
BD
  8
LAYER0
 66
     1
 10
0.0
 20
0.0
 30
0.0
 70
     1
  0
VERTEX
  5
59B
  8
LAYER0
 10
-27.29305809946807
 20
34.46729699095374
 30
0.0
  0
VERTEX
  5
59C
  8
LAYER0
 10
-56.793058099468
 20
34.46729699095374
 30
0.0
 42
0.4142135623730837
  0
VERTEX
  5
59D
  8
LAYER0
 10
-59.29305809946801
 20
31.96729699095373
 30
0.0
  0
VERTEX
  5
59E
  8
LAYER0
 10
-59.29305809946801
 20
16.96728136595357
 30
0.0
 42
0.4152494763207579
  0
VERTEX
  5
59F
  8
LAYER0
 10
-56.78421927879603
 20
14.46729699095352
 30
0.0
  0
VERTEX
  5
5A0
  8
LAYER0
 10
-27.29305809946807
 20
14.46729699095352
 30
0.0
  0
SEQEND
  5
706
  8
LAYER0
  0
POLYLINE
  5
BE
  8
LAYER0
 66
     1
 10
0.0
 20
0.0
 30
0.0
 70
     1
  0
VERTEX
  5
5A1
  8
LAYER0
 10
-53.42464177457363
 20
18.54031876015498
 30
0.0
  0
VERTEX
  5
5A2
  8
LAYER0
 10
-32.42464177457367
 20
18.54031876015498
 30
0.0
  0
VERTEX
  5
5A3
  8
LAYER0
 10
-32.42464177457367
 20
30.54031876015515
 30
0.0
  0
VERTEX
  5
5A4
  8
LAYER0
 10
-53.42464177457363
 20
30.54031876015515
 30
0.0
  0
SEQEND
  5
707
  8
LAYER0
  0
POLYLINE
  5
BF
  8
LAYER0
 66
     1
 10
0.0
 20
0.0
 30
0.0
 70
     1
  0
VERTEX
  5
5A5
  8
LAYER0
 10
11.94379316295724
 20
34.46729699095255
 30
0.0
  0
VERTEX
  5
5A6
  8
LAYER0
 10
-17.55620683703963
 20
34.46729699095374
 30
0.0
 42
0.4142141797748344
  0
VERTEX
  5
5A7
  8
LAYER0
 10
-20.0562068370401
 20
31.96729172109444
 30
0.0
  0
VERTEX
  5
5A8
  8
LAYER0
 10
-20.0562068370424
 20
16.96728061312018
 30
0.0
 42
0.4152741477298926
  0
VERTEX
  5
5A9
  8
LAYER0
 10
-17.54715759024903
 20
14.46729699095233
 30
0.0
  0
VERTEX
  5
5AA
  8
LAYER0
 10
11.94379316295724
 20
14.46729699095233
 30
0.0
  0
SEQEND
  5
708
  8
LAYER0
  0
POLYLINE
  5
C0
  8
LAYER0
 66
     1
 10
0.0
 20
0.0
 30
0.0
 70
     1
  0
VERTEX
  5
5AB
  8
LAYER0
 10
-14.72171404270674
 20
18.6313296089534
 30
0.0
  0
VERTEX
  5
5AC
  8
LAYER0
 10
6.27828595729326
 20
18.6313296089534
 30
0.0
  0
VERTEX
  5
5AD
  8
LAYER0
 10
6.27828595729326
 20
30.63132960895356
 30
0.0
  0
VERTEX
  5
5AE
  8
LAYER0
 10
-14.72171404270674
 20
30.63132960895356
 30
0.0
  0
SEQEND
  5
709
  8
LAYER0
  0
POLYLINE
  5
C1
  8
LAYER0
 66
     1
 10
0.0
 20
0.0
 30
0.0
 70
     1
  0
VERTEX
  5
5AF
  8
LAYER0
 10
11.94379316295724
 20
34.46729699095255
 30
0.0
  0
VERTEX
  5
5B0
  8
LAYER0
 10
-17.55620683703963
 20
34.46729699095374
 30
0.0
 42
0.4142141797748344
  0
VERTEX
  5
5B1
  8
LAYER0
 10
-20.0562068370401
 20
31.96729172109444
 30
0.0
  0
VERTEX
  5
5B2
  8
LAYER0
 10
-20.0562068370424
 20
16.96728061312018
 30
0.0
 42
0.4152741477298926
  0
VERTEX
  5
5B3
  8
LAYER0
 10
-17.54715759024903
 20
14.46729699095233
 30
0.0
  0
VERTEX
  5
5B4
  8
LAYER0
 10
11.94379316295724
 20
14.46729699095233
 30
0.0
  0
SEQEND
  5
70A
  8
LAYER0
  0
POLYLINE
  5
C2
  8
LAYER0
 66
     1
 10
0.0
 20
0.0
 30
0.0
 70
     1
  0
VERTEX
  5
5B5
  8
LAYER0
 10
-14.72171404270674
 20
18.6313296089534
 30
0.0
  0
VERTEX
  5
5B6
  8
LAYER0
 10
6.27828595729326
 20
18.6313296089534
 30
0.0
  0
VERTEX
  5
5B7
  8
LAYER0
 10
6.27828595729326
 20
30.63132960895356
 30
0.0
  0
VERTEX
  5
5B8
  8
LAYER0
 10
-14.72171404270674
 20
30.63132960895356
 30
0.0
  0
SEQEND
  5
70B
  8
LAYER0
  0
POLYLINE
  5
C3
  8
LAYER0
 66
     1
 10
0.0
 20
0.0
 30
0.0
 70
     1
  0
VERTEX
  5
5B9
  8
LAYER0
 10
52.33466946251298
 20
34.46729699095374
 30
0.0
  0
VERTEX
  5
5BA
  8
LAYER0
 10
22.83466946251261
 20
34.46729699095374
 30
0.0
 42
0.4142135623730837
  0
VERTEX
  5
5BB
  8
LAYER0
 10
20.33466946251258
 20
31.96729699095373
 30
0.0
  0
VERTEX
  5
5BC
  8
LAYER0
 10
20.33466946251258
 20
16.96728136595357
 30
0.0
 42
0.4152494763207579
  0
VERTEX
  5
5BD
  8
LAYER0
 10
22.84350828318455
 20
14.46729699095352
 30
0.0
  0
VERTEX
  5
5BE
  8
LAYER0
 10
52.33466946251298
 20
14.46729699095352
 30
0.0
  0
SEQEND
  5
70C
  8
LAYER0
  0
POLYLINE
  5
C4
  8
LAYER0
 66
     1
 10
0.0
 20
0.0
 30
0.0
 70
     1
  0
VERTEX
  5
5BF
  8
LAYER0
 10
26.203085787407
 20
18.54031876015498
 30
0.0
  0
VERTEX
  5
5C0
  8
LAYER0
 10
47.2030857874073
 20
18.54031876015498
 30
0.0
  0
VERTEX
  5
5C1
  8
LAYER0
 10
47.2030857874073
 20
30.54031876015515
 30
0.0
  0
VERTEX
  5
5C2
  8
LAYER0
 10
26.203085787407
 20
30.54031876015515
 30
0.0
  0
SEQEND
  5
70D
  8
LAYER0
  0
POLYLINE
  5
C5
  8
LAYER0
 66
     1
 10
0.0
 20
0.0
 30
0.0
 70
     1
  0
VERTEX
  5
5C3
  8
LAYER0
 10
52.33466946251298
 20
34.46729699095374
 30
0.0
  0
VERTEX
  5
5C4
  8
LAYER0
 10
22.83466946251261
 20
34.46729699095374
 30
0.0
 42
0.4142135623730837
  0
VERTEX
  5
5C5
  8
LAYER0
 10
20.33466946251258
 20
31.96729699095373
 30
0.0
  0
VERTEX
  5
5C6
  8
LAYER0
 10
20.33466946251258
 20
16.96728136595357
 30
0.0
 42
0.4152494763207579
  0
VERTEX
  5
5C7
  8
LAYER0
 10
22.84350828318455
 20
14.46729699095352
 30
0.0
  0
VERTEX
  5
5C8
  8
LAYER0
 10
52.33466946251298
 20
14.46729699095352
 30
0.0
  0
SEQEND
  5
70E
  8
LAYER0
  0
POLYLINE
  5
C6
  8
LAYER0
 66
     1
 10
0.0
 20
0.0
 30
0.0
 70
     1
  0
VERTEX
  5
5C9
  8
LAYER0
 10
26.203085787407
 20
18.54031876015498
 30
0.0
  0
VERTEX
  5
5CA
  8
LAYER0
 10
47.2030857874073
 20
18.54031876015498
 30
0.0
  0
VERTEX
  5
5CB
  8
LAYER0
 10
47.2030857874073
 20
30.54031876015515
 30
0.0
  0
VERTEX
  5
5CC
  8
LAYER0
 10
26.203085787407
 20
30.54031876015515
 30
0.0
  0
SEQEND
  5
70F
  8
LAYER0
  0
POLYLINE
  5
C7
  8
LAYER0
 66
     1
 10
0.0
 20
0.0
 30
0.0
 70
     1
  0
VERTEX
  5
5CD
  8
LAYER0
 10
93.09548008185885
 20
34.46729699095374
 30
0.0
  0
VERTEX
  5
5CE
  8
LAYER0
 10
63.59548008185851
 20
34.46729699095374
 30
0.0
 42
0.4142135623730837
  0
VERTEX
  5
5CF
  8
LAYER0
 10
61.09548008185848
 20
31.96729699095373
 30
0.0
  0
VERTEX
  5
5D0
  8
LAYER0
 10
61.09548008185848
 20
16.96728136595357
 30
0.0
 42
0.4152494763207579
  0
VERTEX
  5
5D1
  8
LAYER0
 10
63.60431890253045
 20
14.46729699095352
 30
0.0
  0
VERTEX
  5
5D2
  8
LAYER0
 10
93.09548008185885
 20
14.46729699095352
 30
0.0
  0
SEQEND
  5
710
  8
LAYER0
  0
POLYLINE
  5
C8
  8
LAYER0
 66
     1
 10
0.0
 20
0.0
 30
0.0
 70
     1
  0
VERTEX
  5
5D3
  8
LAYER0
 10
66.9638964067529
 20
18.54031876015498
 30
0.0
  0
VERTEX
  5
5D4
  8
LAYER0
 10
87.96389640675318
 20
18.54031876015498
 30
0.0
  0
VERTEX
  5
5D5
  8
LAYER0
 10
87.96389640675318
 20
30.54031876015515
 30
0.0
  0
VERTEX
  5
5D6
  8
LAYER0
 10
66.9638964067529
 20
30.54031876015515
 30
0.0
  0
SEQEND
  5
711
  8
LAYER0
  0
POLYLINE
  5
C9
  8
LAYER0
 66
     1
 10
0.0
 20
0.0
 30
0.0
 70
     1
  0
VERTEX
  5
5D7
  8
LAYER0
 10
93.09548008185885
 20
34.46729699095374
 30
0.0
  0
VERTEX
  5
5D8
  8
LAYER0
 10
63.59548008185851
 20
34.46729699095374
 30
0.0
 42
0.4142135623730837
  0
VERTEX
  5
5D9
  8
LAYER0
 10
61.09548008185848
 20
31.96729699095373
 30
0.0
  0
VERTEX
  5
5DA
  8
LAYER0
 10
61.09548008185848
 20
16.96728136595357
 30
0.0
 42
0.4152494763207579
  0
VERTEX
  5
5DB
  8
LAYER0
 10
63.60431890253045
 20
14.46729699095352
 30
0.0
  0
VERTEX
  5
5DC
  8
LAYER0
 10
93.09548008185885
 20
14.46729699095352
 30
0.0
  0
SEQEND
  5
712
  8
LAYER0
  0
POLYLINE
  5
CA
  8
LAYER0
 66
     1
 10
0.0
 20
0.0
 30
0.0
 70
     1
  0
VERTEX
  5
5DD
  8
LAYER0
 10
66.9638964067529
 20
18.54031876015498
 30
0.0
  0
VERTEX
  5
5DE
  8
LAYER0
 10
87.96389640675318
 20
18.54031876015498
 30
0.0
  0
VERTEX
  5
5DF
  8
LAYER0
 10
87.96389640675318
 20
30.54031876015515
 30
0.0
  0
VERTEX
  5
5E0
  8
LAYER0
 10
66.9638964067529
 20
30.54031876015515
 30
0.0
  0
SEQEND
  5
713
  8
LAYER0
  0
POLYLINE
  5
CB
  8
LAYER0
 66
     1
 10
0.0
 20
0.0
 30
0.0
 70
     1
  0
VERTEX
  5
5E1
  8
LAYER0
 10
-67.68393439902333
 20
62.99986442449466
 30
0.0
  0
VERTEX
  5
5E2
  8
LAYER0
 10
-97.18393439902019
 20
62.99986442449585
 30
0.0
 42
0.4142141797748344
  0
VERTEX
  5
5E3
  8
LAYER0
 10
-99.68393439902066
 20
60.49985915463655
 30
0.0
  0
VERTEX
  5
5E4
  8
LAYER0
 10
-99.68393439902296
 20
45.49984804666231
 30
0.0
 42
0.4152741477298926
  0
VERTEX
  5
5E5
  8
LAYER0
 10
-97.17488515222959
 20
42.99986442449446
 30
0.0
  0
VERTEX
  5
5E6
  8
LAYER0
 10
-67.68393439902333
 20
42.99986442449446
 30
0.0
  0
SEQEND
  5
714
  8
LAYER0
  0
POLYLINE
  5
CC
  8
LAYER0
 66
     1
 10
0.0
 20
0.0
 30
0.0
 70
     1
  0
VERTEX
  5
5E7
  8
LAYER0
 10
-94.3494416046873
 20
47.16389704249553
 30
0.0
  0
VERTEX
  5
5E8
  8
LAYER0
 10
-73.3494416046873
 20
47.16389704249553
 30
0.0
  0
VERTEX
  5
5E9
  8
LAYER0
 10
-73.3494416046873
 20
59.16389704249569
 30
0.0
  0
VERTEX
  5
5EA
  8
LAYER0
 10
-94.3494416046873
 20
59.16389704249569
 30
0.0
  0
SEQEND
  5
715
  8
LAYER0
  0
POLYLINE
  5
CD
  8
LAYER0
 66
     1
 10
0.0
 20
0.0
 30
0.0
 70
     1
  0
VERTEX
  5
5EB
  8
LAYER0
 10
-67.68393439902333
 20
62.99986442449466
 30
0.0
  0
VERTEX
  5
5EC
  8
LAYER0
 10
-97.18393439902019
 20
62.99986442449585
 30
0.0
 42
0.4142141797748344
  0
VERTEX
  5
5ED
  8
LAYER0
 10
-99.68393439902066
 20
60.49985915463655
 30
0.0
  0
VERTEX
  5
5EE
  8
LAYER0
 10
-99.68393439902296
 20
45.49984804666231
 30
0.0
 42
0.4152741477298926
  0
VERTEX
  5
5EF
  8
LAYER0
 10
-97.17488515222959
 20
42.99986442449446
 30
0.0
  0
VERTEX
  5
5F0
  8
LAYER0
 10
-67.68393439902333
 20
42.99986442449446
 30
0.0
  0
SEQEND
  5
716
  8
LAYER0
  0
POLYLINE
  5
CE
  8
LAYER0
 66
     1
 10
0.0
 20
0.0
 30
0.0
 70
     1
  0
VERTEX
  5
5F1
  8
LAYER0
 10
-94.3494416046873
 20
47.16389704249553
 30
0.0
  0
VERTEX
  5
5F2
  8
LAYER0
 10
-73.3494416046873
 20
47.16389704249553
 30
0.0
  0
VERTEX
  5
5F3
  8
LAYER0
 10
-73.3494416046873
 20
59.16389704249569
 30
0.0
  0
VERTEX
  5
5F4
  8
LAYER0
 10
-94.3494416046873
 20
59.16389704249569
 30
0.0
  0
SEQEND
  5
717
  8
LAYER0
  0
POLYLINE
  5
CF
  8
LAYER0
 66
     1
 10
0.0
 20
0.0
 30
0.0
 70
     1
  0
VERTEX
  5
5F5
  8
LAYER0
 10
-27.29305809946807
 20
62.99986442449585
 30
0.0
  0
VERTEX
  5
5F6
  8
LAYER0
 10
-56.793058099468
 20
62.99986442449585
 30
0.0
 42
0.4142135623730837
  0
VERTEX
  5
5F7
  8
LAYER0
 10
-59.29305809946801
 20
60.49986442449584
 30
0.0
  0
VERTEX
  5
5F8
  8
LAYER0
 10
-59.29305809946801
 20
45.49984879949569
 30
0.0
 42
0.4152494763207579
  0
VERTEX
  5
5F9
  8
LAYER0
 10
-56.78421927879603
 20
42.99986442449566
 30
0.0
  0
VERTEX
  5
5FA
  8
LAYER0
 10
-27.29305809946807
 20
42.99986442449566
 30
0.0
  0
SEQEND
  5
718
  8
LAYER0
  0
POLYLINE
  5
D0
  8
LAYER0
 66
     1
 10
0.0
 20
0.0
 30
0.0
 70
     1
  0
VERTEX
  5
5FB
  8
LAYER0
 10
-53.42464177457363
 20
47.07288619369711
 30
0.0
  0
VERTEX
  5
5FC
  8
LAYER0
 10
-32.42464177457367
 20
47.07288619369711
 30
0.0
  0
VERTEX
  5
5FD
  8
LAYER0
 10
-32.42464177457367
 20
59.07288619369727
 30
0.0
  0
VERTEX
  5
5FE
  8
LAYER0
 10
-53.42464177457363
 20
59.07288619369727
 30
0.0
  0
SEQEND
  5
719
  8
LAYER0
  0
POLYLINE
  5
D1
  8
LAYER0
 66
     1
 10
0.0
 20
0.0
 30
0.0
 70
     1
  0
VERTEX
  5
5FF
  8
LAYER0
 10
-27.29305809946807
 20
62.99986442449585
 30
0.0
  0
VERTEX
  5
600
  8
LAYER0
 10
-56.793058099468
 20
62.99986442449585
 30
0.0
 42
0.4142135623730837
  0
VERTEX
  5
601
  8
LAYER0
 10
-59.29305809946801
 20
60.49986442449584
 30
0.0
  0
VERTEX
  5
602
  8
LAYER0
 10
-59.29305809946801
 20
45.49984879949569
 30
0.0
 42
0.4152494763207579
  0
VERTEX
  5
603
  8
LAYER0
 10
-56.78421927879603
 20
42.99986442449566
 30
0.0
  0
VERTEX
  5
604
  8
LAYER0
 10
-27.29305809946807
 20
42.99986442449566
 30
0.0
  0
SEQEND
  5
71A
  8
LAYER0
  0
POLYLINE
  5
D2
  8
LAYER0
 66
     1
 10
0.0
 20
0.0
 30
0.0
 70
     1
  0
VERTEX
  5
605
  8
LAYER0
 10
-53.42464177457363
 20
47.07288619369711
 30
0.0
  0
VERTEX
  5
606
  8
LAYER0
 10
-32.42464177457367
 20
47.07288619369711
 30
0.0
  0
VERTEX
  5
607
  8
LAYER0
 10
-32.42464177457367
 20
59.07288619369727
 30
0.0
  0
VERTEX
  5
608
  8
LAYER0
 10
-53.42464177457363
 20
59.07288619369727
 30
0.0
  0
SEQEND
  5
71B
  8
LAYER0
  0
POLYLINE
  5
D3
  8
LAYER0
 66
     1
 10
0.0
 20
0.0
 30
0.0
 70
     1
  0
VERTEX
  5
609
  8
LAYER0
 10
11.94379316295724
 20
62.99986442449466
 30
0.0
  0
VERTEX
  5
60A
  8
LAYER0
 10
-17.55620683703963
 20
62.99986442449585
 30
0.0
 42
0.4142141797748344
  0
VERTEX
  5
60B
  8
LAYER0
 10
-20.0562068370401
 20
60.49985915463655
 30
0.0
  0
VERTEX
  5
60C
  8
LAYER0
 10
-20.0562068370424
 20
45.49984804666231
 30
0.0
 42
0.4152741477298926
  0
VERTEX
  5
60D
  8
LAYER0
 10
-17.54715759024903
 20
42.99986442449446
 30
0.0
  0
VERTEX
  5
60E
  8
LAYER0
 10
11.94379316295724
 20
42.99986442449446
 30
0.0
  0
SEQEND
  5
71C
  8
LAYER0
  0
POLYLINE
  5
D4
  8
LAYER0
 66
     1
 10
0.0
 20
0.0
 30
0.0
 70
     1
  0
VERTEX
  5
60F
  8
LAYER0
 10
-14.72171404270674
 20
47.16389704249553
 30
0.0
  0
VERTEX
  5
610
  8
LAYER0
 10
6.27828595729326
 20
47.16389704249553
 30
0.0
  0
VERTEX
  5
611
  8
LAYER0
 10
6.27828595729326
 20
59.16389704249569
 30
0.0
  0
VERTEX
  5
612
  8
LAYER0
 10
-14.72171404270674
 20
59.16389704249569
 30
0.0
  0
SEQEND
  5
71D
  8
LAYER0
  0
POLYLINE
  5
D5
  8
LAYER0
 66
     1
 10
0.0
 20
0.0
 30
0.0
 70
     1
  0
VERTEX
  5
613
  8
LAYER0
 10
11.94379316295724
 20
62.99986442449466
 30
0.0
  0
VERTEX
  5
614
  8
LAYER0
 10
-17.55620683703963
 20
62.99986442449585
 30
0.0
 42
0.4142141797748344
  0
VERTEX
  5
615
  8
LAYER0
 10
-20.0562068370401
 20
60.49985915463655
 30
0.0
  0
VERTEX
  5
616
  8
LAYER0
 10
-20.0562068370424
 20
45.49984804666231
 30
0.0
 42
0.4152741477298926
  0
VERTEX
  5
617
  8
LAYER0
 10
-17.54715759024903
 20
42.99986442449446
 30
0.0
  0
VERTEX
  5
618
  8
LAYER0
 10
11.94379316295724
 20
42.99986442449446
 30
0.0
  0
SEQEND
  5
71E
  8
LAYER0
  0
POLYLINE
  5
D6
  8
LAYER0
 66
     1
 10
0.0
 20
0.0
 30
0.0
 70
     1
  0
VERTEX
  5
619
  8
LAYER0
 10
-14.72171404270674
 20
47.16389704249553
 30
0.0
  0
VERTEX
  5
61A
  8
LAYER0
 10
6.27828595729326
 20
47.16389704249553
 30
0.0
  0
VERTEX
  5
61B
  8
LAYER0
 10
6.27828595729326
 20
59.16389704249569
 30
0.0
  0
VERTEX
  5
61C
  8
LAYER0
 10
-14.72171404270674
 20
59.16389704249569
 30
0.0
  0
SEQEND
  5
71F
  8
LAYER0
  0
POLYLINE
  5
D7
  8
LAYER0
 66
     1
 10
0.0
 20
0.0
 30
0.0
 70
     1
  0
VERTEX
  5
61D
  8
LAYER0
 10
52.33466946251298
 20
62.99986442449585
 30
0.0
  0
VERTEX
  5
61E
  8
LAYER0
 10
22.83466946251261
 20
62.99986442449585
 30
0.0
 42
0.4142135623730837
  0
VERTEX
  5
61F
  8
LAYER0
 10
20.33466946251258
 20
60.49986442449584
 30
0.0
  0
VERTEX
  5
620
  8
LAYER0
 10
20.33466946251258
 20
45.49984879949569
 30
0.0
 42
0.4152494763207579
  0
VERTEX
  5
621
  8
LAYER0
 10
22.84350828318455
 20
42.99986442449566
 30
0.0
  0
VERTEX
  5
622
  8
LAYER0
 10
52.33466946251298
 20
42.99986442449566
 30
0.0
  0
SEQEND
  5
720
  8
LAYER0
  0
POLYLINE
  5
D8
  8
LAYER0
 66
     1
 10
0.0
 20
0.0
 30
0.0
 70
     1
  0
VERTEX
  5
623
  8
LAYER0
 10
26.203085787407
 20
47.07288619369711
 30
0.0
  0
VERTEX
  5
624
  8
LAYER0
 10
47.2030857874073
 20
47.07288619369711
 30
0.0
  0
VERTEX
  5
625
  8
LAYER0
 10
47.2030857874073
 20
59.07288619369727
 30
0.0
  0
VERTEX
  5
626
  8
LAYER0
 10
26.203085787407
 20
59.07288619369727
 30
0.0
  0
SEQEND
  5
721
  8
LAYER0
  0
POLYLINE
  5
D9
  8
LAYER0
 66
     1
 10
0.0
 20
0.0
 30
0.0
 70
     1
  0
VERTEX
  5
627
  8
LAYER0
 10
52.33466946251298
 20
62.99986442449585
 30
0.0
  0
VERTEX
  5
628
  8
LAYER0
 10
22.83466946251261
 20
62.99986442449585
 30
0.0
 42
0.4142135623730837
  0
VERTEX
  5
629
  8
LAYER0
 10
20.33466946251258
 20
60.49986442449584
 30
0.0
  0
VERTEX
  5
62A
  8
LAYER0
 10
20.33466946251258
 20
45.49984879949569
 30
0.0
 42
0.4152494763207579
  0
VERTEX
  5
62B
  8
LAYER0
 10
22.84350828318455
 20
42.99986442449566
 30
0.0
  0
VERTEX
  5
62C
  8
LAYER0
 10
52.33466946251298
 20
42.99986442449566
 30
0.0
  0
SEQEND
  5
722
  8
LAYER0
  0
POLYLINE
  5
DA
  8
LAYER0
 66
     1
 10
0.0
 20
0.0
 30
0.0
 70
     1
  0
VERTEX
  5
62D
  8
LAYER0
 10
26.203085787407
 20
47.07288619369711
 30
0.0
  0
VERTEX
  5
62E
  8
LAYER0
 10
47.2030857874073
 20
47.07288619369711
 30
0.0
  0
VERTEX
  5
62F
  8
LAYER0
 10
47.2030857874073
 20
59.07288619369727
 30
0.0
  0
VERTEX
  5
630
  8
LAYER0
 10
26.203085787407
 20
59.07288619369727
 30
0.0
  0
SEQEND
  5
723
  8
LAYER0
  0
POLYLINE
  5
DB
  8
LAYER0
 66
     1
 10
0.0
 20
0.0
 30
0.0
 70
     1
  0
VERTEX
  5
631
  8
LAYER0
 10
93.09548008185885
 20
62.99986442449585
 30
0.0
  0
VERTEX
  5
632
  8
LAYER0
 10
63.59548008185851
 20
62.99986442449585
 30
0.0
 42
0.4142135623730837
  0
VERTEX
  5
633
  8
LAYER0
 10
61.09548008185848
 20
60.49986442449584
 30
0.0
  0
VERTEX
  5
634
  8
LAYER0
 10
61.09548008185848
 20
45.49984879949569
 30
0.0
 42
0.4152494763207579
  0
VERTEX
  5
635
  8
LAYER0
 10
63.60431890253045
 20
42.99986442449566
 30
0.0
  0
VERTEX
  5
636
  8
LAYER0
 10
93.09548008185885
 20
42.99986442449566
 30
0.0
  0
SEQEND
  5
724
  8
LAYER0
  0
POLYLINE
  5
DC
  8
LAYER0
 66
     1
 10
0.0
 20
0.0
 30
0.0
 70
     1
  0
VERTEX
  5
637
  8
LAYER0
 10
66.9638964067529
 20
47.07288619369711
 30
0.0
  0
VERTEX
  5
638
  8
LAYER0
 10
87.96389640675318
 20
47.07288619369711
 30
0.0
  0
VERTEX
  5
639
  8
LAYER0
 10
87.96389640675318
 20
59.07288619369727
 30
0.0
  0
VERTEX
  5
63A
  8
LAYER0
 10
66.9638964067529
 20
59.07288619369727
 30
0.0
  0
SEQEND
  5
725
  8
LAYER0
  0
POLYLINE
  5
DD
  8
LAYER0
 66
     1
 10
0.0
 20
0.0
 30
0.0
 70
     1
  0
VERTEX
  5
63B
  8
LAYER0
 10
93.09548008185885
 20
62.99986442449585
 30
0.0
  0
VERTEX
  5
63C
  8
LAYER0
 10
63.59548008185851
 20
62.99986442449585
 30
0.0
 42
0.4142135623730837
  0
VERTEX
  5
63D
  8
LAYER0
 10
61.09548008185848
 20
60.49986442449584
 30
0.0
  0
VERTEX
  5
63E
  8
LAYER0
 10
61.09548008185848
 20
45.49984879949569
 30
0.0
 42
0.4152494763207579
  0
VERTEX
  5
63F
  8
LAYER0
 10
63.60431890253045
 20
42.99986442449566
 30
0.0
  0
VERTEX
  5
640
  8
LAYER0
 10
93.09548008185885
 20
42.99986442449566
 30
0.0
  0
SEQEND
  5
726
  8
LAYER0
  0
POLYLINE
  5
DE
  8
LAYER0
 66
     1
 10
0.0
 20
0.0
 30
0.0
 70
     1
  0
VERTEX
  5
641
  8
LAYER0
 10
66.9638964067529
 20
47.07288619369711
 30
0.0
  0
VERTEX
  5
642
  8
LAYER0
 10
87.96389640675318
 20
47.07288619369711
 30
0.0
  0
VERTEX
  5
643
  8
LAYER0
 10
87.96389640675318
 20
59.07288619369727
 30
0.0
  0
VERTEX
  5
644
  8
LAYER0
 10
66.9638964067529
 20
59.07288619369727
 30
0.0
  0
SEQEND
  5
727
  8
LAYER0
  0
POLYLINE
  5
DF
  8
LAYER0
 66
     1
 10
0.0
 20
0.0
 30
0.0
 70
     1
  0
VERTEX
  5
645
  8
LAYER0
 10
-67.68393439902333
 20
92.8911255453483
 30
0.0
  0
VERTEX
  5
646
  8
LAYER0
 10
-97.18393439902019
 20
92.8911255453495
 30
0.0
 42
0.4142141797748344
  0
VERTEX
  5
647
  8
LAYER0
 10
-99.68393439902066
 20
90.3911202754902
 30
0.0
  0
VERTEX
  5
648
  8
LAYER0
 10
-99.68393439902296
 20
75.39110916751595
 30
0.0
 42
0.4152741477298926
  0
VERTEX
  5
649
  8
LAYER0
 10
-97.17488515222959
 20
72.8911255453481
 30
0.0
  0
VERTEX
  5
64A
  8
LAYER0
 10
-67.68393439902333
 20
72.8911255453481
 30
0.0
  0
SEQEND
  5
728
  8
LAYER0
  0
POLYLINE
  5
E0
  8
LAYER0
 66
     1
 10
0.0
 20
0.0
 30
0.0
 70
     1
  0
VERTEX
  5
64B
  8
LAYER0
 10
-94.3494416046873
 20
77.05515816334918
 30
0.0
  0
VERTEX
  5
64C
  8
LAYER0
 10
-73.3494416046873
 20
77.05515816334918
 30
0.0
  0
VERTEX
  5
64D
  8
LAYER0
 10
-73.3494416046873
 20
89.05515816334933
 30
0.0
  0
VERTEX
  5
64E
  8
LAYER0
 10
-94.3494416046873
 20
89.05515816334933
 30
0.0
  0
SEQEND
  5
729
  8
LAYER0
  0
POLYLINE
  5
E1
  8
LAYER0
 66
     1
 10
0.0
 20
0.0
 30
0.0
 70
     1
  0
VERTEX
  5
64F
  8
LAYER0
 10
-67.68393439902333
 20
92.8911255453483
 30
0.0
  0
VERTEX
  5
650
  8
LAYER0
 10
-97.18393439902019
 20
92.8911255453495
 30
0.0
 42
0.4142141797748344
  0
VERTEX
  5
651
  8
LAYER0
 10
-99.68393439902066
 20
90.3911202754902
 30
0.0
  0
VERTEX
  5
652
  8
LAYER0
 10
-99.68393439902296
 20
75.39110916751595
 30
0.0
 42
0.4152741477298926
  0
VERTEX
  5
653
  8
LAYER0
 10
-97.17488515222959
 20
72.8911255453481
 30
0.0
  0
VERTEX
  5
654
  8
LAYER0
 10
-67.68393439902333
 20
72.8911255453481
 30
0.0
  0
SEQEND
  5
72A
  8
LAYER0
  0
POLYLINE
  5
E2
  8
LAYER0
 66
     1
 10
0.0
 20
0.0
 30
0.0
 70
     1
  0
VERTEX
  5
655
  8
LAYER0
 10
-94.3494416046873
 20
77.05515816334918
 30
0.0
  0
VERTEX
  5
656
  8
LAYER0
 10
-73.3494416046873
 20
77.05515816334918
 30
0.0
  0
VERTEX
  5
657
  8
LAYER0
 10
-73.3494416046873
 20
89.05515816334933
 30
0.0
  0
VERTEX
  5
658
  8
LAYER0
 10
-94.3494416046873
 20
89.05515816334933
 30
0.0
  0
SEQEND
  5
72B
  8
LAYER0
  0
POLYLINE
  5
E3
  8
LAYER0
 66
     1
 10
0.0
 20
0.0
 30
0.0
 70
     1
  0
VERTEX
  5
659
  8
LAYER0
 10
-27.29305809946807
 20
92.8911255453495
 30
0.0
  0
VERTEX
  5
65A
  8
LAYER0
 10
-56.793058099468
 20
92.8911255453495
 30
0.0
 42
0.4142135623730837
  0
VERTEX
  5
65B
  8
LAYER0
 10
-59.29305809946801
 20
90.39112554534948
 30
0.0
  0
VERTEX
  5
65C
  8
LAYER0
 10
-59.29305809946801
 20
75.39110992034934
 30
0.0
 42
0.4152494763207579
  0
VERTEX
  5
65D
  8
LAYER0
 10
-56.78421927879603
 20
72.8911255453493
 30
0.0
  0
VERTEX
  5
65E
  8
LAYER0
 10
-27.29305809946807
 20
72.8911255453493
 30
0.0
  0
SEQEND
  5
72C
  8
LAYER0
  0
POLYLINE
  5
E4
  8
LAYER0
 66
     1
 10
0.0
 20
0.0
 30
0.0
 70
     1
  0
VERTEX
  5
65F
  8
LAYER0
 10
-53.42464177457363
 20
76.96414731455076
 30
0.0
  0
VERTEX
  5
660
  8
LAYER0
 10
-32.42464177457367
 20
76.96414731455076
 30
0.0
  0
VERTEX
  5
661
  8
LAYER0
 10
-32.42464177457367
 20
88.96414731455091
 30
0.0
  0
VERTEX
  5
662
  8
LAYER0
 10
-53.42464177457363
 20
88.96414731455091
 30
0.0
  0
SEQEND
  5
72D
  8
LAYER0
  0
POLYLINE
  5
E5
  8
LAYER0
 66
     1
 10
0.0
 20
0.0
 30
0.0
 70
     1
  0
VERTEX
  5
663
  8
LAYER0
 10
-27.29305809946807
 20
92.8911255453495
 30
0.0
  0
VERTEX
  5
664
  8
LAYER0
 10
-56.793058099468
 20
92.8911255453495
 30
0.0
 42
0.4142135623730837
  0
VERTEX
  5
665
  8
LAYER0
 10
-59.29305809946801
 20
90.39112554534948
 30
0.0
  0
VERTEX
  5
666
  8
LAYER0
 10
-59.29305809946801
 20
75.39110992034934
 30
0.0
 42
0.4152494763207579
  0
VERTEX
  5
667
  8
LAYER0
 10
-56.78421927879603
 20
72.8911255453493
 30
0.0
  0
VERTEX
  5
668
  8
LAYER0
 10
-27.29305809946807
 20
72.8911255453493
 30
0.0
  0
SEQEND
  5
72E
  8
LAYER0
  0
POLYLINE
  5
E6
  8
LAYER0
 66
     1
 10
0.0
 20
0.0
 30
0.0
 70
     1
  0
VERTEX
  5
669
  8
LAYER0
 10
-53.42464177457363
 20
76.96414731455076
 30
0.0
  0
VERTEX
  5
66A
  8
LAYER0
 10
-32.42464177457367
 20
76.96414731455076
 30
0.0
  0
VERTEX
  5
66B
  8
LAYER0
 10
-32.42464177457367
 20
88.96414731455091
 30
0.0
  0
VERTEX
  5
66C
  8
LAYER0
 10
-53.42464177457363
 20
88.96414731455091
 30
0.0
  0
SEQEND
  5
72F
  8
LAYER0
  0
POLYLINE
  5
E7
  8
LAYER0
 66
     1
 10
0.0
 20
0.0
 30
0.0
 70
     1
  0
VERTEX
  5
66D
  8
LAYER0
 10
11.94379316295724
 20
92.8911255453483
 30
0.0
  0
VERTEX
  5
66E
  8
LAYER0
 10
-17.55620683703963
 20
92.8911255453495
 30
0.0
 42
0.4142141797748344
  0
VERTEX
  5
66F
  8
LAYER0
 10
-20.0562068370401
 20
90.3911202754902
 30
0.0
  0
VERTEX
  5
670
  8
LAYER0
 10
-20.0562068370424
 20
75.39110916751595
 30
0.0
 42
0.4152741477298926
  0
VERTEX
  5
671
  8
LAYER0
 10
-17.54715759024903
 20
72.8911255453481
 30
0.0
  0
VERTEX
  5
672
  8
LAYER0
 10
11.94379316295724
 20
72.8911255453481
 30
0.0
  0
SEQEND
  5
730
  8
LAYER0
  0
POLYLINE
  5
E8
  8
LAYER0
 66
     1
 10
0.0
 20
0.0
 30
0.0
 70
     1
  0
VERTEX
  5
673
  8
LAYER0
 10
-14.72171404270674
 20
77.05515816334918
 30
0.0
  0
VERTEX
  5
674
  8
LAYER0
 10
6.27828595729326
 20
77.05515816334918
 30
0.0
  0
VERTEX
  5
675
  8
LAYER0
 10
6.27828595729326
 20
89.05515816334933
 30
0.0
  0
VERTEX
  5
676
  8
LAYER0
 10
-14.72171404270674
 20
89.05515816334933
 30
0.0
  0
SEQEND
  5
731
  8
LAYER0
  0
POLYLINE
  5
E9
  8
LAYER0
 66
     1
 10
0.0
 20
0.0
 30
0.0
 70
     1
  0
VERTEX
  5
677
  8
LAYER0
 10
11.94379316295724
 20
92.8911255453483
 30
0.0
  0
VERTEX
  5
678
  8
LAYER0
 10
-17.55620683703963
 20
92.8911255453495
 30
0.0
 42
0.4142141797748344
  0
VERTEX
  5
679
  8
LAYER0
 10
-20.0562068370401
 20
90.3911202754902
 30
0.0
  0
VERTEX
  5
67A
  8
LAYER0
 10
-20.0562068370424
 20
75.39110916751595
 30
0.0
 42
0.4152741477298926
  0
VERTEX
  5
67B
  8
LAYER0
 10
-17.54715759024903
 20
72.8911255453481
 30
0.0
  0
VERTEX
  5
67C
  8
LAYER0
 10
11.94379316295724
 20
72.8911255453481
 30
0.0
  0
SEQEND
  5
732
  8
LAYER0
  0
POLYLINE
  5
EA
  8
LAYER0
 66
     1
 10
0.0
 20
0.0
 30
0.0
 70
     1
  0
VERTEX
  5
67D
  8
LAYER0
 10
-14.72171404270674
 20
77.05515816334918
 30
0.0
  0
VERTEX
  5
67E
  8
LAYER0
 10
6.27828595729326
 20
77.05515816334918
 30
0.0
  0
VERTEX
  5
67F
  8
LAYER0
 10
6.27828595729326
 20
89.05515816334933
 30
0.0
  0
VERTEX
  5
680
  8
LAYER0
 10
-14.72171404270674
 20
89.05515816334933
 30
0.0
  0
SEQEND
  5
733
  8
LAYER0
  0
POLYLINE
  5
EB
  8
LAYER0
 66
     1
 10
0.0
 20
0.0
 30
0.0
 70
     1
  0
VERTEX
  5
681
  8
LAYER0
 10
52.33466946251298
 20
92.8911255453495
 30
0.0
  0
VERTEX
  5
682
  8
LAYER0
 10
22.83466946251261
 20
92.8911255453495
 30
0.0
 42
0.4142135623730837
  0
VERTEX
  5
683
  8
LAYER0
 10
20.33466946251258
 20
90.39112554534948
 30
0.0
  0
VERTEX
  5
684
  8
LAYER0
 10
20.33466946251258
 20
75.39110992034934
 30
0.0
 42
0.4152494763207579
  0
VERTEX
  5
685
  8
LAYER0
 10
22.84350828318455
 20
72.8911255453493
 30
0.0
  0
VERTEX
  5
686
  8
LAYER0
 10
52.33466946251298
 20
72.8911255453493
 30
0.0
  0
SEQEND
  5
734
  8
LAYER0
  0
POLYLINE
  5
EC
  8
LAYER0
 66
     1
 10
0.0
 20
0.0
 30
0.0
 70
     1
  0
VERTEX
  5
687
  8
LAYER0
 10
26.203085787407
 20
76.96414731455076
 30
0.0
  0
VERTEX
  5
688
  8
LAYER0
 10
47.2030857874073
 20
76.96414731455076
 30
0.0
  0
VERTEX
  5
689
  8
LAYER0
 10
47.2030857874073
 20
88.96414731455091
 30
0.0
  0
VERTEX
  5
68A
  8
LAYER0
 10
26.203085787407
 20
88.96414731455091
 30
0.0
  0
SEQEND
  5
735
  8
LAYER0
  0
POLYLINE
  5
ED
  8
LAYER0
 66
     1
 10
0.0
 20
0.0
 30
0.0
 70
     1
  0
VERTEX
  5
68B
  8
LAYER0
 10
52.33466946251298
 20
92.8911255453495
 30
0.0
  0
VERTEX
  5
68C
  8
LAYER0
 10
22.83466946251261
 20
92.8911255453495
 30
0.0
 42
0.4142135623730837
  0
VERTEX
  5
68D
  8
LAYER0
 10
20.33466946251258
 20
90.39112554534948
 30
0.0
  0
VERTEX
  5
68E
  8
LAYER0
 10
20.33466946251258
 20
75.39110992034934
 30
0.0
 42
0.4152494763207579
  0
VERTEX
  5
68F
  8
LAYER0
 10
22.84350828318455
 20
72.8911255453493
 30
0.0
  0
VERTEX
  5
690
  8
LAYER0
 10
52.33466946251298
 20
72.8911255453493
 30
0.0
  0
SEQEND
  5
736
  8
LAYER0
  0
POLYLINE
  5
EE
  8
LAYER0
 66
     1
 10
0.0
 20
0.0
 30
0.0
 70
     1
  0
VERTEX
  5
691
  8
LAYER0
 10
26.203085787407
 20
76.96414731455076
 30
0.0
  0
VERTEX
  5
692
  8
LAYER0
 10
47.2030857874073
 20
76.96414731455076
 30
0.0
  0
VERTEX
  5
693
  8
LAYER0
 10
47.2030857874073
 20
88.96414731455091
 30
0.0
  0
VERTEX
  5
694
  8
LAYER0
 10
26.203085787407
 20
88.96414731455091
 30
0.0
  0
SEQEND
  5
737
  8
LAYER0
  0
POLYLINE
  5
EF
  8
LAYER0
 66
     1
 10
0.0
 20
0.0
 30
0.0
 70
     1
  0
VERTEX
  5
695
  8
LAYER0
 10
93.09548008185885
 20
92.8911255453495
 30
0.0
  0
VERTEX
  5
696
  8
LAYER0
 10
63.59548008185851
 20
92.8911255453495
 30
0.0
 42
0.4142135623730837
  0
VERTEX
  5
697
  8
LAYER0
 10
61.09548008185848
 20
90.39112554534948
 30
0.0
  0
VERTEX
  5
698
  8
LAYER0
 10
61.09548008185848
 20
75.39110992034934
 30
0.0
 42
0.4152494763207579
  0
VERTEX
  5
699
  8
LAYER0
 10
63.60431890253045
 20
72.8911255453493
 30
0.0
  0
VERTEX
  5
69A
  8
LAYER0
 10
93.09548008185885
 20
72.8911255453493
 30
0.0
  0
SEQEND
  5
738
  8
LAYER0
  0
POLYLINE
  5
F0
  8
LAYER0
 66
     1
 10
0.0
 20
0.0
 30
0.0
 70
     1
  0
VERTEX
  5
69B
  8
LAYER0
 10
66.9638964067529
 20
76.96414731455076
 30
0.0
  0
VERTEX
  5
69C
  8
LAYER0
 10
87.96389640675318
 20
76.96414731455076
 30
0.0
  0
VERTEX
  5
69D
  8
LAYER0
 10
87.96389640675318
 20
88.96414731455091
 30
0.0
  0
VERTEX
  5
69E
  8
LAYER0
 10
66.9638964067529
 20
88.96414731455091
 30
0.0
  0
SEQEND
  5
739
  8
LAYER0
  0
POLYLINE
  5
F1
  8
LAYER0
 66
     1
 10
0.0
 20
0.0
 30
0.0
 70
     1
  0
VERTEX
  5
69F
  8
LAYER0
 10
93.09548008185885
 20
92.8911255453495
 30
0.0
  0
VERTEX
  5
6A0
  8
LAYER0
 10
63.59548008185851
 20
92.8911255453495
 30
0.0
 42
0.4142135623730837
  0
VERTEX
  5
6A1
  8
LAYER0
 10
61.09548008185848
 20
90.39112554534948
 30
0.0
  0
VERTEX
  5
6A2
  8
LAYER0
 10
61.09548008185848
 20
75.39110992034934
 30
0.0
 42
0.4152494763207579
  0
VERTEX
  5
6A3
  8
LAYER0
 10
63.60431890253045
 20
72.8911255453493
 30
0.0
  0
VERTEX
  5
6A4
  8
LAYER0
 10
93.09548008185885
 20
72.8911255453493
 30
0.0
  0
SEQEND
  5
73A
  8
LAYER0
  0
POLYLINE
  5
F2
  8
LAYER0
 66
     1
 10
0.0
 20
0.0
 30
0.0
 70
     1
  0
VERTEX
  5
6A5
  8
LAYER0
 10
66.9638964067529
 20
76.96414731455076
 30
0.0
  0
VERTEX
  5
6A6
  8
LAYER0
 10
87.96389640675318
 20
76.96414731455076
 30
0.0
  0
VERTEX
  5
6A7
  8
LAYER0
 10
87.96389640675318
 20
88.96414731455091
 30
0.0
  0
VERTEX
  5
6A8
  8
LAYER0
 10
66.9638964067529
 20
88.96414731455091
 30
0.0
  0
SEQEND
  5
73B
  8
LAYER0
  0
ENDSEC
  0
EOF
