G04 #@! TF.GenerationSoftware,KiCad,Pcbnew,(5.1.5-0-10_14)*
G04 #@! TF.CreationDate,2020-02-25T20:07:17-06:00*
G04 #@! TF.ProjectId,Electronic Target,456c6563-7472-46f6-9e69-632054617267,rev?*
G04 #@! TF.SameCoordinates,Original*
G04 #@! TF.FileFunction,Soldermask,Bot*
G04 #@! TF.FilePolarity,Negative*
%FSLAX46Y46*%
G04 Gerber Fmt 4.6, Leading zero omitted, Abs format (unit mm)*
G04 Created by KiCad (PCBNEW (5.1.5-0-10_14)) date 2020-02-25 20:07:17*
%MOMM*%
%LPD*%
G04 APERTURE LIST*
%ADD10C,0.100000*%
G04 APERTURE END LIST*
D10*
G36*
X206190257Y-92446299D02*
G01*
X206296580Y-92467448D01*
X206597043Y-92591904D01*
X206867452Y-92772586D01*
X207097416Y-93002550D01*
X207278098Y-93272959D01*
X207278099Y-93272961D01*
X207402554Y-93573423D01*
X207466001Y-93892390D01*
X207466001Y-94217612D01*
X207402554Y-94536579D01*
X207307767Y-94765417D01*
X207278098Y-94837043D01*
X207097416Y-95107452D01*
X206867452Y-95337416D01*
X206597043Y-95518098D01*
X206296580Y-95642554D01*
X206190257Y-95663703D01*
X205977612Y-95706001D01*
X205652390Y-95706001D01*
X205439745Y-95663703D01*
X205333422Y-95642554D01*
X205032959Y-95518098D01*
X204762550Y-95337416D01*
X204532586Y-95107452D01*
X204351904Y-94837043D01*
X204322236Y-94765417D01*
X204227448Y-94536579D01*
X204164001Y-94217612D01*
X204164001Y-93892390D01*
X204227448Y-93573423D01*
X204351903Y-93272961D01*
X204351904Y-93272959D01*
X204532586Y-93002550D01*
X204762550Y-92772586D01*
X205032959Y-92591904D01*
X205333422Y-92467448D01*
X205439745Y-92446299D01*
X205652390Y-92404001D01*
X205977612Y-92404001D01*
X206190257Y-92446299D01*
G37*
G36*
X123640257Y-92446299D02*
G01*
X123746580Y-92467448D01*
X124047043Y-92591904D01*
X124317452Y-92772586D01*
X124547416Y-93002550D01*
X124728098Y-93272959D01*
X124728099Y-93272961D01*
X124852554Y-93573423D01*
X124916001Y-93892390D01*
X124916001Y-94217612D01*
X124852554Y-94536579D01*
X124757767Y-94765417D01*
X124728098Y-94837043D01*
X124547416Y-95107452D01*
X124317452Y-95337416D01*
X124047043Y-95518098D01*
X123746580Y-95642554D01*
X123640257Y-95663703D01*
X123427612Y-95706001D01*
X123102390Y-95706001D01*
X122889745Y-95663703D01*
X122783422Y-95642554D01*
X122482959Y-95518098D01*
X122212550Y-95337416D01*
X121982586Y-95107452D01*
X121801904Y-94837043D01*
X121772236Y-94765417D01*
X121677448Y-94536579D01*
X121614001Y-94217612D01*
X121614001Y-93892390D01*
X121677448Y-93573423D01*
X121801903Y-93272961D01*
X121801904Y-93272959D01*
X121982586Y-93002550D01*
X122212550Y-92772586D01*
X122482959Y-92591904D01*
X122783422Y-92467448D01*
X122889745Y-92446299D01*
X123102390Y-92404001D01*
X123427612Y-92404001D01*
X123640257Y-92446299D01*
G37*
G36*
X195921779Y-93175548D02*
G01*
X196088225Y-93244492D01*
X196238023Y-93344584D01*
X196365418Y-93471979D01*
X196465510Y-93621777D01*
X196534454Y-93788223D01*
X196569601Y-93964919D01*
X196569601Y-94145083D01*
X196534454Y-94321779D01*
X196465510Y-94488225D01*
X196365418Y-94638023D01*
X196238023Y-94765418D01*
X196088225Y-94865510D01*
X195921779Y-94934454D01*
X195745083Y-94969601D01*
X195564919Y-94969601D01*
X195388223Y-94934454D01*
X195221777Y-94865510D01*
X195071979Y-94765418D01*
X194944584Y-94638023D01*
X194844492Y-94488225D01*
X194775548Y-94321779D01*
X194740401Y-94145083D01*
X194740401Y-93964919D01*
X194775548Y-93788223D01*
X194844492Y-93621777D01*
X194944584Y-93471979D01*
X195071979Y-93344584D01*
X195221777Y-93244492D01*
X195388223Y-93175548D01*
X195564919Y-93140401D01*
X195745083Y-93140401D01*
X195921779Y-93175548D01*
G37*
G36*
X193381779Y-93175548D02*
G01*
X193548225Y-93244492D01*
X193698023Y-93344584D01*
X193825418Y-93471979D01*
X193925510Y-93621777D01*
X193994454Y-93788223D01*
X194029601Y-93964919D01*
X194029601Y-94145083D01*
X193994454Y-94321779D01*
X193925510Y-94488225D01*
X193825418Y-94638023D01*
X193698023Y-94765418D01*
X193548225Y-94865510D01*
X193381779Y-94934454D01*
X193205083Y-94969601D01*
X193024919Y-94969601D01*
X192848223Y-94934454D01*
X192681777Y-94865510D01*
X192531979Y-94765418D01*
X192404584Y-94638023D01*
X192304492Y-94488225D01*
X192235548Y-94321779D01*
X192200401Y-94145083D01*
X192200401Y-93964919D01*
X192235548Y-93788223D01*
X192304492Y-93621777D01*
X192404584Y-93471979D01*
X192531979Y-93344584D01*
X192681777Y-93244492D01*
X192848223Y-93175548D01*
X193024919Y-93140401D01*
X193205083Y-93140401D01*
X193381779Y-93175548D01*
G37*
G36*
X190841779Y-93175548D02*
G01*
X191008225Y-93244492D01*
X191158023Y-93344584D01*
X191285418Y-93471979D01*
X191385510Y-93621777D01*
X191454454Y-93788223D01*
X191489601Y-93964919D01*
X191489601Y-94145083D01*
X191454454Y-94321779D01*
X191385510Y-94488225D01*
X191285418Y-94638023D01*
X191158023Y-94765418D01*
X191008225Y-94865510D01*
X190841779Y-94934454D01*
X190665083Y-94969601D01*
X190484919Y-94969601D01*
X190308223Y-94934454D01*
X190141777Y-94865510D01*
X189991979Y-94765418D01*
X189864584Y-94638023D01*
X189764492Y-94488225D01*
X189695548Y-94321779D01*
X189660401Y-94145083D01*
X189660401Y-93964919D01*
X189695548Y-93788223D01*
X189764492Y-93621777D01*
X189864584Y-93471979D01*
X189991979Y-93344584D01*
X190141777Y-93244492D01*
X190308223Y-93175548D01*
X190484919Y-93140401D01*
X190665083Y-93140401D01*
X190841779Y-93175548D01*
G37*
G36*
X188301779Y-93175548D02*
G01*
X188468225Y-93244492D01*
X188618023Y-93344584D01*
X188745418Y-93471979D01*
X188845510Y-93621777D01*
X188914454Y-93788223D01*
X188949601Y-93964919D01*
X188949601Y-94145083D01*
X188914454Y-94321779D01*
X188845510Y-94488225D01*
X188745418Y-94638023D01*
X188618023Y-94765418D01*
X188468225Y-94865510D01*
X188301779Y-94934454D01*
X188125083Y-94969601D01*
X187944919Y-94969601D01*
X187768223Y-94934454D01*
X187601777Y-94865510D01*
X187451979Y-94765418D01*
X187324584Y-94638023D01*
X187224492Y-94488225D01*
X187155548Y-94321779D01*
X187120401Y-94145083D01*
X187120401Y-93964919D01*
X187155548Y-93788223D01*
X187224492Y-93621777D01*
X187324584Y-93471979D01*
X187451979Y-93344584D01*
X187601777Y-93244492D01*
X187768223Y-93175548D01*
X187944919Y-93140401D01*
X188125083Y-93140401D01*
X188301779Y-93175548D01*
G37*
G36*
X185761779Y-93175548D02*
G01*
X185928225Y-93244492D01*
X186078023Y-93344584D01*
X186205418Y-93471979D01*
X186305510Y-93621777D01*
X186374454Y-93788223D01*
X186409601Y-93964919D01*
X186409601Y-94145083D01*
X186374454Y-94321779D01*
X186305510Y-94488225D01*
X186205418Y-94638023D01*
X186078023Y-94765418D01*
X185928225Y-94865510D01*
X185761779Y-94934454D01*
X185585083Y-94969601D01*
X185404919Y-94969601D01*
X185228223Y-94934454D01*
X185061777Y-94865510D01*
X184911979Y-94765418D01*
X184784584Y-94638023D01*
X184684492Y-94488225D01*
X184615548Y-94321779D01*
X184580401Y-94145083D01*
X184580401Y-93964919D01*
X184615548Y-93788223D01*
X184684492Y-93621777D01*
X184784584Y-93471979D01*
X184911979Y-93344584D01*
X185061777Y-93244492D01*
X185228223Y-93175548D01*
X185404919Y-93140401D01*
X185585083Y-93140401D01*
X185761779Y-93175548D01*
G37*
G36*
X183221779Y-93175548D02*
G01*
X183388225Y-93244492D01*
X183538023Y-93344584D01*
X183665418Y-93471979D01*
X183765510Y-93621777D01*
X183834454Y-93788223D01*
X183869601Y-93964919D01*
X183869601Y-94145083D01*
X183834454Y-94321779D01*
X183765510Y-94488225D01*
X183665418Y-94638023D01*
X183538023Y-94765418D01*
X183388225Y-94865510D01*
X183221779Y-94934454D01*
X183045083Y-94969601D01*
X182864919Y-94969601D01*
X182688223Y-94934454D01*
X182521777Y-94865510D01*
X182371979Y-94765418D01*
X182244584Y-94638023D01*
X182144492Y-94488225D01*
X182075548Y-94321779D01*
X182040401Y-94145083D01*
X182040401Y-93964919D01*
X182075548Y-93788223D01*
X182144492Y-93621777D01*
X182244584Y-93471979D01*
X182371979Y-93344584D01*
X182521777Y-93244492D01*
X182688223Y-93175548D01*
X182864919Y-93140401D01*
X183045083Y-93140401D01*
X183221779Y-93175548D01*
G37*
G36*
X178141779Y-93175548D02*
G01*
X178308225Y-93244492D01*
X178458023Y-93344584D01*
X178585418Y-93471979D01*
X178685510Y-93621777D01*
X178754454Y-93788223D01*
X178789601Y-93964919D01*
X178789601Y-94145083D01*
X178754454Y-94321779D01*
X178685510Y-94488225D01*
X178585418Y-94638023D01*
X178458023Y-94765418D01*
X178308225Y-94865510D01*
X178141779Y-94934454D01*
X177965083Y-94969601D01*
X177784919Y-94969601D01*
X177608223Y-94934454D01*
X177441777Y-94865510D01*
X177291979Y-94765418D01*
X177164584Y-94638023D01*
X177064492Y-94488225D01*
X176995548Y-94321779D01*
X176960401Y-94145083D01*
X176960401Y-93964919D01*
X176995548Y-93788223D01*
X177064492Y-93621777D01*
X177164584Y-93471979D01*
X177291979Y-93344584D01*
X177441777Y-93244492D01*
X177608223Y-93175548D01*
X177784919Y-93140401D01*
X177965083Y-93140401D01*
X178141779Y-93175548D01*
G37*
G36*
X175601779Y-93175548D02*
G01*
X175768225Y-93244492D01*
X175918023Y-93344584D01*
X176045418Y-93471979D01*
X176145510Y-93621777D01*
X176214454Y-93788223D01*
X176249601Y-93964919D01*
X176249601Y-94145083D01*
X176214454Y-94321779D01*
X176145510Y-94488225D01*
X176045418Y-94638023D01*
X175918023Y-94765418D01*
X175768225Y-94865510D01*
X175601779Y-94934454D01*
X175425083Y-94969601D01*
X175244919Y-94969601D01*
X175068223Y-94934454D01*
X174901777Y-94865510D01*
X174751979Y-94765418D01*
X174624584Y-94638023D01*
X174524492Y-94488225D01*
X174455548Y-94321779D01*
X174420401Y-94145083D01*
X174420401Y-93964919D01*
X174455548Y-93788223D01*
X174524492Y-93621777D01*
X174624584Y-93471979D01*
X174751979Y-93344584D01*
X174901777Y-93244492D01*
X175068223Y-93175548D01*
X175244919Y-93140401D01*
X175425083Y-93140401D01*
X175601779Y-93175548D01*
G37*
G36*
X173061779Y-93175548D02*
G01*
X173228225Y-93244492D01*
X173378023Y-93344584D01*
X173505418Y-93471979D01*
X173605510Y-93621777D01*
X173674454Y-93788223D01*
X173709601Y-93964919D01*
X173709601Y-94145083D01*
X173674454Y-94321779D01*
X173605510Y-94488225D01*
X173505418Y-94638023D01*
X173378023Y-94765418D01*
X173228225Y-94865510D01*
X173061779Y-94934454D01*
X172885083Y-94969601D01*
X172704919Y-94969601D01*
X172528223Y-94934454D01*
X172361777Y-94865510D01*
X172211979Y-94765418D01*
X172084584Y-94638023D01*
X171984492Y-94488225D01*
X171915548Y-94321779D01*
X171880401Y-94145083D01*
X171880401Y-93964919D01*
X171915548Y-93788223D01*
X171984492Y-93621777D01*
X172084584Y-93471979D01*
X172211979Y-93344584D01*
X172361777Y-93244492D01*
X172528223Y-93175548D01*
X172704919Y-93140401D01*
X172885083Y-93140401D01*
X173061779Y-93175548D01*
G37*
G36*
X170521779Y-93175548D02*
G01*
X170688225Y-93244492D01*
X170838023Y-93344584D01*
X170965418Y-93471979D01*
X171065510Y-93621777D01*
X171134454Y-93788223D01*
X171169601Y-93964919D01*
X171169601Y-94145083D01*
X171134454Y-94321779D01*
X171065510Y-94488225D01*
X170965418Y-94638023D01*
X170838023Y-94765418D01*
X170688225Y-94865510D01*
X170521779Y-94934454D01*
X170345083Y-94969601D01*
X170164919Y-94969601D01*
X169988223Y-94934454D01*
X169821777Y-94865510D01*
X169671979Y-94765418D01*
X169544584Y-94638023D01*
X169444492Y-94488225D01*
X169375548Y-94321779D01*
X169340401Y-94145083D01*
X169340401Y-93964919D01*
X169375548Y-93788223D01*
X169444492Y-93621777D01*
X169544584Y-93471979D01*
X169671979Y-93344584D01*
X169821777Y-93244492D01*
X169988223Y-93175548D01*
X170164919Y-93140401D01*
X170345083Y-93140401D01*
X170521779Y-93175548D01*
G37*
G36*
X167981779Y-93175548D02*
G01*
X168148225Y-93244492D01*
X168298023Y-93344584D01*
X168425418Y-93471979D01*
X168525510Y-93621777D01*
X168594454Y-93788223D01*
X168629601Y-93964919D01*
X168629601Y-94145083D01*
X168594454Y-94321779D01*
X168525510Y-94488225D01*
X168425418Y-94638023D01*
X168298023Y-94765418D01*
X168148225Y-94865510D01*
X167981779Y-94934454D01*
X167805083Y-94969601D01*
X167624919Y-94969601D01*
X167448223Y-94934454D01*
X167281777Y-94865510D01*
X167131979Y-94765418D01*
X167004584Y-94638023D01*
X166904492Y-94488225D01*
X166835548Y-94321779D01*
X166800401Y-94145083D01*
X166800401Y-93964919D01*
X166835548Y-93788223D01*
X166904492Y-93621777D01*
X167004584Y-93471979D01*
X167131979Y-93344584D01*
X167281777Y-93244492D01*
X167448223Y-93175548D01*
X167624919Y-93140401D01*
X167805083Y-93140401D01*
X167981779Y-93175548D01*
G37*
G36*
X165441779Y-93175548D02*
G01*
X165608225Y-93244492D01*
X165758023Y-93344584D01*
X165885418Y-93471979D01*
X165985510Y-93621777D01*
X166054454Y-93788223D01*
X166089601Y-93964919D01*
X166089601Y-94145083D01*
X166054454Y-94321779D01*
X165985510Y-94488225D01*
X165885418Y-94638023D01*
X165758023Y-94765418D01*
X165608225Y-94865510D01*
X165441779Y-94934454D01*
X165265083Y-94969601D01*
X165084919Y-94969601D01*
X164908223Y-94934454D01*
X164741777Y-94865510D01*
X164591979Y-94765418D01*
X164464584Y-94638023D01*
X164364492Y-94488225D01*
X164295548Y-94321779D01*
X164260401Y-94145083D01*
X164260401Y-93964919D01*
X164295548Y-93788223D01*
X164364492Y-93621777D01*
X164464584Y-93471979D01*
X164591979Y-93344584D01*
X164741777Y-93244492D01*
X164908223Y-93175548D01*
X165084919Y-93140401D01*
X165265083Y-93140401D01*
X165441779Y-93175548D01*
G37*
G36*
X162901779Y-93175548D02*
G01*
X163068225Y-93244492D01*
X163218023Y-93344584D01*
X163345418Y-93471979D01*
X163445510Y-93621777D01*
X163514454Y-93788223D01*
X163549601Y-93964919D01*
X163549601Y-94145083D01*
X163514454Y-94321779D01*
X163445510Y-94488225D01*
X163345418Y-94638023D01*
X163218023Y-94765418D01*
X163068225Y-94865510D01*
X162901779Y-94934454D01*
X162725083Y-94969601D01*
X162544919Y-94969601D01*
X162368223Y-94934454D01*
X162201777Y-94865510D01*
X162051979Y-94765418D01*
X161924584Y-94638023D01*
X161824492Y-94488225D01*
X161755548Y-94321779D01*
X161720401Y-94145083D01*
X161720401Y-93964919D01*
X161755548Y-93788223D01*
X161824492Y-93621777D01*
X161924584Y-93471979D01*
X162051979Y-93344584D01*
X162201777Y-93244492D01*
X162368223Y-93175548D01*
X162544919Y-93140401D01*
X162725083Y-93140401D01*
X162901779Y-93175548D01*
G37*
G36*
X160361779Y-93175548D02*
G01*
X160528225Y-93244492D01*
X160678023Y-93344584D01*
X160805418Y-93471979D01*
X160905510Y-93621777D01*
X160974454Y-93788223D01*
X161009601Y-93964919D01*
X161009601Y-94145083D01*
X160974454Y-94321779D01*
X160905510Y-94488225D01*
X160805418Y-94638023D01*
X160678023Y-94765418D01*
X160528225Y-94865510D01*
X160361779Y-94934454D01*
X160185083Y-94969601D01*
X160004919Y-94969601D01*
X159828223Y-94934454D01*
X159661777Y-94865510D01*
X159511979Y-94765418D01*
X159384584Y-94638023D01*
X159284492Y-94488225D01*
X159215548Y-94321779D01*
X159180401Y-94145083D01*
X159180401Y-93964919D01*
X159215548Y-93788223D01*
X159284492Y-93621777D01*
X159384584Y-93471979D01*
X159511979Y-93344584D01*
X159661777Y-93244492D01*
X159828223Y-93175548D01*
X160004919Y-93140401D01*
X160185083Y-93140401D01*
X160361779Y-93175548D01*
G37*
G36*
X155281779Y-93175548D02*
G01*
X155448225Y-93244492D01*
X155598023Y-93344584D01*
X155725418Y-93471979D01*
X155825510Y-93621777D01*
X155894454Y-93788223D01*
X155929601Y-93964919D01*
X155929601Y-94145083D01*
X155894454Y-94321779D01*
X155825510Y-94488225D01*
X155725418Y-94638023D01*
X155598023Y-94765418D01*
X155448225Y-94865510D01*
X155281779Y-94934454D01*
X155105083Y-94969601D01*
X154924919Y-94969601D01*
X154748223Y-94934454D01*
X154581777Y-94865510D01*
X154431979Y-94765418D01*
X154304584Y-94638023D01*
X154204492Y-94488225D01*
X154135548Y-94321779D01*
X154100401Y-94145083D01*
X154100401Y-93964919D01*
X154135548Y-93788223D01*
X154204492Y-93621777D01*
X154304584Y-93471979D01*
X154431979Y-93344584D01*
X154581777Y-93244492D01*
X154748223Y-93175548D01*
X154924919Y-93140401D01*
X155105083Y-93140401D01*
X155281779Y-93175548D01*
G37*
G36*
X152741779Y-93175548D02*
G01*
X152908225Y-93244492D01*
X153058023Y-93344584D01*
X153185418Y-93471979D01*
X153285510Y-93621777D01*
X153354454Y-93788223D01*
X153389601Y-93964919D01*
X153389601Y-94145083D01*
X153354454Y-94321779D01*
X153285510Y-94488225D01*
X153185418Y-94638023D01*
X153058023Y-94765418D01*
X152908225Y-94865510D01*
X152741779Y-94934454D01*
X152565083Y-94969601D01*
X152384919Y-94969601D01*
X152208223Y-94934454D01*
X152041777Y-94865510D01*
X151891979Y-94765418D01*
X151764584Y-94638023D01*
X151664492Y-94488225D01*
X151595548Y-94321779D01*
X151560401Y-94145083D01*
X151560401Y-93964919D01*
X151595548Y-93788223D01*
X151664492Y-93621777D01*
X151764584Y-93471979D01*
X151891979Y-93344584D01*
X152041777Y-93244492D01*
X152208223Y-93175548D01*
X152384919Y-93140401D01*
X152565083Y-93140401D01*
X152741779Y-93175548D01*
G37*
G36*
X150201779Y-93175548D02*
G01*
X150368225Y-93244492D01*
X150518023Y-93344584D01*
X150645418Y-93471979D01*
X150745510Y-93621777D01*
X150814454Y-93788223D01*
X150849601Y-93964919D01*
X150849601Y-94145083D01*
X150814454Y-94321779D01*
X150745510Y-94488225D01*
X150645418Y-94638023D01*
X150518023Y-94765418D01*
X150368225Y-94865510D01*
X150201779Y-94934454D01*
X150025083Y-94969601D01*
X149844919Y-94969601D01*
X149668223Y-94934454D01*
X149501777Y-94865510D01*
X149351979Y-94765418D01*
X149224584Y-94638023D01*
X149124492Y-94488225D01*
X149055548Y-94321779D01*
X149020401Y-94145083D01*
X149020401Y-93964919D01*
X149055548Y-93788223D01*
X149124492Y-93621777D01*
X149224584Y-93471979D01*
X149351979Y-93344584D01*
X149501777Y-93244492D01*
X149668223Y-93175548D01*
X149844919Y-93140401D01*
X150025083Y-93140401D01*
X150201779Y-93175548D01*
G37*
G36*
X147661779Y-93175548D02*
G01*
X147828225Y-93244492D01*
X147978023Y-93344584D01*
X148105418Y-93471979D01*
X148205510Y-93621777D01*
X148274454Y-93788223D01*
X148309601Y-93964919D01*
X148309601Y-94145083D01*
X148274454Y-94321779D01*
X148205510Y-94488225D01*
X148105418Y-94638023D01*
X147978023Y-94765418D01*
X147828225Y-94865510D01*
X147661779Y-94934454D01*
X147485083Y-94969601D01*
X147304919Y-94969601D01*
X147128223Y-94934454D01*
X146961777Y-94865510D01*
X146811979Y-94765418D01*
X146684584Y-94638023D01*
X146584492Y-94488225D01*
X146515548Y-94321779D01*
X146480401Y-94145083D01*
X146480401Y-93964919D01*
X146515548Y-93788223D01*
X146584492Y-93621777D01*
X146684584Y-93471979D01*
X146811979Y-93344584D01*
X146961777Y-93244492D01*
X147128223Y-93175548D01*
X147304919Y-93140401D01*
X147485083Y-93140401D01*
X147661779Y-93175548D01*
G37*
G36*
X145121779Y-93175548D02*
G01*
X145288225Y-93244492D01*
X145438023Y-93344584D01*
X145565418Y-93471979D01*
X145665510Y-93621777D01*
X145734454Y-93788223D01*
X145769601Y-93964919D01*
X145769601Y-94145083D01*
X145734454Y-94321779D01*
X145665510Y-94488225D01*
X145565418Y-94638023D01*
X145438023Y-94765418D01*
X145288225Y-94865510D01*
X145121779Y-94934454D01*
X144945083Y-94969601D01*
X144764919Y-94969601D01*
X144588223Y-94934454D01*
X144421777Y-94865510D01*
X144271979Y-94765418D01*
X144144584Y-94638023D01*
X144044492Y-94488225D01*
X143975548Y-94321779D01*
X143940401Y-94145083D01*
X143940401Y-93964919D01*
X143975548Y-93788223D01*
X144044492Y-93621777D01*
X144144584Y-93471979D01*
X144271979Y-93344584D01*
X144421777Y-93244492D01*
X144588223Y-93175548D01*
X144764919Y-93140401D01*
X144945083Y-93140401D01*
X145121779Y-93175548D01*
G37*
G36*
X142581779Y-93175548D02*
G01*
X142748225Y-93244492D01*
X142898023Y-93344584D01*
X143025418Y-93471979D01*
X143125510Y-93621777D01*
X143194454Y-93788223D01*
X143229601Y-93964919D01*
X143229601Y-94145083D01*
X143194454Y-94321779D01*
X143125510Y-94488225D01*
X143025418Y-94638023D01*
X142898023Y-94765418D01*
X142748225Y-94865510D01*
X142581779Y-94934454D01*
X142405083Y-94969601D01*
X142224919Y-94969601D01*
X142048223Y-94934454D01*
X141881777Y-94865510D01*
X141731979Y-94765418D01*
X141604584Y-94638023D01*
X141504492Y-94488225D01*
X141435548Y-94321779D01*
X141400401Y-94145083D01*
X141400401Y-93964919D01*
X141435548Y-93788223D01*
X141504492Y-93621777D01*
X141604584Y-93471979D01*
X141731979Y-93344584D01*
X141881777Y-93244492D01*
X142048223Y-93175548D01*
X142224919Y-93140401D01*
X142405083Y-93140401D01*
X142581779Y-93175548D01*
G37*
G36*
X140041779Y-93175548D02*
G01*
X140208225Y-93244492D01*
X140358023Y-93344584D01*
X140485418Y-93471979D01*
X140585510Y-93621777D01*
X140654454Y-93788223D01*
X140689601Y-93964919D01*
X140689601Y-94145083D01*
X140654454Y-94321779D01*
X140585510Y-94488225D01*
X140485418Y-94638023D01*
X140358023Y-94765418D01*
X140208225Y-94865510D01*
X140041779Y-94934454D01*
X139865083Y-94969601D01*
X139684919Y-94969601D01*
X139508223Y-94934454D01*
X139341777Y-94865510D01*
X139191979Y-94765418D01*
X139064584Y-94638023D01*
X138964492Y-94488225D01*
X138895548Y-94321779D01*
X138860401Y-94145083D01*
X138860401Y-93964919D01*
X138895548Y-93788223D01*
X138964492Y-93621777D01*
X139064584Y-93471979D01*
X139191979Y-93344584D01*
X139341777Y-93244492D01*
X139508223Y-93175548D01*
X139684919Y-93140401D01*
X139865083Y-93140401D01*
X140041779Y-93175548D01*
G37*
G36*
X137501779Y-93175548D02*
G01*
X137668225Y-93244492D01*
X137818023Y-93344584D01*
X137945418Y-93471979D01*
X138045510Y-93621777D01*
X138114454Y-93788223D01*
X138149601Y-93964919D01*
X138149601Y-94145083D01*
X138114454Y-94321779D01*
X138045510Y-94488225D01*
X137945418Y-94638023D01*
X137818023Y-94765418D01*
X137668225Y-94865510D01*
X137501779Y-94934454D01*
X137325083Y-94969601D01*
X137144919Y-94969601D01*
X136968223Y-94934454D01*
X136801777Y-94865510D01*
X136651979Y-94765418D01*
X136524584Y-94638023D01*
X136424492Y-94488225D01*
X136355548Y-94321779D01*
X136320401Y-94145083D01*
X136320401Y-93964919D01*
X136355548Y-93788223D01*
X136424492Y-93621777D01*
X136524584Y-93471979D01*
X136651979Y-93344584D01*
X136801777Y-93244492D01*
X136968223Y-93175548D01*
X137144919Y-93140401D01*
X137325083Y-93140401D01*
X137501779Y-93175548D01*
G37*
G36*
X201001779Y-93175548D02*
G01*
X201168225Y-93244492D01*
X201318023Y-93344584D01*
X201445418Y-93471979D01*
X201545510Y-93621777D01*
X201614454Y-93788223D01*
X201649601Y-93964919D01*
X201649601Y-94145083D01*
X201614454Y-94321779D01*
X201545510Y-94488225D01*
X201445418Y-94638023D01*
X201318023Y-94765418D01*
X201168225Y-94865510D01*
X201001779Y-94934454D01*
X200825083Y-94969601D01*
X200644919Y-94969601D01*
X200468223Y-94934454D01*
X200301777Y-94865510D01*
X200151979Y-94765418D01*
X200024584Y-94638023D01*
X199924492Y-94488225D01*
X199855548Y-94321779D01*
X199820401Y-94145083D01*
X199820401Y-93964919D01*
X199855548Y-93788223D01*
X199924492Y-93621777D01*
X200024584Y-93471979D01*
X200151979Y-93344584D01*
X200301777Y-93244492D01*
X200468223Y-93175548D01*
X200644919Y-93140401D01*
X200825083Y-93140401D01*
X201001779Y-93175548D01*
G37*
G36*
X198461779Y-93175548D02*
G01*
X198628225Y-93244492D01*
X198778023Y-93344584D01*
X198905418Y-93471979D01*
X199005510Y-93621777D01*
X199074454Y-93788223D01*
X199109601Y-93964919D01*
X199109601Y-94145083D01*
X199074454Y-94321779D01*
X199005510Y-94488225D01*
X198905418Y-94638023D01*
X198778023Y-94765418D01*
X198628225Y-94865510D01*
X198461779Y-94934454D01*
X198285083Y-94969601D01*
X198104919Y-94969601D01*
X197928223Y-94934454D01*
X197761777Y-94865510D01*
X197611979Y-94765418D01*
X197484584Y-94638023D01*
X197384492Y-94488225D01*
X197315548Y-94321779D01*
X197280401Y-94145083D01*
X197280401Y-93964919D01*
X197315548Y-93788223D01*
X197384492Y-93621777D01*
X197484584Y-93471979D01*
X197611979Y-93344584D01*
X197761777Y-93244492D01*
X197928223Y-93175548D01*
X198104919Y-93140401D01*
X198285083Y-93140401D01*
X198461779Y-93175548D01*
G37*
G36*
X206081779Y-88095548D02*
G01*
X206248225Y-88164492D01*
X206398023Y-88264584D01*
X206525418Y-88391979D01*
X206625510Y-88541777D01*
X206694454Y-88708223D01*
X206729601Y-88884919D01*
X206729601Y-89065083D01*
X206694454Y-89241779D01*
X206625510Y-89408225D01*
X206525418Y-89558023D01*
X206398023Y-89685418D01*
X206248225Y-89785510D01*
X206081779Y-89854454D01*
X205905083Y-89889601D01*
X205724919Y-89889601D01*
X205548223Y-89854454D01*
X205381777Y-89785510D01*
X205231979Y-89685418D01*
X205104584Y-89558023D01*
X205004492Y-89408225D01*
X204935548Y-89241779D01*
X204900401Y-89065083D01*
X204900401Y-88884919D01*
X204935548Y-88708223D01*
X205004492Y-88541777D01*
X205104584Y-88391979D01*
X205231979Y-88264584D01*
X205381777Y-88164492D01*
X205548223Y-88095548D01*
X205724919Y-88060401D01*
X205905083Y-88060401D01*
X206081779Y-88095548D01*
G37*
G36*
X203541779Y-88095548D02*
G01*
X203708225Y-88164492D01*
X203858023Y-88264584D01*
X203985418Y-88391979D01*
X204085510Y-88541777D01*
X204154454Y-88708223D01*
X204189601Y-88884919D01*
X204189601Y-89065083D01*
X204154454Y-89241779D01*
X204085510Y-89408225D01*
X203985418Y-89558023D01*
X203858023Y-89685418D01*
X203708225Y-89785510D01*
X203541779Y-89854454D01*
X203365083Y-89889601D01*
X203184919Y-89889601D01*
X203008223Y-89854454D01*
X202841777Y-89785510D01*
X202691979Y-89685418D01*
X202564584Y-89558023D01*
X202464492Y-89408225D01*
X202395548Y-89241779D01*
X202360401Y-89065083D01*
X202360401Y-88884919D01*
X202395548Y-88708223D01*
X202464492Y-88541777D01*
X202564584Y-88391979D01*
X202691979Y-88264584D01*
X202841777Y-88164492D01*
X203008223Y-88095548D01*
X203184919Y-88060401D01*
X203365083Y-88060401D01*
X203541779Y-88095548D01*
G37*
G36*
X203541779Y-85555548D02*
G01*
X203708225Y-85624492D01*
X203858023Y-85724584D01*
X203985418Y-85851979D01*
X204085510Y-86001777D01*
X204154454Y-86168223D01*
X204189601Y-86344919D01*
X204189601Y-86525083D01*
X204154454Y-86701779D01*
X204085510Y-86868225D01*
X203985418Y-87018023D01*
X203858023Y-87145418D01*
X203708225Y-87245510D01*
X203541779Y-87314454D01*
X203365083Y-87349601D01*
X203184919Y-87349601D01*
X203008223Y-87314454D01*
X202841777Y-87245510D01*
X202691979Y-87145418D01*
X202564584Y-87018023D01*
X202464492Y-86868225D01*
X202395548Y-86701779D01*
X202360401Y-86525083D01*
X202360401Y-86344919D01*
X202395548Y-86168223D01*
X202464492Y-86001777D01*
X202564584Y-85851979D01*
X202691979Y-85724584D01*
X202841777Y-85624492D01*
X203008223Y-85555548D01*
X203184919Y-85520401D01*
X203365083Y-85520401D01*
X203541779Y-85555548D01*
G37*
G36*
X206081779Y-85555548D02*
G01*
X206248225Y-85624492D01*
X206398023Y-85724584D01*
X206525418Y-85851979D01*
X206625510Y-86001777D01*
X206694454Y-86168223D01*
X206729601Y-86344919D01*
X206729601Y-86525083D01*
X206694454Y-86701779D01*
X206625510Y-86868225D01*
X206525418Y-87018023D01*
X206398023Y-87145418D01*
X206248225Y-87245510D01*
X206081779Y-87314454D01*
X205905083Y-87349601D01*
X205724919Y-87349601D01*
X205548223Y-87314454D01*
X205381777Y-87245510D01*
X205231979Y-87145418D01*
X205104584Y-87018023D01*
X205004492Y-86868225D01*
X204935548Y-86701779D01*
X204900401Y-86525083D01*
X204900401Y-86344919D01*
X204935548Y-86168223D01*
X205004492Y-86001777D01*
X205104584Y-85851979D01*
X205231979Y-85724584D01*
X205381777Y-85624492D01*
X205548223Y-85555548D01*
X205724919Y-85520401D01*
X205905083Y-85520401D01*
X206081779Y-85555548D01*
G37*
G36*
X203541779Y-83015548D02*
G01*
X203708225Y-83084492D01*
X203858023Y-83184584D01*
X203985418Y-83311979D01*
X204085510Y-83461777D01*
X204154454Y-83628223D01*
X204189601Y-83804919D01*
X204189601Y-83985083D01*
X204154454Y-84161779D01*
X204085510Y-84328225D01*
X203985418Y-84478023D01*
X203858023Y-84605418D01*
X203708225Y-84705510D01*
X203541779Y-84774454D01*
X203365083Y-84809601D01*
X203184919Y-84809601D01*
X203008223Y-84774454D01*
X202841777Y-84705510D01*
X202691979Y-84605418D01*
X202564584Y-84478023D01*
X202464492Y-84328225D01*
X202395548Y-84161779D01*
X202360401Y-83985083D01*
X202360401Y-83804919D01*
X202395548Y-83628223D01*
X202464492Y-83461777D01*
X202564584Y-83311979D01*
X202691979Y-83184584D01*
X202841777Y-83084492D01*
X203008223Y-83015548D01*
X203184919Y-82980401D01*
X203365083Y-82980401D01*
X203541779Y-83015548D01*
G37*
G36*
X206081779Y-83015548D02*
G01*
X206248225Y-83084492D01*
X206398023Y-83184584D01*
X206525418Y-83311979D01*
X206625510Y-83461777D01*
X206694454Y-83628223D01*
X206729601Y-83804919D01*
X206729601Y-83985083D01*
X206694454Y-84161779D01*
X206625510Y-84328225D01*
X206525418Y-84478023D01*
X206398023Y-84605418D01*
X206248225Y-84705510D01*
X206081779Y-84774454D01*
X205905083Y-84809601D01*
X205724919Y-84809601D01*
X205548223Y-84774454D01*
X205381777Y-84705510D01*
X205231979Y-84605418D01*
X205104584Y-84478023D01*
X205004492Y-84328225D01*
X204935548Y-84161779D01*
X204900401Y-83985083D01*
X204900401Y-83804919D01*
X204935548Y-83628223D01*
X205004492Y-83461777D01*
X205104584Y-83311979D01*
X205231979Y-83184584D01*
X205381777Y-83084492D01*
X205548223Y-83015548D01*
X205724919Y-82980401D01*
X205905083Y-82980401D01*
X206081779Y-83015548D01*
G37*
G36*
X203541779Y-80475548D02*
G01*
X203708225Y-80544492D01*
X203858023Y-80644584D01*
X203985418Y-80771979D01*
X204085510Y-80921777D01*
X204154454Y-81088223D01*
X204189601Y-81264919D01*
X204189601Y-81445083D01*
X204154454Y-81621779D01*
X204085510Y-81788225D01*
X203985418Y-81938023D01*
X203858023Y-82065418D01*
X203708225Y-82165510D01*
X203541779Y-82234454D01*
X203365083Y-82269601D01*
X203184919Y-82269601D01*
X203008223Y-82234454D01*
X202841777Y-82165510D01*
X202691979Y-82065418D01*
X202564584Y-81938023D01*
X202464492Y-81788225D01*
X202395548Y-81621779D01*
X202360401Y-81445083D01*
X202360401Y-81264919D01*
X202395548Y-81088223D01*
X202464492Y-80921777D01*
X202564584Y-80771979D01*
X202691979Y-80644584D01*
X202841777Y-80544492D01*
X203008223Y-80475548D01*
X203184919Y-80440401D01*
X203365083Y-80440401D01*
X203541779Y-80475548D01*
G37*
G36*
X206081779Y-80475548D02*
G01*
X206248225Y-80544492D01*
X206398023Y-80644584D01*
X206525418Y-80771979D01*
X206625510Y-80921777D01*
X206694454Y-81088223D01*
X206729601Y-81264919D01*
X206729601Y-81445083D01*
X206694454Y-81621779D01*
X206625510Y-81788225D01*
X206525418Y-81938023D01*
X206398023Y-82065418D01*
X206248225Y-82165510D01*
X206081779Y-82234454D01*
X205905083Y-82269601D01*
X205724919Y-82269601D01*
X205548223Y-82234454D01*
X205381777Y-82165510D01*
X205231979Y-82065418D01*
X205104584Y-81938023D01*
X205004492Y-81788225D01*
X204935548Y-81621779D01*
X204900401Y-81445083D01*
X204900401Y-81264919D01*
X204935548Y-81088223D01*
X205004492Y-80921777D01*
X205104584Y-80771979D01*
X205231979Y-80644584D01*
X205381777Y-80544492D01*
X205548223Y-80475548D01*
X205724919Y-80440401D01*
X205905083Y-80440401D01*
X206081779Y-80475548D01*
G37*
G36*
X203541779Y-77935548D02*
G01*
X203708225Y-78004492D01*
X203858023Y-78104584D01*
X203985418Y-78231979D01*
X204085510Y-78381777D01*
X204154454Y-78548223D01*
X204189601Y-78724919D01*
X204189601Y-78905083D01*
X204154454Y-79081779D01*
X204085510Y-79248225D01*
X203985418Y-79398023D01*
X203858023Y-79525418D01*
X203708225Y-79625510D01*
X203541779Y-79694454D01*
X203365083Y-79729601D01*
X203184919Y-79729601D01*
X203008223Y-79694454D01*
X202841777Y-79625510D01*
X202691979Y-79525418D01*
X202564584Y-79398023D01*
X202464492Y-79248225D01*
X202395548Y-79081779D01*
X202360401Y-78905083D01*
X202360401Y-78724919D01*
X202395548Y-78548223D01*
X202464492Y-78381777D01*
X202564584Y-78231979D01*
X202691979Y-78104584D01*
X202841777Y-78004492D01*
X203008223Y-77935548D01*
X203184919Y-77900401D01*
X203365083Y-77900401D01*
X203541779Y-77935548D01*
G37*
G36*
X206081779Y-77935548D02*
G01*
X206248225Y-78004492D01*
X206398023Y-78104584D01*
X206525418Y-78231979D01*
X206625510Y-78381777D01*
X206694454Y-78548223D01*
X206729601Y-78724919D01*
X206729601Y-78905083D01*
X206694454Y-79081779D01*
X206625510Y-79248225D01*
X206525418Y-79398023D01*
X206398023Y-79525418D01*
X206248225Y-79625510D01*
X206081779Y-79694454D01*
X205905083Y-79729601D01*
X205724919Y-79729601D01*
X205548223Y-79694454D01*
X205381777Y-79625510D01*
X205231979Y-79525418D01*
X205104584Y-79398023D01*
X205004492Y-79248225D01*
X204935548Y-79081779D01*
X204900401Y-78905083D01*
X204900401Y-78724919D01*
X204935548Y-78548223D01*
X205004492Y-78381777D01*
X205104584Y-78231979D01*
X205231979Y-78104584D01*
X205381777Y-78004492D01*
X205548223Y-77935548D01*
X205724919Y-77900401D01*
X205905083Y-77900401D01*
X206081779Y-77935548D01*
G37*
G36*
X203541779Y-75395548D02*
G01*
X203708225Y-75464492D01*
X203858023Y-75564584D01*
X203985418Y-75691979D01*
X204085510Y-75841777D01*
X204154454Y-76008223D01*
X204189601Y-76184919D01*
X204189601Y-76365083D01*
X204154454Y-76541779D01*
X204085510Y-76708225D01*
X203985418Y-76858023D01*
X203858023Y-76985418D01*
X203708225Y-77085510D01*
X203541779Y-77154454D01*
X203365083Y-77189601D01*
X203184919Y-77189601D01*
X203008223Y-77154454D01*
X202841777Y-77085510D01*
X202691979Y-76985418D01*
X202564584Y-76858023D01*
X202464492Y-76708225D01*
X202395548Y-76541779D01*
X202360401Y-76365083D01*
X202360401Y-76184919D01*
X202395548Y-76008223D01*
X202464492Y-75841777D01*
X202564584Y-75691979D01*
X202691979Y-75564584D01*
X202841777Y-75464492D01*
X203008223Y-75395548D01*
X203184919Y-75360401D01*
X203365083Y-75360401D01*
X203541779Y-75395548D01*
G37*
G36*
X206081779Y-75395548D02*
G01*
X206248225Y-75464492D01*
X206398023Y-75564584D01*
X206525418Y-75691979D01*
X206625510Y-75841777D01*
X206694454Y-76008223D01*
X206729601Y-76184919D01*
X206729601Y-76365083D01*
X206694454Y-76541779D01*
X206625510Y-76708225D01*
X206525418Y-76858023D01*
X206398023Y-76985418D01*
X206248225Y-77085510D01*
X206081779Y-77154454D01*
X205905083Y-77189601D01*
X205724919Y-77189601D01*
X205548223Y-77154454D01*
X205381777Y-77085510D01*
X205231979Y-76985418D01*
X205104584Y-76858023D01*
X205004492Y-76708225D01*
X204935548Y-76541779D01*
X204900401Y-76365083D01*
X204900401Y-76184919D01*
X204935548Y-76008223D01*
X205004492Y-75841777D01*
X205104584Y-75691979D01*
X205231979Y-75564584D01*
X205381777Y-75464492D01*
X205548223Y-75395548D01*
X205724919Y-75360401D01*
X205905083Y-75360401D01*
X206081779Y-75395548D01*
G37*
G36*
X115683512Y-74033927D02*
G01*
X115832812Y-74063624D01*
X115996784Y-74131544D01*
X116144354Y-74230147D01*
X116269853Y-74355646D01*
X116368456Y-74503216D01*
X116436376Y-74667188D01*
X116471000Y-74841259D01*
X116471000Y-75018741D01*
X116436376Y-75192812D01*
X116368456Y-75356784D01*
X116269853Y-75504354D01*
X116144354Y-75629853D01*
X115996784Y-75728456D01*
X115832812Y-75796376D01*
X115683512Y-75826073D01*
X115658742Y-75831000D01*
X115481258Y-75831000D01*
X115456488Y-75826073D01*
X115307188Y-75796376D01*
X115143216Y-75728456D01*
X114995646Y-75629853D01*
X114870147Y-75504354D01*
X114771544Y-75356784D01*
X114703624Y-75192812D01*
X114669000Y-75018741D01*
X114669000Y-74841259D01*
X114703624Y-74667188D01*
X114771544Y-74503216D01*
X114870147Y-74355646D01*
X114995646Y-74230147D01*
X115143216Y-74131544D01*
X115307188Y-74063624D01*
X115456488Y-74033927D01*
X115481258Y-74029000D01*
X115658742Y-74029000D01*
X115683512Y-74033927D01*
G37*
G36*
X113143512Y-74033927D02*
G01*
X113292812Y-74063624D01*
X113456784Y-74131544D01*
X113604354Y-74230147D01*
X113729853Y-74355646D01*
X113828456Y-74503216D01*
X113896376Y-74667188D01*
X113931000Y-74841259D01*
X113931000Y-75018741D01*
X113896376Y-75192812D01*
X113828456Y-75356784D01*
X113729853Y-75504354D01*
X113604354Y-75629853D01*
X113456784Y-75728456D01*
X113292812Y-75796376D01*
X113143512Y-75826073D01*
X113118742Y-75831000D01*
X112941258Y-75831000D01*
X112916488Y-75826073D01*
X112767188Y-75796376D01*
X112603216Y-75728456D01*
X112455646Y-75629853D01*
X112330147Y-75504354D01*
X112231544Y-75356784D01*
X112163624Y-75192812D01*
X112129000Y-75018741D01*
X112129000Y-74841259D01*
X112163624Y-74667188D01*
X112231544Y-74503216D01*
X112330147Y-74355646D01*
X112455646Y-74230147D01*
X112603216Y-74131544D01*
X112767188Y-74063624D01*
X112916488Y-74033927D01*
X112941258Y-74029000D01*
X113118742Y-74029000D01*
X113143512Y-74033927D01*
G37*
G36*
X206081779Y-72855548D02*
G01*
X206248225Y-72924492D01*
X206398023Y-73024584D01*
X206525418Y-73151979D01*
X206625510Y-73301777D01*
X206694454Y-73468223D01*
X206729601Y-73644919D01*
X206729601Y-73825083D01*
X206694454Y-74001779D01*
X206625510Y-74168225D01*
X206525418Y-74318023D01*
X206398023Y-74445418D01*
X206248225Y-74545510D01*
X206081779Y-74614454D01*
X205905083Y-74649601D01*
X205724919Y-74649601D01*
X205548223Y-74614454D01*
X205381777Y-74545510D01*
X205231979Y-74445418D01*
X205104584Y-74318023D01*
X205004492Y-74168225D01*
X204935548Y-74001779D01*
X204900401Y-73825083D01*
X204900401Y-73644919D01*
X204935548Y-73468223D01*
X205004492Y-73301777D01*
X205104584Y-73151979D01*
X205231979Y-73024584D01*
X205381777Y-72924492D01*
X205548223Y-72855548D01*
X205724919Y-72820401D01*
X205905083Y-72820401D01*
X206081779Y-72855548D01*
G37*
G36*
X203541779Y-72855548D02*
G01*
X203708225Y-72924492D01*
X203858023Y-73024584D01*
X203985418Y-73151979D01*
X204085510Y-73301777D01*
X204154454Y-73468223D01*
X204189601Y-73644919D01*
X204189601Y-73825083D01*
X204154454Y-74001779D01*
X204085510Y-74168225D01*
X203985418Y-74318023D01*
X203858023Y-74445418D01*
X203708225Y-74545510D01*
X203541779Y-74614454D01*
X203365083Y-74649601D01*
X203184919Y-74649601D01*
X203008223Y-74614454D01*
X202841777Y-74545510D01*
X202691979Y-74445418D01*
X202564584Y-74318023D01*
X202464492Y-74168225D01*
X202395548Y-74001779D01*
X202360401Y-73825083D01*
X202360401Y-73644919D01*
X202395548Y-73468223D01*
X202464492Y-73301777D01*
X202564584Y-73151979D01*
X202691979Y-73024584D01*
X202841777Y-72924492D01*
X203008223Y-72855548D01*
X203184919Y-72820401D01*
X203365083Y-72820401D01*
X203541779Y-72855548D01*
G37*
G36*
X113143512Y-71493927D02*
G01*
X113292812Y-71523624D01*
X113456784Y-71591544D01*
X113604354Y-71690147D01*
X113729853Y-71815646D01*
X113828456Y-71963216D01*
X113896376Y-72127188D01*
X113931000Y-72301259D01*
X113931000Y-72478741D01*
X113896376Y-72652812D01*
X113828456Y-72816784D01*
X113729853Y-72964354D01*
X113604354Y-73089853D01*
X113456784Y-73188456D01*
X113292812Y-73256376D01*
X113143512Y-73286073D01*
X113118742Y-73291000D01*
X112941258Y-73291000D01*
X112916488Y-73286073D01*
X112767188Y-73256376D01*
X112603216Y-73188456D01*
X112455646Y-73089853D01*
X112330147Y-72964354D01*
X112231544Y-72816784D01*
X112163624Y-72652812D01*
X112129000Y-72478741D01*
X112129000Y-72301259D01*
X112163624Y-72127188D01*
X112231544Y-71963216D01*
X112330147Y-71815646D01*
X112455646Y-71690147D01*
X112603216Y-71591544D01*
X112767188Y-71523624D01*
X112916488Y-71493927D01*
X112941258Y-71489000D01*
X113118742Y-71489000D01*
X113143512Y-71493927D01*
G37*
G36*
X115683512Y-71493927D02*
G01*
X115832812Y-71523624D01*
X115996784Y-71591544D01*
X116144354Y-71690147D01*
X116269853Y-71815646D01*
X116368456Y-71963216D01*
X116436376Y-72127188D01*
X116471000Y-72301259D01*
X116471000Y-72478741D01*
X116436376Y-72652812D01*
X116368456Y-72816784D01*
X116269853Y-72964354D01*
X116144354Y-73089853D01*
X115996784Y-73188456D01*
X115832812Y-73256376D01*
X115683512Y-73286073D01*
X115658742Y-73291000D01*
X115481258Y-73291000D01*
X115456488Y-73286073D01*
X115307188Y-73256376D01*
X115143216Y-73188456D01*
X114995646Y-73089853D01*
X114870147Y-72964354D01*
X114771544Y-72816784D01*
X114703624Y-72652812D01*
X114669000Y-72478741D01*
X114669000Y-72301259D01*
X114703624Y-72127188D01*
X114771544Y-71963216D01*
X114870147Y-71815646D01*
X114995646Y-71690147D01*
X115143216Y-71591544D01*
X115307188Y-71523624D01*
X115456488Y-71493927D01*
X115481258Y-71489000D01*
X115658742Y-71489000D01*
X115683512Y-71493927D01*
G37*
G36*
X206081779Y-70315548D02*
G01*
X206248225Y-70384492D01*
X206398023Y-70484584D01*
X206525418Y-70611979D01*
X206625510Y-70761777D01*
X206694454Y-70928223D01*
X206729601Y-71104919D01*
X206729601Y-71285083D01*
X206694454Y-71461779D01*
X206625510Y-71628225D01*
X206525418Y-71778023D01*
X206398023Y-71905418D01*
X206248225Y-72005510D01*
X206081779Y-72074454D01*
X205905083Y-72109601D01*
X205724919Y-72109601D01*
X205548223Y-72074454D01*
X205381777Y-72005510D01*
X205231979Y-71905418D01*
X205104584Y-71778023D01*
X205004492Y-71628225D01*
X204935548Y-71461779D01*
X204900401Y-71285083D01*
X204900401Y-71104919D01*
X204935548Y-70928223D01*
X205004492Y-70761777D01*
X205104584Y-70611979D01*
X205231979Y-70484584D01*
X205381777Y-70384492D01*
X205548223Y-70315548D01*
X205724919Y-70280401D01*
X205905083Y-70280401D01*
X206081779Y-70315548D01*
G37*
G36*
X203541779Y-70315548D02*
G01*
X203708225Y-70384492D01*
X203858023Y-70484584D01*
X203985418Y-70611979D01*
X204085510Y-70761777D01*
X204154454Y-70928223D01*
X204189601Y-71104919D01*
X204189601Y-71285083D01*
X204154454Y-71461779D01*
X204085510Y-71628225D01*
X203985418Y-71778023D01*
X203858023Y-71905418D01*
X203708225Y-72005510D01*
X203541779Y-72074454D01*
X203365083Y-72109601D01*
X203184919Y-72109601D01*
X203008223Y-72074454D01*
X202841777Y-72005510D01*
X202691979Y-71905418D01*
X202564584Y-71778023D01*
X202464492Y-71628225D01*
X202395548Y-71461779D01*
X202360401Y-71285083D01*
X202360401Y-71104919D01*
X202395548Y-70928223D01*
X202464492Y-70761777D01*
X202564584Y-70611979D01*
X202691979Y-70484584D01*
X202841777Y-70384492D01*
X203008223Y-70315548D01*
X203184919Y-70280401D01*
X203365083Y-70280401D01*
X203541779Y-70315548D01*
G37*
G36*
X113143512Y-68953927D02*
G01*
X113292812Y-68983624D01*
X113456784Y-69051544D01*
X113604354Y-69150147D01*
X113729853Y-69275646D01*
X113828456Y-69423216D01*
X113896376Y-69587188D01*
X113931000Y-69761259D01*
X113931000Y-69938741D01*
X113896376Y-70112812D01*
X113828456Y-70276784D01*
X113729853Y-70424354D01*
X113604354Y-70549853D01*
X113456784Y-70648456D01*
X113292812Y-70716376D01*
X113143512Y-70746073D01*
X113118742Y-70751000D01*
X112941258Y-70751000D01*
X112916488Y-70746073D01*
X112767188Y-70716376D01*
X112603216Y-70648456D01*
X112455646Y-70549853D01*
X112330147Y-70424354D01*
X112231544Y-70276784D01*
X112163624Y-70112812D01*
X112129000Y-69938741D01*
X112129000Y-69761259D01*
X112163624Y-69587188D01*
X112231544Y-69423216D01*
X112330147Y-69275646D01*
X112455646Y-69150147D01*
X112603216Y-69051544D01*
X112767188Y-68983624D01*
X112916488Y-68953927D01*
X112941258Y-68949000D01*
X113118742Y-68949000D01*
X113143512Y-68953927D01*
G37*
G36*
X115683512Y-68953927D02*
G01*
X115832812Y-68983624D01*
X115996784Y-69051544D01*
X116144354Y-69150147D01*
X116269853Y-69275646D01*
X116368456Y-69423216D01*
X116436376Y-69587188D01*
X116471000Y-69761259D01*
X116471000Y-69938741D01*
X116436376Y-70112812D01*
X116368456Y-70276784D01*
X116269853Y-70424354D01*
X116144354Y-70549853D01*
X115996784Y-70648456D01*
X115832812Y-70716376D01*
X115683512Y-70746073D01*
X115658742Y-70751000D01*
X115481258Y-70751000D01*
X115456488Y-70746073D01*
X115307188Y-70716376D01*
X115143216Y-70648456D01*
X114995646Y-70549853D01*
X114870147Y-70424354D01*
X114771544Y-70276784D01*
X114703624Y-70112812D01*
X114669000Y-69938741D01*
X114669000Y-69761259D01*
X114703624Y-69587188D01*
X114771544Y-69423216D01*
X114870147Y-69275646D01*
X114995646Y-69150147D01*
X115143216Y-69051544D01*
X115307188Y-68983624D01*
X115456488Y-68953927D01*
X115481258Y-68949000D01*
X115658742Y-68949000D01*
X115683512Y-68953927D01*
G37*
G36*
X206081779Y-67775548D02*
G01*
X206248225Y-67844492D01*
X206398023Y-67944584D01*
X206525418Y-68071979D01*
X206625510Y-68221777D01*
X206694454Y-68388223D01*
X206729601Y-68564919D01*
X206729601Y-68745083D01*
X206694454Y-68921779D01*
X206625510Y-69088225D01*
X206525418Y-69238023D01*
X206398023Y-69365418D01*
X206248225Y-69465510D01*
X206081779Y-69534454D01*
X205905083Y-69569601D01*
X205724919Y-69569601D01*
X205548223Y-69534454D01*
X205381777Y-69465510D01*
X205231979Y-69365418D01*
X205104584Y-69238023D01*
X205004492Y-69088225D01*
X204935548Y-68921779D01*
X204900401Y-68745083D01*
X204900401Y-68564919D01*
X204935548Y-68388223D01*
X205004492Y-68221777D01*
X205104584Y-68071979D01*
X205231979Y-67944584D01*
X205381777Y-67844492D01*
X205548223Y-67775548D01*
X205724919Y-67740401D01*
X205905083Y-67740401D01*
X206081779Y-67775548D01*
G37*
G36*
X203541779Y-67775548D02*
G01*
X203708225Y-67844492D01*
X203858023Y-67944584D01*
X203985418Y-68071979D01*
X204085510Y-68221777D01*
X204154454Y-68388223D01*
X204189601Y-68564919D01*
X204189601Y-68745083D01*
X204154454Y-68921779D01*
X204085510Y-69088225D01*
X203985418Y-69238023D01*
X203858023Y-69365418D01*
X203708225Y-69465510D01*
X203541779Y-69534454D01*
X203365083Y-69569601D01*
X203184919Y-69569601D01*
X203008223Y-69534454D01*
X202841777Y-69465510D01*
X202691979Y-69365418D01*
X202564584Y-69238023D01*
X202464492Y-69088225D01*
X202395548Y-68921779D01*
X202360401Y-68745083D01*
X202360401Y-68564919D01*
X202395548Y-68388223D01*
X202464492Y-68221777D01*
X202564584Y-68071979D01*
X202691979Y-67944584D01*
X202841777Y-67844492D01*
X203008223Y-67775548D01*
X203184919Y-67740401D01*
X203365083Y-67740401D01*
X203541779Y-67775548D01*
G37*
G36*
X113143512Y-66413927D02*
G01*
X113292812Y-66443624D01*
X113456784Y-66511544D01*
X113604354Y-66610147D01*
X113729853Y-66735646D01*
X113828456Y-66883216D01*
X113896376Y-67047188D01*
X113931000Y-67221259D01*
X113931000Y-67398741D01*
X113896376Y-67572812D01*
X113828456Y-67736784D01*
X113729853Y-67884354D01*
X113604354Y-68009853D01*
X113456784Y-68108456D01*
X113292812Y-68176376D01*
X113143512Y-68206073D01*
X113118742Y-68211000D01*
X112941258Y-68211000D01*
X112916488Y-68206073D01*
X112767188Y-68176376D01*
X112603216Y-68108456D01*
X112455646Y-68009853D01*
X112330147Y-67884354D01*
X112231544Y-67736784D01*
X112163624Y-67572812D01*
X112129000Y-67398741D01*
X112129000Y-67221259D01*
X112163624Y-67047188D01*
X112231544Y-66883216D01*
X112330147Y-66735646D01*
X112455646Y-66610147D01*
X112603216Y-66511544D01*
X112767188Y-66443624D01*
X112916488Y-66413927D01*
X112941258Y-66409000D01*
X113118742Y-66409000D01*
X113143512Y-66413927D01*
G37*
G36*
X115683512Y-66413927D02*
G01*
X115832812Y-66443624D01*
X115996784Y-66511544D01*
X116144354Y-66610147D01*
X116269853Y-66735646D01*
X116368456Y-66883216D01*
X116436376Y-67047188D01*
X116471000Y-67221259D01*
X116471000Y-67398741D01*
X116436376Y-67572812D01*
X116368456Y-67736784D01*
X116269853Y-67884354D01*
X116144354Y-68009853D01*
X115996784Y-68108456D01*
X115832812Y-68176376D01*
X115683512Y-68206073D01*
X115658742Y-68211000D01*
X115481258Y-68211000D01*
X115456488Y-68206073D01*
X115307188Y-68176376D01*
X115143216Y-68108456D01*
X114995646Y-68009853D01*
X114870147Y-67884354D01*
X114771544Y-67736784D01*
X114703624Y-67572812D01*
X114669000Y-67398741D01*
X114669000Y-67221259D01*
X114703624Y-67047188D01*
X114771544Y-66883216D01*
X114870147Y-66735646D01*
X114995646Y-66610147D01*
X115143216Y-66511544D01*
X115307188Y-66443624D01*
X115456488Y-66413927D01*
X115481258Y-66409000D01*
X115658742Y-66409000D01*
X115683512Y-66413927D01*
G37*
G36*
X165348228Y-66491703D02*
G01*
X165503100Y-66555853D01*
X165642481Y-66648985D01*
X165761015Y-66767519D01*
X165854147Y-66906900D01*
X165918297Y-67061772D01*
X165951000Y-67226184D01*
X165951000Y-67393816D01*
X165918297Y-67558228D01*
X165854147Y-67713100D01*
X165761015Y-67852481D01*
X165642481Y-67971015D01*
X165503100Y-68064147D01*
X165348228Y-68128297D01*
X165183816Y-68161000D01*
X165016184Y-68161000D01*
X164851772Y-68128297D01*
X164696900Y-68064147D01*
X164557519Y-67971015D01*
X164438985Y-67852481D01*
X164345853Y-67713100D01*
X164281703Y-67558228D01*
X164249000Y-67393816D01*
X164249000Y-67226184D01*
X164281703Y-67061772D01*
X164345853Y-66906900D01*
X164438985Y-66767519D01*
X164557519Y-66648985D01*
X164696900Y-66555853D01*
X164851772Y-66491703D01*
X165016184Y-66459000D01*
X165183816Y-66459000D01*
X165348228Y-66491703D01*
G37*
G36*
X157728228Y-66491703D02*
G01*
X157883100Y-66555853D01*
X158022481Y-66648985D01*
X158141015Y-66767519D01*
X158234147Y-66906900D01*
X158298297Y-67061772D01*
X158331000Y-67226184D01*
X158331000Y-67393816D01*
X158298297Y-67558228D01*
X158234147Y-67713100D01*
X158141015Y-67852481D01*
X158022481Y-67971015D01*
X157883100Y-68064147D01*
X157728228Y-68128297D01*
X157563816Y-68161000D01*
X157396184Y-68161000D01*
X157231772Y-68128297D01*
X157076900Y-68064147D01*
X156937519Y-67971015D01*
X156818985Y-67852481D01*
X156725853Y-67713100D01*
X156661703Y-67558228D01*
X156629000Y-67393816D01*
X156629000Y-67226184D01*
X156661703Y-67061772D01*
X156725853Y-66906900D01*
X156818985Y-66767519D01*
X156937519Y-66648985D01*
X157076900Y-66555853D01*
X157231772Y-66491703D01*
X157396184Y-66459000D01*
X157563816Y-66459000D01*
X157728228Y-66491703D01*
G37*
G36*
X203541779Y-65235548D02*
G01*
X203708225Y-65304492D01*
X203858023Y-65404584D01*
X203985418Y-65531979D01*
X204085510Y-65681777D01*
X204154454Y-65848223D01*
X204189601Y-66024919D01*
X204189601Y-66205083D01*
X204154454Y-66381779D01*
X204085510Y-66548225D01*
X203985418Y-66698023D01*
X203858023Y-66825418D01*
X203708225Y-66925510D01*
X203541779Y-66994454D01*
X203365083Y-67029601D01*
X203184919Y-67029601D01*
X203008223Y-66994454D01*
X202841777Y-66925510D01*
X202691979Y-66825418D01*
X202564584Y-66698023D01*
X202464492Y-66548225D01*
X202395548Y-66381779D01*
X202360401Y-66205083D01*
X202360401Y-66024919D01*
X202395548Y-65848223D01*
X202464492Y-65681777D01*
X202564584Y-65531979D01*
X202691979Y-65404584D01*
X202841777Y-65304492D01*
X203008223Y-65235548D01*
X203184919Y-65200401D01*
X203365083Y-65200401D01*
X203541779Y-65235548D01*
G37*
G36*
X206081779Y-65235548D02*
G01*
X206248225Y-65304492D01*
X206398023Y-65404584D01*
X206525418Y-65531979D01*
X206625510Y-65681777D01*
X206694454Y-65848223D01*
X206729601Y-66024919D01*
X206729601Y-66205083D01*
X206694454Y-66381779D01*
X206625510Y-66548225D01*
X206525418Y-66698023D01*
X206398023Y-66825418D01*
X206248225Y-66925510D01*
X206081779Y-66994454D01*
X205905083Y-67029601D01*
X205724919Y-67029601D01*
X205548223Y-66994454D01*
X205381777Y-66925510D01*
X205231979Y-66825418D01*
X205104584Y-66698023D01*
X205004492Y-66548225D01*
X204935548Y-66381779D01*
X204900401Y-66205083D01*
X204900401Y-66024919D01*
X204935548Y-65848223D01*
X205004492Y-65681777D01*
X205104584Y-65531979D01*
X205231979Y-65404584D01*
X205381777Y-65304492D01*
X205548223Y-65235548D01*
X205724919Y-65200401D01*
X205905083Y-65200401D01*
X206081779Y-65235548D01*
G37*
G36*
X113931000Y-65671000D02*
G01*
X112129000Y-65671000D01*
X112129000Y-63869000D01*
X113931000Y-63869000D01*
X113931000Y-65671000D01*
G37*
G36*
X115683512Y-63873927D02*
G01*
X115832812Y-63903624D01*
X115996784Y-63971544D01*
X116144354Y-64070147D01*
X116269853Y-64195646D01*
X116368456Y-64343216D01*
X116436376Y-64507188D01*
X116471000Y-64681259D01*
X116471000Y-64858741D01*
X116436376Y-65032812D01*
X116368456Y-65196784D01*
X116269853Y-65344354D01*
X116144354Y-65469853D01*
X115996784Y-65568456D01*
X115832812Y-65636376D01*
X115683512Y-65666073D01*
X115658742Y-65671000D01*
X115481258Y-65671000D01*
X115456488Y-65666073D01*
X115307188Y-65636376D01*
X115143216Y-65568456D01*
X114995646Y-65469853D01*
X114870147Y-65344354D01*
X114771544Y-65196784D01*
X114703624Y-65032812D01*
X114669000Y-64858741D01*
X114669000Y-64681259D01*
X114703624Y-64507188D01*
X114771544Y-64343216D01*
X114870147Y-64195646D01*
X114995646Y-64070147D01*
X115143216Y-63971544D01*
X115307188Y-63903624D01*
X115456488Y-63873927D01*
X115481258Y-63869000D01*
X115658742Y-63869000D01*
X115683512Y-63873927D01*
G37*
G36*
X157728228Y-63951703D02*
G01*
X157883100Y-64015853D01*
X158022481Y-64108985D01*
X158141015Y-64227519D01*
X158234147Y-64366900D01*
X158298297Y-64521772D01*
X158331000Y-64686184D01*
X158331000Y-64853816D01*
X158298297Y-65018228D01*
X158234147Y-65173100D01*
X158141015Y-65312481D01*
X158022481Y-65431015D01*
X157883100Y-65524147D01*
X157728228Y-65588297D01*
X157563816Y-65621000D01*
X157396184Y-65621000D01*
X157231772Y-65588297D01*
X157076900Y-65524147D01*
X156937519Y-65431015D01*
X156818985Y-65312481D01*
X156725853Y-65173100D01*
X156661703Y-65018228D01*
X156629000Y-64853816D01*
X156629000Y-64686184D01*
X156661703Y-64521772D01*
X156725853Y-64366900D01*
X156818985Y-64227519D01*
X156937519Y-64108985D01*
X157076900Y-64015853D01*
X157231772Y-63951703D01*
X157396184Y-63919000D01*
X157563816Y-63919000D01*
X157728228Y-63951703D01*
G37*
G36*
X165348228Y-63951703D02*
G01*
X165503100Y-64015853D01*
X165642481Y-64108985D01*
X165761015Y-64227519D01*
X165854147Y-64366900D01*
X165918297Y-64521772D01*
X165951000Y-64686184D01*
X165951000Y-64853816D01*
X165918297Y-65018228D01*
X165854147Y-65173100D01*
X165761015Y-65312481D01*
X165642481Y-65431015D01*
X165503100Y-65524147D01*
X165348228Y-65588297D01*
X165183816Y-65621000D01*
X165016184Y-65621000D01*
X164851772Y-65588297D01*
X164696900Y-65524147D01*
X164557519Y-65431015D01*
X164438985Y-65312481D01*
X164345853Y-65173100D01*
X164281703Y-65018228D01*
X164249000Y-64853816D01*
X164249000Y-64686184D01*
X164281703Y-64521772D01*
X164345853Y-64366900D01*
X164438985Y-64227519D01*
X164557519Y-64108985D01*
X164696900Y-64015853D01*
X164851772Y-63951703D01*
X165016184Y-63919000D01*
X165183816Y-63919000D01*
X165348228Y-63951703D01*
G37*
G36*
X203541779Y-62695548D02*
G01*
X203708225Y-62764492D01*
X203858023Y-62864584D01*
X203985418Y-62991979D01*
X204085510Y-63141777D01*
X204154454Y-63308223D01*
X204189601Y-63484919D01*
X204189601Y-63665083D01*
X204154454Y-63841779D01*
X204085510Y-64008225D01*
X203985418Y-64158023D01*
X203858023Y-64285418D01*
X203708225Y-64385510D01*
X203541779Y-64454454D01*
X203365083Y-64489601D01*
X203184919Y-64489601D01*
X203008223Y-64454454D01*
X202841777Y-64385510D01*
X202691979Y-64285418D01*
X202564584Y-64158023D01*
X202464492Y-64008225D01*
X202395548Y-63841779D01*
X202360401Y-63665083D01*
X202360401Y-63484919D01*
X202395548Y-63308223D01*
X202464492Y-63141777D01*
X202564584Y-62991979D01*
X202691979Y-62864584D01*
X202841777Y-62764492D01*
X203008223Y-62695548D01*
X203184919Y-62660401D01*
X203365083Y-62660401D01*
X203541779Y-62695548D01*
G37*
G36*
X206081779Y-62695548D02*
G01*
X206248225Y-62764492D01*
X206398023Y-62864584D01*
X206525418Y-62991979D01*
X206625510Y-63141777D01*
X206694454Y-63308223D01*
X206729601Y-63484919D01*
X206729601Y-63665083D01*
X206694454Y-63841779D01*
X206625510Y-64008225D01*
X206525418Y-64158023D01*
X206398023Y-64285418D01*
X206248225Y-64385510D01*
X206081779Y-64454454D01*
X205905083Y-64489601D01*
X205724919Y-64489601D01*
X205548223Y-64454454D01*
X205381777Y-64385510D01*
X205231979Y-64285418D01*
X205104584Y-64158023D01*
X205004492Y-64008225D01*
X204935548Y-63841779D01*
X204900401Y-63665083D01*
X204900401Y-63484919D01*
X204935548Y-63308223D01*
X205004492Y-63141777D01*
X205104584Y-62991979D01*
X205231979Y-62864584D01*
X205381777Y-62764492D01*
X205548223Y-62695548D01*
X205724919Y-62660401D01*
X205905083Y-62660401D01*
X206081779Y-62695548D01*
G37*
G36*
X165348228Y-61411703D02*
G01*
X165503100Y-61475853D01*
X165642481Y-61568985D01*
X165761015Y-61687519D01*
X165854147Y-61826900D01*
X165918297Y-61981772D01*
X165951000Y-62146184D01*
X165951000Y-62313816D01*
X165918297Y-62478228D01*
X165854147Y-62633100D01*
X165761015Y-62772481D01*
X165642481Y-62891015D01*
X165503100Y-62984147D01*
X165348228Y-63048297D01*
X165183816Y-63081000D01*
X165016184Y-63081000D01*
X164851772Y-63048297D01*
X164696900Y-62984147D01*
X164557519Y-62891015D01*
X164438985Y-62772481D01*
X164345853Y-62633100D01*
X164281703Y-62478228D01*
X164249000Y-62313816D01*
X164249000Y-62146184D01*
X164281703Y-61981772D01*
X164345853Y-61826900D01*
X164438985Y-61687519D01*
X164557519Y-61568985D01*
X164696900Y-61475853D01*
X164851772Y-61411703D01*
X165016184Y-61379000D01*
X165183816Y-61379000D01*
X165348228Y-61411703D01*
G37*
G36*
X157728228Y-61411703D02*
G01*
X157883100Y-61475853D01*
X158022481Y-61568985D01*
X158141015Y-61687519D01*
X158234147Y-61826900D01*
X158298297Y-61981772D01*
X158331000Y-62146184D01*
X158331000Y-62313816D01*
X158298297Y-62478228D01*
X158234147Y-62633100D01*
X158141015Y-62772481D01*
X158022481Y-62891015D01*
X157883100Y-62984147D01*
X157728228Y-63048297D01*
X157563816Y-63081000D01*
X157396184Y-63081000D01*
X157231772Y-63048297D01*
X157076900Y-62984147D01*
X156937519Y-62891015D01*
X156818985Y-62772481D01*
X156725853Y-62633100D01*
X156661703Y-62478228D01*
X156629000Y-62313816D01*
X156629000Y-62146184D01*
X156661703Y-61981772D01*
X156725853Y-61826900D01*
X156818985Y-61687519D01*
X156937519Y-61568985D01*
X157076900Y-61475853D01*
X157231772Y-61411703D01*
X157396184Y-61379000D01*
X157563816Y-61379000D01*
X157728228Y-61411703D01*
G37*
G36*
X203541779Y-60155548D02*
G01*
X203708225Y-60224492D01*
X203858023Y-60324584D01*
X203985418Y-60451979D01*
X204085510Y-60601777D01*
X204154454Y-60768223D01*
X204189601Y-60944919D01*
X204189601Y-61125083D01*
X204154454Y-61301779D01*
X204085510Y-61468225D01*
X203985418Y-61618023D01*
X203858023Y-61745418D01*
X203708225Y-61845510D01*
X203541779Y-61914454D01*
X203365083Y-61949601D01*
X203184919Y-61949601D01*
X203008223Y-61914454D01*
X202841777Y-61845510D01*
X202691979Y-61745418D01*
X202564584Y-61618023D01*
X202464492Y-61468225D01*
X202395548Y-61301779D01*
X202360401Y-61125083D01*
X202360401Y-60944919D01*
X202395548Y-60768223D01*
X202464492Y-60601777D01*
X202564584Y-60451979D01*
X202691979Y-60324584D01*
X202841777Y-60224492D01*
X203008223Y-60155548D01*
X203184919Y-60120401D01*
X203365083Y-60120401D01*
X203541779Y-60155548D01*
G37*
G36*
X206081779Y-60155548D02*
G01*
X206248225Y-60224492D01*
X206398023Y-60324584D01*
X206525418Y-60451979D01*
X206625510Y-60601777D01*
X206694454Y-60768223D01*
X206729601Y-60944919D01*
X206729601Y-61125083D01*
X206694454Y-61301779D01*
X206625510Y-61468225D01*
X206525418Y-61618023D01*
X206398023Y-61745418D01*
X206248225Y-61845510D01*
X206081779Y-61914454D01*
X205905083Y-61949601D01*
X205724919Y-61949601D01*
X205548223Y-61914454D01*
X205381777Y-61845510D01*
X205231979Y-61745418D01*
X205104584Y-61618023D01*
X205004492Y-61468225D01*
X204935548Y-61301779D01*
X204900401Y-61125083D01*
X204900401Y-60944919D01*
X204935548Y-60768223D01*
X205004492Y-60601777D01*
X205104584Y-60451979D01*
X205231979Y-60324584D01*
X205381777Y-60224492D01*
X205548223Y-60155548D01*
X205724919Y-60120401D01*
X205905083Y-60120401D01*
X206081779Y-60155548D01*
G37*
G36*
X165348228Y-58871703D02*
G01*
X165503100Y-58935853D01*
X165642481Y-59028985D01*
X165761015Y-59147519D01*
X165854147Y-59286900D01*
X165918297Y-59441772D01*
X165951000Y-59606184D01*
X165951000Y-59773816D01*
X165918297Y-59938228D01*
X165854147Y-60093100D01*
X165761015Y-60232481D01*
X165642481Y-60351015D01*
X165503100Y-60444147D01*
X165348228Y-60508297D01*
X165183816Y-60541000D01*
X165016184Y-60541000D01*
X164851772Y-60508297D01*
X164696900Y-60444147D01*
X164557519Y-60351015D01*
X164438985Y-60232481D01*
X164345853Y-60093100D01*
X164281703Y-59938228D01*
X164249000Y-59773816D01*
X164249000Y-59606184D01*
X164281703Y-59441772D01*
X164345853Y-59286900D01*
X164438985Y-59147519D01*
X164557519Y-59028985D01*
X164696900Y-58935853D01*
X164851772Y-58871703D01*
X165016184Y-58839000D01*
X165183816Y-58839000D01*
X165348228Y-58871703D01*
G37*
G36*
X158331000Y-60541000D02*
G01*
X156629000Y-60541000D01*
X156629000Y-58839000D01*
X158331000Y-58839000D01*
X158331000Y-60541000D01*
G37*
G36*
X206081779Y-57615548D02*
G01*
X206248225Y-57684492D01*
X206398023Y-57784584D01*
X206525418Y-57911979D01*
X206625510Y-58061777D01*
X206694454Y-58228223D01*
X206729601Y-58404919D01*
X206729601Y-58585083D01*
X206694454Y-58761779D01*
X206625510Y-58928225D01*
X206525418Y-59078023D01*
X206398023Y-59205418D01*
X206248225Y-59305510D01*
X206081779Y-59374454D01*
X205905083Y-59409601D01*
X205724919Y-59409601D01*
X205548223Y-59374454D01*
X205381777Y-59305510D01*
X205231979Y-59205418D01*
X205104584Y-59078023D01*
X205004492Y-58928225D01*
X204935548Y-58761779D01*
X204900401Y-58585083D01*
X204900401Y-58404919D01*
X204935548Y-58228223D01*
X205004492Y-58061777D01*
X205104584Y-57911979D01*
X205231979Y-57784584D01*
X205381777Y-57684492D01*
X205548223Y-57615548D01*
X205724919Y-57580401D01*
X205905083Y-57580401D01*
X206081779Y-57615548D01*
G37*
G36*
X203541779Y-57615548D02*
G01*
X203708225Y-57684492D01*
X203858023Y-57784584D01*
X203985418Y-57911979D01*
X204085510Y-58061777D01*
X204154454Y-58228223D01*
X204189601Y-58404919D01*
X204189601Y-58585083D01*
X204154454Y-58761779D01*
X204085510Y-58928225D01*
X203985418Y-59078023D01*
X203858023Y-59205418D01*
X203708225Y-59305510D01*
X203541779Y-59374454D01*
X203365083Y-59409601D01*
X203184919Y-59409601D01*
X203008223Y-59374454D01*
X202841777Y-59305510D01*
X202691979Y-59205418D01*
X202564584Y-59078023D01*
X202464492Y-58928225D01*
X202395548Y-58761779D01*
X202360401Y-58585083D01*
X202360401Y-58404919D01*
X202395548Y-58228223D01*
X202464492Y-58061777D01*
X202564584Y-57911979D01*
X202691979Y-57784584D01*
X202841777Y-57684492D01*
X203008223Y-57615548D01*
X203184919Y-57580401D01*
X203365083Y-57580401D01*
X203541779Y-57615548D01*
G37*
G36*
X206081779Y-55075548D02*
G01*
X206248225Y-55144492D01*
X206398023Y-55244584D01*
X206525418Y-55371979D01*
X206625510Y-55521777D01*
X206694454Y-55688223D01*
X206729601Y-55864919D01*
X206729601Y-56045083D01*
X206694454Y-56221779D01*
X206625510Y-56388225D01*
X206525418Y-56538023D01*
X206398023Y-56665418D01*
X206248225Y-56765510D01*
X206081779Y-56834454D01*
X205905083Y-56869601D01*
X205724919Y-56869601D01*
X205548223Y-56834454D01*
X205381777Y-56765510D01*
X205231979Y-56665418D01*
X205104584Y-56538023D01*
X205004492Y-56388225D01*
X204935548Y-56221779D01*
X204900401Y-56045083D01*
X204900401Y-55864919D01*
X204935548Y-55688223D01*
X205004492Y-55521777D01*
X205104584Y-55371979D01*
X205231979Y-55244584D01*
X205381777Y-55144492D01*
X205548223Y-55075548D01*
X205724919Y-55040401D01*
X205905083Y-55040401D01*
X206081779Y-55075548D01*
G37*
G36*
X203541779Y-55075548D02*
G01*
X203708225Y-55144492D01*
X203858023Y-55244584D01*
X203985418Y-55371979D01*
X204085510Y-55521777D01*
X204154454Y-55688223D01*
X204189601Y-55864919D01*
X204189601Y-56045083D01*
X204154454Y-56221779D01*
X204085510Y-56388225D01*
X203985418Y-56538023D01*
X203858023Y-56665418D01*
X203708225Y-56765510D01*
X203541779Y-56834454D01*
X203365083Y-56869601D01*
X203184919Y-56869601D01*
X203008223Y-56834454D01*
X202841777Y-56765510D01*
X202691979Y-56665418D01*
X202564584Y-56538023D01*
X202464492Y-56388225D01*
X202395548Y-56221779D01*
X202360401Y-56045083D01*
X202360401Y-55864919D01*
X202395548Y-55688223D01*
X202464492Y-55521777D01*
X202564584Y-55371979D01*
X202691979Y-55244584D01*
X202841777Y-55144492D01*
X203008223Y-55075548D01*
X203184919Y-55040401D01*
X203365083Y-55040401D01*
X203541779Y-55075548D01*
G37*
G36*
X203541779Y-52535548D02*
G01*
X203708225Y-52604492D01*
X203858023Y-52704584D01*
X203985418Y-52831979D01*
X204085510Y-52981777D01*
X204154454Y-53148223D01*
X204189601Y-53324919D01*
X204189601Y-53505083D01*
X204154454Y-53681779D01*
X204085510Y-53848225D01*
X203985418Y-53998023D01*
X203858023Y-54125418D01*
X203708225Y-54225510D01*
X203541779Y-54294454D01*
X203365083Y-54329601D01*
X203184919Y-54329601D01*
X203008223Y-54294454D01*
X202841777Y-54225510D01*
X202691979Y-54125418D01*
X202564584Y-53998023D01*
X202464492Y-53848225D01*
X202395548Y-53681779D01*
X202360401Y-53505083D01*
X202360401Y-53324919D01*
X202395548Y-53148223D01*
X202464492Y-52981777D01*
X202564584Y-52831979D01*
X202691979Y-52704584D01*
X202841777Y-52604492D01*
X203008223Y-52535548D01*
X203184919Y-52500401D01*
X203365083Y-52500401D01*
X203541779Y-52535548D01*
G37*
G36*
X206081779Y-52535548D02*
G01*
X206248225Y-52604492D01*
X206398023Y-52704584D01*
X206525418Y-52831979D01*
X206625510Y-52981777D01*
X206694454Y-53148223D01*
X206729601Y-53324919D01*
X206729601Y-53505083D01*
X206694454Y-53681779D01*
X206625510Y-53848225D01*
X206525418Y-53998023D01*
X206398023Y-54125418D01*
X206248225Y-54225510D01*
X206081779Y-54294454D01*
X205905083Y-54329601D01*
X205724919Y-54329601D01*
X205548223Y-54294454D01*
X205381777Y-54225510D01*
X205231979Y-54125418D01*
X205104584Y-53998023D01*
X205004492Y-53848225D01*
X204935548Y-53681779D01*
X204900401Y-53505083D01*
X204900401Y-53324919D01*
X204935548Y-53148223D01*
X205004492Y-52981777D01*
X205104584Y-52831979D01*
X205231979Y-52704584D01*
X205381777Y-52604492D01*
X205548223Y-52535548D01*
X205724919Y-52500401D01*
X205905083Y-52500401D01*
X206081779Y-52535548D01*
G37*
G36*
X143623512Y-52443927D02*
G01*
X143772812Y-52473624D01*
X143936784Y-52541544D01*
X144084354Y-52640147D01*
X144209853Y-52765646D01*
X144308456Y-52913216D01*
X144376376Y-53077188D01*
X144411000Y-53251259D01*
X144411000Y-53428741D01*
X144376376Y-53602812D01*
X144308456Y-53766784D01*
X144209853Y-53914354D01*
X144084354Y-54039853D01*
X143936784Y-54138456D01*
X143772812Y-54206376D01*
X143623512Y-54236073D01*
X143598742Y-54241000D01*
X143421258Y-54241000D01*
X143396488Y-54236073D01*
X143247188Y-54206376D01*
X143083216Y-54138456D01*
X142935646Y-54039853D01*
X142810147Y-53914354D01*
X142711544Y-53766784D01*
X142643624Y-53602812D01*
X142609000Y-53428741D01*
X142609000Y-53251259D01*
X142643624Y-53077188D01*
X142711544Y-52913216D01*
X142810147Y-52765646D01*
X142935646Y-52640147D01*
X143083216Y-52541544D01*
X143247188Y-52473624D01*
X143396488Y-52443927D01*
X143421258Y-52439000D01*
X143598742Y-52439000D01*
X143623512Y-52443927D01*
G37*
G36*
X149491000Y-54241000D02*
G01*
X147689000Y-54241000D01*
X147689000Y-52439000D01*
X149491000Y-52439000D01*
X149491000Y-54241000D01*
G37*
G36*
X146163512Y-52443927D02*
G01*
X146312812Y-52473624D01*
X146476784Y-52541544D01*
X146624354Y-52640147D01*
X146749853Y-52765646D01*
X146848456Y-52913216D01*
X146916376Y-53077188D01*
X146951000Y-53251259D01*
X146951000Y-53428741D01*
X146916376Y-53602812D01*
X146848456Y-53766784D01*
X146749853Y-53914354D01*
X146624354Y-54039853D01*
X146476784Y-54138456D01*
X146312812Y-54206376D01*
X146163512Y-54236073D01*
X146138742Y-54241000D01*
X145961258Y-54241000D01*
X145936488Y-54236073D01*
X145787188Y-54206376D01*
X145623216Y-54138456D01*
X145475646Y-54039853D01*
X145350147Y-53914354D01*
X145251544Y-53766784D01*
X145183624Y-53602812D01*
X145149000Y-53428741D01*
X145149000Y-53251259D01*
X145183624Y-53077188D01*
X145251544Y-52913216D01*
X145350147Y-52765646D01*
X145475646Y-52640147D01*
X145623216Y-52541544D01*
X145787188Y-52473624D01*
X145936488Y-52443927D01*
X145961258Y-52439000D01*
X146138742Y-52439000D01*
X146163512Y-52443927D01*
G37*
G36*
X141083512Y-52443927D02*
G01*
X141232812Y-52473624D01*
X141396784Y-52541544D01*
X141544354Y-52640147D01*
X141669853Y-52765646D01*
X141768456Y-52913216D01*
X141836376Y-53077188D01*
X141871000Y-53251259D01*
X141871000Y-53428741D01*
X141836376Y-53602812D01*
X141768456Y-53766784D01*
X141669853Y-53914354D01*
X141544354Y-54039853D01*
X141396784Y-54138456D01*
X141232812Y-54206376D01*
X141083512Y-54236073D01*
X141058742Y-54241000D01*
X140881258Y-54241000D01*
X140856488Y-54236073D01*
X140707188Y-54206376D01*
X140543216Y-54138456D01*
X140395646Y-54039853D01*
X140270147Y-53914354D01*
X140171544Y-53766784D01*
X140103624Y-53602812D01*
X140069000Y-53428741D01*
X140069000Y-53251259D01*
X140103624Y-53077188D01*
X140171544Y-52913216D01*
X140270147Y-52765646D01*
X140395646Y-52640147D01*
X140543216Y-52541544D01*
X140707188Y-52473624D01*
X140856488Y-52443927D01*
X140881258Y-52439000D01*
X141058742Y-52439000D01*
X141083512Y-52443927D01*
G37*
G36*
X206081779Y-49995548D02*
G01*
X206248225Y-50064492D01*
X206398023Y-50164584D01*
X206525418Y-50291979D01*
X206625510Y-50441777D01*
X206694454Y-50608223D01*
X206729601Y-50784919D01*
X206729601Y-50965083D01*
X206694454Y-51141779D01*
X206625510Y-51308225D01*
X206525418Y-51458023D01*
X206398023Y-51585418D01*
X206248225Y-51685510D01*
X206081779Y-51754454D01*
X205905083Y-51789601D01*
X205724919Y-51789601D01*
X205548223Y-51754454D01*
X205381777Y-51685510D01*
X205231979Y-51585418D01*
X205104584Y-51458023D01*
X205004492Y-51308225D01*
X204935548Y-51141779D01*
X204900401Y-50965083D01*
X204900401Y-50784919D01*
X204935548Y-50608223D01*
X205004492Y-50441777D01*
X205104584Y-50291979D01*
X205231979Y-50164584D01*
X205381777Y-50064492D01*
X205548223Y-49995548D01*
X205724919Y-49960401D01*
X205905083Y-49960401D01*
X206081779Y-49995548D01*
G37*
G36*
X203541779Y-49995548D02*
G01*
X203708225Y-50064492D01*
X203858023Y-50164584D01*
X203985418Y-50291979D01*
X204085510Y-50441777D01*
X204154454Y-50608223D01*
X204189601Y-50784919D01*
X204189601Y-50965083D01*
X204154454Y-51141779D01*
X204085510Y-51308225D01*
X203985418Y-51458023D01*
X203858023Y-51585418D01*
X203708225Y-51685510D01*
X203541779Y-51754454D01*
X203365083Y-51789601D01*
X203184919Y-51789601D01*
X203008223Y-51754454D01*
X202841777Y-51685510D01*
X202691979Y-51585418D01*
X202564584Y-51458023D01*
X202464492Y-51308225D01*
X202395548Y-51141779D01*
X202360401Y-50965083D01*
X202360401Y-50784919D01*
X202395548Y-50608223D01*
X202464492Y-50441777D01*
X202564584Y-50291979D01*
X202691979Y-50164584D01*
X202841777Y-50064492D01*
X203008223Y-49995548D01*
X203184919Y-49960401D01*
X203365083Y-49960401D01*
X203541779Y-49995548D01*
G37*
G36*
X146163512Y-49903927D02*
G01*
X146312812Y-49933624D01*
X146476784Y-50001544D01*
X146624354Y-50100147D01*
X146749853Y-50225646D01*
X146848456Y-50373216D01*
X146916376Y-50537188D01*
X146951000Y-50711259D01*
X146951000Y-50888741D01*
X146916376Y-51062812D01*
X146848456Y-51226784D01*
X146749853Y-51374354D01*
X146624354Y-51499853D01*
X146476784Y-51598456D01*
X146312812Y-51666376D01*
X146163512Y-51696073D01*
X146138742Y-51701000D01*
X145961258Y-51701000D01*
X145936488Y-51696073D01*
X145787188Y-51666376D01*
X145623216Y-51598456D01*
X145475646Y-51499853D01*
X145350147Y-51374354D01*
X145251544Y-51226784D01*
X145183624Y-51062812D01*
X145149000Y-50888741D01*
X145149000Y-50711259D01*
X145183624Y-50537188D01*
X145251544Y-50373216D01*
X145350147Y-50225646D01*
X145475646Y-50100147D01*
X145623216Y-50001544D01*
X145787188Y-49933624D01*
X145936488Y-49903927D01*
X145961258Y-49899000D01*
X146138742Y-49899000D01*
X146163512Y-49903927D01*
G37*
G36*
X148703512Y-49903927D02*
G01*
X148852812Y-49933624D01*
X149016784Y-50001544D01*
X149164354Y-50100147D01*
X149289853Y-50225646D01*
X149388456Y-50373216D01*
X149456376Y-50537188D01*
X149491000Y-50711259D01*
X149491000Y-50888741D01*
X149456376Y-51062812D01*
X149388456Y-51226784D01*
X149289853Y-51374354D01*
X149164354Y-51499853D01*
X149016784Y-51598456D01*
X148852812Y-51666376D01*
X148703512Y-51696073D01*
X148678742Y-51701000D01*
X148501258Y-51701000D01*
X148476488Y-51696073D01*
X148327188Y-51666376D01*
X148163216Y-51598456D01*
X148015646Y-51499853D01*
X147890147Y-51374354D01*
X147791544Y-51226784D01*
X147723624Y-51062812D01*
X147689000Y-50888741D01*
X147689000Y-50711259D01*
X147723624Y-50537188D01*
X147791544Y-50373216D01*
X147890147Y-50225646D01*
X148015646Y-50100147D01*
X148163216Y-50001544D01*
X148327188Y-49933624D01*
X148476488Y-49903927D01*
X148501258Y-49899000D01*
X148678742Y-49899000D01*
X148703512Y-49903927D01*
G37*
G36*
X143623512Y-49903927D02*
G01*
X143772812Y-49933624D01*
X143936784Y-50001544D01*
X144084354Y-50100147D01*
X144209853Y-50225646D01*
X144308456Y-50373216D01*
X144376376Y-50537188D01*
X144411000Y-50711259D01*
X144411000Y-50888741D01*
X144376376Y-51062812D01*
X144308456Y-51226784D01*
X144209853Y-51374354D01*
X144084354Y-51499853D01*
X143936784Y-51598456D01*
X143772812Y-51666376D01*
X143623512Y-51696073D01*
X143598742Y-51701000D01*
X143421258Y-51701000D01*
X143396488Y-51696073D01*
X143247188Y-51666376D01*
X143083216Y-51598456D01*
X142935646Y-51499853D01*
X142810147Y-51374354D01*
X142711544Y-51226784D01*
X142643624Y-51062812D01*
X142609000Y-50888741D01*
X142609000Y-50711259D01*
X142643624Y-50537188D01*
X142711544Y-50373216D01*
X142810147Y-50225646D01*
X142935646Y-50100147D01*
X143083216Y-50001544D01*
X143247188Y-49933624D01*
X143396488Y-49903927D01*
X143421258Y-49899000D01*
X143598742Y-49899000D01*
X143623512Y-49903927D01*
G37*
G36*
X141083512Y-49903927D02*
G01*
X141232812Y-49933624D01*
X141396784Y-50001544D01*
X141544354Y-50100147D01*
X141669853Y-50225646D01*
X141768456Y-50373216D01*
X141836376Y-50537188D01*
X141871000Y-50711259D01*
X141871000Y-50888741D01*
X141836376Y-51062812D01*
X141768456Y-51226784D01*
X141669853Y-51374354D01*
X141544354Y-51499853D01*
X141396784Y-51598456D01*
X141232812Y-51666376D01*
X141083512Y-51696073D01*
X141058742Y-51701000D01*
X140881258Y-51701000D01*
X140856488Y-51696073D01*
X140707188Y-51666376D01*
X140543216Y-51598456D01*
X140395646Y-51499853D01*
X140270147Y-51374354D01*
X140171544Y-51226784D01*
X140103624Y-51062812D01*
X140069000Y-50888741D01*
X140069000Y-50711259D01*
X140103624Y-50537188D01*
X140171544Y-50373216D01*
X140270147Y-50225646D01*
X140395646Y-50100147D01*
X140543216Y-50001544D01*
X140707188Y-49933624D01*
X140856488Y-49903927D01*
X140881258Y-49899000D01*
X141058742Y-49899000D01*
X141083512Y-49903927D01*
G37*
G36*
X206081779Y-47455548D02*
G01*
X206248225Y-47524492D01*
X206398023Y-47624584D01*
X206525418Y-47751979D01*
X206625510Y-47901777D01*
X206694454Y-48068223D01*
X206729601Y-48244919D01*
X206729601Y-48425083D01*
X206694454Y-48601779D01*
X206625510Y-48768225D01*
X206525418Y-48918023D01*
X206398023Y-49045418D01*
X206248225Y-49145510D01*
X206081779Y-49214454D01*
X205905083Y-49249601D01*
X205724919Y-49249601D01*
X205548223Y-49214454D01*
X205381777Y-49145510D01*
X205231979Y-49045418D01*
X205104584Y-48918023D01*
X205004492Y-48768225D01*
X204935548Y-48601779D01*
X204900401Y-48425083D01*
X204900401Y-48244919D01*
X204935548Y-48068223D01*
X205004492Y-47901777D01*
X205104584Y-47751979D01*
X205231979Y-47624584D01*
X205381777Y-47524492D01*
X205548223Y-47455548D01*
X205724919Y-47420401D01*
X205905083Y-47420401D01*
X206081779Y-47455548D01*
G37*
G36*
X203541779Y-47455548D02*
G01*
X203708225Y-47524492D01*
X203858023Y-47624584D01*
X203985418Y-47751979D01*
X204085510Y-47901777D01*
X204154454Y-48068223D01*
X204189601Y-48244919D01*
X204189601Y-48425083D01*
X204154454Y-48601779D01*
X204085510Y-48768225D01*
X203985418Y-48918023D01*
X203858023Y-49045418D01*
X203708225Y-49145510D01*
X203541779Y-49214454D01*
X203365083Y-49249601D01*
X203184919Y-49249601D01*
X203008223Y-49214454D01*
X202841777Y-49145510D01*
X202691979Y-49045418D01*
X202564584Y-48918023D01*
X202464492Y-48768225D01*
X202395548Y-48601779D01*
X202360401Y-48425083D01*
X202360401Y-48244919D01*
X202395548Y-48068223D01*
X202464492Y-47901777D01*
X202564584Y-47751979D01*
X202691979Y-47624584D01*
X202841777Y-47524492D01*
X203008223Y-47455548D01*
X203184919Y-47420401D01*
X203365083Y-47420401D01*
X203541779Y-47455548D01*
G37*
G36*
X199840257Y-44186299D02*
G01*
X199946580Y-44207448D01*
X200247043Y-44331904D01*
X200517452Y-44512586D01*
X200747416Y-44742550D01*
X200928098Y-45012959D01*
X200928099Y-45012961D01*
X201052554Y-45313423D01*
X201116001Y-45632390D01*
X201116001Y-45957612D01*
X201052554Y-46276579D01*
X200957767Y-46505417D01*
X200928098Y-46577043D01*
X200747416Y-46847452D01*
X200517452Y-47077416D01*
X200247043Y-47258098D01*
X199946580Y-47382554D01*
X199840257Y-47403703D01*
X199627612Y-47446001D01*
X199302390Y-47446001D01*
X199089745Y-47403703D01*
X198983422Y-47382554D01*
X198682959Y-47258098D01*
X198412550Y-47077416D01*
X198182586Y-46847452D01*
X198001904Y-46577043D01*
X197972236Y-46505417D01*
X197877448Y-46276579D01*
X197814001Y-45957612D01*
X197814001Y-45632390D01*
X197877448Y-45313423D01*
X198001903Y-45012961D01*
X198001904Y-45012959D01*
X198182586Y-44742550D01*
X198412550Y-44512586D01*
X198682959Y-44331904D01*
X198983422Y-44207448D01*
X199089745Y-44186299D01*
X199302390Y-44144001D01*
X199627612Y-44144001D01*
X199840257Y-44186299D01*
G37*
G36*
X124910257Y-44186299D02*
G01*
X125016580Y-44207448D01*
X125317043Y-44331904D01*
X125587452Y-44512586D01*
X125817416Y-44742550D01*
X125998098Y-45012959D01*
X125998099Y-45012961D01*
X126122554Y-45313423D01*
X126186001Y-45632390D01*
X126186001Y-45957612D01*
X126122554Y-46276579D01*
X126027767Y-46505417D01*
X125998098Y-46577043D01*
X125817416Y-46847452D01*
X125587452Y-47077416D01*
X125317043Y-47258098D01*
X125016580Y-47382554D01*
X124910257Y-47403703D01*
X124697612Y-47446001D01*
X124372390Y-47446001D01*
X124159745Y-47403703D01*
X124053422Y-47382554D01*
X123752959Y-47258098D01*
X123482550Y-47077416D01*
X123252586Y-46847452D01*
X123071904Y-46577043D01*
X123042236Y-46505417D01*
X122947448Y-46276579D01*
X122884001Y-45957612D01*
X122884001Y-45632390D01*
X122947448Y-45313423D01*
X123071903Y-45012961D01*
X123071904Y-45012959D01*
X123252586Y-44742550D01*
X123482550Y-44512586D01*
X123752959Y-44331904D01*
X124053422Y-44207448D01*
X124159745Y-44186299D01*
X124372390Y-44144001D01*
X124697612Y-44144001D01*
X124910257Y-44186299D01*
G37*
G36*
X206081779Y-44915548D02*
G01*
X206248225Y-44984492D01*
X206398023Y-45084584D01*
X206525418Y-45211979D01*
X206625510Y-45361777D01*
X206694454Y-45528223D01*
X206729601Y-45704919D01*
X206729601Y-45885083D01*
X206694454Y-46061779D01*
X206625510Y-46228225D01*
X206525418Y-46378023D01*
X206398023Y-46505418D01*
X206248225Y-46605510D01*
X206081779Y-46674454D01*
X205905083Y-46709601D01*
X205724919Y-46709601D01*
X205548223Y-46674454D01*
X205381777Y-46605510D01*
X205231979Y-46505418D01*
X205104584Y-46378023D01*
X205004492Y-46228225D01*
X204935548Y-46061779D01*
X204900401Y-45885083D01*
X204900401Y-45704919D01*
X204935548Y-45528223D01*
X205004492Y-45361777D01*
X205104584Y-45211979D01*
X205231979Y-45084584D01*
X205381777Y-44984492D01*
X205548223Y-44915548D01*
X205724919Y-44880401D01*
X205905083Y-44880401D01*
X206081779Y-44915548D01*
G37*
G36*
X203541779Y-44915548D02*
G01*
X203708225Y-44984492D01*
X203858023Y-45084584D01*
X203985418Y-45211979D01*
X204085510Y-45361777D01*
X204154454Y-45528223D01*
X204189601Y-45704919D01*
X204189601Y-45885083D01*
X204154454Y-46061779D01*
X204085510Y-46228225D01*
X203985418Y-46378023D01*
X203858023Y-46505418D01*
X203708225Y-46605510D01*
X203541779Y-46674454D01*
X203365083Y-46709601D01*
X203184919Y-46709601D01*
X203008223Y-46674454D01*
X202841777Y-46605510D01*
X202691979Y-46505418D01*
X202564584Y-46378023D01*
X202464492Y-46228225D01*
X202395548Y-46061779D01*
X202360401Y-45885083D01*
X202360401Y-45704919D01*
X202395548Y-45528223D01*
X202464492Y-45361777D01*
X202564584Y-45211979D01*
X202691979Y-45084584D01*
X202841777Y-44984492D01*
X203008223Y-44915548D01*
X203184919Y-44880401D01*
X203365083Y-44880401D01*
X203541779Y-44915548D01*
G37*
G36*
X151217779Y-44915548D02*
G01*
X151384225Y-44984492D01*
X151534023Y-45084584D01*
X151661418Y-45211979D01*
X151761510Y-45361777D01*
X151830454Y-45528223D01*
X151865601Y-45704919D01*
X151865601Y-45885083D01*
X151830454Y-46061779D01*
X151761510Y-46228225D01*
X151661418Y-46378023D01*
X151534023Y-46505418D01*
X151384225Y-46605510D01*
X151217779Y-46674454D01*
X151041083Y-46709601D01*
X150860919Y-46709601D01*
X150684223Y-46674454D01*
X150517777Y-46605510D01*
X150367979Y-46505418D01*
X150240584Y-46378023D01*
X150140492Y-46228225D01*
X150071548Y-46061779D01*
X150036401Y-45885083D01*
X150036401Y-45704919D01*
X150071548Y-45528223D01*
X150140492Y-45361777D01*
X150240584Y-45211979D01*
X150367979Y-45084584D01*
X150517777Y-44984492D01*
X150684223Y-44915548D01*
X150860919Y-44880401D01*
X151041083Y-44880401D01*
X151217779Y-44915548D01*
G37*
G36*
X148677779Y-44915548D02*
G01*
X148844225Y-44984492D01*
X148994023Y-45084584D01*
X149121418Y-45211979D01*
X149221510Y-45361777D01*
X149290454Y-45528223D01*
X149325601Y-45704919D01*
X149325601Y-45885083D01*
X149290454Y-46061779D01*
X149221510Y-46228225D01*
X149121418Y-46378023D01*
X148994023Y-46505418D01*
X148844225Y-46605510D01*
X148677779Y-46674454D01*
X148501083Y-46709601D01*
X148320919Y-46709601D01*
X148144223Y-46674454D01*
X147977777Y-46605510D01*
X147827979Y-46505418D01*
X147700584Y-46378023D01*
X147600492Y-46228225D01*
X147531548Y-46061779D01*
X147496401Y-45885083D01*
X147496401Y-45704919D01*
X147531548Y-45528223D01*
X147600492Y-45361777D01*
X147700584Y-45211979D01*
X147827979Y-45084584D01*
X147977777Y-44984492D01*
X148144223Y-44915548D01*
X148320919Y-44880401D01*
X148501083Y-44880401D01*
X148677779Y-44915548D01*
G37*
G36*
X146137779Y-44915548D02*
G01*
X146304225Y-44984492D01*
X146454023Y-45084584D01*
X146581418Y-45211979D01*
X146681510Y-45361777D01*
X146750454Y-45528223D01*
X146785601Y-45704919D01*
X146785601Y-45885083D01*
X146750454Y-46061779D01*
X146681510Y-46228225D01*
X146581418Y-46378023D01*
X146454023Y-46505418D01*
X146304225Y-46605510D01*
X146137779Y-46674454D01*
X145961083Y-46709601D01*
X145780919Y-46709601D01*
X145604223Y-46674454D01*
X145437777Y-46605510D01*
X145287979Y-46505418D01*
X145160584Y-46378023D01*
X145060492Y-46228225D01*
X144991548Y-46061779D01*
X144956401Y-45885083D01*
X144956401Y-45704919D01*
X144991548Y-45528223D01*
X145060492Y-45361777D01*
X145160584Y-45211979D01*
X145287979Y-45084584D01*
X145437777Y-44984492D01*
X145604223Y-44915548D01*
X145780919Y-44880401D01*
X145961083Y-44880401D01*
X146137779Y-44915548D01*
G37*
G36*
X143597779Y-44915548D02*
G01*
X143764225Y-44984492D01*
X143914023Y-45084584D01*
X144041418Y-45211979D01*
X144141510Y-45361777D01*
X144210454Y-45528223D01*
X144245601Y-45704919D01*
X144245601Y-45885083D01*
X144210454Y-46061779D01*
X144141510Y-46228225D01*
X144041418Y-46378023D01*
X143914023Y-46505418D01*
X143764225Y-46605510D01*
X143597779Y-46674454D01*
X143421083Y-46709601D01*
X143240919Y-46709601D01*
X143064223Y-46674454D01*
X142897777Y-46605510D01*
X142747979Y-46505418D01*
X142620584Y-46378023D01*
X142520492Y-46228225D01*
X142451548Y-46061779D01*
X142416401Y-45885083D01*
X142416401Y-45704919D01*
X142451548Y-45528223D01*
X142520492Y-45361777D01*
X142620584Y-45211979D01*
X142747979Y-45084584D01*
X142897777Y-44984492D01*
X143064223Y-44915548D01*
X143240919Y-44880401D01*
X143421083Y-44880401D01*
X143597779Y-44915548D01*
G37*
G36*
X155281779Y-44915548D02*
G01*
X155448225Y-44984492D01*
X155598023Y-45084584D01*
X155725418Y-45211979D01*
X155825510Y-45361777D01*
X155894454Y-45528223D01*
X155929601Y-45704919D01*
X155929601Y-45885083D01*
X155894454Y-46061779D01*
X155825510Y-46228225D01*
X155725418Y-46378023D01*
X155598023Y-46505418D01*
X155448225Y-46605510D01*
X155281779Y-46674454D01*
X155105083Y-46709601D01*
X154924919Y-46709601D01*
X154748223Y-46674454D01*
X154581777Y-46605510D01*
X154431979Y-46505418D01*
X154304584Y-46378023D01*
X154204492Y-46228225D01*
X154135548Y-46061779D01*
X154100401Y-45885083D01*
X154100401Y-45704919D01*
X154135548Y-45528223D01*
X154204492Y-45361777D01*
X154304584Y-45211979D01*
X154431979Y-45084584D01*
X154581777Y-44984492D01*
X154748223Y-44915548D01*
X154924919Y-44880401D01*
X155105083Y-44880401D01*
X155281779Y-44915548D01*
G37*
G36*
X157821779Y-44915548D02*
G01*
X157988225Y-44984492D01*
X158138023Y-45084584D01*
X158265418Y-45211979D01*
X158365510Y-45361777D01*
X158434454Y-45528223D01*
X158469601Y-45704919D01*
X158469601Y-45885083D01*
X158434454Y-46061779D01*
X158365510Y-46228225D01*
X158265418Y-46378023D01*
X158138023Y-46505418D01*
X157988225Y-46605510D01*
X157821779Y-46674454D01*
X157645083Y-46709601D01*
X157464919Y-46709601D01*
X157288223Y-46674454D01*
X157121777Y-46605510D01*
X156971979Y-46505418D01*
X156844584Y-46378023D01*
X156744492Y-46228225D01*
X156675548Y-46061779D01*
X156640401Y-45885083D01*
X156640401Y-45704919D01*
X156675548Y-45528223D01*
X156744492Y-45361777D01*
X156844584Y-45211979D01*
X156971979Y-45084584D01*
X157121777Y-44984492D01*
X157288223Y-44915548D01*
X157464919Y-44880401D01*
X157645083Y-44880401D01*
X157821779Y-44915548D01*
G37*
G36*
X160361779Y-44915548D02*
G01*
X160528225Y-44984492D01*
X160678023Y-45084584D01*
X160805418Y-45211979D01*
X160905510Y-45361777D01*
X160974454Y-45528223D01*
X161009601Y-45704919D01*
X161009601Y-45885083D01*
X160974454Y-46061779D01*
X160905510Y-46228225D01*
X160805418Y-46378023D01*
X160678023Y-46505418D01*
X160528225Y-46605510D01*
X160361779Y-46674454D01*
X160185083Y-46709601D01*
X160004919Y-46709601D01*
X159828223Y-46674454D01*
X159661777Y-46605510D01*
X159511979Y-46505418D01*
X159384584Y-46378023D01*
X159284492Y-46228225D01*
X159215548Y-46061779D01*
X159180401Y-45885083D01*
X159180401Y-45704919D01*
X159215548Y-45528223D01*
X159284492Y-45361777D01*
X159384584Y-45211979D01*
X159511979Y-45084584D01*
X159661777Y-44984492D01*
X159828223Y-44915548D01*
X160004919Y-44880401D01*
X160185083Y-44880401D01*
X160361779Y-44915548D01*
G37*
G36*
X162901779Y-44915548D02*
G01*
X163068225Y-44984492D01*
X163218023Y-45084584D01*
X163345418Y-45211979D01*
X163445510Y-45361777D01*
X163514454Y-45528223D01*
X163549601Y-45704919D01*
X163549601Y-45885083D01*
X163514454Y-46061779D01*
X163445510Y-46228225D01*
X163345418Y-46378023D01*
X163218023Y-46505418D01*
X163068225Y-46605510D01*
X162901779Y-46674454D01*
X162725083Y-46709601D01*
X162544919Y-46709601D01*
X162368223Y-46674454D01*
X162201777Y-46605510D01*
X162051979Y-46505418D01*
X161924584Y-46378023D01*
X161824492Y-46228225D01*
X161755548Y-46061779D01*
X161720401Y-45885083D01*
X161720401Y-45704919D01*
X161755548Y-45528223D01*
X161824492Y-45361777D01*
X161924584Y-45211979D01*
X162051979Y-45084584D01*
X162201777Y-44984492D01*
X162368223Y-44915548D01*
X162544919Y-44880401D01*
X162725083Y-44880401D01*
X162901779Y-44915548D01*
G37*
G36*
X165441779Y-44915548D02*
G01*
X165608225Y-44984492D01*
X165758023Y-45084584D01*
X165885418Y-45211979D01*
X165985510Y-45361777D01*
X166054454Y-45528223D01*
X166089601Y-45704919D01*
X166089601Y-45885083D01*
X166054454Y-46061779D01*
X165985510Y-46228225D01*
X165885418Y-46378023D01*
X165758023Y-46505418D01*
X165608225Y-46605510D01*
X165441779Y-46674454D01*
X165265083Y-46709601D01*
X165084919Y-46709601D01*
X164908223Y-46674454D01*
X164741777Y-46605510D01*
X164591979Y-46505418D01*
X164464584Y-46378023D01*
X164364492Y-46228225D01*
X164295548Y-46061779D01*
X164260401Y-45885083D01*
X164260401Y-45704919D01*
X164295548Y-45528223D01*
X164364492Y-45361777D01*
X164464584Y-45211979D01*
X164591979Y-45084584D01*
X164741777Y-44984492D01*
X164908223Y-44915548D01*
X165084919Y-44880401D01*
X165265083Y-44880401D01*
X165441779Y-44915548D01*
G37*
G36*
X167981779Y-44915548D02*
G01*
X168148225Y-44984492D01*
X168298023Y-45084584D01*
X168425418Y-45211979D01*
X168525510Y-45361777D01*
X168594454Y-45528223D01*
X168629601Y-45704919D01*
X168629601Y-45885083D01*
X168594454Y-46061779D01*
X168525510Y-46228225D01*
X168425418Y-46378023D01*
X168298023Y-46505418D01*
X168148225Y-46605510D01*
X167981779Y-46674454D01*
X167805083Y-46709601D01*
X167624919Y-46709601D01*
X167448223Y-46674454D01*
X167281777Y-46605510D01*
X167131979Y-46505418D01*
X167004584Y-46378023D01*
X166904492Y-46228225D01*
X166835548Y-46061779D01*
X166800401Y-45885083D01*
X166800401Y-45704919D01*
X166835548Y-45528223D01*
X166904492Y-45361777D01*
X167004584Y-45211979D01*
X167131979Y-45084584D01*
X167281777Y-44984492D01*
X167448223Y-44915548D01*
X167624919Y-44880401D01*
X167805083Y-44880401D01*
X167981779Y-44915548D01*
G37*
G36*
X170521779Y-44915548D02*
G01*
X170688225Y-44984492D01*
X170838023Y-45084584D01*
X170965418Y-45211979D01*
X171065510Y-45361777D01*
X171134454Y-45528223D01*
X171169601Y-45704919D01*
X171169601Y-45885083D01*
X171134454Y-46061779D01*
X171065510Y-46228225D01*
X170965418Y-46378023D01*
X170838023Y-46505418D01*
X170688225Y-46605510D01*
X170521779Y-46674454D01*
X170345083Y-46709601D01*
X170164919Y-46709601D01*
X169988223Y-46674454D01*
X169821777Y-46605510D01*
X169671979Y-46505418D01*
X169544584Y-46378023D01*
X169444492Y-46228225D01*
X169375548Y-46061779D01*
X169340401Y-45885083D01*
X169340401Y-45704919D01*
X169375548Y-45528223D01*
X169444492Y-45361777D01*
X169544584Y-45211979D01*
X169671979Y-45084584D01*
X169821777Y-44984492D01*
X169988223Y-44915548D01*
X170164919Y-44880401D01*
X170345083Y-44880401D01*
X170521779Y-44915548D01*
G37*
G36*
X173061779Y-44915548D02*
G01*
X173228225Y-44984492D01*
X173378023Y-45084584D01*
X173505418Y-45211979D01*
X173605510Y-45361777D01*
X173674454Y-45528223D01*
X173709601Y-45704919D01*
X173709601Y-45885083D01*
X173674454Y-46061779D01*
X173605510Y-46228225D01*
X173505418Y-46378023D01*
X173378023Y-46505418D01*
X173228225Y-46605510D01*
X173061779Y-46674454D01*
X172885083Y-46709601D01*
X172704919Y-46709601D01*
X172528223Y-46674454D01*
X172361777Y-46605510D01*
X172211979Y-46505418D01*
X172084584Y-46378023D01*
X171984492Y-46228225D01*
X171915548Y-46061779D01*
X171880401Y-45885083D01*
X171880401Y-45704919D01*
X171915548Y-45528223D01*
X171984492Y-45361777D01*
X172084584Y-45211979D01*
X172211979Y-45084584D01*
X172361777Y-44984492D01*
X172528223Y-44915548D01*
X172704919Y-44880401D01*
X172885083Y-44880401D01*
X173061779Y-44915548D01*
G37*
G36*
X178141779Y-44915548D02*
G01*
X178308225Y-44984492D01*
X178458023Y-45084584D01*
X178585418Y-45211979D01*
X178685510Y-45361777D01*
X178754454Y-45528223D01*
X178789601Y-45704919D01*
X178789601Y-45885083D01*
X178754454Y-46061779D01*
X178685510Y-46228225D01*
X178585418Y-46378023D01*
X178458023Y-46505418D01*
X178308225Y-46605510D01*
X178141779Y-46674454D01*
X177965083Y-46709601D01*
X177784919Y-46709601D01*
X177608223Y-46674454D01*
X177441777Y-46605510D01*
X177291979Y-46505418D01*
X177164584Y-46378023D01*
X177064492Y-46228225D01*
X176995548Y-46061779D01*
X176960401Y-45885083D01*
X176960401Y-45704919D01*
X176995548Y-45528223D01*
X177064492Y-45361777D01*
X177164584Y-45211979D01*
X177291979Y-45084584D01*
X177441777Y-44984492D01*
X177608223Y-44915548D01*
X177784919Y-44880401D01*
X177965083Y-44880401D01*
X178141779Y-44915548D01*
G37*
G36*
X180681779Y-44915548D02*
G01*
X180848225Y-44984492D01*
X180998023Y-45084584D01*
X181125418Y-45211979D01*
X181225510Y-45361777D01*
X181294454Y-45528223D01*
X181329601Y-45704919D01*
X181329601Y-45885083D01*
X181294454Y-46061779D01*
X181225510Y-46228225D01*
X181125418Y-46378023D01*
X180998023Y-46505418D01*
X180848225Y-46605510D01*
X180681779Y-46674454D01*
X180505083Y-46709601D01*
X180324919Y-46709601D01*
X180148223Y-46674454D01*
X179981777Y-46605510D01*
X179831979Y-46505418D01*
X179704584Y-46378023D01*
X179604492Y-46228225D01*
X179535548Y-46061779D01*
X179500401Y-45885083D01*
X179500401Y-45704919D01*
X179535548Y-45528223D01*
X179604492Y-45361777D01*
X179704584Y-45211979D01*
X179831979Y-45084584D01*
X179981777Y-44984492D01*
X180148223Y-44915548D01*
X180324919Y-44880401D01*
X180505083Y-44880401D01*
X180681779Y-44915548D01*
G37*
G36*
X183221779Y-44915548D02*
G01*
X183388225Y-44984492D01*
X183538023Y-45084584D01*
X183665418Y-45211979D01*
X183765510Y-45361777D01*
X183834454Y-45528223D01*
X183869601Y-45704919D01*
X183869601Y-45885083D01*
X183834454Y-46061779D01*
X183765510Y-46228225D01*
X183665418Y-46378023D01*
X183538023Y-46505418D01*
X183388225Y-46605510D01*
X183221779Y-46674454D01*
X183045083Y-46709601D01*
X182864919Y-46709601D01*
X182688223Y-46674454D01*
X182521777Y-46605510D01*
X182371979Y-46505418D01*
X182244584Y-46378023D01*
X182144492Y-46228225D01*
X182075548Y-46061779D01*
X182040401Y-45885083D01*
X182040401Y-45704919D01*
X182075548Y-45528223D01*
X182144492Y-45361777D01*
X182244584Y-45211979D01*
X182371979Y-45084584D01*
X182521777Y-44984492D01*
X182688223Y-44915548D01*
X182864919Y-44880401D01*
X183045083Y-44880401D01*
X183221779Y-44915548D01*
G37*
G36*
X185761779Y-44915548D02*
G01*
X185928225Y-44984492D01*
X186078023Y-45084584D01*
X186205418Y-45211979D01*
X186305510Y-45361777D01*
X186374454Y-45528223D01*
X186409601Y-45704919D01*
X186409601Y-45885083D01*
X186374454Y-46061779D01*
X186305510Y-46228225D01*
X186205418Y-46378023D01*
X186078023Y-46505418D01*
X185928225Y-46605510D01*
X185761779Y-46674454D01*
X185585083Y-46709601D01*
X185404919Y-46709601D01*
X185228223Y-46674454D01*
X185061777Y-46605510D01*
X184911979Y-46505418D01*
X184784584Y-46378023D01*
X184684492Y-46228225D01*
X184615548Y-46061779D01*
X184580401Y-45885083D01*
X184580401Y-45704919D01*
X184615548Y-45528223D01*
X184684492Y-45361777D01*
X184784584Y-45211979D01*
X184911979Y-45084584D01*
X185061777Y-44984492D01*
X185228223Y-44915548D01*
X185404919Y-44880401D01*
X185585083Y-44880401D01*
X185761779Y-44915548D01*
G37*
G36*
X188301779Y-44915548D02*
G01*
X188468225Y-44984492D01*
X188618023Y-45084584D01*
X188745418Y-45211979D01*
X188845510Y-45361777D01*
X188914454Y-45528223D01*
X188949601Y-45704919D01*
X188949601Y-45885083D01*
X188914454Y-46061779D01*
X188845510Y-46228225D01*
X188745418Y-46378023D01*
X188618023Y-46505418D01*
X188468225Y-46605510D01*
X188301779Y-46674454D01*
X188125083Y-46709601D01*
X187944919Y-46709601D01*
X187768223Y-46674454D01*
X187601777Y-46605510D01*
X187451979Y-46505418D01*
X187324584Y-46378023D01*
X187224492Y-46228225D01*
X187155548Y-46061779D01*
X187120401Y-45885083D01*
X187120401Y-45704919D01*
X187155548Y-45528223D01*
X187224492Y-45361777D01*
X187324584Y-45211979D01*
X187451979Y-45084584D01*
X187601777Y-44984492D01*
X187768223Y-44915548D01*
X187944919Y-44880401D01*
X188125083Y-44880401D01*
X188301779Y-44915548D01*
G37*
G36*
X190841779Y-44915548D02*
G01*
X191008225Y-44984492D01*
X191158023Y-45084584D01*
X191285418Y-45211979D01*
X191385510Y-45361777D01*
X191454454Y-45528223D01*
X191489601Y-45704919D01*
X191489601Y-45885083D01*
X191454454Y-46061779D01*
X191385510Y-46228225D01*
X191285418Y-46378023D01*
X191158023Y-46505418D01*
X191008225Y-46605510D01*
X190841779Y-46674454D01*
X190665083Y-46709601D01*
X190484919Y-46709601D01*
X190308223Y-46674454D01*
X190141777Y-46605510D01*
X189991979Y-46505418D01*
X189864584Y-46378023D01*
X189764492Y-46228225D01*
X189695548Y-46061779D01*
X189660401Y-45885083D01*
X189660401Y-45704919D01*
X189695548Y-45528223D01*
X189764492Y-45361777D01*
X189864584Y-45211979D01*
X189991979Y-45084584D01*
X190141777Y-44984492D01*
X190308223Y-44915548D01*
X190484919Y-44880401D01*
X190665083Y-44880401D01*
X190841779Y-44915548D01*
G37*
G36*
X193381779Y-44915548D02*
G01*
X193548225Y-44984492D01*
X193698023Y-45084584D01*
X193825418Y-45211979D01*
X193925510Y-45361777D01*
X193994454Y-45528223D01*
X194029601Y-45704919D01*
X194029601Y-45885083D01*
X193994454Y-46061779D01*
X193925510Y-46228225D01*
X193825418Y-46378023D01*
X193698023Y-46505418D01*
X193548225Y-46605510D01*
X193381779Y-46674454D01*
X193205083Y-46709601D01*
X193024919Y-46709601D01*
X192848223Y-46674454D01*
X192681777Y-46605510D01*
X192531979Y-46505418D01*
X192404584Y-46378023D01*
X192304492Y-46228225D01*
X192235548Y-46061779D01*
X192200401Y-45885083D01*
X192200401Y-45704919D01*
X192235548Y-45528223D01*
X192304492Y-45361777D01*
X192404584Y-45211979D01*
X192531979Y-45084584D01*
X192681777Y-44984492D01*
X192848223Y-44915548D01*
X193024919Y-44880401D01*
X193205083Y-44880401D01*
X193381779Y-44915548D01*
G37*
G36*
X195921779Y-44915548D02*
G01*
X196088225Y-44984492D01*
X196238023Y-45084584D01*
X196365418Y-45211979D01*
X196465510Y-45361777D01*
X196534454Y-45528223D01*
X196569601Y-45704919D01*
X196569601Y-45885083D01*
X196534454Y-46061779D01*
X196465510Y-46228225D01*
X196365418Y-46378023D01*
X196238023Y-46505418D01*
X196088225Y-46605510D01*
X195921779Y-46674454D01*
X195745083Y-46709601D01*
X195564919Y-46709601D01*
X195388223Y-46674454D01*
X195221777Y-46605510D01*
X195071979Y-46505418D01*
X194944584Y-46378023D01*
X194844492Y-46228225D01*
X194775548Y-46061779D01*
X194740401Y-45885083D01*
X194740401Y-45704919D01*
X194775548Y-45528223D01*
X194844492Y-45361777D01*
X194944584Y-45211979D01*
X195071979Y-45084584D01*
X195221777Y-44984492D01*
X195388223Y-44915548D01*
X195564919Y-44880401D01*
X195745083Y-44880401D01*
X195921779Y-44915548D01*
G37*
G36*
X141057779Y-44915548D02*
G01*
X141224225Y-44984492D01*
X141374023Y-45084584D01*
X141501418Y-45211979D01*
X141601510Y-45361777D01*
X141670454Y-45528223D01*
X141705601Y-45704919D01*
X141705601Y-45885083D01*
X141670454Y-46061779D01*
X141601510Y-46228225D01*
X141501418Y-46378023D01*
X141374023Y-46505418D01*
X141224225Y-46605510D01*
X141057779Y-46674454D01*
X140881083Y-46709601D01*
X140700919Y-46709601D01*
X140524223Y-46674454D01*
X140357777Y-46605510D01*
X140207979Y-46505418D01*
X140080584Y-46378023D01*
X139980492Y-46228225D01*
X139911548Y-46061779D01*
X139876401Y-45885083D01*
X139876401Y-45704919D01*
X139911548Y-45528223D01*
X139980492Y-45361777D01*
X140080584Y-45211979D01*
X140207979Y-45084584D01*
X140357777Y-44984492D01*
X140524223Y-44915548D01*
X140700919Y-44880401D01*
X140881083Y-44880401D01*
X141057779Y-44915548D01*
G37*
G36*
X138517779Y-44915548D02*
G01*
X138684225Y-44984492D01*
X138834023Y-45084584D01*
X138961418Y-45211979D01*
X139061510Y-45361777D01*
X139130454Y-45528223D01*
X139165601Y-45704919D01*
X139165601Y-45885083D01*
X139130454Y-46061779D01*
X139061510Y-46228225D01*
X138961418Y-46378023D01*
X138834023Y-46505418D01*
X138684225Y-46605510D01*
X138517779Y-46674454D01*
X138341083Y-46709601D01*
X138160919Y-46709601D01*
X137984223Y-46674454D01*
X137817777Y-46605510D01*
X137667979Y-46505418D01*
X137540584Y-46378023D01*
X137440492Y-46228225D01*
X137371548Y-46061779D01*
X137336401Y-45885083D01*
X137336401Y-45704919D01*
X137371548Y-45528223D01*
X137440492Y-45361777D01*
X137540584Y-45211979D01*
X137667979Y-45084584D01*
X137817777Y-44984492D01*
X137984223Y-44915548D01*
X138160919Y-44880401D01*
X138341083Y-44880401D01*
X138517779Y-44915548D01*
G37*
G36*
X135977779Y-44915548D02*
G01*
X136144225Y-44984492D01*
X136294023Y-45084584D01*
X136421418Y-45211979D01*
X136521510Y-45361777D01*
X136590454Y-45528223D01*
X136625601Y-45704919D01*
X136625601Y-45885083D01*
X136590454Y-46061779D01*
X136521510Y-46228225D01*
X136421418Y-46378023D01*
X136294023Y-46505418D01*
X136144225Y-46605510D01*
X135977779Y-46674454D01*
X135801083Y-46709601D01*
X135620919Y-46709601D01*
X135444223Y-46674454D01*
X135277777Y-46605510D01*
X135127979Y-46505418D01*
X135000584Y-46378023D01*
X134900492Y-46228225D01*
X134831548Y-46061779D01*
X134796401Y-45885083D01*
X134796401Y-45704919D01*
X134831548Y-45528223D01*
X134900492Y-45361777D01*
X135000584Y-45211979D01*
X135127979Y-45084584D01*
X135277777Y-44984492D01*
X135444223Y-44915548D01*
X135620919Y-44880401D01*
X135801083Y-44880401D01*
X135977779Y-44915548D01*
G37*
G36*
X133437779Y-44915548D02*
G01*
X133604225Y-44984492D01*
X133754023Y-45084584D01*
X133881418Y-45211979D01*
X133981510Y-45361777D01*
X134050454Y-45528223D01*
X134085601Y-45704919D01*
X134085601Y-45885083D01*
X134050454Y-46061779D01*
X133981510Y-46228225D01*
X133881418Y-46378023D01*
X133754023Y-46505418D01*
X133604225Y-46605510D01*
X133437779Y-46674454D01*
X133261083Y-46709601D01*
X133080919Y-46709601D01*
X132904223Y-46674454D01*
X132737777Y-46605510D01*
X132587979Y-46505418D01*
X132460584Y-46378023D01*
X132360492Y-46228225D01*
X132291548Y-46061779D01*
X132256401Y-45885083D01*
X132256401Y-45704919D01*
X132291548Y-45528223D01*
X132360492Y-45361777D01*
X132460584Y-45211979D01*
X132587979Y-45084584D01*
X132737777Y-44984492D01*
X132904223Y-44915548D01*
X133080919Y-44880401D01*
X133261083Y-44880401D01*
X133437779Y-44915548D01*
G37*
G36*
X130897779Y-44915548D02*
G01*
X131064225Y-44984492D01*
X131214023Y-45084584D01*
X131341418Y-45211979D01*
X131441510Y-45361777D01*
X131510454Y-45528223D01*
X131545601Y-45704919D01*
X131545601Y-45885083D01*
X131510454Y-46061779D01*
X131441510Y-46228225D01*
X131341418Y-46378023D01*
X131214023Y-46505418D01*
X131064225Y-46605510D01*
X130897779Y-46674454D01*
X130721083Y-46709601D01*
X130540919Y-46709601D01*
X130364223Y-46674454D01*
X130197777Y-46605510D01*
X130047979Y-46505418D01*
X129920584Y-46378023D01*
X129820492Y-46228225D01*
X129751548Y-46061779D01*
X129716401Y-45885083D01*
X129716401Y-45704919D01*
X129751548Y-45528223D01*
X129820492Y-45361777D01*
X129920584Y-45211979D01*
X130047979Y-45084584D01*
X130197777Y-44984492D01*
X130364223Y-44915548D01*
X130540919Y-44880401D01*
X130721083Y-44880401D01*
X130897779Y-44915548D01*
G37*
G36*
X128357779Y-44915548D02*
G01*
X128524225Y-44984492D01*
X128674023Y-45084584D01*
X128801418Y-45211979D01*
X128901510Y-45361777D01*
X128970454Y-45528223D01*
X129005601Y-45704919D01*
X129005601Y-45885083D01*
X128970454Y-46061779D01*
X128901510Y-46228225D01*
X128801418Y-46378023D01*
X128674023Y-46505418D01*
X128524225Y-46605510D01*
X128357779Y-46674454D01*
X128181083Y-46709601D01*
X128000919Y-46709601D01*
X127824223Y-46674454D01*
X127657777Y-46605510D01*
X127507979Y-46505418D01*
X127380584Y-46378023D01*
X127280492Y-46228225D01*
X127211548Y-46061779D01*
X127176401Y-45885083D01*
X127176401Y-45704919D01*
X127211548Y-45528223D01*
X127280492Y-45361777D01*
X127380584Y-45211979D01*
X127507979Y-45084584D01*
X127657777Y-44984492D01*
X127824223Y-44915548D01*
X128000919Y-44880401D01*
X128181083Y-44880401D01*
X128357779Y-44915548D01*
G37*
M02*
