G04 #@! TF.GenerationSoftware,KiCad,Pcbnew,(5.1.5-0-10_14)*
G04 #@! TF.CreationDate,2020-02-25T20:07:17-06:00*
G04 #@! TF.ProjectId,Electronic Target,456c6563-7472-46f6-9e69-632054617267,rev?*
G04 #@! TF.SameCoordinates,Original*
G04 #@! TF.FileFunction,Copper,L2,Bot*
G04 #@! TF.FilePolarity,Positive*
%FSLAX46Y46*%
G04 Gerber Fmt 4.6, Leading zero omitted, Abs format (unit mm)*
G04 Created by KiCad (PCBNEW (5.1.5-0-10_14)) date 2020-02-25 20:07:17*
%MOMM*%
%LPD*%
G04 APERTURE LIST*
%ADD10O,1.727200X1.727200*%
%ADD11R,1.700000X1.700000*%
%ADD12O,1.700000X1.700000*%
%ADD13R,1.600000X1.600000*%
%ADD14O,1.600000X1.600000*%
%ADD15C,0.800000*%
%ADD16C,0.250000*%
G04 APERTURE END LIST*
D10*
X160095001Y-94055001D03*
X155015001Y-94055001D03*
X152475001Y-94055001D03*
X149935001Y-94055001D03*
X147395001Y-94055001D03*
X144855001Y-94055001D03*
X142315001Y-94055001D03*
X139775001Y-94055001D03*
X195655001Y-45795001D03*
X193115001Y-45795001D03*
X190575001Y-45795001D03*
X188035001Y-45795001D03*
X185495001Y-45795001D03*
X182955001Y-45795001D03*
X180415001Y-45795001D03*
X177875001Y-45795001D03*
X172795001Y-45795001D03*
X170255001Y-45795001D03*
X167715001Y-45795001D03*
X165175001Y-45795001D03*
X162635001Y-45795001D03*
X160095001Y-45795001D03*
X157555001Y-45795001D03*
X155015001Y-45795001D03*
X135711001Y-45795001D03*
X150951001Y-45795001D03*
X148411001Y-45795001D03*
X145871001Y-45795001D03*
X128091001Y-45795001D03*
X130631001Y-45795001D03*
X133171001Y-45795001D03*
X138251001Y-45795001D03*
X140791001Y-45795001D03*
X143331001Y-45795001D03*
X137235001Y-94055001D03*
X162635001Y-94055001D03*
X165175001Y-94055001D03*
X167715001Y-94055001D03*
X170255001Y-94055001D03*
X172795001Y-94055001D03*
X175335001Y-94055001D03*
X177875001Y-94055001D03*
X182955001Y-94055001D03*
X185495001Y-94055001D03*
X188035001Y-94055001D03*
X190575001Y-94055001D03*
X193115001Y-94055001D03*
X195655001Y-94055001D03*
X198195001Y-94055001D03*
X200735001Y-94055001D03*
X203275001Y-45795001D03*
X205815001Y-45795001D03*
X203275001Y-48335001D03*
X205815001Y-48335001D03*
X203275001Y-50875001D03*
X205815001Y-50875001D03*
X203275001Y-53415001D03*
X205815001Y-53415001D03*
X203275001Y-55955001D03*
X205815001Y-55955001D03*
X203275001Y-58495001D03*
X205815001Y-58495001D03*
X203275001Y-61035001D03*
X205815001Y-61035001D03*
X203275001Y-63575001D03*
X205815001Y-63575001D03*
X203275001Y-66115001D03*
X205815001Y-66115001D03*
X203275001Y-68655001D03*
X205815001Y-68655001D03*
X203275001Y-71195001D03*
X205815001Y-71195001D03*
X203275001Y-73735001D03*
X205815001Y-73735001D03*
X203275001Y-76275001D03*
X205815001Y-76275001D03*
X203275001Y-78815001D03*
X205815001Y-78815001D03*
X203275001Y-81355001D03*
X205815001Y-81355001D03*
X203275001Y-83895001D03*
X205815001Y-83895001D03*
X203275001Y-86435001D03*
X205815001Y-86435001D03*
X203275001Y-88975001D03*
X205815001Y-88975001D03*
D11*
X113030000Y-64770000D03*
D12*
X115570000Y-64770000D03*
X113030000Y-67310000D03*
X115570000Y-67310000D03*
X113030000Y-69850000D03*
X115570000Y-69850000D03*
X113030000Y-72390000D03*
X115570000Y-72390000D03*
X113030000Y-74930000D03*
X115570000Y-74930000D03*
D11*
X148590000Y-53340000D03*
D12*
X148590000Y-50800000D03*
X146050000Y-53340000D03*
X146050000Y-50800000D03*
X143510000Y-53340000D03*
X143510000Y-50800000D03*
X140970000Y-53340000D03*
X140970000Y-50800000D03*
D13*
X157480000Y-59690000D03*
D14*
X165100000Y-67310000D03*
X157480000Y-62230000D03*
X165100000Y-64770000D03*
X157480000Y-64770000D03*
X165100000Y-62230000D03*
X157480000Y-67310000D03*
X165100000Y-59690000D03*
D15*
X123190000Y-69850000D03*
X125730000Y-62230000D03*
X114300000Y-78740000D03*
X123190000Y-78740000D03*
X121920000Y-72390000D03*
X121920000Y-64770000D03*
X133350000Y-74930000D03*
X133350000Y-76200000D03*
X118110000Y-80010000D03*
X182880000Y-90170000D03*
X182880000Y-90170000D03*
X152400000Y-80010000D03*
X152400000Y-83000010D03*
X148590000Y-60960000D03*
X148590000Y-72390000D03*
X138430000Y-60960000D03*
X151130000Y-64770000D03*
X151130000Y-77470000D03*
X189230000Y-52070000D03*
X156210000Y-77470000D03*
X156210000Y-77470000D03*
X156210000Y-77470000D03*
X138430000Y-63500000D03*
X146050000Y-67310000D03*
X168910000Y-68580000D03*
X187803600Y-49686400D03*
X152400000Y-68580000D03*
X153670000Y-73660000D03*
X173990000Y-74930000D03*
X166370000Y-81280000D03*
X161290000Y-67310000D03*
X161290000Y-74930000D03*
X186690000Y-50800000D03*
X186690000Y-50800000D03*
X171450000Y-69030010D03*
X171450000Y-69030010D03*
X168910000Y-80010000D03*
X169360010Y-71120000D03*
X154940000Y-69850000D03*
X154940000Y-76200000D03*
X166370000Y-76200000D03*
X148590000Y-76200000D03*
X187960000Y-68580000D03*
X161290000Y-80010000D03*
X162560000Y-69850000D03*
X200660000Y-64770000D03*
X200660000Y-86360000D03*
X200660000Y-67310000D03*
X199390000Y-63500000D03*
X199390000Y-85090000D03*
X199390000Y-63500000D03*
X198120000Y-62230000D03*
X198120000Y-83820000D03*
X198120000Y-59690000D03*
X185420000Y-87630000D03*
X182880000Y-85090000D03*
X184150000Y-58420000D03*
X184150000Y-58420000D03*
X196850000Y-60960000D03*
X196850000Y-82550000D03*
X196850000Y-58420000D03*
X171450000Y-72390000D03*
X171459990Y-78730010D03*
X195580000Y-59690000D03*
X195580000Y-81280000D03*
X181610000Y-60960000D03*
X185420000Y-81280000D03*
X186690000Y-69850000D03*
X184150000Y-69850000D03*
X184150000Y-69850000D03*
X194310000Y-58420000D03*
X194310000Y-80010000D03*
X180340000Y-62230000D03*
X180340000Y-82550000D03*
X180340000Y-71120000D03*
X193040000Y-57150000D03*
X193040000Y-78740000D03*
X191770000Y-55880000D03*
X191770000Y-77470000D03*
X191770000Y-67310000D03*
X181610000Y-66040000D03*
X181610000Y-86360000D03*
X133350000Y-52070000D03*
X123190000Y-73660000D03*
X153670000Y-58420000D03*
X173990000Y-63500000D03*
X175260000Y-87630000D03*
X175260000Y-91440000D03*
X190500000Y-54610000D03*
X190500000Y-76200000D03*
X190500000Y-69850000D03*
X201930000Y-69850000D03*
X113030000Y-58420000D03*
X118442500Y-68247500D03*
X185420000Y-53340000D03*
X170180000Y-57150000D03*
X185420000Y-48260000D03*
X156210000Y-88900000D03*
X165100000Y-86360000D03*
X173990000Y-90170000D03*
X177800000Y-90170000D03*
X184150000Y-76200000D03*
X182880000Y-72390000D03*
X182880000Y-81280000D03*
X175260000Y-73660000D03*
X175260000Y-80010000D03*
X189230000Y-74930000D03*
X185420000Y-78740000D03*
X134620000Y-76200000D03*
X123190000Y-68580000D03*
X116840000Y-49530000D03*
X123190000Y-58420000D03*
X123190000Y-58420000D03*
X119380000Y-54610000D03*
X128270000Y-69850000D03*
X133350000Y-69850000D03*
X138430000Y-73660000D03*
X133350000Y-68580000D03*
X149860000Y-85090000D03*
X148590000Y-74930000D03*
X207010000Y-91440000D03*
D16*
X125730000Y-69850000D02*
X123190000Y-69850000D01*
X125730000Y-62230000D02*
X125730000Y-69850000D01*
X114300000Y-78740000D02*
X123190000Y-78740000D01*
X121920000Y-64770000D02*
X121920000Y-72390000D01*
X116840000Y-69850000D02*
X115570000Y-69850000D01*
X121920000Y-74930000D02*
X116840000Y-69850000D01*
X133350000Y-74930000D02*
X121920000Y-74930000D01*
X133350000Y-76200000D02*
X133350000Y-80010000D01*
X133350000Y-80010000D02*
X118110000Y-80010000D01*
X118110000Y-80010000D02*
X118110000Y-80010000D01*
X203275001Y-86435001D02*
X199540002Y-90170000D01*
X199540002Y-90170000D02*
X182880000Y-90170000D01*
X182880000Y-90170000D02*
X182880000Y-90170000D01*
X182880000Y-90170000D02*
X182880000Y-90170000D01*
X152400000Y-80010000D02*
X152400000Y-83000010D01*
X138430000Y-60960000D02*
X148590000Y-60960000D01*
X148590000Y-72390000D02*
X148590000Y-60960000D01*
X151130000Y-64770000D02*
X151130000Y-77470000D01*
X189230000Y-52070000D02*
X181610000Y-52070000D01*
X181610000Y-52070000D02*
X180340000Y-52070000D01*
X180340000Y-52070000D02*
X176530000Y-55880000D01*
X176530000Y-55880000D02*
X176530000Y-68580000D01*
X176530000Y-68580000D02*
X175260000Y-69850000D01*
X175260000Y-69850000D02*
X163830000Y-69850000D01*
X163830000Y-69850000D02*
X162560000Y-68580000D01*
X162560000Y-68580000D02*
X162560000Y-67506998D01*
X162560000Y-67506998D02*
X162560000Y-66040000D01*
X162560000Y-66040000D02*
X161290000Y-64770000D01*
X161290000Y-64770000D02*
X160020000Y-66040000D01*
X160020000Y-66040000D02*
X158750000Y-67310000D01*
X158750000Y-67310000D02*
X158750000Y-74930000D01*
X158750000Y-74930000D02*
X156210000Y-77470000D01*
X156210000Y-77470000D02*
X156210000Y-77470000D01*
X156210000Y-77470000D02*
X156210000Y-77470000D01*
X156210000Y-77470000D02*
X156210000Y-77470000D01*
X138430000Y-63500000D02*
X138430000Y-67310000D01*
X152400000Y-73660000D02*
X152400000Y-68580000D01*
X138430000Y-67310000D02*
X138430000Y-67310000D01*
X138430000Y-67310000D02*
X146050000Y-67310000D01*
X153670000Y-73660000D02*
X153670000Y-73660000D01*
X153670000Y-73660000D02*
X152400000Y-73660000D01*
X171450000Y-66040000D02*
X168910000Y-68580000D01*
X175260000Y-66040000D02*
X171450000Y-66040000D01*
X175260000Y-54610000D02*
X175260000Y-66040000D01*
X180183600Y-49686400D02*
X175260000Y-54610000D01*
X187803600Y-49686400D02*
X180183600Y-49686400D01*
X167640000Y-81280000D02*
X166370000Y-81280000D01*
X173990000Y-74930000D02*
X173990000Y-78740000D01*
X173990000Y-78740000D02*
X171450000Y-81280000D01*
X171450000Y-81280000D02*
X166370000Y-81280000D01*
X161290000Y-67310000D02*
X161290000Y-74930000D01*
X186690000Y-50800000D02*
X181610000Y-50800000D01*
X181610000Y-50800000D02*
X180340000Y-50800000D01*
X180340000Y-50800000D02*
X175710010Y-55429990D01*
X175710010Y-55429990D02*
X175710010Y-68129990D01*
X175710010Y-68129990D02*
X175260000Y-68580000D01*
X174626410Y-68580000D02*
X174176400Y-69030010D01*
X175260000Y-68580000D02*
X174626410Y-68580000D01*
X174176400Y-69030010D02*
X171450000Y-69030010D01*
X171450000Y-69030010D02*
X171450000Y-69030010D01*
X171450000Y-69030010D02*
X171450000Y-69030010D01*
X169360010Y-79559990D02*
X168910000Y-80010000D01*
X169360010Y-71120000D02*
X169360010Y-79559990D01*
X154940000Y-69850000D02*
X154940000Y-76200000D01*
X148590000Y-76200000D02*
X148590000Y-77470000D01*
X148590000Y-77470000D02*
X149860000Y-78740000D01*
X149860000Y-78740000D02*
X166370000Y-78740000D01*
X166370000Y-78740000D02*
X166370000Y-76200000D01*
X203275001Y-55955001D02*
X194385001Y-55955001D01*
X194385001Y-55955001D02*
X194310000Y-55880000D01*
X194310000Y-55880000D02*
X191770000Y-53340000D01*
X191770000Y-53340000D02*
X190696998Y-53340000D01*
X190696998Y-53340000D02*
X187960000Y-53340000D01*
X187960000Y-53340000D02*
X187960000Y-68580000D01*
X187960000Y-68580000D02*
X187960000Y-68580000D01*
X161855685Y-80010000D02*
X161290000Y-80010000D01*
X165736410Y-80010000D02*
X161855685Y-80010000D01*
X167095001Y-78651409D02*
X165736410Y-80010000D01*
X167095001Y-74385001D02*
X167095001Y-78651409D01*
X162560000Y-69850000D02*
X167095001Y-74385001D01*
X200660000Y-64770000D02*
X200660000Y-67310000D01*
X200660000Y-86360000D02*
X200660000Y-86360000D01*
X200660000Y-67310000D02*
X200660000Y-86360000D01*
X199390000Y-63500000D02*
X199390000Y-63500000D01*
X199390000Y-85090000D02*
X199390000Y-85090000D01*
X199390000Y-63500000D02*
X199390000Y-85090000D01*
X199390000Y-63500000D02*
X199390000Y-59690000D01*
X200584999Y-58495001D02*
X203275001Y-58495001D01*
X199390000Y-59690000D02*
X200584999Y-58495001D01*
X198120000Y-62230000D02*
X198120000Y-83820000D01*
X198120000Y-83820000D02*
X198120000Y-83820000D01*
X198120000Y-62230000D02*
X198120000Y-59690000D01*
X198120000Y-59690000D02*
X198120000Y-59690000D01*
X203275001Y-83895001D02*
X202080002Y-85090000D01*
X202080002Y-86013000D02*
X200463002Y-87630000D01*
X202080002Y-85090000D02*
X202080002Y-86013000D01*
X200463002Y-87630000D02*
X185420000Y-87630000D01*
X185420000Y-87630000D02*
X185420000Y-87630000D01*
X183605001Y-79465001D02*
X183330010Y-79190010D01*
X183605001Y-84364999D02*
X183605001Y-79465001D01*
X182880000Y-85090000D02*
X183605001Y-84364999D01*
X183330010Y-79190010D02*
X183330010Y-74479990D01*
X183330010Y-74479990D02*
X184150000Y-73660000D01*
X184969990Y-70103012D02*
X184969990Y-68129990D01*
X184150000Y-70923002D02*
X184969990Y-70103012D01*
X184969990Y-68129990D02*
X184600010Y-67760010D01*
X184150000Y-73660000D02*
X184150000Y-70923002D01*
X184600010Y-67760010D02*
X184600010Y-67310000D01*
X184600010Y-67310000D02*
X184600010Y-58870010D01*
X184600010Y-58870010D02*
X184150000Y-58420000D01*
X184150000Y-58420000D02*
X184150000Y-58420000D01*
X184150000Y-58420000D02*
X184150000Y-58420000D01*
X196850000Y-60960000D02*
X196850000Y-82550000D01*
X196850000Y-82550000D02*
X196850000Y-82550000D01*
X196850000Y-60960000D02*
X196850000Y-58420000D01*
X196850000Y-58420000D02*
X196850000Y-58420000D01*
X171450000Y-78720020D02*
X171459990Y-78730010D01*
X171450000Y-72390000D02*
X171450000Y-78720020D01*
X195580000Y-59690000D02*
X195580000Y-81280000D01*
X195580000Y-81280000D02*
X195580000Y-81280000D01*
X184694999Y-80554999D02*
X184694999Y-76925001D01*
X185420000Y-81280000D02*
X184694999Y-80554999D01*
X184694999Y-76925001D02*
X185420000Y-76200000D01*
X185420000Y-76200000D02*
X186690000Y-74930000D01*
X186690000Y-74930000D02*
X186690000Y-69850000D01*
X186690000Y-69850000D02*
X186690000Y-69850000D01*
X184150000Y-69850000D02*
X184150000Y-69850000D01*
X184150000Y-69850000D02*
X184150000Y-69850000D01*
X181610000Y-60960000D02*
X181610000Y-64770000D01*
X181610000Y-64770000D02*
X182880000Y-66040000D01*
X182880000Y-66040000D02*
X182880000Y-68580000D01*
X182880000Y-68580000D02*
X184150000Y-69850000D01*
X194310000Y-58420000D02*
X194310000Y-80010000D01*
X194310000Y-80010000D02*
X194310000Y-80010000D01*
X203275001Y-63575001D02*
X204470000Y-62380002D01*
X204470000Y-62380002D02*
X204470000Y-57150000D01*
X204470000Y-57150000D02*
X194310000Y-57150000D01*
X194310000Y-57150000D02*
X194310000Y-58420000D01*
X180340000Y-62230000D02*
X180340000Y-71120000D01*
X180340000Y-71120000D02*
X180340000Y-82550000D01*
X193040000Y-57150000D02*
X193040000Y-78740000D01*
X193040000Y-78740000D02*
X193040000Y-78740000D01*
X191770000Y-55880000D02*
X191770000Y-67310000D01*
X191770000Y-77470000D02*
X191770000Y-77470000D01*
X191770000Y-67310000D02*
X191770000Y-77470000D01*
X181610000Y-66040000D02*
X181610000Y-86360000D01*
X132624999Y-52795001D02*
X132624999Y-59145001D01*
X133350000Y-52070000D02*
X132624999Y-52795001D01*
X132624999Y-59145001D02*
X130810000Y-60960000D01*
X130810000Y-60960000D02*
X130810000Y-71120000D01*
X130810000Y-71120000D02*
X128270000Y-71120000D01*
X128270000Y-71120000D02*
X123190000Y-71120000D01*
X123190000Y-71120000D02*
X123190000Y-73660000D01*
X123190000Y-73660000D02*
X123190000Y-73660000D01*
X153670000Y-58420000D02*
X173990000Y-58420000D01*
X173990000Y-58420000D02*
X173990000Y-63500000D01*
X175260000Y-87630000D02*
X175260000Y-91440000D01*
X190500000Y-54610000D02*
X190500000Y-69850000D01*
X190500000Y-76200000D02*
X190500000Y-76200000D01*
X190500000Y-69850000D02*
X190500000Y-76200000D01*
X205815001Y-66115001D02*
X208204999Y-66115001D01*
X208204999Y-66115001D02*
X209399998Y-67310000D01*
X209399998Y-67310000D02*
X209399998Y-68429998D01*
X209399998Y-68429998D02*
X208280000Y-69549996D01*
X208280000Y-69549996D02*
X207979996Y-69850000D01*
X207979996Y-69850000D02*
X201930000Y-69850000D01*
X201930000Y-69850000D02*
X201930000Y-69850000D01*
X113030000Y-58420000D02*
X115570000Y-60960000D01*
X115570000Y-60960000D02*
X118110000Y-60960000D01*
X118442500Y-61292500D02*
X118442500Y-68247500D01*
X118110000Y-60960000D02*
X118442500Y-61292500D01*
X185420000Y-74930000D02*
X185420000Y-53340000D01*
X185420000Y-48260000D02*
X170180000Y-48260000D01*
X170180000Y-48260000D02*
X170180000Y-57150000D01*
X184150000Y-76200000D02*
X184150000Y-86360000D01*
X184150000Y-86360000D02*
X181610000Y-88900000D01*
X181610000Y-88900000D02*
X181610000Y-88900000D01*
X165100000Y-86360000D02*
X172720000Y-86360000D01*
X172720000Y-86360000D02*
X172720000Y-88900000D01*
X172720000Y-88900000D02*
X173990000Y-90170000D01*
X173990000Y-90170000D02*
X173990000Y-90170000D01*
X181610000Y-88900000D02*
X180340000Y-90170000D01*
X180340000Y-90170000D02*
X177800000Y-90170000D01*
X177800000Y-90170000D02*
X177800000Y-90170000D01*
X181610000Y-88900000D02*
X181610000Y-88900000D01*
X184150000Y-76200000D02*
X185420000Y-74930000D01*
X182880000Y-72390000D02*
X182880000Y-81280000D01*
X175260000Y-73660000D02*
X175260000Y-80010000D01*
X189230000Y-74930000D02*
X189230000Y-78740000D01*
X189230000Y-78740000D02*
X185420000Y-78740000D01*
X185420000Y-78740000D02*
X185420000Y-78740000D01*
X134620000Y-76200000D02*
X134620000Y-76200000D01*
X160095001Y-91711999D02*
X160095001Y-94055001D01*
X158750000Y-90366998D02*
X160095001Y-91711999D01*
X135890000Y-86360000D02*
X158750000Y-86360000D01*
X158750000Y-86360000D02*
X158750000Y-90366998D01*
X134620000Y-85090000D02*
X135890000Y-86360000D01*
X134620000Y-76200000D02*
X134620000Y-85090000D01*
X116840000Y-49530000D02*
X116840000Y-55880000D01*
X116840000Y-55880000D02*
X118110000Y-57150000D01*
X118110000Y-57150000D02*
X121920000Y-57150000D01*
X123190000Y-58420000D02*
X123190000Y-58420000D01*
X121920000Y-57150000D02*
X123190000Y-58420000D01*
X123190000Y-58420000D02*
X123190000Y-58420000D01*
X123190000Y-58420000D02*
X123190000Y-68580000D01*
X119380000Y-54610000D02*
X125730000Y-54610000D01*
X128270000Y-57150000D02*
X128270000Y-69850000D01*
X125730000Y-54610000D02*
X128270000Y-57150000D01*
X133350000Y-69850000D02*
X133350000Y-72390000D01*
X134620000Y-73660000D02*
X138430000Y-73660000D01*
X133350000Y-72390000D02*
X134620000Y-73660000D01*
X144780000Y-85090000D02*
X149860000Y-85090000D01*
X143510000Y-83820000D02*
X144780000Y-85090000D01*
X133350000Y-68580000D02*
X143510000Y-68580000D01*
X148590000Y-74930000D02*
X143510000Y-74930000D01*
X143510000Y-74930000D02*
X143510000Y-83820000D01*
X143510000Y-68580000D02*
X143510000Y-74930000D01*
X205815001Y-76275001D02*
X209474999Y-76275001D01*
X209474999Y-76275001D02*
X209550000Y-76350002D01*
X209550000Y-76350002D02*
X209550000Y-90170000D01*
X209550000Y-90170000D02*
X208280000Y-91440000D01*
X208280000Y-91440000D02*
X207010000Y-91440000D01*
X207010000Y-91440000D02*
X207010000Y-91440000D01*
M02*
