M48
; DRILL file {KiCad (5.1.5-0-10_14)} date Tuesday, February 25, 2020 at 08:07:14 PM
; FORMAT={-:-/ absolute / inch / decimal}
; #@! TF.CreationDate,2020-02-25T20:07:14-06:00
; #@! TF.GenerationSoftware,Kicad,Pcbnew,(5.1.5-0-10_14)
; #@! TF.FileFunction,Plated,1,2,PTH
FMAT,2
INCH
T1C0.0157
T2C0.0315
T3C0.0394
T4C0.0400
%
G90
G05
T1
X4.45Y-2.3
X4.5Y-3.1
X4.6Y-1.95
X4.65Y-3.15
X4.6631Y-2.6869
X4.7Y-2.15
X4.8Y-2.55
X4.8Y-2.85
X4.85Y-2.3
X4.85Y-2.3
X4.85Y-2.7
X4.85Y-2.75
X4.85Y-2.9
X4.85Y-3.1
X4.95Y-2.45
X5.05Y-2.75
X5.25Y-2.05
X5.25Y-2.7
X5.25Y-2.75
X5.25Y-2.95
X5.25Y-3.0
X5.3Y-3.0
X5.45Y-2.4
X5.45Y-2.5
X5.45Y-2.9
X5.75Y-2.65
X5.85Y-2.4
X5.85Y-2.85
X5.85Y-2.95
X5.85Y-3.0
X5.9Y-3.35
X5.95Y-2.55
X5.95Y-3.05
X6.0Y-2.7
X6.0Y-3.15
X6.0Y-3.2677
X6.05Y-2.3
X6.05Y-2.9
X6.1Y-2.75
X6.1Y-3.0
X6.15Y-3.05
X6.15Y-3.05
X6.15Y-3.05
X6.15Y-3.5
X6.35Y-2.65
X6.35Y-2.95
X6.35Y-3.15
X6.4Y-2.75
X6.5Y-3.4
X6.55Y-3.0
X6.55Y-3.2
X6.65Y-2.7
X6.65Y-3.15
X6.6677Y-2.8
X6.7Y-2.25
X6.75Y-2.7177
X6.75Y-2.7177
X6.75Y-2.85
X6.7504Y-3.0996
X6.85Y-2.5
X6.85Y-2.95
X6.85Y-3.55
X6.9Y-2.9
X6.9Y-3.15
X6.9Y-3.45
X6.9Y-3.6
X7.0Y-3.55
X7.1Y-2.45
X7.1Y-2.8
X7.1Y-3.25
X7.15Y-2.4
X7.15Y-2.6
X7.15Y-3.4
X7.2Y-2.85
X7.2Y-3.2
X7.2Y-3.35
X7.2Y-3.55
X7.2Y-3.55
X7.25Y-2.3
X7.25Y-2.3
X7.25Y-2.75
X7.25Y-2.75
X7.25Y-3.0
X7.3Y-1.9
X7.3Y-2.1
X7.3Y-3.1
X7.3Y-3.2
X7.3Y-3.45
X7.35Y-2.0
X7.35Y-2.0
X7.35Y-2.75
X7.3938Y-1.9562
X7.4Y-2.7
X7.45Y-2.05
X7.45Y-2.95
X7.5Y-2.15
X7.5Y-2.75
X7.5Y-3.0
X7.55Y-2.2
X7.55Y-2.65
X7.55Y-3.05
X7.6Y-2.25
X7.6Y-3.1
X7.65Y-2.3
X7.65Y-3.15
X7.7Y-2.35
X7.7Y-3.2
X7.75Y-2.3
X7.75Y-2.4
X7.75Y-3.25
X7.8Y-2.35
X7.8Y-2.45
X7.8Y-3.3
X7.85Y-2.5
X7.85Y-2.5
X7.85Y-3.35
X7.9Y-2.55
X7.9Y-2.65
X7.9Y-3.4
X7.95Y-2.75
X8.15Y-3.6
T2
X6.2Y-2.35
X6.2Y-2.45
X6.2Y-2.55
X6.2Y-2.65
X6.5Y-2.35
X6.5Y-2.45
X6.5Y-2.55
X6.5Y-2.65
T3
X4.45Y-2.55
X4.45Y-2.65
X4.45Y-2.75
X4.45Y-2.85
X4.45Y-2.95
X4.55Y-2.55
X4.55Y-2.65
X4.55Y-2.75
X4.55Y-2.85
X4.55Y-2.95
X5.55Y-2.0
X5.55Y-2.1
X5.65Y-2.0
X5.65Y-2.1
X5.75Y-2.0
X5.75Y-2.1
X5.85Y-2.0
X5.85Y-2.1
T4
X5.043Y-1.803
X5.143Y-1.803
X5.243Y-1.803
X5.343Y-1.803
X5.403Y-3.703
X5.443Y-1.803
X5.503Y-3.703
X5.543Y-1.803
X5.603Y-3.703
X5.643Y-1.803
X5.703Y-3.703
X5.743Y-1.803
X5.803Y-3.703
X5.843Y-1.803
X5.903Y-3.703
X5.943Y-1.803
X6.003Y-3.703
X6.103Y-1.803
X6.103Y-3.703
X6.203Y-1.803
X6.303Y-1.803
X6.303Y-3.703
X6.403Y-1.803
X6.403Y-3.703
X6.503Y-1.803
X6.503Y-3.703
X6.603Y-1.803
X6.603Y-3.703
X6.703Y-1.803
X6.703Y-3.703
X6.803Y-1.803
X6.803Y-3.703
X6.903Y-3.703
X7.003Y-1.803
X7.003Y-3.703
X7.103Y-1.803
X7.203Y-1.803
X7.203Y-3.703
X7.303Y-1.803
X7.303Y-3.703
X7.403Y-1.803
X7.403Y-3.703
X7.503Y-1.803
X7.503Y-3.703
X7.603Y-1.803
X7.603Y-3.703
X7.703Y-1.803
X7.703Y-3.703
X7.803Y-3.703
X7.903Y-3.703
X8.003Y-1.803
X8.003Y-1.903
X8.003Y-2.003
X8.003Y-2.103
X8.003Y-2.203
X8.003Y-2.303
X8.003Y-2.403
X8.003Y-2.503
X8.003Y-2.603
X8.003Y-2.703
X8.003Y-2.803
X8.003Y-2.903
X8.003Y-3.003
X8.003Y-3.103
X8.003Y-3.203
X8.003Y-3.303
X8.003Y-3.403
X8.003Y-3.503
X8.103Y-1.803
X8.103Y-1.903
X8.103Y-2.003
X8.103Y-2.103
X8.103Y-2.203
X8.103Y-2.303
X8.103Y-2.403
X8.103Y-2.503
X8.103Y-2.603
X8.103Y-2.703
X8.103Y-2.803
X8.103Y-2.903
X8.103Y-3.003
X8.103Y-3.103
X8.103Y-3.203
X8.103Y-3.303
X8.103Y-3.403
X8.103Y-3.503
T0
M30
