  0
SECTION
  2
HEADER
  9
$ACADVER
  1
AC1009
  9
$DWGCODEPAGE
  3
ansi_1252
  9
$INSBASE
 10
0.0
 20
0.0
 30
0.0
  9
$EXTMIN
 10
-225.4088649112717
 20
-153.8077714757135
 30
0.0
  9
$EXTMAX
 10
225.1828854925875
 20
142.206139925773
 30
0.0
  9
$LIMMIN
 10
0.0
 20
0.0
  9
$LIMMAX
 10
12.0
 20
9.0
  9
$ORTHOMODE
 70
     0
  9
$REGENMODE
 70
     1
  9
$FILLMODE
 70
     1
  9
$QTEXTMODE
 70
     0
  9
$MIRRTEXT
 70
     1
  9
$DRAGMODE
 70
     2
  9
$LTSCALE
 40
1.0
  9
$OSMODE
 70
    37
  9
$ATTMODE
 70
     1
  9
$TEXTSIZE
 40
0.2
  9
$TRACEWID
 40
0.05
  9
$TEXTSTYLE
  7
STANDARD
  9
$CLAYER
  8
0
  9
$CELTYPE
  6
BYLAYER
  9
$CECOLOR
 62
   256
  9
$DIMSCALE
 40
1.0
  9
$DIMASZ
 40
0.18
  9
$DIMEXO
 40
0.0625
  9
$DIMDLI
 40
0.38
  9
$DIMRND
 40
0.0
  9
$DIMDLE
 40
0.0
  9
$DIMEXE
 40
0.18
  9
$DIMTP
 40
0.0
  9
$DIMTM
 40
0.0
  9
$DIMTXT
 40
0.18
  9
$DIMCEN
 40
0.09
  9
$DIMTSZ
 40
0.0
  9
$DIMTOL
 70
     0
  9
$DIMLIM
 70
     0
  9
$DIMTIH
 70
     1
  9
$DIMTOH
 70
     1
  9
$DIMSE1
 70
     0
  9
$DIMSE2
 70
     0
  9
$DIMTAD
 70
     0
  9
$DIMZIN
 70
     0
  9
$DIMBLK
  1

  9
$DIMASO
 70
     1
  9
$DIMSHO
 70
     1
  9
$DIMPOST
  1

  9
$DIMAPOST
  1

  9
$DIMALT
 70
     0
  9
$DIMALTD
 70
     2
  9
$DIMALTF
 40
25.4
  9
$DIMLFAC
 40
1.0
  9
$DIMTOFL
 70
     0
  9
$DIMTVP
 40
0.0
  9
$DIMTIX
 70
     0
  9
$DIMSOXD
 70
     0
  9
$DIMSAH
 70
     0
  9
$DIMBLK1
  1

  9
$DIMBLK2
  1

  9
$DIMSTYLE
  2
STANDARD
  9
$DIMCLRD
 70
     0
  9
$DIMCLRE
 70
     0
  9
$DIMCLRT
 70
     0
  9
$DIMTFAC
 40
1.0
  9
$DIMGAP
 40
0.09
  9
$LUNITS
 70
     2
  9
$LUPREC
 70
     4
  9
$SKETCHINC
 40
0.1
  9
$FILLETRAD
 40
0.0
  9
$AUNITS
 70
     0
  9
$AUPREC
 70
     0
  9
$MENU
  1
.
  9
$ELEVATION
 40
0.0
  9
$PELEVATION
 40
0.0
  9
$THICKNESS
 40
0.0
  9
$LIMCHECK
 70
     0
  9
$CHAMFERA
 40
0.0
  9
$CHAMFERB
 40
0.0
  9
$SKPOLY
 70
     0
  9
$TDCREATE
 40
2454910.5
  9
$TDUPDATE
 40
2460595.646655336
  9
$TDINDWG
 40
0.0000000116
  9
$TDUSRTIMER
 40
0.0000000116
  9
$USRTIMER
 70
     1
  9
$ANGBASE
 50
0.0
  9
$ANGDIR
 70
     0
  9
$PDMODE
 70
     0
  9
$PDSIZE
 40
0.0
  9
$PLINEWID
 40
0.0
  9
$COORDS
 70
     1
  9
$SPLFRAME
 70
     0
  9
$SPLINETYPE
 70
     6
  9
$SPLINESEGS
 70
     8
  9
$ATTDIA
 70
     0
  9
$ATTREQ
 70
     1
  9
$HANDLING
 70
     1
  9
$HANDSEED
  5
82F
  9
$SURFTAB1
 70
     6
  9
$SURFTAB2
 70
     6
  9
$SURFTYPE
 70
     6
  9
$SURFU
 70
     6
  9
$SURFV
 70
     6
  9
$UCSNAME
  2

  9
$UCSORG
 10
0.0
 20
0.0
 30
0.0
  9
$UCSXDIR
 10
1.0
 20
0.0
 30
0.0
  9
$UCSYDIR
 10
0.0
 20
1.0
 30
0.0
  9
$PUCSNAME
  2

  9
$PUCSORG
 10
0.0
 20
0.0
 30
0.0
  9
$PUCSXDIR
 10
1.0
 20
0.0
 30
0.0
  9
$PUCSYDIR
 10
0.0
 20
1.0
 30
0.0
  9
$USERI1
 70
     0
  9
$USERI2
 70
     0
  9
$USERI3
 70
     0
  9
$USERI4
 70
     0
  9
$USERI5
 70
     0
  9
$USERR1
 40
0.0
  9
$USERR2
 40
0.0
  9
$USERR3
 40
0.0
  9
$USERR4
 40
0.0
  9
$USERR5
 40
0.0
  9
$WORLDVIEW
 70
     1
  9
$SHADEDGE
 70
     3
  9
$SHADEDIF
 70
    70
  9
$TILEMODE
 70
     1
  9
$MAXACTVP
 70
    64
  9
$PLIMCHECK
 70
     0
  9
$PEXTMIN
 10
1.000000000000000E+20
 20
1.000000000000000E+20
 30
1.000000000000000E+20
  9
$PEXTMAX
 10
-1.000000000000000E+20
 20
-1.000000000000000E+20
 30
-1.000000000000000E+20
  9
$PLIMMIN
 10
0.0
 20
0.0
  9
$PLIMMAX
 10
12.0
 20
9.0
  9
$UNITMODE
 70
     0
  9
$VISRETAIN
 70
     1
  9
$PLINEGEN
 70
     0
  9
$PSLTSCALE
 70
     1
  0
ENDSEC
  0
SECTION
  2
TABLES
  0
TABLE
  2
VPORT
 70
     1
  0
VPORT
  2
*ACTIVE
 70
     0
 10
0.0
 20
0.0
 11
1.0
 21
1.0
 12
10.42990654205607
 22
4.5
 13
0.0
 23
0.0
 14
0.5
 24
0.5
 15
0.5
 25
0.5
 16
0.0
 26
0.0
 36
1.0
 17
0.0
 27
0.0
 37
0.0
 40
9.0
 41
1.972972972850329
 42
50.0
 43
0.0
 44
0.0
 50
0.0
 51
0.0
 71
     0
 72
   100
 73
     1
 74
     3
 75
     0
 76
     0
 77
     0
 78
     0
  0
ENDTAB
  0
TABLE
  2
LTYPE
 70
     2
  0
LTYPE
  2
CONTINUOUS
 70
     0
  3
Solid line
 72
    65
 73
     0
 40
0.0
  0
LTYPE
  2
CONTINUOUS2
 70
     0
  3
Solid Line
 72
    65
 73
     0
 40
0.0
  0
ENDTAB
  0
TABLE
  2
LAYER
 70
     2
  0
LAYER
  2
0
 70
     0
 62
     7
  6
CONTINUOUS
  0
LAYER
  2
LAYER0
 70
     0
 62
    13
  6
CONTINUOUS
  0
ENDTAB
  0
TABLE
  2
STYLE
 70
     1
  0
STYLE
  2
STANDARD
 70
     0
 40
0.0
 41
1.0
 50
0.0
 71
     0
 42
0.2
  3
txt
  4

  0
ENDTAB
  0
TABLE
  2
VIEW
 70
     0
  0
ENDTAB
  0
TABLE
  2
UCS
 70
     0
  0
ENDTAB
  0
TABLE
  2
APPID
 70
     1
  0
APPID
  2
ACAD
 70
     0
  0
ENDTAB
  0
TABLE
  2
DIMSTYLE
 70
     1
  0
DIMSTYLE
  2
STANDARD
 70
     0
  3

  4

  5

  6

  7

 40
1.0
 41
0.18
 42
0.0625
 43
0.38
 44
0.18
 45
0.0
 46
0.0
 47
0.0
 48
0.0
140
0.18
141
0.09
142
0.0
143
25.4
144
1.0
145
0.0
146
1.0
147
0.09
 71
     0
 72
     0
 73
     1
 74
     1
 75
     0
 76
     0
 77
     0
 78
     0
170
     0
171
     2
172
     0
173
     0
174
     0
175
     0
176
     0
177
     0
178
     0
  0
ENDTAB
  0
ENDSEC
  0
SECTION
  2
BLOCKS
  0
BLOCK
  8
0
  2
$MODEL_SPACE
 70
     0
 10
0.0
 20
0.0
 30
0.0
  3
$MODEL_SPACE
  1

  0
ENDBLK
  5
21
  8
0
  0
BLOCK
 67
     1
  8
0
  2
$PAPER_SPACE
 70
     0
 10
0.0
 20
0.0
 30
0.0
  3
$PAPER_SPACE
  1

  0
ENDBLK
  5
1D
 67
     1
  8
0
  0
ENDSEC
  0
SECTION
  2
ENTITIES
  0
POLYLINE
  5
60
  8
LAYER0
 66
     1
 10
0.0
 20
0.0
 30
0.0
 70
     1
  0
VERTEX
  5
108
  8
LAYER0
 10
-119.3462445804581
 20
-140.422027761563
 30
0.0
 42
-0.4142135623730951
  0
VERTEX
  5
109
  8
LAYER0
 10
-120.3462445803418
 20
-139.4220277616793
 30
0.0
 42
-0.4142135623730951
  0
VERTEX
  5
10A
  8
LAYER0
 10
-119.3462445804581
 20
-138.4220277617957
 30
0.0
 42
-0.4142135623730951
  0
VERTEX
  5
10B
  8
LAYER0
 10
-118.3462445805745
 20
-139.4220277616793
 30
0.0
 42
-0.4142135623730951
  0
SEQEND
  5
78E
  8
LAYER0
  0
POLYLINE
  5
61
  8
LAYER0
 66
     1
 10
0.0
 20
0.0
 30
0.0
 70
     1
  0
VERTEX
  5
10C
  8
LAYER0
 10
-118.3462445801807
 20
-67.42202776122554
 30
0.0
 42
-0.4142135623730951
  0
VERTEX
  5
10D
  8
LAYER0
 10
-119.3462445802696
 20
-68.42202776131438
 30
0.0
 42
-0.4142135623730951
  0
VERTEX
  5
10E
  8
LAYER0
 10
-120.3462445803584
 20
-67.42202776122554
 30
0.0
 42
-0.4142135623730951
  0
VERTEX
  5
10F
  8
LAYER0
 10
-119.3462445802696
 20
-66.42202776113669
 30
0.0
 42
-0.4142135623730951
  0
SEQEND
  5
78F
  8
LAYER0
  0
POLYLINE
  5
62
  8
LAYER0
 66
     1
 10
0.0
 20
0.0
 30
0.0
 70
     1
  0
VERTEX
  5
110
  8
LAYER0
 10
142.7720899017127
 20
-80.28025766560285
 30
0.0
 42
-1.0
  0
VERTEX
  5
111
  8
LAYER0
 10
139.2365559976218
 20
-83.81579157337751
 30
0.0
  0
VERTEX
  5
112
  8
LAYER0
 10
122.2659932579859
 20
-100.7863543306959
 30
0.0
 42
-1.0
  0
VERTEX
  5
113
  8
LAYER0
 10
118.7304593538951
 20
-104.3218882384705
 30
0.0
  0
VERTEX
  5
114
  8
LAYER0
 10
115.4070574651132
 20
-100.998486359046
 30
0.0
  0
VERTEX
  5
115
  8
LAYER0
 10
109.7502032281474
 20
-95.34163212207983
 30
0.0
 42
-1.0
  0
VERTEX
  5
116
  8
LAYER0
 10
113.2857371215542
 20
-91.8060982036211
 30
0.0
  0
VERTEX
  5
117
  8
LAYER0
 10
130.2562998700321
 20
-74.83553545514474
 30
0.0
 42
-1.0
  0
VERTEX
  5
118
  8
LAYER0
 10
133.791833775965
 20
-71.30000154921214
 30
0.0
  0
VERTEX
  5
119
  8
LAYER0
 10
139.4486880254568
 20
-76.95685579870445
 30
0.0
  0
SEQEND
  5
790
  8
LAYER0
  0
POLYLINE
  5
63
  8
LAYER0
 66
     1
 10
0.0
 20
0.0
 30
0.0
 70
     1
  0
VERTEX
  5
11A
  8
LAYER0
 10
199.5165160894766
 20
30.6344683574369
 30
0.0
 42
-0.4142135623730951
  0
VERTEX
  5
11B
  8
LAYER0
 10
197.0165160894906
 20
28.13446835745094
 30
0.0
 42
-0.4142135623730951
  0
VERTEX
  5
11C
  8
LAYER0
 10
194.5165160895045
 20
30.6344683574369
 30
0.0
 42
-0.4142135623730951
  0
VERTEX
  5
11D
  8
LAYER0
 10
197.0165160894906
 20
33.13446835742292
 30
0.0
 42
-0.4142135623730951
  0
SEQEND
  5
791
  8
LAYER0
  0
POLYLINE
  5
64
  8
LAYER0
 66
     1
 10
0.0
 20
0.0
 30
0.0
 70
     1
  0
VERTEX
  5
11E
  8
LAYER0
 10
167.0165160894672
 20
27.9616104217111
 30
0.0
 42
-0.4142135623730951
  0
VERTEX
  5
11F
  8
LAYER0
 10
164.5165160894347
 20
30.46161042174361
 30
0.0
 42
-0.4142135623730951
  0
VERTEX
  5
120
  8
LAYER0
 10
167.0165160894672
 20
32.96161042177613
 30
0.0
 42
-0.4142135623730951
  0
VERTEX
  5
121
  8
LAYER0
 10
169.5165160894997
 20
30.46161042174361
 30
0.0
 42
-0.4142135623730951
  0
SEQEND
  5
792
  8
LAYER0
  0
POLYLINE
  5
65
  8
LAYER0
 66
     1
 10
0.0
 20
0.0
 30
0.0
 70
     1
  0
VERTEX
  5
122
  8
LAYER0
 10
199.5165160894966
 20
-40.63452171315976
 30
0.0
 42
-0.4142135623730951
  0
VERTEX
  5
123
  8
LAYER0
 10
197.0165160894732
 20
-43.13452171318318
 30
0.0
 42
-0.4142135623730951
  0
VERTEX
  5
124
  8
LAYER0
 10
194.5165160894497
 20
-40.63452171315976
 30
0.0
 42
-0.4142135623730951
  0
VERTEX
  5
125
  8
LAYER0
 10
197.0165160894732
 20
-38.13452171313634
 30
0.0
 42
-0.4142135623730951
  0
SEQEND
  5
793
  8
LAYER0
  0
POLYLINE
  5
66
  8
LAYER0
 66
     1
 10
0.0
 20
0.0
 30
0.0
 70
     1
  0
VERTEX
  5
126
  8
LAYER0
 10
169.5165160894711
 20
-40.46166377746283
 30
0.0
 42
-0.4142135623730951
  0
VERTEX
  5
127
  8
LAYER0
 10
167.0165160894906
 20
-42.96166377744333
 30
0.0
 42
-0.4142135623730951
  0
VERTEX
  5
128
  8
LAYER0
 10
164.5165160895101
 20
-40.46166377746283
 30
0.0
 42
-0.4142135623730951
  0
VERTEX
  5
129
  8
LAYER0
 10
167.0165160894906
 20
-37.96166377748233
 30
0.0
 42
-0.4142135623730951
  0
SEQEND
  5
794
  8
LAYER0
  0
POLYLINE
  5
67
  8
LAYER0
 66
     1
 10
0.0
 20
0.0
 30
0.0
 70
     1
  0
VERTEX
  5
12A
  8
LAYER0
 10
-94.28280013713265
 20
-103.113679125688
 30
0.0
 42
-0.4142135623730951
  0
VERTEX
  5
12B
  8
LAYER0
 10
-96.78280013718103
 20
-100.6136791256396
 30
0.0
 42
-0.4142135623730951
  0
VERTEX
  5
12C
  8
LAYER0
 10
-94.28280013713265
 20
-98.11367912559126
 30
0.0
 42
-0.4142135623730951
  0
VERTEX
  5
12D
  8
LAYER0
 10
-91.78280013708428
 20
-100.6136791256396
 30
0.0
 42
-0.4142135623730951
  0
SEQEND
  5
795
  8
LAYER0
  0
POLYLINE
  5
68
  8
LAYER0
 66
     1
 10
0.0
 20
0.0
 30
0.0
 70
     1
  0
VERTEX
  5
12E
  8
LAYER0
 10
-82.54041486072933
 20
68.66471471837355
 30
0.0
 42
-1.0
  0
VERTEX
  5
12F
  8
LAYER0
 10
-79.00488095498571
 20
72.20024862449543
 30
0.0
  0
VERTEX
  5
130
  8
LAYER0
 10
-62.03431820741636
 20
89.17081137388044
 30
0.0
 42
-1.0
  0
VERTEX
  5
131
  8
LAYER0
 10
-58.49878430167277
 20
92.70634528000227
 30
0.0
  0
VERTEX
  5
132
  8
LAYER0
 10
-49.51852818012324
 20
83.72608915941356
 30
0.0
 42
-1.0
  0
VERTEX
  5
133
  8
LAYER0
 10
-53.05406208476907
 20
80.19055525219386
 30
0.0
  0
VERTEX
  5
134
  8
LAYER0
 10
-70.02462483324686
 20
63.21999250371738
 30
0.0
 42
-1.0
  0
VERTEX
  5
135
  8
LAYER0
 10
-73.56015873917974
 20
59.68445859778478
 30
0.0
  0
SEQEND
  5
796
  8
LAYER0
  0
POLYLINE
  5
69
  8
LAYER0
 66
     1
 10
0.0
 20
0.0
 30
0.0
 70
     1
  0
VERTEX
  5
136
  8
LAYER0
 10
-44.35664867617595
 20
-118.4640238543547
 30
0.0
 42
-1.0
  0
VERTEX
  5
137
  8
LAYER0
 10
-47.8921825821086
 20
-114.9284899484218
 30
0.0
  0
VERTEX
  5
138
  8
LAYER0
 10
-64.8627453305852
 20
-97.95792719994404
 30
0.0
 42
-1.0
  0
VERTEX
  5
139
  8
LAYER0
 10
-68.39827923651791
 20
-94.42239329401121
 30
0.0
  0
VERTEX
  5
13A
  8
LAYER0
 10
-59.41802311544848
 20
-85.44213717294235
 30
0.0
 42
-1.0
  0
VERTEX
  5
13B
  8
LAYER0
 10
-55.8824892095158
 20
-88.97767107887523
 30
0.0
  0
VERTEX
  5
13C
  8
LAYER0
 10
-38.9119264610392
 20
-105.948233827353
 30
0.0
 42
-1.0
  0
VERTEX
  5
13D
  8
LAYER0
 10
-35.37639255510658
 20
-109.4837677332858
 30
0.0
  0
SEQEND
  5
797
  8
LAYER0
  0
POLYLINE
  5
6A
  8
LAYER0
 66
     1
 10
0.0
 20
0.0
 30
0.0
 70
     1
  0
VERTEX
  5
13E
  8
LAYER0
 10
104.5883237129598
 20
106.8484809029273
 30
0.0
 42
-1.0
  0
VERTEX
  5
13F
  8
LAYER0
 10
108.1238576188925
 20
103.3129469969945
 30
0.0
  0
VERTEX
  5
140
  8
LAYER0
 10
125.0944203673697
 20
86.34238424851748
 30
0.0
 42
-1.0
  0
VERTEX
  5
141
  8
LAYER0
 10
128.6299542733024
 20
82.80685034258471
 30
0.0
  0
VERTEX
  5
142
  8
LAYER0
 10
119.6496981522333
 20
73.82659422151556
 30
0.0
 42
-1.0
  0
VERTEX
  5
143
  8
LAYER0
 10
116.1141642463005
 20
77.36212812744833
 30
0.0
  0
VERTEX
  5
144
  8
LAYER0
 10
99.14360149782345
 20
94.33269087592538
 30
0.0
 42
-1.0
  0
VERTEX
  5
145
  8
LAYER0
 10
95.60806759189069
 20
97.86822478185803
 30
0.0
  0
SEQEND
  5
798
  8
LAYER0
  0
POLYLINE
  5
6B
  8
LAYER0
 66
     1
 10
0.0
 20
0.0
 30
0.0
 70
     1
  0
VERTEX
  5
146
  8
LAYER0
 10
-44.88416248160252
 20
-108.3077714757135
 30
0.0
 42
-0.4142135623730951
  0
VERTEX
  5
147
  8
LAYER0
 10
-47.38416248162747
 20
-105.8077714756886
 30
0.0
 42
-0.4142135623730951
  0
VERTEX
  5
148
  8
LAYER0
 10
-44.88416248160252
 20
-103.3077714756636
 30
0.0
 42
-0.4142135623730951
  0
VERTEX
  5
149
  8
LAYER0
 10
-42.38416248157756
 20
-105.8077714756886
 30
0.0
 42
-0.4142135623730951
  0
SEQEND
  5
799
  8
LAYER0
  0
POLYLINE
  5
6C
  8
LAYER0
 66
     1
 10
0.0
 20
0.0
 30
0.0
 70
     1
  0
VERTEX
  5
14A
  8
LAYER0
 10
-67.56296463391325
 20
69.42724238273695
 30
0.0
 42
-0.4142135623730951
  0
VERTEX
  5
14B
  8
LAYER0
 10
-70.06296463389529
 20
66.92724238275486
 30
0.0
 42
-0.4142135623730951
  0
VERTEX
  5
14C
  8
LAYER0
 10
-72.56296463387739
 20
69.42724238273695
 30
0.0
 42
-0.4142135623730951
  0
VERTEX
  5
14D
  8
LAYER0
 10
-70.06296463389529
 20
71.92724238271904
 30
0.0
 42
-0.4142135623730951
  0
SEQEND
  5
79A
  8
LAYER0
  0
POLYLINE
  5
6D
  8
LAYER0
 66
     1
 10
0.0
 20
0.0
 30
0.0
 70
     1
  0
VERTEX
  5
14E
  8
LAYER0
 10
225.1828854925875
 20
101.6922285242865
 30
0.0
  0
VERTEX
  5
14F
  8
LAYER0
 10
225.1828854925875
 20
76.6922285242864
 30
0.0
 42
-0.4142135623730951
  0
VERTEX
  5
150
  8
LAYER0
 10
222.6828854925875
 20
74.1922285242864
 30
0.0
  0
VERTEX
  5
151
  8
LAYER0
 10
217.1828854925876
 20
74.1922285242864
 30
0.0
 42
1.0
  0
VERTEX
  5
152
  8
LAYER0
 10
217.1828854925876
 20
69.1922285242864
 30
0.0
  0
VERTEX
  5
153
  8
LAYER0
 10
217.1828854925876
 20
-80.8077714757136
 30
0.0
 42
1.0
  0
VERTEX
  5
154
  8
LAYER0
 10
217.1828854925876
 20
-85.8077714757136
 30
0.0
  0
VERTEX
  5
155
  8
LAYER0
 10
222.6829054925875
 20
-85.8077714757136
 30
0.0
 42
-0.4153856218876655
  0
VERTEX
  5
156
  8
LAYER0
 10
225.1828854925875
 20
-88.31777145557838
 30
0.0
  0
VERTEX
  5
157
  8
LAYER0
 10
225.1828854925875
 20
-113.3077964757135
 30
0.0
 42
-0.4155240289145501
  0
VERTEX
  5
158
  8
LAYER0
 10
222.6717051830212
 20
-115.8077714757135
 30
0.0
  0
VERTEX
  5
159
  8
LAYER0
 10
217.1828854925876
 20
-115.8077714757135
 30
0.0
 42
1.0
  0
VERTEX
  5
15A
  8
LAYER0
 10
217.1828854925876
 20
-120.8077714757135
 30
0.0
  0
VERTEX
  5
15B
  8
LAYER0
 10
217.1828854925876
 20
-145.8077714757136
 30
0.0
  0
VERTEX
  5
15C
  8
LAYER0
 10
150.1158375183924
 20
-145.8077714757136
 30
0.0
 42
1.0
  0
VERTEX
  5
15D
  8
LAYER0
 10
145.1158375183924
 20
-145.8077714757136
 30
0.0
  0
VERTEX
  5
15E
  8
LAYER0
 10
145.1158375183925
 20
-151.3077714757135
 30
0.0
 42
-0.4142135628448256
  0
VERTEX
  5
15F
  8
LAYER0
 10
142.6158375183924
 20
-153.8077714757135
 30
0.0
  0
VERTEX
  5
160
  8
LAYER0
 10
117.6158375183924
 20
-153.8077714757135
 30
0.0
 42
-0.4142135628454208
  0
VERTEX
  5
161
  8
LAYER0
 10
115.1158375183924
 20
-151.3077714757135
 30
0.0
  0
VERTEX
  5
162
  8
LAYER0
 10
115.1158375183924
 20
-145.8077714757136
 30
0.0
 42
1.0
  0
VERTEX
  5
163
  8
LAYER0
 10
110.1158375183924
 20
-145.8077714757136
 30
0.0
  0
VERTEX
  5
164
  8
LAYER0
 10
12.61583751839242
 20
-145.8077714757136
 30
0.0
 42
1.0
  0
VERTEX
  5
165
  8
LAYER0
 10
7.615837518392425
 20
-145.8077714757136
 30
0.0
  0
VERTEX
  5
166
  8
LAYER0
 10
7.615837518392482
 20
-151.3077714757135
 30
0.0
 42
-0.4142135622028438
  0
VERTEX
  5
167
  8
LAYER0
 10
5.115837518392425
 20
-153.8077714757135
 30
0.0
  0
VERTEX
  5
168
  8
LAYER0
 10
-19.88416248160755
 20
-153.8077714757135
 30
0.0
 42
-0.4142135630380144
  0
VERTEX
  5
169
  8
LAYER0
 10
-22.38416248160755
 20
-151.3077714757135
 30
0.0
  0
VERTEX
  5
16A
  8
LAYER0
 10
-22.38416248160755
 20
-145.8077714757136
 30
0.0
 42
0.5002468837770736
  0
VERTEX
  5
16B
  8
LAYER0
 10
-24.78360876737682
 20
-142.6058758147157
 30
0.0
 42
0.5002468837770774
  0
VERTEX
  5
16C
  8
LAYER0
 10
-27.18305505314606
 20
-145.8077714757136
 30
0.0
  0
VERTEX
  5
16D
  8
LAYER0
 10
-124.8841624816076
 20
-145.8077714757136
 30
0.0
 42
0.4170321316931824
  0
VERTEX
  5
16E
  8
LAYER0
 10
-127.4110247378617
 20
-143.3091388355556
 30
0.0
 42
0.417032131693197
  0
VERTEX
  5
16F
  8
LAYER0
 10
-129.8852500492718
 20
-145.8599048069694
 30
0.0
  0
VERTEX
  5
170
  8
LAYER0
 10
-129.8852500492718
 20
-145.9120494810142
 30
0.0
  0
VERTEX
  5
171
  8
LAYER0
 10
-129.8841624816075
 20
-145.9641828122701
 30
0.0
  0
VERTEX
  5
172
  8
LAYER0
 10
-129.8841624816075
 20
-151.3077714757136
 30
0.0
 42
-0.414213563223682
  0
VERTEX
  5
173
  8
LAYER0
 10
-132.3841624816075
 20
-153.8077714757135
 30
0.0
  0
VERTEX
  5
174
  8
LAYER0
 10
-157.3841624816075
 20
-153.8077714757135
 30
0.0
 42
-0.4142135631647875
  0
VERTEX
  5
175
  8
LAYER0
 10
-159.8841624816076
 20
-151.3077714757136
 30
0.0
  0
VERTEX
  5
176
  8
LAYER0
 10
-159.8841624816075
 20
-145.8077714757136
 30
0.0
 42
1.0
  0
VERTEX
  5
177
  8
LAYER0
 10
-164.8841624816075
 20
-145.8077714757136
 30
0.0
  0
VERTEX
  5
178
  8
LAYER0
 10
-217.3841624816075
 20
-145.8077714757136
 30
0.0
  0
VERTEX
  5
179
  8
LAYER0
 10
-217.3841624816075
 20
-120.8077714757136
 30
0.0
 42
1.0
  0
VERTEX
  5
17A
  8
LAYER0
 10
-217.3841624816075
 20
-115.8077714757136
 30
0.0
  0
VERTEX
  5
17B
  8
LAYER0
 10
-222.8841624816075
 20
-115.8077714757136
 30
0.0
 42
-0.4142135632618741
  0
VERTEX
  5
17C
  8
LAYER0
 10
-225.3841624816075
 20
-113.3077714757137
 30
0.0
  0
VERTEX
  5
17D
  8
LAYER0
 10
-225.3841624816075
 20
-88.30777147571351
 30
0.0
 42
-0.4142135625530822
  0
VERTEX
  5
17E
  8
LAYER0
 10
-222.8841624816075
 20
-85.80777147571362
 30
0.0
  0
VERTEX
  5
17F
  8
LAYER0
 10
-217.3841624816075
 20
-85.80777147571362
 30
0.0
 42
1.0
  0
VERTEX
  5
180
  8
LAYER0
 10
-217.3841624816075
 20
-80.80777147571362
 30
0.0
  0
VERTEX
  5
181
  8
LAYER0
 10
-217.3841624816075
 20
-55.80777147571362
 30
0.0
  0
VERTEX
  5
182
  8
LAYER0
 10
-152.3841624816076
 20
-55.80777147571362
 30
0.0
  0
VERTEX
  5
183
  8
LAYER0
 10
-152.3841597248929
 20
-61.80777147591229
 30
0.0
 42
1.0
  0
VERTEX
  5
184
  8
LAYER0
 10
-147.3841652383224
 20
-61.80777231017865
 30
0.0
  0
VERTEX
  5
185
  8
LAYER0
 10
-137.3841650893108
 20
-61.80777231017865
 30
0.0
 42
1.0
  0
VERTEX
  5
186
  8
LAYER0
 10
-132.3841624816075
 20
-61.80777147571359
 30
0.0
  0
VERTEX
  5
187
  8
LAYER0
 10
-132.3841624816075
 20
-55.80777147571359
 30
0.0
  0
VERTEX
  5
188
  8
LAYER0
 10
-119.8841624816075
 20
-55.80777147571359
 30
0.0
 42
0.4142135612402854
  0
VERTEX
  5
189
  8
LAYER0
 10
-117.3841624816075
 20
-53.30777147571359
 30
0.0
  0
VERTEX
  5
18A
  8
LAYER0
 10
-117.3841624816075
 20
41.69222852428635
 30
0.0
 42
0.4142135621416628
  0
VERTEX
  5
18B
  8
LAYER0
 10
-119.8841624816075
 20
44.19222852428635
 30
0.0
  0
VERTEX
  5
18C
  8
LAYER0
 10
-132.3841624816075
 20
44.19222852428635
 30
0.0
  0
VERTEX
  5
18D
  8
LAYER0
 10
-132.3841650893107
 20
50.19222935875149
 30
0.0
 42
1.0
  0
VERTEX
  5
18E
  8
LAYER0
 10
-137.3841650893108
 20
50.19222935875149
 30
0.0
  0
VERTEX
  5
18F
  8
LAYER0
 10
-147.3841652383224
 20
50.19222935875149
 30
0.0
 42
1.0
  0
VERTEX
  5
190
  8
LAYER0
 10
-152.3841652383223
 20
50.19222935875149
 30
0.0
  0
VERTEX
  5
191
  8
LAYER0
 10
-152.3841624816076
 20
44.19222852428635
 30
0.0
  0
VERTEX
  5
192
  8
LAYER0
 10
-217.3841624816075
 20
44.19222852428635
 30
0.0
  0
VERTEX
  5
193
  8
LAYER0
 10
-217.3841624816075
 20
69.19222852428635
 30
0.0
 42
1.0
  0
VERTEX
  5
194
  8
LAYER0
 10
-217.3841624816075
 20
74.19222852428635
 30
0.0
  0
VERTEX
  5
195
  8
LAYER0
 10
-222.8841624816075
 20
74.19222852428635
 30
0.0
 42
-0.4142135634616659
  0
VERTEX
  5
196
  8
LAYER0
 10
-225.3841624816075
 20
76.69222852428635
 30
0.0
  0
VERTEX
  5
197
  8
LAYER0
 10
-225.3841624816075
 20
101.6922285242865
 30
0.0
 42
-0.4142135633535726
  0
VERTEX
  5
198
  8
LAYER0
 10
-222.8841624816075
 20
104.1922285242863
 30
0.0
  0
VERTEX
  5
199
  8
LAYER0
 10
-217.3841624816075
 20
104.1922285242863
 30
0.0
 42
1.0
  0
VERTEX
  5
19A
  8
LAYER0
 10
-217.3841624816075
 20
109.1922285242863
 30
0.0
  0
VERTEX
  5
19B
  8
LAYER0
 10
-217.3841624816075
 20
134.1922285242863
 30
0.0
  0
VERTEX
  5
19C
  8
LAYER0
 10
-164.8452256020228
 20
134.1922285242863
 30
0.0
 42
0.9448095342517957
  0
VERTEX
  5
19D
  8
LAYER0
 10
-159.8532724236576
 20
134.1922285242863
 30
0.0
  0
VERTEX
  5
19E
  8
LAYER0
 10
-159.8532724236576
 20
139.6922285242863
 30
0.0
 42
-0.4142135625295816
  0
VERTEX
  5
19F
  8
LAYER0
 10
-157.3532724236576
 20
142.1922285242863
 30
0.0
  0
VERTEX
  5
1A0
  8
LAYER0
 10
-132.3837198736879
 20
142.1922285242863
 30
0.0
 42
-0.4087127337766153
  0
VERTEX
  5
1A1
  8
LAYER0
 10
-129.8841624816075
 20
139.7392693969018
 30
0.0
  0
VERTEX
  5
1A2
  8
LAYER0
 10
-129.8841624816075
 20
134.1922285242863
 30
0.0
 42
1.0
  0
VERTEX
  5
1A3
  8
LAYER0
 10
-124.8841624816076
 20
134.1922285242863
 30
0.0
  0
VERTEX
  5
1A4
  8
LAYER0
 10
-27.38416248160758
 20
134.1922285242863
 30
0.0
 42
1.0
  0
VERTEX
  5
1A5
  8
LAYER0
 10
-22.38416248160758
 20
134.1922285242863
 30
0.0
  0
VERTEX
  5
1A6
  8
LAYER0
 10
-22.38416248160758
 20
139.6922285242863
 30
0.0
 42
-0.4142135624549098
  0
VERTEX
  5
1A7
  8
LAYER0
 10
-19.88416248160758
 20
142.1922285242863
 30
0.0
  0
VERTEX
  5
1A8
  8
LAYER0
 10
5.115837518392425
 20
142.1922285242863
 30
0.0
 42
-0.4142135615594035
  0
VERTEX
  5
1A9
  8
LAYER0
 10
7.615837518392425
 20
139.6922285242863
 30
0.0
  0
VERTEX
  5
1AA
  8
LAYER0
 10
7.615837518392425
 20
134.1922285242863
 30
0.0
 42
1.0
  0
VERTEX
  5
1AB
  8
LAYER0
 10
12.61583751839242
 20
134.1922285242863
 30
0.0
  0
VERTEX
  5
1AC
  8
LAYER0
 10
110.1158375183924
 20
134.1922285242863
 30
0.0
 42
1.0
  0
VERTEX
  5
1AD
  8
LAYER0
 10
115.1158375183924
 20
134.1922285242863
 30
0.0
  0
VERTEX
  5
1AE
  8
LAYER0
 10
115.1158375183924
 20
139.6922285242863
 30
0.0
 42
-0.4142135634749309
  0
VERTEX
  5
1AF
  8
LAYER0
 10
117.6158375183924
 20
142.1922285242863
 30
0.0
  0
VERTEX
  5
1B0
  8
LAYER0
 10
142.6158375183924
 20
142.1922285242863
 30
0.0
 42
-0.4142135617192991
  0
VERTEX
  5
1B1
  8
LAYER0
 10
145.1158375183924
 20
139.6922285242863
 30
0.0
  0
VERTEX
  5
1B2
  8
LAYER0
 10
145.1158375183924
 20
134.1922285242863
 30
0.0
 42
1.0
  0
VERTEX
  5
1B3
  8
LAYER0
 10
150.1158375183924
 20
134.1922285242863
 30
0.0
  0
VERTEX
  5
1B4
  8
LAYER0
 10
217.1828854925876
 20
134.1922285242865
 30
0.0
  0
VERTEX
  5
1B5
  8
LAYER0
 10
217.1828854925876
 20
109.1922285242865
 30
0.0
 42
1.0
  0
VERTEX
  5
1B6
  8
LAYER0
 10
217.1828854925876
 20
104.1922285242865
 30
0.0
  0
VERTEX
  5
1B7
  8
LAYER0
 10
222.6828854925875
 20
104.1922285242865
 30
0.0
 42
-0.4142135623731065
  0
SEQEND
  5
79B
  8
LAYER0
  0
POLYLINE
  5
6E
  8
LAYER0
 66
     1
 10
0.0
 20
0.0
 30
0.0
 70
     1
  0
VERTEX
  5
1B8
  8
LAYER0
 10
132.8698546935533
 20
-81.16235376010945
 30
0.0
 42
-0.4142135623730951
  0
VERTEX
  5
1B9
  8
LAYER0
 10
130.3698546935316
 20
-83.66235376013111
 30
0.0
 42
-0.4142135623730951
  0
VERTEX
  5
1BA
  8
LAYER0
 10
127.86985469351
 20
-81.16235376010945
 30
0.0
 42
-0.4142135623730951
  0
VERTEX
  5
1BB
  8
LAYER0
 10
130.3698546935316
 20
-78.6623537600878
 30
0.0
 42
-0.4142135623730951
  0
SEQEND
  5
79C
  8
LAYER0
  0
POLYLINE
  5
6F
  8
LAYER0
 66
     1
 10
0.0
 20
0.0
 30
0.0
 70
     1
  0
VERTEX
  5
1BC
  8
LAYER0
 10
107.6158375183954
 20
94.19222852429044
 30
0.0
 42
-0.4142135623730951
  0
VERTEX
  5
1BD
  8
LAYER0
 10
105.1158375183913
 20
91.69222852428635
 30
0.0
 42
-0.4142135623730951
  0
VERTEX
  5
1BE
  8
LAYER0
 10
102.6158375183873
 20
94.19222852429044
 30
0.0
 42
-0.4142135623730951
  0
VERTEX
  5
1BF
  8
LAYER0
 10
105.1158375183913
 20
96.69222852429442
 30
0.0
 42
-0.4142135623730951
  0
SEQEND
  5
79D
  8
LAYER0
  0
POLYLINE
  5
70
  8
LAYER0
 66
     1
 10
0.0
 20
0.0
 30
0.0
 70
     1
  0
VERTEX
  5
1C0
  8
LAYER0
 10
-125.0616503559106
 20
-144.8826026122133
 30
0.0
  0
VERTEX
  5
1C1
  8
LAYER0
 10
-125.2775538049519
 20
-144.4615917390368
 30
0.0
  0
VERTEX
  5
1C2
  8
LAYER0
 10
-125.2190989721465
 20
-144.5577714757136
 30
0.0
  0
SEQEND
  5
79E
  8
LAYER0
  0
POLYLINE
  5
71
  8
LAYER0
 66
     1
 10
0.0
 20
0.0
 30
0.0
 70
     1
  0
VERTEX
  5
1C3
  8
LAYER0
 10
-125.6163955286412
 20
-144.0400045227472
 30
0.0
  0
VERTEX
  5
1C4
  8
LAYER0
 10
-125.2775538049519
 20
-144.4615917390368
 30
0.0
  0
VERTEX
  5
1C5
  8
LAYER0
 10
-125.6773273806782
 20
-143.9811040351992
 30
0.0
  0
SEQEND
  5
79F
  8
LAYER0
  0
POLYLINE
  5
72
  8
LAYER0
 66
     1
 10
0.0
 20
0.0
 30
0.0
 70
     1
  0
VERTEX
  5
1C6
  8
LAYER0
 10
-126.1341624816076
 20
-143.6427079662525
 30
0.0
  0
VERTEX
  5
1C7
  8
LAYER0
 10
-125.6773273806782
 20
-143.9811040351992
 30
0.0
  0
VERTEX
  5
1C8
  8
LAYER0
 10
-126.18379517634
 20
-143.6148012678802
 30
0.0
  0
SEQEND
  5
7A0
  8
LAYER0
  0
POLYLINE
  5
73
  8
LAYER0
 66
     1
 10
0.0
 20
0.0
 30
0.0
 70
     1
  0
VERTEX
  5
1C9
  8
LAYER0
 10
-126.7371148688512
 20
-143.3929569099909
 30
0.0
  0
VERTEX
  5
1CA
  8
LAYER0
 10
-126.18379517634
 20
-143.6148012678802
 30
0.0
  0
VERTEX
  5
1CB
  8
LAYER0
 10
-126.7652979025596
 20
-143.3855810140035
 30
0.0
  0
SEQEND
  5
7A1
  8
LAYER0
  0
POLYLINE
  5
74
  8
LAYER0
 66
     1
 10
0.0
 20
0.0
 30
0.0
 70
     1
  0
VERTEX
  5
1CC
  8
LAYER0
 10
-127.3841624816076
 20
-143.3077714757136
 30
0.0
  0
VERTEX
  5
1CD
  8
LAYER0
 10
-126.7652979025596
 20
-143.3855810140035
 30
0.0
  0
VERTEX
  5
1CE
  8
LAYER0
 10
-127.3854858383061
 20
-143.3077718259682
 30
0.0
  0
SEQEND
  5
7A2
  8
LAYER0
  0
POLYLINE
  5
75
  8
LAYER0
 66
     1
 10
0.0
 20
0.0
 30
0.0
 70
     1
  0
VERTEX
  5
1CF
  8
LAYER0
 10
-128.0312100943639
 20
-143.3929569099909
 30
0.0
  0
VERTEX
  5
1D0
  8
LAYER0
 10
-128.005591051058
 20
-143.3862375541938
 30
0.0
  0
VERTEX
  5
1D1
  8
LAYER0
 10
-128.5868507793064
 20
-143.6160733079501
 30
0.0
  0
SEQEND
  5
7A3
  8
LAYER0
  0
POLYLINE
  5
76
  8
LAYER0
 66
     1
 10
0.0
 20
0.0
 30
0.0
 70
     1
  0
VERTEX
  5
1D2
  8
LAYER0
 10
-128.6341624816076
 20
-143.6427079662525
 30
0.0
  0
VERTEX
  5
1D3
  8
LAYER0
 10
-128.5868507793064
 20
-143.6160733079501
 30
0.0
  0
VERTEX
  5
1D4
  8
LAYER0
 10
-129.0929304918177
 20
-143.982912059955
 30
0.0
  0
SEQEND
  5
7A4
  8
LAYER0
  0
POLYLINE
  5
77
  8
LAYER0
 66
     1
 10
0.0
 20
0.0
 30
0.0
 70
     1
  0
VERTEX
  5
1D5
  8
LAYER0
 10
-129.151929434574
 20
-144.0400045227472
 30
0.0
  0
VERTEX
  5
1D6
  8
LAYER0
 10
-129.0929304918177
 20
-143.982912059955
 30
0.0
  0
VERTEX
  5
1D7
  8
LAYER0
 10
-129.492195158282
 20
-144.463822728896
 30
0.0
  0
SEQEND
  5
7A5
  8
LAYER0
  0
POLYLINE
  5
78
  8
LAYER0
 66
     1
 10
0.0
 20
0.0
 30
0.0
 70
     1
  0
VERTEX
  5
1D8
  8
LAYER0
 10
-129.5492259910686
 20
-144.5577714757136
 30
0.0
  0
VERTEX
  5
1D9
  8
LAYER0
 10
-129.492195158282
 20
-144.463822728896
 30
0.0
  0
VERTEX
  5
1DA
  8
LAYER0
 10
-129.7073270039664
 20
-144.8842420489742
 30
0.0
  0
SEQEND
  5
7A6
  8
LAYER0
  0
POLYLINE
  5
79
  8
LAYER0
 66
     1
 10
0.0
 20
0.0
 30
0.0
 70
     1
  0
VERTEX
  5
1DB
  8
LAYER0
 10
-129.7989770473303
 20
-145.1607238629573
 30
0.0
  0
VERTEX
  5
1DC
  8
LAYER0
 10
-129.7073270039664
 20
-144.8842420489742
 30
0.0
  0
VERTEX
  5
1DD
  8
LAYER0
 10
-129.839555658463
 20
-145.3376179400983
 30
0.0
  0
SEQEND
  5
7A7
  8
LAYER0
  0
POLYLINE
  5
7A
  8
LAYER0
 66
     1
 10
0.0
 20
0.0
 30
0.0
 70
     1
  0
VERTEX
  5
1DE
  8
LAYER0
 10
-125.0616503559106
 20
-144.8826026122133
 30
0.0
  0
VERTEX
  5
1DF
  8
LAYER0
 10
-124.9693479158849
 20
-145.1607238629573
 30
0.0
  0
VERTEX
  5
1E0
  8
LAYER0
 10
-124.9289353725358
 20
-145.3367514730824
 30
0.0
  0
SEQEND
  5
7A8
  8
LAYER0
  0
POLYLINE
  5
7B
  8
LAYER0
 66
     1
 10
0.0
 20
0.0
 30
0.0
 70
     1
  0
VERTEX
  5
1E1
  8
LAYER0
 10
-211.3462445805445
 20
-140.4220277613145
 30
0.0
 42
-0.4142135623730951
  0
VERTEX
  5
1E2
  8
LAYER0
 10
-212.3462445801712
 20
-139.4220277616878
 30
0.0
 42
-0.4142135623730951
  0
VERTEX
  5
1E3
  8
LAYER0
 10
-211.3462445805445
 20
-138.422027762061
 30
0.0
 42
-0.4142135623730951
  0
VERTEX
  5
1E4
  8
LAYER0
 10
-210.3462445809178
 20
-139.4220277616878
 30
0.0
 42
-0.4142135623730951
  0
SEQEND
  5
7A9
  8
LAYER0
  0
POLYLINE
  5
7C
  8
LAYER0
 66
     1
 10
0.0
 20
0.0
 30
0.0
 70
     1
  0
VERTEX
  5
1E5
  8
LAYER0
 10
-211.3462445809388
 20
-68.42202776131447
 30
0.0
 42
-0.4142135623730951
  0
VERTEX
  5
1E6
  8
LAYER0
 10
-212.346244580092
 20
-67.42202776216126
 30
0.0
 42
-0.4142135623730951
  0
VERTEX
  5
1E7
  8
LAYER0
 10
-211.3462445809388
 20
-66.42202776300806
 30
0.0
 42
-0.4142135623730951
  0
VERTEX
  5
1E8
  8
LAYER0
 10
-210.3462445817856
 20
-67.42202776216126
 30
0.0
 42
-0.4142135623730951
  0
SEQEND
  5
7AA
  8
LAYER0
  0
POLYLINE
  5
7D
  8
LAYER0
 66
     1
 10
0.0
 20
0.0
 30
0.0
 70
     1
  0
VERTEX
  5
1E9
  8
LAYER0
 10
-164.492195158282
 20
-144.463822728896
 30
0.0
  0
VERTEX
  5
1EA
  8
LAYER0
 10
-164.151929434574
 20
-144.0400045227472
 30
0.0
  0
VERTEX
  5
1EB
  8
LAYER0
 10
-164.0926889828513
 20
-143.982685944965
 30
0.0
  0
SEQEND
  5
7AB
  8
LAYER0
  0
POLYLINE
  5
7E
  8
LAYER0
 66
     1
 10
0.0
 20
0.0
 30
0.0
 70
     1
  0
VERTEX
  5
1EC
  8
LAYER0
 10
-164.0926889828513
 20
-143.982685944965
 30
0.0
  0
VERTEX
  5
1ED
  8
LAYER0
 10
-163.6341624816075
 20
-143.6427079662525
 30
0.0
  0
VERTEX
  5
1EE
  8
LAYER0
 10
-163.5862706574711
 20
-143.6157550675811
 30
0.0
  0
SEQEND
  5
7AC
  8
LAYER0
  0
POLYLINE
  5
7F
  8
LAYER0
 66
     1
 10
0.0
 20
0.0
 30
0.0
 70
     1
  0
VERTEX
  5
1EF
  8
LAYER0
 10
-163.5862706574711
 20
-143.6157550675811
 30
0.0
  0
VERTEX
  5
1F0
  8
LAYER0
 10
-163.0312100943638
 20
-143.3929569099909
 30
0.0
  0
VERTEX
  5
1F1
  8
LAYER0
 10
-163.0046296361245
 20
-143.3859910335253
 30
0.0
  0
SEQEND
  5
7AD
  8
LAYER0
  0
POLYLINE
  5
80
  8
LAYER0
 66
     1
 10
0.0
 20
0.0
 30
0.0
 70
     1
  0
VERTEX
  5
1F2
  8
LAYER0
 10
-161.7636953270905
 20
-143.3859910335253
 30
0.0
  0
VERTEX
  5
1F3
  8
LAYER0
 10
-161.7371148688512
 20
-143.3929569099909
 30
0.0
  0
VERTEX
  5
1F4
  8
LAYER0
 10
-161.182054305744
 20
-143.6157550675811
 30
0.0
  0
SEQEND
  5
7AE
  8
LAYER0
  0
POLYLINE
  5
81
  8
LAYER0
 66
     1
 10
0.0
 20
0.0
 30
0.0
 70
     1
  0
VERTEX
  5
1F5
  8
LAYER0
 10
-161.182054305744
 20
-143.6157550675811
 30
0.0
  0
VERTEX
  5
1F6
  8
LAYER0
 10
-161.1341624816075
 20
-143.6427079662525
 30
0.0
  0
VERTEX
  5
1F7
  8
LAYER0
 10
-160.6756359803637
 20
-143.982685944965
 30
0.0
  0
SEQEND
  5
7AF
  8
LAYER0
  0
POLYLINE
  5
82
  8
LAYER0
 66
     1
 10
0.0
 20
0.0
 30
0.0
 70
     1
  0
VERTEX
  5
1F8
  8
LAYER0
 10
-160.6756359803637
 20
-143.982685944965
 30
0.0
  0
VERTEX
  5
1F9
  8
LAYER0
 10
-160.6163955286411
 20
-144.0400045227472
 30
0.0
  0
VERTEX
  5
1FA
  8
LAYER0
 10
-160.276129804933
 20
-144.463822728896
 30
0.0
  0
SEQEND
  5
7B0
  8
LAYER0
  0
POLYLINE
  5
83
  8
LAYER0
 66
     1
 10
0.0
 20
0.0
 30
0.0
 70
     1
  0
VERTEX
  5
1FB
  8
LAYER0
 10
-160.276129804933
 20
-144.463822728896
 30
0.0
  0
VERTEX
  5
1FC
  8
LAYER0
 10
-160.2190989721464
 20
-144.5577714757136
 30
0.0
  0
VERTEX
  5
1FD
  8
LAYER0
 10
-160.0609979592488
 20
-144.8842420489742
 30
0.0
  0
SEQEND
  5
7B1
  8
LAYER0
  0
POLYLINE
  5
84
  8
LAYER0
 66
     1
 10
0.0
 20
0.0
 30
0.0
 70
     1
  0
VERTEX
  5
1FE
  8
LAYER0
 10
-160.0609979592488
 20
-144.8842420489742
 30
0.0
  0
VERTEX
  5
1FF
  8
LAYER0
 10
-159.9693479158849
 20
-145.1607238629573
 30
0.0
  0
VERTEX
  5
200
  8
LAYER0
 10
-159.928769304752
 20
-145.3376179400983
 30
0.0
  0
SEQEND
  5
7B2
  8
LAYER0
  0
POLYLINE
  5
85
  8
LAYER0
 66
     1
 10
0.0
 20
0.0
 30
0.0
 70
     1
  0
VERTEX
  5
201
  8
LAYER0
 10
-164.492195158282
 20
-144.463822728896
 30
0.0
  0
VERTEX
  5
202
  8
LAYER0
 10
-164.7073270039663
 20
-144.8842420489742
 30
0.0
  0
VERTEX
  5
203
  8
LAYER0
 10
-164.5492259910686
 20
-144.5577714757136
 30
0.0
  0
SEQEND
  5
7B3
  8
LAYER0
  0
POLYLINE
  5
86
  8
LAYER0
 66
     1
 10
0.0
 20
0.0
 30
0.0
 70
     1
  0
VERTEX
  5
204
  8
LAYER0
 10
-164.7989770473301
 20
-145.1607238629573
 30
0.0
  0
VERTEX
  5
205
  8
LAYER0
 10
-164.7073270039663
 20
-144.8842420489742
 30
0.0
  0
VERTEX
  5
206
  8
LAYER0
 10
-164.839555658463
 20
-145.3376179400983
 30
0.0
  0
SEQEND
  5
7B4
  8
LAYER0
  0
POLYLINE
  5
87
  8
LAYER0
 66
     1
 10
0.0
 20
0.0
 30
0.0
 70
     1
  0
VERTEX
  5
207
  8
LAYER0
 10
-132.466037869426
 20
-62.44233696481768
 30
0.0
  0
VERTEX
  5
208
  8
LAYER0
 10
-132.4693478978826
 20
-62.45481902128461
 30
0.0
  0
VERTEX
  5
209
  8
LAYER0
 10
-132.6190395636777
 20
-62.86570255412522
 30
0.0
  0
SEQEND
  5
7B5
  8
LAYER0
  0
POLYLINE
  5
88
  8
LAYER0
 66
     1
 10
0.0
 20
0.0
 30
0.0
 70
     1
  0
VERTEX
  5
20A
  8
LAYER0
 10
-132.6190395636777
 20
-62.86570255412522
 30
0.0
  0
VERTEX
  5
20B
  8
LAYER0
 10
-132.7190989025911
 20
-63.05777135524011
 30
0.0
  0
VERTEX
  5
20C
  8
LAYER0
 10
-132.8454848570728
 20
-63.25476613472972
 30
0.0
  0
SEQEND
  5
7B6
  8
LAYER0
  0
POLYLINE
  5
89
  8
LAYER0
 66
     1
 10
0.0
 20
0.0
 30
0.0
 70
     1
  0
VERTEX
  5
20D
  8
LAYER0
 10
-132.8454848570728
 20
-63.25476613472972
 30
0.0
  0
VERTEX
  5
20E
  8
LAYER0
 10
-133.1163953810919
 20
-63.57553828113078
 30
0.0
  0
VERTEX
  5
20F
  8
LAYER0
 10
-133.1380315620308
 20
-63.59691283728853
 30
0.0
  0
SEQEND
  5
7B7
  8
LAYER0
  0
POLYLINE
  5
8A
  8
LAYER0
 66
     1
 10
0.0
 20
0.0
 30
0.0
 70
     1
  0
VERTEX
  5
210
  8
LAYER0
 10
-133.4871942405831
 20
-63.88104900985343
 30
0.0
  0
VERTEX
  5
211
  8
LAYER0
 10
-133.6341622406607
 20
-63.9728348460639
 30
0.0
  0
VERTEX
  5
212
  8
LAYER0
 10
-133.8816517570878
 20
-64.09796191478688
 30
0.0
  0
SEQEND
  5
7B8
  8
LAYER0
  0
POLYLINE
  5
8B
  8
LAYER0
 66
     1
 10
0.0
 20
0.0
 30
0.0
 70
     1
  0
VERTEX
  5
213
  8
LAYER0
 10
-133.8816517570878
 20
-64.09796191478688
 30
0.0
  0
VERTEX
  5
214
  8
LAYER0
 10
-134.2371145329245
 20
-64.22258595142489
 30
0.0
  0
VERTEX
  5
215
  8
LAYER0
 10
-134.3086143510014
 20
-64.24061843953103
 30
0.0
  0
SEQEND
  5
7B9
  8
LAYER0
  0
POLYLINE
  5
8C
  8
LAYER0
 66
     1
 10
0.0
 20
0.0
 30
0.0
 70
     1
  0
VERTEX
  5
216
  8
LAYER0
 10
-134.7542383278615
 20
-64.30439313593229
 30
0.0
  0
VERTEX
  5
217
  8
LAYER0
 10
-134.8841620642752
 20
-64.30777147571362
 30
0.0
  0
VERTEX
  5
218
  8
LAYER0
 10
-135.2040749226732
 20
-64.28721819424808
 30
0.0
  0
SEQEND
  5
7BA
  8
LAYER0
  0
POLYLINE
  5
8D
  8
LAYER0
 66
     1
 10
0.0
 20
0.0
 30
0.0
 70
     1
  0
VERTEX
  5
219
  8
LAYER0
 10
-135.2040749226732
 20
-64.28721819424808
 30
0.0
  0
VERTEX
  5
21A
  8
LAYER0
 10
-135.5312096240665
 20
-64.22258616745202
 30
0.0
  0
VERTEX
  5
21B
  8
LAYER0
 10
-135.6435387819054
 20
-64.18965048912847
 30
0.0
  0
SEQEND
  5
7BB
  8
LAYER0
  0
POLYLINE
  5
8E
  8
LAYER0
 66
     1
 10
0.0
 20
0.0
 30
0.0
 70
     1
  0
VERTEX
  5
21C
  8
LAYER0
 10
-136.0583808741878
 20
-64.01485352369596
 30
0.0
  0
VERTEX
  5
21D
  8
LAYER0
 10
-136.1341619997137
 20
-63.97283526339621
 30
0.0
  0
VERTEX
  5
21E
  8
LAYER0
 10
-136.4351504962088
 20
-63.76849485716318
 30
0.0
  0
SEQEND
  5
7BC
  8
LAYER0
  0
POLYLINE
  5
8F
  8
LAYER0
 66
     1
 10
0.0
 20
0.0
 30
0.0
 70
     1
  0
VERTEX
  5
21F
  8
LAYER0
 10
-136.4351504962088
 20
-63.76849485716318
 30
0.0
  0
VERTEX
  5
220
  8
LAYER0
 10
-136.6519289919261
 20
-63.57553887132767
 30
0.0
  0
VERTEX
  5
221
  8
LAYER0
 10
-136.7616313938878
 20
-63.45856234175969
 30
0.0
  0
SEQEND
  5
7BD
  8
LAYER0
  0
POLYLINE
  5
90
  8
LAYER0
 66
     1
 10
0.0
 20
0.0
 30
0.0
 70
     1
  0
VERTEX
  5
222
  8
LAYER0
 10
-137.0272378581724
 20
-63.0951051272435
 30
0.0
  0
VERTEX
  5
223
  8
LAYER0
 10
-137.0492256432916
 20
-63.05777207808083
 30
0.0
  0
VERTEX
  5
224
  8
LAYER0
 10
-137.2233579525808
 20
-62.68990783058072
 30
0.0
  0
SEQEND
  5
7BE
  8
LAYER0
  0
POLYLINE
  5
91
  8
LAYER0
 66
     1
 10
0.0
 20
0.0
 30
0.0
 70
     1
  0
VERTEX
  5
225
  8
LAYER0
 10
-137.2233579525808
 20
-62.68990783058072
 30
0.0
  0
VERTEX
  5
226
  8
LAYER0
 10
-137.2989768493052
 20
-62.45481982750866
 30
0.0
  0
VERTEX
  5
227
  8
LAYER0
 10
-137.3436327437926
 20
-62.25610843540747
 30
0.0
  0
SEQEND
  5
7BF
  8
LAYER0
  0
POLYLINE
  5
92
  8
LAYER0
 66
     1
 10
0.0
 20
0.0
 30
0.0
 70
     1
  0
VERTEX
  5
228
  8
LAYER0
 10
-137.3436327437926
 20
-62.25610843540747
 30
0.0
  0
VERTEX
  5
229
  8
LAYER0
 10
-137.3841650893108
 20
-61.80777231017865
 30
0.0
  0
VERTEX
  5
22A
  8
LAYER0
 10
-137.3841624816074
 20
-61.80777231037823
 30
0.0
  0
SEQEND
  5
7C0
  8
LAYER0
  0
POLYLINE
  5
93
  8
LAYER0
 66
     1
 10
0.0
 20
0.0
 30
0.0
 70
     1
  0
VERTEX
  5
22B
  8
LAYER0
 10
-147.4246949314122
 20
-62.25610794084943
 30
0.0
  0
VERTEX
  5
22C
  8
LAYER0
 10
-147.4693507766401
 20
-62.45481911382561
 30
0.0
  0
VERTEX
  5
22D
  8
LAYER0
 10
-147.5449695899707
 20
-62.68990685769879
 30
0.0
  0
SEQEND
  5
7C1
  8
LAYER0
  0
POLYLINE
  5
94
  8
LAYER0
 66
     1
 10
0.0
 20
0.0
 30
0.0
 70
     1
  0
VERTEX
  5
22E
  8
LAYER0
 10
-147.5449695899707
 20
-62.68990685769879
 30
0.0
  0
VERTEX
  5
22F
  8
LAYER0
 10
-147.7191017072087
 20
-63.05777069955084
 30
0.0
  0
VERTEX
  5
230
  8
LAYER0
 10
-147.7410894680985
 20
-63.09510370758053
 30
0.0
  0
SEQEND
  5
7C2
  8
LAYER0
  0
POLYLINE
  5
95
  8
LAYER0
 66
     1
 10
0.0
 20
0.0
 30
0.0
 70
     1
  0
VERTEX
  5
231
  8
LAYER0
 10
-148.0066956394874
 20
-63.45856052134408
 30
0.0
  0
VERTEX
  5
232
  8
LAYER0
 10
-148.1163979204397
 20
-63.57553692189512
 30
0.0
  0
VERTEX
  5
233
  8
LAYER0
 10
-148.3331761771517
 20
-63.76849269501653
 30
0.0
  0
SEQEND
  5
7C3
  8
LAYER0
  0
POLYLINE
  5
96
  8
LAYER0
 66
     1
 10
0.0
 20
0.0
 30
0.0
 70
     1
  0
VERTEX
  5
234
  8
LAYER0
 10
-148.3331761771517
 20
-63.76849269501653
 30
0.0
  0
VERTEX
  5
235
  8
LAYER0
 10
-148.6341643416862
 20
-63.97283287591168
 30
0.0
  0
VERTEX
  5
236
  8
LAYER0
 10
-148.7099453837117
 20
-64.01485108991946
 30
0.0
  0
SEQEND
  5
7C4
  8
LAYER0
  0
POLYLINE
  5
97
  8
LAYER0
 66
     1
 10
0.0
 20
0.0
 30
0.0
 70
     1
  0
VERTEX
  5
237
  8
LAYER0
 10
-149.1247870185567
 20
-64.1896478626301
 30
0.0
  0
VERTEX
  5
238
  8
LAYER0
 10
-149.2371160524465
 20
-64.2225835046186
 30
0.0
  0
VERTEX
  5
239
  8
LAYER0
 10
-149.5642503932063
 20
-64.28721546018451
 30
0.0
  0
SEQEND
  5
7C5
  8
LAYER0
  0
POLYLINE
  5
98
  8
LAYER0
 66
     1
 10
0.0
 20
0.0
 30
0.0
 70
     1
  0
VERTEX
  5
23A
  8
LAYER0
 10
-149.5642503932063
 20
-64.28721546018451
 30
0.0
  0
VERTEX
  5
23B
  8
LAYER0
 10
-149.8841628987407
 20
-64.30776871899891
 30
0.0
  0
VERTEX
  5
23C
  8
LAYER0
 10
-150.0140864920013
 20
-64.3043903829475
 30
0.0
  0
SEQEND
  5
7C6
  8
LAYER0
  0
POLYLINE
  5
99
  8
LAYER0
 66
     1
 10
0.0
 20
0.0
 30
0.0
 70
     1
  0
VERTEX
  5
23D
  8
LAYER0
 10
-150.4597099774924
 20
-64.24061575688225
 30
0.0
  0
VERTEX
  5
23E
  8
LAYER0
 10
-150.531209716608
 20
-64.22258328869461
 30
0.0
  0
VERTEX
  5
23F
  8
LAYER0
 10
-150.8866721006161
 20
-64.09795938945118
 30
0.0
  0
SEQEND
  5
7C7
  8
LAYER0
  0
POLYLINE
  5
9A
  8
LAYER0
 66
     1
 10
0.0
 20
0.0
 30
0.0
 70
     1
  0
VERTEX
  5
240
  8
LAYER0
 10
-150.8866721006161
 20
-64.09795938945118
 30
0.0
  0
VERTEX
  5
241
  8
LAYER0
 10
-151.1341613440248
 20
-63.97283245877853
 30
0.0
  0
VERTEX
  5
242
  8
LAYER0
 10
-151.2811291821736
 20
-63.88104672370744
 30
0.0
  0
SEQEND
  5
7C8
  8
LAYER0
  0
POLYLINE
  5
9B
  8
LAYER0
 66
     1
 10
0.0
 20
0.0
 30
0.0
 70
     1
  0
VERTEX
  5
243
  8
LAYER0
 10
-151.6302914757237
 20
-63.59691086445375
 30
0.0
  0
VERTEX
  5
244
  8
LAYER0
 10
-151.6519276326908
 20
-63.57553633197975
 30
0.0
  0
VERTEX
  5
245
  8
LAYER0
 10
-151.9228378581068
 20
-63.25476453916954
 30
0.0
  0
SEQEND
  5
7C9
  8
LAYER0
  0
POLYLINE
  5
9C
  8
LAYER0
 66
     1
 10
0.0
 20
0.0
 30
0.0
 70
     1
  0
VERTEX
  5
246
  8
LAYER0
 10
-151.9228378581068
 20
-63.25476453916954
 30
0.0
  0
VERTEX
  5
247
  8
LAYER0
 10
-152.0492236731396
 20
-63.05776997705502
 30
0.0
  0
VERTEX
  5
248
  8
LAYER0
 10
-152.149282901813
 20
-62.86570138757085
 30
0.0
  0
SEQEND
  5
7CA
  8
LAYER0
  0
POLYLINE
  5
9D
  8
LAYER0
 66
     1
 10
0.0
 20
0.0
 30
0.0
 70
     1
  0
VERTEX
  5
249
  8
LAYER0
 10
-152.149282901813
 20
-62.86570138757085
 30
0.0
  0
VERTEX
  5
24A
  8
LAYER0
 10
-152.2989744024991
 20
-62.4548183079863
 30
0.0
  0
VERTEX
  5
24B
  8
LAYER0
 10
-152.3022844273572
 20
-62.44233626509126
 30
0.0
  0
SEQEND
  5
7CB
  8
LAYER0
  0
POLYLINE
  5
9E
  8
LAYER0
 66
     1
 10
0.0
 20
0.0
 30
0.0
 70
     1
  0
VERTEX
  5
24C
  8
LAYER0
 10
-134.5251596236266
 20
-41.02561569113206
 30
0.0
  0
VERTEX
  5
24D
  8
LAYER0
 10
-224.5251596236268
 20
-41.02561569113202
 30
0.0
  0
VERTEX
  5
24E
  8
LAYER0
 10
-224.5251596236268
 20
-21.02561569113209
 30
0.0
  0
VERTEX
  5
24F
  8
LAYER0
 10
-154.5251596236268
 20
-21.02561569113209
 30
0.0
  0
VERTEX
  5
250
  8
LAYER0
 10
-154.5251596236267
 20
18.97438430886791
 30
0.0
  0
VERTEX
  5
251
  8
LAYER0
 10
-134.5251596236266
 20
18.97438430886791
 30
0.0
  0
SEQEND
  5
7CC
  8
LAYER0
  0
POLYLINE
  5
9F
  8
LAYER0
 66
     1
 10
0.0
 20
0.0
 30
0.0
 70
     1
  0
VERTEX
  5
252
  8
LAYER0
 10
-39.59552961159611
 20
94.40664274901812
 30
0.0
  0
VERTEX
  5
253
  8
LAYER0
 10
-51.59553008843326
 20
94.40664274901812
 30
0.0
  0
VERTEX
  5
254
  8
LAYER0
 10
-51.59553008843326
 20
103.0833141347832
 30
0.0
  0
VERTEX
  5
255
  8
LAYER0
 10
-50.17943101693058
 20
103.0833141347832
 30
0.0
  0
VERTEX
  5
256
  8
LAYER0
 10
-50.17943101693058
 20
95.9946374437279
 30
0.0
  0
VERTEX
  5
257
  8
LAYER0
 10
-46.50412457753086
 20
95.9946374437279
 30
0.0
  0
VERTEX
  5
258
  8
LAYER0
 10
-46.50412457753086
 20
102.6331095239587
 30
0.0
  0
VERTEX
  5
259
  8
LAYER0
 10
-45.09621160794163
 20
102.6331095239587
 30
0.0
  0
VERTEX
  5
25A
  8
LAYER0
 10
-45.09621160794163
 20
95.9946374437279
 30
0.0
  0
VERTEX
  5
25B
  8
LAYER0
 10
-41.0116274910059
 20
95.9946374437279
 30
0.0
  0
VERTEX
  5
25C
  8
LAYER0
 10
-41.0116274910059
 20
103.3616225263542
 30
0.0
  0
VERTEX
  5
25D
  8
LAYER0
 10
-39.59552961159611
 20
103.3616225263542
 30
0.0
  0
SEQEND
  5
7CD
  8
LAYER0
  0
POLYLINE
  5
A0
  8
LAYER0
 66
     1
 10
0.0
 20
0.0
 30
0.0
 70
     1
  0
VERTEX
  5
25E
  8
LAYER0
 10
131.5471620754985
 20
76.36495743442185
 30
0.0
  0
VERTEX
  5
25F
  8
LAYER0
 10
131.661759753683
 20
74.84244738269456
 30
0.0
  0
VERTEX
  5
260
  8
LAYER0
 10
131.1732559444421
 20
74.75097248141196
 30
0.0
  0
VERTEX
  5
261
  8
LAYER0
 10
130.7154806464627
 20
74.5981816585296
 30
0.0
  0
VERTEX
  5
262
  8
LAYER0
 10
130.3117842424298
 20
74.3374813702901
 30
0.0
  0
VERTEX
  5
263
  8
LAYER0
 10
129.9427969651011
 20
74.00752220798142
 30
0.0
  0
VERTEX
  5
264
  8
LAYER0
 10
129.6701315543856
 20
73.52383355267091
 30
0.0
  0
VERTEX
  5
265
  8
LAYER0
 10
129.4732085634743
 20
73.01746507645521
 30
0.0
  0
VERTEX
  5
266
  8
LAYER0
 10
129.387056004436
 20
72.47792821767439
 30
0.0
  0
VERTEX
  5
267
  8
LAYER0
 10
129.3616230683116
 20
71.92020986724503
 30
0.0
  0
VERTEX
  5
268
  8
LAYER0
 10
129.3800130905695
 20
71.36244778446587
 30
0.0
  0
VERTEX
  5
269
  8
LAYER0
 10
129.4555218236482
 20
70.82055254370073
 30
0.0
  0
VERTEX
  5
26A
  8
LAYER0
 10
129.6369968916607
 20
70.30809338563131
 30
0.0
  0
VERTEX
  5
26B
  8
LAYER0
 10
129.8936827378062
 20
69.81652681279786
 30
0.0
  0
VERTEX
  5
26C
  8
LAYER0
 10
130.1583122479507
 20
69.54888627672244
 30
0.0
  0
VERTEX
  5
26D
  8
LAYER0
 10
130.450922422839
 20
69.33657323872399
 30
0.0
  0
VERTEX
  5
26E
  8
LAYER0
 10
130.6156900733912
 20
69.26692362312451
 30
0.0
  0
VERTEX
  5
26F
  8
LAYER0
 10
130.7916955591846
 20
69.21949511318462
 30
0.0
  0
VERTEX
  5
270
  8
LAYER0
 10
131.1624415116099
 20
69.1616836612285
 30
0.0
  0
VERTEX
  5
271
  8
LAYER0
 10
131.4643962030632
 20
69.1968522965027
 30
0.0
  0
VERTEX
  5
272
  8
LAYER0
 10
131.7468858929294
 20
69.27616667288373
 30
0.0
  0
VERTEX
  5
273
  8
LAYER0
 10
131.9966379985308
 20
69.4297284061389
 30
0.0
  0
VERTEX
  5
274
  8
LAYER0
 10
132.2265620426921
 20
69.62825928378709
 30
0.0
  0
VERTEX
  5
275
  8
LAYER0
 10
132.5289918400859
 20
70.19157068390189
 30
0.0
  0
VERTEX
  5
276
  8
LAYER0
 10
132.7724176923509
 20
70.77795069843887
 30
0.0
  0
VERTEX
  5
277
  8
LAYER0
 10
132.9468592232814
 20
71.39130132835737
 30
0.0
  0
VERTEX
  5
278
  8
LAYER0
 10
133.0860431389598
 20
72.01843653369554
 30
0.0
  0
VERTEX
  5
279
  8
LAYER0
 10
133.2385535826122
 20
72.69472234806767
 30
0.0
  0
VERTEX
  5
27A
  8
LAYER0
 10
133.4091428944875
 20
73.36564679570267
 30
0.0
  0
VERTEX
  5
27B
  8
LAYER0
 10
133.6144913798485
 20
74.02626325977167
 30
0.0
  0
VERTEX
  5
27C
  8
LAYER0
 10
133.8472987608699
 20
74.67873666930802
 30
0.0
  0
VERTEX
  5
27D
  8
LAYER0
 10
134.0823019711239
 20
75.12369686317174
 30
0.0
  0
VERTEX
  5
27E
  8
LAYER0
 10
134.3548058539337
 20
75.53832812277142
 30
0.0
  0
VERTEX
  5
27F
  8
LAYER0
 10
134.6935716611755
 20
75.8993695821531
 30
0.0
  0
VERTEX
  5
280
  8
LAYER0
 10
135.0751288132457
 20
76.22580323863633
 30
0.0
  0
VERTEX
  5
281
  8
LAYER0
 10
135.4740112702448
 20
76.440779376303
 30
0.0
  0
VERTEX
  5
282
  8
LAYER0
 10
135.8877312918791
 20
76.6057827263669
 30
0.0
  0
VERTEX
  5
283
  8
LAYER0
 10
136.3256247461808
 20
76.68937016714631
 30
0.0
  0
VERTEX
  5
284
  8
LAYER0
 10
136.77772118614
 20
76.72512207675584
 30
0.0
  0
VERTEX
  5
285
  8
LAYER0
 10
137.2576008948371
 20
76.67986790068153
 30
0.0
  0
VERTEX
  5
286
  8
LAYER0
 10
137.7222450612616
 20
76.58396172873631
 30
0.0
  0
VERTEX
  5
287
  8
LAYER0
 10
138.1618805890611
 20
76.40491198121731
 30
0.0
  0
VERTEX
  5
288
  8
LAYER0
 10
138.5867257313517
 20
76.1766902034343
 30
0.0
  0
VERTEX
  5
289
  8
LAYER0
 10
138.9948099463036
 20
75.84793869552186
 30
0.0
  0
VERTEX
  5
28A
  8
LAYER0
 10
139.3589738619804
 20
75.48220300166167
 30
0.0
  0
VERTEX
  5
28B
  8
LAYER0
 10
139.6523809001682
 20
75.05688471029373
 30
0.0
  0
VERTEX
  5
28C
  8
LAYER0
 10
139.9045975403575
 20
74.59688101459153
 30
0.0
  0
VERTEX
  5
28D
  8
LAYER0
 10
140.107863916263
 20
74.03764618592083
 30
0.0
  0
VERTEX
  5
28E
  8
LAYER0
 10
140.2626499566965
 20
73.46842365747887
 30
0.0
  0
VERTEX
  5
28F
  8
LAYER0
 10
140.3395381838752
 20
72.88315297334555
 30
0.0
  0
VERTEX
  5
290
  8
LAYER0
 10
140.3711731629161
 20
72.28855941939958
 30
0.0
  0
VERTEX
  5
291
  8
LAYER0
 10
140.3452592571861
 20
71.58820584204648
 30
0.0
  0
VERTEX
  5
292
  8
LAYER0
 10
140.2713434434256
 20
70.8965760948181
 30
0.0
  0
VERTEX
  5
293
  8
LAYER0
 10
140.1118838020224
 20
70.22049301752827
 30
0.0
  0
VERTEX
  5
294
  8
LAYER0
 10
139.8964126305369
 20
69.55458943296082
 30
0.0
  0
VERTEX
  5
295
  8
LAYER0
 10
139.6278480679098
 20
69.05036443816789
 30
0.0
  0
VERTEX
  5
296
  8
LAYER0
 10
139.3119853544314
 20
68.58529282409825
 30
0.0
  0
VERTEX
  5
297
  8
LAYER0
 10
138.9163122778127
 20
68.18628818045886
 30
0.0
  0
VERTEX
  5
298
  8
LAYER0
 10
138.4721286492137
 20
67.82744054246552
 30
0.0
  0
VERTEX
  5
299
  8
LAYER0
 10
137.9638779492332
 20
67.55888609218925
 30
0.0
  0
VERTEX
  5
29A
  8
LAYER0
 10
137.4379958154847
 20
67.34810755349099
 30
0.0
  0
VERTEX
  5
29B
  8
LAYER0
 10
136.8831444548614
 20
67.23225739738598
 30
0.0
  0
VERTEX
  5
29C
  8
LAYER0
 10
136.3111455635814
 20
67.17259746540196
 30
0.0
  0
VERTEX
  5
29D
  8
LAYER0
 10
136.1801774697093
 20
68.67055107403405
 30
0.0
  0
VERTEX
  5
29E
  8
LAYER0
 10
136.5704770260616
 20
68.73485957961248
 30
0.0
  0
VERTEX
  5
29F
  8
LAYER0
 10
136.9504155421086
 20
68.82960743960871
 30
0.0
  0
VERTEX
  5
2A0
  8
LAYER0
 10
137.3120208585759
 20
68.97821579461072
 30
0.0
  0
VERTEX
  5
2A1
  8
LAYER0
 10
137.661760588148
 20
69.1616836612285
 30
0.0
  0
VERTEX
  5
2A2
  8
LAYER0
 10
137.9542400199895
 20
69.41806646751695
 30
0.0
  0
VERTEX
  5
2A3
  8
LAYER0
 10
138.2127602527231
 20
69.70111681511924
 30
0.0
  0
VERTEX
  5
2A4
  8
LAYER0
 10
138.4187095675488
 20
70.0254501482467
 30
0.0
  0
VERTEX
  5
2A5
  8
LAYER0
 10
138.5949118332652
 20
70.37314329791673
 30
0.0
  0
VERTEX
  5
2A6
  8
LAYER0
 10
138.7484156766023
 20
70.8208120830244
 30
0.0
  0
VERTEX
  5
2A7
  8
LAYER0
 10
138.8652240748364
 20
71.27563275732552
 30
0.0
  0
VERTEX
  5
2A8
  8
LAYER0
 10
138.9231447003349
 20
71.74193057338869
 30
0.0
  0
VERTEX
  5
2A9
  8
LAYER0
 10
138.9468891815928
 20
72.2148892705502
 30
0.0
  0
VERTEX
  5
2AA
  8
LAYER0
 10
138.9298704404903
 20
72.62472821033407
 30
0.0
  0
VERTEX
  5
2AB
  8
LAYER0
 10
138.8862481942118
 20
73.02996002133386
 30
0.0
  0
VERTEX
  5
2AC
  8
LAYER0
 10
138.7962130552345
 20
73.42715416314343
 30
0.0
  0
VERTEX
  5
2AD
  8
LAYER0
 10
138.6767668919352
 20
73.81925497699388
 30
0.0
  0
VERTEX
  5
2AE
  8
LAYER0
 10
138.5431105525838
 20
74.11396097676584
 30
0.0
  0
VERTEX
  5
2AF
  8
LAYER0
 10
138.3831738914859
 20
74.3894910393409
 30
0.0
  0
VERTEX
  5
2B0
  8
LAYER0
 10
138.1766998640609
 20
74.63106422640215
 30
0.0
  0
VERTEX
  5
2B1
  8
LAYER0
 10
137.9400689797191
 20
74.85063288856156
 30
0.0
  0
VERTEX
  5
2B2
  8
LAYER0
 10
137.7011598317825
 20
74.99381725287117
 30
0.0
  0
VERTEX
  5
2B3
  8
LAYER0
 10
137.4520250429932
 20
75.10609258207467
 30
0.0
  0
VERTEX
  5
2B4
  8
LAYER0
 10
137.1856148939023
 20
75.16614969574255
 30
0.0
  0
VERTEX
  5
2B5
  8
LAYER0
 10
136.9086904721049
 20
75.19442532706864
 30
0.0
  0
VERTEX
  5
2B6
  8
LAYER0
 10
136.643624236702
 20
75.17050362247971
 30
0.0
  0
VERTEX
  5
2B7
  8
LAYER0
 10
136.3890656864561
 20
75.11536430684896
 30
0.0
  0
VERTEX
  5
2B8
  8
LAYER0
 10
136.1523105049215
 20
75.00733240532907
 30
0.0
  0
VERTEX
  5
2B9
  8
LAYER0
 10
135.9264261917857
 20
74.86700390029557
 30
0.0
  0
VERTEX
  5
2BA
  8
LAYER0
 10
135.6966219084233
 20
74.63208757457278
 30
0.0
  0
VERTEX
  5
2BB
  8
LAYER0
 10
135.4974560015027
 20
74.37633500055983
 30
0.0
  0
VERTEX
  5
2BC
  8
LAYER0
 10
135.3434460848866
 20
74.08987318098548
 30
0.0
  0
VERTEX
  5
2BD
  8
LAYER0
 10
135.2142842011241
 20
73.78651295352586
 30
0.0
  0
VERTEX
  5
2BE
  8
LAYER0
 10
135.0481698240152
 20
73.2582301245991
 30
0.0
  0
VERTEX
  5
2BF
  8
LAYER0
 10
134.8960343707697
 20
72.72603735204609
 30
0.0
  0
VERTEX
  5
2C0
  8
LAYER0
 10
134.7603601406436
 20
72.18924032990651
 30
0.0
  0
VERTEX
  5
2C1
  8
LAYER0
 10
134.6331103043345
 20
71.650086981541
 30
0.0
  0
VERTEX
  5
2C2
  8
LAYER0
 10
134.4863204271749
 20
71.05697690622424
 30
0.0
  0
VERTEX
  5
2C3
  8
LAYER0
 10
134.3194827854729
 20
70.47062552870216
 30
0.0
  0
VERTEX
  5
2C4
  8
LAYER0
 10
134.1144195446667
 20
69.89716113774739
 30
0.0
  0
VERTEX
  5
2C5
  8
LAYER0
 10
133.8800407843379
 20
69.33357988048203
 30
0.0
  0
VERTEX
  5
2C6
  8
LAYER0
 10
133.6584734645419
 20
68.96243092982456
 30
0.0
  0
VERTEX
  5
2C7
  8
LAYER0
 10
133.4071057956464
 20
68.61747181290161
 30
0.0
  0
VERTEX
  5
2C8
  8
LAYER0
 10
133.1035681545932
 20
68.3183619205023
 30
0.0
  0
VERTEX
  5
2C9
  8
LAYER0
 10
132.7668072180537
 20
68.04845009494431
 30
0.0
  0
VERTEX
  5
2CA
  8
LAYER0
 10
132.4129947272788
 20
67.87037863562841
 30
0.0
  0
VERTEX
  5
2CB
  8
LAYER0
 10
132.0478055339759
 20
67.73286308056356
 30
0.0
  0
VERTEX
  5
2CC
  8
LAYER0
 10
131.6638842647678
 20
67.66212401675102
 30
0.0
  0
VERTEX
  5
2CD
  8
LAYER0
 10
131.2688536839274
 20
67.63098765659936
 30
0.0
  0
VERTEX
  5
2CE
  8
LAYER0
 10
130.8188248184928
 20
67.67265519383864
 30
0.0
  0
VERTEX
  5
2CF
  8
LAYER0
 10
130.3833064948582
 20
67.76223201833261
 30
0.0
  0
VERTEX
  5
2D0
  8
LAYER0
 10
129.9717514668022
 20
67.93092817739455
 30
0.0
  0
VERTEX
  5
2D1
  8
LAYER0
 10
129.5744474129466
 20
68.1466766123832
 30
0.0
  0
VERTEX
  5
2D2
  8
LAYER0
 10
129.193001234446
 20
68.45811601859441
 30
0.0
  0
VERTEX
  5
2D3
  8
LAYER0
 10
128.8566336195418
 20
68.80595004006568
 30
0.0
  0
VERTEX
  5
2D4
  8
LAYER0
 10
128.5928073484709
 20
69.21235101861453
 30
0.0
  0
VERTEX
  5
2D5
  8
LAYER0
 10
128.3711726860789
 20
69.6528158013881
 30
0.0
  0
VERTEX
  5
2D6
  8
LAYER0
 10
128.1933664529128
 20
70.18901867361217
 30
0.0
  0
VERTEX
  5
2D7
  8
LAYER0
 10
128.0577126942488
 20
70.73319258974504
 30
0.0
  0
VERTEX
  5
2D8
  8
LAYER0
 10
127.9900140281857
 20
71.29021683159044
 30
0.0
  0
VERTEX
  5
2D9
  8
LAYER0
 10
127.9618962006358
 20
71.854725820309
 30
0.0
  0
VERTEX
  5
2DA
  8
LAYER0
 10
127.9894369023123
 20
72.45739602548065
 30
0.0
  0
VERTEX
  5
2DB
  8
LAYER0
 10
128.0596399355372
 20
73.05196913316286
 30
0.0
  0
VERTEX
  5
2DC
  8
LAYER0
 10
128.2041760121022
 20
73.6324342004084
 30
0.0
  0
VERTEX
  5
2DD
  8
LAYER0
 10
128.3957297997264
 20
74.20397554088242
 30
0.0
  0
VERTEX
  5
2DE
  8
LAYER0
 10
128.6290861047781
 20
74.66305324164773
 30
0.0
  0
VERTEX
  5
2DF
  8
LAYER0
 10
128.9061841198289
 20
75.08674049917465
 30
0.0
  0
VERTEX
  5
2E0
  8
LAYER0
 10
129.2581270830762
 20
75.44987237624491
 30
0.0
  0
VERTEX
  5
2E1
  8
LAYER0
 10
129.6563024716166
 20
75.77559862781175
 30
0.0
  0
VERTEX
  5
2E2
  8
LAYER0
 10
130.10056671081
 20
76.01355867933648
 30
0.0
  0
VERTEX
  5
2E3
  8
LAYER0
 10
130.5605201233164
 20
76.20154596094926
 30
0.0
  0
VERTEX
  5
2E4
  8
LAYER0
 10
131.0462261050916
 20
76.30750679075106
 30
0.0
  0
SEQEND
  5
7CE
  8
LAYER0
  0
POLYLINE
  5
A1
  8
LAYER0
 66
     1
 10
0.0
 20
0.0
 30
0.0
 70
     1
  0
VERTEX
  5
2E5
  8
LAYER0
 10
101.4354720719133
 20
-104.9647029648083
 30
0.0
  0
VERTEX
  5
2E6
  8
LAYER0
 10
113.4118422178536
 20
-108.3402812705684
 30
0.0
  0
VERTEX
  5
2E7
  8
LAYER0
 10
113.4009902802511
 20
-109.8709389560817
 30
0.0
  0
VERTEX
  5
2E8
  8
LAYER0
 10
104.2400412457162
 20
-112.335385385617
 30
0.0
 42
-0.0057549973167697
  0
VERTEX
  5
2E9
  8
LAYER0
 10
103.183386778977
 20
-112.6151840807974
 30
0.0
  0
VERTEX
  5
2EA
  8
LAYER0
 10
102.8294947927759
 20
-112.7019295242848
 30
0.0
  0
VERTEX
  5
2EB
  8
LAYER0
 10
103.1823526811221
 20
-112.7865697582129
 30
0.0
 42
-0.0097787728335482
  0
VERTEX
  5
2EC
  8
LAYER0
 10
104.2348764207927
 20
-113.063880079656
 30
0.0
  0
VERTEX
  5
2ED
  8
LAYER0
 10
113.359845779599
 20
-115.6743400118943
 30
0.0
  0
VERTEX
  5
2EE
  8
LAYER0
 10
113.34835549546
 20
-117.2950359991233
 30
0.0
  0
VERTEX
  5
2EF
  8
LAYER0
 10
101.3260822460519
 20
-120.3940561186115
 30
0.0
  0
VERTEX
  5
2F0
  8
LAYER0
 10
101.3376305622223
 20
-118.7651747567226
 30
0.0
  0
VERTEX
  5
2F1
  8
LAYER0
 10
109.2166766798414
 20
-116.9956138701942
 30
0.0
  0
VERTEX
  5
2F2
  8
LAYER0
 10
109.8289006832425
 20
-116.8601622349992
 30
0.0
  0
VERTEX
  5
2F3
  8
LAYER0
 10
110.4425230166937
 20
-116.7317309860372
 30
0.0
  0
VERTEX
  5
2F4
  8
LAYER0
 10
111.0584909084513
 20
-116.6150757303341
 30
0.0
  0
VERTEX
  5
2F5
  8
LAYER0
 10
111.6758754231954
 20
-116.5055327014707
 30
0.0
 42
-0.0029394950654801
  0
VERTEX
  5
2F6
  8
LAYER0
 10
110.0140477370033
 20
-116.0926401562024
 30
0.0
  0
VERTEX
  5
2F7
  8
LAYER0
 10
109.4614802344632
 20
-115.9495742042826
 30
0.0
  0
VERTEX
  5
2F8
  8
LAYER0
 10
101.374190555097
 20
-113.6084150953733
 30
0.0
  0
VERTEX
  5
2F9
  8
LAYER0
 10
101.3877699818067
 20
-111.6930471104665
 30
0.0
  0
VERTEX
  5
2FA
  8
LAYER0
 10
107.4734743972654
 20
-110.0171864782729
 30
0.0
  0
VERTEX
  5
2FB
  8
LAYER0
 10
108.5268530531605
 20
-109.7424783547808
 30
0.0
  0
VERTEX
  5
2FC
  8
LAYER0
 10
109.5857090721312
 20
-109.4937479271102
 30
0.0
  0
VERTEX
  5
2FD
  8
LAYER0
 10
110.6540320811942
 20
-109.289916949334
 30
0.0
  0
VERTEX
  5
2FE
  8
LAYER0
 10
111.7282780798605
 20
-109.1141771570685
 30
0.0
  0
VERTEX
  5
2FF
  8
LAYER0
 10
111.0741081170507
 20
-108.9705633823075
 30
0.0
  0
VERTEX
  5
300
  8
LAYER0
 10
110.421343317391
 20
-108.820983115047
 30
0.0
  0
VERTEX
  5
301
  8
LAYER0
 10
109.7707528321492
 20
-108.6621704460779
 30
0.0
  0
VERTEX
  5
302
  8
LAYER0
 10
109.1213923263773
 20
-108.4981351356795
 30
0.0
  0
VERTEX
  5
303
  8
LAYER0
 10
101.4241558822842
 20
-106.5608430515694
 30
0.0
  0
SEQEND
  5
7CF
  8
LAYER0
  0
POLYLINE
  5
A2
  8
LAYER0
 66
     1
 10
0.0
 20
0.0
 30
0.0
 70
     1
  0
VERTEX
  5
304
  8
LAYER0
 10
-67.63384954694395
 20
-84.79473728918015
 30
0.0
  0
VERTEX
  5
305
  8
LAYER0
 10
-79.63365611341239
 20
-84.8629561387275
 30
0.0
  0
VERTEX
  5
306
  8
LAYER0
 10
-79.64291638141584
 20
-83.23405993873911
 30
0.0
  0
VERTEX
  5
307
  8
LAYER0
 10
-70.25734380954118
 20
-76.87773659596917
 30
0.0
  0
VERTEX
  5
308
  8
LAYER0
 10
-79.6787475607053
 20
-76.93129723642323
 30
0.0
  0
VERTEX
  5
309
  8
LAYER0
 10
-79.68740288742926
 20
-75.4088111911986
 30
0.0
  0
VERTEX
  5
30A
  8
LAYER0
 10
-67.68759632096082
 20
-75.3405923416513
 30
0.0
  0
VERTEX
  5
30B
  8
LAYER0
 10
-67.67833605465161
 20
-76.96948824362141
 30
0.0
  0
VERTEX
  5
30C
  8
LAYER0
 10
-77.07209340069674
 20
-83.32585871285386
 30
0.0
  0
VERTEX
  5
30D
  8
LAYER0
 10
-67.64250487197368
 20
-83.27225154197401
 30
0.0
  0
SEQEND
  5
7D0
  8
LAYER0
  0
POLYLINE
  5
A3
  8
LAYER0
 66
     1
 10
0.0
 20
0.0
 30
0.0
 70
     1
  0
VERTEX
  5
30E
  8
LAYER0
 10
-50.10063849451069
 20
116.6922285242858
 30
0.0
 42
-0.4142135623730951
  0
VERTEX
  5
30F
  8
LAYER0
 10
-52.60063849450921
 20
119.1922285242842
 30
0.0
 42
-0.4142135623730951
  0
VERTEX
  5
310
  8
LAYER0
 10
-50.10063849451069
 20
121.6922285242827
 30
0.0
 42
-0.4142135623730951
  0
VERTEX
  5
311
  8
LAYER0
 10
-47.60063849451228
 20
119.1922285242842
 30
0.0
 42
-0.4142135623730951
  0
SEQEND
  5
7D1
  8
LAYER0
  0
POLYLINE
  5
A4
  8
LAYER0
 66
     1
 10
0.0
 20
0.0
 30
0.0
 70
     1
  0
VERTEX
  5
312
  8
LAYER0
 10
49.89936150549005
 20
-128.3077714757163
 30
0.0
 42
-0.4142135623730951
  0
VERTEX
  5
313
  8
LAYER0
 10
52.39936150548903
 20
-130.8077714757152
 30
0.0
 42
-0.4142135623730951
  0
VERTEX
  5
314
  8
LAYER0
 10
49.89936150549005
 20
-133.3077714757142
 30
0.0
 42
-0.4142135623730951
  0
VERTEX
  5
315
  8
LAYER0
 10
47.39936150549113
 20
-130.8077714757152
 30
0.0
 42
-0.4142135623730951
  0
SEQEND
  5
7D2
  8
LAYER0
  0
POLYLINE
  5
A5
  8
LAYER0
 66
     1
 10
0.0
 20
0.0
 30
0.0
 70
     1
  0
VERTEX
  5
316
  8
LAYER0
 10
-47.60063849447761
 20
-130.8077714756889
 30
0.0
 42
-0.4142135623730951
  0
VERTEX
  5
317
  8
LAYER0
 10
-50.10063849450285
 20
-133.3077714757142
 30
0.0
 42
-0.4142135623730951
  0
VERTEX
  5
318
  8
LAYER0
 10
-52.60063849452808
 20
-130.8077714756889
 30
0.0
 42
-0.4142135623730951
  0
VERTEX
  5
319
  8
LAYER0
 10
-50.10063849450285
 20
-128.3077714756637
 30
0.0
 42
-0.4142135623730951
  0
SEQEND
  5
7D3
  8
LAYER0
  0
POLYLINE
  5
A6
  8
LAYER0
 66
     1
 10
0.0
 20
0.0
 30
0.0
 70
     1
  0
VERTEX
  5
31A
  8
LAYER0
 10
47.39936150548982
 20
119.192228524286
 30
0.0
 42
-0.4142135623730951
  0
VERTEX
  5
31B
  8
LAYER0
 10
49.89936150549005
 20
121.6922285242862
 30
0.0
 42
-0.4142135623730951
  0
VERTEX
  5
31C
  8
LAYER0
 10
52.39936150549033
 20
119.192228524286
 30
0.0
 42
-0.4142135623730951
  0
VERTEX
  5
31D
  8
LAYER0
 10
49.89936150549005
 20
116.6922285242858
 30
0.0
 42
-0.4142135623730951
  0
SEQEND
  5
7D4
  8
LAYER0
  0
POLYLINE
  5
A7
  8
LAYER0
 66
     1
 10
0.0
 20
0.0
 30
0.0
 70
     1
  0
VERTEX
  5
31E
  8
LAYER0
 10
-102.3523680343056
 20
44.19222852428624
 30
0.0
 42
-0.4142135623730951
  0
VERTEX
  5
31F
  8
LAYER0
 10
-104.8523680343057
 20
41.69222852428612
 30
0.0
 42
-0.4142135623730951
  0
VERTEX
  5
320
  8
LAYER0
 10
-107.3523680343057
 20
44.19222852428624
 30
0.0
 42
-0.4142135623730951
  0
VERTEX
  5
321
  8
LAYER0
 10
-104.8523680343057
 20
46.69222852428624
 30
0.0
 42
-0.4142135623730951
  0
SEQEND
  5
7D5
  8
LAYER0
  0
POLYLINE
  5
A8
  8
LAYER0
 66
     1
 10
0.0
 20
0.0
 30
0.0
 70
     1
  0
VERTEX
  5
322
  8
LAYER0
 10
160.803987989566
 20
-133.5995563252768
 30
0.0
 42
-0.4142135623730951
  0
VERTEX
  5
323
  8
LAYER0
 10
158.3039879895915
 20
-131.0995563253021
 30
0.0
 42
-0.4142135623730951
  0
VERTEX
  5
324
  8
LAYER0
 10
160.803987989566
 20
-128.5995563253275
 30
0.0
 42
-0.4142135623730951
  0
VERTEX
  5
325
  8
LAYER0
 10
163.3039879895407
 20
-131.0995563253021
 30
0.0
 42
-0.4142135623730951
  0
SEQEND
  5
7D6
  8
LAYER0
  0
POLYLINE
  5
A9
  8
LAYER0
 66
     1
 10
0.0
 20
0.0
 30
0.0
 70
     1
  0
VERTEX
  5
326
  8
LAYER0
 10
-104.8523680342866
 20
-58.30777147571379
 30
0.0
 42
-0.4142135623730951
  0
VERTEX
  5
327
  8
LAYER0
 10
-107.3523680343305
 20
-55.80777147566997
 30
0.0
 42
-0.4142135623730951
  0
VERTEX
  5
328
  8
LAYER0
 10
-104.8523680342866
 20
-53.30777147562614
 30
0.0
 42
-0.4142135623730951
  0
VERTEX
  5
329
  8
LAYER0
 10
-102.3523680342429
 20
-55.80777147566997
 30
0.0
 42
-0.4142135623730951
  0
SEQEND
  5
7D7
  8
LAYER0
  0
POLYLINE
  5
AA
  8
LAYER0
 66
     1
 10
0.0
 20
0.0
 30
0.0
 70
     1
  0
VERTEX
  5
32A
  8
LAYER0
 10
163.3039879895618
 20
118.9004436747269
 30
0.0
 42
-0.4142135623730951
  0
VERTEX
  5
32B
  8
LAYER0
 10
160.803987989558
 20
116.4004436747232
 30
0.0
 42
-0.4142135623730951
  0
VERTEX
  5
32C
  8
LAYER0
 10
158.3039879895544
 20
118.9004436747269
 30
0.0
 42
-0.4142135623730951
  0
VERTEX
  5
32D
  8
LAYER0
 10
160.803987989558
 20
121.4004436747305
 30
0.0
 42
-0.4142135623730951
  0
SEQEND
  5
7D8
  8
LAYER0
  0
POLYLINE
  5
AB
  8
LAYER0
 66
     1
 10
0.0
 20
0.0
 30
0.0
 70
     1
  0
VERTEX
  5
32E
  8
LAYER0
 10
167.0165160894678
 20
27.96161042171099
 30
0.0
 42
-0.4142135623730951
  0
VERTEX
  5
32F
  8
LAYER0
 10
164.5165160894353
 20
30.46161042174339
 30
0.0
 42
-0.4142135623730951
  0
VERTEX
  5
330
  8
LAYER0
 10
167.0165160894678
 20
32.9616104217759
 30
0.0
 42
-0.4142135623730951
  0
VERTEX
  5
331
  8
LAYER0
 10
169.5165160895003
 20
30.46161042174339
 30
0.0
 42
-0.4142135623730951
  0
SEQEND
  5
7D9
  8
LAYER0
  0
POLYLINE
  5
AC
  8
LAYER0
 66
     1
 10
0.0
 20
0.0
 30
0.0
 70
     1
  0
VERTEX
  5
332
  8
LAYER0
 10
169.5165160894718
 20
-40.461663777463
 30
0.0
 42
-0.4142135623730951
  0
VERTEX
  5
333
  8
LAYER0
 10
167.0165160894912
 20
-42.9616637774435
 30
0.0
 42
-0.4142135623730951
  0
VERTEX
  5
334
  8
LAYER0
 10
164.5165160895108
 20
-40.461663777463
 30
0.0
 42
-0.4142135623730951
  0
VERTEX
  5
335
  8
LAYER0
 10
167.0165160894912
 20
-37.9616637774825
 30
0.0
 42
-0.4142135623730951
  0
SEQEND
  5
7DA
  8
LAYER0
  0
POLYLINE
  5
AD
  8
LAYER0
 66
     1
 10
0.0
 20
0.0
 30
0.0
 70
     1
  0
VERTEX
  5
336
  8
LAYER0
 10
-103.1390259487977
 20
115.522997019172
 30
0.0
 42
-0.4142135623730951
  0
VERTEX
  5
337
  8
LAYER0
 10
-105.6390259487995
 20
118.0229970191739
 30
0.0
 42
-0.4142135623730951
  0
VERTEX
  5
338
  8
LAYER0
 10
-103.1390259487977
 20
120.5229970191757
 30
0.0
 42
-0.4142135623730951
  0
VERTEX
  5
339
  8
LAYER0
 10
-100.6390259487958
 20
118.0229970191739
 30
0.0
 42
-0.4142135623730951
  0
SEQEND
  5
7DB
  8
LAYER0
  0
POLYLINE
  5
AE
  8
LAYER0
 66
     1
 10
0.0
 20
0.0
 30
0.0
 70
     1
  0
VERTEX
  5
33A
  8
LAYER0
 10
-94.28280013713197
 20
-103.1136791256885
 30
0.0
 42
-0.4142135623730951
  0
VERTEX
  5
33B
  8
LAYER0
 10
-96.7828001371804
 20
-100.6136791256401
 30
0.0
 42
-0.4142135623730951
  0
VERTEX
  5
33C
  8
LAYER0
 10
-94.28280013713197
 20
-98.11367912559174
 30
0.0
 42
-0.4142135623730951
  0
VERTEX
  5
33D
  8
LAYER0
 10
-91.78280013708368
 20
-100.6136791256401
 30
0.0
 42
-0.4142135623730951
  0
SEQEND
  5
7DC
  8
LAYER0
  0
POLYLINE
  5
AF
  8
LAYER0
 66
     1
 10
0.0
 20
0.0
 30
0.0
 70
     1
  0
VERTEX
  5
33E
  8
LAYER0
 10
-94.28299999999999
 20
-128.308
 30
0.0
 42
0.4142135623730951
  0
VERTEX
  5
33F
  8
LAYER0
 10
-96.78299999999999
 20
-130.808
 30
0.0
 42
0.4142135623730951
  0
VERTEX
  5
340
  8
LAYER0
 10
-94.28299999999999
 20
-133.308
 30
0.0
 42
0.4142135623730951
  0
VERTEX
  5
341
  8
LAYER0
 10
-91.78299999999999
 20
-130.808
 30
0.0
 42
0.4142135623730951
  0
SEQEND
  5
7DD
  8
LAYER0
  0
POLYLINE
  5
B0
  8
LAYER0
 66
     1
 10
0.0
 20
0.0
 30
0.0
 70
     1
  0
VERTEX
  5
342
  8
LAYER0
 10
-154.525
 20
-18.52600000000001
 30
0.0
 42
0.4142135623730951
  0
VERTEX
  5
343
  8
LAYER0
 10
-157.025
 20
-21.02600000000001
 30
0.0
 42
0.4142135623730951
  0
VERTEX
  5
344
  8
LAYER0
 10
-154.525
 20
-23.52600000000001
 30
0.0
 42
0.4142135623730951
  0
VERTEX
  5
345
  8
LAYER0
 10
-152.025
 20
-21.02600000000001
 30
0.0
 42
0.4142135623730951
  0
SEQEND
  5
7DE
  8
LAYER0
  0
POLYLINE
  5
B1
  8
LAYER0
 66
     1
 10
0.0
 20
0.0
 30
0.0
 70
     1
  0
VERTEX
  5
346
  8
LAYER0
 10
18.21543242457295
 20
-82.30718588210759
 30
0.0
  0
VERTEX
  5
347
  8
LAYER0
 10
81.25084277513184
 20
-58.12682456249081
 30
0.0
 42
0.3028016904310826
  0
VERTEX
  5
348
  8
LAYER0
 10
82.7895246088114
 20
-55.81904047746413
 30
0.0
  0
VERTEX
  5
349
  8
LAYER0
 10
82.7895246088114
 20
-39.38451700878269
 30
0.0
 42
0.4142135351151217
  0
VERTEX
  5
34A
  8
LAYER0
 10
80.28952475327316
 20
-36.88451709451689
 30
0.0
  0
VERTEX
  5
34B
  8
LAYER0
 10
77.78952474445947
 20
-36.88451716234093
 30
0.0
  0
VERTEX
  5
34C
  8
LAYER0
 10
77.78894620001677
 20
-36.84648830803937
 30
0.0
 42
-0.4186421535600553
  0
VERTEX
  5
34D
  8
LAYER0
 10
75.28952460881135
 20
-39.38451716234093
 30
0.0
  0
VERTEX
  5
34E
  8
LAYER0
 10
12.78952460881163
 20
-39.38451716234093
 30
0.0
  0
VERTEX
  5
34F
  8
LAYER0
 10
12.78952460881163
 20
-44.38451716234098
 30
0.0
 42
-1.0
  0
VERTEX
  5
350
  8
LAYER0
 10
12.78952460881163
 20
-49.38451716234104
 30
0.0
  0
VERTEX
  5
351
  8
LAYER0
 10
9.289524608811632
 20
-49.38451716234104
 30
0.0
 42
0.4142135624579805
  0
VERTEX
  5
352
  8
LAYER0
 10
6.789524608811746
 20
-51.88451716234104
 30
0.0
  0
VERTEX
  5
353
  8
LAYER0
 10
6.789524608811746
 20
-66.88451716234107
 30
0.0
 42
0.4142135611896177
  0
VERTEX
  5
354
  8
LAYER0
 10
9.289524608811632
 20
-69.3845171623411
 30
0.0
  0
VERTEX
  5
355
  8
LAYER0
 10
12.78952460881163
 20
-69.3845171623411
 30
0.0
 42
-1.0
  0
VERTEX
  5
356
  8
LAYER0
 10
12.78952460881163
 20
-74.38451716234104
 30
0.0
  0
VERTEX
  5
357
  8
LAYER0
 10
12.78952460881163
 20
-82.3071858821076
 30
0.0
  0
SEQEND
  5
7DF
  8
LAYER0
  0
POLYLINE
  5
B2
  8
LAYER0
 66
     1
 10
0.0
 20
0.0
 30
0.0
 70
     1
  0
VERTEX
  5
358
  8
LAYER0
 10
97.08101974305765
 20
-75.30829745505298
 30
0.0
 42
0.4142135623730951
  0
VERTEX
  5
359
  8
LAYER0
 10
99.58101974305936
 20
-77.80829745505463
 30
0.0
 42
0.4142135623730951
  0
VERTEX
  5
35A
  8
LAYER0
 10
102.0810197430611
 20
-75.30829745505298
 30
0.0
 42
0.4142135623730951
  0
VERTEX
  5
35B
  8
LAYER0
 10
99.58101974305936
 20
-72.80829745505127
 30
0.0
 42
0.4142135623730951
  0
SEQEND
  5
7E0
  8
LAYER0
  0
POLYLINE
  5
B3
  8
LAYER0
 66
     1
 10
0.0
 20
0.0
 30
0.0
 70
     1
  0
VERTEX
  5
35C
  8
LAYER0
 10
99.58101974305913
 20
67.19170254494782
 30
0.0
 42
0.4142135623730951
  0
VERTEX
  5
35D
  8
LAYER0
 10
97.08101974305765
 20
64.69170254494634
 30
0.0
 42
0.4142135623730951
  0
VERTEX
  5
35E
  8
LAYER0
 10
99.58101974305913
 20
62.19170254494486
 30
0.0
 42
0.4142135623730951
  0
VERTEX
  5
35F
  8
LAYER0
 10
102.0810197430607
 20
64.69170254494634
 30
0.0
 42
0.4142135623730951
  0
SEQEND
  5
7E1
  8
LAYER0
  0
POLYLINE
  5
B4
  8
LAYER0
 66
     1
 10
0.0
 20
0.0
 30
0.0
 70
     1
  0
VERTEX
  5
360
  8
LAYER0
 10
-41.53229563813633
 20
-76.66804067489886
 30
0.0
 42
0.4142135623730951
  0
VERTEX
  5
361
  8
LAYER0
 10
-39.03229563817902
 20
-79.16804067485623
 30
0.0
 42
0.4142135623730951
  0
VERTEX
  5
362
  8
LAYER0
 10
-36.53229563822165
 20
-76.66804067489886
 30
0.0
 42
0.4142135623730951
  0
VERTEX
  5
363
  8
LAYER0
 10
-39.03229563817902
 20
-74.1680406749415
 30
0.0
 42
0.4142135623730951
  0
SEQEND
  5
7E2
  8
LAYER0
  0
POLYLINE
  5
B5
  8
LAYER0
 66
     1
 10
0.0
 20
0.0
 30
0.0
 70
     1
  0
VERTEX
  5
364
  8
LAYER0
 10
-40.4189802569519
 20
67.19170254493844
 30
0.0
 42
0.4142135623730951
  0
VERTEX
  5
365
  8
LAYER0
 10
-42.91898025694215
 20
64.69170254494816
 30
0.0
 42
0.4142135623730951
  0
VERTEX
  5
366
  8
LAYER0
 10
-40.4189802569519
 20
62.19170254495788
 30
0.0
 42
0.4142135623730951
  0
VERTEX
  5
367
  8
LAYER0
 10
-37.91898025696165
 20
64.69170254494816
 30
0.0
 42
0.4142135623730951
  0
SEQEND
  5
7E3
  8
LAYER0
  0
POLYLINE
  5
B6
  8
LAYER0
 66
     1
 10
0.0
 20
0.0
 30
0.0
 70
     1
  0
VERTEX
  5
368
  8
LAYER0
 10
64.02252865591578
 20
-88.95745538106902
 30
0.0
  0
VERTEX
  5
369
  8
LAYER0
 10
112.7301776690737
 20
-40.24980636791128
 30
0.0
  0
VERTEX
  5
36A
  8
LAYER0
 10
112.7301776690737
 20
28.63321145780486
 30
0.0
  0
VERTEX
  5
36B
  8
LAYER0
 10
64.02252865591578
 20
77.34086047096258
 30
0.0
  0
VERTEX
  5
36C
  8
LAYER0
 10
-4.860489169800417
 20
77.34086047096258
 30
0.0
  0
VERTEX
  5
36D
  8
LAYER0
 10
-53.56813818295788
 20
28.63321145780486
 30
0.0
  0
VERTEX
  5
36E
  8
LAYER0
 10
-53.56813818295788
 20
-40.24980636791128
 30
0.0
  0
VERTEX
  5
36F
  8
LAYER0
 10
-4.860489169800417
 20
-88.95745538106905
 30
0.0
  0
SEQEND
  5
7E4
  8
LAYER0
  0
POLYLINE
  5
B7
  8
LAYER0
 66
     1
 10
0.0
 20
0.0
 30
0.0
 70
     1
  0
VERTEX
  5
370
  8
LAYER0
 10
51.906614010824
 20
69.24687403849856
 30
0.0
  0
VERTEX
  5
371
  8
LAYER0
 10
-11.12879633973491
 20
44.98918143864825
 30
0.0
 42
0.3028016904310826
  0
VERTEX
  5
372
  8
LAYER0
 10
-12.66747817341447
 20
42.68139735362155
 30
0.0
  0
VERTEX
  5
373
  8
LAYER0
 10
-12.66747817341447
 20
26.2468738849401
 30
0.0
 42
0.4142135351151217
  0
VERTEX
  5
374
  8
LAYER0
 10
-10.16747831787622
 20
23.7468739706743
 30
0.0
  0
VERTEX
  5
375
  8
LAYER0
 10
-7.667478309062538
 20
23.74687403849833
 30
0.0
  0
VERTEX
  5
376
  8
LAYER0
 10
-7.666899764619835
 20
23.70884518419678
 30
0.0
 42
-0.4186421535600553
  0
VERTEX
  5
377
  8
LAYER0
 10
-5.167478173414418
 20
26.24687403849833
 30
0.0
  0
VERTEX
  5
378
  8
LAYER0
 10
57.33252182658532
 20
26.24687403849833
 30
0.0
  0
VERTEX
  5
379
  8
LAYER0
 10
57.33252182658532
 20
31.24687403849839
 30
0.0
 42
-1.0
  0
VERTEX
  5
37A
  8
LAYER0
 10
57.33252182658532
 20
36.24687403849845
 30
0.0
  0
VERTEX
  5
37B
  8
LAYER0
 10
60.83252182658532
 20
36.24687403849845
 30
0.0
 42
0.4142135624579805
  0
VERTEX
  5
37C
  8
LAYER0
 10
63.33252182658521
 20
38.74687403849845
 30
0.0
  0
VERTEX
  5
37D
  8
LAYER0
 10
63.33252182658521
 20
53.7468740384985
 30
0.0
 42
0.4142135611896177
  0
VERTEX
  5
37E
  8
LAYER0
 10
60.83252182658532
 20
56.24687403849853
 30
0.0
  0
VERTEX
  5
37F
  8
LAYER0
 10
57.33252182658532
 20
56.24687403849853
 30
0.0
 42
-1.0
  0
VERTEX
  5
380
  8
LAYER0
 10
57.33252182658532
 20
61.2468740384985
 30
0.0
  0
VERTEX
  5
381
  8
LAYER0
 10
57.33252182658532
 20
69.19941080984556
 30
0.0
  0
SEQEND
  5
7E5
  8
LAYER0
  0
POLYLINE
  5
B8
  8
LAYER0
 66
     1
 10
0.0
 20
0.0
 30
0.0
 70
     1
  0
VERTEX
  5
382
  8
LAYER0
 10
217.1581830629233
 20
74.20613992577373
 30
0.0
 42
1.0
  0
VERTEX
  5
383
  8
LAYER0
 10
217.1581830629233
 20
69.20613992577387
 30
0.0
  0
VERTEX
  5
384
  8
LAYER0
 10
217.1581830629233
 20
-80.7938600742259
 30
0.0
 42
1.0
  0
VERTEX
  5
385
  8
LAYER0
 10
217.1581830629233
 20
-85.79386007422602
 30
0.0
  0
VERTEX
  5
386
  8
LAYER0
 10
222.6581830629233
 20
-85.79386007422602
 30
0.0
 42
-0.4142135620775435
  0
VERTEX
  5
387
  8
LAYER0
 10
225.1581830629233
 20
-88.29386007422602
 30
0.0
  0
VERTEX
  5
388
  8
LAYER0
 10
225.1581830629233
 20
-113.2938600742264
 30
0.0
 42
-0.4142135627044127
  0
VERTEX
  5
389
  8
LAYER0
 10
222.6581830629233
 20
-115.7938600742264
 30
0.0
  0
VERTEX
  5
38A
  8
LAYER0
 10
217.1581830629233
 20
-115.7938600742264
 30
0.0
 42
1.0
  0
VERTEX
  5
38B
  8
LAYER0
 10
217.1581830629233
 20
-120.7938600742265
 30
0.0
  0
VERTEX
  5
38C
  8
LAYER0
 10
217.1581830629233
 20
-145.7938600742268
 30
0.0
  0
VERTEX
  5
38D
  8
LAYER0
 10
150.0911350887276
 20
-145.7938600742269
 30
0.0
 42
1.0
  0
VERTEX
  5
38E
  8
LAYER0
 10
145.0911350887275
 20
-145.7938600742269
 30
0.0
  0
VERTEX
  5
38F
  8
LAYER0
 10
145.0911350887276
 20
-151.2938600742268
 30
0.0
 42
-0.4142135628448256
  0
VERTEX
  5
390
  8
LAYER0
 10
142.5911350887275
 20
-153.7938600742268
 30
0.0
  0
VERTEX
  5
391
  8
LAYER0
 10
117.5911350887272
 20
-153.7938600742268
 30
0.0
 42
-0.4142135628454208
  0
VERTEX
  5
392
  8
LAYER0
 10
115.0911350887271
 20
-151.2938600742268
 30
0.0
  0
VERTEX
  5
393
  8
LAYER0
 10
115.0911350887272
 20
-145.7938600742269
 30
0.0
 42
1.0
  0
VERTEX
  5
394
  8
LAYER0
 10
110.0911350887272
 20
-145.7938600742269
 30
0.0
  0
VERTEX
  5
395
  8
LAYER0
 10
12.59113508872633
 20
-145.7938600742269
 30
0.0
 42
1.0
  0
VERTEX
  5
396
  8
LAYER0
 10
7.591135088726332
 20
-145.7938600742269
 30
0.0
  0
VERTEX
  5
397
  8
LAYER0
 10
7.591135088726446
 20
-151.2938600742268
 30
0.0
 42
-0.4142135622028438
  0
VERTEX
  5
398
  8
LAYER0
 10
5.091135088726332
 20
-153.7938600742268
 30
0.0
  0
VERTEX
  5
399
  8
LAYER0
 10
-19.90886491127353
 20
-153.7938600742268
 30
0.0
 42
-0.4142135630380144
  0
VERTEX
  5
39A
  8
LAYER0
 10
-22.4088649112735
 20
-151.2938600742268
 30
0.0
  0
VERTEX
  5
39B
  8
LAYER0
 10
-22.4088649112735
 20
-145.7938600742269
 30
0.0
 42
0.5002468837770736
  0
VERTEX
  5
39C
  8
LAYER0
 10
-24.80831119704274
 20
-142.5919644132289
 30
0.0
 42
0.5002468837770774
  0
VERTEX
  5
39D
  8
LAYER0
 10
-27.20775748281199
 20
-145.7938600742269
 30
0.0
  0
VERTEX
  5
39E
  8
LAYER0
 10
-124.9088649112726
 20
-145.7938600742269
 30
0.0
 42
0.4170321316931824
  0
VERTEX
  5
39F
  8
LAYER0
 10
-127.4357271675267
 20
-143.2952274340689
 30
0.0
 42
0.417032131693197
  0
VERTEX
  5
3A0
  8
LAYER0
 10
-129.9099524789368
 20
-145.8459934054826
 30
0.0
  0
VERTEX
  5
3A1
  8
LAYER0
 10
-129.9099524789368
 20
-145.8981380795274
 30
0.0
  0
VERTEX
  5
3A2
  8
LAYER0
 10
-129.9088649112725
 20
-145.9502714107833
 30
0.0
  0
VERTEX
  5
3A3
  8
LAYER0
 10
-129.9088649112725
 20
-151.2938600742268
 30
0.0
 42
-0.414213563223682
  0
VERTEX
  5
3A4
  8
LAYER0
 10
-132.4088649112725
 20
-153.7938600742268
 30
0.0
  0
VERTEX
  5
3A5
  8
LAYER0
 10
-157.4088649112723
 20
-153.7938600742268
 30
0.0
 42
-0.4142135631647875
  0
VERTEX
  5
3A6
  8
LAYER0
 10
-159.9088649112723
 20
-151.2938600742268
 30
0.0
  0
VERTEX
  5
3A7
  8
LAYER0
 10
-159.9088649112723
 20
-145.7938600742269
 30
0.0
 42
1.0
  0
VERTEX
  5
3A8
  8
LAYER0
 10
-164.9088649112722
 20
-145.7938600742269
 30
0.0
  0
VERTEX
  5
3A9
  8
LAYER0
 10
-217.4088649112718
 20
-145.7938600742269
 30
0.0
  0
VERTEX
  5
3AA
  8
LAYER0
 10
-217.4088649112718
 20
-120.7938600742265
 30
0.0
 42
1.0
  0
VERTEX
  5
3AB
  8
LAYER0
 10
-217.4088649112718
 20
-115.7938600742264
 30
0.0
  0
VERTEX
  5
3AC
  8
LAYER0
 10
-222.9088649112717
 20
-115.7938600742264
 30
0.0
 42
-0.4142135632618741
  0
VERTEX
  5
3AD
  8
LAYER0
 10
-225.4088649112717
 20
-113.2938600742265
 30
0.0
  0
VERTEX
  5
3AE
  8
LAYER0
 10
-225.4088649112717
 20
-88.29386007422596
 30
0.0
 42
-0.4142135625530822
  0
VERTEX
  5
3AF
  8
LAYER0
 10
-222.9088649112717
 20
-85.79386007422607
 30
0.0
  0
VERTEX
  5
3B0
  8
LAYER0
 10
-217.4088649112718
 20
-85.79386007422607
 30
0.0
 42
1.0
  0
VERTEX
  5
3B1
  8
LAYER0
 10
-217.4088649112718
 20
-80.79386007422596
 30
0.0
  0
VERTEX
  5
3B2
  8
LAYER0
 10
-217.4088649112718
 20
-55.79386007422585
 30
0.0
  0
VERTEX
  5
3B3
  8
LAYER0
 10
-152.4088649112724
 20
-55.79386007422585
 30
0.0
  0
VERTEX
  5
3B4
  8
LAYER0
 10
-152.4088621545578
 20
-61.79386007442457
 30
0.0
 42
1.0
  0
VERTEX
  5
3B5
  8
LAYER0
 10
-147.4088676679872
 20
-61.79386090869087
 30
0.0
  0
VERTEX
  5
3B6
  8
LAYER0
 10
-137.4088675189757
 20
-61.79386090869087
 30
0.0
 42
1.0
  0
VERTEX
  5
3B7
  8
LAYER0
 10
-132.4088649112725
 20
-61.79386007422585
 30
0.0
  0
VERTEX
  5
3B8
  8
LAYER0
 10
-132.4088649112725
 20
-55.79386007422585
 30
0.0
  0
VERTEX
  5
3B9
  8
LAYER0
 10
-119.9088649112727
 20
-55.79386007422585
 30
0.0
 42
0.4142135612402854
  0
VERTEX
  5
3BA
  8
LAYER0
 10
-117.4088649112726
 20
-53.29386007422573
 30
0.0
  0
VERTEX
  5
3BB
  8
LAYER0
 10
-117.4088649112726
 20
41.7061399257739
 30
0.0
 42
0.4142135621416628
  0
VERTEX
  5
3BC
  8
LAYER0
 10
-119.9088649112727
 20
44.20613992577398
 30
0.0
  0
VERTEX
  5
3BD
  8
LAYER0
 10
-132.4088649112725
 20
44.20613992577398
 30
0.0
  0
VERTEX
  5
3BE
  8
LAYER0
 10
-132.4088675189757
 20
50.20614076023895
 30
0.0
 42
1.0
  0
VERTEX
  5
3BF
  8
LAYER0
 10
-137.4088675189757
 20
50.20614076023895
 30
0.0
  0
VERTEX
  5
3C0
  8
LAYER0
 10
-147.4088676679872
 20
50.20614076023895
 30
0.0
 42
1.0
  0
VERTEX
  5
3C1
  8
LAYER0
 10
-152.4088676679872
 20
50.20614076023895
 30
0.0
  0
VERTEX
  5
3C2
  8
LAYER0
 10
-152.4088649112724
 20
44.20613992577398
 30
0.0
  0
VERTEX
  5
3C3
  8
LAYER0
 10
-217.4088649112718
 20
44.20613992577398
 30
0.0
  0
VERTEX
  5
3C4
  8
LAYER0
 10
-217.4088649112718
 20
69.20613992577375
 30
0.0
 42
1.0
  0
VERTEX
  5
3C5
  8
LAYER0
 10
-217.4088649112718
 20
74.20613992577373
 30
0.0
  0
VERTEX
  5
3C6
  8
LAYER0
 10
-222.9088649112717
 20
74.20613992577373
 30
0.0
 42
-0.4142135634616659
  0
VERTEX
  5
3C7
  8
LAYER0
 10
-225.4088649112717
 20
76.7061399257737
 30
0.0
  0
VERTEX
  5
3C8
  8
LAYER0
 10
-225.4088649112717
 20
101.7061399257733
 30
0.0
 42
-0.4142135633535726
  0
VERTEX
  5
3C9
  8
LAYER0
 10
-222.9088649112717
 20
104.2061399257732
 30
0.0
  0
VERTEX
  5
3CA
  8
LAYER0
 10
-217.4088649112718
 20
104.2061399257732
 30
0.0
 42
1.0
  0
VERTEX
  5
3CB
  8
LAYER0
 10
-217.4088649112718
 20
109.2061399257731
 30
0.0
  0
VERTEX
  5
3CC
  8
LAYER0
 10
-217.4088649112718
 20
134.2061399257728
 30
0.0
  0
VERTEX
  5
3CD
  8
LAYER0
 10
-164.8699280316875
 20
134.2061399257728
 30
0.0
 42
0.9448095342517957
  0
VERTEX
  5
3CE
  8
LAYER0
 10
-159.8779748533225
 20
134.2061399257728
 30
0.0
  0
VERTEX
  5
3CF
  8
LAYER0
 10
-159.8779748533224
 20
139.7061399257728
 30
0.0
 42
-0.4142135625295816
  0
VERTEX
  5
3D0
  8
LAYER0
 10
-157.3779748533225
 20
142.2061399257728
 30
0.0
  0
VERTEX
  5
3D1
  8
LAYER0
 10
-132.4084223033529
 20
142.2061399257728
 30
0.0
 42
-0.4087127337766153
  0
VERTEX
  5
3D2
  8
LAYER0
 10
-129.9088649112725
 20
139.7531807983881
 30
0.0
  0
VERTEX
  5
3D3
  8
LAYER0
 10
-129.9088649112725
 20
134.2061399257728
 30
0.0
 42
1.0
  0
VERTEX
  5
3D4
  8
LAYER0
 10
-124.9088649112726
 20
134.2061399257728
 30
0.0
  0
VERTEX
  5
3D5
  8
LAYER0
 10
-27.40886491127344
 20
134.2061399257728
 30
0.0
 42
1.0
  0
VERTEX
  5
3D6
  8
LAYER0
 10
-22.4088649112735
 20
134.2061399257728
 30
0.0
  0
VERTEX
  5
3D7
  8
LAYER0
 10
-22.4088649112735
 20
139.7061399257728
 30
0.0
 42
-0.4142135624549098
  0
VERTEX
  5
3D8
  8
LAYER0
 10
-19.90886491127353
 20
142.2061399257728
 30
0.0
  0
VERTEX
  5
3D9
  8
LAYER0
 10
5.091135088726332
 20
142.2061399257728
 30
0.0
 42
-0.4142135615594035
  0
VERTEX
  5
3DA
  8
LAYER0
 10
7.591135088726332
 20
139.7061399257728
 30
0.0
  0
VERTEX
  5
3DB
  8
LAYER0
 10
7.591135088726332
 20
134.2061399257728
 30
0.0
 42
1.0
  0
VERTEX
  5
3DC
  8
LAYER0
 10
12.59113508872633
 20
134.2061399257728
 30
0.0
  0
VERTEX
  5
3DD
  8
LAYER0
 10
110.0911350887272
 20
134.206139925773
 30
0.0
 42
1.0
  0
VERTEX
  5
3DE
  8
LAYER0
 10
115.0911350887272
 20
134.206139925773
 30
0.0
  0
VERTEX
  5
3DF
  8
LAYER0
 10
115.0911350887272
 20
139.706139925773
 30
0.0
 42
-0.4142135634749309
  0
VERTEX
  5
3E0
  8
LAYER0
 10
117.5911350887272
 20
142.206139925773
 30
0.0
  0
VERTEX
  5
3E1
  8
LAYER0
 10
142.5911350887275
 20
142.206139925773
 30
0.0
 42
-0.4142135617192991
  0
VERTEX
  5
3E2
  8
LAYER0
 10
145.0911350887275
 20
139.706139925773
 30
0.0
  0
VERTEX
  5
3E3
  8
LAYER0
 10
145.0911350887275
 20
134.206139925773
 30
0.0
 42
1.0
  0
VERTEX
  5
3E4
  8
LAYER0
 10
150.0911350887276
 20
134.206139925773
 30
0.0
  0
VERTEX
  5
3E5
  8
LAYER0
 10
217.1581830629233
 20
134.206139925773
 30
0.0
  0
VERTEX
  5
3E6
  8
LAYER0
 10
217.1581830629233
 20
109.2061399257732
 30
0.0
 42
1.0
  0
VERTEX
  5
3E7
  8
LAYER0
 10
217.1581830629233
 20
104.2061399257733
 30
0.0
  0
VERTEX
  5
3E8
  8
LAYER0
 10
222.6581830629233
 20
104.2061399257733
 30
0.0
 42
-0.4142135618706106
  0
VERTEX
  5
3E9
  8
LAYER0
 10
225.1581830629233
 20
101.7061399257733
 30
0.0
  0
VERTEX
  5
3EA
  8
LAYER0
 10
225.1581830629233
 20
76.7061399257737
 30
0.0
 42
-0.4142135627552079
  0
VERTEX
  5
3EB
  8
LAYER0
 10
222.6581830629233
 20
74.20613992577373
 30
0.0
  0
SEQEND
  5
7E6
  8
LAYER0
  0
POLYLINE
  5
B9
  8
LAYER0
 66
     1
 10
0.0
 20
0.0
 30
0.0
 70
     1
  0
VERTEX
  5
3EC
  8
LAYER0
 10
132.091135088784
 20
-149.7938600742753
 30
0.0
 42
-0.4142135623730951
  0
VERTEX
  5
3ED
  8
LAYER0
 10
130.0911350887355
 20
-151.7938600743237
 30
0.0
 42
-0.4142135623730951
  0
VERTEX
  5
3EE
  8
LAYER0
 10
128.091135088687
 20
-149.7938600742753
 30
0.0
 42
-0.4142135623730951
  0
VERTEX
  5
3EF
  8
LAYER0
 10
130.0911350887355
 20
-147.7938600742269
 30
0.0
 42
-0.4142135623730951
  0
SEQEND
  5
7E7
  8
LAYER0
  0
POLYLINE
  5
BA
  8
LAYER0
 66
     1
 10
0.0
 20
0.0
 30
0.0
 70
     1
  0
VERTEX
  5
3F0
  8
LAYER0
 10
-7.408864911275003
 20
-151.7938600742481
 30
0.0
 42
-0.4142135623730951
  0
VERTEX
  5
3F1
  8
LAYER0
 10
-9.408864911285661
 20
-149.7938600742374
 30
0.0
 42
-0.4142135623730951
  0
VERTEX
  5
3F2
  8
LAYER0
 10
-7.408864911275003
 20
-147.7938600742268
 30
0.0
 42
-0.4142135623730951
  0
VERTEX
  5
3F3
  8
LAYER0
 10
-5.408864911264288
 20
-149.7938600742374
 30
0.0
 42
-0.4142135623730951
  0
SEQEND
  5
7E8
  8
LAYER0
  0
POLYLINE
  5
BB
  8
LAYER0
 66
     1
 10
0.0
 20
0.0
 30
0.0
 70
     1
  0
VERTEX
  5
3F4
  8
LAYER0
 10
-219.4088649112588
 20
89.20613992580564
 30
0.0
 42
-0.4142135623730951
  0
VERTEX
  5
3F5
  8
LAYER0
 10
-221.4088649112266
 20
87.20613992583782
 30
0.0
 42
-0.4142135623730951
  0
VERTEX
  5
3F6
  8
LAYER0
 10
-223.4088649111944
 20
89.20613992580564
 30
0.0
 42
-0.4142135623730951
  0
VERTEX
  5
3F7
  8
LAYER0
 10
-221.4088649112266
 20
91.20613992577344
 30
0.0
 42
-0.4142135623730951
  0
SEQEND
  5
7E9
  8
LAYER0
  0
POLYLINE
  5
BC
  8
LAYER0
 66
     1
 10
0.0
 20
0.0
 30
0.0
 70
     1
  0
VERTEX
  5
3F8
  8
LAYER0
 10
-142.8934198822939
 20
138.2061399257822
 30
0.0
 42
-0.4142135623730951
  0
VERTEX
  5
3F9
  8
LAYER0
 10
-144.8934198822844
 20
136.2061399257916
 30
0.0
 42
-0.4142135623730951
  0
VERTEX
  5
3FA
  8
LAYER0
 10
-146.8934198822751
 20
138.2061399257822
 30
0.0
 42
-0.4142135623730951
  0
VERTEX
  5
3FB
  8
LAYER0
 10
-144.8934198822844
 20
140.2061399257728
 30
0.0
 42
-0.4142135623730951
  0
SEQEND
  5
7EA
  8
LAYER0
  0
POLYLINE
  5
BD
  8
LAYER0
 66
     1
 10
0.0
 20
0.0
 30
0.0
 70
     1
  0
VERTEX
  5
3FC
  8
LAYER0
 10
130.091135088727
 20
136.2061399257748
 30
0.0
 42
-0.4142135623730951
  0
VERTEX
  5
3FD
  8
LAYER0
 10
128.0911350887279
 20
138.2061399257739
 30
0.0
 42
-0.4142135623730951
  0
VERTEX
  5
3FE
  8
LAYER0
 10
130.091135088727
 20
140.206139925773
 30
0.0
 42
-0.4142135623730951
  0
VERTEX
  5
3FF
  8
LAYER0
 10
132.0911350887261
 20
138.2061399257739
 30
0.0
 42
-0.4142135623730951
  0
SEQEND
  5
7EB
  8
LAYER0
  0
POLYLINE
  5
BE
  8
LAYER0
 66
     1
 10
0.0
 20
0.0
 30
0.0
 70
     1
  0
VERTEX
  5
400
  8
LAYER0
 10
-5.408864650502494
 20
138.2061398661668
 30
0.0
 42
-0.4142135623730951
  0
VERTEX
  5
401
  8
LAYER0
 10
-7.40886465050383
 20
136.2061398661656
 30
0.0
 42
-0.4142135623730951
  0
VERTEX
  5
402
  8
LAYER0
 10
-9.408864650505109
 20
138.2061398661668
 30
0.0
 42
-0.4142135623730951
  0
VERTEX
  5
403
  8
LAYER0
 10
-7.40886465050383
 20
140.2061398661682
 30
0.0
 42
-0.4142135623730951
  0
SEQEND
  5
7EC
  8
LAYER0
  0
POLYLINE
  5
BF
  8
LAYER0
 66
     1
 10
0.0
 20
0.0
 30
0.0
 70
     1
  0
VERTEX
  5
404
  8
LAYER0
 10
223.1581830629519
 20
89.2061399257596
 30
0.0
 42
-0.4142135623730951
  0
VERTEX
  5
405
  8
LAYER0
 10
221.158183062938
 20
87.20613992574562
 30
0.0
 42
-0.4142135623730951
  0
VERTEX
  5
406
  8
LAYER0
 10
219.158183062924
 20
89.2061399257596
 30
0.0
 42
-0.4142135623730951
  0
VERTEX
  5
407
  8
LAYER0
 10
221.158183062938
 20
91.20613992577344
 30
0.0
 42
-0.4142135623730951
  0
SEQEND
  5
7ED
  8
LAYER0
  0
POLYLINE
  5
C0
  8
LAYER0
 66
     1
 10
0.0
 20
0.0
 30
0.0
 70
     1
  0
VERTEX
  5
408
  8
LAYER0
 10
223.1581830630465
 20
-100.7938600743103
 30
0.0
 42
-0.4142135623730951
  0
VERTEX
  5
409
  8
LAYER0
 10
221.1581830629623
 20
-102.7938600743945
 30
0.0
 42
-0.4142135623730951
  0
VERTEX
  5
40A
  8
LAYER0
 10
219.1581830628782
 20
-100.7938600743103
 30
0.0
 42
-0.4142135623730951
  0
VERTEX
  5
40B
  8
LAYER0
 10
221.1581830629623
 20
-98.79386007422613
 30
0.0
 42
-0.4142135623730951
  0
SEQEND
  5
7EE
  8
LAYER0
  0
POLYLINE
  5
C1
  8
LAYER0
 66
     1
 10
0.0
 20
0.0
 30
0.0
 70
     1
  0
VERTEX
  5
40C
  8
LAYER0
 10
-142.8934198822654
 20
-149.7938600742784
 30
0.0
 42
-0.4142135623730951
  0
VERTEX
  5
40D
  8
LAYER0
 10
-144.8934198823224
 20
-151.7938600743353
 30
0.0
 42
-0.4142135623730951
  0
VERTEX
  5
40E
  8
LAYER0
 10
-146.8934198823795
 20
-149.7938600742784
 30
0.0
 42
-0.4142135623730951
  0
VERTEX
  5
40F
  8
LAYER0
 10
-144.8934198823224
 20
-147.7938600742214
 30
0.0
 42
-0.4142135623730951
  0
SEQEND
  5
7EF
  8
LAYER0
  0
POLYLINE
  5
C2
  8
LAYER0
 66
     1
 10
0.0
 20
0.0
 30
0.0
 70
     1
  0
VERTEX
  5
410
  8
LAYER0
 10
-126.5405456604233
 20
-143.449500528721
 30
0.0
  0
VERTEX
  5
411
  8
LAYER0
 10
-126.1588649112726
 20
-143.6287965647657
 30
0.0
  0
VERTEX
  5
412
  8
LAYER0
 10
-126.0366200022441
 20
-143.7041366691693
 30
0.0
  0
SEQEND
  5
7F0
  8
LAYER0
  0
POLYLINE
  5
C3
  8
LAYER0
 66
     1
 10
0.0
 20
0.0
 30
0.0
 70
     1
  0
VERTEX
  5
413
  8
LAYER0
 10
-126.0366200022441
 20
-143.7041366691693
 30
0.0
  0
VERTEX
  5
414
  8
LAYER0
 10
-125.6410979583063
 20
-144.0260931212604
 30
0.0
  0
VERTEX
  5
415
  8
LAYER0
 10
-125.5665980182594
 20
-144.1038740698742
 30
0.0
  0
SEQEND
  5
7F1
  8
LAYER0
  0
POLYLINE
  5
C4
  8
LAYER0
 66
     1
 10
0.0
 20
0.0
 30
0.0
 70
     1
  0
VERTEX
  5
416
  8
LAYER0
 10
-125.5665980182594
 20
-144.1038740698742
 30
0.0
  0
VERTEX
  5
417
  8
LAYER0
 10
-125.2438014018116
 20
-144.5438600742268
 30
0.0
  0
VERTEX
  5
418
  8
LAYER0
 10
-125.2087953359442
 20
-144.6065547791513
 30
0.0
  0
SEQEND
  5
7F2
  8
LAYER0
  0
POLYLINE
  5
C5
  8
LAYER0
 66
     1
 10
0.0
 20
0.0
 30
0.0
 70
     1
  0
VERTEX
  5
419
  8
LAYER0
 10
-125.2087953359442
 20
-144.6065547791513
 30
0.0
  0
VERTEX
  5
41A
  8
LAYER0
 10
-124.99405034555
 20
-145.1468124614705
 30
0.0
  0
VERTEX
  5
41B
  8
LAYER0
 10
-124.9850070422629
 20
-145.1815586526707
 30
0.0
  0
SEQEND
  5
7F3
  8
LAYER0
  0
POLYLINE
  5
C6
  8
LAYER0
 66
     1
 10
0.0
 20
0.0
 30
0.0
 70
     1
  0
VERTEX
  5
41C
  8
LAYER0
 10
-126.7618172985163
 20
-143.3790455085041
 30
0.0
  0
VERTEX
  5
41D
  8
LAYER0
 10
-126.5405456604233
 20
-143.449500528721
 30
0.0
  0
VERTEX
  5
41E
  8
LAYER0
 10
-127.0887598562708
 20
-143.3144382154537
 30
0.0
  0
SEQEND
  5
7F4
  8
LAYER0
  0
POLYLINE
  5
C7
  8
LAYER0
 66
     1
 10
0.0
 20
0.0
 30
0.0
 70
     1
  0
VERTEX
  5
41F
  8
LAYER0
 10
-127.4088649112726
 20
-143.2938600742268
 30
0.0
  0
VERTEX
  5
420
  8
LAYER0
 10
-127.0887598562708
 20
-143.3144382154537
 30
0.0
  0
VERTEX
  5
421
  8
LAYER0
 10
-127.6533009788474
 20
-143.305838569322
 30
0.0
  0
SEQEND
  5
7F5
  8
LAYER0
  0
POLYLINE
  5
C8
  8
LAYER0
 66
     1
 10
0.0
 20
0.0
 30
0.0
 70
     1
  0
VERTEX
  5
422
  8
LAYER0
 10
-128.055912524029
 20
-143.3790455085041
 30
0.0
  0
VERTEX
  5
423
  8
LAYER0
 10
-127.6533009788474
 20
-143.305838569322
 30
0.0
  0
VERTEX
  5
424
  8
LAYER0
 10
-128.2053746639285
 20
-143.4241402144282
 30
0.0
  0
SEQEND
  5
7F6
  8
LAYER0
  0
POLYLINE
  5
C9
  8
LAYER0
 66
     1
 10
0.0
 20
0.0
 30
0.0
 70
     1
  0
VERTEX
  5
425
  8
LAYER0
 10
-128.6588649112726
 20
-143.6287965647657
 30
0.0
  0
VERTEX
  5
426
  8
LAYER0
 10
-128.2053746639285
 20
-143.4241402144282
 30
0.0
  0
VERTEX
  5
427
  8
LAYER0
 10
-128.7168224477074
 20
-143.6633091870422
 30
0.0
  0
SEQEND
  5
7F7
  8
LAYER0
  0
POLYLINE
  5
CA
  8
LAYER0
 66
     1
 10
0.0
 20
0.0
 30
0.0
 70
     1
  0
VERTEX
  5
428
  8
LAYER0
 10
-129.176631864239
 20
-144.0260931212604
 30
0.0
  0
VERTEX
  5
429
  8
LAYER0
 10
-129.1615579864635
 20
-144.0111466973269
 30
0.0
  0
VERTEX
  5
42A
  8
LAYER0
 10
-129.5168975879471
 20
-144.4499113274092
 30
0.0
  0
SEQEND
  5
7F8
  8
LAYER0
  0
POLYLINE
  5
CB
  8
LAYER0
 66
     1
 10
0.0
 20
0.0
 30
0.0
 70
     1
  0
VERTEX
  5
42B
  8
LAYER0
 10
-129.5739284207337
 20
-144.5438600742268
 30
0.0
  0
VERTEX
  5
42C
  8
LAYER0
 10
-129.5168975879471
 20
-144.4499113274092
 30
0.0
  0
VERTEX
  5
42D
  8
LAYER0
 10
-129.7320294336315
 20
-144.8703306474875
 30
0.0
  0
SEQEND
  5
7F9
  8
LAYER0
  0
POLYLINE
  5
CC
  8
LAYER0
 66
     1
 10
0.0
 20
0.0
 30
0.0
 70
     1
  0
VERTEX
  5
42E
  8
LAYER0
 10
-129.8236794769953
 20
-145.1468124614705
 30
0.0
  0
VERTEX
  5
42F
  8
LAYER0
 10
-129.7320294336315
 20
-144.8703306474875
 30
0.0
  0
VERTEX
  5
430
  8
LAYER0
 10
-129.8642580881281
 20
-145.3237065386116
 30
0.0
  0
SEQEND
  5
7FA
  8
LAYER0
  0
POLYLINE
  5
CD
  8
LAYER0
 66
     1
 10
0.0
 20
0.0
 30
0.0
 70
     1
  0
VERTEX
  5
431
  8
LAYER0
 10
-219.4088649112589
 20
-100.7938600742739
 30
0.0
 42
-0.4142135623730951
  0
VERTEX
  5
432
  8
LAYER0
 10
-221.4088649113066
 20
-102.7938600743218
 30
0.0
 42
-0.4142135623730951
  0
VERTEX
  5
433
  8
LAYER0
 10
-223.4088649113544
 20
-100.7938600742739
 30
0.0
 42
-0.4142135623730951
  0
VERTEX
  5
434
  8
LAYER0
 10
-221.4088649113066
 20
-98.79386007422619
 30
0.0
 42
-0.4142135623730951
  0
SEQEND
  5
7FB
  8
LAYER0
  0
POLYLINE
  5
CE
  8
LAYER0
 66
     1
 10
0.0
 20
0.0
 30
0.0
 70
     1
  0
VERTEX
  5
435
  8
LAYER0
 10
-210.3709470095367
 20
-139.4081163595544
 30
0.0
 42
-0.4142135623730951
  0
VERTEX
  5
436
  8
LAYER0
 10
-211.3709470098099
 20
-140.4081163598277
 30
0.0
 42
-0.4142135623730951
  0
VERTEX
  5
437
  8
LAYER0
 10
-212.3709470100831
 20
-139.4081163595544
 30
0.0
 42
-0.4142135623730951
  0
VERTEX
  5
438
  8
LAYER0
 10
-211.3709470098099
 20
-138.4081163592812
 30
0.0
 42
-0.4142135623730951
  0
SEQEND
  5
7FC
  8
LAYER0
  0
POLYLINE
  5
CF
  8
LAYER0
 66
     1
 10
0.0
 20
0.0
 30
0.0
 70
     1
  0
VERTEX
  5
439
  8
LAYER0
 10
-164.5168975879469
 20
-144.4499113274093
 30
0.0
  0
VERTEX
  5
43A
  8
LAYER0
 10
-164.1766318642387
 20
-144.0260931212604
 30
0.0
  0
VERTEX
  5
43B
  8
LAYER0
 10
-164.117391412516
 20
-143.9687745434783
 30
0.0
  0
SEQEND
  5
7FD
  8
LAYER0
  0
POLYLINE
  5
D0
  8
LAYER0
 66
     1
 10
0.0
 20
0.0
 30
0.0
 70
     1
  0
VERTEX
  5
43C
  8
LAYER0
 10
-164.117391412516
 20
-143.9687745434783
 30
0.0
  0
VERTEX
  5
43D
  8
LAYER0
 10
-163.6588649112722
 20
-143.6287965647657
 30
0.0
  0
VERTEX
  5
43E
  8
LAYER0
 10
-163.6109730871358
 20
-143.6018436660943
 30
0.0
  0
SEQEND
  5
7FE
  8
LAYER0
  0
POLYLINE
  5
D1
  8
LAYER0
 66
     1
 10
0.0
 20
0.0
 30
0.0
 70
     1
  0
VERTEX
  5
43F
  8
LAYER0
 10
-163.6109730871358
 20
-143.6018436660943
 30
0.0
  0
VERTEX
  5
440
  8
LAYER0
 10
-163.0559125240285
 20
-143.3790455085041
 30
0.0
  0
VERTEX
  5
441
  8
LAYER0
 10
-163.0293320657892
 20
-143.3720796320385
 30
0.0
  0
SEQEND
  5
7FF
  8
LAYER0
  0
POLYLINE
  5
D2
  8
LAYER0
 66
     1
 10
0.0
 20
0.0
 30
0.0
 70
     1
  0
VERTEX
  5
442
  8
LAYER0
 10
-161.7883977567553
 20
-143.3720796320385
 30
0.0
  0
VERTEX
  5
443
  8
LAYER0
 10
-161.761817298516
 20
-143.3790455085041
 30
0.0
  0
VERTEX
  5
444
  8
LAYER0
 10
-161.2067567354087
 20
-143.6018436660943
 30
0.0
  0
SEQEND
  5
800
  8
LAYER0
  0
POLYLINE
  5
D3
  8
LAYER0
 66
     1
 10
0.0
 20
0.0
 30
0.0
 70
     1
  0
VERTEX
  5
445
  8
LAYER0
 10
-161.2067567354087
 20
-143.6018436660943
 30
0.0
  0
VERTEX
  5
446
  8
LAYER0
 10
-161.1588649112723
 20
-143.6287965647657
 30
0.0
  0
VERTEX
  5
447
  8
LAYER0
 10
-160.7003384100285
 20
-143.9687745434782
 30
0.0
  0
SEQEND
  5
801
  8
LAYER0
  0
POLYLINE
  5
D4
  8
LAYER0
 66
     1
 10
0.0
 20
0.0
 30
0.0
 70
     1
  0
VERTEX
  5
448
  8
LAYER0
 10
-160.7003384100285
 20
-143.9687745434782
 30
0.0
  0
VERTEX
  5
449
  8
LAYER0
 10
-160.6410979583059
 20
-144.0260931212604
 30
0.0
  0
VERTEX
  5
44A
  8
LAYER0
 10
-160.3008322345978
 20
-144.4499113274092
 30
0.0
  0
SEQEND
  5
802
  8
LAYER0
  0
POLYLINE
  5
D5
  8
LAYER0
 66
     1
 10
0.0
 20
0.0
 30
0.0
 70
     1
  0
VERTEX
  5
44B
  8
LAYER0
 10
-160.3008322345978
 20
-144.4499113274092
 30
0.0
  0
VERTEX
  5
44C
  8
LAYER0
 10
-160.2438014018112
 20
-144.5438600742268
 30
0.0
  0
VERTEX
  5
44D
  8
LAYER0
 10
-160.0857003889136
 20
-144.8703306474875
 30
0.0
  0
SEQEND
  5
803
  8
LAYER0
  0
POLYLINE
  5
D6
  8
LAYER0
 66
     1
 10
0.0
 20
0.0
 30
0.0
 70
     1
  0
VERTEX
  5
44E
  8
LAYER0
 10
-160.0857003889136
 20
-144.8703306474875
 30
0.0
  0
VERTEX
  5
44F
  8
LAYER0
 10
-159.9940503455497
 20
-145.1468124614705
 30
0.0
  0
VERTEX
  5
450
  8
LAYER0
 10
-159.9534717344168
 20
-145.3237065386116
 30
0.0
  0
SEQEND
  5
804
  8
LAYER0
  0
POLYLINE
  5
D7
  8
LAYER0
 66
     1
 10
0.0
 20
0.0
 30
0.0
 70
     1
  0
VERTEX
  5
451
  8
LAYER0
 10
-164.5168975879467
 20
-144.4499113274092
 30
0.0
  0
VERTEX
  5
452
  8
LAYER0
 10
-164.732029433631
 20
-144.8703306474875
 30
0.0
  0
VERTEX
  5
453
  8
LAYER0
 10
-164.5739284207334
 20
-144.5438600742268
 30
0.0
  0
SEQEND
  5
805
  8
LAYER0
  0
POLYLINE
  5
D8
  8
LAYER0
 66
     1
 10
0.0
 20
0.0
 30
0.0
 70
     1
  0
VERTEX
  5
454
  8
LAYER0
 10
-164.8236794769949
 20
-145.1468124614705
 30
0.0
  0
VERTEX
  5
455
  8
LAYER0
 10
-164.732029433631
 20
-144.8703306474875
 30
0.0
  0
VERTEX
  5
456
  8
LAYER0
 10
-164.8642580881278
 20
-145.3237065386116
 30
0.0
  0
SEQEND
  5
806
  8
LAYER0
  0
POLYLINE
  5
D9
  8
LAYER0
 66
     1
 10
0.0
 20
0.0
 30
0.0
 70
     1
  0
VERTEX
  5
457
  8
LAYER0
 10
-132.490740299091
 20
-62.42842556332999
 30
0.0
  0
VERTEX
  5
458
  8
LAYER0
 10
-132.4940503275476
 20
-62.44090761979686
 30
0.0
  0
VERTEX
  5
459
  8
LAYER0
 10
-132.643741993348
 20
-62.85179115264879
 30
0.0
  0
SEQEND
  5
807
  8
LAYER0
  0
POLYLINE
  5
DA
  8
LAYER0
 66
     1
 10
0.0
 20
0.0
 30
0.0
 70
     1
  0
VERTEX
  5
45A
  8
LAYER0
 10
-132.643741993348
 20
-62.85179115264879
 30
0.0
  0
VERTEX
  5
45B
  8
LAYER0
 10
-132.7438013322561
 20
-63.04385995375236
 30
0.0
  0
VERTEX
  5
45C
  8
LAYER0
 10
-132.8701872867523
 20
-63.24085473326244
 30
0.0
  0
SEQEND
  5
808
  8
LAYER0
  0
POLYLINE
  5
DB
  8
LAYER0
 66
     1
 10
0.0
 20
0.0
 30
0.0
 70
     1
  0
VERTEX
  5
45D
  8
LAYER0
 10
-132.8701872867523
 20
-63.24085473326244
 30
0.0
  0
VERTEX
  5
45E
  8
LAYER0
 10
-133.1410978107569
 20
-63.56162687964303
 30
0.0
  0
VERTEX
  5
45F
  8
LAYER0
 10
-133.1627339917227
 20
-63.58300143582693
 30
0.0
  0
SEQEND
  5
809
  8
LAYER0
  0
POLYLINE
  5
DC
  8
LAYER0
 66
     1
 10
0.0
 20
0.0
 30
0.0
 70
     1
  0
VERTEX
  5
460
  8
LAYER0
 10
-133.5118966702895
 20
-63.86713760839353
 30
0.0
  0
VERTEX
  5
461
  8
LAYER0
 10
-133.6588646703257
 20
-63.9589234445761
 30
0.0
  0
VERTEX
  5
462
  8
LAYER0
 10
-133.9063541868098
 20
-64.08405051332414
 30
0.0
  0
SEQEND
  5
80A
  8
LAYER0
  0
POLYLINE
  5
DD
  8
LAYER0
 66
     1
 10
0.0
 20
0.0
 30
0.0
 70
     1
  0
VERTEX
  5
463
  8
LAYER0
 10
-133.9063541868098
 20
-64.08405051332414
 30
0.0
  0
VERTEX
  5
464
  8
LAYER0
 10
-134.2618169625895
 20
-64.20867454993714
 30
0.0
  0
VERTEX
  5
465
  8
LAYER0
 10
-134.3333167807393
 20
-64.22670703806051
 30
0.0
  0
SEQEND
  5
80B
  8
LAYER0
  0
POLYLINE
  5
DE
  8
LAYER0
 66
     1
 10
0.0
 20
0.0
 30
0.0
 70
     1
  0
VERTEX
  5
466
  8
LAYER0
 10
-134.7789407576137
 20
-64.29048173444909
 30
0.0
  0
VERTEX
  5
467
  8
LAYER0
 10
-134.9088644939402
 20
-64.29386007422585
 30
0.0
  0
VERTEX
  5
468
  8
LAYER0
 10
-135.2287773524372
 20
-64.27330679274752
 30
0.0
  0
SEQEND
  5
80C
  8
LAYER0
  0
POLYLINE
  5
DF
  8
LAYER0
 66
     1
 10
0.0
 20
0.0
 30
0.0
 70
     1
  0
VERTEX
  5
469
  8
LAYER0
 10
-135.2287773524372
 20
-64.27330679274752
 30
0.0
  0
VERTEX
  5
46A
  8
LAYER0
 10
-135.5559120537315
 20
-64.20867476596419
 30
0.0
  0
VERTEX
  5
46B
  8
LAYER0
 10
-135.6682412116774
 20
-64.17573908760659
 30
0.0
  0
SEQEND
  5
80D
  8
LAYER0
  0
POLYLINE
  5
E0
  8
LAYER0
 66
     1
 10
0.0
 20
0.0
 30
0.0
 70
     1
  0
VERTEX
  5
46C
  8
LAYER0
 10
-136.083083303963
 20
-64.00094212214964
 30
0.0
  0
VERTEX
  5
46D
  8
LAYER0
 10
-136.1588644293786
 20
-63.95892386190843
 30
0.0
  0
VERTEX
  5
46E
  8
LAYER0
 10
-136.4598529259814
 20
-63.75458345559031
 30
0.0
  0
SEQEND
  5
80E
  8
LAYER0
  0
POLYLINE
  5
E1
  8
LAYER0
 66
     1
 10
0.0
 20
0.0
 30
0.0
 70
     1
  0
VERTEX
  5
46F
  8
LAYER0
 10
-136.4598529259814
 20
-63.75458345559031
 30
0.0
  0
VERTEX
  5
470
  8
LAYER0
 10
-136.676631421591
 20
-63.56162746983983
 30
0.0
  0
VERTEX
  5
471
  8
LAYER0
 10
-136.7863338236517
 20
-63.44465094015953
 30
0.0
  0
SEQEND
  5
80F
  8
LAYER0
  0
POLYLINE
  5
E2
  8
LAYER0
 66
     1
 10
0.0
 20
0.0
 30
0.0
 70
     1
  0
VERTEX
  5
472
  8
LAYER0
 10
-137.0519402879209
 20
-63.08119372561674
 30
0.0
  0
VERTEX
  5
473
  8
LAYER0
 10
-137.0739280729566
 20
-63.04386067659306
 30
0.0
  0
VERTEX
  5
474
  8
LAYER0
 10
-137.2480603823074
 20
-62.67599642892952
 30
0.0
  0
SEQEND
  5
810
  8
LAYER0
  0
POLYLINE
  5
E3
  8
LAYER0
 66
     1
 10
0.0
 20
0.0
 30
0.0
 70
     1
  0
VERTEX
  5
475
  8
LAYER0
 10
-137.2480603823074
 20
-62.67599642892952
 30
0.0
  0
VERTEX
  5
476
  8
LAYER0
 10
-137.3236792789702
 20
-62.44090842602094
 30
0.0
  0
VERTEX
  5
477
  8
LAYER0
 10
-137.3683351734911
 20
-62.24219703373575
 30
0.0
  0
SEQEND
  5
811
  8
LAYER0
  0
POLYLINE
  5
E4
  8
LAYER0
 66
     1
 10
0.0
 20
0.0
 30
0.0
 70
     1
  0
VERTEX
  5
478
  8
LAYER0
 10
-137.3683351734911
 20
-62.24219703373575
 30
0.0
  0
VERTEX
  5
479
  8
LAYER0
 10
-137.4088675189757
 20
-61.79386090869087
 30
0.0
  0
VERTEX
  5
47A
  8
LAYER0
 10
-137.4088649112724
 20
-61.79386090869087
 30
0.0
  0
SEQEND
  5
812
  8
LAYER0
  0
POLYLINE
  5
E5
  8
LAYER0
 66
     1
 10
0.0
 20
0.0
 30
0.0
 70
     1
  0
VERTEX
  5
47B
  8
LAYER0
 10
-147.4493973610771
 20
-62.24219653936171
 30
0.0
  0
VERTEX
  5
47C
  8
LAYER0
 10
-147.494053206305
 20
-62.44090771233783
 30
0.0
  0
VERTEX
  5
47D
  8
LAYER0
 10
-147.5696720196356
 20
-62.67599545621107
 30
0.0
  0
SEQEND
  5
813
  8
LAYER0
  0
POLYLINE
  5
E6
  8
LAYER0
 66
     1
 10
0.0
 20
0.0
 30
0.0
 70
     1
  0
VERTEX
  5
47E
  8
LAYER0
 10
-147.5696720196356
 20
-62.67599545621107
 30
0.0
  0
VERTEX
  5
47F
  8
LAYER0
 10
-147.7438041368736
 20
-63.04385929806307
 30
0.0
  0
VERTEX
  5
480
  8
LAYER0
 10
-147.7657918977634
 20
-63.08119230609276
 30
0.0
  0
SEQEND
  5
814
  8
LAYER0
  0
POLYLINE
  5
E7
  8
LAYER0
 66
     1
 10
0.0
 20
0.0
 30
0.0
 70
     1
  0
VERTEX
  5
481
  8
LAYER0
 10
-148.0313980691523
 20
-63.44464911985636
 30
0.0
  0
VERTEX
  5
482
  8
LAYER0
 10
-148.1411003501046
 20
-63.56162552040729
 30
0.0
  0
VERTEX
  5
483
  8
LAYER0
 10
-148.3578786068166
 20
-63.7545812935287
 30
0.0
  0
SEQEND
  5
815
  8
LAYER0
  0
POLYLINE
  5
E8
  8
LAYER0
 66
     1
 10
0.0
 20
0.0
 30
0.0
 70
     1
  0
VERTEX
  5
484
  8
LAYER0
 10
-148.3578786068166
 20
-63.7545812935287
 30
0.0
  0
VERTEX
  5
485
  8
LAYER0
 10
-148.6588667713511
 20
-63.9589214744239
 30
0.0
  0
VERTEX
  5
486
  8
LAYER0
 10
-148.7346478133765
 20
-64.00093968843163
 30
0.0
  0
SEQEND
  5
816
  8
LAYER0
  0
POLYLINE
  5
E9
  8
LAYER0
 66
     1
 10
0.0
 20
0.0
 30
0.0
 70
     1
  0
VERTEX
  5
487
  8
LAYER0
 10
-149.1494894482216
 20
-64.17573646114232
 30
0.0
  0
VERTEX
  5
488
  8
LAYER0
 10
-149.2618184821113
 20
-64.20867210313082
 30
0.0
  0
VERTEX
  5
489
  8
LAYER0
 10
-149.5889528228711
 20
-64.27330405869674
 30
0.0
  0
SEQEND
  5
817
  8
LAYER0
  0
POLYLINE
  5
EA
  8
LAYER0
 66
     1
 10
0.0
 20
0.0
 30
0.0
 70
     1
  0
VERTEX
  5
48A
  8
LAYER0
 10
-149.5889528228711
 20
-64.27330405869674
 30
0.0
  0
VERTEX
  5
48B
  8
LAYER0
 10
-149.9088653284055
 20
-64.29385731751114
 30
0.0
  0
VERTEX
  5
48C
  8
LAYER0
 10
-150.0387889216661
 20
-64.29047898145967
 30
0.0
  0
SEQEND
  5
818
  8
LAYER0
  0
POLYLINE
  5
EB
  8
LAYER0
 66
     1
 10
0.0
 20
0.0
 30
0.0
 70
     1
  0
VERTEX
  5
48D
  8
LAYER0
 10
-150.4844124071572
 20
-64.22670435539447
 30
0.0
  0
VERTEX
  5
48E
  8
LAYER0
 10
-150.5559121462729
 20
-64.20867188720678
 30
0.0
  0
VERTEX
  5
48F
  8
LAYER0
 10
-150.911374530281
 20
-64.0840479879634
 30
0.0
  0
SEQEND
  5
819
  8
LAYER0
  0
POLYLINE
  5
EC
  8
LAYER0
 66
     1
 10
0.0
 20
0.0
 30
0.0
 70
     1
  0
VERTEX
  5
490
  8
LAYER0
 10
-150.911374530281
 20
-64.0840479879634
 30
0.0
  0
VERTEX
  5
491
  8
LAYER0
 10
-151.1588637736897
 20
-63.95892105729075
 30
0.0
  0
VERTEX
  5
492
  8
LAYER0
 10
-151.3058316118385
 20
-63.86713532221967
 30
0.0
  0
SEQEND
  5
81A
  8
LAYER0
  0
POLYLINE
  5
ED
  8
LAYER0
 66
     1
 10
0.0
 20
0.0
 30
0.0
 70
     1
  0
VERTEX
  5
493
  8
LAYER0
 10
-151.6549939053885
 20
-63.58299946296592
 30
0.0
  0
VERTEX
  5
494
  8
LAYER0
 10
-151.6766300623557
 20
-63.56162493049197
 30
0.0
  0
VERTEX
  5
495
  8
LAYER0
 10
-151.9475402877717
 20
-63.24085313768177
 30
0.0
  0
SEQEND
  5
81B
  8
LAYER0
  0
POLYLINE
  5
EE
  8
LAYER0
 66
     1
 10
0.0
 20
0.0
 30
0.0
 70
     1
  0
VERTEX
  5
496
  8
LAYER0
 10
-151.9475402877717
 20
-63.24085313768177
 30
0.0
  0
VERTEX
  5
497
  8
LAYER0
 10
-152.0739261028045
 20
-63.0438585755673
 30
0.0
  0
VERTEX
  5
498
  8
LAYER0
 10
-152.1739853314779
 20
-62.85178998608313
 30
0.0
  0
SEQEND
  5
81C
  8
LAYER0
  0
POLYLINE
  5
EF
  8
LAYER0
 66
     1
 10
0.0
 20
0.0
 30
0.0
 70
     1
  0
VERTEX
  5
499
  8
LAYER0
 10
-152.1739853314779
 20
-62.85178998608313
 30
0.0
  0
VERTEX
  5
49A
  8
LAYER0
 10
-152.3236768321639
 20
-62.44090690649858
 30
0.0
  0
VERTEX
  5
49B
  8
LAYER0
 10
-152.3269868570221
 20
-62.42842486360354
 30
0.0
  0
SEQEND
  5
81D
  8
LAYER0
  0
POLYLINE
  5
F0
  8
LAYER0
 66
     1
 10
0.0
 20
0.0
 30
0.0
 70
     1
  0
VERTEX
  5
49C
  8
LAYER0
 10
32.79518750154467
 20
91.00445357652129
 30
0.0
  0
VERTEX
  5
49D
  8
LAYER0
 10
32.79518750154467
 20
110.9644535765213
 30
0.0
 42
1.0
  0
VERTEX
  5
49E
  8
LAYER0
 10
26.29518750154467
 20
110.9644535765213
 30
0.0
  0
VERTEX
  5
49F
  8
LAYER0
 10
26.29518750154467
 20
91.00445357652129
 30
0.0
 42
1.0
  0
SEQEND
  5
81E
  8
LAYER0
  0
POLYLINE
  5
F1
  8
LAYER0
 66
     1
 10
0.0
 20
0.0
 30
0.0
 70
     1
  0
VERTEX
  5
4A0
  8
LAYER0
 10
145.6994101637168
 20
-2.366359164124589
 30
0.0
  0
VERTEX
  5
4A1
  8
LAYER0
 10
125.7394101637168
 20
-2.366359164124589
 30
0.0
 42
1.0
  0
VERTEX
  5
4A2
  8
LAYER0
 10
125.7394101637168
 20
-8.86635916412456
 30
0.0
  0
VERTEX
  5
4A3
  8
LAYER0
 10
145.6994101637168
 20
-8.86635916412456
 30
0.0
 42
1.0
  0
SEQEND
  5
81F
  8
LAYER0
  0
POLYLINE
  5
F2
  8
LAYER0
 66
     1
 10
0.0
 20
0.0
 30
0.0
 70
     1
  0
VERTEX
  5
4A4
  8
LAYER0
 10
-64.043
 20
79.74299999999998
 30
0.0
 42
0.4142135623730951
  0
VERTEX
  5
4A5
  8
LAYER0
 10
-65.54299999999999
 20
78.243
 30
0.0
 42
0.4142135623730951
  0
VERTEX
  5
4A6
  8
LAYER0
 10
-64.043
 20
76.74300000000001
 30
0.0
 42
0.4142135623730951
  0
VERTEX
  5
4A7
  8
LAYER0
 10
-62.54300000000002
 20
78.243
 30
0.0
 42
0.4142135623730951
  0
SEQEND
  5
820
  8
LAYER0
  0
POLYLINE
  5
F3
  8
LAYER0
 66
     1
 10
0.0
 20
0.0
 30
0.0
 70
     1
  0
VERTEX
  5
4A8
  8
LAYER0
 10
114.0806741579148
 20
89.76853074216076
 30
0.0
 42
0.4142135623730951
  0
VERTEX
  5
4A9
  8
LAYER0
 10
112.5806741579148
 20
88.26853074216076
 30
0.0
 42
0.4142135623730951
  0
VERTEX
  5
4AA
  8
LAYER0
 10
114.0806741579148
 20
86.76853074216076
 30
0.0
 42
0.4142135623730951
  0
VERTEX
  5
4AB
  8
LAYER0
 10
115.5806741579148
 20
88.26853074216076
 30
0.0
 42
0.4142135623730951
  0
SEQEND
  5
821
  8
LAYER0
  0
POLYLINE
  5
F4
  8
LAYER0
 66
     1
 10
0.0
 20
0.0
 30
0.0
 70
     1
  0
VERTEX
  5
4AC
  8
LAYER0
 10
-53.94884383042181
 20
-98.52862377866164
 30
0.0
 42
0.4142135623730951
  0
VERTEX
  5
4AD
  8
LAYER0
 10
-55.44884383042181
 20
-100.0286237786616
 30
0.0
 42
0.4142135623730951
  0
VERTEX
  5
4AE
  8
LAYER0
 10
-53.94884383042181
 20
-101.5286237786616
 30
0.0
 42
0.4142135623730951
  0
VERTEX
  5
4AF
  8
LAYER0
 10
-52.44884383042181
 20
-100.0286237786616
 30
0.0
 42
0.4142135623730951
  0
SEQEND
  5
822
  8
LAYER0
  0
POLYLINE
  5
F5
  8
LAYER0
 66
     1
 10
0.0
 20
0.0
 30
0.0
 70
     1
  0
VERTEX
  5
4B0
  8
LAYER0
 10
124.2478182100147
 20
-88.38932598416723
 30
0.0
 42
0.4142135623730951
  0
VERTEX
  5
4B1
  8
LAYER0
 10
122.7478182100147
 20
-89.88932598416723
 30
0.0
 42
0.4142135623730951
  0
VERTEX
  5
4B2
  8
LAYER0
 10
124.2478182100147
 20
-91.38932598416723
 30
0.0
 42
0.4142135623730951
  0
VERTEX
  5
4B3
  8
LAYER0
 10
125.7478182100147
 20
-89.88932598416723
 30
0.0
 42
0.4142135623730951
  0
SEQEND
  5
823
  8
LAYER0
  0
POLYLINE
  5
F6
  8
LAYER0
 66
     1
 10
0.0
 20
0.0
 30
0.0
 70
     1
  0
VERTEX
  5
4B4
  8
LAYER0
 10
32.79518750154467
 20
-126.1382218845664
 30
0.0
  0
VERTEX
  5
4B5
  8
LAYER0
 10
32.79518750154467
 20
-106.1782218845664
 30
0.0
 42
1.0
  0
VERTEX
  5
4B6
  8
LAYER0
 10
26.29518750154467
 20
-106.1782218845664
 30
0.0
  0
VERTEX
  5
4B7
  8
LAYER0
 10
26.29518750154467
 20
-126.1382218845664
 30
0.0
 42
1.0
  0
SEQEND
  5
824
  8
LAYER0
  0
POLYLINE
  5
F7
  8
LAYER0
 66
     1
 10
0.0
 20
0.0
 30
0.0
 70
     1
  0
VERTEX
  5
4B8
  8
LAYER0
 10
-34.72779500238037
 20
-27.88488594208419
 30
0.0
  0
VERTEX
  5
4B9
  8
LAYER0
 10
28.30761534817852
 20
-3.627193342233878
 30
0.0
 42
0.3028016904310826
  0
VERTEX
  5
4BA
  8
LAYER0
 10
29.84629718185808
 20
-1.319409257207181
 30
0.0
  0
VERTEX
  5
4BB
  8
LAYER0
 10
29.84629718185808
 20
15.11511421147427
 30
0.0
 42
0.4142135351151217
  0
VERTEX
  5
4BC
  8
LAYER0
 10
27.34629732631984
 20
17.61511412574007
 30
0.0
  0
VERTEX
  5
4BD
  8
LAYER0
 10
24.84629731750615
 20
17.61511405791603
 30
0.0
  0
VERTEX
  5
4BE
  8
LAYER0
 10
24.84571877306345
 20
17.65314291221759
 30
0.0
 42
-0.4186421535600553
  0
VERTEX
  5
4BF
  8
LAYER0
 10
22.34629718185803
 20
15.11511405791603
 30
0.0
  0
VERTEX
  5
4C0
  8
LAYER0
 10
-40.1537028181417
 20
15.11511405791603
 30
0.0
  0
VERTEX
  5
4C1
  8
LAYER0
 10
-40.1537028181417
 20
10.11511405791598
 30
0.0
 42
-1.0
  0
VERTEX
  5
4C2
  8
LAYER0
 10
-40.1537028181417
 20
5.11511405791592
 30
0.0
  0
VERTEX
  5
4C3
  8
LAYER0
 10
-43.6537028181417
 20
5.11511405791592
 30
0.0
 42
0.4142135624579805
  0
VERTEX
  5
4C4
  8
LAYER0
 10
-46.15370281814158
 20
2.61511405791592
 30
0.0
  0
VERTEX
  5
4C5
  8
LAYER0
 10
-46.15370281814158
 20
-12.38488594208414
 30
0.0
 42
0.4142135611896177
  0
VERTEX
  5
4C6
  8
LAYER0
 10
-43.6537028181417
 20
-14.88488594208416
 30
0.0
  0
VERTEX
  5
4C7
  8
LAYER0
 10
-40.1537028181417
 20
-14.88488594208416
 30
0.0
 42
-1.0
  0
VERTEX
  5
4C8
  8
LAYER0
 10
-40.1537028181417
 20
-19.88488594208414
 30
0.0
  0
VERTEX
  5
4C9
  8
LAYER0
 10
-40.1537028181417
 20
-27.83742271343119
 30
0.0
  0
SEQEND
  5
825
  8
LAYER0
  0
POLYLINE
  5
F8
  8
LAYER0
 66
     1
 10
0.0
 20
0.0
 30
0.0
 70
     1
  0
VERTEX
  5
4CA
  8
LAYER0
 10
94.24405718448418
 20
13.50080970484482
 30
0.0
  0
VERTEX
  5
4CB
  8
LAYER0
 10
31.20864683392529
 20
-10.75688289500549
 30
0.0
 42
0.3028016904310826
  0
VERTEX
  5
4CC
  8
LAYER0
 10
29.66996500024572
 20
-13.06466698003219
 30
0.0
  0
VERTEX
  5
4CD
  8
LAYER0
 10
29.66996500024572
 20
-29.49919044871363
 30
0.0
 42
0.4142135351151217
  0
VERTEX
  5
4CE
  8
LAYER0
 10
32.16996485578397
 20
-31.99919036297943
 30
0.0
  0
VERTEX
  5
4CF
  8
LAYER0
 10
34.66996486459766
 20
-31.9991902951554
 30
0.0
  0
VERTEX
  5
4D0
  8
LAYER0
 10
34.67054340904036
 20
-32.03721914945696
 30
0.0
 42
-0.4186421535600553
  0
VERTEX
  5
4D1
  8
LAYER0
 10
37.16996500024578
 20
-29.4991902951554
 30
0.0
  0
VERTEX
  5
4D2
  8
LAYER0
 10
99.6699650002455
 20
-29.4991902951554
 30
0.0
  0
VERTEX
  5
4D3
  8
LAYER0
 10
99.6699650002455
 20
-24.49919029515534
 30
0.0
 42
-1.0
  0
VERTEX
  5
4D4
  8
LAYER0
 10
99.6699650002455
 20
-19.49919029515529
 30
0.0
  0
VERTEX
  5
4D5
  8
LAYER0
 10
103.1699650002455
 20
-19.49919029515529
 30
0.0
 42
0.4142135624579805
  0
VERTEX
  5
4D6
  8
LAYER0
 10
105.6699650002454
 20
-16.99919029515529
 30
0.0
  0
VERTEX
  5
4D7
  8
LAYER0
 10
105.6699650002454
 20
-1.999190295155235
 30
0.0
 42
0.4142135611896177
  0
VERTEX
  5
4D8
  8
LAYER0
 10
103.1699650002455
 20
0.5008097048447935
 30
0.0
  0
VERTEX
  5
4D9
  8
LAYER0
 10
99.6699650002455
 20
0.5008097048447935
 30
0.0
 42
-1.0
  0
VERTEX
  5
4DA
  8
LAYER0
 10
99.6699650002455
 20
5.500809704844767
 30
0.0
  0
VERTEX
  5
4DB
  8
LAYER0
 10
99.6699650002455
 20
13.45334647619182
 30
0.0
  0
SEQEND
  5
826
  8
LAYER0
  0
POLYLINE
  5
F9
  8
LAYER0
 66
     1
 10
0.0
 20
0.0
 30
0.0
 70
     1
  0
VERTEX
  5
4DC
  8
LAYER0
 10
-194.4528580894259
 20
-103.5442508048773
 30
0.0
  0
VERTEX
  5
4DD
  8
LAYER0
 10
-190.178451756972
 20
-103.0059922296794
 30
0.0
  0
VERTEX
  5
4DE
  8
LAYER0
 10
-190.1326074297953
 20
-103.2220212534261
 30
0.0
  0
VERTEX
  5
4DF
  8
LAYER0
 10
-190.079507165943
 20
-103.4215595120013
 30
0.0
  0
VERTEX
  5
4E0
  8
LAYER0
 10
-190.0191509654153
 20
-103.604607005405
 30
0.0
  0
VERTEX
  5
4E1
  8
LAYER0
 10
-189.9515388282122
 20
-103.7711637336372
 30
0.0
  0
VERTEX
  5
4E2
  8
LAYER0
 10
-189.8766707543336
 20
-103.9212296966979
 30
0.0
  0
VERTEX
  5
4E3
  8
LAYER0
 10
-189.7945467437794
 20
-104.0548048945871
 30
0.0
  0
VERTEX
  5
4E4
  8
LAYER0
 10
-189.7051667965499
 20
-104.1718893273047
 30
0.0
  0
VERTEX
  5
4E5
  8
LAYER0
 10
-189.6085309126449
 20
-104.2724829948509
 30
0.0
  0
VERTEX
  5
4E6
  8
LAYER0
 10
-189.505463630323
 20
-104.3590595120013
 30
0.0
  0
VERTEX
  5
4E7
  8
LAYER0
 10
-189.3967894878428
 20
-104.4340924935317
 30
0.0
  0
VERTEX
  5
4E8
  8
LAYER0
 10
-189.2825084852043
 20
-104.4975819394419
 30
0.0
  0
VERTEX
  5
4E9
  8
LAYER0
 10
-189.1626206224074
 20
-104.5495278497322
 30
0.0
  0
VERTEX
  5
4EA
  8
LAYER0
 10
-189.0371258994523
 20
-104.5899302244024
 30
0.0
  0
VERTEX
  5
4EB
  8
LAYER0
 10
-188.9060243163388
 20
-104.6187890634525
 30
0.0
  0
VERTEX
  5
4EC
  8
LAYER0
 10
-188.769315873067
 20
-104.6361043668826
 30
0.0
  0
VERTEX
  5
4ED
  8
LAYER0
 10
-188.6270005696369
 20
-104.6418761346926
 30
0.0
  0
VERTEX
  5
4EE
  8
LAYER0
 10
-188.4994857279483
 20
-104.6377946703126
 30
0.0
  0
VERTEX
  5
4EF
  8
LAYER0
 10
-188.3755164007715
 20
-104.6255502771728
 30
0.0
  0
VERTEX
  5
4F0
  8
LAYER0
 10
-188.2550925881066
 20
-104.6051429552731
 30
0.0
  0
VERTEX
  5
4F1
  8
LAYER0
 10
-188.1382142899536
 20
-104.5765727046134
 30
0.0
  0
VERTEX
  5
4F2
  8
LAYER0
 10
-188.0248815063124
 20
-104.5398395251939
 30
0.0
  0
VERTEX
  5
4F3
  8
LAYER0
 10
-187.9150942371831
 20
-104.4949434170145
 30
0.0
  0
VERTEX
  5
4F4
  8
LAYER0
 10
-187.8088524825657
 20
-104.4418843800752
 30
0.0
  0
VERTEX
  5
4F5
  8
LAYER0
 10
-187.7061562424602
 20
-104.380662414376
 30
0.0
  0
VERTEX
  5
4F6
  8
LAYER0
 10
-187.6070055168665
 20
-104.3112775199169
 30
0.0
  0
VERTEX
  5
4F7
  8
LAYER0
 10
-187.5114003057847
 20
-104.2337296966979
 30
0.0
  0
VERTEX
  5
4F8
  8
LAYER0
 10
-187.4193406092148
 20
-104.148018944719
 30
0.0
  0
VERTEX
  5
4F9
  8
LAYER0
 10
-187.3308264271567
 20
-104.0541452639802
 30
0.0
  0
VERTEX
  5
4FA
  8
LAYER0
 10
-187.2458577596105
 20
-103.9521086544815
 30
0.0
  0
VERTEX
  5
4FB
  8
LAYER0
 10
-187.1644346065763
 20
-103.841909116223
 30
0.0
  0
VERTEX
  5
4FC
  8
LAYER0
 10
-187.0122248440433
 20
-103.5970212534261
 30
0.0
  0
VERTEX
  5
4FD
  8
LAYER0
 10
-186.90998209998
 20
-103.3775291689934
 30
0.0
  0
VERTEX
  5
4FE
  8
LAYER0
 10
-186.8143356619852
 20
-103.1042771901016
 30
0.0
  0
VERTEX
  5
4FF
  8
LAYER0
 10
-186.7252855300591
 20
-102.7772653167506
 30
0.0
  0
VERTEX
  5
500
  8
LAYER0
 10
-186.6428317042016
 20
-102.3964935489406
 30
0.0
  0
VERTEX
  5
501
  8
LAYER0
 10
-186.5669741844127
 20
-101.9619618866715
 30
0.0
  0
VERTEX
  5
502
  8
LAYER0
 10
-186.4977129706924
 20
-101.4736703299432
 30
0.0
  0
VERTEX
  5
503
  8
LAYER0
 10
-186.4350480630407
 20
-100.9316188787559
 30
0.0
  0
VERTEX
  5
504
  8
LAYER0
 10
-186.3789794614575
 20
-100.3358075331095
 30
0.0
  0
VERTEX
  5
505
  8
LAYER0
 10
-186.5722512292676
 20
-100.5271004090989
 30
0.0
  0
VERTEX
  5
506
  8
LAYER0
 10
-186.7668422582913
 20
-100.7052006729512
 30
0.0
  0
VERTEX
  5
507
  8
LAYER0
 10
-186.9627525485288
 20
-100.8701083246662
 30
0.0
  0
VERTEX
  5
508
  8
LAYER0
 10
-187.15998209998
 20
-101.021823364244
 30
0.0
  0
VERTEX
  5
509
  8
LAYER0
 10
-187.3585309126449
 20
-101.1603457916847
 30
0.0
  0
VERTEX
  5
50A
  8
LAYER0
 10
-187.5583989865235
 20
-101.2856756069881
 30
0.0
  0
VERTEX
  5
50B
  8
LAYER0
 10
-187.7595863216159
 20
-101.3978128101543
 30
0.0
  0
VERTEX
  5
50C
  8
LAYER0
 10
-187.9620929179219
 20
-101.4967574011834
 30
0.0
  0
VERTEX
  5
50D
  8
LAYER0
 10
-188.169216928476
 20
-101.5833339183338
 30
0.0
  0
VERTEX
  5
50E
  8
LAYER0
 10
-188.3842565063124
 20
-101.6583668998641
 30
0.0
  0
VERTEX
  5
50F
  8
LAYER0
 10
-188.6072116514312
 20
-101.7218563457744
 30
0.0
  0
VERTEX
  5
510
  8
LAYER0
 10
-188.8380823638322
 20
-101.7738022560646
 30
0.0
  0
VERTEX
  5
511
  8
LAYER0
 10
-189.0768686435156
 20
-101.8142046307348
 30
0.0
  0
VERTEX
  5
512
  8
LAYER0
 10
-189.3235704904813
 20
-101.8430634697849
 30
0.0
  0
VERTEX
  5
513
  8
LAYER0
 10
-189.5781879047293
 20
-101.860378773215
 30
0.0
  0
VERTEX
  5
514
  8
LAYER0
 10
-189.8407208862596
 20
-101.866150541025
 30
0.0
  0
VERTEX
  5
515
  8
LAYER0
 10
-190.0980798902174
 20
-101.860378773215
 30
0.0
  0
VERTEX
  5
516
  8
LAYER0
 10
-190.350367983885
 20
-101.8430634697849
 30
0.0
  0
VERTEX
  5
517
  8
LAYER0
 10
-190.5975851672623
 20
-101.8142046307348
 30
0.0
  0
VERTEX
  5
518
  8
LAYER0
 10
-190.8397314403493
 20
-101.7738022560646
 30
0.0
  0
VERTEX
  5
519
  8
LAYER0
 10
-191.0768068031462
 20
-101.7218563457744
 30
0.0
  0
VERTEX
  5
51A
  8
LAYER0
 10
-191.3088112556528
 20
-101.6583668998641
 30
0.0
  0
VERTEX
  5
51B
  8
LAYER0
 10
-191.5357447978691
 20
-101.5833339183338
 30
0.0
  0
VERTEX
  5
51C
  8
LAYER0
 10
-191.7576074297953
 20
-101.4967574011834
 30
0.0
  0
VERTEX
  5
51D
  8
LAYER0
 10
-191.9743991514311
 20
-101.3986373484129
 30
0.0
  0
VERTEX
  5
51E
  8
LAYER0
 10
-192.1861199627768
 20
-101.2889737600224
 30
0.0
  0
VERTEX
  5
51F
  8
LAYER0
 10
-192.3927698638322
 20
-101.1677666360119
 30
0.0
  0
VERTEX
  5
520
  8
LAYER0
 10
-192.5943488545974
 20
-101.0350159763812
 30
0.0
  0
VERTEX
  5
521
  8
LAYER0
 10
-192.7908569350723
 20
-100.8907217811306
 30
0.0
  0
VERTEX
  5
522
  8
LAYER0
 10
-192.982294105257
 20
-100.7348840502599
 30
0.0
  0
VERTEX
  5
523
  8
LAYER0
 10
-193.1686603651515
 20
-100.5675027837691
 30
0.0
  0
VERTEX
  5
524
  8
LAYER0
 10
-193.3499557147557
 20
-100.3885779816583
 30
0.0
  0
VERTEX
  5
525
  8
LAYER0
 10
-193.5231293625129
 20
-100.2008306201807
 30
0.0
  0
VERTEX
  5
526
  8
LAYER0
 10
-193.6851305168665
 20
-100.0069816755897
 30
0.0
  0
VERTEX
  5
527
  8
LAYER0
 10
-193.8359591778164
 20
-99.8070311478852
 30
0.0
  0
VERTEX
  5
528
  8
LAYER0
 10
-193.9756153453625
 20
-99.60097903706725
 30
0.0
  0
VERTEX
  5
529
  8
LAYER0
 10
-194.104099019505
 20
-99.38882534313586
 30
0.0
  0
VERTEX
  5
52A
  8
LAYER0
 10
-194.2214102002438
 20
-99.17057006609102
 30
0.0
  0
VERTEX
  5
52B
  8
LAYER0
 10
-194.3275488875789
 20
-98.9462132059327
 30
0.0
  0
VERTEX
  5
52C
  8
LAYER0
 10
-194.4225150815103
 20
-98.71575476266094
 30
0.0
  0
VERTEX
  5
52D
  8
LAYER0
 10
-194.506308782038
 20
-98.4791947362757
 30
0.0
  0
VERTEX
  5
52E
  8
LAYER0
 10
-194.578929989162
 20
-98.23653312677703
 30
0.0
  0
VERTEX
  5
52F
  8
LAYER0
 10
-194.6403787028823
 20
-97.98776993416487
 30
0.0
  0
VERTEX
  5
530
  8
LAYER0
 10
-194.690654923199
 20
-97.73290515843928
 30
0.0
  0
VERTEX
  5
531
  8
LAYER0
 10
-194.7297586501119
 20
-97.47193879960022
 30
0.0
  0
VERTEX
  5
532
  8
LAYER0
 10
-194.7576898836211
 20
-97.20487085764773
 30
0.0
  0
VERTEX
  5
533
  8
LAYER0
 10
-194.7744486237266
 20
-96.93170133258175
 30
0.0
  0
VERTEX
  5
534
  8
LAYER0
 10
-194.7800348704285
 20
-96.65243022440235
 30
0.0
  0
VERTEX
  5
535
  8
LAYER0
 10
-194.7686562424601
 20
-96.27149354894061
 30
0.0
  0
VERTEX
  5
536
  8
LAYER0
 10
-194.7345203585551
 20
-95.89913207136806
 30
0.0
  0
VERTEX
  5
537
  8
LAYER0
 10
-194.6776272187134
 20
-95.53534579168468
 30
0.0
  0
VERTEX
  5
538
  8
LAYER0
 10
-194.5979768229351
 20
-95.18013470989048
 30
0.0
  0
VERTEX
  5
539
  8
LAYER0
 10
-194.49556917122
 20
-94.83349882598546
 30
0.0
  0
VERTEX
  5
53A
  8
LAYER0
 10
-194.3704042635684
 20
-94.49543813996964
 30
0.0
  0
VERTEX
  5
53B
  8
LAYER0
 10
-194.22248209998
 20
-94.16595265184299
 30
0.0
  0
VERTEX
  5
53C
  8
LAYER0
 10
-194.0518026804549
 20
-93.84504236160552
 30
0.0
  0
VERTEX
  5
53D
  8
LAYER0
 10
-193.8611694350723
 20
-93.53806676793798
 30
0.0
  0
VERTEX
  5
53E
  8
LAYER0
 10
-193.6533857939114
 20
-93.25038536952108
 30
0.0
  0
VERTEX
  5
53F
  8
LAYER0
 10
-193.428451756972
 20
-92.98199816635486
 30
0.0
  0
VERTEX
  5
540
  8
LAYER0
 10
-193.1863673242544
 20
-92.7329051584393
 30
0.0
  0
VERTEX
  5
541
  8
LAYER0
 10
-192.9271324957583
 20
-92.5031063457744
 30
0.0
  0
VERTEX
  5
542
  8
LAYER0
 10
-192.6507472714839
 20
-92.29260172836014
 30
0.0
  0
VERTEX
  5
543
  8
LAYER0
 10
-192.3572116514312
 20
-92.10139130619655
 30
0.0
  0
VERTEX
  5
544
  8
LAYER0
 10
-192.0465256356
 20
-91.92947507928362
 30
0.0
  0
VERTEX
  5
545
  8
LAYER0
 10
-191.7170401474734
 20
-91.77734777057651
 30
0.0
  0
VERTEX
  5
546
  8
LAYER0
 10
-191.3671061105341
 20
-91.64550410303033
 30
0.0
  0
VERTEX
  5
547
  8
LAYER0
 10
-190.9967235247821
 20
-91.53394407664511
 30
0.0
  0
VERTEX
  5
548
  8
LAYER0
 10
-190.6058923902174
 20
-91.44266769142084
 30
0.0
  0
VERTEX
  5
549
  8
LAYER0
 10
-190.1946127068401
 20
-91.37167494735752
 30
0.0
  0
VERTEX
  5
54A
  8
LAYER0
 10
-189.7628844746501
 20
-91.32096584445513
 30
0.0
  0
VERTEX
  5
54B
  8
LAYER0
 10
-189.3107076936475
 20
-91.29054038271371
 30
0.0
  0
VERTEX
  5
54C
  8
LAYER0
 10
-188.8380823638322
 20
-91.28039856213323
 30
0.0
  0
VERTEX
  5
54D
  8
LAYER0
 10
-188.2719543954945
 20
-91.2928490898377
 30
0.0
  0
VERTEX
  5
54E
  8
LAYER0
 10
-187.7345203585552
 20
-91.33020067295116
 30
0.0
  0
VERTEX
  5
54F
  8
LAYER0
 10
-187.2257802530143
 20
-91.39245331147359
 30
0.0
  0
VERTEX
  5
550
  8
LAYER0
 10
-186.7457340788718
 20
-91.479607005405
 30
0.0
  0
VERTEX
  5
551
  8
LAYER0
 10
-186.5164712160749
 20
-91.53252174814907
 30
0.0
  0
VERTEX
  5
552
  8
LAYER0
 10
-186.2943818361277
 20
-91.59166175474536
 30
0.0
  0
VERTEX
  5
553
  8
LAYER0
 10
-186.0794659390301
 20
-91.65702702519391
 30
0.0
  0
VERTEX
  5
554
  8
LAYER0
 10
-185.8717235247821
 20
-91.72861755949471
 30
0.0
  0
VERTEX
  5
555
  8
LAYER0
 10
-185.6711545933836
 20
-91.80643335764773
 30
0.0
  0
VERTEX
  5
556
  8
LAYER0
 10
-185.4777591448348
 20
-91.89047441965302
 30
0.0
  0
VERTEX
  5
557
  8
LAYER0
 10
-185.2915371791356
 20
-91.98074074551053
 30
0.0
  0
VERTEX
  5
558
  8
LAYER0
 10
-185.112488696286
 20
-92.0772323352203
 30
0.0
  0
VERTEX
  5
559
  8
LAYER0
 10
-184.9392325947029
 20
-92.18050575210684
 30
0.0
  0
VERTEX
  5
55A
  8
LAYER0
 10
-184.7703877728032
 20
-92.2911175594947
 30
0.0
  0
VERTEX
  5
55B
  8
LAYER0
 10
-184.6059542305868
 20
-92.40906775738388
 30
0.0
  0
VERTEX
  5
55C
  8
LAYER0
 10
-184.4459319680538
 20
-92.53435634577438
 30
0.0
  0
VERTEX
  5
55D
  8
LAYER0
 10
-184.2903209852042
 20
-92.6669833246662
 30
0.0
  0
VERTEX
  5
55E
  8
LAYER0
 10
-184.139121282038
 20
-92.80694869405934
 30
0.0
  0
VERTEX
  5
55F
  8
LAYER0
 10
-183.9923328585551
 20
-92.95425245395381
 30
0.0
  0
VERTEX
  5
560
  8
LAYER0
 10
-183.8499557147557
 20
-93.10889460434959
 30
0.0
  0
VERTEX
  5
561
  8
LAYER0
 10
-183.7119898506396
 20
-93.27087514524669
 30
0.0
  0
VERTEX
  5
562
  8
LAYER0
 10
-183.5784352662068
 20
-93.4401940766451
 30
0.0
  0
VERTEX
  5
563
  8
LAYER0
 10
-183.4492919614575
 20
-93.61685139854484
 30
0.0
  0
VERTEX
  5
564
  8
LAYER0
 10
-183.3245599363916
 20
-93.8008471109459
 30
0.0
  0
VERTEX
  5
565
  8
LAYER0
 10
-183.204239191009
 20
-93.99218121384827
 30
0.0
  0
VERTEX
  5
566
  8
LAYER0
 10
-183.0883297253098
 20
-94.19085370725196
 30
0.0
  0
VERTEX
  5
567
  8
LAYER0
 10
-182.8697446329615
 20
-94.61021386556331
 30
0.0
  0
VERTEX
  5
568
  8
LAYER0
 10
-182.7681409060486
 20
-94.8315817745343
 30
0.0
  0
VERTEX
  5
569
  8
LAYER0
 10
-182.6730922582913
 20
-95.06164856213324
 30
0.0
  0
VERTEX
  5
56A
  8
LAYER0
 10
-182.5845986896897
 20
-95.30041422836017
 30
0.0
  0
VERTEX
  5
56B
  8
LAYER0
 10
-182.5026602002438
 20
-95.54787877321503
 30
0.0
  0
VERTEX
  5
56C
  8
LAYER0
 10
-182.4272767899536
 20
-95.80404219669788
 30
0.0
  0
VERTEX
  5
56D
  8
LAYER0
 10
-182.358448458819
 20
-96.0689044988087
 30
0.0
  0
VERTEX
  5
56E
  8
LAYER0
 10
-182.2961752068401
 20
-96.3424656795475
 30
0.0
  0
VERTEX
  5
56F
  8
LAYER0
 10
-182.2404570340169
 20
-96.62472573891424
 30
0.0
  0
VERTEX
  5
570
  8
LAYER0
 10
-182.1912939403493
 20
-96.91568467690897
 30
0.0
  0
VERTEX
  5
571
  8
LAYER0
 10
-182.1486859258375
 20
-97.21534249353167
 30
0.0
  0
VERTEX
  5
572
  8
LAYER0
 10
-182.0831351342807
 20
-97.84075476266094
 30
0.0
  0
VERTEX
  5
573
  8
LAYER0
 10
-182.0438046593467
 20
-98.50096254630209
 30
0.0
  0
VERTEX
  5
574
  8
LAYER0
 10
-182.0306945010354
 20
-99.19596584445513
 30
0.0
  0
VERTEX
  5
575
  8
LAYER0
 10
-182.0375793954944
 20
-99.71095182730473
 30
0.0
  0
VERTEX
  5
576
  8
LAYER0
 10
-182.0582340788718
 20
-100.2084163721596
 30
0.0
  0
VERTEX
  5
577
  8
LAYER0
 10
-182.0926585511673
 20
-100.6883594790198
 30
0.0
  0
VERTEX
  5
578
  8
LAYER0
 10
-182.140852812381
 20
-101.1507811478852
 30
0.0
  0
VERTEX
  5
579
  8
LAYER0
 10
-182.2028168625129
 20
-101.5956813787559
 30
0.0
  0
VERTEX
  5
57A
  8
LAYER0
 10
-182.2785507015631
 20
-102.0230601716319
 30
0.0
  0
VERTEX
  5
57B
  8
LAYER0
 10
-182.3680543295314
 20
-102.4329175265132
 30
0.0
  0
VERTEX
  5
57C
  8
LAYER0
 10
-182.471327746418
 20
-102.8252534433997
 30
0.0
  0
VERTEX
  5
57D
  8
LAYER0
 10
-182.5883709522227
 20
-103.2000679222915
 30
0.0
  0
VERTEX
  5
57E
  8
LAYER0
 10
-182.7191839469456
 20
-103.5573609631886
 30
0.0
  0
VERTEX
  5
57F
  8
LAYER0
 10
-182.8637667305868
 20
-103.897132566091
 30
0.0
  0
VERTEX
  5
580
  8
LAYER0
 10
-183.0221193031462
 20
-104.2193827309987
 30
0.0
  0
VERTEX
  5
581
  8
LAYER0
 10
-183.1942416646237
 20
-104.5241114579116
 30
0.0
  0
VERTEX
  5
582
  8
LAYER0
 10
-183.3801338150195
 20
-104.8113187468298
 30
0.0
  0
VERTEX
  5
583
  8
LAYER0
 10
-183.5797957543335
 20
-105.0810045977533
 30
0.0
  0
VERTEX
  5
584
  8
LAYER0
 10
-183.7932274825657
 20
-105.333169010682
 30
0.0
  0
VERTEX
  5
585
  8
LAYER0
 10
-184.0188623770248
 20
-105.5689663391781
 30
0.0
  0
VERTEX
  5
586
  8
LAYER0
 10
-184.2551338150195
 20
-105.7895509368034
 30
0.0
  0
VERTEX
  5
587
  8
LAYER0
 10
-184.5020417965499
 20
-105.994922803558
 30
0.0
  0
VERTEX
  5
588
  8
LAYER0
 10
-184.7595863216158
 20
-106.1850819394419
 30
0.0
  0
VERTEX
  5
589
  8
LAYER0
 10
-185.0277673902174
 20
-106.3600283444551
 30
0.0
  0
VERTEX
  5
58A
  8
LAYER0
 10
-185.3065850023546
 20
-106.5197620185976
 30
0.0
  0
VERTEX
  5
58B
  8
LAYER0
 10
-185.5960391580275
 20
-106.6642829618694
 30
0.0
  0
VERTEX
  5
58C
  8
LAYER0
 10
-185.8961298572359
 20
-106.7935911742704
 30
0.0
  0
VERTEX
  5
58D
  8
LAYER0
 10
-186.20685709998
 20
-106.9076866558008
 30
0.0
  0
VERTEX
  5
58E
  8
LAYER0
 10
-186.5282208862596
 20
-107.0065694064604
 30
0.0
  0
VERTEX
  5
58F
  8
LAYER0
 10
-186.8602212160749
 20
-107.0902394262493
 30
0.0
  0
VERTEX
  5
590
  8
LAYER0
 10
-187.2028580894259
 20
-107.1586967151675
 30
0.0
  0
VERTEX
  5
591
  8
LAYER0
 10
-187.5561315063124
 20
-107.211941273215
 30
0.0
  0
VERTEX
  5
592
  8
LAYER0
 10
-187.9200414667346
 20
-107.2499731003918
 30
0.0
  0
VERTEX
  5
593
  8
LAYER0
 10
-188.2945879706924
 20
-107.2727921966979
 30
0.0
  0
VERTEX
  5
594
  8
LAYER0
 10
-188.6797710181858
 20
-107.2803985621332
 30
0.0
  0
VERTEX
  5
595
  8
LAYER0
 10
-189.129309276761
 20
-107.2737198022388
 30
0.0
  0
VERTEX
  5
596
  8
LAYER0
 10
-189.5544412028823
 20
-107.2536835225554
 30
0.0
  0
VERTEX
  5
597
  8
LAYER0
 10
-189.9551667965499
 20
-107.2202897230831
 30
0.0
  0
VERTEX
  5
598
  8
LAYER0
 10
-190.3314860577636
 20
-107.1735384038219
 30
0.0
  0
VERTEX
  5
599
  8
LAYER0
 10
-190.6833989865235
 20
-107.1134295647718
 30
0.0
  0
VERTEX
  5
59A
  8
LAYER0
 10
-191.0109055828296
 20
-107.0399632059327
 30
0.0
  0
VERTEX
  5
59B
  8
LAYER0
 10
-191.3140058466818
 20
-106.9531393273047
 30
0.0
  0
VERTEX
  5
59C
  8
LAYER0
 10
-191.5926997780802
 20
-106.8529579288878
 30
0.0
  0
VERTEX
  5
59D
  8
LAYER0
 10
-191.8535836830934
 20
-106.7399137336372
 30
0.0
  0
VERTEX
  5
59E
  8
LAYER0
 10
-192.10325386779
 20
-106.6145014645079
 30
0.0
  0
VERTEX
  5
59F
  8
LAYER0
 10
-192.3417103321699
 20
-106.4767211215
 30
0.0
  0
VERTEX
  5
5A0
  8
LAYER0
 10
-192.5689530762332
 20
-106.3265727046134
 30
0.0
  0
VERTEX
  5
5A1
  8
LAYER0
 10
-192.7849820999799
 20
-106.1640562138483
 30
0.0
  0
VERTEX
  5
5A2
  8
LAYER0
 10
-192.98979740341
 20
-105.9891716492045
 30
0.0
  0
VERTEX
  5
5A3
  8
LAYER0
 10
-193.1833989865235
 20
-105.801919010682
 30
0.0
  0
VERTEX
  5
5A4
  8
LAYER0
 10
-193.3657868493203
 20
-105.602298298281
 30
0.0
  0
VERTEX
  5
5A5
  8
LAYER0
 10
-193.5374557147557
 20
-105.3900621505237
 30
0.0
  0
VERTEX
  5
5A6
  8
LAYER0
 10
-193.6989003057847
 20
-105.1649632059327
 30
0.0
  0
VERTEX
  5
5A7
  8
LAYER0
 10
-193.8501206224074
 20
-104.9270014645079
 30
0.0
  0
VERTEX
  5
5A8
  8
LAYER0
 10
-193.9911166646237
 20
-104.6761769262493
 30
0.0
  0
VERTEX
  5
5A9
  8
LAYER0
 10
-194.1218884324338
 20
-104.412489591157
 30
0.0
  0
VERTEX
  5
5AA
  8
LAYER0
 10
-194.2424359258375
 20
-104.1359394592309
 30
0.0
  0
VERTEX
  5
5AB
  8
LAYER0
 10
-194.3527591448348
 20
-103.846526530471
 30
0.0
  0
SEQEND
  5
827
  8
LAYER0
  0
POLYLINE
  5
FA
  8
LAYER0
 66
     1
 10
0.0
 20
0.0
 30
0.0
 70
     1
  0
VERTEX
  5
5AC
  8
LAYER0
 10
-186.537290807104
 20
-96.6418761346926
 30
0.0
  0
VERTEX
  5
5AD
  8
LAYER0
 10
-186.5471852662069
 20
-96.33638470989047
 30
0.0
  0
VERTEX
  5
5AE
  8
LAYER0
 10
-186.5768686435156
 20
-96.04787877321502
 30
0.0
  0
VERTEX
  5
5AF
  8
LAYER0
 10
-186.6263409390301
 20
-95.7763583246662
 30
0.0
  0
VERTEX
  5
5B0
  8
LAYER0
 10
-186.6956021527504
 20
-95.52182336424404
 30
0.0
  0
VERTEX
  5
5B1
  8
LAYER0
 10
-186.7846522846765
 20
-95.28427389194853
 30
0.0
  0
VERTEX
  5
5B2
  8
LAYER0
 10
-186.8934913348085
 20
-95.06370990777967
 30
0.0
  0
VERTEX
  5
5B3
  8
LAYER0
 10
-187.0221193031462
 20
-94.86013141173744
 30
0.0
  0
VERTEX
  5
5B4
  8
LAYER0
 10
-187.1705361896897
 20
-94.67353840382188
 30
0.0
  0
VERTEX
  5
5B5
  8
LAYER0
 10
-187.3331351342808
 20
-94.50656940646039
 30
0.0
  0
VERTEX
  5
5B6
  8
LAYER0
 10
-187.504309276761
 20
-94.36186294208045
 30
0.0
  0
VERTEX
  5
5B7
  8
LAYER0
 10
-187.6840586171304
 20
-94.23941901068203
 30
0.0
  0
VERTEX
  5
5B8
  8
LAYER0
 10
-187.8723831553889
 20
-94.13923761226515
 30
0.0
  0
VERTEX
  5
5B9
  8
LAYER0
 10
-188.0692828915367
 20
-94.06131874682978
 30
0.0
  0
VERTEX
  5
5BA
  8
LAYER0
 10
-188.2747578255737
 20
-94.00566241437596
 30
0.0
  0
VERTEX
  5
5BB
  8
LAYER0
 10
-188.4888079574998
 20
-93.97226861490367
 30
0.0
  0
VERTEX
  5
5BC
  8
LAYER0
 10
-188.7114332873151
 20
-93.9611373484129
 30
0.0
  0
VERTEX
  5
5BD
  8
LAYER0
 10
-188.9206186435156
 20
-93.97119671516752
 30
0.0
  0
VERTEX
  5
5BE
  8
LAYER0
 10
-189.1207340788718
 20
-94.00137481543138
 30
0.0
  0
VERTEX
  5
5BF
  8
LAYER0
 10
-189.3117795933837
 20
-94.05167164920447
 30
0.0
  0
VERTEX
  5
5C0
  8
LAYER0
 10
-189.4937551870512
 20
-94.12208721648679
 30
0.0
  0
VERTEX
  5
5C1
  8
LAYER0
 10
-189.6666608598744
 20
-94.21262151727835
 30
0.0
  0
VERTEX
  5
5C2
  8
LAYER0
 10
-189.8304966118533
 20
-94.32327455157915
 30
0.0
  0
VERTEX
  5
5C3
  8
LAYER0
 10
-189.9852624429879
 20
-94.45404631938916
 30
0.0
  0
VERTEX
  5
5C4
  8
LAYER0
 10
-190.1309583532781
 20
-94.60493682070842
 30
0.0
  0
VERTEX
  5
5C5
  8
LAYER0
 10
-190.2632967437794
 20
-94.77594605553692
 30
0.0
  0
VERTEX
  5
5C6
  8
LAYER0
 10
-190.3779900155473
 20
-94.96707402387466
 30
0.0
  0
VERTEX
  5
5C7
  8
LAYER0
 10
-190.4750381685816
 20
-95.17832072572162
 30
0.0
  0
VERTEX
  5
5C8
  8
LAYER0
 10
-190.5544412028823
 20
-95.40968616107781
 30
0.0
  0
VERTEX
  5
5C9
  8
LAYER0
 10
-190.6161991184496
 20
-95.66117032994325
 30
0.0
  0
VERTEX
  5
5CA
  8
LAYER0
 10
-190.6603119152834
 20
-95.93277323231791
 30
0.0
  0
VERTEX
  5
5CB
  8
LAYER0
 10
-190.6867795933837
 20
-96.22449486820183
 30
0.0
  0
VERTEX
  5
5CC
  8
LAYER0
 10
-190.6956021527504
 20
-96.53633523759497
 30
0.0
  0
VERTEX
  5
5CD
  8
LAYER0
 10
-190.6864497780802
 20
-96.85130885237069
 30
0.0
  0
VERTEX
  5
5CE
  8
LAYER0
 10
-190.6589926540697
 20
-97.14715317954747
 30
0.0
  0
VERTEX
  5
5CF
  8
LAYER0
 10
-190.6132307807187
 20
-97.42386821912532
 30
0.0
  0
VERTEX
  5
5D0
  8
LAYER0
 10
-190.5491641580275
 20
-97.68145397110419
 30
0.0
  0
VERTEX
  5
5D1
  8
LAYER0
 10
-190.4667927859958
 20
-97.91991043548416
 30
0.0
  0
VERTEX
  5
5D2
  8
LAYER0
 10
-190.3661166646237
 20
-98.13923761226515
 30
0.0
  0
VERTEX
  5
5D3
  8
LAYER0
 10
-190.2471357939114
 20
-98.33943550144721
 30
0.0
  0
VERTEX
  5
5D4
  8
LAYER0
 10
-190.1098501738586
 20
-98.52050410303033
 30
0.0
  0
VERTEX
  5
5D5
  8
LAYER0
 10
-189.9588772187135
 20
-98.6812890634525
 30
0.0
  0
VERTEX
  5
5D6
  8
LAYER0
 10
-189.798834342724
 20
-98.8206360291517
 30
0.0
  0
VERTEX
  5
5D7
  8
LAYER0
 10
-189.6297215458903
 20
-98.93854500012796
 30
0.0
  0
VERTEX
  5
5D8
  8
LAYER0
 10
-189.4515388282122
 20
-99.03501597638125
 30
0.0
  0
VERTEX
  5
5D9
  8
LAYER0
 10
-189.2642861896898
 20
-99.11004895791159
 30
0.0
  0
VERTEX
  5
5DA
  8
LAYER0
 10
-189.067963630323
 20
-99.16364394471898
 30
0.0
  0
VERTEX
  5
5DB
  8
LAYER0
 10
-188.8625711501119
 20
-99.19580093680341
 30
0.0
  0
VERTEX
  5
5DC
  8
LAYER0
 10
-188.6481087490565
 20
-99.20651993416489
 30
0.0
  0
VERTEX
  5
5DD
  8
LAYER0
 10
-188.4259781421963
 20
-99.19613075210685
 30
0.0
  0
VERTEX
  5
5DE
  8
LAYER0
 10
-188.2134121791356
 20
-99.16496320593271
 30
0.0
  0
VERTEX
  5
5DF
  8
LAYER0
 10
-188.0104108598744
 20
-99.11301729564246
 30
0.0
  0
VERTEX
  5
5E0
  8
LAYER0
 10
-187.8169741844127
 20
-99.04029302123612
 30
0.0
  0
VERTEX
  5
5E1
  8
LAYER0
 10
-187.6331021527504
 20
-98.94679038271369
 30
0.0
  0
VERTEX
  5
5E2
  8
LAYER0
 10
-187.4587947648876
 20
-98.83250938007518
 30
0.0
  0
VERTEX
  5
5E3
  8
LAYER0
 10
-187.2940520208243
 20
-98.69745001332055
 30
0.0
  0
VERTEX
  5
5E4
  8
LAYER0
 10
-187.1388739205604
 20
-98.54161228244985
 30
0.0
  0
VERTEX
  5
5E5
  8
LAYER0
 10
-186.997877878344
 20
-98.36648035632848
 30
0.0
  0
VERTEX
  5
5E6
  8
LAYER0
 10
-186.8756813084232
 20
-98.17353840382188
 30
0.0
  0
VERTEX
  5
5E7
  8
LAYER0
 10
-186.7722842107979
 20
-97.96278642493006
 30
0.0
  0
VERTEX
  5
5E8
  8
LAYER0
 10
-186.6876865854681
 20
-97.73422441965302
 30
0.0
  0
VERTEX
  5
5E9
  8
LAYER0
 10
-186.6218884324338
 20
-97.48785238799074
 30
0.0
  0
VERTEX
  5
5EA
  8
LAYER0
 10
-186.574889751695
 20
-97.22367032994325
 30
0.0
  0
VERTEX
  5
5EB
  8
LAYER0
 10
-186.5466905432517
 20
-96.94167824551054
 30
0.0
  0
SEQEND
  5
828
  8
LAYER0
  0
POLYLINE
  5
FB
  8
LAYER0
 66
     1
 10
0.0
 20
0.0
 30
0.0
 70
     1
  0
VERTEX
  5
5EC
  8
LAYER0
 10
-180.6375546593467
 20
-99.71311624023349
 30
0.0
  0
VERTEX
  5
5ED
  8
LAYER0
 10
-174.3895335511673
 20
-99.71311624023349
 30
0.0
  0
VERTEX
  5
5EE
  8
LAYER0
 10
-174.3895335511673
 20
-103.0376544988087
 30
0.0
  0
VERTEX
  5
5EF
  8
LAYER0
 10
-180.6375546593467
 20
-103.0376544988087
 30
0.0
  0
SEQEND
  5
829
  8
LAYER0
  0
POLYLINE
  5
FC
  8
LAYER0
 66
     1
 10
0.0
 20
0.0
 30
0.0
 70
     1
  0
VERTEX
  5
5F0
  8
LAYER0
 10
-168.8591905432517
 20
-96.01918484181661
 30
0.0
  0
VERTEX
  5
5F1
  8
LAYER0
 10
-172.9225150815103
 20
-95.29095265184299
 30
0.0
  0
VERTEX
  5
5F2
  8
LAYER0
 10
-172.8555419614576
 20
-95.0517541030303
 30
0.0
  0
VERTEX
  5
5F3
  8
LAYER0
 10
-172.7812716778164
 20
-94.8196465832414
 30
0.0
  0
VERTEX
  5
5F4
  8
LAYER0
 10
-172.6997042305869
 20
-94.59463009247624
 30
0.0
  0
VERTEX
  5
5F5
  8
LAYER0
 10
-172.6108396197689
 20
-94.3767046307348
 30
0.0
  0
VERTEX
  5
5F6
  8
LAYER0
 10
-172.5146778453626
 20
-94.16587019801712
 30
0.0
  0
VERTEX
  5
5F7
  8
LAYER0
 10
-172.4112189073678
 20
-93.96212679432318
 30
0.0
  0
VERTEX
  5
5F8
  8
LAYER0
 10
-172.3004628057847
 20
-93.765474419653
 30
0.0
  0
VERTEX
  5
5F9
  8
LAYER0
 10
-172.1824095406132
 20
-93.57591307400656
 30
0.0
  0
VERTEX
  5
5FA
  8
LAYER0
 10
-172.0570591118533
 20
-93.39344275738387
 30
0.0
  0
VERTEX
  5
5FB
  8
LAYER0
 10
-171.924411519505
 20
-93.21806346978494
 30
0.0
  0
VERTEX
  5
5FC
  8
LAYER0
 10
-171.7844667635684
 20
-93.04977521120975
 30
0.0
  0
VERTEX
  5
5FD
  8
LAYER0
 10
-171.6372248440433
 20
-92.88857798165829
 30
0.0
  0
VERTEX
  5
5FE
  8
LAYER0
 10
-171.4826857609299
 20
-92.7344717811306
 30
0.0
  0
VERTEX
  5
5FF
  8
LAYER0
 10
-171.320849514228
 20
-92.58745660962663
 30
0.0
  0
VERTEX
  5
600
  8
LAYER0
 10
-171.1517161039378
 20
-92.4475324671464
 30
0.0
  0
VERTEX
  5
601
  8
LAYER0
 10
-170.9752855300591
 20
-92.31469935368995
 30
0.0
  0
VERTEX
  5
602
  8
LAYER0
 10
-170.7905271197689
 20
-92.18945199221235
 30
0.0
  0
VERTEX
  5
603
  8
LAYER0
 10
-170.5964102002438
 20
-92.07228510566884
 30
0.0
  0
VERTEX
  5
604
  8
LAYER0
 10
-170.3929347714839
 20
-91.96319869405932
 30
0.0
  0
VERTEX
  5
605
  8
LAYER0
 10
-170.1801008334892
 20
-91.86219275738387
 30
0.0
  0
VERTEX
  5
606
  8
LAYER0
 10
-169.9579083862597
 20
-91.76926729564244
 30
0.0
  0
VERTEX
  5
607
  8
LAYER0
 10
-169.7263574297953
 20
-91.68442230883505
 30
0.0
  0
VERTEX
  5
608
  8
LAYER0
 10
-169.4854479640961
 20
-91.60765779696172
 30
0.0
  0
VERTEX
  5
609
  8
LAYER0
 10
-169.235179989162
 20
-91.5389737600224
 30
0.0
  0
VERTEX
  5
60A
  8
LAYER0
 10
-168.9755535049931
 20
-91.47837019801713
 30
0.0
  0
VERTEX
  5
60B
  8
LAYER0
 10
-168.7065685115895
 20
-91.4258471109459
 30
0.0
  0
VERTEX
  5
60C
  8
LAYER0
 10
-168.4282250089509
 20
-91.38140449880868
 30
0.0
  0
VERTEX
  5
60D
  8
LAYER0
 10
-168.1405229970776
 20
-91.34504236160552
 30
0.0
  0
VERTEX
  5
60E
  8
LAYER0
 10
-167.8434624759694
 20
-91.31676069933638
 30
0.0
  0
VERTEX
  5
60F
  8
LAYER0
 10
-167.5370434456264
 20
-91.2965595120013
 30
0.0
  0
VERTEX
  5
610
  8
LAYER0
 10
-167.2212659060486
 20
-91.28443879960024
 30
0.0
  0
VERTEX
  5
611
  8
LAYER0
 10
-166.8961298572359
 20
-91.28039856213323
 30
0.0
  0
VERTEX
  5
612
  8
LAYER0
 10
-166.5240569680539
 20
-91.28480984181661
 30
0.0
  0
VERTEX
  5
613
  8
LAYER0
 10
-166.1650942371831
 20
-91.29804368086674
 30
0.0
  0
VERTEX
  5
614
  8
LAYER0
 10
-165.8192416646237
 20
-91.32010007928362
 30
0.0
  0
VERTEX
  5
615
  8
LAYER0
 10
-165.4864992503757
 20
-91.35097903706726
 30
0.0
  0
VERTEX
  5
616
  8
LAYER0
 10
-165.166866994439
 20
-91.39068055421767
 30
0.0
  0
VERTEX
  5
617
  8
LAYER0
 10
-164.8603448968137
 20
-91.43920463073482
 30
0.0
  0
VERTEX
  5
618
  8
LAYER0
 10
-164.5669329574997
 20
-91.49655126661872
 30
0.0
  0
VERTEX
  5
619
  8
LAYER0
 10
-164.2866311764971
 20
-91.56272046186939
 30
0.0
  0
VERTEX
  5
61A
  8
LAYER0
 10
-164.0194395538058
 20
-91.63771221648682
 30
0.0
  0
VERTEX
  5
61B
  8
LAYER0
 10
-163.7653580894259
 20
-91.72152653047098
 30
0.0
  0
VERTEX
  5
61C
  8
LAYER0
 10
-163.5243867833573
 20
-91.81416340382191
 30
0.0
  0
VERTEX
  5
61D
  8
LAYER0
 10
-163.2965256356
 20
-91.91562283653957
 30
0.0
  0
VERTEX
  5
61E
  8
LAYER0
 10
-163.0817746461541
 20
-92.025904828624
 30
0.0
  0
VERTEX
  5
61F
  8
LAYER0
 10
-162.8801338150195
 20
-92.14500938007518
 30
0.0
  0
VERTEX
  5
620
  8
LAYER0
 10
-162.6916031421963
 20
-92.27293649089312
 30
0.0
  0
VERTEX
  5
621
  8
LAYER0
 10
-162.5161826276845
 20
-92.40968616107781
 30
0.0
  0
VERTEX
  5
622
  8
LAYER0
 10
-162.3525942371832
 20
-92.55311459115697
 30
0.0
  0
VERTEX
  5
623
  8
LAYER0
 10
-162.1995599363916
 20
-92.7010779816583
 30
0.0
  0
VERTEX
  5
624
  8
LAYER0
 10
-162.0570797253098
 20
-92.85357633258175
 30
0.0
  0
VERTEX
  5
625
  8
LAYER0
 10
-161.9251536039378
 20
-93.01060964392741
 30
0.0
  0
VERTEX
  5
626
  8
LAYER0
 10
-161.8037815722755
 20
-93.17217791569522
 30
0.0
  0
VERTEX
  5
627
  8
LAYER0
 10
-161.692963630323
 20
-93.3382811478852
 30
0.0
  0
VERTEX
  5
628
  8
LAYER0
 10
-161.5926997780803
 20
-93.50891934049733
 30
0.0
  0
VERTEX
  5
629
  8
LAYER0
 10
-161.5029900155473
 20
-93.68409249353164
 30
0.0
  0
VERTEX
  5
62A
  8
LAYER0
 10
-161.423834342724
 20
-93.8638006069881
 30
0.0
  0
VERTEX
  5
62B
  8
LAYER0
 10
-161.3552327596106
 20
-94.04804368086673
 30
0.0
  0
VERTEX
  5
62C
  8
LAYER0
 10
-161.2971852662069
 20
-94.23682171516754
 30
0.0
  0
VERTEX
  5
62D
  8
LAYER0
 10
-161.249691862513
 20
-94.4301347098905
 30
0.0
  0
VERTEX
  5
62E
  8
LAYER0
 10
-161.2127525485288
 20
-94.6279826650356
 30
0.0
  0
VERTEX
  5
62F
  8
LAYER0
 10
-161.1863673242544
 20
-94.83036558060289
 30
0.0
  0
VERTEX
  5
630
  8
LAYER0
 10
-161.1705361896898
 20
-95.03728345659232
 30
0.0
  0
VERTEX
  5
631
  8
LAYER0
 10
-161.1652591448349
 20
-95.24873629300394
 30
0.0
  0
VERTEX
  5
632
  8
LAYER0
 10
-161.173834342724
 20
-95.49642758587993
 30
0.0
  0
VERTEX
  5
633
  8
LAYER0
 10
-161.1995599363916
 20
-95.73818220329417
 30
0.0
  0
VERTEX
  5
634
  8
LAYER0
 10
-161.2424359258375
 20
-95.97400014524669
 30
0.0
  0
VERTEX
  5
635
  8
LAYER0
 10
-161.3024623110618
 20
-96.20388141173746
 30
0.0
  0
VERTEX
  5
636
  8
LAYER0
 10
-161.3796390920644
 20
-96.42782600276648
 30
0.0
  0
VERTEX
  5
637
  8
LAYER0
 10
-161.4739662688454
 20
-96.64583391833375
 30
0.0
  0
VERTEX
  5
638
  8
LAYER0
 10
-161.5854438414048
 20
-96.85790515843931
 30
0.0
  0
VERTEX
  5
639
  8
LAYER0
 10
-161.7140718097425
 20
-97.0640397230831
 30
0.0
  0
VERTEX
  5
63A
  8
LAYER0
 10
-161.8600150815103
 20
-97.26407270461344
 30
0.0
  0
VERTEX
  5
63B
  8
LAYER0
 10
-162.0234385643599
 20
-97.4578391953786
 30
0.0
  0
VERTEX
  5
63C
  8
LAYER0
 10
-162.2043422582913
 20
-97.6453391953786
 30
0.0
  0
VERTEX
  5
63D
  8
LAYER0
 10
-162.4027261633045
 20
-97.82657270461343
 30
0.0
  0
VERTEX
  5
63E
  8
LAYER0
 10
-162.6185902793995
 20
-98.00153972308308
 30
0.0
  0
VERTEX
  5
63F
  8
LAYER0
 10
-162.8519346065763
 20
-98.17024025078757
 30
0.0
  0
VERTEX
  5
640
  8
LAYER0
 10
-163.1027591448349
 20
-98.3326742877269
 30
0.0
  0
VERTEX
  5
641
  8
LAYER0
 10
-163.3710638941752
 20
-98.48884183390103
 30
0.0
  0
VERTEX
  5
642
  8
LAYER0
 10
-162.9489003057847
 20
-98.60427719010156
 30
0.0
  0
VERTEX
  5
643
  8
LAYER0
 10
-162.579507165943
 20
-98.72894737479814
 30
0.0
  0
VERTEX
  5
644
  8
LAYER0
 10
-162.2628844746501
 20
-98.86285238799076
 30
0.0
  0
VERTEX
  5
645
  8
LAYER0
 10
-162.1243620472095
 20
-98.93326795527307
 30
0.0
  0
VERTEX
  5
646
  8
LAYER0
 10
-161.9990322319061
 20
-99.0059922296794
 30
0.0
  0
VERTEX
  5
647
  8
LAYER0
 10
-161.8117795933837
 20
-99.12942560698811
 30
0.0
  0
VERTEX
  5
648
  8
LAYER0
 10
-161.6352459522227
 20
-99.26225872044458
 30
0.0
  0
VERTEX
  5
649
  8
LAYER0
 10
-161.4694313084232
 20
-99.40449157004879
 30
0.0
  0
VERTEX
  5
64A
  8
LAYER0
 10
-161.3143356619852
 20
-99.55612415580077
 30
0.0
  0
VERTEX
  5
64B
  8
LAYER0
 10
-161.1699590129087
 20
-99.7171564777005
 30
0.0
  0
VERTEX
  5
64C
  8
LAYER0
 10
-161.0363013611937
 20
-99.887588535748
 30
0.0
  0
VERTEX
  5
64D
  8
LAYER0
 10
-160.9133627068401
 20
-100.0674203299432
 30
0.0
  0
VERTEX
  5
64E
  8
LAYER0
 10
-160.801143049848
 20
-100.2566518602863
 30
0.0
  0
VERTEX
  5
64F
  8
LAYER0
 10
-160.7009616514311
 20
-100.455283126777
 30
0.0
  0
VERTEX
  5
650
  8
LAYER0
 10
-160.6141377728032
 20
-100.6633141294155
 30
0.0
  0
VERTEX
  5
651
  8
LAYER0
 10
-160.5406714139642
 20
-100.8807448682018
 30
0.0
  0
VERTEX
  5
652
  8
LAYER0
 10
-160.480562574914
 20
-101.1075753431359
 30
0.0
  0
VERTEX
  5
653
  8
LAYER0
 10
-160.4338112556528
 20
-101.3438055542177
 30
0.0
  0
VERTEX
  5
654
  8
LAYER0
 10
-160.4004174561805
 20
-101.5894355014472
 30
0.0
  0
VERTEX
  5
655
  8
LAYER0
 10
-160.3803811764971
 20
-101.8444651848245
 30
0.0
  0
VERTEX
  5
656
  8
LAYER0
 10
-160.3737024166027
 20
-102.1088946043496
 30
0.0
  0
VERTEX
  5
657
  8
LAYER0
 10
-160.3847512292676
 20
-102.444893944719
 30
0.0
  0
VERTEX
  5
658
  8
LAYER0
 10
-160.4178976672623
 20
-102.7774302244024
 30
0.0
  0
VERTEX
  5
659
  8
LAYER0
 10
-160.4731417305869
 20
-103.1065034433997
 30
0.0
  0
VERTEX
  5
65A
  8
LAYER0
 10
-160.5504834192412
 20
-103.4321136017111
 30
0.0
  0
VERTEX
  5
65B
  8
LAYER0
 10
-160.6499227332254
 20
-103.7542606993364
 30
0.0
  0
VERTEX
  5
65C
  8
LAYER0
 10
-160.7714596725394
 20
-104.0729447362757
 30
0.0
  0
VERTEX
  5
65D
  8
LAYER0
 10
-160.9150942371832
 20
-104.388165712529
 30
0.0
  0
VERTEX
  5
65E
  8
LAYER0
 10
-161.0808264271568
 20
-104.6999236280963
 30
0.0
  0
VERTEX
  5
65F
  8
LAYER0
 10
-161.2673369812464
 20
-105.001045000128
 30
0.0
  0
VERTEX
  5
660
  8
LAYER0
 10
-161.4733066382385
 20
-105.2843563457744
 30
0.0
  0
VERTEX
  5
661
  8
LAYER0
 10
-161.698735398133
 20
-105.5498576650356
 30
0.0
  0
VERTEX
  5
662
  8
LAYER0
 10
-161.9436232609298
 20
-105.7975489579116
 30
0.0
  0
VERTEX
  5
663
  8
LAYER0
 10
-162.207970226629
 20
-106.0274302244024
 30
0.0
  0
VERTEX
  5
664
  8
LAYER0
 10
-162.4917762952306
 20
-106.2395014645079
 30
0.0
  0
VERTEX
  5
665
  8
LAYER0
 10
-162.7950414667346
 20
-106.4337626782282
 30
0.0
  0
VERTEX
  5
666
  8
LAYER0
 10
-163.1177657411409
 20
-106.6102138655633
 30
0.0
  0
VERTEX
  5
667
  8
LAYER0
 10
-163.4632472714839
 20
-106.7672884038219
 30
0.0
  0
VERTEX
  5
668
  8
LAYER0
 10
-163.8347842107979
 20
-106.9034196703126
 30
0.0
  0
VERTEX
  5
669
  8
LAYER0
 10
-164.2323765590829
 20
-107.0186076650356
 30
0.0
  0
VERTEX
  5
66A
  8
LAYER0
 10
-164.6560243163388
 20
-107.1128523879907
 30
0.0
  0
VERTEX
  5
66B
  8
LAYER0
 10
-165.1057274825657
 20
-107.1861538391781
 30
0.0
  0
VERTEX
  5
66C
  8
LAYER0
 10
-165.5814860577636
 20
-107.2385120185976
 30
0.0
  0
VERTEX
  5
66D
  8
LAYER0
 10
-166.0833000419325
 20
-107.2699269262493
 30
0.0
  0
VERTEX
  5
66E
  8
LAYER0
 10
-166.6111694350723
 20
-107.2803985621332
 30
0.0
  0
VERTEX
  5
66F
  8
LAYER0
 10
-167.1249392239905
 20
-107.2726479025026
 30
0.0
  0
VERTEX
  5
670
  8
LAYER0
 10
-167.6108396197689
 20
-107.2493959236108
 30
0.0
  0
VERTEX
  5
671
  8
LAYER0
 10
-168.0688706224074
 20
-107.2106426254578
 30
0.0
  0
VERTEX
  5
672
  8
LAYER0
 10
-168.4990322319061
 20
-107.1563880080435
 30
0.0
  0
VERTEX
  5
673
  8
LAYER0
 10
-168.9013244482649
 20
-107.086632071368
 30
0.0
  0
VERTEX
  5
674
  8
LAYER0
 10
-169.2757472714839
 20
-107.0013748154314
 30
0.0
  0
VERTEX
  5
675
  8
LAYER0
 10
-169.6223007015631
 20
-106.9006162402335
 30
0.0
  0
VERTEX
  5
676
  8
LAYER0
 10
-169.9409847385024
 20
-106.7843563457744
 30
0.0
  0
VERTEX
  5
677
  8
LAYER0
 10
-170.2389728651515
 20
-106.6531723088351
 30
0.0
  0
VERTEX
  5
678
  8
LAYER0
 10
-170.5234385643599
 20
-106.5076413061965
 30
0.0
  0
VERTEX
  5
679
  8
LAYER0
 10
-170.7943818361277
 20
-106.3477633378588
 30
0.0
  0
VERTEX
  5
67A
  8
LAYER0
 10
-171.0518026804549
 20
-106.1735384038219
 30
0.0
  0
VERTEX
  5
67B
  8
LAYER0
 10
-171.2957010973415
 20
-105.9849665040857
 30
0.0
  0
VERTEX
  5
67C
  8
LAYER0
 10
-171.5260770867874
 20
-105.7820476386504
 30
0.0
  0
VERTEX
  5
67D
  8
LAYER0
 10
-171.7429306487927
 20
-105.5647818075158
 30
0.0
  0
VERTEX
  5
67E
  8
LAYER0
 10
-171.9462617833573
 20
-105.333169010682
 30
0.0
  0
VERTEX
  5
67F
  8
LAYER0
 10
-172.1371423902174
 20
-105.0867145251939
 30
0.0
  0
VERTEX
  5
680
  8
LAYER0
 10
-172.3166443691092
 20
-104.8249236280963
 30
0.0
  0
VERTEX
  5
681
  8
LAYER0
 10
-172.4847677200327
 20
-104.5477963193892
 30
0.0
  0
VERTEX
  5
682
  8
LAYER0
 10
-172.6415124429879
 20
-104.2553325990725
 30
0.0
  0
VERTEX
  5
683
  8
LAYER0
 10
-172.7868785379747
 20
-103.9475324671464
 30
0.0
  0
VERTEX
  5
684
  8
LAYER0
 10
-172.9208660049932
 20
-103.6243959236108
 30
0.0
  0
VERTEX
  5
685
  8
LAYER0
 10
-173.0434748440433
 20
-103.2859229684657
 30
0.0
  0
VERTEX
  5
686
  8
LAYER0
 10
-173.1547050551251
 20
-102.9321136017111
 30
0.0
  0
VERTEX
  5
687
  8
LAYER0
 10
-168.8591905432517
 20
-102.3621927573839
 30
0.0
  0
VERTEX
  5
688
  8
LAYER0
 10
-168.7914959522227
 20
-102.6742804882546
 30
0.0
  0
VERTEX
  5
689
  8
LAYER0
 10
-168.7150612556528
 20
-102.9614671637163
 30
0.0
  0
VERTEX
  5
68A
  8
LAYER0
 10
-168.629886453542
 20
-103.2237527837691
 30
0.0
  0
VERTEX
  5
68B
  8
LAYER0
 10
-168.5359715458903
 20
-103.4611373484129
 30
0.0
  0
VERTEX
  5
68C
  8
LAYER0
 10
-168.4333165326977
 20
-103.6736208576478
 30
0.0
  0
VERTEX
  5
68D
  8
LAYER0
 10
-168.3219214139642
 20
-103.8612033114736
 30
0.0
  0
VERTEX
  5
68E
  8
LAYER0
 10
-168.2017861896897
 20
-104.0238847098905
 30
0.0
  0
VERTEX
  5
68F
  8
LAYER0
 10
-168.0729108598744
 20
-104.1616650528984
 30
0.0
  0
VERTEX
  5
690
  8
LAYER0
 10
-167.9351305168665
 20
-104.2791617547454
 30
0.0
  0
VERTEX
  5
691
  8
LAYER0
 10
-167.7882802530143
 20
-104.3809922296794
 30
0.0
  0
VERTEX
  5
692
  8
LAYER0
 10
-167.6323600683177
 20
-104.4671564777005
 30
0.0
  0
VERTEX
  5
693
  8
LAYER0
 10
-167.4673699627768
 20
-104.5376544988087
 30
0.0
  0
VERTEX
  5
694
  8
LAYER0
 10
-167.2933099363916
 20
-104.5924862930039
 30
0.0
  0
VERTEX
  5
695
  8
LAYER0
 10
-167.110179989162
 20
-104.6316518602863
 30
0.0
  0
VERTEX
  5
696
  8
LAYER0
 10
-166.9179801210882
 20
-104.6551512006557
 30
0.0
  0
VERTEX
  5
697
  8
LAYER0
 10
-166.71671033217
 20
-104.6629843141121
 30
0.0
  0
VERTEX
  5
698
  8
LAYER0
 10
-166.504886453542
 20
-104.6530898550092
 30
0.0
  0
VERTEX
  5
699
  8
LAYER0
 10
-166.3021324957583
 20
-104.6234064777005
 30
0.0
  0
VERTEX
  5
69A
  8
LAYER0
 10
-166.108448458819
 20
-104.573934182186
 30
0.0
  0
VERTEX
  5
69B
  8
LAYER0
 10
-165.923834342724
 20
-104.5046729684657
 30
0.0
  0
VERTEX
  5
69C
  8
LAYER0
 10
-165.7482901474734
 20
-104.4156228365396
 30
0.0
  0
VERTEX
  5
69D
  8
LAYER0
 10
-165.581815873067
 20
-104.3067837864076
 30
0.0
  0
VERTEX
  5
69E
  8
LAYER0
 10
-165.424411519505
 20
-104.1781558180699
 30
0.0
  0
VERTEX
  5
69F
  8
LAYER0
 10
-165.2760770867874
 20
-104.0297389315264
 30
0.0
  0
VERTEX
  5
6A0
  8
LAYER0
 10
-165.1412650815103
 20
-103.8648312798113
 30
0.0
  0
VERTEX
  5
6A1
  8
LAYER0
 10
-165.0244280102702
 20
-103.6867310159591
 30
0.0
  0
VERTEX
  5
6A2
  8
LAYER0
 10
-164.925565873067
 20
-103.4954381399697
 30
0.0
  0
VERTEX
  5
6A3
  8
LAYER0
 10
-164.8446786699008
 20
-103.290952651843
 30
0.0
  0
VERTEX
  5
6A4
  8
LAYER0
 10
-164.7817664007715
 20
-103.0732745515791
 30
0.0
  0
VERTEX
  5
6A5
  8
LAYER0
 10
-164.7368290656792
 20
-102.8424038391781
 30
0.0
  0
VERTEX
  5
6A6
  8
LAYER0
 10
-164.7098666646238
 20
-102.5983405146398
 30
0.0
  0
VERTEX
  5
6A7
  8
LAYER0
 10
-164.7008791976053
 20
-102.3410845779644
 30
0.0
  0
VERTEX
  5
6A8
  8
LAYER0
 10
-164.7095368493203
 20
-102.0795410423443
 30
0.0
  0
VERTEX
  5
6A9
  8
LAYER0
 10
-164.7355098044655
 20
-101.833169010682
 30
0.0
  0
VERTEX
  5
6AA
  8
LAYER0
 10
-164.7787980630407
 20
-101.6019684829776
 30
0.0
  0
VERTEX
  5
6AB
  8
LAYER0
 10
-164.839401625046
 20
-101.3859394592309
 30
0.0
  0
VERTEX
  5
6AC
  8
LAYER0
 10
-164.9173204904813
 20
-101.1850819394419
 30
0.0
  0
VERTEX
  5
6AD
  8
LAYER0
 10
-165.0125546593467
 20
-100.9993959236108
 30
0.0
  0
VERTEX
  5
6AE
  8
LAYER0
 10
-165.1251041316422
 20
-100.8288814117374
 30
0.0
  0
VERTEX
  5
6AF
  8
LAYER0
 10
-165.2549689073678
 20
-100.6735384038219
 30
0.0
  0
VERTEX
  5
6B0
  8
LAYER0
 10
-165.3996753717478
 20
-100.5350159763813
 30
0.0
  0
VERTEX
  5
6B1
  8
LAYER0
 10
-165.5567499100064
 20
-100.4149632059327
 30
0.0
  0
VERTEX
  5
6B2
  8
LAYER0
 10
-165.7261925221435
 20
-100.3133800924762
 30
0.0
  0
VERTEX
  5
6B3
  8
LAYER0
 10
-165.9080032081594
 20
-100.2302666360118
 30
0.0
  0
VERTEX
  5
6B4
  8
LAYER0
 10
-166.1021819680539
 20
-100.1656228365396
 30
0.0
  0
VERTEX
  5
6B5
  8
LAYER0
 10
-166.3087288018269
 20
-100.1194486940593
 30
0.0
  0
VERTEX
  5
6B6
  8
LAYER0
 10
-166.5276437094786
 20
-100.0917442085712
 30
0.0
  0
VERTEX
  5
6B7
  8
LAYER0
 10
-166.758926691009
 20
-100.0825093800752
 30
0.0
  0
VERTEX
  5
6B8
  8
LAYER0
 10
-167.0359715458903
 20
-100.0983405146398
 30
0.0
  0
VERTEX
  5
6B9
  8
LAYER0
 10
-167.3605098044654
 20
-100.1458339183338
 30
0.0
  0
VERTEX
  5
6BA
  8
LAYER0
 10
-167.7325414667346
 20
-100.224989591157
 30
0.0
  0
VERTEX
  5
6BB
  8
LAYER0
 10
-168.1520665326977
 20
-100.3358075331095
 30
0.0
  0
VERTEX
  5
6BC
  8
LAYER0
 10
-167.9304306487926
 20
-97.26456742756858
 30
0.0
  0
VERTEX
  5
6BD
  8
LAYER0
 10
-167.6111694350723
 20
-97.30414526398019
 30
0.0
  0
VERTEX
  5
6BE
  8
LAYER0
 10
-167.3710638941752
 20
-97.31733787611739
 30
0.0
  0
VERTEX
  5
6BF
  8
LAYER0
 10
-167.1643521527504
 20
-97.30892758587993
 30
0.0
  0
VERTEX
  5
6C0
  8
LAYER0
 10
-166.9663805168665
 20
-97.28369671516754
 30
0.0
  0
VERTEX
  5
6C1
  8
LAYER0
 10
-166.7771489865235
 20
-97.24164526398019
 30
0.0
  0
VERTEX
  5
6C2
  8
LAYER0
 10
-166.5966575617214
 20
-97.18277323231791
 30
0.0
  0
VERTEX
  5
6C3
  8
LAYER0
 10
-166.4249062424602
 20
-97.10708062018071
 30
0.0
  0
VERTEX
  5
6C4
  8
LAYER0
 10
-166.2618950287398
 20
-97.01456742756858
 30
0.0
  0
VERTEX
  5
6C5
  8
LAYER0
 10
-166.1076239205605
 20
-96.9052336544815
 30
0.0
  0
VERTEX
  5
6C6
  8
LAYER0
 10
-165.9620929179219
 20
-96.7790793009195
 30
0.0
  0
VERTEX
  5
6C7
  8
LAYER0
 10
-165.8297545274206
 20
-96.64138141173746
 30
0.0
  0
VERTEX
  5
6C8
  8
LAYER0
 10
-165.7150612556528
 20
-96.4974170317902
 30
0.0
  0
VERTEX
  5
6C9
  8
LAYER0
 10
-165.6180131026185
 20
-96.34718616107781
 30
0.0
  0
VERTEX
  5
6CA
  8
LAYER0
 10
-165.5386100683177
 20
-96.19068879960022
 30
0.0
  0
VERTEX
  5
6CB
  8
LAYER0
 10
-165.4768521527504
 20
-96.02792494735749
 30
0.0
  0
VERTEX
  5
6CC
  8
LAYER0
 10
-165.4327393559167
 20
-95.85889460434956
 30
0.0
  0
VERTEX
  5
6CD
  8
LAYER0
 10
-165.4062716778164
 20
-95.68359777057648
 30
0.0
  0
VERTEX
  5
6CE
  8
LAYER0
 10
-165.3974491184496
 20
-95.50203444603824
 30
0.0
  0
VERTEX
  5
6CF
  8
LAYER0
 10
-165.4040454245182
 20
-95.32970594999603
 30
0.0
  0
VERTEX
  5
6D0
  8
LAYER0
 10
-165.423834342724
 20
-95.16628246714642
 30
0.0
  0
VERTEX
  5
6D1
  8
LAYER0
 10
-165.456815873067
 20
-95.01176399748942
 30
0.0
  0
VERTEX
  5
6D2
  8
LAYER0
 10
-165.5029900155473
 20
-94.86615054102504
 30
0.0
  0
VERTEX
  5
6D3
  8
LAYER0
 10
-165.5623567701647
 20
-94.72944209775326
 30
0.0
  0
VERTEX
  5
6D4
  8
LAYER0
 10
-165.6349161369193
 20
-94.60163866767412
 30
0.0
  0
VERTEX
  5
6D5
  8
LAYER0
 10
-165.7206681158111
 20
-94.48274025078757
 30
0.0
  0
VERTEX
  5
6D6
  8
LAYER0
 10
-165.8196127068401
 20
-94.37274684709365
 30
0.0
  0
VERTEX
  5
6D7
  8
LAYER0
 10
-165.9301008334892
 20
-94.27380225606463
 30
0.0
  0
VERTEX
  5
6D8
  8
LAYER0
 10
-166.0504834192412
 20
-94.1880502771728
 30
0.0
  0
VERTEX
  5
6D9
  8
LAYER0
 10
-166.1807604640961
 20
-94.11549091041819
 30
0.0
  0
VERTEX
  5
6DA
  8
LAYER0
 10
-166.3209319680539
 20
-94.05612415580077
 30
0.0
  0
VERTEX
  5
6DB
  8
LAYER0
 10
-166.4709979311145
 20
-94.00995001332055
 30
0.0
  0
VERTEX
  5
6DC
  8
LAYER0
 10
-166.6309583532781
 20
-93.97696848297755
 30
0.0
  0
VERTEX
  5
6DD
  8
LAYER0
 10
-166.8008132345446
 20
-93.95717956477175
 30
0.0
  0
VERTEX
  5
6DE
  8
LAYER0
 10
-166.980562574914
 20
-93.95058325870315
 30
0.0
  0
VERTEX
  5
6DF
  8
LAYER0
 10
-167.1660836830934
 20
-93.95775674155276
 30
0.0
  0
VERTEX
  5
6E0
  8
LAYER0
 10
-167.3426997780803
 20
-93.97927719010157
 30
0.0
  0
VERTEX
  5
6E1
  8
LAYER0
 10
-167.5104108598745
 20
-94.01514460434959
 30
0.0
  0
VERTEX
  5
6E2
  8
LAYER0
 10
-167.669216928476
 20
-94.06535898429681
 30
0.0
  0
VERTEX
  5
6E3
  8
LAYER0
 10
-167.819117983885
 20
-94.12992032994325
 30
0.0
  0
VERTEX
  5
6E4
  8
LAYER0
 10
-167.9601140261014
 20
-94.2088286412889
 30
0.0
  0
VERTEX
  5
6E5
  8
LAYER0
 10
-168.0922050551251
 20
-94.30208391833375
 30
0.0
  0
VERTEX
  5
6E6
  8
LAYER0
 10
-168.2153910709562
 20
-94.40968616107781
 30
0.0
  0
VERTEX
  5
6E7
  8
LAYER0
 10
-168.3293422582913
 20
-94.53526333785882
 30
0.0
  0
VERTEX
  5
6E8
  8
LAYER0
 10
-168.433728801827
 20
-94.6824434170145
 30
0.0
  0
VERTEX
  5
6E9
  8
LAYER0
 10
-168.5285507015631
 20
-94.85122639854484
 30
0.0
  0
VERTEX
  5
6EA
  8
LAYER0
 10
-168.6138079574998
 20
-95.04161228244985
 30
0.0
  0
VERTEX
  5
6EB
  8
LAYER0
 10
-168.6895005696369
 20
-95.25360106872954
 30
0.0
  0
VERTEX
  5
6EC
  8
LAYER0
 10
-168.7556285379747
 20
-95.4871927573839
 30
0.0
  0
VERTEX
  5
6ED
  8
LAYER0
 10
-168.8121918625129
 20
-95.7423873484129
 30
0.0
  0
SEQEND
  5
82A
  8
LAYER0
  0
POLYLINE
  5
FD
  8
LAYER0
 66
     1
 10
0.0
 20
0.0
 30
0.0
 70
     1
  0
VERTEX
  5
6EE
  8
LAYER0
 10
-159.022778933753
 20
-99.71311624023349
 30
0.0
  0
VERTEX
  5
6EF
  8
LAYER0
 10
-152.7747578255736
 20
-99.71311624023349
 30
0.0
  0
VERTEX
  5
6F0
  8
LAYER0
 10
-152.7747578255736
 20
-103.0376544988087
 30
0.0
  0
VERTEX
  5
6F1
  8
LAYER0
 10
-159.022778933753
 20
-103.0376544988087
 30
0.0
  0
SEQEND
  5
82B
  8
LAYER0
  0
POLYLINE
  5
FE
  8
LAYER0
 66
     1
 10
0.0
 20
0.0
 30
0.0
 70
     1
  0
VERTEX
  5
6F2
  8
LAYER0
 10
-138.8328053189773
 20
-107.0165463193892
 30
0.0
  0
VERTEX
  5
6F3
  8
LAYER0
 10
-151.7299029443071
 20
-107.0165463193892
 30
0.0
  0
VERTEX
  5
6F4
  8
LAYER0
 10
-151.6603943691092
 20
-106.5425192745343
 30
0.0
  0
VERTEX
  5
6F5
  8
LAYER0
 10
-151.5626865854681
 20
-106.0755832587031
 30
0.0
  0
VERTEX
  5
6F6
  8
LAYER0
 10
-151.4367795933836
 20
-105.6157382718958
 30
0.0
  0
VERTEX
  5
6F7
  8
LAYER0
 10
-151.2826733928559
 20
-105.1629843141121
 30
0.0
  0
VERTEX
  5
6F8
  8
LAYER0
 10
-151.100367983885
 20
-104.7173213853522
 30
0.0
  0
VERTEX
  5
6F9
  8
LAYER0
 10
-150.8898633664707
 20
-104.2787494856161
 30
0.0
  0
VERTEX
  5
6FA
  8
LAYER0
 10
-150.6511595406132
 20
-103.8472686149037
 30
0.0
  0
VERTEX
  5
6FB
  8
LAYER0
 10
-150.3842565063124
 20
-103.422878773215
 30
0.0
  0
VERTEX
  5
6FC
  8
LAYER0
 10
-150.23606636779
 20
-103.2100860621332
 30
0.0
  0
VERTEX
  5
6FD
  8
LAYER0
 10
-150.0724985907451
 20
-102.9925522560646
 30
0.0
  0
VERTEX
  5
6FE
  8
LAYER0
 10
-149.8935531751778
 20
-102.7702773550092
 30
0.0
  0
VERTEX
  5
6FF
  8
LAYER0
 10
-149.6992301210881
 20
-102.543261358967
 30
0.0
  0
VERTEX
  5
700
  8
LAYER0
 10
-149.489529428476
 20
-102.311504267938
 30
0.0
  0
VERTEX
  5
701
  8
LAYER0
 10
-149.2644510973414
 20
-102.0750060819222
 30
0.0
  0
VERTEX
  5
702
  8
LAYER0
 10
-148.768161519505
 20
-101.5877864249301
 30
0.0
  0
VERTEX
  5
703
  8
LAYER0
 10
-148.2103613875789
 20
-101.0816023879908
 30
0.0
  0
VERTEX
  5
704
  8
LAYER0
 10
-147.5910507015631
 20
-100.5564539711042
 30
0.0
  0
VERTEX
  5
705
  8
LAYER0
 10
-146.9102294614575
 20
-100.0123411742704
 30
0.0
  0
VERTEX
  5
706
  8
LAYER0
 10
-146.1678976672623
 20
-99.44926399748942
 30
0.0
  0
VERTEX
  5
707
  8
LAYER0
 10
-145.7168752398216
 20
-99.10889460434959
 30
0.0
  0
VERTEX
  5
708
  8
LAYER0
 10
-145.3083989865235
 20
-98.78963339062926
 30
0.0
  0
VERTEX
  5
709
  8
LAYER0
 10
-144.9424689073678
 20
-98.49148035632848
 30
0.0
  0
VERTEX
  5
70A
  8
LAYER0
 10
-144.6190850023546
 20
-98.21443550144721
 30
0.0
  0
VERTEX
  5
70B
  8
LAYER0
 10
-144.3382472714839
 20
-97.95849882598549
 30
0.0
  0
VERTEX
  5
70C
  8
LAYER0
 10
-144.0999557147557
 20
-97.72367032994325
 30
0.0
  0
VERTEX
  5
70D
  8
LAYER0
 10
-143.9042103321699
 20
-97.50995001332058
 30
0.0
  0
VERTEX
  5
70E
  8
LAYER0
 10
-143.7510111237266
 20
-97.31733787611739
 30
0.0
  0
VERTEX
  5
70F
  8
LAYER0
 10
-143.6273303849404
 20
-97.13643418218598
 30
0.0
  0
VERTEX
  5
710
  8
LAYER0
 10
-143.5201404113256
 20
-96.9578391953786
 30
0.0
  0
VERTEX
  5
711
  8
LAYER0
 10
-143.4294412028823
 20
-96.78155291569522
 30
0.0
  0
VERTEX
  5
712
  8
LAYER0
 10
-143.3552327596105
 20
-96.60757534313586
 30
0.0
  0
VERTEX
  5
713
  8
LAYER0
 10
-143.2975150815103
 20
-96.43590647770051
 30
0.0
  0
VERTEX
  5
714
  8
LAYER0
 10
-143.2562881685815
 20
-96.26654631938916
 30
0.0
  0
VERTEX
  5
715
  8
LAYER0
 10
-143.2315520208243
 20
-96.09949486820182
 30
0.0
  0
VERTEX
  5
716
  8
LAYER0
 10
-143.2233066382385
 20
-95.9347521241385
 30
0.0
  0
VERTEX
  5
717
  8
LAYER0
 10
-143.2314695669984
 20
-95.76118682070842
 30
0.0
  0
VERTEX
  5
718
  8
LAYER0
 10
-143.2559583532781
 20
-95.59405291569522
 30
0.0
  0
VERTEX
  5
719
  8
LAYER0
 10
-143.2967729970776
 20
-95.43335040909892
 30
0.0
  0
VERTEX
  5
71A
  8
LAYER0
 10
-143.3539134983968
 20
-95.2790793009195
 30
0.0
  0
VERTEX
  5
71B
  8
LAYER0
 10
-143.4273798572359
 20
-95.13123959115697
 30
0.0
  0
VERTEX
  5
71C
  8
LAYER0
 10
-143.5171720735947
 20
-94.98983127981131
 30
0.0
  0
VERTEX
  5
71D
  8
LAYER0
 10
-143.6232901474734
 20
-94.85485436688256
 30
0.0
  0
VERTEX
  5
71E
  8
LAYER0
 10
-143.7457340788718
 20
-94.72630885237069
 30
0.0
  0
VERTEX
  5
71F
  8
LAYER0
 10
-143.8805460841488
 20
-94.60881215052373
 30
0.0
  0
VERTEX
  5
720
  8
LAYER0
 10
-144.0237683796634
 20
-94.50698167558971
 30
0.0
  0
VERTEX
  5
721
  8
LAYER0
 10
-144.1754009654153
 20
-94.4208174275686
 30
0.0
  0
VERTEX
  5
722
  8
LAYER0
 10
-144.3354438414048
 20
-94.35031940646041
 30
0.0
  0
VERTEX
  5
723
  8
LAYER0
 10
-144.5038970076317
 20
-94.29548761226516
 30
0.0
  0
VERTEX
  5
724
  8
LAYER0
 10
-144.6807604640961
 20
-94.25632204498284
 30
0.0
  0
VERTEX
  5
725
  8
LAYER0
 10
-144.8660342107979
 20
-94.23282270461344
 30
0.0
  0
VERTEX
  5
726
  8
LAYER0
 10
-145.0597182477372
 20
-94.22498959115697
 30
0.0
  0
VERTEX
  5
727
  8
LAYER0
 10
-145.2608231290037
 20
-94.233070066091
 30
0.0
  0
VERTEX
  5
728
  8
LAYER0
 10
-145.4525282741224
 20
-94.25731149089312
 30
0.0
  0
VERTEX
  5
729
  8
LAYER0
 10
-145.6348336830934
 20
-94.29771386556331
 30
0.0
  0
VERTEX
  5
72A
  8
LAYER0
 10
-145.8077393559166
 20
-94.35427719010157
 30
0.0
  0
VERTEX
  5
72B
  8
LAYER0
 10
-145.9712452925921
 20
-94.4270014645079
 30
0.0
  0
VERTEX
  5
72C
  8
LAYER0
 10
-146.1253514931198
 20
-94.5158866887823
 30
0.0
  0
VERTEX
  5
72D
  8
LAYER0
 10
-146.2700579574997
 20
-94.62093286292479
 30
0.0
  0
VERTEX
  5
72E
  8
LAYER0
 10
-146.4053646857319
 20
-94.74213998693534
 30
0.0
  0
VERTEX
  5
72F
  8
LAYER0
 10
-146.5306120472095
 20
-94.88379565975856
 30
0.0
  0
VERTEX
  5
730
  8
LAYER0
 10
-146.6451404113256
 20
-95.05018748033905
 30
0.0
  0
VERTEX
  5
731
  8
LAYER0
 10
-146.7489497780802
 20
-95.24131544867677
 30
0.0
  0
VERTEX
  5
732
  8
LAYER0
 10
-146.8420401474733
 20
-95.45717956477175
 30
0.0
  0
VERTEX
  5
733
  8
LAYER0
 10
-146.924411519505
 20
-95.697779828624
 30
0.0
  0
VERTEX
  5
734
  8
LAYER0
 10
-146.9960638941752
 20
-95.96311624023349
 30
0.0
  0
VERTEX
  5
735
  8
LAYER0
 10
-147.0569972714839
 20
-96.25318879960025
 30
0.0
  0
VERTEX
  5
736
  8
LAYER0
 10
-147.1072116514311
 20
-96.56799750672425
 30
0.0
  0
VERTEX
  5
737
  8
LAYER0
 10
-151.4132802530142
 20
-96.21971254630209
 30
0.0
  0
VERTEX
  5
738
  8
LAYER0
 10
-151.343359408687
 20
-95.77833721648679
 30
0.0
  0
VERTEX
  5
739
  8
LAYER0
 10
-151.2602459522227
 20
-95.36186294208045
 30
0.0
  0
VERTEX
  5
73A
  8
LAYER0
 10
-151.1639398836211
 20
-94.97028972308308
 30
0.0
  0
VERTEX
  5
73B
  8
LAYER0
 10
-151.0544412028823
 20
-94.6036175594947
 30
0.0
  0
VERTEX
  5
73C
  8
LAYER0
 10
-150.9317499100063
 20
-94.26184645131526
 30
0.0
  0
VERTEX
  5
73D
  8
LAYER0
 10
-150.7958660049931
 20
-93.94497639854482
 30
0.0
  0
VERTEX
  5
73E
  8
LAYER0
 10
-150.6467894878427
 20
-93.65300740118334
 30
0.0
  0
VERTEX
  5
73F
  8
LAYER0
 10
-150.4845203585552
 20
-93.38593945923085
 30
0.0
  0
VERTEX
  5
740
  8
LAYER0
 10
-150.3069972714839
 20
-93.13874288931001
 30
0.0
  0
VERTEX
  5
741
  8
LAYER0
 10
-150.1121588809826
 20
-92.9063880080435
 30
0.0
  0
VERTEX
  5
742
  8
LAYER0
 10
-149.9000051870512
 20
-92.68887481543138
 30
0.0
  0
VERTEX
  5
743
  8
LAYER0
 10
-149.6705361896897
 20
-92.48620331147359
 30
0.0
  0
VERTEX
  5
744
  8
LAYER0
 10
-149.4237518888982
 20
-92.29837349617016
 30
0.0
  0
VERTEX
  5
745
  8
LAYER0
 10
-149.1596522846765
 20
-92.12538536952108
 30
0.0
  0
VERTEX
  5
746
  8
LAYER0
 10
-148.8782373770248
 20
-91.96723893152637
 30
0.0
  0
VERTEX
  5
747
  8
LAYER0
 10
-148.579507165943
 20
-91.823934182186
 30
0.0
  0
VERTEX
  5
748
  8
LAYER0
 10
-148.2573600683177
 20
-91.69654302123612
 30
0.0
  0
VERTEX
  5
749
  8
LAYER0
 10
-147.9056945010354
 20
-91.5861373484129
 30
0.0
  0
VERTEX
  5
74A
  8
LAYER0
 10
-147.5245104640961
 20
-91.49271716371634
 30
0.0
  0
VERTEX
  5
74B
  8
LAYER0
 10
-147.1138079574997
 20
-91.41628246714642
 30
0.0
  0
VERTEX
  5
74C
  8
LAYER0
 10
-146.6735869812464
 20
-91.35683325870315
 30
0.0
  0
VERTEX
  5
74D
  8
LAYER0
 10
-146.2038475353361
 20
-91.31436953838653
 30
0.0
  0
VERTEX
  5
74E
  8
LAYER0
 10
-145.7045896197689
 20
-91.28889130619655
 30
0.0
  0
VERTEX
  5
74F
  8
LAYER0
 10
-145.1758132345446
 20
-91.28039856213323
 30
0.0
  0
VERTEX
  5
750
  8
LAYER0
 10
-144.6242795933836
 20
-91.28847903706726
 30
0.0
  0
VERTEX
  5
751
  8
LAYER0
 10
-144.1042433137003
 20
-91.31272046186938
 30
0.0
  0
VERTEX
  5
752
  8
LAYER0
 10
-143.6157043954945
 20
-91.35312283653957
 30
0.0
  0
VERTEX
  5
753
  8
LAYER0
 10
-143.1586628387662
 20
-91.40968616107783
 30
0.0
  0
VERTEX
  5
754
  8
LAYER0
 10
-142.7331186435156
 20
-91.48241043548416
 30
0.0
  0
VERTEX
  5
755
  8
LAYER0
 10
-142.3390718097425
 20
-91.57129565975856
 30
0.0
  0
VERTEX
  5
756
  8
LAYER0
 10
-141.976522337447
 20
-91.67634183390103
 30
0.0
  0
VERTEX
  5
757
  8
LAYER0
 10
-141.645470226629
 20
-91.79754895791159
 30
0.0
  0
VERTEX
  5
758
  8
LAYER0
 10
-141.3385770867873
 20
-91.93549420857121
 30
0.0
  0
VERTEX
  5
759
  8
LAYER0
 10
-141.0485045274206
 20
-92.09075476266094
 30
0.0
  0
VERTEX
  5
75A
  8
LAYER0
 10
-140.7752525485287
 20
-92.26333062018071
 30
0.0
  0
VERTEX
  5
75B
  8
LAYER0
 10
-140.5188211501118
 20
-92.4532217811306
 30
0.0
  0
VERTEX
  5
75C
  8
LAYER0
 10
-140.2792103321699
 20
-92.66042824551053
 30
0.0
  0
VERTEX
  5
75D
  8
LAYER0
 10
-140.0564200947029
 20
-92.88495001332058
 30
0.0
  0
VERTEX
  5
75E
  8
LAYER0
 10
-139.8504504377108
 20
-93.12678708456068
 30
0.0
  0
VERTEX
  5
75F
  8
LAYER0
 10
-139.6613013611937
 20
-93.38593945923085
 30
0.0
  0
VERTEX
  5
760
  8
LAYER0
 10
-139.4918587490565
 20
-93.65778972308308
 30
0.0
  0
VERTEX
  5
761
  8
LAYER0
 10
-139.3450084852042
 20
-93.93772046186938
 30
0.0
  0
VERTEX
  5
762
  8
LAYER0
 10
-139.2207505696369
 20
-94.22573167558969
 30
0.0
  0
VERTEX
  5
763
  8
LAYER0
 10
-139.1190850023546
 20
-94.52182336424404
 30
0.0
  0
VERTEX
  5
764
  8
LAYER0
 10
-139.0400117833573
 20
-94.82599552783242
 30
0.0
  0
VERTEX
  5
765
  8
LAYER0
 10
-138.9835309126449
 20
-95.13824816635486
 30
0.0
  0
VERTEX
  5
766
  8
LAYER0
 10
-138.9496423902174
 20
-95.45858127981131
 30
0.0
  0
VERTEX
  5
767
  8
LAYER0
 10
-138.9383462160749
 20
-95.78699486820183
 30
0.0
  0
VERTEX
  5
768
  8
LAYER0
 10
-138.9512914667345
 20
-96.1385779816583
 30
0.0
  0
VERTEX
  5
769
  8
LAYER0
 10
-138.9901272187134
 20
-96.4862033114736
 30
0.0
  0
VERTEX
  5
76A
  8
LAYER0
 10
-139.0548534720116
 20
-96.82987085764775
 30
0.0
  0
VERTEX
  5
76B
  8
LAYER0
 10
-139.145470226629
 20
-97.16958062018074
 30
0.0
  0
VERTEX
  5
76C
  8
LAYER0
 10
-139.2619774825657
 20
-97.50533259907256
 30
0.0
  0
VERTEX
  5
76D
  8
LAYER0
 10
-139.4043752398216
 20
-97.83712679432321
 30
0.0
  0
VERTEX
  5
76E
  8
LAYER0
 10
-139.5726634983968
 20
-98.16496320593271
 30
0.0
  0
VERTEX
  5
76F
  8
LAYER0
 10
-139.7668422582913
 20
-98.48884183390103
 30
0.0
  0
VERTEX
  5
770
  8
LAYER0
 10
-139.8757019218797
 20
-98.65078114788521
 30
0.0
  0
VERTEX
  5
771
  8
LAYER0
 10
-139.9951569020907
 20
-98.81469935368996
 30
0.0
  0
VERTEX
  5
772
  8
LAYER0
 10
-140.265852812381
 20
-99.1484724407612
 30
0.0
  0
VERTEX
  5
773
  8
LAYER0
 10
-140.578929989162
 20
-99.49016109511476
 30
0.0
  0
VERTEX
  5
774
  8
LAYER0
 10
-140.9343884324338
 20
-99.83976531675063
 30
0.0
  0
VERTEX
  5
775
  8
LAYER0
 10
-141.3322281421963
 20
-100.1972851056688
 30
0.0
  0
VERTEX
  5
776
  8
LAYER0
 10
-141.7724491184496
 20
-100.5627204618694
 30
0.0
  0
VERTEX
  5
777
  8
LAYER0
 10
-142.2550513611937
 20
-100.9360713853522
 30
0.0
  0
VERTEX
  5
778
  8
LAYER0
 10
-142.7800348704285
 20
-101.3173378761174
 30
0.0
  0
VERTEX
  5
779
  8
LAYER0
 10
-143.8631483268929
 20
-102.0798708576477
 30
0.0
  0
VERTEX
  5
77A
  8
LAYER0
 10
-144.2434253717477
 20
-102.3602138655633
 30
0.0
  0
VERTEX
  5
77B
  8
LAYER0
 10
-144.5161826276844
 20
-102.5732745515791
 30
0.0
  0
VERTEX
  5
77C
  8
LAYER0
 10
-144.7447446329615
 20
-102.7665463193892
 30
0.0
  0
VERTEX
  5
77D
  8
LAYER0
 10
-144.9924359258375
 20
-102.9875225726873
 30
0.0
  0
VERTEX
  5
77E
  8
LAYER0
 10
-145.5452063743863
 20
-103.512588535748
 30
0.0
  0
VERTEX
  5
77F
  8
LAYER0
 10
-138.8328053189773
 20
-103.512588535748
 30
0.0
  0
SEQEND
  5
82C
  8
LAYER0
  0
POLYLINE
  5
FF
  8
LAYER0
 66
     1
 10
0.0
 20
0.0
 30
0.0
 70
     1
  0
VERTEX
  5
780
  8
LAYER0
 10
-129.6085309126449
 20
-104.1247257389142
 30
0.0
  0
VERTEX
  5
781
  8
LAYER0
 10
-137.4396654772887
 20
-104.1247257389142
 30
0.0
  0
VERTEX
  5
782
  8
LAYER0
 10
-137.4396654772887
 20
-100.5891056861438
 30
0.0
  0
VERTEX
  5
783
  8
LAYER0
 10
-129.6085309126449
 20
-91.28039856213323
 30
0.0
  0
VERTEX
  5
784
  8
LAYER0
 10
-125.8618290656792
 20
-91.28039856213323
 30
0.0
  0
VERTEX
  5
785
  8
LAYER0
 10
-125.8618290656792
 20
-100.7896333906293
 30
0.0
  0
VERTEX
  5
786
  8
LAYER0
 10
-123.9198765590829
 20
-100.7896333906293
 30
0.0
  0
VERTEX
  5
787
  8
LAYER0
 10
-123.9198765590829
 20
-104.1247257389142
 30
0.0
  0
VERTEX
  5
788
  8
LAYER0
 10
-125.8618290656792
 20
-104.1247257389142
 30
0.0
  0
VERTEX
  5
789
  8
LAYER0
 10
-125.8618290656792
 20
-107.0165463193892
 30
0.0
  0
VERTEX
  5
78A
  8
LAYER0
 10
-129.6085309126449
 20
-107.0165463193892
 30
0.0
  0
SEQEND
  5
82D
  8
LAYER0
  0
POLYLINE
  5
100
  8
LAYER0
 66
     1
 10
0.0
 20
0.0
 30
0.0
 70
     1
  0
VERTEX
  5
78B
  8
LAYER0
 10
-129.6085309126449
 20
-100.7896333906293
 30
0.0
  0
VERTEX
  5
78C
  8
LAYER0
 10
-129.6085309126449
 20
-95.9204051584393
 30
0.0
  0
VERTEX
  5
78D
  8
LAYER0
 10
-133.7463937094786
 20
-100.7896333906293
 30
0.0
  0
SEQEND
  5
82E
  8
LAYER0
  0
ENDSEC
  0
EOF
