G04 #@! TF.GenerationSoftware,KiCad,Pcbnew,(5.1.5-0-10_14)*
G04 #@! TF.CreationDate,2020-03-05T22:25:02-06:00*
G04 #@! TF.ProjectId,Electronic Target,456c6563-7472-46f6-9e69-632054617267,rev?*
G04 #@! TF.SameCoordinates,Original*
G04 #@! TF.FileFunction,Soldermask,Bot*
G04 #@! TF.FilePolarity,Negative*
%FSLAX46Y46*%
G04 Gerber Fmt 4.6, Leading zero omitted, Abs format (unit mm)*
G04 Created by KiCad (PCBNEW (5.1.5-0-10_14)) date 2020-03-05 22:25:02*
%MOMM*%
%LPD*%
G04 APERTURE LIST*
%ADD10C,0.100000*%
G04 APERTURE END LIST*
D10*
G36*
X213735256Y-131741298D02*
G01*
X213841579Y-131762447D01*
X214142042Y-131886903D01*
X214412451Y-132067585D01*
X214642415Y-132297549D01*
X214823097Y-132567958D01*
X214823098Y-132567960D01*
X214947553Y-132868422D01*
X215011000Y-133187389D01*
X215011000Y-133512611D01*
X214947553Y-133831578D01*
X214852766Y-134060416D01*
X214823097Y-134132042D01*
X214642415Y-134402451D01*
X214412451Y-134632415D01*
X214142042Y-134813097D01*
X213841579Y-134937553D01*
X213735256Y-134958702D01*
X213522611Y-135001000D01*
X213197389Y-135001000D01*
X212984744Y-134958702D01*
X212878421Y-134937553D01*
X212577958Y-134813097D01*
X212307549Y-134632415D01*
X212077585Y-134402451D01*
X211896903Y-134132042D01*
X211867235Y-134060416D01*
X211772447Y-133831578D01*
X211709000Y-133512611D01*
X211709000Y-133187389D01*
X211772447Y-132868422D01*
X211896902Y-132567960D01*
X211896903Y-132567958D01*
X212077585Y-132297549D01*
X212307549Y-132067585D01*
X212577958Y-131886903D01*
X212878421Y-131762447D01*
X212984744Y-131741298D01*
X213197389Y-131699000D01*
X213522611Y-131699000D01*
X213735256Y-131741298D01*
G37*
G36*
X131185256Y-131741298D02*
G01*
X131291579Y-131762447D01*
X131592042Y-131886903D01*
X131862451Y-132067585D01*
X132092415Y-132297549D01*
X132273097Y-132567958D01*
X132273098Y-132567960D01*
X132397553Y-132868422D01*
X132461000Y-133187389D01*
X132461000Y-133512611D01*
X132397553Y-133831578D01*
X132302766Y-134060416D01*
X132273097Y-134132042D01*
X132092415Y-134402451D01*
X131862451Y-134632415D01*
X131592042Y-134813097D01*
X131291579Y-134937553D01*
X131185256Y-134958702D01*
X130972611Y-135001000D01*
X130647389Y-135001000D01*
X130434744Y-134958702D01*
X130328421Y-134937553D01*
X130027958Y-134813097D01*
X129757549Y-134632415D01*
X129527585Y-134402451D01*
X129346903Y-134132042D01*
X129317235Y-134060416D01*
X129222447Y-133831578D01*
X129159000Y-133512611D01*
X129159000Y-133187389D01*
X129222447Y-132868422D01*
X129346902Y-132567960D01*
X129346903Y-132567958D01*
X129527585Y-132297549D01*
X129757549Y-132067585D01*
X130027958Y-131886903D01*
X130328421Y-131762447D01*
X130434744Y-131741298D01*
X130647389Y-131699000D01*
X130972611Y-131699000D01*
X131185256Y-131741298D01*
G37*
G36*
X203466778Y-132470547D02*
G01*
X203633224Y-132539491D01*
X203783022Y-132639583D01*
X203910417Y-132766978D01*
X204010509Y-132916776D01*
X204079453Y-133083222D01*
X204114600Y-133259918D01*
X204114600Y-133440082D01*
X204079453Y-133616778D01*
X204010509Y-133783224D01*
X203910417Y-133933022D01*
X203783022Y-134060417D01*
X203633224Y-134160509D01*
X203466778Y-134229453D01*
X203290082Y-134264600D01*
X203109918Y-134264600D01*
X202933222Y-134229453D01*
X202766776Y-134160509D01*
X202616978Y-134060417D01*
X202489583Y-133933022D01*
X202389491Y-133783224D01*
X202320547Y-133616778D01*
X202285400Y-133440082D01*
X202285400Y-133259918D01*
X202320547Y-133083222D01*
X202389491Y-132916776D01*
X202489583Y-132766978D01*
X202616978Y-132639583D01*
X202766776Y-132539491D01*
X202933222Y-132470547D01*
X203109918Y-132435400D01*
X203290082Y-132435400D01*
X203466778Y-132470547D01*
G37*
G36*
X200926778Y-132470547D02*
G01*
X201093224Y-132539491D01*
X201243022Y-132639583D01*
X201370417Y-132766978D01*
X201470509Y-132916776D01*
X201539453Y-133083222D01*
X201574600Y-133259918D01*
X201574600Y-133440082D01*
X201539453Y-133616778D01*
X201470509Y-133783224D01*
X201370417Y-133933022D01*
X201243022Y-134060417D01*
X201093224Y-134160509D01*
X200926778Y-134229453D01*
X200750082Y-134264600D01*
X200569918Y-134264600D01*
X200393222Y-134229453D01*
X200226776Y-134160509D01*
X200076978Y-134060417D01*
X199949583Y-133933022D01*
X199849491Y-133783224D01*
X199780547Y-133616778D01*
X199745400Y-133440082D01*
X199745400Y-133259918D01*
X199780547Y-133083222D01*
X199849491Y-132916776D01*
X199949583Y-132766978D01*
X200076978Y-132639583D01*
X200226776Y-132539491D01*
X200393222Y-132470547D01*
X200569918Y-132435400D01*
X200750082Y-132435400D01*
X200926778Y-132470547D01*
G37*
G36*
X198386778Y-132470547D02*
G01*
X198553224Y-132539491D01*
X198703022Y-132639583D01*
X198830417Y-132766978D01*
X198930509Y-132916776D01*
X198999453Y-133083222D01*
X199034600Y-133259918D01*
X199034600Y-133440082D01*
X198999453Y-133616778D01*
X198930509Y-133783224D01*
X198830417Y-133933022D01*
X198703022Y-134060417D01*
X198553224Y-134160509D01*
X198386778Y-134229453D01*
X198210082Y-134264600D01*
X198029918Y-134264600D01*
X197853222Y-134229453D01*
X197686776Y-134160509D01*
X197536978Y-134060417D01*
X197409583Y-133933022D01*
X197309491Y-133783224D01*
X197240547Y-133616778D01*
X197205400Y-133440082D01*
X197205400Y-133259918D01*
X197240547Y-133083222D01*
X197309491Y-132916776D01*
X197409583Y-132766978D01*
X197536978Y-132639583D01*
X197686776Y-132539491D01*
X197853222Y-132470547D01*
X198029918Y-132435400D01*
X198210082Y-132435400D01*
X198386778Y-132470547D01*
G37*
G36*
X195846778Y-132470547D02*
G01*
X196013224Y-132539491D01*
X196163022Y-132639583D01*
X196290417Y-132766978D01*
X196390509Y-132916776D01*
X196459453Y-133083222D01*
X196494600Y-133259918D01*
X196494600Y-133440082D01*
X196459453Y-133616778D01*
X196390509Y-133783224D01*
X196290417Y-133933022D01*
X196163022Y-134060417D01*
X196013224Y-134160509D01*
X195846778Y-134229453D01*
X195670082Y-134264600D01*
X195489918Y-134264600D01*
X195313222Y-134229453D01*
X195146776Y-134160509D01*
X194996978Y-134060417D01*
X194869583Y-133933022D01*
X194769491Y-133783224D01*
X194700547Y-133616778D01*
X194665400Y-133440082D01*
X194665400Y-133259918D01*
X194700547Y-133083222D01*
X194769491Y-132916776D01*
X194869583Y-132766978D01*
X194996978Y-132639583D01*
X195146776Y-132539491D01*
X195313222Y-132470547D01*
X195489918Y-132435400D01*
X195670082Y-132435400D01*
X195846778Y-132470547D01*
G37*
G36*
X193306778Y-132470547D02*
G01*
X193473224Y-132539491D01*
X193623022Y-132639583D01*
X193750417Y-132766978D01*
X193850509Y-132916776D01*
X193919453Y-133083222D01*
X193954600Y-133259918D01*
X193954600Y-133440082D01*
X193919453Y-133616778D01*
X193850509Y-133783224D01*
X193750417Y-133933022D01*
X193623022Y-134060417D01*
X193473224Y-134160509D01*
X193306778Y-134229453D01*
X193130082Y-134264600D01*
X192949918Y-134264600D01*
X192773222Y-134229453D01*
X192606776Y-134160509D01*
X192456978Y-134060417D01*
X192329583Y-133933022D01*
X192229491Y-133783224D01*
X192160547Y-133616778D01*
X192125400Y-133440082D01*
X192125400Y-133259918D01*
X192160547Y-133083222D01*
X192229491Y-132916776D01*
X192329583Y-132766978D01*
X192456978Y-132639583D01*
X192606776Y-132539491D01*
X192773222Y-132470547D01*
X192949918Y-132435400D01*
X193130082Y-132435400D01*
X193306778Y-132470547D01*
G37*
G36*
X190766778Y-132470547D02*
G01*
X190933224Y-132539491D01*
X191083022Y-132639583D01*
X191210417Y-132766978D01*
X191310509Y-132916776D01*
X191379453Y-133083222D01*
X191414600Y-133259918D01*
X191414600Y-133440082D01*
X191379453Y-133616778D01*
X191310509Y-133783224D01*
X191210417Y-133933022D01*
X191083022Y-134060417D01*
X190933224Y-134160509D01*
X190766778Y-134229453D01*
X190590082Y-134264600D01*
X190409918Y-134264600D01*
X190233222Y-134229453D01*
X190066776Y-134160509D01*
X189916978Y-134060417D01*
X189789583Y-133933022D01*
X189689491Y-133783224D01*
X189620547Y-133616778D01*
X189585400Y-133440082D01*
X189585400Y-133259918D01*
X189620547Y-133083222D01*
X189689491Y-132916776D01*
X189789583Y-132766978D01*
X189916978Y-132639583D01*
X190066776Y-132539491D01*
X190233222Y-132470547D01*
X190409918Y-132435400D01*
X190590082Y-132435400D01*
X190766778Y-132470547D01*
G37*
G36*
X185686778Y-132470547D02*
G01*
X185853224Y-132539491D01*
X186003022Y-132639583D01*
X186130417Y-132766978D01*
X186230509Y-132916776D01*
X186299453Y-133083222D01*
X186334600Y-133259918D01*
X186334600Y-133440082D01*
X186299453Y-133616778D01*
X186230509Y-133783224D01*
X186130417Y-133933022D01*
X186003022Y-134060417D01*
X185853224Y-134160509D01*
X185686778Y-134229453D01*
X185510082Y-134264600D01*
X185329918Y-134264600D01*
X185153222Y-134229453D01*
X184986776Y-134160509D01*
X184836978Y-134060417D01*
X184709583Y-133933022D01*
X184609491Y-133783224D01*
X184540547Y-133616778D01*
X184505400Y-133440082D01*
X184505400Y-133259918D01*
X184540547Y-133083222D01*
X184609491Y-132916776D01*
X184709583Y-132766978D01*
X184836978Y-132639583D01*
X184986776Y-132539491D01*
X185153222Y-132470547D01*
X185329918Y-132435400D01*
X185510082Y-132435400D01*
X185686778Y-132470547D01*
G37*
G36*
X183146778Y-132470547D02*
G01*
X183313224Y-132539491D01*
X183463022Y-132639583D01*
X183590417Y-132766978D01*
X183690509Y-132916776D01*
X183759453Y-133083222D01*
X183794600Y-133259918D01*
X183794600Y-133440082D01*
X183759453Y-133616778D01*
X183690509Y-133783224D01*
X183590417Y-133933022D01*
X183463022Y-134060417D01*
X183313224Y-134160509D01*
X183146778Y-134229453D01*
X182970082Y-134264600D01*
X182789918Y-134264600D01*
X182613222Y-134229453D01*
X182446776Y-134160509D01*
X182296978Y-134060417D01*
X182169583Y-133933022D01*
X182069491Y-133783224D01*
X182000547Y-133616778D01*
X181965400Y-133440082D01*
X181965400Y-133259918D01*
X182000547Y-133083222D01*
X182069491Y-132916776D01*
X182169583Y-132766978D01*
X182296978Y-132639583D01*
X182446776Y-132539491D01*
X182613222Y-132470547D01*
X182789918Y-132435400D01*
X182970082Y-132435400D01*
X183146778Y-132470547D01*
G37*
G36*
X180606778Y-132470547D02*
G01*
X180773224Y-132539491D01*
X180923022Y-132639583D01*
X181050417Y-132766978D01*
X181150509Y-132916776D01*
X181219453Y-133083222D01*
X181254600Y-133259918D01*
X181254600Y-133440082D01*
X181219453Y-133616778D01*
X181150509Y-133783224D01*
X181050417Y-133933022D01*
X180923022Y-134060417D01*
X180773224Y-134160509D01*
X180606778Y-134229453D01*
X180430082Y-134264600D01*
X180249918Y-134264600D01*
X180073222Y-134229453D01*
X179906776Y-134160509D01*
X179756978Y-134060417D01*
X179629583Y-133933022D01*
X179529491Y-133783224D01*
X179460547Y-133616778D01*
X179425400Y-133440082D01*
X179425400Y-133259918D01*
X179460547Y-133083222D01*
X179529491Y-132916776D01*
X179629583Y-132766978D01*
X179756978Y-132639583D01*
X179906776Y-132539491D01*
X180073222Y-132470547D01*
X180249918Y-132435400D01*
X180430082Y-132435400D01*
X180606778Y-132470547D01*
G37*
G36*
X178066778Y-132470547D02*
G01*
X178233224Y-132539491D01*
X178383022Y-132639583D01*
X178510417Y-132766978D01*
X178610509Y-132916776D01*
X178679453Y-133083222D01*
X178714600Y-133259918D01*
X178714600Y-133440082D01*
X178679453Y-133616778D01*
X178610509Y-133783224D01*
X178510417Y-133933022D01*
X178383022Y-134060417D01*
X178233224Y-134160509D01*
X178066778Y-134229453D01*
X177890082Y-134264600D01*
X177709918Y-134264600D01*
X177533222Y-134229453D01*
X177366776Y-134160509D01*
X177216978Y-134060417D01*
X177089583Y-133933022D01*
X176989491Y-133783224D01*
X176920547Y-133616778D01*
X176885400Y-133440082D01*
X176885400Y-133259918D01*
X176920547Y-133083222D01*
X176989491Y-132916776D01*
X177089583Y-132766978D01*
X177216978Y-132639583D01*
X177366776Y-132539491D01*
X177533222Y-132470547D01*
X177709918Y-132435400D01*
X177890082Y-132435400D01*
X178066778Y-132470547D01*
G37*
G36*
X175526778Y-132470547D02*
G01*
X175693224Y-132539491D01*
X175843022Y-132639583D01*
X175970417Y-132766978D01*
X176070509Y-132916776D01*
X176139453Y-133083222D01*
X176174600Y-133259918D01*
X176174600Y-133440082D01*
X176139453Y-133616778D01*
X176070509Y-133783224D01*
X175970417Y-133933022D01*
X175843022Y-134060417D01*
X175693224Y-134160509D01*
X175526778Y-134229453D01*
X175350082Y-134264600D01*
X175169918Y-134264600D01*
X174993222Y-134229453D01*
X174826776Y-134160509D01*
X174676978Y-134060417D01*
X174549583Y-133933022D01*
X174449491Y-133783224D01*
X174380547Y-133616778D01*
X174345400Y-133440082D01*
X174345400Y-133259918D01*
X174380547Y-133083222D01*
X174449491Y-132916776D01*
X174549583Y-132766978D01*
X174676978Y-132639583D01*
X174826776Y-132539491D01*
X174993222Y-132470547D01*
X175169918Y-132435400D01*
X175350082Y-132435400D01*
X175526778Y-132470547D01*
G37*
G36*
X172986778Y-132470547D02*
G01*
X173153224Y-132539491D01*
X173303022Y-132639583D01*
X173430417Y-132766978D01*
X173530509Y-132916776D01*
X173599453Y-133083222D01*
X173634600Y-133259918D01*
X173634600Y-133440082D01*
X173599453Y-133616778D01*
X173530509Y-133783224D01*
X173430417Y-133933022D01*
X173303022Y-134060417D01*
X173153224Y-134160509D01*
X172986778Y-134229453D01*
X172810082Y-134264600D01*
X172629918Y-134264600D01*
X172453222Y-134229453D01*
X172286776Y-134160509D01*
X172136978Y-134060417D01*
X172009583Y-133933022D01*
X171909491Y-133783224D01*
X171840547Y-133616778D01*
X171805400Y-133440082D01*
X171805400Y-133259918D01*
X171840547Y-133083222D01*
X171909491Y-132916776D01*
X172009583Y-132766978D01*
X172136978Y-132639583D01*
X172286776Y-132539491D01*
X172453222Y-132470547D01*
X172629918Y-132435400D01*
X172810082Y-132435400D01*
X172986778Y-132470547D01*
G37*
G36*
X170446778Y-132470547D02*
G01*
X170613224Y-132539491D01*
X170763022Y-132639583D01*
X170890417Y-132766978D01*
X170990509Y-132916776D01*
X171059453Y-133083222D01*
X171094600Y-133259918D01*
X171094600Y-133440082D01*
X171059453Y-133616778D01*
X170990509Y-133783224D01*
X170890417Y-133933022D01*
X170763022Y-134060417D01*
X170613224Y-134160509D01*
X170446778Y-134229453D01*
X170270082Y-134264600D01*
X170089918Y-134264600D01*
X169913222Y-134229453D01*
X169746776Y-134160509D01*
X169596978Y-134060417D01*
X169469583Y-133933022D01*
X169369491Y-133783224D01*
X169300547Y-133616778D01*
X169265400Y-133440082D01*
X169265400Y-133259918D01*
X169300547Y-133083222D01*
X169369491Y-132916776D01*
X169469583Y-132766978D01*
X169596978Y-132639583D01*
X169746776Y-132539491D01*
X169913222Y-132470547D01*
X170089918Y-132435400D01*
X170270082Y-132435400D01*
X170446778Y-132470547D01*
G37*
G36*
X167906778Y-132470547D02*
G01*
X168073224Y-132539491D01*
X168223022Y-132639583D01*
X168350417Y-132766978D01*
X168450509Y-132916776D01*
X168519453Y-133083222D01*
X168554600Y-133259918D01*
X168554600Y-133440082D01*
X168519453Y-133616778D01*
X168450509Y-133783224D01*
X168350417Y-133933022D01*
X168223022Y-134060417D01*
X168073224Y-134160509D01*
X167906778Y-134229453D01*
X167730082Y-134264600D01*
X167549918Y-134264600D01*
X167373222Y-134229453D01*
X167206776Y-134160509D01*
X167056978Y-134060417D01*
X166929583Y-133933022D01*
X166829491Y-133783224D01*
X166760547Y-133616778D01*
X166725400Y-133440082D01*
X166725400Y-133259918D01*
X166760547Y-133083222D01*
X166829491Y-132916776D01*
X166929583Y-132766978D01*
X167056978Y-132639583D01*
X167206776Y-132539491D01*
X167373222Y-132470547D01*
X167549918Y-132435400D01*
X167730082Y-132435400D01*
X167906778Y-132470547D01*
G37*
G36*
X162826778Y-132470547D02*
G01*
X162993224Y-132539491D01*
X163143022Y-132639583D01*
X163270417Y-132766978D01*
X163370509Y-132916776D01*
X163439453Y-133083222D01*
X163474600Y-133259918D01*
X163474600Y-133440082D01*
X163439453Y-133616778D01*
X163370509Y-133783224D01*
X163270417Y-133933022D01*
X163143022Y-134060417D01*
X162993224Y-134160509D01*
X162826778Y-134229453D01*
X162650082Y-134264600D01*
X162469918Y-134264600D01*
X162293222Y-134229453D01*
X162126776Y-134160509D01*
X161976978Y-134060417D01*
X161849583Y-133933022D01*
X161749491Y-133783224D01*
X161680547Y-133616778D01*
X161645400Y-133440082D01*
X161645400Y-133259918D01*
X161680547Y-133083222D01*
X161749491Y-132916776D01*
X161849583Y-132766978D01*
X161976978Y-132639583D01*
X162126776Y-132539491D01*
X162293222Y-132470547D01*
X162469918Y-132435400D01*
X162650082Y-132435400D01*
X162826778Y-132470547D01*
G37*
G36*
X160286778Y-132470547D02*
G01*
X160453224Y-132539491D01*
X160603022Y-132639583D01*
X160730417Y-132766978D01*
X160830509Y-132916776D01*
X160899453Y-133083222D01*
X160934600Y-133259918D01*
X160934600Y-133440082D01*
X160899453Y-133616778D01*
X160830509Y-133783224D01*
X160730417Y-133933022D01*
X160603022Y-134060417D01*
X160453224Y-134160509D01*
X160286778Y-134229453D01*
X160110082Y-134264600D01*
X159929918Y-134264600D01*
X159753222Y-134229453D01*
X159586776Y-134160509D01*
X159436978Y-134060417D01*
X159309583Y-133933022D01*
X159209491Y-133783224D01*
X159140547Y-133616778D01*
X159105400Y-133440082D01*
X159105400Y-133259918D01*
X159140547Y-133083222D01*
X159209491Y-132916776D01*
X159309583Y-132766978D01*
X159436978Y-132639583D01*
X159586776Y-132539491D01*
X159753222Y-132470547D01*
X159929918Y-132435400D01*
X160110082Y-132435400D01*
X160286778Y-132470547D01*
G37*
G36*
X157746778Y-132470547D02*
G01*
X157913224Y-132539491D01*
X158063022Y-132639583D01*
X158190417Y-132766978D01*
X158290509Y-132916776D01*
X158359453Y-133083222D01*
X158394600Y-133259918D01*
X158394600Y-133440082D01*
X158359453Y-133616778D01*
X158290509Y-133783224D01*
X158190417Y-133933022D01*
X158063022Y-134060417D01*
X157913224Y-134160509D01*
X157746778Y-134229453D01*
X157570082Y-134264600D01*
X157389918Y-134264600D01*
X157213222Y-134229453D01*
X157046776Y-134160509D01*
X156896978Y-134060417D01*
X156769583Y-133933022D01*
X156669491Y-133783224D01*
X156600547Y-133616778D01*
X156565400Y-133440082D01*
X156565400Y-133259918D01*
X156600547Y-133083222D01*
X156669491Y-132916776D01*
X156769583Y-132766978D01*
X156896978Y-132639583D01*
X157046776Y-132539491D01*
X157213222Y-132470547D01*
X157389918Y-132435400D01*
X157570082Y-132435400D01*
X157746778Y-132470547D01*
G37*
G36*
X155206778Y-132470547D02*
G01*
X155373224Y-132539491D01*
X155523022Y-132639583D01*
X155650417Y-132766978D01*
X155750509Y-132916776D01*
X155819453Y-133083222D01*
X155854600Y-133259918D01*
X155854600Y-133440082D01*
X155819453Y-133616778D01*
X155750509Y-133783224D01*
X155650417Y-133933022D01*
X155523022Y-134060417D01*
X155373224Y-134160509D01*
X155206778Y-134229453D01*
X155030082Y-134264600D01*
X154849918Y-134264600D01*
X154673222Y-134229453D01*
X154506776Y-134160509D01*
X154356978Y-134060417D01*
X154229583Y-133933022D01*
X154129491Y-133783224D01*
X154060547Y-133616778D01*
X154025400Y-133440082D01*
X154025400Y-133259918D01*
X154060547Y-133083222D01*
X154129491Y-132916776D01*
X154229583Y-132766978D01*
X154356978Y-132639583D01*
X154506776Y-132539491D01*
X154673222Y-132470547D01*
X154849918Y-132435400D01*
X155030082Y-132435400D01*
X155206778Y-132470547D01*
G37*
G36*
X152666778Y-132470547D02*
G01*
X152833224Y-132539491D01*
X152983022Y-132639583D01*
X153110417Y-132766978D01*
X153210509Y-132916776D01*
X153279453Y-133083222D01*
X153314600Y-133259918D01*
X153314600Y-133440082D01*
X153279453Y-133616778D01*
X153210509Y-133783224D01*
X153110417Y-133933022D01*
X152983022Y-134060417D01*
X152833224Y-134160509D01*
X152666778Y-134229453D01*
X152490082Y-134264600D01*
X152309918Y-134264600D01*
X152133222Y-134229453D01*
X151966776Y-134160509D01*
X151816978Y-134060417D01*
X151689583Y-133933022D01*
X151589491Y-133783224D01*
X151520547Y-133616778D01*
X151485400Y-133440082D01*
X151485400Y-133259918D01*
X151520547Y-133083222D01*
X151589491Y-132916776D01*
X151689583Y-132766978D01*
X151816978Y-132639583D01*
X151966776Y-132539491D01*
X152133222Y-132470547D01*
X152309918Y-132435400D01*
X152490082Y-132435400D01*
X152666778Y-132470547D01*
G37*
G36*
X150126778Y-132470547D02*
G01*
X150293224Y-132539491D01*
X150443022Y-132639583D01*
X150570417Y-132766978D01*
X150670509Y-132916776D01*
X150739453Y-133083222D01*
X150774600Y-133259918D01*
X150774600Y-133440082D01*
X150739453Y-133616778D01*
X150670509Y-133783224D01*
X150570417Y-133933022D01*
X150443022Y-134060417D01*
X150293224Y-134160509D01*
X150126778Y-134229453D01*
X149950082Y-134264600D01*
X149769918Y-134264600D01*
X149593222Y-134229453D01*
X149426776Y-134160509D01*
X149276978Y-134060417D01*
X149149583Y-133933022D01*
X149049491Y-133783224D01*
X148980547Y-133616778D01*
X148945400Y-133440082D01*
X148945400Y-133259918D01*
X148980547Y-133083222D01*
X149049491Y-132916776D01*
X149149583Y-132766978D01*
X149276978Y-132639583D01*
X149426776Y-132539491D01*
X149593222Y-132470547D01*
X149769918Y-132435400D01*
X149950082Y-132435400D01*
X150126778Y-132470547D01*
G37*
G36*
X147586778Y-132470547D02*
G01*
X147753224Y-132539491D01*
X147903022Y-132639583D01*
X148030417Y-132766978D01*
X148130509Y-132916776D01*
X148199453Y-133083222D01*
X148234600Y-133259918D01*
X148234600Y-133440082D01*
X148199453Y-133616778D01*
X148130509Y-133783224D01*
X148030417Y-133933022D01*
X147903022Y-134060417D01*
X147753224Y-134160509D01*
X147586778Y-134229453D01*
X147410082Y-134264600D01*
X147229918Y-134264600D01*
X147053222Y-134229453D01*
X146886776Y-134160509D01*
X146736978Y-134060417D01*
X146609583Y-133933022D01*
X146509491Y-133783224D01*
X146440547Y-133616778D01*
X146405400Y-133440082D01*
X146405400Y-133259918D01*
X146440547Y-133083222D01*
X146509491Y-132916776D01*
X146609583Y-132766978D01*
X146736978Y-132639583D01*
X146886776Y-132539491D01*
X147053222Y-132470547D01*
X147229918Y-132435400D01*
X147410082Y-132435400D01*
X147586778Y-132470547D01*
G37*
G36*
X145046778Y-132470547D02*
G01*
X145213224Y-132539491D01*
X145363022Y-132639583D01*
X145490417Y-132766978D01*
X145590509Y-132916776D01*
X145659453Y-133083222D01*
X145694600Y-133259918D01*
X145694600Y-133440082D01*
X145659453Y-133616778D01*
X145590509Y-133783224D01*
X145490417Y-133933022D01*
X145363022Y-134060417D01*
X145213224Y-134160509D01*
X145046778Y-134229453D01*
X144870082Y-134264600D01*
X144689918Y-134264600D01*
X144513222Y-134229453D01*
X144346776Y-134160509D01*
X144196978Y-134060417D01*
X144069583Y-133933022D01*
X143969491Y-133783224D01*
X143900547Y-133616778D01*
X143865400Y-133440082D01*
X143865400Y-133259918D01*
X143900547Y-133083222D01*
X143969491Y-132916776D01*
X144069583Y-132766978D01*
X144196978Y-132639583D01*
X144346776Y-132539491D01*
X144513222Y-132470547D01*
X144689918Y-132435400D01*
X144870082Y-132435400D01*
X145046778Y-132470547D01*
G37*
G36*
X208546778Y-132470547D02*
G01*
X208713224Y-132539491D01*
X208863022Y-132639583D01*
X208990417Y-132766978D01*
X209090509Y-132916776D01*
X209159453Y-133083222D01*
X209194600Y-133259918D01*
X209194600Y-133440082D01*
X209159453Y-133616778D01*
X209090509Y-133783224D01*
X208990417Y-133933022D01*
X208863022Y-134060417D01*
X208713224Y-134160509D01*
X208546778Y-134229453D01*
X208370082Y-134264600D01*
X208189918Y-134264600D01*
X208013222Y-134229453D01*
X207846776Y-134160509D01*
X207696978Y-134060417D01*
X207569583Y-133933022D01*
X207469491Y-133783224D01*
X207400547Y-133616778D01*
X207365400Y-133440082D01*
X207365400Y-133259918D01*
X207400547Y-133083222D01*
X207469491Y-132916776D01*
X207569583Y-132766978D01*
X207696978Y-132639583D01*
X207846776Y-132539491D01*
X208013222Y-132470547D01*
X208189918Y-132435400D01*
X208370082Y-132435400D01*
X208546778Y-132470547D01*
G37*
G36*
X206006778Y-132470547D02*
G01*
X206173224Y-132539491D01*
X206323022Y-132639583D01*
X206450417Y-132766978D01*
X206550509Y-132916776D01*
X206619453Y-133083222D01*
X206654600Y-133259918D01*
X206654600Y-133440082D01*
X206619453Y-133616778D01*
X206550509Y-133783224D01*
X206450417Y-133933022D01*
X206323022Y-134060417D01*
X206173224Y-134160509D01*
X206006778Y-134229453D01*
X205830082Y-134264600D01*
X205649918Y-134264600D01*
X205473222Y-134229453D01*
X205306776Y-134160509D01*
X205156978Y-134060417D01*
X205029583Y-133933022D01*
X204929491Y-133783224D01*
X204860547Y-133616778D01*
X204825400Y-133440082D01*
X204825400Y-133259918D01*
X204860547Y-133083222D01*
X204929491Y-132916776D01*
X205029583Y-132766978D01*
X205156978Y-132639583D01*
X205306776Y-132539491D01*
X205473222Y-132470547D01*
X205649918Y-132435400D01*
X205830082Y-132435400D01*
X206006778Y-132470547D01*
G37*
G36*
X213626778Y-127390547D02*
G01*
X213793224Y-127459491D01*
X213943022Y-127559583D01*
X214070417Y-127686978D01*
X214170509Y-127836776D01*
X214239453Y-128003222D01*
X214274600Y-128179918D01*
X214274600Y-128360082D01*
X214239453Y-128536778D01*
X214170509Y-128703224D01*
X214070417Y-128853022D01*
X213943022Y-128980417D01*
X213793224Y-129080509D01*
X213626778Y-129149453D01*
X213450082Y-129184600D01*
X213269918Y-129184600D01*
X213093222Y-129149453D01*
X212926776Y-129080509D01*
X212776978Y-128980417D01*
X212649583Y-128853022D01*
X212549491Y-128703224D01*
X212480547Y-128536778D01*
X212445400Y-128360082D01*
X212445400Y-128179918D01*
X212480547Y-128003222D01*
X212549491Y-127836776D01*
X212649583Y-127686978D01*
X212776978Y-127559583D01*
X212926776Y-127459491D01*
X213093222Y-127390547D01*
X213269918Y-127355400D01*
X213450082Y-127355400D01*
X213626778Y-127390547D01*
G37*
G36*
X211086778Y-127390547D02*
G01*
X211253224Y-127459491D01*
X211403022Y-127559583D01*
X211530417Y-127686978D01*
X211630509Y-127836776D01*
X211699453Y-128003222D01*
X211734600Y-128179918D01*
X211734600Y-128360082D01*
X211699453Y-128536778D01*
X211630509Y-128703224D01*
X211530417Y-128853022D01*
X211403022Y-128980417D01*
X211253224Y-129080509D01*
X211086778Y-129149453D01*
X210910082Y-129184600D01*
X210729918Y-129184600D01*
X210553222Y-129149453D01*
X210386776Y-129080509D01*
X210236978Y-128980417D01*
X210109583Y-128853022D01*
X210009491Y-128703224D01*
X209940547Y-128536778D01*
X209905400Y-128360082D01*
X209905400Y-128179918D01*
X209940547Y-128003222D01*
X210009491Y-127836776D01*
X210109583Y-127686978D01*
X210236978Y-127559583D01*
X210386776Y-127459491D01*
X210553222Y-127390547D01*
X210729918Y-127355400D01*
X210910082Y-127355400D01*
X211086778Y-127390547D01*
G37*
G36*
X164078228Y-126181703D02*
G01*
X164233100Y-126245853D01*
X164372481Y-126338985D01*
X164491015Y-126457519D01*
X164584147Y-126596900D01*
X164648297Y-126751772D01*
X164681000Y-126916184D01*
X164681000Y-127083816D01*
X164648297Y-127248228D01*
X164584147Y-127403100D01*
X164491015Y-127542481D01*
X164372481Y-127661015D01*
X164233100Y-127754147D01*
X164078228Y-127818297D01*
X163913816Y-127851000D01*
X163746184Y-127851000D01*
X163581772Y-127818297D01*
X163426900Y-127754147D01*
X163287519Y-127661015D01*
X163168985Y-127542481D01*
X163075853Y-127403100D01*
X163011703Y-127248228D01*
X162979000Y-127083816D01*
X162979000Y-126916184D01*
X163011703Y-126751772D01*
X163075853Y-126596900D01*
X163168985Y-126457519D01*
X163287519Y-126338985D01*
X163426900Y-126245853D01*
X163581772Y-126181703D01*
X163746184Y-126149000D01*
X163913816Y-126149000D01*
X164078228Y-126181703D01*
G37*
G36*
X171698228Y-126181703D02*
G01*
X171853100Y-126245853D01*
X171992481Y-126338985D01*
X172111015Y-126457519D01*
X172204147Y-126596900D01*
X172268297Y-126751772D01*
X172301000Y-126916184D01*
X172301000Y-127083816D01*
X172268297Y-127248228D01*
X172204147Y-127403100D01*
X172111015Y-127542481D01*
X171992481Y-127661015D01*
X171853100Y-127754147D01*
X171698228Y-127818297D01*
X171533816Y-127851000D01*
X171366184Y-127851000D01*
X171201772Y-127818297D01*
X171046900Y-127754147D01*
X170907519Y-127661015D01*
X170788985Y-127542481D01*
X170695853Y-127403100D01*
X170631703Y-127248228D01*
X170599000Y-127083816D01*
X170599000Y-126916184D01*
X170631703Y-126751772D01*
X170695853Y-126596900D01*
X170788985Y-126457519D01*
X170907519Y-126338985D01*
X171046900Y-126245853D01*
X171201772Y-126181703D01*
X171366184Y-126149000D01*
X171533816Y-126149000D01*
X171698228Y-126181703D01*
G37*
G36*
X213626778Y-124850547D02*
G01*
X213793224Y-124919491D01*
X213943022Y-125019583D01*
X214070417Y-125146978D01*
X214170509Y-125296776D01*
X214239453Y-125463222D01*
X214274600Y-125639918D01*
X214274600Y-125820082D01*
X214239453Y-125996778D01*
X214170509Y-126163224D01*
X214070417Y-126313022D01*
X213943022Y-126440417D01*
X213793224Y-126540509D01*
X213626778Y-126609453D01*
X213450082Y-126644600D01*
X213269918Y-126644600D01*
X213093222Y-126609453D01*
X212926776Y-126540509D01*
X212776978Y-126440417D01*
X212649583Y-126313022D01*
X212549491Y-126163224D01*
X212480547Y-125996778D01*
X212445400Y-125820082D01*
X212445400Y-125639918D01*
X212480547Y-125463222D01*
X212549491Y-125296776D01*
X212649583Y-125146978D01*
X212776978Y-125019583D01*
X212926776Y-124919491D01*
X213093222Y-124850547D01*
X213269918Y-124815400D01*
X213450082Y-124815400D01*
X213626778Y-124850547D01*
G37*
G36*
X211086778Y-124850547D02*
G01*
X211253224Y-124919491D01*
X211403022Y-125019583D01*
X211530417Y-125146978D01*
X211630509Y-125296776D01*
X211699453Y-125463222D01*
X211734600Y-125639918D01*
X211734600Y-125820082D01*
X211699453Y-125996778D01*
X211630509Y-126163224D01*
X211530417Y-126313022D01*
X211403022Y-126440417D01*
X211253224Y-126540509D01*
X211086778Y-126609453D01*
X210910082Y-126644600D01*
X210729918Y-126644600D01*
X210553222Y-126609453D01*
X210386776Y-126540509D01*
X210236978Y-126440417D01*
X210109583Y-126313022D01*
X210009491Y-126163224D01*
X209940547Y-125996778D01*
X209905400Y-125820082D01*
X209905400Y-125639918D01*
X209940547Y-125463222D01*
X210009491Y-125296776D01*
X210109583Y-125146978D01*
X210236978Y-125019583D01*
X210386776Y-124919491D01*
X210553222Y-124850547D01*
X210729918Y-124815400D01*
X210910082Y-124815400D01*
X211086778Y-124850547D01*
G37*
G36*
X159651000Y-126631000D02*
G01*
X157849000Y-126631000D01*
X157849000Y-124829000D01*
X159651000Y-124829000D01*
X159651000Y-126631000D01*
G37*
G36*
X164078228Y-123641703D02*
G01*
X164233100Y-123705853D01*
X164372481Y-123798985D01*
X164491015Y-123917519D01*
X164584147Y-124056900D01*
X164648297Y-124211772D01*
X164681000Y-124376184D01*
X164681000Y-124543816D01*
X164648297Y-124708228D01*
X164584147Y-124863100D01*
X164491015Y-125002481D01*
X164372481Y-125121015D01*
X164233100Y-125214147D01*
X164078228Y-125278297D01*
X163913816Y-125311000D01*
X163746184Y-125311000D01*
X163581772Y-125278297D01*
X163426900Y-125214147D01*
X163287519Y-125121015D01*
X163168985Y-125002481D01*
X163075853Y-124863100D01*
X163011703Y-124708228D01*
X162979000Y-124543816D01*
X162979000Y-124376184D01*
X163011703Y-124211772D01*
X163075853Y-124056900D01*
X163168985Y-123917519D01*
X163287519Y-123798985D01*
X163426900Y-123705853D01*
X163581772Y-123641703D01*
X163746184Y-123609000D01*
X163913816Y-123609000D01*
X164078228Y-123641703D01*
G37*
G36*
X171698228Y-123641703D02*
G01*
X171853100Y-123705853D01*
X171992481Y-123798985D01*
X172111015Y-123917519D01*
X172204147Y-124056900D01*
X172268297Y-124211772D01*
X172301000Y-124376184D01*
X172301000Y-124543816D01*
X172268297Y-124708228D01*
X172204147Y-124863100D01*
X172111015Y-125002481D01*
X171992481Y-125121015D01*
X171853100Y-125214147D01*
X171698228Y-125278297D01*
X171533816Y-125311000D01*
X171366184Y-125311000D01*
X171201772Y-125278297D01*
X171046900Y-125214147D01*
X170907519Y-125121015D01*
X170788985Y-125002481D01*
X170695853Y-124863100D01*
X170631703Y-124708228D01*
X170599000Y-124543816D01*
X170599000Y-124376184D01*
X170631703Y-124211772D01*
X170695853Y-124056900D01*
X170788985Y-123917519D01*
X170907519Y-123798985D01*
X171046900Y-123705853D01*
X171201772Y-123641703D01*
X171366184Y-123609000D01*
X171533816Y-123609000D01*
X171698228Y-123641703D01*
G37*
G36*
X211086778Y-122310547D02*
G01*
X211253224Y-122379491D01*
X211403022Y-122479583D01*
X211530417Y-122606978D01*
X211630509Y-122756776D01*
X211699453Y-122923222D01*
X211734600Y-123099918D01*
X211734600Y-123280082D01*
X211699453Y-123456778D01*
X211630509Y-123623224D01*
X211530417Y-123773022D01*
X211403022Y-123900417D01*
X211253224Y-124000509D01*
X211086778Y-124069453D01*
X210910082Y-124104600D01*
X210729918Y-124104600D01*
X210553222Y-124069453D01*
X210386776Y-124000509D01*
X210236978Y-123900417D01*
X210109583Y-123773022D01*
X210009491Y-123623224D01*
X209940547Y-123456778D01*
X209905400Y-123280082D01*
X209905400Y-123099918D01*
X209940547Y-122923222D01*
X210009491Y-122756776D01*
X210109583Y-122606978D01*
X210236978Y-122479583D01*
X210386776Y-122379491D01*
X210553222Y-122310547D01*
X210729918Y-122275400D01*
X210910082Y-122275400D01*
X211086778Y-122310547D01*
G37*
G36*
X213626778Y-122310547D02*
G01*
X213793224Y-122379491D01*
X213943022Y-122479583D01*
X214070417Y-122606978D01*
X214170509Y-122756776D01*
X214239453Y-122923222D01*
X214274600Y-123099918D01*
X214274600Y-123280082D01*
X214239453Y-123456778D01*
X214170509Y-123623224D01*
X214070417Y-123773022D01*
X213943022Y-123900417D01*
X213793224Y-124000509D01*
X213626778Y-124069453D01*
X213450082Y-124104600D01*
X213269918Y-124104600D01*
X213093222Y-124069453D01*
X212926776Y-124000509D01*
X212776978Y-123900417D01*
X212649583Y-123773022D01*
X212549491Y-123623224D01*
X212480547Y-123456778D01*
X212445400Y-123280082D01*
X212445400Y-123099918D01*
X212480547Y-122923222D01*
X212549491Y-122756776D01*
X212649583Y-122606978D01*
X212776978Y-122479583D01*
X212926776Y-122379491D01*
X213093222Y-122310547D01*
X213269918Y-122275400D01*
X213450082Y-122275400D01*
X213626778Y-122310547D01*
G37*
G36*
X164078228Y-121101703D02*
G01*
X164233100Y-121165853D01*
X164372481Y-121258985D01*
X164491015Y-121377519D01*
X164584147Y-121516900D01*
X164648297Y-121671772D01*
X164681000Y-121836184D01*
X164681000Y-122003816D01*
X164648297Y-122168228D01*
X164584147Y-122323100D01*
X164491015Y-122462481D01*
X164372481Y-122581015D01*
X164233100Y-122674147D01*
X164078228Y-122738297D01*
X163913816Y-122771000D01*
X163746184Y-122771000D01*
X163581772Y-122738297D01*
X163426900Y-122674147D01*
X163287519Y-122581015D01*
X163168985Y-122462481D01*
X163075853Y-122323100D01*
X163011703Y-122168228D01*
X162979000Y-122003816D01*
X162979000Y-121836184D01*
X163011703Y-121671772D01*
X163075853Y-121516900D01*
X163168985Y-121377519D01*
X163287519Y-121258985D01*
X163426900Y-121165853D01*
X163581772Y-121101703D01*
X163746184Y-121069000D01*
X163913816Y-121069000D01*
X164078228Y-121101703D01*
G37*
G36*
X171698228Y-121101703D02*
G01*
X171853100Y-121165853D01*
X171992481Y-121258985D01*
X172111015Y-121377519D01*
X172204147Y-121516900D01*
X172268297Y-121671772D01*
X172301000Y-121836184D01*
X172301000Y-122003816D01*
X172268297Y-122168228D01*
X172204147Y-122323100D01*
X172111015Y-122462481D01*
X171992481Y-122581015D01*
X171853100Y-122674147D01*
X171698228Y-122738297D01*
X171533816Y-122771000D01*
X171366184Y-122771000D01*
X171201772Y-122738297D01*
X171046900Y-122674147D01*
X170907519Y-122581015D01*
X170788985Y-122462481D01*
X170695853Y-122323100D01*
X170631703Y-122168228D01*
X170599000Y-122003816D01*
X170599000Y-121836184D01*
X170631703Y-121671772D01*
X170695853Y-121516900D01*
X170788985Y-121377519D01*
X170907519Y-121258985D01*
X171046900Y-121165853D01*
X171201772Y-121101703D01*
X171366184Y-121069000D01*
X171533816Y-121069000D01*
X171698228Y-121101703D01*
G37*
G36*
X211086778Y-119770547D02*
G01*
X211253224Y-119839491D01*
X211403022Y-119939583D01*
X211530417Y-120066978D01*
X211630509Y-120216776D01*
X211699453Y-120383222D01*
X211734600Y-120559918D01*
X211734600Y-120740082D01*
X211699453Y-120916778D01*
X211630509Y-121083224D01*
X211530417Y-121233022D01*
X211403022Y-121360417D01*
X211253224Y-121460509D01*
X211086778Y-121529453D01*
X210910082Y-121564600D01*
X210729918Y-121564600D01*
X210553222Y-121529453D01*
X210386776Y-121460509D01*
X210236978Y-121360417D01*
X210109583Y-121233022D01*
X210009491Y-121083224D01*
X209940547Y-120916778D01*
X209905400Y-120740082D01*
X209905400Y-120559918D01*
X209940547Y-120383222D01*
X210009491Y-120216776D01*
X210109583Y-120066978D01*
X210236978Y-119939583D01*
X210386776Y-119839491D01*
X210553222Y-119770547D01*
X210729918Y-119735400D01*
X210910082Y-119735400D01*
X211086778Y-119770547D01*
G37*
G36*
X213626778Y-119770547D02*
G01*
X213793224Y-119839491D01*
X213943022Y-119939583D01*
X214070417Y-120066978D01*
X214170509Y-120216776D01*
X214239453Y-120383222D01*
X214274600Y-120559918D01*
X214274600Y-120740082D01*
X214239453Y-120916778D01*
X214170509Y-121083224D01*
X214070417Y-121233022D01*
X213943022Y-121360417D01*
X213793224Y-121460509D01*
X213626778Y-121529453D01*
X213450082Y-121564600D01*
X213269918Y-121564600D01*
X213093222Y-121529453D01*
X212926776Y-121460509D01*
X212776978Y-121360417D01*
X212649583Y-121233022D01*
X212549491Y-121083224D01*
X212480547Y-120916778D01*
X212445400Y-120740082D01*
X212445400Y-120559918D01*
X212480547Y-120383222D01*
X212549491Y-120216776D01*
X212649583Y-120066978D01*
X212776978Y-119939583D01*
X212926776Y-119839491D01*
X213093222Y-119770547D01*
X213269918Y-119735400D01*
X213450082Y-119735400D01*
X213626778Y-119770547D01*
G37*
G36*
X124573512Y-118483927D02*
G01*
X124722812Y-118513624D01*
X124886784Y-118581544D01*
X125034354Y-118680147D01*
X125159853Y-118805646D01*
X125258456Y-118953216D01*
X125326376Y-119117188D01*
X125361000Y-119291259D01*
X125361000Y-119468741D01*
X125326376Y-119642812D01*
X125258456Y-119806784D01*
X125159853Y-119954354D01*
X125034354Y-120079853D01*
X124886784Y-120178456D01*
X124722812Y-120246376D01*
X124573512Y-120276073D01*
X124548742Y-120281000D01*
X124371258Y-120281000D01*
X124346488Y-120276073D01*
X124197188Y-120246376D01*
X124033216Y-120178456D01*
X123885646Y-120079853D01*
X123760147Y-119954354D01*
X123661544Y-119806784D01*
X123593624Y-119642812D01*
X123559000Y-119468741D01*
X123559000Y-119291259D01*
X123593624Y-119117188D01*
X123661544Y-118953216D01*
X123760147Y-118805646D01*
X123885646Y-118680147D01*
X124033216Y-118581544D01*
X124197188Y-118513624D01*
X124346488Y-118483927D01*
X124371258Y-118479000D01*
X124548742Y-118479000D01*
X124573512Y-118483927D01*
G37*
G36*
X122033512Y-118483927D02*
G01*
X122182812Y-118513624D01*
X122346784Y-118581544D01*
X122494354Y-118680147D01*
X122619853Y-118805646D01*
X122718456Y-118953216D01*
X122786376Y-119117188D01*
X122821000Y-119291259D01*
X122821000Y-119468741D01*
X122786376Y-119642812D01*
X122718456Y-119806784D01*
X122619853Y-119954354D01*
X122494354Y-120079853D01*
X122346784Y-120178456D01*
X122182812Y-120246376D01*
X122033512Y-120276073D01*
X122008742Y-120281000D01*
X121831258Y-120281000D01*
X121806488Y-120276073D01*
X121657188Y-120246376D01*
X121493216Y-120178456D01*
X121345646Y-120079853D01*
X121220147Y-119954354D01*
X121121544Y-119806784D01*
X121053624Y-119642812D01*
X121019000Y-119468741D01*
X121019000Y-119291259D01*
X121053624Y-119117188D01*
X121121544Y-118953216D01*
X121220147Y-118805646D01*
X121345646Y-118680147D01*
X121493216Y-118581544D01*
X121657188Y-118513624D01*
X121806488Y-118483927D01*
X121831258Y-118479000D01*
X122008742Y-118479000D01*
X122033512Y-118483927D01*
G37*
G36*
X164681000Y-120231000D02*
G01*
X162979000Y-120231000D01*
X162979000Y-118529000D01*
X164681000Y-118529000D01*
X164681000Y-120231000D01*
G37*
G36*
X171698228Y-118561703D02*
G01*
X171853100Y-118625853D01*
X171992481Y-118718985D01*
X172111015Y-118837519D01*
X172204147Y-118976900D01*
X172268297Y-119131772D01*
X172301000Y-119296184D01*
X172301000Y-119463816D01*
X172268297Y-119628228D01*
X172204147Y-119783100D01*
X172111015Y-119922481D01*
X171992481Y-120041015D01*
X171853100Y-120134147D01*
X171698228Y-120198297D01*
X171533816Y-120231000D01*
X171366184Y-120231000D01*
X171201772Y-120198297D01*
X171046900Y-120134147D01*
X170907519Y-120041015D01*
X170788985Y-119922481D01*
X170695853Y-119783100D01*
X170631703Y-119628228D01*
X170599000Y-119463816D01*
X170599000Y-119296184D01*
X170631703Y-119131772D01*
X170695853Y-118976900D01*
X170788985Y-118837519D01*
X170907519Y-118718985D01*
X171046900Y-118625853D01*
X171201772Y-118561703D01*
X171366184Y-118529000D01*
X171533816Y-118529000D01*
X171698228Y-118561703D01*
G37*
G36*
X211086778Y-117230547D02*
G01*
X211253224Y-117299491D01*
X211403022Y-117399583D01*
X211530417Y-117526978D01*
X211630509Y-117676776D01*
X211699453Y-117843222D01*
X211734600Y-118019918D01*
X211734600Y-118200082D01*
X211699453Y-118376778D01*
X211630509Y-118543224D01*
X211530417Y-118693022D01*
X211403022Y-118820417D01*
X211253224Y-118920509D01*
X211086778Y-118989453D01*
X210910082Y-119024600D01*
X210729918Y-119024600D01*
X210553222Y-118989453D01*
X210386776Y-118920509D01*
X210236978Y-118820417D01*
X210109583Y-118693022D01*
X210009491Y-118543224D01*
X209940547Y-118376778D01*
X209905400Y-118200082D01*
X209905400Y-118019918D01*
X209940547Y-117843222D01*
X210009491Y-117676776D01*
X210109583Y-117526978D01*
X210236978Y-117399583D01*
X210386776Y-117299491D01*
X210553222Y-117230547D01*
X210729918Y-117195400D01*
X210910082Y-117195400D01*
X211086778Y-117230547D01*
G37*
G36*
X213626778Y-117230547D02*
G01*
X213793224Y-117299491D01*
X213943022Y-117399583D01*
X214070417Y-117526978D01*
X214170509Y-117676776D01*
X214239453Y-117843222D01*
X214274600Y-118019918D01*
X214274600Y-118200082D01*
X214239453Y-118376778D01*
X214170509Y-118543224D01*
X214070417Y-118693022D01*
X213943022Y-118820417D01*
X213793224Y-118920509D01*
X213626778Y-118989453D01*
X213450082Y-119024600D01*
X213269918Y-119024600D01*
X213093222Y-118989453D01*
X212926776Y-118920509D01*
X212776978Y-118820417D01*
X212649583Y-118693022D01*
X212549491Y-118543224D01*
X212480547Y-118376778D01*
X212445400Y-118200082D01*
X212445400Y-118019918D01*
X212480547Y-117843222D01*
X212549491Y-117676776D01*
X212649583Y-117526978D01*
X212776978Y-117399583D01*
X212926776Y-117299491D01*
X213093222Y-117230547D01*
X213269918Y-117195400D01*
X213450082Y-117195400D01*
X213626778Y-117230547D01*
G37*
G36*
X122033512Y-115943927D02*
G01*
X122182812Y-115973624D01*
X122346784Y-116041544D01*
X122494354Y-116140147D01*
X122619853Y-116265646D01*
X122718456Y-116413216D01*
X122786376Y-116577188D01*
X122821000Y-116751259D01*
X122821000Y-116928741D01*
X122786376Y-117102812D01*
X122718456Y-117266784D01*
X122619853Y-117414354D01*
X122494354Y-117539853D01*
X122346784Y-117638456D01*
X122182812Y-117706376D01*
X122033512Y-117736073D01*
X122008742Y-117741000D01*
X121831258Y-117741000D01*
X121806488Y-117736073D01*
X121657188Y-117706376D01*
X121493216Y-117638456D01*
X121345646Y-117539853D01*
X121220147Y-117414354D01*
X121121544Y-117266784D01*
X121053624Y-117102812D01*
X121019000Y-116928741D01*
X121019000Y-116751259D01*
X121053624Y-116577188D01*
X121121544Y-116413216D01*
X121220147Y-116265646D01*
X121345646Y-116140147D01*
X121493216Y-116041544D01*
X121657188Y-115973624D01*
X121806488Y-115943927D01*
X121831258Y-115939000D01*
X122008742Y-115939000D01*
X122033512Y-115943927D01*
G37*
G36*
X124573512Y-115943927D02*
G01*
X124722812Y-115973624D01*
X124886784Y-116041544D01*
X125034354Y-116140147D01*
X125159853Y-116265646D01*
X125258456Y-116413216D01*
X125326376Y-116577188D01*
X125361000Y-116751259D01*
X125361000Y-116928741D01*
X125326376Y-117102812D01*
X125258456Y-117266784D01*
X125159853Y-117414354D01*
X125034354Y-117539853D01*
X124886784Y-117638456D01*
X124722812Y-117706376D01*
X124573512Y-117736073D01*
X124548742Y-117741000D01*
X124371258Y-117741000D01*
X124346488Y-117736073D01*
X124197188Y-117706376D01*
X124033216Y-117638456D01*
X123885646Y-117539853D01*
X123760147Y-117414354D01*
X123661544Y-117266784D01*
X123593624Y-117102812D01*
X123559000Y-116928741D01*
X123559000Y-116751259D01*
X123593624Y-116577188D01*
X123661544Y-116413216D01*
X123760147Y-116265646D01*
X123885646Y-116140147D01*
X124033216Y-116041544D01*
X124197188Y-115973624D01*
X124346488Y-115943927D01*
X124371258Y-115939000D01*
X124548742Y-115939000D01*
X124573512Y-115943927D01*
G37*
G36*
X211086778Y-114690547D02*
G01*
X211253224Y-114759491D01*
X211403022Y-114859583D01*
X211530417Y-114986978D01*
X211630509Y-115136776D01*
X211699453Y-115303222D01*
X211734600Y-115479918D01*
X211734600Y-115660082D01*
X211699453Y-115836778D01*
X211630509Y-116003224D01*
X211530417Y-116153022D01*
X211403022Y-116280417D01*
X211253224Y-116380509D01*
X211086778Y-116449453D01*
X210910082Y-116484600D01*
X210729918Y-116484600D01*
X210553222Y-116449453D01*
X210386776Y-116380509D01*
X210236978Y-116280417D01*
X210109583Y-116153022D01*
X210009491Y-116003224D01*
X209940547Y-115836778D01*
X209905400Y-115660082D01*
X209905400Y-115479918D01*
X209940547Y-115303222D01*
X210009491Y-115136776D01*
X210109583Y-114986978D01*
X210236978Y-114859583D01*
X210386776Y-114759491D01*
X210553222Y-114690547D01*
X210729918Y-114655400D01*
X210910082Y-114655400D01*
X211086778Y-114690547D01*
G37*
G36*
X213626778Y-114690547D02*
G01*
X213793224Y-114759491D01*
X213943022Y-114859583D01*
X214070417Y-114986978D01*
X214170509Y-115136776D01*
X214239453Y-115303222D01*
X214274600Y-115479918D01*
X214274600Y-115660082D01*
X214239453Y-115836778D01*
X214170509Y-116003224D01*
X214070417Y-116153022D01*
X213943022Y-116280417D01*
X213793224Y-116380509D01*
X213626778Y-116449453D01*
X213450082Y-116484600D01*
X213269918Y-116484600D01*
X213093222Y-116449453D01*
X212926776Y-116380509D01*
X212776978Y-116280417D01*
X212649583Y-116153022D01*
X212549491Y-116003224D01*
X212480547Y-115836778D01*
X212445400Y-115660082D01*
X212445400Y-115479918D01*
X212480547Y-115303222D01*
X212549491Y-115136776D01*
X212649583Y-114986978D01*
X212776978Y-114859583D01*
X212926776Y-114759491D01*
X213093222Y-114690547D01*
X213269918Y-114655400D01*
X213450082Y-114655400D01*
X213626778Y-114690547D01*
G37*
G36*
X122033512Y-113403927D02*
G01*
X122182812Y-113433624D01*
X122346784Y-113501544D01*
X122494354Y-113600147D01*
X122619853Y-113725646D01*
X122718456Y-113873216D01*
X122786376Y-114037188D01*
X122821000Y-114211259D01*
X122821000Y-114388741D01*
X122786376Y-114562812D01*
X122718456Y-114726784D01*
X122619853Y-114874354D01*
X122494354Y-114999853D01*
X122346784Y-115098456D01*
X122182812Y-115166376D01*
X122033512Y-115196073D01*
X122008742Y-115201000D01*
X121831258Y-115201000D01*
X121806488Y-115196073D01*
X121657188Y-115166376D01*
X121493216Y-115098456D01*
X121345646Y-114999853D01*
X121220147Y-114874354D01*
X121121544Y-114726784D01*
X121053624Y-114562812D01*
X121019000Y-114388741D01*
X121019000Y-114211259D01*
X121053624Y-114037188D01*
X121121544Y-113873216D01*
X121220147Y-113725646D01*
X121345646Y-113600147D01*
X121493216Y-113501544D01*
X121657188Y-113433624D01*
X121806488Y-113403927D01*
X121831258Y-113399000D01*
X122008742Y-113399000D01*
X122033512Y-113403927D01*
G37*
G36*
X124573512Y-113403927D02*
G01*
X124722812Y-113433624D01*
X124886784Y-113501544D01*
X125034354Y-113600147D01*
X125159853Y-113725646D01*
X125258456Y-113873216D01*
X125326376Y-114037188D01*
X125361000Y-114211259D01*
X125361000Y-114388741D01*
X125326376Y-114562812D01*
X125258456Y-114726784D01*
X125159853Y-114874354D01*
X125034354Y-114999853D01*
X124886784Y-115098456D01*
X124722812Y-115166376D01*
X124573512Y-115196073D01*
X124548742Y-115201000D01*
X124371258Y-115201000D01*
X124346488Y-115196073D01*
X124197188Y-115166376D01*
X124033216Y-115098456D01*
X123885646Y-114999853D01*
X123760147Y-114874354D01*
X123661544Y-114726784D01*
X123593624Y-114562812D01*
X123559000Y-114388741D01*
X123559000Y-114211259D01*
X123593624Y-114037188D01*
X123661544Y-113873216D01*
X123760147Y-113725646D01*
X123885646Y-113600147D01*
X124033216Y-113501544D01*
X124197188Y-113433624D01*
X124346488Y-113403927D01*
X124371258Y-113399000D01*
X124548742Y-113399000D01*
X124573512Y-113403927D01*
G37*
G36*
X213626778Y-112150547D02*
G01*
X213793224Y-112219491D01*
X213943022Y-112319583D01*
X214070417Y-112446978D01*
X214170509Y-112596776D01*
X214239453Y-112763222D01*
X214274600Y-112939918D01*
X214274600Y-113120082D01*
X214239453Y-113296778D01*
X214170509Y-113463224D01*
X214070417Y-113613022D01*
X213943022Y-113740417D01*
X213793224Y-113840509D01*
X213626778Y-113909453D01*
X213450082Y-113944600D01*
X213269918Y-113944600D01*
X213093222Y-113909453D01*
X212926776Y-113840509D01*
X212776978Y-113740417D01*
X212649583Y-113613022D01*
X212549491Y-113463224D01*
X212480547Y-113296778D01*
X212445400Y-113120082D01*
X212445400Y-112939918D01*
X212480547Y-112763222D01*
X212549491Y-112596776D01*
X212649583Y-112446978D01*
X212776978Y-112319583D01*
X212926776Y-112219491D01*
X213093222Y-112150547D01*
X213269918Y-112115400D01*
X213450082Y-112115400D01*
X213626778Y-112150547D01*
G37*
G36*
X211086778Y-112150547D02*
G01*
X211253224Y-112219491D01*
X211403022Y-112319583D01*
X211530417Y-112446978D01*
X211630509Y-112596776D01*
X211699453Y-112763222D01*
X211734600Y-112939918D01*
X211734600Y-113120082D01*
X211699453Y-113296778D01*
X211630509Y-113463224D01*
X211530417Y-113613022D01*
X211403022Y-113740417D01*
X211253224Y-113840509D01*
X211086778Y-113909453D01*
X210910082Y-113944600D01*
X210729918Y-113944600D01*
X210553222Y-113909453D01*
X210386776Y-113840509D01*
X210236978Y-113740417D01*
X210109583Y-113613022D01*
X210009491Y-113463224D01*
X209940547Y-113296778D01*
X209905400Y-113120082D01*
X209905400Y-112939918D01*
X209940547Y-112763222D01*
X210009491Y-112596776D01*
X210109583Y-112446978D01*
X210236978Y-112319583D01*
X210386776Y-112219491D01*
X210553222Y-112150547D01*
X210729918Y-112115400D01*
X210910082Y-112115400D01*
X211086778Y-112150547D01*
G37*
G36*
X124573512Y-110863927D02*
G01*
X124722812Y-110893624D01*
X124886784Y-110961544D01*
X125034354Y-111060147D01*
X125159853Y-111185646D01*
X125258456Y-111333216D01*
X125326376Y-111497188D01*
X125361000Y-111671259D01*
X125361000Y-111848741D01*
X125326376Y-112022812D01*
X125258456Y-112186784D01*
X125159853Y-112334354D01*
X125034354Y-112459853D01*
X124886784Y-112558456D01*
X124722812Y-112626376D01*
X124573512Y-112656073D01*
X124548742Y-112661000D01*
X124371258Y-112661000D01*
X124346488Y-112656073D01*
X124197188Y-112626376D01*
X124033216Y-112558456D01*
X123885646Y-112459853D01*
X123760147Y-112334354D01*
X123661544Y-112186784D01*
X123593624Y-112022812D01*
X123559000Y-111848741D01*
X123559000Y-111671259D01*
X123593624Y-111497188D01*
X123661544Y-111333216D01*
X123760147Y-111185646D01*
X123885646Y-111060147D01*
X124033216Y-110961544D01*
X124197188Y-110893624D01*
X124346488Y-110863927D01*
X124371258Y-110859000D01*
X124548742Y-110859000D01*
X124573512Y-110863927D01*
G37*
G36*
X122033512Y-110863927D02*
G01*
X122182812Y-110893624D01*
X122346784Y-110961544D01*
X122494354Y-111060147D01*
X122619853Y-111185646D01*
X122718456Y-111333216D01*
X122786376Y-111497188D01*
X122821000Y-111671259D01*
X122821000Y-111848741D01*
X122786376Y-112022812D01*
X122718456Y-112186784D01*
X122619853Y-112334354D01*
X122494354Y-112459853D01*
X122346784Y-112558456D01*
X122182812Y-112626376D01*
X122033512Y-112656073D01*
X122008742Y-112661000D01*
X121831258Y-112661000D01*
X121806488Y-112656073D01*
X121657188Y-112626376D01*
X121493216Y-112558456D01*
X121345646Y-112459853D01*
X121220147Y-112334354D01*
X121121544Y-112186784D01*
X121053624Y-112022812D01*
X121019000Y-111848741D01*
X121019000Y-111671259D01*
X121053624Y-111497188D01*
X121121544Y-111333216D01*
X121220147Y-111185646D01*
X121345646Y-111060147D01*
X121493216Y-110961544D01*
X121657188Y-110893624D01*
X121806488Y-110863927D01*
X121831258Y-110859000D01*
X122008742Y-110859000D01*
X122033512Y-110863927D01*
G37*
G36*
X213626778Y-109610547D02*
G01*
X213793224Y-109679491D01*
X213943022Y-109779583D01*
X214070417Y-109906978D01*
X214170509Y-110056776D01*
X214239453Y-110223222D01*
X214274600Y-110399918D01*
X214274600Y-110580082D01*
X214239453Y-110756778D01*
X214170509Y-110923224D01*
X214070417Y-111073022D01*
X213943022Y-111200417D01*
X213793224Y-111300509D01*
X213626778Y-111369453D01*
X213450082Y-111404600D01*
X213269918Y-111404600D01*
X213093222Y-111369453D01*
X212926776Y-111300509D01*
X212776978Y-111200417D01*
X212649583Y-111073022D01*
X212549491Y-110923224D01*
X212480547Y-110756778D01*
X212445400Y-110580082D01*
X212445400Y-110399918D01*
X212480547Y-110223222D01*
X212549491Y-110056776D01*
X212649583Y-109906978D01*
X212776978Y-109779583D01*
X212926776Y-109679491D01*
X213093222Y-109610547D01*
X213269918Y-109575400D01*
X213450082Y-109575400D01*
X213626778Y-109610547D01*
G37*
G36*
X211086778Y-109610547D02*
G01*
X211253224Y-109679491D01*
X211403022Y-109779583D01*
X211530417Y-109906978D01*
X211630509Y-110056776D01*
X211699453Y-110223222D01*
X211734600Y-110399918D01*
X211734600Y-110580082D01*
X211699453Y-110756778D01*
X211630509Y-110923224D01*
X211530417Y-111073022D01*
X211403022Y-111200417D01*
X211253224Y-111300509D01*
X211086778Y-111369453D01*
X210910082Y-111404600D01*
X210729918Y-111404600D01*
X210553222Y-111369453D01*
X210386776Y-111300509D01*
X210236978Y-111200417D01*
X210109583Y-111073022D01*
X210009491Y-110923224D01*
X209940547Y-110756778D01*
X209905400Y-110580082D01*
X209905400Y-110399918D01*
X209940547Y-110223222D01*
X210009491Y-110056776D01*
X210109583Y-109906978D01*
X210236978Y-109779583D01*
X210386776Y-109679491D01*
X210553222Y-109610547D01*
X210729918Y-109575400D01*
X210910082Y-109575400D01*
X211086778Y-109610547D01*
G37*
G36*
X158381000Y-111391000D02*
G01*
X156579000Y-111391000D01*
X156579000Y-109589000D01*
X158381000Y-109589000D01*
X158381000Y-111391000D01*
G37*
G36*
X124573512Y-108323927D02*
G01*
X124722812Y-108353624D01*
X124886784Y-108421544D01*
X125034354Y-108520147D01*
X125159853Y-108645646D01*
X125258456Y-108793216D01*
X125326376Y-108957188D01*
X125361000Y-109131259D01*
X125361000Y-109308741D01*
X125326376Y-109482812D01*
X125258456Y-109646784D01*
X125159853Y-109794354D01*
X125034354Y-109919853D01*
X124886784Y-110018456D01*
X124722812Y-110086376D01*
X124573512Y-110116073D01*
X124548742Y-110121000D01*
X124371258Y-110121000D01*
X124346488Y-110116073D01*
X124197188Y-110086376D01*
X124033216Y-110018456D01*
X123885646Y-109919853D01*
X123760147Y-109794354D01*
X123661544Y-109646784D01*
X123593624Y-109482812D01*
X123559000Y-109308741D01*
X123559000Y-109131259D01*
X123593624Y-108957188D01*
X123661544Y-108793216D01*
X123760147Y-108645646D01*
X123885646Y-108520147D01*
X124033216Y-108421544D01*
X124197188Y-108353624D01*
X124346488Y-108323927D01*
X124371258Y-108319000D01*
X124548742Y-108319000D01*
X124573512Y-108323927D01*
G37*
G36*
X122033512Y-108323927D02*
G01*
X122182812Y-108353624D01*
X122346784Y-108421544D01*
X122494354Y-108520147D01*
X122619853Y-108645646D01*
X122718456Y-108793216D01*
X122786376Y-108957188D01*
X122821000Y-109131259D01*
X122821000Y-109308741D01*
X122786376Y-109482812D01*
X122718456Y-109646784D01*
X122619853Y-109794354D01*
X122494354Y-109919853D01*
X122346784Y-110018456D01*
X122182812Y-110086376D01*
X122033512Y-110116073D01*
X122008742Y-110121000D01*
X121831258Y-110121000D01*
X121806488Y-110116073D01*
X121657188Y-110086376D01*
X121493216Y-110018456D01*
X121345646Y-109919853D01*
X121220147Y-109794354D01*
X121121544Y-109646784D01*
X121053624Y-109482812D01*
X121019000Y-109308741D01*
X121019000Y-109131259D01*
X121053624Y-108957188D01*
X121121544Y-108793216D01*
X121220147Y-108645646D01*
X121345646Y-108520147D01*
X121493216Y-108421544D01*
X121657188Y-108353624D01*
X121806488Y-108323927D01*
X121831258Y-108319000D01*
X122008742Y-108319000D01*
X122033512Y-108323927D01*
G37*
G36*
X213626778Y-107070547D02*
G01*
X213793224Y-107139491D01*
X213943022Y-107239583D01*
X214070417Y-107366978D01*
X214170509Y-107516776D01*
X214239453Y-107683222D01*
X214274600Y-107859918D01*
X214274600Y-108040082D01*
X214239453Y-108216778D01*
X214170509Y-108383224D01*
X214070417Y-108533022D01*
X213943022Y-108660417D01*
X213793224Y-108760509D01*
X213626778Y-108829453D01*
X213450082Y-108864600D01*
X213269918Y-108864600D01*
X213093222Y-108829453D01*
X212926776Y-108760509D01*
X212776978Y-108660417D01*
X212649583Y-108533022D01*
X212549491Y-108383224D01*
X212480547Y-108216778D01*
X212445400Y-108040082D01*
X212445400Y-107859918D01*
X212480547Y-107683222D01*
X212549491Y-107516776D01*
X212649583Y-107366978D01*
X212776978Y-107239583D01*
X212926776Y-107139491D01*
X213093222Y-107070547D01*
X213269918Y-107035400D01*
X213450082Y-107035400D01*
X213626778Y-107070547D01*
G37*
G36*
X211086778Y-107070547D02*
G01*
X211253224Y-107139491D01*
X211403022Y-107239583D01*
X211530417Y-107366978D01*
X211630509Y-107516776D01*
X211699453Y-107683222D01*
X211734600Y-107859918D01*
X211734600Y-108040082D01*
X211699453Y-108216778D01*
X211630509Y-108383224D01*
X211530417Y-108533022D01*
X211403022Y-108660417D01*
X211253224Y-108760509D01*
X211086778Y-108829453D01*
X210910082Y-108864600D01*
X210729918Y-108864600D01*
X210553222Y-108829453D01*
X210386776Y-108760509D01*
X210236978Y-108660417D01*
X210109583Y-108533022D01*
X210009491Y-108383224D01*
X209940547Y-108216778D01*
X209905400Y-108040082D01*
X209905400Y-107859918D01*
X209940547Y-107683222D01*
X210009491Y-107516776D01*
X210109583Y-107366978D01*
X210236978Y-107239583D01*
X210386776Y-107139491D01*
X210553222Y-107070547D01*
X210729918Y-107035400D01*
X210910082Y-107035400D01*
X211086778Y-107070547D01*
G37*
G36*
X179971000Y-107581000D02*
G01*
X178169000Y-107581000D01*
X178169000Y-105779000D01*
X179971000Y-105779000D01*
X179971000Y-107581000D01*
G37*
G36*
X122821000Y-107581000D02*
G01*
X121019000Y-107581000D01*
X121019000Y-105779000D01*
X122821000Y-105779000D01*
X122821000Y-107581000D01*
G37*
G36*
X124573512Y-105783927D02*
G01*
X124722812Y-105813624D01*
X124886784Y-105881544D01*
X125034354Y-105980147D01*
X125159853Y-106105646D01*
X125258456Y-106253216D01*
X125326376Y-106417188D01*
X125361000Y-106591259D01*
X125361000Y-106768741D01*
X125326376Y-106942812D01*
X125258456Y-107106784D01*
X125159853Y-107254354D01*
X125034354Y-107379853D01*
X124886784Y-107478456D01*
X124722812Y-107546376D01*
X124573512Y-107576073D01*
X124548742Y-107581000D01*
X124371258Y-107581000D01*
X124346488Y-107576073D01*
X124197188Y-107546376D01*
X124033216Y-107478456D01*
X123885646Y-107379853D01*
X123760147Y-107254354D01*
X123661544Y-107106784D01*
X123593624Y-106942812D01*
X123559000Y-106768741D01*
X123559000Y-106591259D01*
X123593624Y-106417188D01*
X123661544Y-106253216D01*
X123760147Y-106105646D01*
X123885646Y-105980147D01*
X124033216Y-105881544D01*
X124197188Y-105813624D01*
X124346488Y-105783927D01*
X124371258Y-105779000D01*
X124548742Y-105779000D01*
X124573512Y-105783927D01*
G37*
G36*
X145681000Y-107581000D02*
G01*
X143879000Y-107581000D01*
X143879000Y-105779000D01*
X145681000Y-105779000D01*
X145681000Y-107581000D01*
G37*
G36*
X213626778Y-104530547D02*
G01*
X213793224Y-104599491D01*
X213943022Y-104699583D01*
X214070417Y-104826978D01*
X214170509Y-104976776D01*
X214239453Y-105143222D01*
X214274600Y-105319918D01*
X214274600Y-105500082D01*
X214239453Y-105676778D01*
X214170509Y-105843224D01*
X214070417Y-105993022D01*
X213943022Y-106120417D01*
X213793224Y-106220509D01*
X213626778Y-106289453D01*
X213450082Y-106324600D01*
X213269918Y-106324600D01*
X213093222Y-106289453D01*
X212926776Y-106220509D01*
X212776978Y-106120417D01*
X212649583Y-105993022D01*
X212549491Y-105843224D01*
X212480547Y-105676778D01*
X212445400Y-105500082D01*
X212445400Y-105319918D01*
X212480547Y-105143222D01*
X212549491Y-104976776D01*
X212649583Y-104826978D01*
X212776978Y-104699583D01*
X212926776Y-104599491D01*
X213093222Y-104530547D01*
X213269918Y-104495400D01*
X213450082Y-104495400D01*
X213626778Y-104530547D01*
G37*
G36*
X211086778Y-104530547D02*
G01*
X211253224Y-104599491D01*
X211403022Y-104699583D01*
X211530417Y-104826978D01*
X211630509Y-104976776D01*
X211699453Y-105143222D01*
X211734600Y-105319918D01*
X211734600Y-105500082D01*
X211699453Y-105676778D01*
X211630509Y-105843224D01*
X211530417Y-105993022D01*
X211403022Y-106120417D01*
X211253224Y-106220509D01*
X211086778Y-106289453D01*
X210910082Y-106324600D01*
X210729918Y-106324600D01*
X210553222Y-106289453D01*
X210386776Y-106220509D01*
X210236978Y-106120417D01*
X210109583Y-105993022D01*
X210009491Y-105843224D01*
X209940547Y-105676778D01*
X209905400Y-105500082D01*
X209905400Y-105319918D01*
X209940547Y-105143222D01*
X210009491Y-104976776D01*
X210109583Y-104826978D01*
X210236978Y-104699583D01*
X210386776Y-104599491D01*
X210553222Y-104530547D01*
X210729918Y-104495400D01*
X210910082Y-104495400D01*
X211086778Y-104530547D01*
G37*
G36*
X213626778Y-101990547D02*
G01*
X213793224Y-102059491D01*
X213943022Y-102159583D01*
X214070417Y-102286978D01*
X214170509Y-102436776D01*
X214239453Y-102603222D01*
X214274600Y-102779918D01*
X214274600Y-102960082D01*
X214239453Y-103136778D01*
X214170509Y-103303224D01*
X214070417Y-103453022D01*
X213943022Y-103580417D01*
X213793224Y-103680509D01*
X213626778Y-103749453D01*
X213450082Y-103784600D01*
X213269918Y-103784600D01*
X213093222Y-103749453D01*
X212926776Y-103680509D01*
X212776978Y-103580417D01*
X212649583Y-103453022D01*
X212549491Y-103303224D01*
X212480547Y-103136778D01*
X212445400Y-102960082D01*
X212445400Y-102779918D01*
X212480547Y-102603222D01*
X212549491Y-102436776D01*
X212649583Y-102286978D01*
X212776978Y-102159583D01*
X212926776Y-102059491D01*
X213093222Y-101990547D01*
X213269918Y-101955400D01*
X213450082Y-101955400D01*
X213626778Y-101990547D01*
G37*
G36*
X211086778Y-101990547D02*
G01*
X211253224Y-102059491D01*
X211403022Y-102159583D01*
X211530417Y-102286978D01*
X211630509Y-102436776D01*
X211699453Y-102603222D01*
X211734600Y-102779918D01*
X211734600Y-102960082D01*
X211699453Y-103136778D01*
X211630509Y-103303224D01*
X211530417Y-103453022D01*
X211403022Y-103580417D01*
X211253224Y-103680509D01*
X211086778Y-103749453D01*
X210910082Y-103784600D01*
X210729918Y-103784600D01*
X210553222Y-103749453D01*
X210386776Y-103680509D01*
X210236978Y-103580417D01*
X210109583Y-103453022D01*
X210009491Y-103303224D01*
X209940547Y-103136778D01*
X209905400Y-102960082D01*
X209905400Y-102779918D01*
X209940547Y-102603222D01*
X210009491Y-102436776D01*
X210109583Y-102286978D01*
X210236978Y-102159583D01*
X210386776Y-102059491D01*
X210553222Y-101990547D01*
X210729918Y-101955400D01*
X210910082Y-101955400D01*
X211086778Y-101990547D01*
G37*
G36*
X213626778Y-99450547D02*
G01*
X213793224Y-99519491D01*
X213943022Y-99619583D01*
X214070417Y-99746978D01*
X214170509Y-99896776D01*
X214239453Y-100063222D01*
X214274600Y-100239918D01*
X214274600Y-100420082D01*
X214239453Y-100596778D01*
X214170509Y-100763224D01*
X214070417Y-100913022D01*
X213943022Y-101040417D01*
X213793224Y-101140509D01*
X213626778Y-101209453D01*
X213450082Y-101244600D01*
X213269918Y-101244600D01*
X213093222Y-101209453D01*
X212926776Y-101140509D01*
X212776978Y-101040417D01*
X212649583Y-100913022D01*
X212549491Y-100763224D01*
X212480547Y-100596778D01*
X212445400Y-100420082D01*
X212445400Y-100239918D01*
X212480547Y-100063222D01*
X212549491Y-99896776D01*
X212649583Y-99746978D01*
X212776978Y-99619583D01*
X212926776Y-99519491D01*
X213093222Y-99450547D01*
X213269918Y-99415400D01*
X213450082Y-99415400D01*
X213626778Y-99450547D01*
G37*
G36*
X211086778Y-99450547D02*
G01*
X211253224Y-99519491D01*
X211403022Y-99619583D01*
X211530417Y-99746978D01*
X211630509Y-99896776D01*
X211699453Y-100063222D01*
X211734600Y-100239918D01*
X211734600Y-100420082D01*
X211699453Y-100596778D01*
X211630509Y-100763224D01*
X211530417Y-100913022D01*
X211403022Y-101040417D01*
X211253224Y-101140509D01*
X211086778Y-101209453D01*
X210910082Y-101244600D01*
X210729918Y-101244600D01*
X210553222Y-101209453D01*
X210386776Y-101140509D01*
X210236978Y-101040417D01*
X210109583Y-100913022D01*
X210009491Y-100763224D01*
X209940547Y-100596778D01*
X209905400Y-100420082D01*
X209905400Y-100239918D01*
X209940547Y-100063222D01*
X210009491Y-99896776D01*
X210109583Y-99746978D01*
X210236978Y-99619583D01*
X210386776Y-99519491D01*
X210553222Y-99450547D01*
X210729918Y-99415400D01*
X210910082Y-99415400D01*
X211086778Y-99450547D01*
G37*
G36*
X160921000Y-101231000D02*
G01*
X159119000Y-101231000D01*
X159119000Y-99429000D01*
X160921000Y-99429000D01*
X160921000Y-101231000D01*
G37*
G36*
X213626778Y-96910547D02*
G01*
X213793224Y-96979491D01*
X213943022Y-97079583D01*
X214070417Y-97206978D01*
X214170509Y-97356776D01*
X214239453Y-97523222D01*
X214274600Y-97699918D01*
X214274600Y-97880082D01*
X214239453Y-98056778D01*
X214170509Y-98223224D01*
X214070417Y-98373022D01*
X213943022Y-98500417D01*
X213793224Y-98600509D01*
X213626778Y-98669453D01*
X213450082Y-98704600D01*
X213269918Y-98704600D01*
X213093222Y-98669453D01*
X212926776Y-98600509D01*
X212776978Y-98500417D01*
X212649583Y-98373022D01*
X212549491Y-98223224D01*
X212480547Y-98056778D01*
X212445400Y-97880082D01*
X212445400Y-97699918D01*
X212480547Y-97523222D01*
X212549491Y-97356776D01*
X212649583Y-97206978D01*
X212776978Y-97079583D01*
X212926776Y-96979491D01*
X213093222Y-96910547D01*
X213269918Y-96875400D01*
X213450082Y-96875400D01*
X213626778Y-96910547D01*
G37*
G36*
X211086778Y-96910547D02*
G01*
X211253224Y-96979491D01*
X211403022Y-97079583D01*
X211530417Y-97206978D01*
X211630509Y-97356776D01*
X211699453Y-97523222D01*
X211734600Y-97699918D01*
X211734600Y-97880082D01*
X211699453Y-98056778D01*
X211630509Y-98223224D01*
X211530417Y-98373022D01*
X211403022Y-98500417D01*
X211253224Y-98600509D01*
X211086778Y-98669453D01*
X210910082Y-98704600D01*
X210729918Y-98704600D01*
X210553222Y-98669453D01*
X210386776Y-98600509D01*
X210236978Y-98500417D01*
X210109583Y-98373022D01*
X210009491Y-98223224D01*
X209940547Y-98056778D01*
X209905400Y-97880082D01*
X209905400Y-97699918D01*
X209940547Y-97523222D01*
X210009491Y-97356776D01*
X210109583Y-97206978D01*
X210236978Y-97079583D01*
X210386776Y-96979491D01*
X210553222Y-96910547D01*
X210729918Y-96875400D01*
X210910082Y-96875400D01*
X211086778Y-96910547D01*
G37*
G36*
X144411000Y-98691000D02*
G01*
X142609000Y-98691000D01*
X142609000Y-96889000D01*
X144411000Y-96889000D01*
X144411000Y-98691000D01*
G37*
G36*
X130441000Y-97421000D02*
G01*
X128639000Y-97421000D01*
X128639000Y-95619000D01*
X130441000Y-95619000D01*
X130441000Y-97421000D01*
G37*
G36*
X213626778Y-94370547D02*
G01*
X213793224Y-94439491D01*
X213943022Y-94539583D01*
X214070417Y-94666978D01*
X214170509Y-94816776D01*
X214239453Y-94983222D01*
X214274600Y-95159918D01*
X214274600Y-95340082D01*
X214239453Y-95516778D01*
X214170509Y-95683224D01*
X214070417Y-95833022D01*
X213943022Y-95960417D01*
X213793224Y-96060509D01*
X213626778Y-96129453D01*
X213450082Y-96164600D01*
X213269918Y-96164600D01*
X213093222Y-96129453D01*
X212926776Y-96060509D01*
X212776978Y-95960417D01*
X212649583Y-95833022D01*
X212549491Y-95683224D01*
X212480547Y-95516778D01*
X212445400Y-95340082D01*
X212445400Y-95159918D01*
X212480547Y-94983222D01*
X212549491Y-94816776D01*
X212649583Y-94666978D01*
X212776978Y-94539583D01*
X212926776Y-94439491D01*
X213093222Y-94370547D01*
X213269918Y-94335400D01*
X213450082Y-94335400D01*
X213626778Y-94370547D01*
G37*
G36*
X211086778Y-94370547D02*
G01*
X211253224Y-94439491D01*
X211403022Y-94539583D01*
X211530417Y-94666978D01*
X211630509Y-94816776D01*
X211699453Y-94983222D01*
X211734600Y-95159918D01*
X211734600Y-95340082D01*
X211699453Y-95516778D01*
X211630509Y-95683224D01*
X211530417Y-95833022D01*
X211403022Y-95960417D01*
X211253224Y-96060509D01*
X211086778Y-96129453D01*
X210910082Y-96164600D01*
X210729918Y-96164600D01*
X210553222Y-96129453D01*
X210386776Y-96060509D01*
X210236978Y-95960417D01*
X210109583Y-95833022D01*
X210009491Y-95683224D01*
X209940547Y-95516778D01*
X209905400Y-95340082D01*
X209905400Y-95159918D01*
X209940547Y-94983222D01*
X210009491Y-94816776D01*
X210109583Y-94666978D01*
X210236978Y-94539583D01*
X210386776Y-94439491D01*
X210553222Y-94370547D01*
X210729918Y-94335400D01*
X210910082Y-94335400D01*
X211086778Y-94370547D01*
G37*
G36*
X134251000Y-94881000D02*
G01*
X132449000Y-94881000D01*
X132449000Y-93079000D01*
X134251000Y-93079000D01*
X134251000Y-94881000D01*
G37*
G36*
X213626778Y-91830547D02*
G01*
X213793224Y-91899491D01*
X213943022Y-91999583D01*
X214070417Y-92126978D01*
X214170509Y-92276776D01*
X214239453Y-92443222D01*
X214274600Y-92619918D01*
X214274600Y-92800082D01*
X214239453Y-92976778D01*
X214170509Y-93143224D01*
X214070417Y-93293022D01*
X213943022Y-93420417D01*
X213793224Y-93520509D01*
X213626778Y-93589453D01*
X213450082Y-93624600D01*
X213269918Y-93624600D01*
X213093222Y-93589453D01*
X212926776Y-93520509D01*
X212776978Y-93420417D01*
X212649583Y-93293022D01*
X212549491Y-93143224D01*
X212480547Y-92976778D01*
X212445400Y-92800082D01*
X212445400Y-92619918D01*
X212480547Y-92443222D01*
X212549491Y-92276776D01*
X212649583Y-92126978D01*
X212776978Y-91999583D01*
X212926776Y-91899491D01*
X213093222Y-91830547D01*
X213269918Y-91795400D01*
X213450082Y-91795400D01*
X213626778Y-91830547D01*
G37*
G36*
X211086778Y-91830547D02*
G01*
X211253224Y-91899491D01*
X211403022Y-91999583D01*
X211530417Y-92126978D01*
X211630509Y-92276776D01*
X211699453Y-92443222D01*
X211734600Y-92619918D01*
X211734600Y-92800082D01*
X211699453Y-92976778D01*
X211630509Y-93143224D01*
X211530417Y-93293022D01*
X211403022Y-93420417D01*
X211253224Y-93520509D01*
X211086778Y-93589453D01*
X210910082Y-93624600D01*
X210729918Y-93624600D01*
X210553222Y-93589453D01*
X210386776Y-93520509D01*
X210236978Y-93420417D01*
X210109583Y-93293022D01*
X210009491Y-93143224D01*
X209940547Y-92976778D01*
X209905400Y-92800082D01*
X209905400Y-92619918D01*
X209940547Y-92443222D01*
X210009491Y-92276776D01*
X210109583Y-92126978D01*
X210236978Y-91999583D01*
X210386776Y-91899491D01*
X210553222Y-91830547D01*
X210729918Y-91795400D01*
X210910082Y-91795400D01*
X211086778Y-91830547D01*
G37*
G36*
X148703512Y-91813927D02*
G01*
X148852812Y-91843624D01*
X149016784Y-91911544D01*
X149164354Y-92010147D01*
X149289853Y-92135646D01*
X149388456Y-92283216D01*
X149456376Y-92447188D01*
X149491000Y-92621259D01*
X149491000Y-92798741D01*
X149456376Y-92972812D01*
X149388456Y-93136784D01*
X149289853Y-93284354D01*
X149164354Y-93409853D01*
X149016784Y-93508456D01*
X148852812Y-93576376D01*
X148703512Y-93606073D01*
X148678742Y-93611000D01*
X148501258Y-93611000D01*
X148476488Y-93606073D01*
X148327188Y-93576376D01*
X148163216Y-93508456D01*
X148015646Y-93409853D01*
X147890147Y-93284354D01*
X147791544Y-93136784D01*
X147723624Y-92972812D01*
X147689000Y-92798741D01*
X147689000Y-92621259D01*
X147723624Y-92447188D01*
X147791544Y-92283216D01*
X147890147Y-92135646D01*
X148015646Y-92010147D01*
X148163216Y-91911544D01*
X148327188Y-91843624D01*
X148476488Y-91813927D01*
X148501258Y-91809000D01*
X148678742Y-91809000D01*
X148703512Y-91813927D01*
G37*
G36*
X151243512Y-91813927D02*
G01*
X151392812Y-91843624D01*
X151556784Y-91911544D01*
X151704354Y-92010147D01*
X151829853Y-92135646D01*
X151928456Y-92283216D01*
X151996376Y-92447188D01*
X152031000Y-92621259D01*
X152031000Y-92798741D01*
X151996376Y-92972812D01*
X151928456Y-93136784D01*
X151829853Y-93284354D01*
X151704354Y-93409853D01*
X151556784Y-93508456D01*
X151392812Y-93576376D01*
X151243512Y-93606073D01*
X151218742Y-93611000D01*
X151041258Y-93611000D01*
X151016488Y-93606073D01*
X150867188Y-93576376D01*
X150703216Y-93508456D01*
X150555646Y-93409853D01*
X150430147Y-93284354D01*
X150331544Y-93136784D01*
X150263624Y-92972812D01*
X150229000Y-92798741D01*
X150229000Y-92621259D01*
X150263624Y-92447188D01*
X150331544Y-92283216D01*
X150430147Y-92135646D01*
X150555646Y-92010147D01*
X150703216Y-91911544D01*
X150867188Y-91843624D01*
X151016488Y-91813927D01*
X151041258Y-91809000D01*
X151218742Y-91809000D01*
X151243512Y-91813927D01*
G37*
G36*
X153783512Y-91813927D02*
G01*
X153932812Y-91843624D01*
X154096784Y-91911544D01*
X154244354Y-92010147D01*
X154369853Y-92135646D01*
X154468456Y-92283216D01*
X154536376Y-92447188D01*
X154571000Y-92621259D01*
X154571000Y-92798741D01*
X154536376Y-92972812D01*
X154468456Y-93136784D01*
X154369853Y-93284354D01*
X154244354Y-93409853D01*
X154096784Y-93508456D01*
X153932812Y-93576376D01*
X153783512Y-93606073D01*
X153758742Y-93611000D01*
X153581258Y-93611000D01*
X153556488Y-93606073D01*
X153407188Y-93576376D01*
X153243216Y-93508456D01*
X153095646Y-93409853D01*
X152970147Y-93284354D01*
X152871544Y-93136784D01*
X152803624Y-92972812D01*
X152769000Y-92798741D01*
X152769000Y-92621259D01*
X152803624Y-92447188D01*
X152871544Y-92283216D01*
X152970147Y-92135646D01*
X153095646Y-92010147D01*
X153243216Y-91911544D01*
X153407188Y-91843624D01*
X153556488Y-91813927D01*
X153581258Y-91809000D01*
X153758742Y-91809000D01*
X153783512Y-91813927D01*
G37*
G36*
X157111000Y-93611000D02*
G01*
X155309000Y-93611000D01*
X155309000Y-91809000D01*
X157111000Y-91809000D01*
X157111000Y-93611000D01*
G37*
G36*
X213626778Y-89290547D02*
G01*
X213793224Y-89359491D01*
X213943022Y-89459583D01*
X214070417Y-89586978D01*
X214170509Y-89736776D01*
X214239453Y-89903222D01*
X214274600Y-90079918D01*
X214274600Y-90260082D01*
X214239453Y-90436778D01*
X214170509Y-90603224D01*
X214070417Y-90753022D01*
X213943022Y-90880417D01*
X213793224Y-90980509D01*
X213626778Y-91049453D01*
X213450082Y-91084600D01*
X213269918Y-91084600D01*
X213093222Y-91049453D01*
X212926776Y-90980509D01*
X212776978Y-90880417D01*
X212649583Y-90753022D01*
X212549491Y-90603224D01*
X212480547Y-90436778D01*
X212445400Y-90260082D01*
X212445400Y-90079918D01*
X212480547Y-89903222D01*
X212549491Y-89736776D01*
X212649583Y-89586978D01*
X212776978Y-89459583D01*
X212926776Y-89359491D01*
X213093222Y-89290547D01*
X213269918Y-89255400D01*
X213450082Y-89255400D01*
X213626778Y-89290547D01*
G37*
G36*
X211086778Y-89290547D02*
G01*
X211253224Y-89359491D01*
X211403022Y-89459583D01*
X211530417Y-89586978D01*
X211630509Y-89736776D01*
X211699453Y-89903222D01*
X211734600Y-90079918D01*
X211734600Y-90260082D01*
X211699453Y-90436778D01*
X211630509Y-90603224D01*
X211530417Y-90753022D01*
X211403022Y-90880417D01*
X211253224Y-90980509D01*
X211086778Y-91049453D01*
X210910082Y-91084600D01*
X210729918Y-91084600D01*
X210553222Y-91049453D01*
X210386776Y-90980509D01*
X210236978Y-90880417D01*
X210109583Y-90753022D01*
X210009491Y-90603224D01*
X209940547Y-90436778D01*
X209905400Y-90260082D01*
X209905400Y-90079918D01*
X209940547Y-89903222D01*
X210009491Y-89736776D01*
X210109583Y-89586978D01*
X210236978Y-89459583D01*
X210386776Y-89359491D01*
X210553222Y-89290547D01*
X210729918Y-89255400D01*
X210910082Y-89255400D01*
X211086778Y-89290547D01*
G37*
G36*
X156323512Y-89273927D02*
G01*
X156472812Y-89303624D01*
X156636784Y-89371544D01*
X156784354Y-89470147D01*
X156909853Y-89595646D01*
X157008456Y-89743216D01*
X157076376Y-89907188D01*
X157111000Y-90081259D01*
X157111000Y-90258741D01*
X157076376Y-90432812D01*
X157008456Y-90596784D01*
X156909853Y-90744354D01*
X156784354Y-90869853D01*
X156636784Y-90968456D01*
X156472812Y-91036376D01*
X156323512Y-91066073D01*
X156298742Y-91071000D01*
X156121258Y-91071000D01*
X156096488Y-91066073D01*
X155947188Y-91036376D01*
X155783216Y-90968456D01*
X155635646Y-90869853D01*
X155510147Y-90744354D01*
X155411544Y-90596784D01*
X155343624Y-90432812D01*
X155309000Y-90258741D01*
X155309000Y-90081259D01*
X155343624Y-89907188D01*
X155411544Y-89743216D01*
X155510147Y-89595646D01*
X155635646Y-89470147D01*
X155783216Y-89371544D01*
X155947188Y-89303624D01*
X156096488Y-89273927D01*
X156121258Y-89269000D01*
X156298742Y-89269000D01*
X156323512Y-89273927D01*
G37*
G36*
X153783512Y-89273927D02*
G01*
X153932812Y-89303624D01*
X154096784Y-89371544D01*
X154244354Y-89470147D01*
X154369853Y-89595646D01*
X154468456Y-89743216D01*
X154536376Y-89907188D01*
X154571000Y-90081259D01*
X154571000Y-90258741D01*
X154536376Y-90432812D01*
X154468456Y-90596784D01*
X154369853Y-90744354D01*
X154244354Y-90869853D01*
X154096784Y-90968456D01*
X153932812Y-91036376D01*
X153783512Y-91066073D01*
X153758742Y-91071000D01*
X153581258Y-91071000D01*
X153556488Y-91066073D01*
X153407188Y-91036376D01*
X153243216Y-90968456D01*
X153095646Y-90869853D01*
X152970147Y-90744354D01*
X152871544Y-90596784D01*
X152803624Y-90432812D01*
X152769000Y-90258741D01*
X152769000Y-90081259D01*
X152803624Y-89907188D01*
X152871544Y-89743216D01*
X152970147Y-89595646D01*
X153095646Y-89470147D01*
X153243216Y-89371544D01*
X153407188Y-89303624D01*
X153556488Y-89273927D01*
X153581258Y-89269000D01*
X153758742Y-89269000D01*
X153783512Y-89273927D01*
G37*
G36*
X151243512Y-89273927D02*
G01*
X151392812Y-89303624D01*
X151556784Y-89371544D01*
X151704354Y-89470147D01*
X151829853Y-89595646D01*
X151928456Y-89743216D01*
X151996376Y-89907188D01*
X152031000Y-90081259D01*
X152031000Y-90258741D01*
X151996376Y-90432812D01*
X151928456Y-90596784D01*
X151829853Y-90744354D01*
X151704354Y-90869853D01*
X151556784Y-90968456D01*
X151392812Y-91036376D01*
X151243512Y-91066073D01*
X151218742Y-91071000D01*
X151041258Y-91071000D01*
X151016488Y-91066073D01*
X150867188Y-91036376D01*
X150703216Y-90968456D01*
X150555646Y-90869853D01*
X150430147Y-90744354D01*
X150331544Y-90596784D01*
X150263624Y-90432812D01*
X150229000Y-90258741D01*
X150229000Y-90081259D01*
X150263624Y-89907188D01*
X150331544Y-89743216D01*
X150430147Y-89595646D01*
X150555646Y-89470147D01*
X150703216Y-89371544D01*
X150867188Y-89303624D01*
X151016488Y-89273927D01*
X151041258Y-89269000D01*
X151218742Y-89269000D01*
X151243512Y-89273927D01*
G37*
G36*
X148703512Y-89273927D02*
G01*
X148852812Y-89303624D01*
X149016784Y-89371544D01*
X149164354Y-89470147D01*
X149289853Y-89595646D01*
X149388456Y-89743216D01*
X149456376Y-89907188D01*
X149491000Y-90081259D01*
X149491000Y-90258741D01*
X149456376Y-90432812D01*
X149388456Y-90596784D01*
X149289853Y-90744354D01*
X149164354Y-90869853D01*
X149016784Y-90968456D01*
X148852812Y-91036376D01*
X148703512Y-91066073D01*
X148678742Y-91071000D01*
X148501258Y-91071000D01*
X148476488Y-91066073D01*
X148327188Y-91036376D01*
X148163216Y-90968456D01*
X148015646Y-90869853D01*
X147890147Y-90744354D01*
X147791544Y-90596784D01*
X147723624Y-90432812D01*
X147689000Y-90258741D01*
X147689000Y-90081259D01*
X147723624Y-89907188D01*
X147791544Y-89743216D01*
X147890147Y-89595646D01*
X148015646Y-89470147D01*
X148163216Y-89371544D01*
X148327188Y-89303624D01*
X148476488Y-89273927D01*
X148501258Y-89269000D01*
X148678742Y-89269000D01*
X148703512Y-89273927D01*
G37*
G36*
X211086778Y-86750547D02*
G01*
X211253224Y-86819491D01*
X211403022Y-86919583D01*
X211530417Y-87046978D01*
X211630509Y-87196776D01*
X211699453Y-87363222D01*
X211734600Y-87539918D01*
X211734600Y-87720082D01*
X211699453Y-87896778D01*
X211630509Y-88063224D01*
X211530417Y-88213022D01*
X211403022Y-88340417D01*
X211253224Y-88440509D01*
X211086778Y-88509453D01*
X210910082Y-88544600D01*
X210729918Y-88544600D01*
X210553222Y-88509453D01*
X210386776Y-88440509D01*
X210236978Y-88340417D01*
X210109583Y-88213022D01*
X210009491Y-88063224D01*
X209940547Y-87896778D01*
X209905400Y-87720082D01*
X209905400Y-87539918D01*
X209940547Y-87363222D01*
X210009491Y-87196776D01*
X210109583Y-87046978D01*
X210236978Y-86919583D01*
X210386776Y-86819491D01*
X210553222Y-86750547D01*
X210729918Y-86715400D01*
X210910082Y-86715400D01*
X211086778Y-86750547D01*
G37*
G36*
X213626778Y-86750547D02*
G01*
X213793224Y-86819491D01*
X213943022Y-86919583D01*
X214070417Y-87046978D01*
X214170509Y-87196776D01*
X214239453Y-87363222D01*
X214274600Y-87539918D01*
X214274600Y-87720082D01*
X214239453Y-87896778D01*
X214170509Y-88063224D01*
X214070417Y-88213022D01*
X213943022Y-88340417D01*
X213793224Y-88440509D01*
X213626778Y-88509453D01*
X213450082Y-88544600D01*
X213269918Y-88544600D01*
X213093222Y-88509453D01*
X212926776Y-88440509D01*
X212776978Y-88340417D01*
X212649583Y-88213022D01*
X212549491Y-88063224D01*
X212480547Y-87896778D01*
X212445400Y-87720082D01*
X212445400Y-87539918D01*
X212480547Y-87363222D01*
X212549491Y-87196776D01*
X212649583Y-87046978D01*
X212776978Y-86919583D01*
X212926776Y-86819491D01*
X213093222Y-86750547D01*
X213269918Y-86715400D01*
X213450082Y-86715400D01*
X213626778Y-86750547D01*
G37*
G36*
X125361000Y-87261000D02*
G01*
X123559000Y-87261000D01*
X123559000Y-85459000D01*
X125361000Y-85459000D01*
X125361000Y-87261000D01*
G37*
G36*
X120281000Y-87261000D02*
G01*
X118479000Y-87261000D01*
X118479000Y-85459000D01*
X120281000Y-85459000D01*
X120281000Y-87261000D01*
G37*
G36*
X132455256Y-83481298D02*
G01*
X132561579Y-83502447D01*
X132862042Y-83626903D01*
X133132451Y-83807585D01*
X133362415Y-84037549D01*
X133543097Y-84307958D01*
X133543098Y-84307960D01*
X133667553Y-84608422D01*
X133731000Y-84927389D01*
X133731000Y-85252611D01*
X133667553Y-85571578D01*
X133572766Y-85800416D01*
X133543097Y-85872042D01*
X133362415Y-86142451D01*
X133132451Y-86372415D01*
X132862042Y-86553097D01*
X132561579Y-86677553D01*
X132455256Y-86698702D01*
X132242611Y-86741000D01*
X131917389Y-86741000D01*
X131704744Y-86698702D01*
X131598421Y-86677553D01*
X131297958Y-86553097D01*
X131027549Y-86372415D01*
X130797585Y-86142451D01*
X130616903Y-85872042D01*
X130587235Y-85800416D01*
X130492447Y-85571578D01*
X130429000Y-85252611D01*
X130429000Y-84927389D01*
X130492447Y-84608422D01*
X130616902Y-84307960D01*
X130616903Y-84307958D01*
X130797585Y-84037549D01*
X131027549Y-83807585D01*
X131297958Y-83626903D01*
X131598421Y-83502447D01*
X131704744Y-83481298D01*
X131917389Y-83439000D01*
X132242611Y-83439000D01*
X132455256Y-83481298D01*
G37*
G36*
X207385256Y-83481298D02*
G01*
X207491579Y-83502447D01*
X207792042Y-83626903D01*
X208062451Y-83807585D01*
X208292415Y-84037549D01*
X208473097Y-84307958D01*
X208473098Y-84307960D01*
X208597553Y-84608422D01*
X208661000Y-84927389D01*
X208661000Y-85252611D01*
X208597553Y-85571578D01*
X208502766Y-85800416D01*
X208473097Y-85872042D01*
X208292415Y-86142451D01*
X208062451Y-86372415D01*
X207792042Y-86553097D01*
X207491579Y-86677553D01*
X207385256Y-86698702D01*
X207172611Y-86741000D01*
X206847389Y-86741000D01*
X206634744Y-86698702D01*
X206528421Y-86677553D01*
X206227958Y-86553097D01*
X205957549Y-86372415D01*
X205727585Y-86142451D01*
X205546903Y-85872042D01*
X205517235Y-85800416D01*
X205422447Y-85571578D01*
X205359000Y-85252611D01*
X205359000Y-84927389D01*
X205422447Y-84608422D01*
X205546902Y-84307960D01*
X205546903Y-84307958D01*
X205727585Y-84037549D01*
X205957549Y-83807585D01*
X206227958Y-83626903D01*
X206528421Y-83502447D01*
X206634744Y-83481298D01*
X206847389Y-83439000D01*
X207172611Y-83439000D01*
X207385256Y-83481298D01*
G37*
G36*
X213626778Y-84210547D02*
G01*
X213793224Y-84279491D01*
X213943022Y-84379583D01*
X214070417Y-84506978D01*
X214170509Y-84656776D01*
X214239453Y-84823222D01*
X214274600Y-84999918D01*
X214274600Y-85180082D01*
X214239453Y-85356778D01*
X214170509Y-85523224D01*
X214070417Y-85673022D01*
X213943022Y-85800417D01*
X213793224Y-85900509D01*
X213626778Y-85969453D01*
X213450082Y-86004600D01*
X213269918Y-86004600D01*
X213093222Y-85969453D01*
X212926776Y-85900509D01*
X212776978Y-85800417D01*
X212649583Y-85673022D01*
X212549491Y-85523224D01*
X212480547Y-85356778D01*
X212445400Y-85180082D01*
X212445400Y-84999918D01*
X212480547Y-84823222D01*
X212549491Y-84656776D01*
X212649583Y-84506978D01*
X212776978Y-84379583D01*
X212926776Y-84279491D01*
X213093222Y-84210547D01*
X213269918Y-84175400D01*
X213450082Y-84175400D01*
X213626778Y-84210547D01*
G37*
G36*
X211086778Y-84210547D02*
G01*
X211253224Y-84279491D01*
X211403022Y-84379583D01*
X211530417Y-84506978D01*
X211630509Y-84656776D01*
X211699453Y-84823222D01*
X211734600Y-84999918D01*
X211734600Y-85180082D01*
X211699453Y-85356778D01*
X211630509Y-85523224D01*
X211530417Y-85673022D01*
X211403022Y-85800417D01*
X211253224Y-85900509D01*
X211086778Y-85969453D01*
X210910082Y-86004600D01*
X210729918Y-86004600D01*
X210553222Y-85969453D01*
X210386776Y-85900509D01*
X210236978Y-85800417D01*
X210109583Y-85673022D01*
X210009491Y-85523224D01*
X209940547Y-85356778D01*
X209905400Y-85180082D01*
X209905400Y-84999918D01*
X209940547Y-84823222D01*
X210009491Y-84656776D01*
X210109583Y-84506978D01*
X210236978Y-84379583D01*
X210386776Y-84279491D01*
X210553222Y-84210547D01*
X210729918Y-84175400D01*
X210910082Y-84175400D01*
X211086778Y-84210547D01*
G37*
G36*
X200926778Y-84210547D02*
G01*
X201093224Y-84279491D01*
X201243022Y-84379583D01*
X201370417Y-84506978D01*
X201470509Y-84656776D01*
X201539453Y-84823222D01*
X201574600Y-84999918D01*
X201574600Y-85180082D01*
X201539453Y-85356778D01*
X201470509Y-85523224D01*
X201370417Y-85673022D01*
X201243022Y-85800417D01*
X201093224Y-85900509D01*
X200926778Y-85969453D01*
X200750082Y-86004600D01*
X200569918Y-86004600D01*
X200393222Y-85969453D01*
X200226776Y-85900509D01*
X200076978Y-85800417D01*
X199949583Y-85673022D01*
X199849491Y-85523224D01*
X199780547Y-85356778D01*
X199745400Y-85180082D01*
X199745400Y-84999918D01*
X199780547Y-84823222D01*
X199849491Y-84656776D01*
X199949583Y-84506978D01*
X200076978Y-84379583D01*
X200226776Y-84279491D01*
X200393222Y-84210547D01*
X200569918Y-84175400D01*
X200750082Y-84175400D01*
X200926778Y-84210547D01*
G37*
G36*
X151142778Y-84210547D02*
G01*
X151309224Y-84279491D01*
X151459022Y-84379583D01*
X151586417Y-84506978D01*
X151686509Y-84656776D01*
X151755453Y-84823222D01*
X151790600Y-84999918D01*
X151790600Y-85180082D01*
X151755453Y-85356778D01*
X151686509Y-85523224D01*
X151586417Y-85673022D01*
X151459022Y-85800417D01*
X151309224Y-85900509D01*
X151142778Y-85969453D01*
X150966082Y-86004600D01*
X150785918Y-86004600D01*
X150609222Y-85969453D01*
X150442776Y-85900509D01*
X150292978Y-85800417D01*
X150165583Y-85673022D01*
X150065491Y-85523224D01*
X149996547Y-85356778D01*
X149961400Y-85180082D01*
X149961400Y-84999918D01*
X149996547Y-84823222D01*
X150065491Y-84656776D01*
X150165583Y-84506978D01*
X150292978Y-84379583D01*
X150442776Y-84279491D01*
X150609222Y-84210547D01*
X150785918Y-84175400D01*
X150966082Y-84175400D01*
X151142778Y-84210547D01*
G37*
G36*
X148602778Y-84210547D02*
G01*
X148769224Y-84279491D01*
X148919022Y-84379583D01*
X149046417Y-84506978D01*
X149146509Y-84656776D01*
X149215453Y-84823222D01*
X149250600Y-84999918D01*
X149250600Y-85180082D01*
X149215453Y-85356778D01*
X149146509Y-85523224D01*
X149046417Y-85673022D01*
X148919022Y-85800417D01*
X148769224Y-85900509D01*
X148602778Y-85969453D01*
X148426082Y-86004600D01*
X148245918Y-86004600D01*
X148069222Y-85969453D01*
X147902776Y-85900509D01*
X147752978Y-85800417D01*
X147625583Y-85673022D01*
X147525491Y-85523224D01*
X147456547Y-85356778D01*
X147421400Y-85180082D01*
X147421400Y-84999918D01*
X147456547Y-84823222D01*
X147525491Y-84656776D01*
X147625583Y-84506978D01*
X147752978Y-84379583D01*
X147902776Y-84279491D01*
X148069222Y-84210547D01*
X148245918Y-84175400D01*
X148426082Y-84175400D01*
X148602778Y-84210547D01*
G37*
G36*
X146062778Y-84210547D02*
G01*
X146229224Y-84279491D01*
X146379022Y-84379583D01*
X146506417Y-84506978D01*
X146606509Y-84656776D01*
X146675453Y-84823222D01*
X146710600Y-84999918D01*
X146710600Y-85180082D01*
X146675453Y-85356778D01*
X146606509Y-85523224D01*
X146506417Y-85673022D01*
X146379022Y-85800417D01*
X146229224Y-85900509D01*
X146062778Y-85969453D01*
X145886082Y-86004600D01*
X145705918Y-86004600D01*
X145529222Y-85969453D01*
X145362776Y-85900509D01*
X145212978Y-85800417D01*
X145085583Y-85673022D01*
X144985491Y-85523224D01*
X144916547Y-85356778D01*
X144881400Y-85180082D01*
X144881400Y-84999918D01*
X144916547Y-84823222D01*
X144985491Y-84656776D01*
X145085583Y-84506978D01*
X145212978Y-84379583D01*
X145362776Y-84279491D01*
X145529222Y-84210547D01*
X145705918Y-84175400D01*
X145886082Y-84175400D01*
X146062778Y-84210547D01*
G37*
G36*
X140982778Y-84210547D02*
G01*
X141149224Y-84279491D01*
X141299022Y-84379583D01*
X141426417Y-84506978D01*
X141526509Y-84656776D01*
X141595453Y-84823222D01*
X141630600Y-84999918D01*
X141630600Y-85180082D01*
X141595453Y-85356778D01*
X141526509Y-85523224D01*
X141426417Y-85673022D01*
X141299022Y-85800417D01*
X141149224Y-85900509D01*
X140982778Y-85969453D01*
X140806082Y-86004600D01*
X140625918Y-86004600D01*
X140449222Y-85969453D01*
X140282776Y-85900509D01*
X140132978Y-85800417D01*
X140005583Y-85673022D01*
X139905491Y-85523224D01*
X139836547Y-85356778D01*
X139801400Y-85180082D01*
X139801400Y-84999918D01*
X139836547Y-84823222D01*
X139905491Y-84656776D01*
X140005583Y-84506978D01*
X140132978Y-84379583D01*
X140282776Y-84279491D01*
X140449222Y-84210547D01*
X140625918Y-84175400D01*
X140806082Y-84175400D01*
X140982778Y-84210547D01*
G37*
G36*
X138442778Y-84210547D02*
G01*
X138609224Y-84279491D01*
X138759022Y-84379583D01*
X138886417Y-84506978D01*
X138986509Y-84656776D01*
X139055453Y-84823222D01*
X139090600Y-84999918D01*
X139090600Y-85180082D01*
X139055453Y-85356778D01*
X138986509Y-85523224D01*
X138886417Y-85673022D01*
X138759022Y-85800417D01*
X138609224Y-85900509D01*
X138442778Y-85969453D01*
X138266082Y-86004600D01*
X138085918Y-86004600D01*
X137909222Y-85969453D01*
X137742776Y-85900509D01*
X137592978Y-85800417D01*
X137465583Y-85673022D01*
X137365491Y-85523224D01*
X137296547Y-85356778D01*
X137261400Y-85180082D01*
X137261400Y-84999918D01*
X137296547Y-84823222D01*
X137365491Y-84656776D01*
X137465583Y-84506978D01*
X137592978Y-84379583D01*
X137742776Y-84279491D01*
X137909222Y-84210547D01*
X138085918Y-84175400D01*
X138266082Y-84175400D01*
X138442778Y-84210547D01*
G37*
G36*
X135902778Y-84210547D02*
G01*
X136069224Y-84279491D01*
X136219022Y-84379583D01*
X136346417Y-84506978D01*
X136446509Y-84656776D01*
X136515453Y-84823222D01*
X136550600Y-84999918D01*
X136550600Y-85180082D01*
X136515453Y-85356778D01*
X136446509Y-85523224D01*
X136346417Y-85673022D01*
X136219022Y-85800417D01*
X136069224Y-85900509D01*
X135902778Y-85969453D01*
X135726082Y-86004600D01*
X135545918Y-86004600D01*
X135369222Y-85969453D01*
X135202776Y-85900509D01*
X135052978Y-85800417D01*
X134925583Y-85673022D01*
X134825491Y-85523224D01*
X134756547Y-85356778D01*
X134721400Y-85180082D01*
X134721400Y-84999918D01*
X134756547Y-84823222D01*
X134825491Y-84656776D01*
X134925583Y-84506978D01*
X135052978Y-84379583D01*
X135202776Y-84279491D01*
X135369222Y-84210547D01*
X135545918Y-84175400D01*
X135726082Y-84175400D01*
X135902778Y-84210547D01*
G37*
G36*
X153682778Y-84210547D02*
G01*
X153849224Y-84279491D01*
X153999022Y-84379583D01*
X154126417Y-84506978D01*
X154226509Y-84656776D01*
X154295453Y-84823222D01*
X154330600Y-84999918D01*
X154330600Y-85180082D01*
X154295453Y-85356778D01*
X154226509Y-85523224D01*
X154126417Y-85673022D01*
X153999022Y-85800417D01*
X153849224Y-85900509D01*
X153682778Y-85969453D01*
X153506082Y-86004600D01*
X153325918Y-86004600D01*
X153149222Y-85969453D01*
X152982776Y-85900509D01*
X152832978Y-85800417D01*
X152705583Y-85673022D01*
X152605491Y-85523224D01*
X152536547Y-85356778D01*
X152501400Y-85180082D01*
X152501400Y-84999918D01*
X152536547Y-84823222D01*
X152605491Y-84656776D01*
X152705583Y-84506978D01*
X152832978Y-84379583D01*
X152982776Y-84279491D01*
X153149222Y-84210547D01*
X153325918Y-84175400D01*
X153506082Y-84175400D01*
X153682778Y-84210547D01*
G37*
G36*
X203466778Y-84210547D02*
G01*
X203633224Y-84279491D01*
X203783022Y-84379583D01*
X203910417Y-84506978D01*
X204010509Y-84656776D01*
X204079453Y-84823222D01*
X204114600Y-84999918D01*
X204114600Y-85180082D01*
X204079453Y-85356778D01*
X204010509Y-85523224D01*
X203910417Y-85673022D01*
X203783022Y-85800417D01*
X203633224Y-85900509D01*
X203466778Y-85969453D01*
X203290082Y-86004600D01*
X203109918Y-86004600D01*
X202933222Y-85969453D01*
X202766776Y-85900509D01*
X202616978Y-85800417D01*
X202489583Y-85673022D01*
X202389491Y-85523224D01*
X202320547Y-85356778D01*
X202285400Y-85180082D01*
X202285400Y-84999918D01*
X202320547Y-84823222D01*
X202389491Y-84656776D01*
X202489583Y-84506978D01*
X202616978Y-84379583D01*
X202766776Y-84279491D01*
X202933222Y-84210547D01*
X203109918Y-84175400D01*
X203290082Y-84175400D01*
X203466778Y-84210547D01*
G37*
G36*
X158762778Y-84210547D02*
G01*
X158929224Y-84279491D01*
X159079022Y-84379583D01*
X159206417Y-84506978D01*
X159306509Y-84656776D01*
X159375453Y-84823222D01*
X159410600Y-84999918D01*
X159410600Y-85180082D01*
X159375453Y-85356778D01*
X159306509Y-85523224D01*
X159206417Y-85673022D01*
X159079022Y-85800417D01*
X158929224Y-85900509D01*
X158762778Y-85969453D01*
X158586082Y-86004600D01*
X158405918Y-86004600D01*
X158229222Y-85969453D01*
X158062776Y-85900509D01*
X157912978Y-85800417D01*
X157785583Y-85673022D01*
X157685491Y-85523224D01*
X157616547Y-85356778D01*
X157581400Y-85180082D01*
X157581400Y-84999918D01*
X157616547Y-84823222D01*
X157685491Y-84656776D01*
X157785583Y-84506978D01*
X157912978Y-84379583D01*
X158062776Y-84279491D01*
X158229222Y-84210547D01*
X158405918Y-84175400D01*
X158586082Y-84175400D01*
X158762778Y-84210547D01*
G37*
G36*
X143522778Y-84210547D02*
G01*
X143689224Y-84279491D01*
X143839022Y-84379583D01*
X143966417Y-84506978D01*
X144066509Y-84656776D01*
X144135453Y-84823222D01*
X144170600Y-84999918D01*
X144170600Y-85180082D01*
X144135453Y-85356778D01*
X144066509Y-85523224D01*
X143966417Y-85673022D01*
X143839022Y-85800417D01*
X143689224Y-85900509D01*
X143522778Y-85969453D01*
X143346082Y-86004600D01*
X143165918Y-86004600D01*
X142989222Y-85969453D01*
X142822776Y-85900509D01*
X142672978Y-85800417D01*
X142545583Y-85673022D01*
X142445491Y-85523224D01*
X142376547Y-85356778D01*
X142341400Y-85180082D01*
X142341400Y-84999918D01*
X142376547Y-84823222D01*
X142445491Y-84656776D01*
X142545583Y-84506978D01*
X142672978Y-84379583D01*
X142822776Y-84279491D01*
X142989222Y-84210547D01*
X143165918Y-84175400D01*
X143346082Y-84175400D01*
X143522778Y-84210547D01*
G37*
G36*
X162826778Y-84210547D02*
G01*
X162993224Y-84279491D01*
X163143022Y-84379583D01*
X163270417Y-84506978D01*
X163370509Y-84656776D01*
X163439453Y-84823222D01*
X163474600Y-84999918D01*
X163474600Y-85180082D01*
X163439453Y-85356778D01*
X163370509Y-85523224D01*
X163270417Y-85673022D01*
X163143022Y-85800417D01*
X162993224Y-85900509D01*
X162826778Y-85969453D01*
X162650082Y-86004600D01*
X162469918Y-86004600D01*
X162293222Y-85969453D01*
X162126776Y-85900509D01*
X161976978Y-85800417D01*
X161849583Y-85673022D01*
X161749491Y-85523224D01*
X161680547Y-85356778D01*
X161645400Y-85180082D01*
X161645400Y-84999918D01*
X161680547Y-84823222D01*
X161749491Y-84656776D01*
X161849583Y-84506978D01*
X161976978Y-84379583D01*
X162126776Y-84279491D01*
X162293222Y-84210547D01*
X162469918Y-84175400D01*
X162650082Y-84175400D01*
X162826778Y-84210547D01*
G37*
G36*
X165366778Y-84210547D02*
G01*
X165533224Y-84279491D01*
X165683022Y-84379583D01*
X165810417Y-84506978D01*
X165910509Y-84656776D01*
X165979453Y-84823222D01*
X166014600Y-84999918D01*
X166014600Y-85180082D01*
X165979453Y-85356778D01*
X165910509Y-85523224D01*
X165810417Y-85673022D01*
X165683022Y-85800417D01*
X165533224Y-85900509D01*
X165366778Y-85969453D01*
X165190082Y-86004600D01*
X165009918Y-86004600D01*
X164833222Y-85969453D01*
X164666776Y-85900509D01*
X164516978Y-85800417D01*
X164389583Y-85673022D01*
X164289491Y-85523224D01*
X164220547Y-85356778D01*
X164185400Y-85180082D01*
X164185400Y-84999918D01*
X164220547Y-84823222D01*
X164289491Y-84656776D01*
X164389583Y-84506978D01*
X164516978Y-84379583D01*
X164666776Y-84279491D01*
X164833222Y-84210547D01*
X165009918Y-84175400D01*
X165190082Y-84175400D01*
X165366778Y-84210547D01*
G37*
G36*
X167906778Y-84210547D02*
G01*
X168073224Y-84279491D01*
X168223022Y-84379583D01*
X168350417Y-84506978D01*
X168450509Y-84656776D01*
X168519453Y-84823222D01*
X168554600Y-84999918D01*
X168554600Y-85180082D01*
X168519453Y-85356778D01*
X168450509Y-85523224D01*
X168350417Y-85673022D01*
X168223022Y-85800417D01*
X168073224Y-85900509D01*
X167906778Y-85969453D01*
X167730082Y-86004600D01*
X167549918Y-86004600D01*
X167373222Y-85969453D01*
X167206776Y-85900509D01*
X167056978Y-85800417D01*
X166929583Y-85673022D01*
X166829491Y-85523224D01*
X166760547Y-85356778D01*
X166725400Y-85180082D01*
X166725400Y-84999918D01*
X166760547Y-84823222D01*
X166829491Y-84656776D01*
X166929583Y-84506978D01*
X167056978Y-84379583D01*
X167206776Y-84279491D01*
X167373222Y-84210547D01*
X167549918Y-84175400D01*
X167730082Y-84175400D01*
X167906778Y-84210547D01*
G37*
G36*
X170446778Y-84210547D02*
G01*
X170613224Y-84279491D01*
X170763022Y-84379583D01*
X170890417Y-84506978D01*
X170990509Y-84656776D01*
X171059453Y-84823222D01*
X171094600Y-84999918D01*
X171094600Y-85180082D01*
X171059453Y-85356778D01*
X170990509Y-85523224D01*
X170890417Y-85673022D01*
X170763022Y-85800417D01*
X170613224Y-85900509D01*
X170446778Y-85969453D01*
X170270082Y-86004600D01*
X170089918Y-86004600D01*
X169913222Y-85969453D01*
X169746776Y-85900509D01*
X169596978Y-85800417D01*
X169469583Y-85673022D01*
X169369491Y-85523224D01*
X169300547Y-85356778D01*
X169265400Y-85180082D01*
X169265400Y-84999918D01*
X169300547Y-84823222D01*
X169369491Y-84656776D01*
X169469583Y-84506978D01*
X169596978Y-84379583D01*
X169746776Y-84279491D01*
X169913222Y-84210547D01*
X170089918Y-84175400D01*
X170270082Y-84175400D01*
X170446778Y-84210547D01*
G37*
G36*
X172986778Y-84210547D02*
G01*
X173153224Y-84279491D01*
X173303022Y-84379583D01*
X173430417Y-84506978D01*
X173530509Y-84656776D01*
X173599453Y-84823222D01*
X173634600Y-84999918D01*
X173634600Y-85180082D01*
X173599453Y-85356778D01*
X173530509Y-85523224D01*
X173430417Y-85673022D01*
X173303022Y-85800417D01*
X173153224Y-85900509D01*
X172986778Y-85969453D01*
X172810082Y-86004600D01*
X172629918Y-86004600D01*
X172453222Y-85969453D01*
X172286776Y-85900509D01*
X172136978Y-85800417D01*
X172009583Y-85673022D01*
X171909491Y-85523224D01*
X171840547Y-85356778D01*
X171805400Y-85180082D01*
X171805400Y-84999918D01*
X171840547Y-84823222D01*
X171909491Y-84656776D01*
X172009583Y-84506978D01*
X172136978Y-84379583D01*
X172286776Y-84279491D01*
X172453222Y-84210547D01*
X172629918Y-84175400D01*
X172810082Y-84175400D01*
X172986778Y-84210547D01*
G37*
G36*
X175526778Y-84210547D02*
G01*
X175693224Y-84279491D01*
X175843022Y-84379583D01*
X175970417Y-84506978D01*
X176070509Y-84656776D01*
X176139453Y-84823222D01*
X176174600Y-84999918D01*
X176174600Y-85180082D01*
X176139453Y-85356778D01*
X176070509Y-85523224D01*
X175970417Y-85673022D01*
X175843022Y-85800417D01*
X175693224Y-85900509D01*
X175526778Y-85969453D01*
X175350082Y-86004600D01*
X175169918Y-86004600D01*
X174993222Y-85969453D01*
X174826776Y-85900509D01*
X174676978Y-85800417D01*
X174549583Y-85673022D01*
X174449491Y-85523224D01*
X174380547Y-85356778D01*
X174345400Y-85180082D01*
X174345400Y-84999918D01*
X174380547Y-84823222D01*
X174449491Y-84656776D01*
X174549583Y-84506978D01*
X174676978Y-84379583D01*
X174826776Y-84279491D01*
X174993222Y-84210547D01*
X175169918Y-84175400D01*
X175350082Y-84175400D01*
X175526778Y-84210547D01*
G37*
G36*
X178066778Y-84210547D02*
G01*
X178233224Y-84279491D01*
X178383022Y-84379583D01*
X178510417Y-84506978D01*
X178610509Y-84656776D01*
X178679453Y-84823222D01*
X178714600Y-84999918D01*
X178714600Y-85180082D01*
X178679453Y-85356778D01*
X178610509Y-85523224D01*
X178510417Y-85673022D01*
X178383022Y-85800417D01*
X178233224Y-85900509D01*
X178066778Y-85969453D01*
X177890082Y-86004600D01*
X177709918Y-86004600D01*
X177533222Y-85969453D01*
X177366776Y-85900509D01*
X177216978Y-85800417D01*
X177089583Y-85673022D01*
X176989491Y-85523224D01*
X176920547Y-85356778D01*
X176885400Y-85180082D01*
X176885400Y-84999918D01*
X176920547Y-84823222D01*
X176989491Y-84656776D01*
X177089583Y-84506978D01*
X177216978Y-84379583D01*
X177366776Y-84279491D01*
X177533222Y-84210547D01*
X177709918Y-84175400D01*
X177890082Y-84175400D01*
X178066778Y-84210547D01*
G37*
G36*
X180606778Y-84210547D02*
G01*
X180773224Y-84279491D01*
X180923022Y-84379583D01*
X181050417Y-84506978D01*
X181150509Y-84656776D01*
X181219453Y-84823222D01*
X181254600Y-84999918D01*
X181254600Y-85180082D01*
X181219453Y-85356778D01*
X181150509Y-85523224D01*
X181050417Y-85673022D01*
X180923022Y-85800417D01*
X180773224Y-85900509D01*
X180606778Y-85969453D01*
X180430082Y-86004600D01*
X180249918Y-86004600D01*
X180073222Y-85969453D01*
X179906776Y-85900509D01*
X179756978Y-85800417D01*
X179629583Y-85673022D01*
X179529491Y-85523224D01*
X179460547Y-85356778D01*
X179425400Y-85180082D01*
X179425400Y-84999918D01*
X179460547Y-84823222D01*
X179529491Y-84656776D01*
X179629583Y-84506978D01*
X179756978Y-84379583D01*
X179906776Y-84279491D01*
X180073222Y-84210547D01*
X180249918Y-84175400D01*
X180430082Y-84175400D01*
X180606778Y-84210547D01*
G37*
G36*
X185686778Y-84210547D02*
G01*
X185853224Y-84279491D01*
X186003022Y-84379583D01*
X186130417Y-84506978D01*
X186230509Y-84656776D01*
X186299453Y-84823222D01*
X186334600Y-84999918D01*
X186334600Y-85180082D01*
X186299453Y-85356778D01*
X186230509Y-85523224D01*
X186130417Y-85673022D01*
X186003022Y-85800417D01*
X185853224Y-85900509D01*
X185686778Y-85969453D01*
X185510082Y-86004600D01*
X185329918Y-86004600D01*
X185153222Y-85969453D01*
X184986776Y-85900509D01*
X184836978Y-85800417D01*
X184709583Y-85673022D01*
X184609491Y-85523224D01*
X184540547Y-85356778D01*
X184505400Y-85180082D01*
X184505400Y-84999918D01*
X184540547Y-84823222D01*
X184609491Y-84656776D01*
X184709583Y-84506978D01*
X184836978Y-84379583D01*
X184986776Y-84279491D01*
X185153222Y-84210547D01*
X185329918Y-84175400D01*
X185510082Y-84175400D01*
X185686778Y-84210547D01*
G37*
G36*
X188226778Y-84210547D02*
G01*
X188393224Y-84279491D01*
X188543022Y-84379583D01*
X188670417Y-84506978D01*
X188770509Y-84656776D01*
X188839453Y-84823222D01*
X188874600Y-84999918D01*
X188874600Y-85180082D01*
X188839453Y-85356778D01*
X188770509Y-85523224D01*
X188670417Y-85673022D01*
X188543022Y-85800417D01*
X188393224Y-85900509D01*
X188226778Y-85969453D01*
X188050082Y-86004600D01*
X187869918Y-86004600D01*
X187693222Y-85969453D01*
X187526776Y-85900509D01*
X187376978Y-85800417D01*
X187249583Y-85673022D01*
X187149491Y-85523224D01*
X187080547Y-85356778D01*
X187045400Y-85180082D01*
X187045400Y-84999918D01*
X187080547Y-84823222D01*
X187149491Y-84656776D01*
X187249583Y-84506978D01*
X187376978Y-84379583D01*
X187526776Y-84279491D01*
X187693222Y-84210547D01*
X187869918Y-84175400D01*
X188050082Y-84175400D01*
X188226778Y-84210547D01*
G37*
G36*
X190766778Y-84210547D02*
G01*
X190933224Y-84279491D01*
X191083022Y-84379583D01*
X191210417Y-84506978D01*
X191310509Y-84656776D01*
X191379453Y-84823222D01*
X191414600Y-84999918D01*
X191414600Y-85180082D01*
X191379453Y-85356778D01*
X191310509Y-85523224D01*
X191210417Y-85673022D01*
X191083022Y-85800417D01*
X190933224Y-85900509D01*
X190766778Y-85969453D01*
X190590082Y-86004600D01*
X190409918Y-86004600D01*
X190233222Y-85969453D01*
X190066776Y-85900509D01*
X189916978Y-85800417D01*
X189789583Y-85673022D01*
X189689491Y-85523224D01*
X189620547Y-85356778D01*
X189585400Y-85180082D01*
X189585400Y-84999918D01*
X189620547Y-84823222D01*
X189689491Y-84656776D01*
X189789583Y-84506978D01*
X189916978Y-84379583D01*
X190066776Y-84279491D01*
X190233222Y-84210547D01*
X190409918Y-84175400D01*
X190590082Y-84175400D01*
X190766778Y-84210547D01*
G37*
G36*
X193306778Y-84210547D02*
G01*
X193473224Y-84279491D01*
X193623022Y-84379583D01*
X193750417Y-84506978D01*
X193850509Y-84656776D01*
X193919453Y-84823222D01*
X193954600Y-84999918D01*
X193954600Y-85180082D01*
X193919453Y-85356778D01*
X193850509Y-85523224D01*
X193750417Y-85673022D01*
X193623022Y-85800417D01*
X193473224Y-85900509D01*
X193306778Y-85969453D01*
X193130082Y-86004600D01*
X192949918Y-86004600D01*
X192773222Y-85969453D01*
X192606776Y-85900509D01*
X192456978Y-85800417D01*
X192329583Y-85673022D01*
X192229491Y-85523224D01*
X192160547Y-85356778D01*
X192125400Y-85180082D01*
X192125400Y-84999918D01*
X192160547Y-84823222D01*
X192229491Y-84656776D01*
X192329583Y-84506978D01*
X192456978Y-84379583D01*
X192606776Y-84279491D01*
X192773222Y-84210547D01*
X192949918Y-84175400D01*
X193130082Y-84175400D01*
X193306778Y-84210547D01*
G37*
G36*
X195846778Y-84210547D02*
G01*
X196013224Y-84279491D01*
X196163022Y-84379583D01*
X196290417Y-84506978D01*
X196390509Y-84656776D01*
X196459453Y-84823222D01*
X196494600Y-84999918D01*
X196494600Y-85180082D01*
X196459453Y-85356778D01*
X196390509Y-85523224D01*
X196290417Y-85673022D01*
X196163022Y-85800417D01*
X196013224Y-85900509D01*
X195846778Y-85969453D01*
X195670082Y-86004600D01*
X195489918Y-86004600D01*
X195313222Y-85969453D01*
X195146776Y-85900509D01*
X194996978Y-85800417D01*
X194869583Y-85673022D01*
X194769491Y-85523224D01*
X194700547Y-85356778D01*
X194665400Y-85180082D01*
X194665400Y-84999918D01*
X194700547Y-84823222D01*
X194769491Y-84656776D01*
X194869583Y-84506978D01*
X194996978Y-84379583D01*
X195146776Y-84279491D01*
X195313222Y-84210547D01*
X195489918Y-84175400D01*
X195670082Y-84175400D01*
X195846778Y-84210547D01*
G37*
G36*
X198386778Y-84210547D02*
G01*
X198553224Y-84279491D01*
X198703022Y-84379583D01*
X198830417Y-84506978D01*
X198930509Y-84656776D01*
X198999453Y-84823222D01*
X199034600Y-84999918D01*
X199034600Y-85180082D01*
X198999453Y-85356778D01*
X198930509Y-85523224D01*
X198830417Y-85673022D01*
X198703022Y-85800417D01*
X198553224Y-85900509D01*
X198386778Y-85969453D01*
X198210082Y-86004600D01*
X198029918Y-86004600D01*
X197853222Y-85969453D01*
X197686776Y-85900509D01*
X197536978Y-85800417D01*
X197409583Y-85673022D01*
X197309491Y-85523224D01*
X197240547Y-85356778D01*
X197205400Y-85180082D01*
X197205400Y-84999918D01*
X197240547Y-84823222D01*
X197309491Y-84656776D01*
X197409583Y-84506978D01*
X197536978Y-84379583D01*
X197686776Y-84279491D01*
X197853222Y-84210547D01*
X198029918Y-84175400D01*
X198210082Y-84175400D01*
X198386778Y-84210547D01*
G37*
G36*
X156222778Y-84210547D02*
G01*
X156389224Y-84279491D01*
X156539022Y-84379583D01*
X156666417Y-84506978D01*
X156766509Y-84656776D01*
X156835453Y-84823222D01*
X156870600Y-84999918D01*
X156870600Y-85180082D01*
X156835453Y-85356778D01*
X156766509Y-85523224D01*
X156666417Y-85673022D01*
X156539022Y-85800417D01*
X156389224Y-85900509D01*
X156222778Y-85969453D01*
X156046082Y-86004600D01*
X155865918Y-86004600D01*
X155689222Y-85969453D01*
X155522776Y-85900509D01*
X155372978Y-85800417D01*
X155245583Y-85673022D01*
X155145491Y-85523224D01*
X155076547Y-85356778D01*
X155041400Y-85180082D01*
X155041400Y-84999918D01*
X155076547Y-84823222D01*
X155145491Y-84656776D01*
X155245583Y-84506978D01*
X155372978Y-84379583D01*
X155522776Y-84279491D01*
X155689222Y-84210547D01*
X155865918Y-84175400D01*
X156046082Y-84175400D01*
X156222778Y-84210547D01*
G37*
M02*
