G04 #@! TF.GenerationSoftware,KiCad,Pcbnew,(5.1.5-0-10_14)*
G04 #@! TF.CreationDate,2020-03-05T22:25:02-06:00*
G04 #@! TF.ProjectId,Electronic Target,456c6563-7472-46f6-9e69-632054617267,rev?*
G04 #@! TF.SameCoordinates,Original*
G04 #@! TF.FileFunction,Legend,Top*
G04 #@! TF.FilePolarity,Positive*
%FSLAX46Y46*%
G04 Gerber Fmt 4.6, Leading zero omitted, Abs format (unit mm)*
G04 Created by KiCad (PCBNEW (5.1.5-0-10_14)) date 2020-03-05 22:25:02*
%MOMM*%
%LPD*%
G04 APERTURE LIST*
%ADD10C,0.381000*%
%ADD11C,0.254000*%
%ADD12C,0.508000*%
%ADD13C,0.300000*%
%ADD14C,0.317500*%
%ADD15C,0.120000*%
%ADD16C,0.150000*%
%ADD17C,0.152400*%
G04 APERTURE END LIST*
D10*
X126564571Y-107178928D02*
X126564571Y-105654928D01*
X127435428Y-107178928D01*
X127435428Y-105654928D01*
X126673428Y-109047642D02*
X127181428Y-109047642D01*
X127399142Y-109845928D02*
X126673428Y-109845928D01*
X126673428Y-108321928D01*
X127399142Y-108321928D01*
X126564571Y-112440357D02*
X126782285Y-112512928D01*
X127145142Y-112512928D01*
X127290285Y-112440357D01*
X127362857Y-112367785D01*
X127435428Y-112222642D01*
X127435428Y-112077500D01*
X127362857Y-111932357D01*
X127290285Y-111859785D01*
X127145142Y-111787214D01*
X126854857Y-111714642D01*
X126709714Y-111642071D01*
X126637142Y-111569500D01*
X126564571Y-111424357D01*
X126564571Y-111279214D01*
X126637142Y-111134071D01*
X126709714Y-111061500D01*
X126854857Y-110988928D01*
X127217714Y-110988928D01*
X127435428Y-111061500D01*
X126346857Y-113655928D02*
X126709714Y-115179928D01*
X127000000Y-114091357D01*
X127290285Y-115179928D01*
X127653142Y-113655928D01*
D11*
X118872000Y-121424095D02*
X118823619Y-121520857D01*
X118823619Y-121666000D01*
X118872000Y-121811142D01*
X118968761Y-121907904D01*
X119065523Y-121956285D01*
X119259047Y-122004666D01*
X119404190Y-122004666D01*
X119597714Y-121956285D01*
X119694476Y-121907904D01*
X119791238Y-121811142D01*
X119839619Y-121666000D01*
X119839619Y-121569238D01*
X119791238Y-121424095D01*
X119742857Y-121375714D01*
X119404190Y-121375714D01*
X119404190Y-121569238D01*
X119839619Y-120940285D02*
X118823619Y-120940285D01*
X119839619Y-120359714D01*
X118823619Y-120359714D01*
X119839619Y-119875904D02*
X118823619Y-119875904D01*
X118823619Y-119634000D01*
X118872000Y-119488857D01*
X118968761Y-119392095D01*
X119065523Y-119343714D01*
X119259047Y-119295333D01*
X119404190Y-119295333D01*
X119597714Y-119343714D01*
X119694476Y-119392095D01*
X119791238Y-119488857D01*
X119839619Y-119634000D01*
X119839619Y-119875904D01*
X118823619Y-103547333D02*
X118823619Y-104031142D01*
X119307428Y-104079523D01*
X119259047Y-104031142D01*
X119210666Y-103934380D01*
X119210666Y-103692476D01*
X119259047Y-103595714D01*
X119307428Y-103547333D01*
X119404190Y-103498952D01*
X119646095Y-103498952D01*
X119742857Y-103547333D01*
X119791238Y-103595714D01*
X119839619Y-103692476D01*
X119839619Y-103934380D01*
X119791238Y-104031142D01*
X119742857Y-104079523D01*
X118823619Y-103208666D02*
X119839619Y-102870000D01*
X118823619Y-102531333D01*
X118823619Y-101999142D02*
X118823619Y-101902380D01*
X118872000Y-101805619D01*
X118920380Y-101757238D01*
X119017142Y-101708857D01*
X119210666Y-101660476D01*
X119452571Y-101660476D01*
X119646095Y-101708857D01*
X119742857Y-101757238D01*
X119791238Y-101805619D01*
X119839619Y-101902380D01*
X119839619Y-101999142D01*
X119791238Y-102095904D01*
X119742857Y-102144285D01*
X119646095Y-102192666D01*
X119452571Y-102241047D01*
X119210666Y-102241047D01*
X119017142Y-102192666D01*
X118920380Y-102144285D01*
X118872000Y-102095904D01*
X118823619Y-101999142D01*
X127713619Y-123177904D02*
X127713619Y-122548952D01*
X128100666Y-122887619D01*
X128100666Y-122742476D01*
X128149047Y-122645714D01*
X128197428Y-122597333D01*
X128294190Y-122548952D01*
X128536095Y-122548952D01*
X128632857Y-122597333D01*
X128681238Y-122645714D01*
X128729619Y-122742476D01*
X128729619Y-123032761D01*
X128681238Y-123129523D01*
X128632857Y-123177904D01*
X127713619Y-122258666D02*
X128729619Y-121920000D01*
X127713619Y-121581333D01*
X127713619Y-121339428D02*
X127713619Y-120710476D01*
X128100666Y-121049142D01*
X128100666Y-120904000D01*
X128149047Y-120807238D01*
X128197428Y-120758857D01*
X128294190Y-120710476D01*
X128536095Y-120710476D01*
X128632857Y-120758857D01*
X128681238Y-120807238D01*
X128729619Y-120904000D01*
X128729619Y-121194285D01*
X128681238Y-121291047D01*
X128632857Y-121339428D01*
D10*
X127000000Y-121920000D02*
X127000000Y-116840000D01*
X120650000Y-121920000D02*
X127000000Y-121920000D01*
D12*
X119380000Y-114300000D02*
X119380000Y-118110000D01*
X119380000Y-105410000D02*
X119380000Y-113030000D01*
D10*
X172961904Y-128995714D02*
X173929523Y-128995714D01*
X173324761Y-130689047D02*
X173324761Y-128511904D01*
X173445714Y-128270000D01*
X173687619Y-128149047D01*
X173929523Y-128149047D01*
X174776190Y-130689047D02*
X174776190Y-128995714D01*
X174776190Y-129479523D02*
X174897142Y-129237619D01*
X175018095Y-129116666D01*
X175260000Y-128995714D01*
X175501904Y-128995714D01*
X177316190Y-130568095D02*
X177074285Y-130689047D01*
X176590476Y-130689047D01*
X176348571Y-130568095D01*
X176227619Y-130326190D01*
X176227619Y-129358571D01*
X176348571Y-129116666D01*
X176590476Y-128995714D01*
X177074285Y-128995714D01*
X177316190Y-129116666D01*
X177437142Y-129358571D01*
X177437142Y-129600476D01*
X176227619Y-129842380D01*
X178525714Y-129358571D02*
X179372380Y-129358571D01*
X179735238Y-130689047D02*
X178525714Y-130689047D01*
X178525714Y-128149047D01*
X179735238Y-128149047D01*
X180460952Y-128149047D02*
X181912380Y-128149047D01*
X181186666Y-130689047D02*
X181186666Y-128149047D01*
X183847619Y-130689047D02*
X183847619Y-129358571D01*
X183726666Y-129116666D01*
X183484761Y-128995714D01*
X183000952Y-128995714D01*
X182759047Y-129116666D01*
X183847619Y-130568095D02*
X183605714Y-130689047D01*
X183000952Y-130689047D01*
X182759047Y-130568095D01*
X182638095Y-130326190D01*
X182638095Y-130084285D01*
X182759047Y-129842380D01*
X183000952Y-129721428D01*
X183605714Y-129721428D01*
X183847619Y-129600476D01*
X185057142Y-130689047D02*
X185057142Y-128995714D01*
X185057142Y-129479523D02*
X185178095Y-129237619D01*
X185299047Y-129116666D01*
X185540952Y-128995714D01*
X185782857Y-128995714D01*
X187718095Y-128995714D02*
X187718095Y-131051904D01*
X187597142Y-131293809D01*
X187476190Y-131414761D01*
X187234285Y-131535714D01*
X186871428Y-131535714D01*
X186629523Y-131414761D01*
X187718095Y-130568095D02*
X187476190Y-130689047D01*
X186992380Y-130689047D01*
X186750476Y-130568095D01*
X186629523Y-130447142D01*
X186508571Y-130205238D01*
X186508571Y-129479523D01*
X186629523Y-129237619D01*
X186750476Y-129116666D01*
X186992380Y-128995714D01*
X187476190Y-128995714D01*
X187718095Y-129116666D01*
X189895238Y-130568095D02*
X189653333Y-130689047D01*
X189169523Y-130689047D01*
X188927619Y-130568095D01*
X188806666Y-130326190D01*
X188806666Y-129358571D01*
X188927619Y-129116666D01*
X189169523Y-128995714D01*
X189653333Y-128995714D01*
X189895238Y-129116666D01*
X190016190Y-129358571D01*
X190016190Y-129600476D01*
X188806666Y-129842380D01*
X190741904Y-128995714D02*
X191709523Y-128995714D01*
X191104761Y-128149047D02*
X191104761Y-130326190D01*
X191225714Y-130568095D01*
X191467619Y-130689047D01*
X191709523Y-130689047D01*
X194128571Y-128149047D02*
X194975238Y-130689047D01*
X195821904Y-128149047D01*
X196547619Y-128390952D02*
X196668571Y-128270000D01*
X196910476Y-128149047D01*
X197515238Y-128149047D01*
X197757142Y-128270000D01*
X197878095Y-128390952D01*
X197999047Y-128632857D01*
X197999047Y-128874761D01*
X197878095Y-129237619D01*
X196426666Y-130689047D01*
X197999047Y-130689047D01*
X199087619Y-130447142D02*
X199208571Y-130568095D01*
X199087619Y-130689047D01*
X198966666Y-130568095D01*
X199087619Y-130447142D01*
X199087619Y-130689047D01*
X200780952Y-128149047D02*
X201022857Y-128149047D01*
X201264761Y-128270000D01*
X201385714Y-128390952D01*
X201506666Y-128632857D01*
X201627619Y-129116666D01*
X201627619Y-129721428D01*
X201506666Y-130205238D01*
X201385714Y-130447142D01*
X201264761Y-130568095D01*
X201022857Y-130689047D01*
X200780952Y-130689047D01*
X200539047Y-130568095D01*
X200418095Y-130447142D01*
X200297142Y-130205238D01*
X200176190Y-129721428D01*
X200176190Y-129116666D01*
X200297142Y-128632857D01*
X200418095Y-128390952D01*
X200539047Y-128270000D01*
X200780952Y-128149047D01*
X202716190Y-130447142D02*
X202837142Y-130568095D01*
X202716190Y-130689047D01*
X202595238Y-130568095D01*
X202716190Y-130447142D01*
X202716190Y-130689047D01*
X203683809Y-128149047D02*
X205377142Y-130689047D01*
X205377142Y-128149047D02*
X203683809Y-130689047D01*
D13*
X119440000Y-131060000D02*
X120154285Y-131060000D01*
X119297142Y-131488571D02*
X119797142Y-129988571D01*
X120297142Y-131488571D01*
X120797142Y-131488571D02*
X120797142Y-129988571D01*
X121154285Y-129988571D01*
X121368571Y-130060000D01*
X121511428Y-130202857D01*
X121582857Y-130345714D01*
X121654285Y-130631428D01*
X121654285Y-130845714D01*
X121582857Y-131131428D01*
X121511428Y-131274285D01*
X121368571Y-131417142D01*
X121154285Y-131488571D01*
X120797142Y-131488571D01*
X122725714Y-129988571D02*
X122725714Y-131060000D01*
X122654285Y-131274285D01*
X122511428Y-131417142D01*
X122297142Y-131488571D01*
X122154285Y-131488571D01*
X123440000Y-129988571D02*
X123440000Y-131202857D01*
X123511428Y-131345714D01*
X123582857Y-131417142D01*
X123725714Y-131488571D01*
X124011428Y-131488571D01*
X124154285Y-131417142D01*
X124225714Y-131345714D01*
X124297142Y-131202857D01*
X124297142Y-129988571D01*
X124940000Y-131417142D02*
X125154285Y-131488571D01*
X125511428Y-131488571D01*
X125654285Y-131417142D01*
X125725714Y-131345714D01*
X125797142Y-131202857D01*
X125797142Y-131060000D01*
X125725714Y-130917142D01*
X125654285Y-130845714D01*
X125511428Y-130774285D01*
X125225714Y-130702857D01*
X125082857Y-130631428D01*
X125011428Y-130560000D01*
X124940000Y-130417142D01*
X124940000Y-130274285D01*
X125011428Y-130131428D01*
X125082857Y-130060000D01*
X125225714Y-129988571D01*
X125582857Y-129988571D01*
X125797142Y-130060000D01*
X126225714Y-129988571D02*
X127082857Y-129988571D01*
X126654285Y-131488571D02*
X126654285Y-129988571D01*
D14*
X177800000Y-91409761D02*
X177800000Y-92014523D01*
X177165000Y-90744523D02*
X177800000Y-91409761D01*
X178435000Y-90744523D01*
X172085000Y-90744523D02*
X173355000Y-92014523D01*
X173355000Y-90744523D02*
X172085000Y-92014523D01*
X167095714Y-91954047D02*
X167367857Y-92014523D01*
X167821428Y-92014523D01*
X168002857Y-91954047D01*
X168093571Y-91893571D01*
X168184285Y-91772619D01*
X168184285Y-91651666D01*
X168093571Y-91530714D01*
X168002857Y-91470238D01*
X167821428Y-91409761D01*
X167458571Y-91349285D01*
X167277142Y-91288809D01*
X167186428Y-91228333D01*
X167095714Y-91107380D01*
X167095714Y-90986428D01*
X167186428Y-90865476D01*
X167277142Y-90805000D01*
X167458571Y-90744523D01*
X167912142Y-90744523D01*
X168184285Y-90805000D01*
X147985238Y-87841666D02*
X149194761Y-87841666D01*
X147743333Y-88204523D02*
X148590000Y-86934523D01*
X149436666Y-88204523D01*
X151130000Y-87539285D02*
X151492857Y-87599761D01*
X151613809Y-87660238D01*
X151734761Y-87781190D01*
X151734761Y-87962619D01*
X151613809Y-88083571D01*
X151492857Y-88144047D01*
X151250952Y-88204523D01*
X150283333Y-88204523D01*
X150283333Y-86934523D01*
X151130000Y-86934523D01*
X151371904Y-86995000D01*
X151492857Y-87055476D01*
X151613809Y-87176428D01*
X151613809Y-87297380D01*
X151492857Y-87418333D01*
X151371904Y-87478809D01*
X151130000Y-87539285D01*
X150283333Y-87539285D01*
X154274761Y-88083571D02*
X154153809Y-88144047D01*
X153790952Y-88204523D01*
X153549047Y-88204523D01*
X153186190Y-88144047D01*
X152944285Y-88023095D01*
X152823333Y-87902142D01*
X152702380Y-87660238D01*
X152702380Y-87478809D01*
X152823333Y-87236904D01*
X152944285Y-87115952D01*
X153186190Y-86995000D01*
X153549047Y-86934523D01*
X153790952Y-86934523D01*
X154153809Y-86995000D01*
X154274761Y-87055476D01*
X155363333Y-88204523D02*
X155363333Y-86934523D01*
X155968095Y-86934523D01*
X156330952Y-86995000D01*
X156572857Y-87115952D01*
X156693809Y-87236904D01*
X156814761Y-87478809D01*
X156814761Y-87660238D01*
X156693809Y-87902142D01*
X156572857Y-88023095D01*
X156330952Y-88144047D01*
X155968095Y-88204523D01*
X155363333Y-88204523D01*
D15*
X135890000Y-99705000D02*
X132440000Y-99705000D01*
X135890000Y-99705000D02*
X137840000Y-99705000D01*
X135890000Y-108575000D02*
X133940000Y-108575000D01*
X135890000Y-108575000D02*
X137840000Y-108575000D01*
D16*
X187005000Y-105050000D02*
X191455000Y-105050000D01*
X185480000Y-98150000D02*
X191455000Y-98150000D01*
X185480000Y-117200000D02*
X191455000Y-117200000D01*
X187005000Y-124100000D02*
X191455000Y-124100000D01*
X116840000Y-82550000D02*
X116840000Y-135890000D01*
X215900000Y-95250000D02*
X215900000Y-84074000D01*
X218440000Y-97790000D02*
X215900000Y-95250000D01*
X218440000Y-132080000D02*
X218440000Y-97790000D01*
X215900000Y-134620000D02*
X218440000Y-132080000D01*
X215900000Y-135890000D02*
X215900000Y-134620000D01*
X214376000Y-82550000D02*
X215900000Y-84074000D01*
X116840000Y-135890000D02*
X215900000Y-135890000D01*
X116840000Y-82550000D02*
X214376000Y-82550000D01*
D15*
X139227936Y-91530000D02*
X140432064Y-91530000D01*
X139227936Y-88810000D02*
X140432064Y-88810000D01*
X123708752Y-100770000D02*
X120936248Y-100770000D01*
X123708752Y-97350000D02*
X120936248Y-97350000D01*
X135631422Y-97080000D02*
X136148578Y-97080000D01*
X135631422Y-98500000D02*
X136148578Y-98500000D01*
X150871422Y-97230000D02*
X151388578Y-97230000D01*
X150871422Y-95810000D02*
X151388578Y-95810000D01*
X167566078Y-115010000D02*
X167048922Y-115010000D01*
X167566078Y-113590000D02*
X167048922Y-113590000D01*
X192781422Y-90880000D02*
X193298578Y-90880000D01*
X192781422Y-89460000D02*
X193298578Y-89460000D01*
X149601422Y-116280000D02*
X150118578Y-116280000D01*
X149601422Y-114860000D02*
X150118578Y-114860000D01*
X167566078Y-98500000D02*
X167048922Y-98500000D01*
X167566078Y-97080000D02*
X167048922Y-97080000D01*
X186616078Y-111050000D02*
X186098922Y-111050000D01*
X186616078Y-112470000D02*
X186098922Y-112470000D01*
X129798578Y-120090000D02*
X129281422Y-120090000D01*
X129798578Y-118670000D02*
X129281422Y-118670000D01*
X128343922Y-103430000D02*
X128861078Y-103430000D01*
X128343922Y-104850000D02*
X128861078Y-104850000D01*
X128343922Y-102310000D02*
X128861078Y-102310000D01*
X128343922Y-100890000D02*
X128861078Y-100890000D01*
X142498578Y-102310000D02*
X141981422Y-102310000D01*
X142498578Y-100890000D02*
X141981422Y-100890000D01*
X143768578Y-93270000D02*
X143251422Y-93270000D01*
X143768578Y-94690000D02*
X143251422Y-94690000D01*
X168983922Y-93270000D02*
X169501078Y-93270000D01*
X168983922Y-94690000D02*
X169501078Y-94690000D01*
X173731422Y-93270000D02*
X174248578Y-93270000D01*
X173731422Y-94690000D02*
X174248578Y-94690000D01*
X178811422Y-93270000D02*
X179328578Y-93270000D01*
X178811422Y-94690000D02*
X179328578Y-94690000D01*
D17*
X120662700Y-125408040D02*
X120662700Y-126051960D01*
X120662700Y-127708040D02*
X120662700Y-128511300D01*
X125717300Y-124724160D02*
X125717300Y-122948700D01*
X120662700Y-122948700D02*
X120662700Y-123751960D01*
X120662700Y-128511300D02*
X125717300Y-128511300D01*
X125717300Y-128511300D02*
X125717300Y-126735840D01*
X125717300Y-122948700D02*
X120662700Y-122948700D01*
X119913400Y-121805700D02*
G75*
G03X119913400Y-121805700I-127000J0D01*
G01*
D15*
X143450000Y-108010000D02*
X146110000Y-108010000D01*
X143450000Y-107950000D02*
X143450000Y-108010000D01*
X146110000Y-107950000D02*
X146110000Y-108010000D01*
X143450000Y-107950000D02*
X146110000Y-107950000D01*
X143450000Y-106680000D02*
X143450000Y-105350000D01*
X143450000Y-105350000D02*
X144780000Y-105350000D01*
X128210000Y-95190000D02*
X129540000Y-95190000D01*
X128210000Y-96520000D02*
X128210000Y-95190000D01*
X128210000Y-97790000D02*
X130870000Y-97790000D01*
X130870000Y-97790000D02*
X130870000Y-97850000D01*
X128210000Y-97790000D02*
X128210000Y-97850000D01*
X128210000Y-97850000D02*
X130870000Y-97850000D01*
X142180000Y-99120000D02*
X144840000Y-99120000D01*
X142180000Y-99060000D02*
X142180000Y-99120000D01*
X144840000Y-99060000D02*
X144840000Y-99120000D01*
X142180000Y-99060000D02*
X144840000Y-99060000D01*
X142180000Y-97790000D02*
X142180000Y-96460000D01*
X142180000Y-96460000D02*
X143510000Y-96460000D01*
X132020000Y-92650000D02*
X133350000Y-92650000D01*
X132020000Y-93980000D02*
X132020000Y-92650000D01*
X132020000Y-95250000D02*
X134680000Y-95250000D01*
X134680000Y-95250000D02*
X134680000Y-95310000D01*
X132020000Y-95250000D02*
X132020000Y-95310000D01*
X132020000Y-95310000D02*
X134680000Y-95310000D01*
X158690000Y-99000000D02*
X160020000Y-99000000D01*
X158690000Y-100330000D02*
X158690000Y-99000000D01*
X158690000Y-101600000D02*
X161350000Y-101600000D01*
X161350000Y-101600000D02*
X161350000Y-101660000D01*
X158690000Y-101600000D02*
X158690000Y-101660000D01*
X158690000Y-101660000D02*
X161350000Y-101660000D01*
X156150000Y-111820000D02*
X158810000Y-111820000D01*
X156150000Y-111760000D02*
X156150000Y-111820000D01*
X158810000Y-111760000D02*
X158810000Y-111820000D01*
X156150000Y-111760000D02*
X158810000Y-111760000D01*
X156150000Y-110490000D02*
X156150000Y-109160000D01*
X156150000Y-109160000D02*
X157480000Y-109160000D01*
X177740000Y-105350000D02*
X179070000Y-105350000D01*
X177740000Y-106680000D02*
X177740000Y-105350000D01*
X177740000Y-107950000D02*
X180400000Y-107950000D01*
X180400000Y-107950000D02*
X180400000Y-108010000D01*
X177740000Y-107950000D02*
X177740000Y-108010000D01*
X177740000Y-108010000D02*
X180400000Y-108010000D01*
X157420000Y-127060000D02*
X160080000Y-127060000D01*
X157420000Y-127000000D02*
X157420000Y-127060000D01*
X160080000Y-127000000D02*
X160080000Y-127060000D01*
X157420000Y-127000000D02*
X160080000Y-127000000D01*
X157420000Y-125730000D02*
X157420000Y-124400000D01*
X157420000Y-124400000D02*
X158750000Y-124400000D01*
X118050000Y-87690000D02*
X120710000Y-87690000D01*
X118050000Y-87630000D02*
X118050000Y-87690000D01*
X120710000Y-87630000D02*
X120710000Y-87690000D01*
X118050000Y-87630000D02*
X120710000Y-87630000D01*
X118050000Y-86360000D02*
X118050000Y-85030000D01*
X118050000Y-85030000D02*
X119380000Y-85030000D01*
X123130000Y-85030000D02*
X124460000Y-85030000D01*
X123130000Y-86360000D02*
X123130000Y-85030000D01*
X123130000Y-87630000D02*
X125790000Y-87630000D01*
X125790000Y-87630000D02*
X125790000Y-87690000D01*
X123130000Y-87630000D02*
X123130000Y-87690000D01*
X123130000Y-87690000D02*
X125790000Y-87690000D01*
X151130000Y-99705000D02*
X147680000Y-99705000D01*
X151130000Y-99705000D02*
X153080000Y-99705000D01*
X151130000Y-108575000D02*
X149180000Y-108575000D01*
X151130000Y-108575000D02*
X153080000Y-108575000D01*
X151130000Y-127625000D02*
X153080000Y-127625000D01*
X151130000Y-127625000D02*
X149180000Y-127625000D01*
X151130000Y-118755000D02*
X153080000Y-118755000D01*
X151130000Y-118755000D02*
X147680000Y-118755000D01*
X167640000Y-108575000D02*
X169590000Y-108575000D01*
X167640000Y-108575000D02*
X165690000Y-108575000D01*
X167640000Y-99705000D02*
X169590000Y-99705000D01*
X167640000Y-99705000D02*
X164190000Y-99705000D01*
X168640000Y-118050000D02*
G75*
G02X166640000Y-118050000I-1000000J0D01*
G01*
X166640000Y-118050000D02*
X164990000Y-118050000D01*
X164990000Y-118050000D02*
X164990000Y-128330000D01*
X164990000Y-128330000D02*
X170290000Y-128330000D01*
X170290000Y-128330000D02*
X170290000Y-118050000D01*
X170290000Y-118050000D02*
X168640000Y-118050000D01*
X131412064Y-126640000D02*
X130207936Y-126640000D01*
X131412064Y-124820000D02*
X130207936Y-124820000D01*
X120590000Y-120710000D02*
X125790000Y-120710000D01*
X120590000Y-107950000D02*
X120590000Y-120710000D01*
X125790000Y-105350000D02*
X125790000Y-120710000D01*
X120590000Y-107950000D02*
X123190000Y-107950000D01*
X123190000Y-107950000D02*
X123190000Y-105350000D01*
X123190000Y-105350000D02*
X125790000Y-105350000D01*
X120590000Y-106680000D02*
X120590000Y-105350000D01*
X120590000Y-105350000D02*
X121920000Y-105350000D01*
X168307936Y-87540000D02*
X169512064Y-87540000D01*
X168307936Y-90260000D02*
X169512064Y-90260000D01*
X173387936Y-90260000D02*
X174592064Y-90260000D01*
X173387936Y-87540000D02*
X174592064Y-87540000D01*
X178467936Y-87540000D02*
X179672064Y-87540000D01*
X178467936Y-90260000D02*
X179672064Y-90260000D01*
D16*
X135128095Y-98312380D02*
X135128095Y-99121904D01*
X135175714Y-99217142D01*
X135223333Y-99264761D01*
X135318571Y-99312380D01*
X135509047Y-99312380D01*
X135604285Y-99264761D01*
X135651904Y-99217142D01*
X135699523Y-99121904D01*
X135699523Y-98312380D01*
X136699523Y-99312380D02*
X136128095Y-99312380D01*
X136413809Y-99312380D02*
X136413809Y-98312380D01*
X136318571Y-98455238D01*
X136223333Y-98550476D01*
X136128095Y-98598095D01*
X188468095Y-96752380D02*
X188468095Y-97561904D01*
X188515714Y-97657142D01*
X188563333Y-97704761D01*
X188658571Y-97752380D01*
X188849047Y-97752380D01*
X188944285Y-97704761D01*
X188991904Y-97657142D01*
X189039523Y-97561904D01*
X189039523Y-96752380D01*
X189991904Y-96752380D02*
X189515714Y-96752380D01*
X189468095Y-97228571D01*
X189515714Y-97180952D01*
X189610952Y-97133333D01*
X189849047Y-97133333D01*
X189944285Y-97180952D01*
X189991904Y-97228571D01*
X190039523Y-97323809D01*
X190039523Y-97561904D01*
X189991904Y-97657142D01*
X189944285Y-97704761D01*
X189849047Y-97752380D01*
X189610952Y-97752380D01*
X189515714Y-97704761D01*
X189468095Y-97657142D01*
X188468095Y-115802380D02*
X188468095Y-116611904D01*
X188515714Y-116707142D01*
X188563333Y-116754761D01*
X188658571Y-116802380D01*
X188849047Y-116802380D01*
X188944285Y-116754761D01*
X188991904Y-116707142D01*
X189039523Y-116611904D01*
X189039523Y-115802380D01*
X189944285Y-115802380D02*
X189753809Y-115802380D01*
X189658571Y-115850000D01*
X189610952Y-115897619D01*
X189515714Y-116040476D01*
X189468095Y-116230952D01*
X189468095Y-116611904D01*
X189515714Y-116707142D01*
X189563333Y-116754761D01*
X189658571Y-116802380D01*
X189849047Y-116802380D01*
X189944285Y-116754761D01*
X189991904Y-116707142D01*
X190039523Y-116611904D01*
X190039523Y-116373809D01*
X189991904Y-116278571D01*
X189944285Y-116230952D01*
X189849047Y-116183333D01*
X189658571Y-116183333D01*
X189563333Y-116230952D01*
X189515714Y-116278571D01*
X189468095Y-116373809D01*
X118141904Y-80986380D02*
X118808571Y-81986380D01*
X118808571Y-80986380D02*
X118141904Y-81986380D01*
X119141904Y-81700666D02*
X119618095Y-81700666D01*
X119046666Y-81986380D02*
X119380000Y-80986380D01*
X119713333Y-81986380D01*
X120570476Y-81986380D02*
X119999047Y-81986380D01*
X120284761Y-81986380D02*
X120284761Y-80986380D01*
X120189523Y-81129238D01*
X120094285Y-81224476D01*
X119999047Y-81272095D01*
X179324000Y-104243142D02*
X179371619Y-104290761D01*
X179324000Y-104338380D01*
X179276380Y-104290761D01*
X179324000Y-104243142D01*
X179324000Y-104338380D01*
X139663333Y-88247142D02*
X139615714Y-88294761D01*
X139472857Y-88342380D01*
X139377619Y-88342380D01*
X139234761Y-88294761D01*
X139139523Y-88199523D01*
X139091904Y-88104285D01*
X139044285Y-87913809D01*
X139044285Y-87770952D01*
X139091904Y-87580476D01*
X139139523Y-87485238D01*
X139234761Y-87390000D01*
X139377619Y-87342380D01*
X139472857Y-87342380D01*
X139615714Y-87390000D01*
X139663333Y-87437619D01*
X140139523Y-88342380D02*
X140330000Y-88342380D01*
X140425238Y-88294761D01*
X140472857Y-88247142D01*
X140568095Y-88104285D01*
X140615714Y-87913809D01*
X140615714Y-87532857D01*
X140568095Y-87437619D01*
X140520476Y-87390000D01*
X140425238Y-87342380D01*
X140234761Y-87342380D01*
X140139523Y-87390000D01*
X140091904Y-87437619D01*
X140044285Y-87532857D01*
X140044285Y-87770952D01*
X140091904Y-87866190D01*
X140139523Y-87913809D01*
X140234761Y-87961428D01*
X140425238Y-87961428D01*
X140520476Y-87913809D01*
X140568095Y-87866190D01*
X140615714Y-87770952D01*
X122155833Y-102067142D02*
X122108214Y-102114761D01*
X121965357Y-102162380D01*
X121870119Y-102162380D01*
X121727261Y-102114761D01*
X121632023Y-102019523D01*
X121584404Y-101924285D01*
X121536785Y-101733809D01*
X121536785Y-101590952D01*
X121584404Y-101400476D01*
X121632023Y-101305238D01*
X121727261Y-101210000D01*
X121870119Y-101162380D01*
X121965357Y-101162380D01*
X122108214Y-101210000D01*
X122155833Y-101257619D01*
X123108214Y-102162380D02*
X122536785Y-102162380D01*
X122822500Y-102162380D02*
X122822500Y-101162380D01*
X122727261Y-101305238D01*
X122632023Y-101400476D01*
X122536785Y-101448095D01*
X131913333Y-98147142D02*
X131865714Y-98194761D01*
X131722857Y-98242380D01*
X131627619Y-98242380D01*
X131484761Y-98194761D01*
X131389523Y-98099523D01*
X131341904Y-98004285D01*
X131294285Y-97813809D01*
X131294285Y-97670952D01*
X131341904Y-97480476D01*
X131389523Y-97385238D01*
X131484761Y-97290000D01*
X131627619Y-97242380D01*
X131722857Y-97242380D01*
X131865714Y-97290000D01*
X131913333Y-97337619D01*
X132294285Y-97337619D02*
X132341904Y-97290000D01*
X132437142Y-97242380D01*
X132675238Y-97242380D01*
X132770476Y-97290000D01*
X132818095Y-97337619D01*
X132865714Y-97432857D01*
X132865714Y-97528095D01*
X132818095Y-97670952D01*
X132246666Y-98242380D01*
X132865714Y-98242380D01*
X150963333Y-95227142D02*
X150915714Y-95274761D01*
X150772857Y-95322380D01*
X150677619Y-95322380D01*
X150534761Y-95274761D01*
X150439523Y-95179523D01*
X150391904Y-95084285D01*
X150344285Y-94893809D01*
X150344285Y-94750952D01*
X150391904Y-94560476D01*
X150439523Y-94465238D01*
X150534761Y-94370000D01*
X150677619Y-94322380D01*
X150772857Y-94322380D01*
X150915714Y-94370000D01*
X150963333Y-94417619D01*
X151296666Y-94322380D02*
X151915714Y-94322380D01*
X151582380Y-94703333D01*
X151725238Y-94703333D01*
X151820476Y-94750952D01*
X151868095Y-94798571D01*
X151915714Y-94893809D01*
X151915714Y-95131904D01*
X151868095Y-95227142D01*
X151820476Y-95274761D01*
X151725238Y-95322380D01*
X151439523Y-95322380D01*
X151344285Y-95274761D01*
X151296666Y-95227142D01*
X167140833Y-116307142D02*
X167093214Y-116354761D01*
X166950357Y-116402380D01*
X166855119Y-116402380D01*
X166712261Y-116354761D01*
X166617023Y-116259523D01*
X166569404Y-116164285D01*
X166521785Y-115973809D01*
X166521785Y-115830952D01*
X166569404Y-115640476D01*
X166617023Y-115545238D01*
X166712261Y-115450000D01*
X166855119Y-115402380D01*
X166950357Y-115402380D01*
X167093214Y-115450000D01*
X167140833Y-115497619D01*
X167997976Y-115735714D02*
X167997976Y-116402380D01*
X167759880Y-115354761D02*
X167521785Y-116069047D01*
X168140833Y-116069047D01*
X189063333Y-90527142D02*
X189015714Y-90574761D01*
X188872857Y-90622380D01*
X188777619Y-90622380D01*
X188634761Y-90574761D01*
X188539523Y-90479523D01*
X188491904Y-90384285D01*
X188444285Y-90193809D01*
X188444285Y-90050952D01*
X188491904Y-89860476D01*
X188539523Y-89765238D01*
X188634761Y-89670000D01*
X188777619Y-89622380D01*
X188872857Y-89622380D01*
X189015714Y-89670000D01*
X189063333Y-89717619D01*
X189968095Y-89622380D02*
X189491904Y-89622380D01*
X189444285Y-90098571D01*
X189491904Y-90050952D01*
X189587142Y-90003333D01*
X189825238Y-90003333D01*
X189920476Y-90050952D01*
X189968095Y-90098571D01*
X190015714Y-90193809D01*
X190015714Y-90431904D01*
X189968095Y-90527142D01*
X189920476Y-90574761D01*
X189825238Y-90622380D01*
X189587142Y-90622380D01*
X189491904Y-90574761D01*
X189444285Y-90527142D01*
X149693333Y-114277142D02*
X149645714Y-114324761D01*
X149502857Y-114372380D01*
X149407619Y-114372380D01*
X149264761Y-114324761D01*
X149169523Y-114229523D01*
X149121904Y-114134285D01*
X149074285Y-113943809D01*
X149074285Y-113800952D01*
X149121904Y-113610476D01*
X149169523Y-113515238D01*
X149264761Y-113420000D01*
X149407619Y-113372380D01*
X149502857Y-113372380D01*
X149645714Y-113420000D01*
X149693333Y-113467619D01*
X150550476Y-113372380D02*
X150360000Y-113372380D01*
X150264761Y-113420000D01*
X150217142Y-113467619D01*
X150121904Y-113610476D01*
X150074285Y-113800952D01*
X150074285Y-114181904D01*
X150121904Y-114277142D01*
X150169523Y-114324761D01*
X150264761Y-114372380D01*
X150455238Y-114372380D01*
X150550476Y-114324761D01*
X150598095Y-114277142D01*
X150645714Y-114181904D01*
X150645714Y-113943809D01*
X150598095Y-113848571D01*
X150550476Y-113800952D01*
X150455238Y-113753333D01*
X150264761Y-113753333D01*
X150169523Y-113800952D01*
X150121904Y-113848571D01*
X150074285Y-113943809D01*
X163663333Y-96877142D02*
X163615714Y-96924761D01*
X163472857Y-96972380D01*
X163377619Y-96972380D01*
X163234761Y-96924761D01*
X163139523Y-96829523D01*
X163091904Y-96734285D01*
X163044285Y-96543809D01*
X163044285Y-96400952D01*
X163091904Y-96210476D01*
X163139523Y-96115238D01*
X163234761Y-96020000D01*
X163377619Y-95972380D01*
X163472857Y-95972380D01*
X163615714Y-96020000D01*
X163663333Y-96067619D01*
X163996666Y-95972380D02*
X164663333Y-95972380D01*
X164234761Y-96972380D01*
X186190833Y-113767142D02*
X186143214Y-113814761D01*
X186000357Y-113862380D01*
X185905119Y-113862380D01*
X185762261Y-113814761D01*
X185667023Y-113719523D01*
X185619404Y-113624285D01*
X185571785Y-113433809D01*
X185571785Y-113290952D01*
X185619404Y-113100476D01*
X185667023Y-113005238D01*
X185762261Y-112910000D01*
X185905119Y-112862380D01*
X186000357Y-112862380D01*
X186143214Y-112910000D01*
X186190833Y-112957619D01*
X186762261Y-113290952D02*
X186667023Y-113243333D01*
X186619404Y-113195714D01*
X186571785Y-113100476D01*
X186571785Y-113052857D01*
X186619404Y-112957619D01*
X186667023Y-112910000D01*
X186762261Y-112862380D01*
X186952738Y-112862380D01*
X187047976Y-112910000D01*
X187095595Y-112957619D01*
X187143214Y-113052857D01*
X187143214Y-113100476D01*
X187095595Y-113195714D01*
X187047976Y-113243333D01*
X186952738Y-113290952D01*
X186762261Y-113290952D01*
X186667023Y-113338571D01*
X186619404Y-113386190D01*
X186571785Y-113481428D01*
X186571785Y-113671904D01*
X186619404Y-113767142D01*
X186667023Y-113814761D01*
X186762261Y-113862380D01*
X186952738Y-113862380D01*
X187047976Y-113814761D01*
X187095595Y-113767142D01*
X187143214Y-113671904D01*
X187143214Y-113481428D01*
X187095595Y-113386190D01*
X187047976Y-113338571D01*
X186952738Y-113290952D01*
X157992380Y-91773333D02*
X158706666Y-91773333D01*
X158849523Y-91820952D01*
X158944761Y-91916190D01*
X158992380Y-92059047D01*
X158992380Y-92154285D01*
X158087619Y-91344761D02*
X158040000Y-91297142D01*
X157992380Y-91201904D01*
X157992380Y-90963809D01*
X158040000Y-90868571D01*
X158087619Y-90820952D01*
X158182857Y-90773333D01*
X158278095Y-90773333D01*
X158420952Y-90820952D01*
X158992380Y-91392380D01*
X158992380Y-90773333D01*
X130643333Y-121482380D02*
X130310000Y-121006190D01*
X130071904Y-121482380D02*
X130071904Y-120482380D01*
X130452857Y-120482380D01*
X130548095Y-120530000D01*
X130595714Y-120577619D01*
X130643333Y-120672857D01*
X130643333Y-120815714D01*
X130595714Y-120910952D01*
X130548095Y-120958571D01*
X130452857Y-121006190D01*
X130071904Y-121006190D01*
X131595714Y-121482380D02*
X131024285Y-121482380D01*
X131310000Y-121482380D02*
X131310000Y-120482380D01*
X131214761Y-120625238D01*
X131119523Y-120720476D01*
X131024285Y-120768095D01*
X125563333Y-104592380D02*
X125230000Y-104116190D01*
X124991904Y-104592380D02*
X124991904Y-103592380D01*
X125372857Y-103592380D01*
X125468095Y-103640000D01*
X125515714Y-103687619D01*
X125563333Y-103782857D01*
X125563333Y-103925714D01*
X125515714Y-104020952D01*
X125468095Y-104068571D01*
X125372857Y-104116190D01*
X124991904Y-104116190D01*
X125944285Y-103687619D02*
X125991904Y-103640000D01*
X126087142Y-103592380D01*
X126325238Y-103592380D01*
X126420476Y-103640000D01*
X126468095Y-103687619D01*
X126515714Y-103782857D01*
X126515714Y-103878095D01*
X126468095Y-104020952D01*
X125896666Y-104592380D01*
X126515714Y-104592380D01*
X125563333Y-102052380D02*
X125230000Y-101576190D01*
X124991904Y-102052380D02*
X124991904Y-101052380D01*
X125372857Y-101052380D01*
X125468095Y-101100000D01*
X125515714Y-101147619D01*
X125563333Y-101242857D01*
X125563333Y-101385714D01*
X125515714Y-101480952D01*
X125468095Y-101528571D01*
X125372857Y-101576190D01*
X124991904Y-101576190D01*
X125896666Y-101052380D02*
X126515714Y-101052380D01*
X126182380Y-101433333D01*
X126325238Y-101433333D01*
X126420476Y-101480952D01*
X126468095Y-101528571D01*
X126515714Y-101623809D01*
X126515714Y-101861904D01*
X126468095Y-101957142D01*
X126420476Y-102004761D01*
X126325238Y-102052380D01*
X126039523Y-102052380D01*
X125944285Y-102004761D01*
X125896666Y-101957142D01*
X144613333Y-100782380D02*
X144280000Y-100306190D01*
X144041904Y-100782380D02*
X144041904Y-99782380D01*
X144422857Y-99782380D01*
X144518095Y-99830000D01*
X144565714Y-99877619D01*
X144613333Y-99972857D01*
X144613333Y-100115714D01*
X144565714Y-100210952D01*
X144518095Y-100258571D01*
X144422857Y-100306190D01*
X144041904Y-100306190D01*
X145470476Y-100115714D02*
X145470476Y-100782380D01*
X145232380Y-99734761D02*
X144994285Y-100449047D01*
X145613333Y-100449047D01*
X145883333Y-96082380D02*
X145550000Y-95606190D01*
X145311904Y-96082380D02*
X145311904Y-95082380D01*
X145692857Y-95082380D01*
X145788095Y-95130000D01*
X145835714Y-95177619D01*
X145883333Y-95272857D01*
X145883333Y-95415714D01*
X145835714Y-95510952D01*
X145788095Y-95558571D01*
X145692857Y-95606190D01*
X145311904Y-95606190D01*
X146788095Y-95082380D02*
X146311904Y-95082380D01*
X146264285Y-95558571D01*
X146311904Y-95510952D01*
X146407142Y-95463333D01*
X146645238Y-95463333D01*
X146740476Y-95510952D01*
X146788095Y-95558571D01*
X146835714Y-95653809D01*
X146835714Y-95891904D01*
X146788095Y-95987142D01*
X146740476Y-96034761D01*
X146645238Y-96082380D01*
X146407142Y-96082380D01*
X146311904Y-96034761D01*
X146264285Y-95987142D01*
X166203333Y-94432380D02*
X165870000Y-93956190D01*
X165631904Y-94432380D02*
X165631904Y-93432380D01*
X166012857Y-93432380D01*
X166108095Y-93480000D01*
X166155714Y-93527619D01*
X166203333Y-93622857D01*
X166203333Y-93765714D01*
X166155714Y-93860952D01*
X166108095Y-93908571D01*
X166012857Y-93956190D01*
X165631904Y-93956190D01*
X167060476Y-93432380D02*
X166870000Y-93432380D01*
X166774761Y-93480000D01*
X166727142Y-93527619D01*
X166631904Y-93670476D01*
X166584285Y-93860952D01*
X166584285Y-94241904D01*
X166631904Y-94337142D01*
X166679523Y-94384761D01*
X166774761Y-94432380D01*
X166965238Y-94432380D01*
X167060476Y-94384761D01*
X167108095Y-94337142D01*
X167155714Y-94241904D01*
X167155714Y-94003809D01*
X167108095Y-93908571D01*
X167060476Y-93860952D01*
X166965238Y-93813333D01*
X166774761Y-93813333D01*
X166679523Y-93860952D01*
X166631904Y-93908571D01*
X166584285Y-94003809D01*
X173823333Y-96972380D02*
X173490000Y-96496190D01*
X173251904Y-96972380D02*
X173251904Y-95972380D01*
X173632857Y-95972380D01*
X173728095Y-96020000D01*
X173775714Y-96067619D01*
X173823333Y-96162857D01*
X173823333Y-96305714D01*
X173775714Y-96400952D01*
X173728095Y-96448571D01*
X173632857Y-96496190D01*
X173251904Y-96496190D01*
X174156666Y-95972380D02*
X174823333Y-95972380D01*
X174394761Y-96972380D01*
X178903333Y-96972380D02*
X178570000Y-96496190D01*
X178331904Y-96972380D02*
X178331904Y-95972380D01*
X178712857Y-95972380D01*
X178808095Y-96020000D01*
X178855714Y-96067619D01*
X178903333Y-96162857D01*
X178903333Y-96305714D01*
X178855714Y-96400952D01*
X178808095Y-96448571D01*
X178712857Y-96496190D01*
X178331904Y-96496190D01*
X179474761Y-96400952D02*
X179379523Y-96353333D01*
X179331904Y-96305714D01*
X179284285Y-96210476D01*
X179284285Y-96162857D01*
X179331904Y-96067619D01*
X179379523Y-96020000D01*
X179474761Y-95972380D01*
X179665238Y-95972380D01*
X179760476Y-96020000D01*
X179808095Y-96067619D01*
X179855714Y-96162857D01*
X179855714Y-96210476D01*
X179808095Y-96305714D01*
X179760476Y-96353333D01*
X179665238Y-96400952D01*
X179474761Y-96400952D01*
X179379523Y-96448571D01*
X179331904Y-96496190D01*
X179284285Y-96591428D01*
X179284285Y-96781904D01*
X179331904Y-96877142D01*
X179379523Y-96924761D01*
X179474761Y-96972380D01*
X179665238Y-96972380D01*
X179760476Y-96924761D01*
X179808095Y-96877142D01*
X179855714Y-96781904D01*
X179855714Y-96591428D01*
X179808095Y-96496190D01*
X179760476Y-96448571D01*
X179665238Y-96400952D01*
X123642380Y-126325238D02*
X123166190Y-126658571D01*
X123642380Y-126896666D02*
X122642380Y-126896666D01*
X122642380Y-126515714D01*
X122690000Y-126420476D01*
X122737619Y-126372857D01*
X122832857Y-126325238D01*
X122975714Y-126325238D01*
X123070952Y-126372857D01*
X123118571Y-126420476D01*
X123166190Y-126515714D01*
X123166190Y-126896666D01*
X122642380Y-126039523D02*
X123642380Y-125706190D01*
X122642380Y-125372857D01*
X123642380Y-124515714D02*
X123642380Y-125087142D01*
X123642380Y-124801428D02*
X122642380Y-124801428D01*
X122785238Y-124896666D01*
X122880476Y-124991904D01*
X122928095Y-125087142D01*
X123642380Y-126801428D02*
X123642380Y-127372857D01*
X123642380Y-127087142D02*
X122642380Y-127087142D01*
X122785238Y-127182380D01*
X122880476Y-127277619D01*
X122928095Y-127372857D01*
X122642380Y-126182380D02*
X122642380Y-126087142D01*
X122690000Y-125991904D01*
X122737619Y-125944285D01*
X122832857Y-125896666D01*
X123023333Y-125849047D01*
X123261428Y-125849047D01*
X123451904Y-125896666D01*
X123547142Y-125944285D01*
X123594761Y-125991904D01*
X123642380Y-126087142D01*
X123642380Y-126182380D01*
X123594761Y-126277619D01*
X123547142Y-126325238D01*
X123451904Y-126372857D01*
X123261428Y-126420476D01*
X123023333Y-126420476D01*
X122832857Y-126372857D01*
X122737619Y-126325238D01*
X122690000Y-126277619D01*
X122642380Y-126182380D01*
X123642380Y-125420476D02*
X122642380Y-125420476D01*
X123261428Y-125325238D02*
X123642380Y-125039523D01*
X122975714Y-125039523D02*
X123356666Y-125420476D01*
X122642380Y-124420476D02*
X122642380Y-124325238D01*
X122690000Y-124230000D01*
X122737619Y-124182380D01*
X122832857Y-124134761D01*
X123023333Y-124087142D01*
X123261428Y-124087142D01*
X123451904Y-124134761D01*
X123547142Y-124182380D01*
X123594761Y-124230000D01*
X123642380Y-124325238D01*
X123642380Y-124420476D01*
X123594761Y-124515714D01*
X123547142Y-124563333D01*
X123451904Y-124610952D01*
X123261428Y-124658571D01*
X123023333Y-124658571D01*
X122832857Y-124610952D01*
X122737619Y-124563333D01*
X122690000Y-124515714D01*
X122642380Y-124420476D01*
X122642380Y-125730000D02*
X122880476Y-125730000D01*
X122785238Y-125968095D02*
X122880476Y-125730000D01*
X122785238Y-125491904D01*
X123070952Y-125872857D02*
X122880476Y-125730000D01*
X123070952Y-125587142D01*
X143518095Y-103802380D02*
X144089523Y-103802380D01*
X143803809Y-104802380D02*
X143803809Y-103802380D01*
X144422857Y-104802380D02*
X144422857Y-103802380D01*
X144803809Y-103802380D01*
X144899047Y-103850000D01*
X144946666Y-103897619D01*
X144994285Y-103992857D01*
X144994285Y-104135714D01*
X144946666Y-104230952D01*
X144899047Y-104278571D01*
X144803809Y-104326190D01*
X144422857Y-104326190D01*
X145946666Y-104802380D02*
X145375238Y-104802380D01*
X145660952Y-104802380D02*
X145660952Y-103802380D01*
X145565714Y-103945238D01*
X145470476Y-104040476D01*
X145375238Y-104088095D01*
X125738095Y-93642380D02*
X126309523Y-93642380D01*
X126023809Y-94642380D02*
X126023809Y-93642380D01*
X126642857Y-94642380D02*
X126642857Y-93642380D01*
X127023809Y-93642380D01*
X127119047Y-93690000D01*
X127166666Y-93737619D01*
X127214285Y-93832857D01*
X127214285Y-93975714D01*
X127166666Y-94070952D01*
X127119047Y-94118571D01*
X127023809Y-94166190D01*
X126642857Y-94166190D01*
X127595238Y-93737619D02*
X127642857Y-93690000D01*
X127738095Y-93642380D01*
X127976190Y-93642380D01*
X128071428Y-93690000D01*
X128119047Y-93737619D01*
X128166666Y-93832857D01*
X128166666Y-93928095D01*
X128119047Y-94070952D01*
X127547619Y-94642380D01*
X128166666Y-94642380D01*
X144788095Y-97242380D02*
X145359523Y-97242380D01*
X145073809Y-98242380D02*
X145073809Y-97242380D01*
X145692857Y-98242380D02*
X145692857Y-97242380D01*
X146073809Y-97242380D01*
X146169047Y-97290000D01*
X146216666Y-97337619D01*
X146264285Y-97432857D01*
X146264285Y-97575714D01*
X146216666Y-97670952D01*
X146169047Y-97718571D01*
X146073809Y-97766190D01*
X145692857Y-97766190D01*
X146597619Y-97242380D02*
X147216666Y-97242380D01*
X146883333Y-97623333D01*
X147026190Y-97623333D01*
X147121428Y-97670952D01*
X147169047Y-97718571D01*
X147216666Y-97813809D01*
X147216666Y-98051904D01*
X147169047Y-98147142D01*
X147121428Y-98194761D01*
X147026190Y-98242380D01*
X146740476Y-98242380D01*
X146645238Y-98194761D01*
X146597619Y-98147142D01*
X129548095Y-93432380D02*
X130119523Y-93432380D01*
X129833809Y-94432380D02*
X129833809Y-93432380D01*
X130452857Y-94432380D02*
X130452857Y-93432380D01*
X130833809Y-93432380D01*
X130929047Y-93480000D01*
X130976666Y-93527619D01*
X131024285Y-93622857D01*
X131024285Y-93765714D01*
X130976666Y-93860952D01*
X130929047Y-93908571D01*
X130833809Y-93956190D01*
X130452857Y-93956190D01*
X131881428Y-93765714D02*
X131881428Y-94432380D01*
X131643333Y-93384761D02*
X131405238Y-94099047D01*
X132024285Y-94099047D01*
X158758095Y-102322380D02*
X159329523Y-102322380D01*
X159043809Y-103322380D02*
X159043809Y-102322380D01*
X159662857Y-103322380D02*
X159662857Y-102322380D01*
X160043809Y-102322380D01*
X160139047Y-102370000D01*
X160186666Y-102417619D01*
X160234285Y-102512857D01*
X160234285Y-102655714D01*
X160186666Y-102750952D01*
X160139047Y-102798571D01*
X160043809Y-102846190D01*
X159662857Y-102846190D01*
X161139047Y-102322380D02*
X160662857Y-102322380D01*
X160615238Y-102798571D01*
X160662857Y-102750952D01*
X160758095Y-102703333D01*
X160996190Y-102703333D01*
X161091428Y-102750952D01*
X161139047Y-102798571D01*
X161186666Y-102893809D01*
X161186666Y-103131904D01*
X161139047Y-103227142D01*
X161091428Y-103274761D01*
X160996190Y-103322380D01*
X160758095Y-103322380D01*
X160662857Y-103274761D01*
X160615238Y-103227142D01*
X156218095Y-107612380D02*
X156789523Y-107612380D01*
X156503809Y-108612380D02*
X156503809Y-107612380D01*
X157122857Y-108612380D02*
X157122857Y-107612380D01*
X157503809Y-107612380D01*
X157599047Y-107660000D01*
X157646666Y-107707619D01*
X157694285Y-107802857D01*
X157694285Y-107945714D01*
X157646666Y-108040952D01*
X157599047Y-108088571D01*
X157503809Y-108136190D01*
X157122857Y-108136190D01*
X158551428Y-107612380D02*
X158360952Y-107612380D01*
X158265714Y-107660000D01*
X158218095Y-107707619D01*
X158122857Y-107850476D01*
X158075238Y-108040952D01*
X158075238Y-108421904D01*
X158122857Y-108517142D01*
X158170476Y-108564761D01*
X158265714Y-108612380D01*
X158456190Y-108612380D01*
X158551428Y-108564761D01*
X158599047Y-108517142D01*
X158646666Y-108421904D01*
X158646666Y-108183809D01*
X158599047Y-108088571D01*
X158551428Y-108040952D01*
X158456190Y-107993333D01*
X158265714Y-107993333D01*
X158170476Y-108040952D01*
X158122857Y-108088571D01*
X158075238Y-108183809D01*
X177808095Y-103802380D02*
X178379523Y-103802380D01*
X178093809Y-104802380D02*
X178093809Y-103802380D01*
X178712857Y-104802380D02*
X178712857Y-103802380D01*
X179093809Y-103802380D01*
X179189047Y-103850000D01*
X179236666Y-103897619D01*
X179284285Y-103992857D01*
X179284285Y-104135714D01*
X179236666Y-104230952D01*
X179189047Y-104278571D01*
X179093809Y-104326190D01*
X178712857Y-104326190D01*
X179617619Y-103802380D02*
X180284285Y-103802380D01*
X179855714Y-104802380D01*
X157488095Y-122852380D02*
X158059523Y-122852380D01*
X157773809Y-123852380D02*
X157773809Y-122852380D01*
X158392857Y-123852380D02*
X158392857Y-122852380D01*
X158773809Y-122852380D01*
X158869047Y-122900000D01*
X158916666Y-122947619D01*
X158964285Y-123042857D01*
X158964285Y-123185714D01*
X158916666Y-123280952D01*
X158869047Y-123328571D01*
X158773809Y-123376190D01*
X158392857Y-123376190D01*
X159535714Y-123280952D02*
X159440476Y-123233333D01*
X159392857Y-123185714D01*
X159345238Y-123090476D01*
X159345238Y-123042857D01*
X159392857Y-122947619D01*
X159440476Y-122900000D01*
X159535714Y-122852380D01*
X159726190Y-122852380D01*
X159821428Y-122900000D01*
X159869047Y-122947619D01*
X159916666Y-123042857D01*
X159916666Y-123090476D01*
X159869047Y-123185714D01*
X159821428Y-123233333D01*
X159726190Y-123280952D01*
X159535714Y-123280952D01*
X159440476Y-123328571D01*
X159392857Y-123376190D01*
X159345238Y-123471428D01*
X159345238Y-123661904D01*
X159392857Y-123757142D01*
X159440476Y-123804761D01*
X159535714Y-123852380D01*
X159726190Y-123852380D01*
X159821428Y-123804761D01*
X159869047Y-123757142D01*
X159916666Y-123661904D01*
X159916666Y-123471428D01*
X159869047Y-123376190D01*
X159821428Y-123328571D01*
X159726190Y-123280952D01*
X118118095Y-83482380D02*
X118689523Y-83482380D01*
X118403809Y-84482380D02*
X118403809Y-83482380D01*
X119022857Y-84482380D02*
X119022857Y-83482380D01*
X119403809Y-83482380D01*
X119499047Y-83530000D01*
X119546666Y-83577619D01*
X119594285Y-83672857D01*
X119594285Y-83815714D01*
X119546666Y-83910952D01*
X119499047Y-83958571D01*
X119403809Y-84006190D01*
X119022857Y-84006190D01*
X120070476Y-84482380D02*
X120260952Y-84482380D01*
X120356190Y-84434761D01*
X120403809Y-84387142D01*
X120499047Y-84244285D01*
X120546666Y-84053809D01*
X120546666Y-83672857D01*
X120499047Y-83577619D01*
X120451428Y-83530000D01*
X120356190Y-83482380D01*
X120165714Y-83482380D01*
X120070476Y-83530000D01*
X120022857Y-83577619D01*
X119975238Y-83672857D01*
X119975238Y-83910952D01*
X120022857Y-84006190D01*
X120070476Y-84053809D01*
X120165714Y-84101428D01*
X120356190Y-84101428D01*
X120451428Y-84053809D01*
X120499047Y-84006190D01*
X120546666Y-83910952D01*
X122721904Y-83482380D02*
X123293333Y-83482380D01*
X123007619Y-84482380D02*
X123007619Y-83482380D01*
X123626666Y-84482380D02*
X123626666Y-83482380D01*
X124007619Y-83482380D01*
X124102857Y-83530000D01*
X124150476Y-83577619D01*
X124198095Y-83672857D01*
X124198095Y-83815714D01*
X124150476Y-83910952D01*
X124102857Y-83958571D01*
X124007619Y-84006190D01*
X123626666Y-84006190D01*
X125150476Y-84482380D02*
X124579047Y-84482380D01*
X124864761Y-84482380D02*
X124864761Y-83482380D01*
X124769523Y-83625238D01*
X124674285Y-83720476D01*
X124579047Y-83768095D01*
X125769523Y-83482380D02*
X125864761Y-83482380D01*
X125960000Y-83530000D01*
X126007619Y-83577619D01*
X126055238Y-83672857D01*
X126102857Y-83863333D01*
X126102857Y-84101428D01*
X126055238Y-84291904D01*
X126007619Y-84387142D01*
X125960000Y-84434761D01*
X125864761Y-84482380D01*
X125769523Y-84482380D01*
X125674285Y-84434761D01*
X125626666Y-84387142D01*
X125579047Y-84291904D01*
X125531428Y-84101428D01*
X125531428Y-83863333D01*
X125579047Y-83672857D01*
X125626666Y-83577619D01*
X125674285Y-83530000D01*
X125769523Y-83482380D01*
X150368095Y-98312380D02*
X150368095Y-99121904D01*
X150415714Y-99217142D01*
X150463333Y-99264761D01*
X150558571Y-99312380D01*
X150749047Y-99312380D01*
X150844285Y-99264761D01*
X150891904Y-99217142D01*
X150939523Y-99121904D01*
X150939523Y-98312380D01*
X151368095Y-98407619D02*
X151415714Y-98360000D01*
X151510952Y-98312380D01*
X151749047Y-98312380D01*
X151844285Y-98360000D01*
X151891904Y-98407619D01*
X151939523Y-98502857D01*
X151939523Y-98598095D01*
X151891904Y-98740952D01*
X151320476Y-99312380D01*
X151939523Y-99312380D01*
X147828095Y-117562380D02*
X147828095Y-118371904D01*
X147875714Y-118467142D01*
X147923333Y-118514761D01*
X148018571Y-118562380D01*
X148209047Y-118562380D01*
X148304285Y-118514761D01*
X148351904Y-118467142D01*
X148399523Y-118371904D01*
X148399523Y-117562380D01*
X148780476Y-117562380D02*
X149399523Y-117562380D01*
X149066190Y-117943333D01*
X149209047Y-117943333D01*
X149304285Y-117990952D01*
X149351904Y-118038571D01*
X149399523Y-118133809D01*
X149399523Y-118371904D01*
X149351904Y-118467142D01*
X149304285Y-118514761D01*
X149209047Y-118562380D01*
X148923333Y-118562380D01*
X148828095Y-118514761D01*
X148780476Y-118467142D01*
X169418095Y-97242380D02*
X169418095Y-98051904D01*
X169465714Y-98147142D01*
X169513333Y-98194761D01*
X169608571Y-98242380D01*
X169799047Y-98242380D01*
X169894285Y-98194761D01*
X169941904Y-98147142D01*
X169989523Y-98051904D01*
X169989523Y-97242380D01*
X170894285Y-97575714D02*
X170894285Y-98242380D01*
X170656190Y-97194761D02*
X170418095Y-97909047D01*
X171037142Y-97909047D01*
X163020476Y-116502380D02*
X163687142Y-117502380D01*
X163687142Y-116502380D02*
X163020476Y-117502380D01*
X164591904Y-117502380D02*
X164020476Y-117502380D01*
X164306190Y-117502380D02*
X164306190Y-116502380D01*
X164210952Y-116645238D01*
X164115714Y-116740476D01*
X164020476Y-116788095D01*
X130167142Y-123547142D02*
X130119523Y-123594761D01*
X129976666Y-123642380D01*
X129881428Y-123642380D01*
X129738571Y-123594761D01*
X129643333Y-123499523D01*
X129595714Y-123404285D01*
X129548095Y-123213809D01*
X129548095Y-123070952D01*
X129595714Y-122880476D01*
X129643333Y-122785238D01*
X129738571Y-122690000D01*
X129881428Y-122642380D01*
X129976666Y-122642380D01*
X130119523Y-122690000D01*
X130167142Y-122737619D01*
X131119523Y-123642380D02*
X130548095Y-123642380D01*
X130833809Y-123642380D02*
X130833809Y-122642380D01*
X130738571Y-122785238D01*
X130643333Y-122880476D01*
X130548095Y-122928095D01*
X131738571Y-122642380D02*
X131833809Y-122642380D01*
X131929047Y-122690000D01*
X131976666Y-122737619D01*
X132024285Y-122832857D01*
X132071904Y-123023333D01*
X132071904Y-123261428D01*
X132024285Y-123451904D01*
X131976666Y-123547142D01*
X131929047Y-123594761D01*
X131833809Y-123642380D01*
X131738571Y-123642380D01*
X131643333Y-123594761D01*
X131595714Y-123547142D01*
X131548095Y-123451904D01*
X131500476Y-123261428D01*
X131500476Y-123023333D01*
X131548095Y-122832857D01*
X131595714Y-122737619D01*
X131643333Y-122690000D01*
X131738571Y-122642380D01*
X122856666Y-103802380D02*
X122856666Y-104516666D01*
X122809047Y-104659523D01*
X122713809Y-104754761D01*
X122570952Y-104802380D01*
X122475714Y-104802380D01*
X123856666Y-104802380D02*
X123285238Y-104802380D01*
X123570952Y-104802380D02*
X123570952Y-103802380D01*
X123475714Y-103945238D01*
X123380476Y-104040476D01*
X123285238Y-104088095D01*
X168171904Y-87072380D02*
X168171904Y-86072380D01*
X168410000Y-86072380D01*
X168552857Y-86120000D01*
X168648095Y-86215238D01*
X168695714Y-86310476D01*
X168743333Y-86500952D01*
X168743333Y-86643809D01*
X168695714Y-86834285D01*
X168648095Y-86929523D01*
X168552857Y-87024761D01*
X168410000Y-87072380D01*
X168171904Y-87072380D01*
X169695714Y-87072380D02*
X169124285Y-87072380D01*
X169410000Y-87072380D02*
X169410000Y-86072380D01*
X169314761Y-86215238D01*
X169219523Y-86310476D01*
X169124285Y-86358095D01*
X173251904Y-87072380D02*
X173251904Y-86072380D01*
X173490000Y-86072380D01*
X173632857Y-86120000D01*
X173728095Y-86215238D01*
X173775714Y-86310476D01*
X173823333Y-86500952D01*
X173823333Y-86643809D01*
X173775714Y-86834285D01*
X173728095Y-86929523D01*
X173632857Y-87024761D01*
X173490000Y-87072380D01*
X173251904Y-87072380D01*
X174204285Y-86167619D02*
X174251904Y-86120000D01*
X174347142Y-86072380D01*
X174585238Y-86072380D01*
X174680476Y-86120000D01*
X174728095Y-86167619D01*
X174775714Y-86262857D01*
X174775714Y-86358095D01*
X174728095Y-86500952D01*
X174156666Y-87072380D01*
X174775714Y-87072380D01*
X178331904Y-87072380D02*
X178331904Y-86072380D01*
X178570000Y-86072380D01*
X178712857Y-86120000D01*
X178808095Y-86215238D01*
X178855714Y-86310476D01*
X178903333Y-86500952D01*
X178903333Y-86643809D01*
X178855714Y-86834285D01*
X178808095Y-86929523D01*
X178712857Y-87024761D01*
X178570000Y-87072380D01*
X178331904Y-87072380D01*
X179236666Y-86072380D02*
X179855714Y-86072380D01*
X179522380Y-86453333D01*
X179665238Y-86453333D01*
X179760476Y-86500952D01*
X179808095Y-86548571D01*
X179855714Y-86643809D01*
X179855714Y-86881904D01*
X179808095Y-86977142D01*
X179760476Y-87024761D01*
X179665238Y-87072380D01*
X179379523Y-87072380D01*
X179284285Y-87024761D01*
X179236666Y-86977142D01*
M02*
