22800 0 2 2           
30 Autodesk Translation Framework 21 ASM 228.5.0.65535 OSX 24 Wed Aug 24 13:26:20 2022 
1 9.999999999999999547e-07 1.000000000000000036e-10 
asmheader $-1 -1 @13 228.5.0.65535 #
body $2 -1 $-1 $3 $-1 $4 #
rgb_color-st-attrib $-1 -1 $5 $-1 $1 0.7960784313725489669 0.7960784313725489669 0.7960784313725489669 1 #
lump $-1 -1 $-1 $-1 $6 $1 #
transform $-1 -1 1 0 0 0 1 0 0 0 1 0 0 0 1 no_rotate no_reflect no_shear #
ATTRIB_CUSTOM-attrib $-1 -1 $-1 $2 $1 @20 Timestamp_attrib_def 1 1645562032760452 #
shell $-1 -1 $-1 $-1 $-1 $7 $-1 $3 #
face $8 -1 $-1 $9 $10 $6 $-1 $11 forward single #
DXID-attrib $-1 -1 $-1 $-1 $7 @10 ASM ENTITY @1 0 #
face $12 -1 $-1 $13 $14 $6 $-1 $15 reversed single #
loop $-1 -1 $-1 $-1 $16 $7 #
cone-surface $-1 -1 $-1 -223.5361439629644735 -52.07499999999999574 -136.2993162266329819 -1 0 0 0 3.124999999999982236 0 1 I I 0 -1 3.124999999999982236 forward I I I I #
DXID-attrib $-1 -1 $-1 $-1 $9 @10 ASM ENTITY @1 1 #
face $17 -1 $-1 $18 $19 $6 $-1 $20 forward single #
loop $-1 -1 $-1 $-1 $21 $9 #
plane-surface $-1 -1 $-1 -226.2361439629644622 -50.70000000000000284 -139.4243162266329819 -0 -0 -1 0 -10 0 forward_v I I I I #
coedge $22 -1 $-1 $23 $24 $25 $26 forward $10 0 $-1 #
DXID-attrib $-1 -1 $-1 $-1 $13 @10 ASM ENTITY @1 2 #
face $27 -1 $-1 $28 $29 $6 $-1 $30 reversed single #
loop $-1 -1 $-1 $-1 $31 $13 #
cone-surface $-1 -1 $-1 -223.5361439629644735 -56.82499999999998863 -136.2993162269178242 -1 0 0 0 3.12499999971510789 0 1 I I 0 -1 3.12499999971510789 forward I I I I #
coedge $-1 -1 $-1 $32 $33 $24 $34 reversed $14 0 $-1 #
ATTRIB_CUSTOM-attrib $-1 -1 $-1 $-1 $16 @17 sketch_attrib_def 1 1 3 @15 48750 0 1 0 1 2 #
coedge $-1 -1 $-1 $35 $16 $36 $37 forward $10 0 $-1 #
coedge $-1 -1 $-1 $16 $35 $21 $34 forward $10 0 $-1 #
coedge $38 -1 $-1 $39 $40 $16 $26 reversed $41 0 $-1 #
edge $-1 -1 $-1 $42 -1.570796326794896558 $43 1.570801549865691094 $25 $44 forward @7 unknown #
DXID-attrib $-1 -1 $-1 $-1 $18 @10 ASM ENTITY @1 3 #
face $45 -1 $-1 $46 $47 $6 $-1 $48 reversed single #
loop $-1 -1 $-1 $-1 $36 $18 #
plane-surface $-1 -1 $-1 -226.2361439629644622 -59.70000080466270731 -133.1743162266329819 0 0 1 0 10 0 forward_v I I I I #
coedge $49 -1 $-1 $50 $51 $52 $53 forward $19 0 $-1 #
coedge $-1 -1 $-1 $54 $21 $55 $56 reversed $14 0 $-1 #
coedge $-1 -1 $-1 $21 $54 $39 $57 reversed $14 0 $-1 #
edge $-1 -1 $-1 $58 -1.269999999999996021 $42 3.552713678800500929e-15 $21 $59 forward @7 tangent #
coedge $-1 -1 $-1 $24 $23 $60 $61 reversed $10 0 $-1 #
coedge $-1 -1 $-1 $62 $63 $23 $37 reversed $29 0 $-1 #
edge $-1 -1 $-1 $43 0 $64 1.269999999999999574 $36 $65 forward @7 tangent #
ATTRIB_CUSTOM-attrib $-1 -1 $-1 $-1 $25 @17 sketch_attrib_def 1 1 3 @15 48750 0 1 0 1 2 #
coedge $-1 -1 $-1 $52 $25 $33 $57 forward $41 0 $-1 #
coedge $-1 -1 $-1 $25 $52 $62 $66 forward $41 0 $-1 #
loop $-1 -1 $-1 $67 $52 $46 #
vertex $-1 -1 $-1 $57 0 $68 #
vertex $-1 -1 $-1 $26 1 $69 #
ellipse-curve $-1 -1 $-1 -223.5361439629644735 -52.07499999999999574 -136.2993162266329819 1 0 0 0 3.124999999999982236 0 1 F -1.570796326794896558 F 1.570801549865691094 #
DXID-attrib $-1 -1 $-1 $-1 $28 @10 ASM ENTITY @1 4 #
face $70 -1 $-1 $71 $72 $6 $-1 $73 forward single #
loop $-1 -1 $-1 $74 $75 $28 #
cone-surface $-1 -1 $-1 -223.5361439629644735 -73.78766904135288485 -136.2993162271025653 -1 0 0 0 1.500000000000003553 0 1 I I 0 1 1.500000000000003553 forward I I I I #
ATTRIB_CUSTOM-attrib $-1 -1 $-1 $-1 $31 @17 sketch_attrib_def 1 1 3 @15 48700 0 1 0 2 2 #
coedge $-1 -1 $-1 $76 $31 $54 $77 reversed $19 0 $-1 #
coedge $-1 -1 $-1 $31 $76 $78 $79 forward $19 0 $-1 #
coedge $80 -1 $-1 $40 $39 $31 $53 reversed $41 0 $-1 #
edge $-1 -1 $-1 $81 1.570796326794896558 $82 4.712388980384689674 $52 $83 forward @7 unknown #
coedge $-1 -1 $-1 $33 $32 $50 $77 forward $14 0 $-1 #
coedge $-1 -1 $-1 $60 $84 $32 $56 forward $85 0 $-1 #
edge $-1 -1 $-1 $86 -0.8374999999999985789 $58 -0.3624999999999998224 $55 $87 forward @7 unknown #
edge $-1 -1 $-1 $42 0.3624999999999998224 $82 0.8374999999999985789 $33 $88 forward @7 unknown #
vertex $-1 -1 $-1 $61 0 $89 #
straight-curve $-1 -1 $-1 -223.536143962964502 -52.07499999999999574 -139.4243162266329819 10 0 0 I I #
coedge $-1 -1 $-1 $90 $55 $35 $61 forward $85 0 $-1 #
edge $-1 -1 $-1 $58 -1.570796326794896558 $64 1.570801549865691094 $35 $91 forward @7 unknown #
coedge $-1 -1 $-1 $78 $36 $40 $66 reversed $29 0 $-1 #
coedge $-1 -1 $-1 $36 $78 $90 $92 reversed $29 0 $-1 #
vertex $-1 -1 $-1 $92 0 $93 #
straight-curve $-1 -1 $-1 -223.5361439629644735 -52.07501632209623921 -133.1743162266756428 -10 0 0 F 0 F 1.269999999999999574 #
edge $-1 -1 $-1 $81 -0.3874999597668633555 $43 0.08749840802351194213 $62 $94 forward @7 unknown #
loop $-1 -1 $-1 $-1 $95 $46 #
point $-1 -1 $-1 -223.5361439629644735 -52.07499999999999574 -139.4243162266329819 #
point $-1 -1 $-1 -223.5361439629644735 -52.07501632209623921 -133.1743162266756428 #
DXID-attrib $-1 -1 $-1 $-1 $46 @10 ASM ENTITY @1 5 #
face $96 -1 $-1 $97 $98 $6 $-1 $99 forward single #
loop $-1 -1 $-1 $100 $101 $46 #
plane-surface $-1 -1 $-1 -223.5361439629644735 -46.19999999999998863 -136.2993162266329819 1 0 0 0 10 0 forward_v I I I I #
loop $-1 -1 $-1 $-1 $102 $28 #
coedge $-1 -1 $-1 $75 $75 $103 $104 reversed $47 0 $-1 #
coedge $-1 -1 $-1 $51 $50 $84 $105 reversed $19 0 $-1 #
edge $-1 -1 $-1 $86 -1.269999999999996021 $82 3.552713678800500929e-15 $54 $106 forward @7 tangent #
coedge $-1 -1 $-1 $63 $62 $51 $79 reversed $29 0 $-1 #
edge $-1 -1 $-1 $107 -1.269999999999996021 $81 3.552713678800500929e-15 $78 $108 forward @7 tangent #
ATTRIB_CUSTOM-attrib $-1 -1 $-1 $-1 $52 @17 sketch_attrib_def 1 1 3 @15 48700 0 1 0 2 2 #
vertex $-1 -1 $-1 $66 0 $109 #
vertex $-1 -1 $-1 $53 1 $110 #
ellipse-curve $-1 -1 $-1 -223.5361439629644735 -56.82499999999998863 -136.2993162269178242 1 0 0 0 3.12499999971510789 0 1 F 1.570796326794896558 F 4.712388980384689674 #
coedge $-1 -1 $-1 $55 $90 $76 $105 forward $85 0 $-1 #
loop $-1 -1 $-1 $-1 $55 $111 #
vertex $-1 -1 $-1 $56 0 $112 #
straight-curve $-1 -1 $-1 -236.2361439629644622 -48.45000000000000284 -139.4243162266329819 0 10 0 I I #
straight-curve $-1 -1 $-1 -223.5361439629644735 -48.45000000000000284 -139.4243162266329819 0 -10 0 I I #
point $-1 -1 $-1 -236.2361439629644622 -52.07499999999999574 -139.4243162266329819 #
coedge $-1 -1 $-1 $84 $60 $63 $92 forward $85 0 $-1 #
ellipse-curve $-1 -1 $-1 -236.2361439629644622 -52.07499999999999574 -136.2993162266329819 1 0 0 0 3.124999999999982236 0 1 I I #
edge $-1 -1 $-1 $64 -0.08749840802351194213 $107 0.3874999597668633555 $90 $113 forward @7 unknown #
point $-1 -1 $-1 -236.2361439629644622 -52.07501632209623921 -133.1743162266756428 #
straight-curve $-1 -1 $-1 -223.5361439629644735 -52.95000040233135508 -133.1743162266329819 0 10 0 I I #
coedge $-1 -1 $-1 $114 $115 $116 $117 forward $67 0 $-1 #
DXID-attrib $-1 -1 $-1 $-1 $71 @10 ASM ENTITY @1 6 #
face $118 -1 $-1 $119 $120 $6 $-1 $121 reversed single #
loop $-1 -1 $-1 $-1 $122 $71 #
plane-surface $-1 -1 $-1 -231.2361439629644622 -10.69999999999999929 -136.2993162266329819 0 1 0 0 0 10 forward_v I I I I #
loop $-1 -1 $-1 $41 $123 $46 #
coedge $-1 -1 $-1 $101 $101 $124 $125 reversed $72 0 $-1 #
coedge $126 -1 $-1 $102 $102 $123 $127 reversed $74 0 $-1 #
coedge $-1 -1 $-1 $103 $103 $75 $104 forward $128 0 $-1 #
edge $-1 -1 $-1 $129 -3.141592653589793116 $129 3.141592653589793116 $103 $130 forward @7 unknown #
edge $-1 -1 $-1 $107 1.570796326794896558 $86 4.712388980384689674 $76 $131 forward @7 unknown #
straight-curve $-1 -1 $-1 -223.536143962964502 -56.82499999999998863 -139.4243162266329819 10 0 0 I I #
vertex $-1 -1 $-1 $105 0 $132 #
straight-curve $-1 -1 $-1 -223.536143962964502 -56.82499999999998863 -133.1743162266329819 10 0 0 I I #
point $-1 -1 $-1 -223.5361439629644735 -56.82499999999998863 -133.1743162272027234 #
point $-1 -1 $-1 -223.5361439629644735 -56.82499999999998863 -139.424316226632925 #
face $133 -1 $-1 $134 $128 $6 $-1 $135 reversed single #
point $-1 -1 $-1 -236.2361439629644622 -56.82499999999998863 -139.424316226632925 #
straight-curve $-1 -1 $-1 -236.2361439629644622 -52.95000040233135508 -133.1743162266329819 0 -10 0 I I #
coedge $-1 -1 $-1 $136 $95 $137 $138 forward $67 0 $-1 #
coedge $-1 -1 $-1 $95 $139 $140 $141 forward $67 0 $-1 #
coedge $-1 -1 $-1 $142 $143 $95 $117 reversed $144 0 $-1 #
edge $-1 -1 $-1 $145 -6.300000000000002487 $146 -0 $116 $147 forward @7 unknown #
DXID-attrib $-1 -1 $-1 $-1 $97 @10 ASM ENTITY @1 7 #
face $148 -1 $-1 $149 $150 $6 $-1 $151 forward single #
loop $-1 -1 $-1 $-1 $152 $97 #
cone-surface $-1 -1 $-1 -226.2361439629644622 -81.26457127373521416 -136.2993162266329819 -1 0 0 0 2.999999999999998224 0 1 I I 0 1 2.999999999999998224 forward I I I I #
coedge $-1 -1 $-1 $153 $140 $154 $155 reversed $98 0 $-1 #
coedge $-1 -1 $-1 $123 $123 $102 $127 forward $100 0 $-1 #
coedge $-1 -1 $-1 $124 $124 $101 $125 forward $156 0 $-1 #
edge $-1 -1 $-1 $157 -3.141592653589793116 $157 3.141592653589793116 $124 $158 forward @7 unknown #
ATTRIB_CUSTOM-attrib $-1 -1 $-1 $-1 $102 @17 sketch_attrib_def 1 1 3 @15 48648 0 0 0 1 1 #
edge $-1 -1 $-1 $159 -3.141592653589793116 $159 3.141592653589793116 $123 $160 forward @7 unknown #
loop $-1 -1 $-1 $161 $103 $111 #
vertex $-1 -1 $-1 $104 0 $162 #
ellipse-curve $-1 -1 $-1 -236.2361439629644622 -73.78766904135288485 -136.2993162271025653 1 0 0 0 1.500000000000003553 0 1 I I #
ellipse-curve $-1 -1 $-1 -236.2361439629644622 -56.82499999999998863 -136.2993162269178242 1 0 0 0 3.12499999971510789 0 1 I I #
point $-1 -1 $-1 -236.2361439629644622 -56.82499999999998863 -133.1743162272027234 #
DXID-attrib $-1 -1 $-1 $-1 $111 @10 ASM ENTITY @2 10 #
face $163 -1 $-1 $164 $156 $6 $-1 $165 reversed single #
plane-surface $-1 -1 $-1 -236.2361439629644622 -46.19999999999998863 -136.2993162266329819 1 0 0 0 10 0 forward_v I I I I #
coedge $-1 -1 $-1 $166 $114 $167 $168 forward $67 0 $-1 #
coedge $-1 -1 $-1 $169 $170 $114 $138 reversed $171 0 $-1 #
edge $-1 -1 $-1 $146 0 $172 1.570796326794896558 $137 $173 forward @7 unknown #
coedge $-1 -1 $-1 $115 $174 $175 $176 forward $67 0 $-1 #
coedge $-1 -1 $-1 $122 $177 $115 $141 reversed $98 0 $-1 #
edge $-1 -1 $-1 $178 0 $145 5 $140 $179 forward @7 unknown #
coedge $-1 -1 $-1 $180 $116 $177 $181 reversed $144 0 $-1 #
coedge $-1 -1 $-1 $116 $180 $169 $182 reversed $144 0 $-1 #
loop $-1 -1 $-1 $-1 $116 $183 #
vertex $-1 -1 $-1 $181 1 $184 #
vertex $-1 -1 $-1 $182 0 $185 #
straight-curve $-1 -1 $-1 -223.5361439629644735 -73.70000000000001705 -111.2993162266329961 -0 -10 -0 I I #
DXID-attrib $-1 -1 $-1 $-1 $119 @10 ASM ENTITY @1 8 #
face $186 -1 $-1 $111 $187 $6 $-1 $151 forward single #
loop $-1 -1 $-1 $-1 $188 $119 #
plane-surface $-1 -1 $-1 -226.2361439629644622 -78.69999999999998863 -156.2993162266330103 0 -1 0 0 0 10 forward_v I I I I #
coedge $-1 -1 $-1 $189 $190 $191 $192 reversed $120 0 $-1 #
coedge $-1 -1 $-1 $177 $122 $193 $194 forward $98 0 $-1 #
coedge $-1 -1 $-1 $175 $195 $122 $155 forward $196 0 $-1 #
edge $-1 -1 $-1 $197 -1 $178 0.2699999999999995737 $154 $198 forward @7 unknown #
loop $-1 -1 $-1 $199 $124 $134 #
vertex $-1 -1 $-1 $125 0 $200 #
ellipse-curve $-1 -1 $-1 -223.5361439629644735 -38.64616347224890802 -136.3568826525512918 1 0 0 0 3.000000000000007105 0 1 I I #
vertex $-1 -1 $-1 $127 0 $201 #
ellipse-curve $-1 -1 $-1 -223.5361439629644735 -73.78766904135288485 -136.2993162271025653 -1 -0 -0 0 1.500000000000003553 0 1 I I #
loop $-1 -1 $-1 $202 $191 $111 #
point $-1 -1 $-1 -236.2361439629644622 -75.28766904135288485 -136.2993162271025653 #
DXID-attrib $-1 -1 $-1 $-1 $134 @10 ASM ENTITY @2 11 #
face $203 -1 $-1 $204 $205 $6 $-1 $206 forward single #
cone-surface $-1 -1 $-1 -212.5910452016532872 -38.64616347224890802 -136.3568826525512918 -1 0 0 0 3.000000000000007105 0 1 I I 0 1 3.000000000000007105 forward I I I I #
coedge $-1 -1 $-1 $207 $136 $208 $209 forward $67 0 $-1 #
coedge $-1 -1 $-1 $210 $188 $136 $168 reversed $150 0 $-1 #
edge $-1 -1 $-1 $172 -4.000000000000003553 $211 -2.155659056335704093 $167 $212 forward @7 unknown #
coedge $-1 -1 $-1 $213 $137 $143 $182 forward $171 0 $-1 #
coedge $-1 -1 $-1 $137 $213 $210 $214 forward $171 0 $-1 #
loop $-1 -1 $-1 $-1 $169 $215 #
vertex $-1 -1 $-1 $214 1 $216 #
ellipse-curve $-1 -1 $-1 -223.5361439629644735 -73.70000000000001705 -116.2993162266329819 1 0 0 0 0 4.999999999999982236 1 I I #
coedge $-1 -1 $-1 $139 $207 $217 $218 forward $67 0 $-1 #
coedge $-1 -1 $-1 $219 $154 $139 $176 reversed $196 0 $-1 #
edge $-1 -1 $-1 $220 -6.000000000000001776 $178 0.2999999999999999334 $175 $221 forward @7 unknown #
coedge $-1 -1 $-1 $140 $153 $142 $181 forward $98 0 $-1 #
vertex $-1 -1 $-1 $155 1 $222 #
straight-curve $-1 -1 $-1 -223.5361439629644735 -10.69999999999999929 -161.2993162266329819 0 0 10 I I #
coedge $-1 -1 $-1 $143 $142 $223 $224 reversed $144 0 $-1 #
edge $-1 -1 $-1 $225 -1 $145 0.2699999999999995737 $142 $226 forward @7 unknown #
edge $-1 -1 $-1 $146 -0.2699999999999995737 $227 1 $169 $228 forward @7 tangent #
face $229 -1 $-1 $215 $144 $6 $-1 $230 forward single #
point $-1 -1 $-1 -223.5361439629644735 -10.69999999999999929 -111.2993162266329961 #
point $-1 -1 $-1 -223.5361439629644735 -73.70000000000001705 -111.2993162266329961 #
DXID-attrib $-1 -1 $-1 $-1 $149 @10 ASM ENTITY @1 9 #
loop $-1 -1 $-1 $-1 $231 $149 #
coedge $-1 -1 $-1 $167 $232 $190 $233 forward $150 0 $-1 #
coedge $-1 -1 $-1 $208 $152 $231 $234 reversed $120 0 $-1 #
coedge $-1 -1 $-1 $152 $208 $188 $233 reversed $120 0 $-1 #
coedge $-1 -1 $-1 $235 $236 $152 $192 forward $161 0 $-1 #
edge $-1 -1 $-1 $237 -0.5455209762253946382 $238 0.5455209762253946382 $191 $239 forward @7 unknown #
coedge $-1 -1 $-1 $240 $223 $153 $194 reversed $161 0 $-1 #
edge $-1 -1 $-1 $197 -5 $225 -0 $193 $241 forward @7 unknown #
coedge $-1 -1 $-1 $154 $219 $240 $242 forward $196 0 $-1 #
loop $-1 -1 $-1 $-1 $219 $204 #
vertex $-1 -1 $-1 $242 1 $243 #
straight-curve $-1 -1 $-1 -226.2361439629644622 -10.69999999999999929 -161.2993162266329819 10 0 0 I I #
loop $-1 -1 $-1 $-1 $244 $134 #
point $-1 -1 $-1 -223.5361439629644735 -41.64616347224891513 -136.3568826525512918 #
point $-1 -1 $-1 -223.5361439629644735 -75.28766904135288485 -136.2993162271025653 #
loop $-1 -1 $-1 $85 $245 $111 #
DXID-attrib $-1 -1 $-1 $-1 $164 @10 ASM ENTITY @2 12 #
face $246 -1 $-1 $183 $196 $6 $-1 $247 forward single #
loop $-1 -1 $-1 $-1 $248 $164 #
cone-surface $-1 -1 $-1 -226.2361439629644622 -73.70000000000001705 -156.2993162266330103 -1 0 0 0 -4.999999999999982236 0 1 I I 0 1 4.999999999999982236 forward I I I I #
coedge $-1 -1 $-1 $174 $166 $249 $250 forward $67 0 $-1 #
coedge $-1 -1 $-1 $190 $189 $166 $209 reversed $120 0 $-1 #
edge $-1 -1 $-1 $211 -0.5455209762253946382 $251 0.5455209762253946382 $208 $252 forward @7 unknown #
coedge $-1 -1 $-1 $232 $167 $170 $214 reversed $150 0 $-1 #
vertex $-1 -1 $-1 $233 1 $253 #
straight-curve $-1 -1 $-1 -223.5361439629644735 -78.69999999999998863 -156.2993162266330103 -0 -0 -10 I I #
coedge $-1 -1 $-1 $170 $169 $254 $255 reversed $171 0 $-1 #
edge $-1 -1 $-1 $256 -1 $172 0.2699999999999995737 $170 $257 forward @7 tangent #
face $258 -1 $-1 $-1 $171 $6 $-1 $259 forward single #
point $-1 -1 $-1 -223.5361439629644735 -78.69999999999998863 -116.2993162266329819 #
coedge $-1 -1 $-1 $248 $260 $174 $218 reversed $205 0 $-1 #
edge $-1 -1 $-1 $261 0 $220 1.570796326794896558 $217 $262 forward @7 unknown #
coedge $-1 -1 $-1 $195 $175 $260 $263 reversed $196 0 $-1 #
vertex $-1 -1 $-1 $263 1 $264 #
straight-curve $-1 -1 $-1 -223.5361439629644735 -13.69999999999999574 -161.2993162266329819 0 10 0 I I #
point $-1 -1 $-1 -223.5361439629644735 -10.69999999999999929 -161.2993162266329819 #
coedge $-1 -1 $-1 $193 $254 $180 $224 forward $161 0 $-1 #
edge $-1 -1 $-1 $227 0 $225 6.300000000000001599 $180 $265 forward @7 unknown #
vertex $-1 -1 $-1 $224 1 $266 #
straight-curve $-1 -1 $-1 -226.2361439629644622 -10.69999999999999929 -111.2993162266329961 10 0 0 I I #
vertex $-1 -1 $-1 $182 1 $267 #
straight-curve $-1 -1 $-1 -226.2361439629644622 -73.70000000000001705 -111.2993162266329961 -10 0 0 I I #
DXID-attrib $-1 -1 $-1 $-1 $183 @10 ASM ENTITY @2 14 #
plane-surface $-1 -1 $-1 -226.2361439629644622 -73.70000000000001705 -111.2993162266329961 0 0 1 0 10 0 forward_v I I I I #
coedge $-1 -1 $-1 $268 $249 $189 $234 forward $187 0 $-1 #
coedge $-1 -1 $-1 $188 $210 $235 $269 reversed $150 0 $-1 #
edge $-1 -1 $-1 $238 -1 $211 0.2699999999999995737 $190 $270 forward @7 unknown #
edge $-1 -1 $-1 $251 -0.2699999999999995737 $237 1 $231 $271 forward @7 unknown #
coedge $-1 -1 $-1 $254 $191 $232 $269 forward $161 0 $-1 #
coedge $-1 -1 $-1 $191 $272 $268 $273 forward $161 0 $-1 #
vertex $-1 -1 $-1 $192 0 $274 #
vertex $-1 -1 $-1 $269 0 $275 #
ellipse-curve $-1 -1 $-1 -236.2361439629644622 -81.26457127373521416 -136.2993162266329819 1 0 0 0 2.999999999999998224 0 1 I I #
coedge $-1 -1 $-1 $272 $193 $195 $242 reversed $161 0 $-1 #
straight-curve $-1 -1 $-1 -236.2361439629644622 -10.69999999999999929 -111.2993162266329961 0 0 10 I I #
edge $-1 -1 $-1 $276 -6.000000000000001776 $197 0.2999999999999999334 $195 $277 forward @7 unknown #
point $-1 -1 $-1 -236.2361439629644622 -10.69999999999999929 -161.2993162266329819 #
coedge $-1 -1 $-1 $244 $244 $245 $278 reversed $199 0 $-1 #
coedge $-1 -1 $-1 $245 $245 $244 $278 forward $202 0 $-1 #
DXID-attrib $-1 -1 $-1 $-1 $204 @10 ASM ENTITY @2 13 #
plane-surface $-1 -1 $-1 -226.2361439629644622 -13.69999999999999574 -161.2993162266329819 -0 -0 -1 0 -10 0 forward_v I I I I #
coedge $-1 -1 $-1 $279 $217 $280 $281 reversed $205 0 $-1 #
coedge $-1 -1 $-1 $231 $280 $207 $250 reversed $187 0 $-1 #
edge $-1 -1 $-1 $251 -1.844340943664299459 $261 -0 $249 $282 forward @7 unknown #
vertex $-1 -1 $-1 $234 0 $283 #
ellipse-curve $-1 -1 $-1 -223.5361439629644735 -81.26457127373521416 -136.2993162266329819 -1 -0 -0 0 2.999999999999998224 0 1 I I #
point $-1 -1 $-1 -223.5361439629644735 -78.69999999999998863 -134.7427256632759622 #
coedge $-1 -1 $-1 $223 $235 $213 $255 forward $161 0 $-1 #
edge $-1 -1 $-1 $256 -1.570796326794896558 $227 -0 $213 $284 forward @7 unknown #
vertex $-1 -1 $-1 $214 0 $285 #
straight-curve $-1 -1 $-1 -226.2361439629644622 -78.69999999999998863 -116.2993162266329819 10 0 0 I I #
DXID-attrib $-1 -1 $-1 $-1 $215 @10 ASM ENTITY @2 15 #
cone-surface $-1 -1 $-1 -226.2361439629644622 -73.70000000000001705 -116.2993162266329819 -1 0 0 0 0 4.999999999999982236 1 I I 0 1 4.999999999999982236 forward I I I I #
coedge $-1 -1 $-1 $217 $279 $219 $263 forward $205 0 $-1 #
vertex $-1 -1 $-1 $281 1 $286 #
ellipse-curve $-1 -1 $-1 -223.5361439629644735 -73.70000000000001705 -156.2993162266330103 1 0 0 0 -4.999999999999982236 0 1 I I #
edge $-1 -1 $-1 $276 -1 $220 0.2699999999999995737 $260 $287 forward @7 tangent #
point $-1 -1 $-1 -223.5361439629644735 -73.70000000000001705 -161.2993162266329819 #
straight-curve $-1 -1 $-1 -236.2361439629644622 -73.70000000000001705 -111.2993162266329961 0 10 0 I I #
point $-1 -1 $-1 -236.2361439629644622 -10.69999999999999929 -111.2993162266329961 #
point $-1 -1 $-1 -236.2361439629644622 -73.70000000000001705 -111.2993162266329961 #
coedge $-1 -1 $-1 $280 $231 $236 $273 reversed $187 0 $-1 #
edge $-1 -1 $-1 $238 2.155659056335704093 $256 4.000000000000003553 $232 $288 forward @7 unknown #
straight-curve $-1 -1 $-1 -226.2361439629644622 -78.69999999999998863 -134.7427256632759622 10 0 0 I I #
straight-curve $-1 -1 $-1 -226.2361439629644622 -78.69999999999998863 -137.8559067899900299 -10 0 0 I I #
coedge $-1 -1 $-1 $236 $240 $279 $289 forward $161 0 $-1 #
edge $-1 -1 $-1 $290 0 $237 1.844340943664299459 $268 $288 forward @7 unknown #
point $-1 -1 $-1 -236.2361439629644622 -78.69999999999998863 -137.8559067899900299 #
point $-1 -1 $-1 -236.2361439629644622 -78.69999999999998863 -134.7427256632759622 #
vertex $-1 -1 $-1 $263 0 $291 #
straight-curve $-1 -1 $-1 -236.2361439629644622 -13.69999999999999574 -161.2993162266329819 0 10 0 I I #
edge $-1 -1 $-1 $292 -3.141592653589793116 $292 3.141592653589793116 $245 $293 forward @7 unknown #
coedge $-1 -1 $-1 $260 $248 $272 $289 reversed $205 0 $-1 #
coedge $-1 -1 $-1 $249 $268 $248 $281 forward $187 0 $-1 #
edge $-1 -1 $-1 $290 -1 $261 0.2699999999999995737 $280 $294 forward @7 tangent #
straight-curve $-1 -1 $-1 -223.5361439629644735 -78.69999999999998863 -156.2993162266330103 -0 -0 -10 I I #
point $-1 -1 $-1 -223.5361439629644735 -78.69999999999998863 -137.8559067899900299 #
ellipse-curve $-1 -1 $-1 -236.2361439629644622 -73.70000000000001705 -116.2993162266329819 -1 -0 -0 0 0 4.999999999999982236 1 I I #
point $-1 -1 $-1 -236.2361439629644622 -78.69999999999998863 -116.2993162266329819 #
point $-1 -1 $-1 -223.5361439629644735 -78.69999999999998863 -156.2993162266330103 #
straight-curve $-1 -1 $-1 -226.2361439629644622 -73.70000000000001705 -161.2993162266329819 10 0 0 I I #
straight-curve $-1 -1 $-1 -236.2361439629644622 -78.69999999999998863 -156.2993162266330103 0 0 10 I I #
edge $-1 -1 $-1 $276 -1.570796326794896558 $290 -0 $279 $295 forward @7 unknown #
vertex $-1 -1 $-1 $281 0 $296 #
point $-1 -1 $-1 -236.2361439629644622 -73.70000000000001705 -161.2993162266329819 #
vertex $-1 -1 $-1 $278 0 $297 #
ellipse-curve $-1 -1 $-1 -236.2361439629644622 -38.64616347224890802 -136.3568826525512918 1 0 0 0 3.000000000000007105 0 1 I I #
straight-curve $-1 -1 $-1 -226.2361439629644622 -78.69999999999998863 -156.2993162266330103 10 0 0 I I #
ellipse-curve $-1 -1 $-1 -236.2361439629644622 -73.70000000000001705 -156.2993162266330103 -1 -0 -0 0 -4.999999999999982236 0 1 I I #
point $-1 -1 $-1 -236.2361439629644622 -78.69999999999998863 -156.2993162266330103 #
point $-1 -1 $-1 -236.2361439629644622 -41.64616347224891513 -136.3568826525512918 #
End-of-ASM-data 