  0
SECTION
  2
HEADER
  9
$ACADVER
  1
AC1009
  9
$DWGCODEPAGE
  3
ansi_1252
  9
$INSBASE
 10
0.0
 20
0.0
 30
0.0
  9
$EXTMIN
 10
-87.6982226689103
 20
-183.9999999999973
 30
0.0
  9
$EXTMAX
 10
28.13944859909135
 20
195.5484949772328
 30
0.0
  9
$LIMMIN
 10
0.0
 20
0.0
  9
$LIMMAX
 10
12.0
 20
9.0
  9
$ORTHOMODE
 70
     0
  9
$REGENMODE
 70
     1
  9
$FILLMODE
 70
     1
  9
$QTEXTMODE
 70
     0
  9
$MIRRTEXT
 70
     1
  9
$DRAGMODE
 70
     2
  9
$LTSCALE
 40
1.0
  9
$OSMODE
 70
    37
  9
$ATTMODE
 70
     1
  9
$TEXTSIZE
 40
0.2
  9
$TRACEWID
 40
0.05
  9
$TEXTSTYLE
  7
STANDARD
  9
$CLAYER
  8
0
  9
$CELTYPE
  6
BYLAYER
  9
$CECOLOR
 62
   256
  9
$DIMSCALE
 40
1.0
  9
$DIMASZ
 40
0.18
  9
$DIMEXO
 40
0.0625
  9
$DIMDLI
 40
0.38
  9
$DIMRND
 40
0.0
  9
$DIMDLE
 40
0.0
  9
$DIMEXE
 40
0.18
  9
$DIMTP
 40
0.0
  9
$DIMTM
 40
0.0
  9
$DIMTXT
 40
0.18
  9
$DIMCEN
 40
0.09
  9
$DIMTSZ
 40
0.0
  9
$DIMTOL
 70
     0
  9
$DIMLIM
 70
     0
  9
$DIMTIH
 70
     1
  9
$DIMTOH
 70
     1
  9
$DIMSE1
 70
     0
  9
$DIMSE2
 70
     0
  9
$DIMTAD
 70
     0
  9
$DIMZIN
 70
     0
  9
$DIMBLK
  1

  9
$DIMASO
 70
     1
  9
$DIMSHO
 70
     1
  9
$DIMPOST
  1

  9
$DIMAPOST
  1

  9
$DIMALT
 70
     0
  9
$DIMALTD
 70
     2
  9
$DIMALTF
 40
25.4
  9
$DIMLFAC
 40
1.0
  9
$DIMTOFL
 70
     0
  9
$DIMTVP
 40
0.0
  9
$DIMTIX
 70
     0
  9
$DIMSOXD
 70
     0
  9
$DIMSAH
 70
     0
  9
$DIMBLK1
  1

  9
$DIMBLK2
  1

  9
$DIMSTYLE
  2
STANDARD
  9
$DIMCLRD
 70
     0
  9
$DIMCLRE
 70
     0
  9
$DIMCLRT
 70
     0
  9
$DIMTFAC
 40
1.0
  9
$DIMGAP
 40
0.09
  9
$LUNITS
 70
     2
  9
$LUPREC
 70
     4
  9
$SKETCHINC
 40
0.1
  9
$FILLETRAD
 40
0.0
  9
$AUNITS
 70
     0
  9
$AUPREC
 70
     0
  9
$MENU
  1
.
  9
$ELEVATION
 40
0.0
  9
$PELEVATION
 40
0.0
  9
$THICKNESS
 40
0.0
  9
$LIMCHECK
 70
     0
  9
$CHAMFERA
 40
0.0
  9
$CHAMFERB
 40
0.0
  9
$SKPOLY
 70
     0
  9
$TDCREATE
 40
2454910.5
  9
$TDUPDATE
 40
2460024.600263102
  9
$TDINDWG
 40
0.0000000116
  9
$TDUSRTIMER
 40
0.0000000116
  9
$USRTIMER
 70
     1
  9
$ANGBASE
 50
0.0
  9
$ANGDIR
 70
     0
  9
$PDMODE
 70
     0
  9
$PDSIZE
 40
0.0
  9
$PLINEWID
 40
0.0
  9
$COORDS
 70
     1
  9
$SPLFRAME
 70
     0
  9
$SPLINETYPE
 70
     6
  9
$SPLINESEGS
 70
     8
  9
$ATTDIA
 70
     0
  9
$ATTREQ
 70
     1
  9
$HANDLING
 70
     1
  9
$HANDSEED
  5
46D
  9
$SURFTAB1
 70
     6
  9
$SURFTAB2
 70
     6
  9
$SURFTYPE
 70
     6
  9
$SURFU
 70
     6
  9
$SURFV
 70
     6
  9
$UCSNAME
  2

  9
$UCSORG
 10
0.0
 20
0.0
 30
0.0
  9
$UCSXDIR
 10
1.0
 20
0.0
 30
0.0
  9
$UCSYDIR
 10
0.0
 20
1.0
 30
0.0
  9
$PUCSNAME
  2

  9
$PUCSORG
 10
0.0
 20
0.0
 30
0.0
  9
$PUCSXDIR
 10
1.0
 20
0.0
 30
0.0
  9
$PUCSYDIR
 10
0.0
 20
1.0
 30
0.0
  9
$USERI1
 70
     0
  9
$USERI2
 70
     0
  9
$USERI3
 70
     0
  9
$USERI4
 70
     0
  9
$USERI5
 70
     0
  9
$USERR1
 40
0.0
  9
$USERR2
 40
0.0
  9
$USERR3
 40
0.0
  9
$USERR4
 40
0.0
  9
$USERR5
 40
0.0
  9
$WORLDVIEW
 70
     1
  9
$SHADEDGE
 70
     3
  9
$SHADEDIF
 70
    70
  9
$TILEMODE
 70
     1
  9
$MAXACTVP
 70
    64
  9
$PLIMCHECK
 70
     0
  9
$PEXTMIN
 10
1.000000000000000E+20
 20
1.000000000000000E+20
 30
1.000000000000000E+20
  9
$PEXTMAX
 10
-1.000000000000000E+20
 20
-1.000000000000000E+20
 30
-1.000000000000000E+20
  9
$PLIMMIN
 10
0.0
 20
0.0
  9
$PLIMMAX
 10
12.0
 20
9.0
  9
$UNITMODE
 70
     0
  9
$VISRETAIN
 70
     1
  9
$PLINEGEN
 70
     0
  9
$PSLTSCALE
 70
     1
  0
ENDSEC
  0
SECTION
  2
TABLES
  0
TABLE
  2
VPORT
 70
     1
  0
VPORT
  2
*ACTIVE
 70
     0
 10
0.0
 20
0.0
 11
1.0
 21
1.0
 12
10.42990654205607
 22
4.5
 13
0.0
 23
0.0
 14
0.5
 24
0.5
 15
0.5
 25
0.5
 16
0.0
 26
0.0
 36
1.0
 17
0.0
 27
0.0
 37
0.0
 40
9.0
 41
1.972972972850329
 42
50.0
 43
0.0
 44
0.0
 50
0.0
 51
0.0
 71
     0
 72
   100
 73
     1
 74
     3
 75
     0
 76
     0
 77
     0
 78
     0
  0
ENDTAB
  0
TABLE
  2
LTYPE
 70
     2
  0
LTYPE
  2
CONTINUOUS
 70
     0
  3
Solid line
 72
    65
 73
     0
 40
0.0
  0
LTYPE
  2
CONTINUOUS2
 70
     0
  3
Solid Line
 72
    65
 73
     0
 40
0.0
  0
ENDTAB
  0
TABLE
  2
LAYER
 70
     4
  0
LAYER
  2
0
 70
     0
 62
     7
  6
CONTINUOUS
  0
LAYER
  2
LAYER_1
 70
     0
 62
     7
  6
CONTINUOUS
  0
LAYER
  2
LAYER0
 70
     0
 62
    13
  6
CONTINUOUS
  0
LAYER
  2
DIMENSIONS
 70
     0
 62
   253
  6
CONTINUOUS
  0
ENDTAB
  0
TABLE
  2
STYLE
 70
     1
  0
STYLE
  2
STANDARD
 70
     0
 40
0.0
 41
1.0
 50
0.0
 71
     0
 42
0.2
  3
txt
  4

  0
ENDTAB
  0
TABLE
  2
VIEW
 70
     0
  0
ENDTAB
  0
TABLE
  2
UCS
 70
     0
  0
ENDTAB
  0
TABLE
  2
APPID
 70
     1
  0
APPID
  2
ACAD
 70
     0
  0
ENDTAB
  0
TABLE
  2
DIMSTYLE
 70
     1
  0
DIMSTYLE
  2
STANDARD
 70
     0
  3

  4

  5

  6

  7

 40
1.0
 41
0.18
 42
0.0625
 43
0.38
 44
0.18
 45
0.0
 46
0.0
 47
0.0
 48
0.0
140
0.18
141
0.09
142
0.0
143
25.4
144
1.0
145
0.0
146
1.0
147
0.09
 71
     0
 72
     0
 73
     1
 74
     1
 75
     0
 76
     0
 77
     0
 78
     0
170
     0
171
     2
172
     0
173
     0
174
     0
175
     0
176
     0
177
     0
178
     0
  0
ENDTAB
  0
ENDSEC
  0
SECTION
  2
BLOCKS
  0
BLOCK
  8
0
  2
$MODEL_SPACE
 70
     0
 10
0.0
 20
0.0
 30
0.0
  3
$MODEL_SPACE
  1

  0
ENDBLK
  5
21
  8
0
  0
BLOCK
 67
     1
  8
0
  2
$PAPER_SPACE
 70
     0
 10
0.0
 20
0.0
 30
0.0
  3
$PAPER_SPACE
  1

  0
ENDBLK
  5
1D
 67
     1
  8
0
  0
ENDSEC
  0
SECTION
  2
ENTITIES
  0
POLYLINE
  5
60
  8
LAYER_1
 66
     1
 10
0.0
 20
0.0
 30
0.0
 70
     1
  0
VERTEX
  5
A5
  8
LAYER_1
 10
-0.3605514009086548
 20
-78.94262596756582
 30
0.0
  0
VERTEX
  5
A6
  8
LAYER_1
 10
28.13944859909135
 20
-78.94262596756582
 30
0.0
  0
VERTEX
  5
A7
  8
LAYER_1
 10
28.13944859909135
 20
-60.94262596756582
 30
0.0
  0
VERTEX
  5
A8
  8
LAYER_1
 10
-0.3605514009086548
 20
-60.94262596756582
 30
0.0
  0
SEQEND
  5
431
  8
LAYER_1
  0
POLYLINE
  5
61
  8
LAYER_1
 66
     1
 10
0.0
 20
0.0
 30
0.0
 70
     1
  0
VERTEX
  5
A9
  8
LAYER_1
 10
-0.3609999999999971
 20
-60.94300000000001
 30
0.0
 42
0.4142135623730951
  0
VERTEX
  5
AA
  8
LAYER_1
 10
-9.360999999999997
 20
-69.94300000000001
 30
0.0
 42
0.4142135623730951
  0
VERTEX
  5
AB
  8
LAYER_1
 10
-0.3609999999999971
 20
-78.94300000000001
 30
0.0
 42
0.4142135623730951
  0
VERTEX
  5
AC
  8
LAYER_1
 10
8.639000000000003
 20
-69.94300000000001
 30
0.0
 42
0.4142135623730951
  0
SEQEND
  5
432
  8
LAYER_1
  0
POLYLINE
  5
62
  8
LAYER_1
 66
     1
 10
0.0
 20
0.0
 30
0.0
 70
     1
  0
VERTEX
  5
AD
  8
LAYER_1
 10
-0.2019999999999982
 20
-152.804
 30
0.0
 42
0.4142135623730951
  0
VERTEX
  5
AE
  8
LAYER_1
 10
-3.451999999999995
 20
-156.054
 30
0.0
 42
0.4142135623730951
  0
VERTEX
  5
AF
  8
LAYER_1
 10
-0.2019999999999982
 20
-159.304
 30
0.0
 42
0.4142135623730951
  0
VERTEX
  5
B0
  8
LAYER_1
 10
3.048000000000002
 20
-156.054
 30
0.0
 42
0.4142135623730951
  0
SEQEND
  5
433
  8
LAYER_1
  0
POLYLINE
  5
63
  8
LAYER_1
 66
     1
 10
0.0
 20
0.0
 30
0.0
 70
     1
  0
VERTEX
  5
B1
  8
LAYER_1
 10
-25.35529948031611
 20
58.29817572997672
 30
0.0
  0
VERTEX
  5
B2
  8
LAYER_1
 10
27.01705763250821
 20
58.29817572997672
 30
0.0
  0
VERTEX
  5
B3
  8
LAYER_1
 10
27.01705763250821
 20
70.99817572997677
 30
0.0
  0
VERTEX
  5
B4
  8
LAYER_1
 10
-25.35529948031611
 20
70.99817572997677
 30
0.0
  0
SEQEND
  5
434
  8
LAYER_1
  0
POLYLINE
  5
64
  8
LAYER_1
 66
     1
 10
0.0
 20
0.0
 30
0.0
 70
     1
  0
VERTEX
  5
B5
  8
LAYER_1
 10
-26.855
 20
58.32123243984506
 30
0.0
  0
VERTEX
  5
B6
  8
LAYER_1
 10
27.145
 20
58.32123243984506
 30
0.0
  0
VERTEX
  5
B7
  8
LAYER_1
 10
27.145
 20
71.02123243984505
 30
0.0
  0
VERTEX
  5
B8
  8
LAYER_1
 10
-26.855
 20
71.02123243984505
 30
0.0
  0
SEQEND
  5
435
  8
LAYER_1
  0
POLYLINE
  5
65
  8
LAYER_1
 66
     1
 10
0.0
 20
0.0
 30
0.0
 70
     1
  0
VERTEX
  5
B9
  8
LAYER_1
 10
-27.86613823183857
 20
162.0030865430207
 30
0.0
  0
VERTEX
  5
BA
  8
LAYER_1
 10
27.13386176816143
 20
162.0030865430207
 30
0.0
  0
VERTEX
  5
BB
  8
LAYER_1
 10
27.13386176816143
 20
182.0030865430207
 30
0.0
  0
VERTEX
  5
BC
  8
LAYER_1
 10
-27.86613823183857
 20
182.0030865430207
 30
0.0
  0
SEQEND
  5
436
  8
LAYER_1
  0
POLYLINE
  5
66
  8
LAYER_1
 66
     1
 10
0.0
 20
0.0
 30
0.0
  0
VERTEX
  5
BD
  8
LAYER_1
 10
3.139000000000031
 20
-68.94299999999973
 30
0.0
  0
VERTEX
  5
BE
  8
LAYER_1
 10
3.139000000000031
 20
-71.05124350823462
 30
0.0
  0
SEQEND
  5
437
  8
LAYER_1
  0
POLYLINE
  5
67
  8
LAYER_1
 66
     1
 10
0.0
 20
0.0
 30
0.0
 70
     1
  0
VERTEX
  5
BF
  8
LAYER_1
 10
3.139000000000031
 20
-68.94299999999973
 30
0.0
  0
VERTEX
  5
C0
  8
LAYER_1
 10
3.134445821718474
 20
-68.76289046422801
 30
0.0
  0
VERTEX
  5
C1
  8
LAYER_1
 10
3.120929894555292
 20
-68.5851453316708
 30
0.0
  0
VERTEX
  5
C2
  8
LAYER_1
 10
3.098672130032725
 20
-68.40998451385035
 30
0.0
  0
VERTEX
  5
C3
  8
LAYER_1
 10
3.067892439673007
 20
-68.2376279222889
 30
0.0
  0
VERTEX
  5
C4
  8
LAYER_1
 10
3.028810734998377
 20
-68.06829546850867
 30
0.0
  0
VERTEX
  5
C5
  8
LAYER_1
 10
2.98164692753107
 20
-67.9022070640319
 30
0.0
  0
VERTEX
  5
C6
  8
LAYER_1
 10
2.926620928793324
 20
-67.73958262038082
 30
0.0
  0
VERTEX
  5
C7
  8
LAYER_1
 10
2.863952650307377
 20
-67.58064204907768
 30
0.0
  0
VERTEX
  5
C8
  8
LAYER_1
 10
2.793862003595464
 20
-67.42560526164472
 30
0.0
  0
VERTEX
  5
C9
  8
LAYER_1
 10
2.716568900179823
 20
-67.27469216960418
 30
0.0
  0
VERTEX
  5
CA
  8
LAYER_1
 10
2.63229325158269
 20
-67.12812268447829
 30
0.0
  0
VERTEX
  5
CB
  8
LAYER_1
 10
2.541254969326304
 20
-66.98611671778926
 30
0.0
  0
VERTEX
  5
CC
  8
LAYER_1
 10
2.4436739649329
 20
-66.84889418105936
 30
0.0
  0
VERTEX
  5
CD
  8
LAYER_1
 10
2.339770149924715
 20
-66.71667498581084
 30
0.0
  0
VERTEX
  5
CE
  8
LAYER_1
 10
2.229763435823987
 20
-66.5896790435659
 30
0.0
  0
VERTEX
  5
CF
  8
LAYER_1
 10
2.113873734152953
 20
-66.4681262658468
 30
0.0
  0
VERTEX
  5
D0
  8
LAYER_1
 10
1.992320956433848
 20
-66.3522365641758
 30
0.0
  0
VERTEX
  5
D1
  8
LAYER_1
 10
1.865325014188911
 20
-66.24222985007506
 30
0.0
  0
VERTEX
  5
D2
  8
LAYER_1
 10
1.733105818940378
 20
-66.13832603506687
 30
0.0
  0
VERTEX
  5
D3
  8
LAYER_1
 10
1.595883282210486
 20
-66.04074503067346
 30
0.0
  0
VERTEX
  5
D4
  8
LAYER_1
 10
1.453877315521472
 20
-65.94970674841707
 30
0.0
  0
VERTEX
  5
D5
  8
LAYER_1
 10
1.307307830395573
 20
-65.86543109981994
 30
0.0
  0
VERTEX
  5
D6
  8
LAYER_1
 10
1.156394738355026
 20
-65.7881379964043
 30
0.0
  0
VERTEX
  5
D7
  8
LAYER_1
 10
1.001357950922068
 20
-65.71804734969238
 30
0.0
  0
VERTEX
  5
D8
  8
LAYER_1
 10
0.8424173796189351
 20
-65.65537907120644
 30
0.0
  0
VERTEX
  5
D9
  8
LAYER_1
 10
0.6797929359678652
 20
-65.60035307246869
 30
0.0
  0
VERTEX
  5
DA
  8
LAYER_1
 10
0.5137045314910951
 20
-65.55318926500138
 30
0.0
  0
VERTEX
  5
DB
  8
LAYER_1
 10
0.3443720777108615
 20
-65.51410756032675
 30
0.0
  0
VERTEX
  5
DC
  8
LAYER_1
 10
0.1720154861494014
 20
-65.48332786996704
 30
0.0
  0
VERTEX
  5
DD
  8
LAYER_1
 10
-0.0031453316710483
 20
-65.46107010544446
 30
0.0
  0
VERTEX
  5
DE
  8
LAYER_1
 10
-0.1808904642282506
 20
-65.44755417828128
 30
0.0
  0
VERTEX
  5
DF
  8
LAYER_1
 10
-0.3609999999999687
 20
-65.44299999999973
 30
0.0
  0
VERTEX
  5
E0
  8
LAYER_1
 10
-0.5411095357716869
 20
-65.44755417828128
 30
0.0
  0
VERTEX
  5
E1
  8
LAYER_1
 10
-0.7188546683288892
 20
-65.46107010544446
 30
0.0
  0
VERTEX
  5
E2
  8
LAYER_1
 10
-0.894015486149339
 20
-65.48332786996704
 30
0.0
  0
VERTEX
  5
E3
  8
LAYER_1
 10
-1.066372077710799
 20
-65.51410756032675
 30
0.0
  0
VERTEX
  5
E4
  8
LAYER_1
 10
-1.235704531491033
 20
-65.55318926500138
 30
0.0
  0
VERTEX
  5
E5
  8
LAYER_1
 10
-1.401792935967803
 20
-65.60035307246869
 30
0.0
  0
VERTEX
  5
E6
  8
LAYER_1
 10
-1.564417379618873
 20
-65.65537907120644
 30
0.0
  0
VERTEX
  5
E7
  8
LAYER_1
 10
-1.723357950922005
 20
-65.71804734969238
 30
0.0
  0
VERTEX
  5
E8
  8
LAYER_1
 10
-1.878394738354964
 20
-65.7881379964043
 30
0.0
  0
VERTEX
  5
E9
  8
LAYER_1
 10
-2.02930783039551
 20
-65.86543109981994
 30
0.0
  0
VERTEX
  5
EA
  8
LAYER_1
 10
-2.175877315521409
 20
-65.94970674841707
 30
0.0
  0
VERTEX
  5
EB
  8
LAYER_1
 10
-2.317883282210423
 20
-66.04074503067346
 30
0.0
  0
VERTEX
  5
EC
  8
LAYER_1
 10
-2.455105818940315
 20
-66.13832603506687
 30
0.0
  0
VERTEX
  5
ED
  8
LAYER_1
 10
-2.587325014188848
 20
-66.24222985007506
 30
0.0
  0
VERTEX
  5
EE
  8
LAYER_1
 10
-2.714320956433785
 20
-66.3522365641758
 30
0.0
  0
VERTEX
  5
EF
  8
LAYER_1
 10
-2.83587373415289
 20
-66.4681262658468
 30
0.0
  0
VERTEX
  5
F0
  8
LAYER_1
 10
-2.951763435823925
 20
-66.5896790435659
 30
0.0
  0
VERTEX
  5
F1
  8
LAYER_1
 10
-3.061770149924653
 20
-66.71667498581084
 30
0.0
  0
VERTEX
  5
F2
  8
LAYER_1
 10
-3.165673964932838
 20
-66.84889418105936
 30
0.0
  0
VERTEX
  5
F3
  8
LAYER_1
 10
-3.263254969326241
 20
-66.98611671778926
 30
0.0
  0
VERTEX
  5
F4
  8
LAYER_1
 10
-3.354293251582628
 20
-67.12812268447829
 30
0.0
  0
VERTEX
  5
F5
  8
LAYER_1
 10
-3.438568900179761
 20
-67.27469216960418
 30
0.0
  0
VERTEX
  5
F6
  8
LAYER_1
 10
-3.515862003595402
 20
-67.42560526164472
 30
0.0
  0
VERTEX
  5
F7
  8
LAYER_1
 10
-3.585952650307314
 20
-67.58064204907768
 30
0.0
  0
VERTEX
  5
F8
  8
LAYER_1
 10
-3.648620928793262
 20
-67.73958262038082
 30
0.0
  0
VERTEX
  5
F9
  8
LAYER_1
 10
-3.703646927531008
 20
-67.9022070640319
 30
0.0
  0
VERTEX
  5
FA
  8
LAYER_1
 10
-3.750810734998314
 20
-68.06829546850867
 30
0.0
  0
VERTEX
  5
FB
  8
LAYER_1
 10
-3.789892439672944
 20
-68.2376279222889
 30
0.0
  0
VERTEX
  5
FC
  8
LAYER_1
 10
-3.820672130032662
 20
-68.40998451385035
 30
0.0
  0
VERTEX
  5
FD
  8
LAYER_1
 10
-3.84292989455523
 20
-68.5851453316708
 30
0.0
  0
VERTEX
  5
FE
  8
LAYER_1
 10
-3.856445821718411
 20
-68.76289046422801
 30
0.0
  0
VERTEX
  5
FF
  8
LAYER_1
 10
-3.860999999999969
 20
-68.94299999999973
 30
0.0
  0
VERTEX
  5
100
  8
LAYER_1
 10
-3.860999999999969
 20
-70.94299999999973
 30
0.0
  0
VERTEX
  5
101
  8
LAYER_1
 10
-3.856445821718411
 20
-71.12310953577145
 30
0.0
  0
VERTEX
  5
102
  8
LAYER_1
 10
-3.84292989455523
 20
-71.30085466832865
 30
0.0
  0
VERTEX
  5
103
  8
LAYER_1
 10
-3.820672130032662
 20
-71.47601548614911
 30
0.0
  0
VERTEX
  5
104
  8
LAYER_1
 10
-3.789892439672944
 20
-71.64837207771056
 30
0.0
  0
VERTEX
  5
105
  8
LAYER_1
 10
-3.750810734998314
 20
-71.81770453149079
 30
0.0
  0
VERTEX
  5
106
  8
LAYER_1
 10
-3.703646927531008
 20
-71.98379293596756
 30
0.0
  0
VERTEX
  5
107
  8
LAYER_1
 10
-3.648620928793262
 20
-72.14641737961864
 30
0.0
  0
VERTEX
  5
108
  8
LAYER_1
 10
-3.585952650307314
 20
-72.30535795092177
 30
0.0
  0
VERTEX
  5
109
  8
LAYER_1
 10
-3.515862003595402
 20
-72.46039473835474
 30
0.0
  0
VERTEX
  5
10A
  8
LAYER_1
 10
-3.438568900179761
 20
-72.61130783039528
 30
0.0
  0
VERTEX
  5
10B
  8
LAYER_1
 10
-3.354293251582628
 20
-72.75787731552117
 30
0.0
  0
VERTEX
  5
10C
  8
LAYER_1
 10
-3.263254969326241
 20
-72.8998832822102
 30
0.0
  0
VERTEX
  5
10D
  8
LAYER_1
 10
-3.165673964932838
 20
-73.03710581894009
 30
0.0
  0
VERTEX
  5
10E
  8
LAYER_1
 10
-3.061770149924653
 20
-73.16932501418862
 30
0.0
  0
VERTEX
  5
10F
  8
LAYER_1
 10
-2.951763435823925
 20
-73.29632095643356
 30
0.0
  0
VERTEX
  5
110
  8
LAYER_1
 10
-2.83587373415289
 20
-73.41787373415265
 30
0.0
  0
VERTEX
  5
111
  8
LAYER_1
 10
-2.714320956433785
 20
-73.53376343582366
 30
0.0
  0
VERTEX
  5
112
  8
LAYER_1
 10
-2.587325014188848
 20
-73.64377014992439
 30
0.0
  0
VERTEX
  5
113
  8
LAYER_1
 10
-2.455105818940315
 20
-73.74767396493259
 30
0.0
  0
VERTEX
  5
114
  8
LAYER_1
 10
-2.317883282210423
 20
-73.84525496932599
 30
0.0
  0
VERTEX
  5
115
  8
LAYER_1
 10
-2.175877315521409
 20
-73.93629325158238
 30
0.0
  0
VERTEX
  5
116
  8
LAYER_1
 10
-2.02930783039551
 20
-74.02056890017951
 30
0.0
  0
VERTEX
  5
117
  8
LAYER_1
 10
-1.878394738354964
 20
-74.09786200359515
 30
0.0
  0
VERTEX
  5
118
  8
LAYER_1
 10
-1.723357950922005
 20
-74.16795265030707
 30
0.0
  0
VERTEX
  5
119
  8
LAYER_1
 10
-1.564417379618873
 20
-74.23062092879302
 30
0.0
  0
VERTEX
  5
11A
  8
LAYER_1
 10
-1.401792935967803
 20
-74.28564692753076
 30
0.0
  0
VERTEX
  5
11B
  8
LAYER_1
 10
-1.235704531491033
 20
-74.33281073499808
 30
0.0
  0
VERTEX
  5
11C
  8
LAYER_1
 10
-1.066372077710799
 20
-74.3718924396727
 30
0.0
  0
VERTEX
  5
11D
  8
LAYER_1
 10
-0.894015486149339
 20
-74.40267213003241
 30
0.0
  0
VERTEX
  5
11E
  8
LAYER_1
 10
-0.7188546683288892
 20
-74.42492989455499
 30
0.0
  0
VERTEX
  5
11F
  8
LAYER_1
 10
-0.5411095357716869
 20
-74.43844582171818
 30
0.0
  0
VERTEX
  5
120
  8
LAYER_1
 10
-0.3609999999999687
 20
-74.44299999999973
 30
0.0
  0
VERTEX
  5
121
  8
LAYER_1
 10
-0.1808904642282506
 20
-74.43844582171818
 30
0.0
  0
VERTEX
  5
122
  8
LAYER_1
 10
-0.0031453316710483
 20
-74.42492989455499
 30
0.0
  0
VERTEX
  5
123
  8
LAYER_1
 10
0.1720154861494014
 20
-74.40267213003241
 30
0.0
  0
VERTEX
  5
124
  8
LAYER_1
 10
0.3443720777108615
 20
-74.3718924396727
 30
0.0
  0
VERTEX
  5
125
  8
LAYER_1
 10
0.5137045314910951
 20
-74.33281073499808
 30
0.0
  0
VERTEX
  5
126
  8
LAYER_1
 10
0.6797929359678652
 20
-74.28564692753076
 30
0.0
  0
VERTEX
  5
127
  8
LAYER_1
 10
0.8424173796189351
 20
-74.23062092879302
 30
0.0
  0
VERTEX
  5
128
  8
LAYER_1
 10
1.001357950922068
 20
-74.16795265030707
 30
0.0
  0
VERTEX
  5
129
  8
LAYER_1
 10
1.156394738355026
 20
-74.09786200359515
 30
0.0
  0
VERTEX
  5
12A
  8
LAYER_1
 10
1.307307830395573
 20
-74.02056890017951
 30
0.0
  0
VERTEX
  5
12B
  8
LAYER_1
 10
1.453877315521472
 20
-73.93629325158238
 30
0.0
  0
VERTEX
  5
12C
  8
LAYER_1
 10
1.595883282210486
 20
-73.84525496932599
 30
0.0
  0
VERTEX
  5
12D
  8
LAYER_1
 10
1.733105818940378
 20
-73.74767396493259
 30
0.0
  0
VERTEX
  5
12E
  8
LAYER_1
 10
1.865325014188911
 20
-73.64377014992439
 30
0.0
  0
VERTEX
  5
12F
  8
LAYER_1
 10
1.992320956433848
 20
-73.53376343582366
 30
0.0
  0
VERTEX
  5
130
  8
LAYER_1
 10
2.113873734152953
 20
-73.41787373415265
 30
0.0
  0
VERTEX
  5
131
  8
LAYER_1
 10
2.229763435823987
 20
-73.29632095643356
 30
0.0
  0
VERTEX
  5
132
  8
LAYER_1
 10
2.339770149924715
 20
-73.16932501418862
 30
0.0
  0
VERTEX
  5
133
  8
LAYER_1
 10
2.4436739649329
 20
-73.03710581894009
 30
0.0
  0
VERTEX
  5
134
  8
LAYER_1
 10
2.541254969326304
 20
-72.8998832822102
 30
0.0
  0
VERTEX
  5
135
  8
LAYER_1
 10
2.63229325158269
 20
-72.75787731552117
 30
0.0
  0
VERTEX
  5
136
  8
LAYER_1
 10
2.716568900179823
 20
-72.61130783039528
 30
0.0
  0
VERTEX
  5
137
  8
LAYER_1
 10
2.793862003595464
 20
-72.46039473835474
 30
0.0
  0
VERTEX
  5
138
  8
LAYER_1
 10
2.863952650307377
 20
-72.30535795092177
 30
0.0
  0
VERTEX
  5
139
  8
LAYER_1
 10
2.926620928793324
 20
-72.14641737961864
 30
0.0
  0
VERTEX
  5
13A
  8
LAYER_1
 10
2.98164692753107
 20
-71.98379293596756
 30
0.0
  0
VERTEX
  5
13B
  8
LAYER_1
 10
3.028810734998377
 20
-71.81770453149079
 30
0.0
  0
VERTEX
  5
13C
  8
LAYER_1
 10
3.067892439673007
 20
-71.64837207771056
 30
0.0
  0
VERTEX
  5
13D
  8
LAYER_1
 10
3.098672130032725
 20
-71.47601548614911
 30
0.0
  0
VERTEX
  5
13E
  8
LAYER_1
 10
3.120929894555292
 20
-71.30085466832865
 30
0.0
  0
VERTEX
  5
13F
  8
LAYER_1
 10
3.134445821718474
 20
-71.12310953577145
 30
0.0
  0
VERTEX
  5
140
  8
LAYER_1
 10
3.139000000000031
 20
-70.94299999999973
 30
0.0
  0
SEQEND
  5
438
  8
LAYER_1
  0
POLYLINE
  5
69
  8
LAYER0
 66
     1
 10
0.0
 20
0.0
 30
0.0
 70
     1
  0
VERTEX
  5
141
  8
LAYER0
 10
-1.759509520960158
 20
-120.912330958645
 30
0.0
 42
0.4142135623730951
  0
VERTEX
  5
142
  8
LAYER0
 10
-0.2595095209595542
 20
-122.4123309586456
 30
0.0
 42
0.4142135623730951
  0
VERTEX
  5
143
  8
LAYER0
 10
1.240490479041043
 20
-120.912330958645
 30
0.0
 42
0.4142135623730951
  0
VERTEX
  5
144
  8
LAYER0
 10
-0.2595095209595542
 20
-119.4123309586444
 30
0.0
 42
0.4142135623730951
  0
SEQEND
  5
439
  8
LAYER0
  0
POLYLINE
  5
6A
  8
LAYER0
 66
     1
 10
0.0
 20
0.0
 30
0.0
 70
     1
  0
VERTEX
  5
145
  8
LAYER0
 10
-3.384509521385173
 20
-142.6249836779011
 30
0.0
 42
1.0
  0
VERTEX
  5
146
  8
LAYER0
 10
2.86549047857217
 20
-142.6249999999973
 30
0.0
  0
VERTEX
  5
147
  8
LAYER0
 10
2.865490478572113
 20
-137.8749999999973
 30
0.0
 42
1.0
  0
VERTEX
  5
148
  8
LAYER0
 10
-3.384509520858092
 20
-137.8749999999973
 30
0.0
  0
SEQEND
  5
43A
  8
LAYER0
  0
POLYLINE
  5
6B
  8
LAYER0
 66
     1
 10
0.0
 20
0.0
 30
0.0
 70
     1
  0
VERTEX
  5
149
  8
LAYER0
 10
-20.25950952142784
 20
-115.9999999999973
 30
0.0
 42
0.4142135624181715
  0
VERTEX
  5
14A
  8
LAYER0
 10
-25.25950952142783
 20
-120.9999999999973
 30
0.0
  0
VERTEX
  5
14B
  8
LAYER0
 10
-25.25950952142783
 20
-183.9999999999973
 30
0.0
  0
VERTEX
  5
14C
  8
LAYER0
 10
24.7404904785722
 20
-183.9999999999973
 30
0.0
  0
VERTEX
  5
14D
  8
LAYER0
 10
24.74049047857221
 20
-120.9999999999973
 30
0.0
 42
0.414213562606376
  0
VERTEX
  5
14E
  8
LAYER0
 10
19.74049047857221
 20
-115.9999999999973
 30
0.0
  0
VERTEX
  5
14F
  8
LAYER0
 10
1.297081041929218
 20
-115.9999999999973
 30
0.0
 42
-0.2797323431440832
  0
VERTEX
  5
150
  8
LAYER0
 10
-1.816100084784829
 20
-115.9999999999973
 30
0.0
  0
SEQEND
  5
43B
  8
LAYER0
  0
POLYLINE
  5
6C
  8
LAYER0
 66
     1
 10
0.0
 20
0.0
 30
0.0
 70
     1
  0
VERTEX
  5
151
  8
LAYER0
 10
1.24049047810454
 20
-34.80100229001252
 30
0.0
 42
-0.4142135623730951
  0
VERTEX
  5
152
  8
LAYER0
 10
-0.2595095218960637
 20
-36.30100229001312
 30
0.0
 42
-0.4142135623730951
  0
VERTEX
  5
153
  8
LAYER0
 10
-1.759509521896661
 20
-34.80100229001252
 30
0.0
 42
-0.4142135623730951
  0
VERTEX
  5
154
  8
LAYER0
 10
-0.2595095218960637
 20
-33.30100229001192
 30
0.0
 42
-0.4142135623730951
  0
SEQEND
  5
43C
  8
LAYER0
  0
POLYLINE
  5
6D
  8
LAYER0
 66
     1
 10
0.0
 20
0.0
 30
0.0
 70
     1
  0
VERTEX
  5
155
  8
LAYER0
 10
2.865490478529551
 20
-56.5136550092686
 30
0.0
 42
-1.0
  0
VERTEX
  5
156
  8
LAYER0
 10
-3.384509521427788
 20
-56.51367133136483
 30
0.0
  0
VERTEX
  5
157
  8
LAYER0
 10
-3.384509521427731
 20
-51.76367133136483
 30
0.0
 42
-1.0
  0
VERTEX
  5
158
  8
LAYER0
 10
2.865490478002471
 20
-51.76367133136483
 30
0.0
  0
SEQEND
  5
43D
  8
LAYER0
  0
POLYLINE
  5
6E
  8
LAYER0
 66
     1
 10
0.0
 20
0.0
 30
0.0
 70
     1
  0
VERTEX
  5
159
  8
LAYER0
 10
19.74049047857223
 20
-29.88867133136483
 30
0.0
 42
-0.4142135624181715
  0
VERTEX
  5
15A
  8
LAYER0
 10
24.74049047857221
 20
-34.88867133136478
 30
0.0
  0
VERTEX
  5
15B
  8
LAYER0
 10
24.74049047857221
 20
-97.88867133136483
 30
0.0
  0
VERTEX
  5
15C
  8
LAYER0
 10
-25.25950952142782
 20
-97.88867133136483
 30
0.0
  0
VERTEX
  5
15D
  8
LAYER0
 10
-25.25950952142783
 20
-34.8886713313648
 30
0.0
 42
-0.414213562606376
  0
VERTEX
  5
15E
  8
LAYER0
 10
-20.25950952142783
 20
-29.88867133136483
 30
0.0
  0
VERTEX
  5
15F
  8
LAYER0
 10
-1.816100084784836
 20
-29.88867133136483
 30
0.0
 42
0.2797323431440832
  0
VERTEX
  5
160
  8
LAYER0
 10
1.297081041929211
 20
-29.88867133136483
 30
0.0
  0
SEQEND
  5
43E
  8
LAYER0
  0
POLYLINE
  5
6F
  8
LAYER0
 66
     1
 10
0.0
 20
0.0
 30
0.0
 70
     1
  0
VERTEX
  5
161
  8
LAYER0
 10
-1.759509520960158
 20
-120.912330958645
 30
0.0
 42
0.4142135623730951
  0
VERTEX
  5
162
  8
LAYER0
 10
-0.2595095209595542
 20
-122.4123309586456
 30
0.0
 42
0.4142135623730951
  0
VERTEX
  5
163
  8
LAYER0
 10
1.240490479041043
 20
-120.912330958645
 30
0.0
 42
0.4142135623730951
  0
VERTEX
  5
164
  8
LAYER0
 10
-0.2595095209595542
 20
-119.4123309586444
 30
0.0
 42
0.4142135623730951
  0
SEQEND
  5
43F
  8
LAYER0
  0
POLYLINE
  5
70
  8
LAYER0
 66
     1
 10
0.0
 20
0.0
 30
0.0
 70
     1
  0
VERTEX
  5
165
  8
LAYER0
 10
-3.384509521385173
 20
-142.6249836779011
 30
0.0
 42
1.0
  0
VERTEX
  5
166
  8
LAYER0
 10
2.86549047857217
 20
-142.6249999999973
 30
0.0
  0
VERTEX
  5
167
  8
LAYER0
 10
2.865490478572113
 20
-137.8749999999973
 30
0.0
 42
1.0
  0
VERTEX
  5
168
  8
LAYER0
 10
-3.384509520858092
 20
-137.8749999999973
 30
0.0
  0
SEQEND
  5
440
  8
LAYER0
  0
POLYLINE
  5
71
  8
LAYER0
 66
     1
 10
0.0
 20
0.0
 30
0.0
 70
     1
  0
VERTEX
  5
169
  8
LAYER0
 10
-20.25950952142784
 20
-115.9999999999973
 30
0.0
 42
0.4142135624181715
  0
VERTEX
  5
16A
  8
LAYER0
 10
-25.25950952142783
 20
-120.9999999999973
 30
0.0
  0
VERTEX
  5
16B
  8
LAYER0
 10
-25.25950952142783
 20
-183.9999999999973
 30
0.0
  0
VERTEX
  5
16C
  8
LAYER0
 10
24.7404904785722
 20
-183.9999999999973
 30
0.0
  0
VERTEX
  5
16D
  8
LAYER0
 10
24.74049047857221
 20
-120.9999999999973
 30
0.0
 42
0.414213562606376
  0
VERTEX
  5
16E
  8
LAYER0
 10
19.74049047857221
 20
-115.9999999999973
 30
0.0
  0
VERTEX
  5
16F
  8
LAYER0
 10
1.297081041929218
 20
-115.9999999999973
 30
0.0
 42
-0.2797323431440832
  0
VERTEX
  5
170
  8
LAYER0
 10
-1.816100084784829
 20
-115.9999999999973
 30
0.0
  0
SEQEND
  5
441
  8
LAYER0
  0
POLYLINE
  5
72
  8
LAYER0
 66
     1
 10
0.0
 20
0.0
 30
0.0
 70
     1
  0
VERTEX
  5
171
  8
LAYER0
 10
-22.85529948031614
 20
-13.00182427002315
 30
0.0
 42
-0.4142135632260735
  0
VERTEX
  5
172
  8
LAYER0
 10
-25.3552994803161
 20
-10.50182427002321
 30
0.0
  0
VERTEX
  5
173
  8
LAYER0
 10
-25.35529948031613
 20
178.4981757299769
 30
0.0
 42
-0.4142135618656727
  0
VERTEX
  5
174
  8
LAYER0
 10
-22.85529948031614
 20
180.9981757299769
 30
0.0
  0
VERTEX
  5
175
  8
LAYER0
 10
22.1447005196838
 20
180.9981757299769
 30
0.0
 42
-0.4142135614686288
  0
VERTEX
  5
176
  8
LAYER0
 10
24.6447005196838
 20
178.4981757299769
 30
0.0
  0
VERTEX
  5
177
  8
LAYER0
 10
24.6447005196838
 20
-10.50182427002321
 30
0.0
 42
-0.414213562181708
  0
VERTEX
  5
178
  8
LAYER0
 10
22.1447005196838
 20
-13.00182427002315
 30
0.0
  0
SEQEND
  5
442
  8
LAYER0
  0
POLYLINE
  5
73
  8
LAYER0
 66
     1
 10
0.0
 20
0.0
 30
0.0
 70
     1
  0
VERTEX
  5
179
  8
LAYER0
 10
22.14470051968379
 20
-13.00182427002315
 30
0.0
 42
0.4142135618586669
  0
VERTEX
  5
17A
  8
LAYER0
 10
24.64470051968379
 20
-10.50182427002321
 30
0.0
  0
VERTEX
  5
17B
  8
LAYER0
 10
24.64470051968379
 20
58.29817572997672
 30
0.0
  0
VERTEX
  5
17C
  8
LAYER0
 10
-25.35529948031611
 20
58.29817572997672
 30
0.0
  0
VERTEX
  5
17D
  8
LAYER0
 10
-25.35529948031611
 20
-10.50182427002321
 30
0.0
 42
0.4142135625697082
  0
VERTEX
  5
17E
  8
LAYER0
 10
-22.85529948031614
 20
-13.00182427002315
 30
0.0
  0
SEQEND
  5
443
  8
LAYER0
  0
POLYLINE
  5
74
  8
LAYER0
 66
     1
 10
0.0
 20
0.0
 30
0.0
 70
     1
  0
VERTEX
  5
17F
  8
LAYER0
 10
15.70226694546835
 20
2.643274491077221
 30
0.0
 42
-0.4142135623730951
  0
VERTEX
  5
180
  8
LAYER0
 10
14.70226694567913
 20
1.643274491287997
 30
0.0
 42
-0.4142135623730951
  0
VERTEX
  5
181
  8
LAYER0
 10
13.7022669458899
 20
2.643274491077221
 30
0.0
 42
-0.4142135623730951
  0
VERTEX
  5
182
  8
LAYER0
 10
14.70226694567913
 20
3.643274490866446
 30
0.0
 42
-0.4142135623730951
  0
SEQEND
  5
444
  8
LAYER0
  0
POLYLINE
  5
75
  8
LAYER0
 66
     1
 10
0.0
 20
0.0
 30
0.0
 70
     1
  0
VERTEX
  5
183
  8
LAYER0
 10
-14.29773305454248
 20
2.643274491079609
 30
0.0
 42
-0.4142135623730951
  0
VERTEX
  5
184
  8
LAYER0
 10
-15.29773305433409
 20
1.643274491287997
 30
0.0
 42
-0.4142135623730951
  0
VERTEX
  5
185
  8
LAYER0
 10
-16.29773305412569
 20
2.643274491079609
 30
0.0
 42
-0.4142135623730951
  0
VERTEX
  5
186
  8
LAYER0
 10
-15.29773305433409
 20
3.643274490871221
 30
0.0
 42
-0.4142135623730951
  0
SEQEND
  5
445
  8
LAYER0
  0
POLYLINE
  5
76
  8
LAYER0
 66
     1
 10
0.0
 20
0.0
 30
0.0
 70
     1
  0
VERTEX
  5
187
  8
LAYER0
 10
14.70226694556465
 20
25.64327449128794
 30
0.0
 42
-0.4142135623730951
  0
VERTEX
  5
188
  8
LAYER0
 10
13.70226694547256
 20
26.64327449138003
 30
0.0
 42
-0.4142135623730951
  0
VERTEX
  5
189
  8
LAYER0
 10
14.70226694556465
 20
27.64327449147211
 30
0.0
 42
-0.4142135623730951
  0
VERTEX
  5
18A
  8
LAYER0
 10
15.70226694565673
 20
26.64327449138003
 30
0.0
 42
-0.4142135623730951
  0
SEQEND
  5
446
  8
LAYER0
  0
POLYLINE
  5
77
  8
LAYER0
 66
     1
 10
0.0
 20
0.0
 30
0.0
 70
     1
  0
VERTEX
  5
18B
  8
LAYER0
 10
-14.29773305433224
 20
26.64327449138395
 30
0.0
 42
-0.4142135623730951
  0
VERTEX
  5
18C
  8
LAYER0
 10
-15.29773305442825
 20
25.64327449128794
 30
0.0
 42
-0.4142135623730951
  0
VERTEX
  5
18D
  8
LAYER0
 10
-16.29773305452425
 20
26.64327449138395
 30
0.0
 42
-0.4142135623730951
  0
VERTEX
  5
18E
  8
LAYER0
 10
-15.29773305442825
 20
27.64327449147996
 30
0.0
 42
-0.4142135623730951
  0
SEQEND
  5
447
  8
LAYER0
  0
POLYLINE
  5
78
  8
LAYER0
 66
     1
 10
0.0
 20
0.0
 30
0.0
 70
     1
  0
VERTEX
  5
18F
  8
LAYER0
 10
24.64470051968379
 20
70.99817572997677
 30
0.0
  0
VERTEX
  5
190
  8
LAYER0
 10
-25.35529948031611
 20
70.99817572997677
 30
0.0
  0
VERTEX
  5
191
  8
LAYER0
 10
-25.35529948031611
 20
58.29817572997672
 30
0.0
  0
VERTEX
  5
192
  8
LAYER0
 10
24.64470051968379
 20
58.29817572997672
 30
0.0
  0
SEQEND
  5
448
  8
LAYER0
  0
POLYLINE
  5
79
  8
LAYER0
 66
     1
 10
0.0
 20
0.0
 30
0.0
 70
     1
  0
VERTEX
  5
193
  8
LAYER0
 10
-13.89608470981858
 20
64.64817572982349
 30
0.0
 42
-0.4142135623730951
  0
VERTEX
  5
194
  8
LAYER0
 10
-15.39608470966527
 20
63.14817572997686
 30
0.0
 42
-0.4142135623730951
  0
VERTEX
  5
195
  8
LAYER0
 10
-16.89608470951196
 20
64.64817572982349
 30
0.0
 42
-0.4142135623730951
  0
VERTEX
  5
196
  8
LAYER0
 10
-15.39608470966527
 20
66.14817572967024
 30
0.0
 42
-0.4142135623730951
  0
SEQEND
  5
449
  8
LAYER0
  0
POLYLINE
  5
7A
  8
LAYER0
 66
     1
 10
0.0
 20
0.0
 30
0.0
 70
     1
  0
VERTEX
  5
197
  8
LAYER0
 10
14.55515459411703
 20
63.14817572997686
 30
0.0
 42
-0.4142135623730951
  0
VERTEX
  5
198
  8
LAYER0
 10
13.05515459415349
 20
64.64817572994036
 30
0.0
 42
-0.4142135623730951
  0
VERTEX
  5
199
  8
LAYER0
 10
14.55515459411703
 20
66.14817572990398
 30
0.0
 42
-0.4142135623730951
  0
VERTEX
  5
19A
  8
LAYER0
 10
16.05515459408059
 20
64.64817572994036
 30
0.0
 42
-0.4142135623730951
  0
SEQEND
  5
44A
  8
LAYER0
  0
POLYLINE
  5
7B
  8
LAYER0
 66
     1
 10
0.0
 20
0.0
 30
0.0
 70
     1
  0
VERTEX
  5
19B
  8
LAYER0
 10
-25.35529948031611
 20
161.9981757299769
 30
0.0
  0
VERTEX
  5
19C
  8
LAYER0
 10
24.64470051968379
 20
161.9981757299769
 30
0.0
  0
VERTEX
  5
19D
  8
LAYER0
 10
24.64470051968379
 20
178.4981757299769
 30
0.0
 42
0.4142135623069213
  0
VERTEX
  5
19E
  8
LAYER0
 10
22.14470051968379
 20
180.9981757299769
 30
0.0
  0
VERTEX
  5
19F
  8
LAYER0
 10
-22.85529948031614
 20
180.9981757299769
 30
0.0
 42
0.4142135620067865
  0
VERTEX
  5
1A0
  8
LAYER0
 10
-25.35529948031613
 20
178.4981757299769
 30
0.0
  0
SEQEND
  5
44B
  8
LAYER0
  0
POLYLINE
  5
7C
  8
LAYER0
 66
     1
 10
0.0
 20
0.0
 30
0.0
 70
     1
  0
VERTEX
  5
1A1
  8
LAYER0
 10
-13.94442099609779
 20
168.3481757299907
 30
0.0
 42
-0.4142135623730951
  0
VERTEX
  5
1A2
  8
LAYER0
 10
-15.44442099611154
 20
166.8481757299769
 30
0.0
 42
-0.4142135623730951
  0
VERTEX
  5
1A3
  8
LAYER0
 10
-16.9444209961253
 20
168.3481757299907
 30
0.0
 42
-0.4142135623730951
  0
VERTEX
  5
1A4
  8
LAYER0
 10
-15.44442099611154
 20
169.8481757300044
 30
0.0
 42
-0.4142135623730951
  0
SEQEND
  5
44C
  8
LAYER0
  0
POLYLINE
  5
7D
  8
LAYER0
 66
     1
 10
0.0
 20
0.0
 30
0.0
 70
     1
  0
VERTEX
  5
1A5
  8
LAYER0
 10
16.05515459410213
 20
168.3481757299886
 30
0.0
 42
-0.4142135623730951
  0
VERTEX
  5
1A6
  8
LAYER0
 10
14.55515459409048
 20
166.8481757299769
 30
0.0
 42
-0.4142135623730951
  0
VERTEX
  5
1A7
  8
LAYER0
 10
13.05515459407877
 20
168.3481757299886
 30
0.0
 42
-0.4142135623730951
  0
VERTEX
  5
1A8
  8
LAYER0
 10
14.55515459409048
 20
169.8481757300002
 30
0.0
 42
-0.4142135623730951
  0
SEQEND
  5
44D
  8
LAYER0
  0
POLYLINE
  5
7E
  8
LAYER0
 66
     1
 10
0.0
 20
0.0
 30
0.0
 70
     1
  0
VERTEX
  5
1A9
  8
LAYER0
 10
-15.35529948032018
 20
148.4346036151521
 30
0.0
 42
-0.4142135623730951
  0
VERTEX
  5
1AA
  8
LAYER0
 10
-18.73029948032813
 20
151.8096036151601
 30
0.0
 42
-0.4142135623730951
  0
VERTEX
  5
1AB
  8
LAYER0
 10
-15.35529948032018
 20
155.184603615168
 30
0.0
 42
-0.4142135623730951
  0
VERTEX
  5
1AC
  8
LAYER0
 10
-11.98029948031223
 20
151.8096036151601
 30
0.0
 42
-0.4142135623730951
  0
SEQEND
  5
44E
  8
LAYER0
  0
POLYLINE
  5
7F
  8
LAYER0
 66
     1
 10
0.0
 20
0.0
 30
0.0
 70
     1
  0
VERTEX
  5
1AD
  8
LAYER0
 10
18.01970051968448
 20
151.9824615508955
 30
0.0
 42
-0.4142135623730951
  0
VERTEX
  5
1AE
  8
LAYER0
 10
14.6447005196809
 20
148.6074615508919
 30
0.0
 42
-0.4142135623730951
  0
VERTEX
  5
1AF
  8
LAYER0
 10
11.26970051967731
 20
151.9824615508955
 30
0.0
 42
-0.4142135623730951
  0
VERTEX
  5
1B0
  8
LAYER0
 10
14.6447005196809
 20
155.3574615508991
 30
0.0
 42
-0.4142135623730951
  0
SEQEND
  5
44F
  8
LAYER0
  0
POLYLINE
  5
80
  8
LAYER0
 66
     1
 10
0.0
 20
0.0
 30
0.0
 70
     1
  0
VERTEX
  5
1B1
  8
LAYER0
 10
-11.9802994802989
 20
80.88632941602543
 30
0.0
 42
-0.4142135623730951
  0
VERTEX
  5
1B2
  8
LAYER0
 10
-15.35529948032669
 20
77.51132941599758
 30
0.0
 42
-0.4142135623730951
  0
VERTEX
  5
1B3
  8
LAYER0
 10
-18.73029948035447
 20
80.88632941602543
 30
0.0
 42
-0.4142135623730951
  0
VERTEX
  5
1B4
  8
LAYER0
 10
-15.35529948032672
 20
84.26132941605317
 30
0.0
 42
-0.4142135623730951
  0
SEQEND
  5
450
  8
LAYER0
  0
POLYLINE
  5
81
  8
LAYER0
 66
     1
 10
0.0
 20
0.0
 30
0.0
 70
     1
  0
VERTEX
  5
1B5
  8
LAYER0
 10
14.64470051968561
 20
77.3384714802578
 30
0.0
 42
-0.4142135623730951
  0
VERTEX
  5
1B6
  8
LAYER0
 10
11.2697005196907
 20
80.71347148025279
 30
0.0
 42
-0.4142135623730951
  0
VERTEX
  5
1B7
  8
LAYER0
 10
14.64470051968561
 20
84.08847148024768
 30
0.0
 42
-0.4142135623730951
  0
VERTEX
  5
1B8
  8
LAYER0
 10
18.01970051968055
 20
80.71347148025279
 30
0.0
 42
-0.4142135623730951
  0
SEQEND
  5
451
  8
LAYER0
  0
POLYLINE
  5
82
  8
LAYER0
 66
     1
 10
0.0
 20
0.0
 30
0.0
 70
     1
  0
VERTEX
  5
1B9
  8
LAYER0
 10
12.87325063282998
 20
117.234315505715
 30
0.0
  0
VERTEX
  5
1BA
  8
LAYER0
 10
-21.65461399331559
 20
117.234315505715
 30
0.0
  0
VERTEX
  5
1BB
  8
LAYER0
 10
-21.65461399331559
 20
119.2343155355173
 30
0.0
  0
VERTEX
  5
1BC
  8
LAYER0
 10
12.87325063282998
 20
119.2343155355173
 30
0.0
  0
VERTEX
  5
1BD
  8
LAYER0
 10
5.717833104830675
 20
122.812024299517
 30
0.0
  0
VERTEX
  5
1BE
  8
LAYER0
 10
6.612260295830595
 20
124.6008786815169
 30
0.0
  0
VERTEX
  5
1BF
  8
LAYER0
 10
17.34538658782958
 20
119.2343155355173
 30
0.0
  0
VERTEX
  5
1C0
  8
LAYER0
 10
17.34538658782958
 20
117.234315505715
 30
0.0
  0
VERTEX
  5
1C1
  8
LAYER0
 10
6.612260295830595
 20
111.8677523597155
 30
0.0
  0
VERTEX
  5
1C2
  8
LAYER0
 10
5.717833104830675
 20
113.6566067417154
 30
0.0
  0
SEQEND
  5
452
  8
LAYER0
  0
POLYLINE
  5
84
  8
DIMENSIONS
 66
     1
 10
0.0
 20
0.0
 30
0.0
 70
     1
  0
VERTEX
  5
1C3
  8
DIMENSIONS
 10
-84.78155600224365
 20
195.4452501394747
 30
0.0
  0
VERTEX
  5
1C4
  8
DIMENSIONS
 10
-85.06916662171267
 20
194.8184064816576
 30
0.0
  0
VERTEX
  5
1C5
  8
DIMENSIONS
 10
-86.57359140047373
 20
194.8184064816576
 30
0.0
  0
VERTEX
  5
1C6
  8
DIMENSIONS
 10
-86.90176249191916
 20
194.1473150362299
 30
0.0
  0
VERTEX
  5
1C7
  8
DIMENSIONS
 10
-86.66381540489851
 20
194.1045076062889
 30
0.0
  0
VERTEX
  5
1C8
  8
DIMENSIONS
 10
-86.43854346537049
 20
194.0479879713331
 30
0.0
  0
VERTEX
  5
1C9
  8
DIMENSIONS
 10
-86.22594667333509
 20
193.9777561313626
 30
0.0
  0
VERTEX
  5
1CA
  8
DIMENSIONS
 10
-86.0260250287923
 20
193.8938120863774
 30
0.0
  0
VERTEX
  5
1CB
  8
DIMENSIONS
 10
-85.83877853174216
 20
193.7961558363774
 30
0.0
  0
VERTEX
  5
1CC
  8
DIMENSIONS
 10
-85.66420718218464
 20
193.6847873813626
 30
0.0
  0
VERTEX
  5
1CD
  8
DIMENSIONS
 10
-85.50231098011974
 20
193.5597067213331
 30
0.0
  0
VERTEX
  5
1CE
  8
DIMENSIONS
 10
-85.35308992554748
 20
193.4209138562888
 30
0.0
  0
VERTEX
  5
1CF
  8
DIMENSIONS
 10
-85.23814938351208
 20
193.2927796379998
 30
0.0
  0
VERTEX
  5
1D0
  8
DIMENSIONS
 10
-85.13853424708141
 20
193.1591144462593
 30
0.0
  0
VERTEX
  5
1D1
  8
DIMENSIONS
 10
-85.05424451625544
 20
193.0199182810676
 30
0.0
  0
VERTEX
  5
1D2
  8
DIMENSIONS
 10
-84.9852801910342
 20
192.8751911424245
 30
0.0
  0
VERTEX
  5
1D3
  8
DIMENSIONS
 10
-84.93164127141767
 20
192.7249330303302
 30
0.0
  0
VERTEX
  5
1D4
  8
DIMENSIONS
 10
-84.89332775740588
 20
192.5691439447844
 30
0.0
  0
VERTEX
  5
1D5
  8
DIMENSIONS
 10
-84.8703396489988
 20
192.4078238857874
 30
0.0
  0
VERTEX
  5
1D6
  8
DIMENSIONS
 10
-84.86267694619644
 20
192.240972853339
 30
0.0
  0
VERTEX
  5
1D7
  8
DIMENSIONS
 10
-84.87270183557698
 20
192.0473887825425
 30
0.0
  0
VERTEX
  5
1D8
  8
DIMENSIONS
 10
-84.90277650371857
 20
191.8611793430145
 30
0.0
  0
VERTEX
  5
1D9
  8
DIMENSIONS
 10
-84.95290095062123
 20
191.6823445347549
 30
0.0
  0
VERTEX
  5
1DA
  8
DIMENSIONS
 10
-85.02307517628493
 20
191.5108843577638
 30
0.0
  0
VERTEX
  5
1DB
  8
DIMENSIONS
 10
-85.1084595789398
 20
191.3493338415396
 30
0.0
  0
VERTEX
  5
1DC
  8
DIMENSIONS
 10
-85.20421455681591
 20
191.2002280155809
 30
0.0
  0
VERTEX
  5
1DD
  8
DIMENSIONS
 10
-85.31034010991326
 20
191.0635668798877
 30
0.0
  0
VERTEX
  5
1DE
  8
DIMENSIONS
 10
-85.42683623823184
 20
190.93935043446
 30
0.0
  0
VERTEX
  5
1DF
  8
DIMENSIONS
 10
-85.55197451256812
 20
190.8271177648434
 30
0.0
  0
VERTEX
  5
1E0
  8
DIMENSIONS
 10
-85.68402650371857
 20
190.7264079565838
 30
0.0
  0
VERTEX
  5
1E1
  8
DIMENSIONS
 10
-85.82299221168317
 20
190.6372210096812
 30
0.0
  0
VERTEX
  5
1E2
  8
DIMENSIONS
 10
-85.96887163646193
 20
190.5595569241354
 30
0.0
  0
VERTEX
  5
1E3
  8
DIMENSIONS
 10
-86.1822750287923
 20
190.4708308916871
 30
0.0
  0
VERTEX
  5
1E4
  8
DIMENSIONS
 10
-86.39844390784836
 20
190.407455154224
 30
0.0
  0
VERTEX
  5
1E5
  8
DIMENSIONS
 10
-86.61737827363007
 20
190.3694297117461
 30
0.0
  0
VERTEX
  5
1E6
  8
DIMENSIONS
 10
-86.83907812613745
 20
190.3567545642535
 30
0.0
  0
VERTEX
  5
1E7
  8
DIMENSIONS
 10
-87.04867897422005
 20
190.3663185391797
 30
0.0
  0
VERTEX
  5
1E8
  8
DIMENSIONS
 10
-87.2276290110932
 20
190.3950104639585
 30
0.0
  0
VERTEX
  5
1E9
  8
DIMENSIONS
 10
-87.37592823675692
 20
190.4428303385897
 30
0.0
  0
VERTEX
  5
1EA
  8
DIMENSIONS
 10
-87.43858379538524
 20
190.4739132571001
 30
0.0
  0
VERTEX
  5
1EB
  8
DIMENSIONS
 10
-87.4935766512112
 20
190.5097781630735
 30
0.0
  0
VERTEX
  5
1EC
  8
DIMENSIONS
 10
-87.58310928395454
 20
190.5882488489142
 30
0.0
  0
VERTEX
  5
1ED
  8
DIMENSIONS
 10
-87.64706116448552
 20
190.6706373076163
 30
0.0
  0
VERTEX
  5
1EE
  8
DIMENSIONS
 10
-87.68543229280411
 20
190.7569435391797
 30
0.0
  0
VERTEX
  5
1EF
  8
DIMENSIONS
 10
-87.6982226689103
 20
190.8471675436045
 30
0.0
  0
VERTEX
  5
1F0
  8
DIMENSIONS
 10
-87.69292215268611
 20
190.8972919905071
 30
0.0
  0
VERTEX
  5
1F1
  8
DIMENSIONS
 10
-87.67702060401355
 20
190.944420493457
 30
0.0
  0
VERTEX
  5
1F2
  8
DIMENSIONS
 10
-87.6505180228926
 20
190.9885530524541
 30
0.0
  0
VERTEX
  5
1F3
  8
DIMENSIONS
 10
-87.61341440932328
 20
191.0296896674983
 30
0.0
  0
VERTEX
  5
1F4
  8
DIMENSIONS
 10
-87.56824479280411
 20
191.0643734801827
 30
0.0
  0
VERTEX
  5
1F5
  8
DIMENSIONS
 10
-87.5175442028336
 20
191.0891476321001
 30
0.0
  0
VERTEX
  5
1F6
  8
DIMENSIONS
 10
-87.46131263941177
 20
191.1040121232505
 30
0.0
  0
VERTEX
  5
1F7
  8
DIMENSIONS
 10
-87.39955010253863
 20
191.108966953634
 30
0.0
  0
VERTEX
  5
1F8
  8
DIMENSIONS
 10
-87.30967178395456
 20
191.1015923223655
 30
0.0
  0
VERTEX
  5
1F9
  8
DIMENSIONS
 10
-87.23177724118169
 20
191.0794684285602
 30
0.0
  0
VERTEX
  5
1FA
  8
DIMENSIONS
 10
-87.1345242913292
 20
191.0269241807726
 30
0.0
  0
VERTEX
  5
1FB
  8
DIMENSIONS
 10
-86.98657075150618
 20
190.9282884875573
 30
0.0
  0
VERTEX
  5
1FC
  8
DIMENSIONS
 10
-86.84783550076872
 20
190.8444020568788
 30
0.0
  0
VERTEX
  5
1FD
  8
DIMENSIONS
 10
-86.70817842112271
 20
190.7844831778228
 30
0.0
  0
VERTEX
  5
1FE
  8
DIMENSIONS
 10
-86.56759951256814
 20
190.7485318503892
 30
0.0
  0
VERTEX
  5
1FF
  8
DIMENSIONS
 10
-86.426098775105
 20
190.7365480745779
 30
0.0
  0
VERTEX
  5
200
  8
DIMENSIONS
 10
-86.3198868005475
 20
190.7416469407284
 30
0.0
  0
VERTEX
  5
201
  8
DIMENSIONS
 10
-86.21695884147668
 20
190.7569435391797
 30
0.0
  0
VERTEX
  5
202
  8
DIMENSIONS
 10
-86.11731489789261
 20
190.7824378699319
 30
0.0
  0
VERTEX
  5
203
  8
DIMENSIONS
 10
-86.02095496979527
 20
190.818129932985
 30
0.0
  0
VERTEX
  5
204
  8
DIMENSIONS
 10
-85.92787905718467
 20
190.864019728339
 30
0.0
  0
VERTEX
  5
205
  8
DIMENSIONS
 10
-85.83808716006075
 20
190.9201072559939
 30
0.0
  0
VERTEX
  5
206
  8
DIMENSIONS
 10
-85.7515792784236
 20
190.9863925159496
 30
0.0
  0
VERTEX
  5
207
  8
DIMENSIONS
 10
-85.66835541227314
 20
191.0628755082062
 30
0.0
  0
VERTEX
  5
208
  8
DIMENSIONS
 10
-85.5918724200165
 20
191.1466755174245
 30
0.0
  0
VERTEX
  5
209
  8
DIMENSIONS
 10
-85.52558716006075
 20
191.2349118282652
 30
0.0
  0
VERTEX
  5
20A
  8
DIMENSIONS
 10
-85.4694996324059
 20
191.3275844407284
 30
0.0
  0
VERTEX
  5
20B
  8
DIMENSIONS
 10
-85.4236098370519
 20
191.4246933548139
 30
0.0
  0
VERTEX
  5
20C
  8
DIMENSIONS
 10
-85.38791777399881
 20
191.5262385705219
 30
0.0
  0
VERTEX
  5
20D
  8
DIMENSIONS
 10
-85.3624234432466
 20
191.6322200878523
 30
0.0
  0
VERTEX
  5
20E
  8
DIMENSIONS
 10
-85.34712684479527
 20
191.742637906805
 30
0.0
  0
VERTEX
  5
20F
  8
DIMENSIONS
 10
-85.34202797864482
 20
191.8574920273803
 30
0.0
  0
VERTEX
  5
210
  8
DIMENSIONS
 10
-85.34657950888081
 20
191.9699263470705
 30
0.0
  0
VERTEX
  5
211
  8
DIMENSIONS
 10
-85.36023409958878
 20
192.0804593946369
 30
0.0
  0
VERTEX
  5
212
  8
DIMENSIONS
 10
-85.38299175076872
 20
192.1890911700794
 30
0.0
  0
VERTEX
  5
213
  8
DIMENSIONS
 10
-85.41485246242064
 20
192.295821673398
 30
0.0
  0
VERTEX
  5
214
  8
DIMENSIONS
 10
-85.45581623454453
 20
192.4006509045927
 30
0.0
  0
VERTEX
  5
215
  8
DIMENSIONS
 10
-85.5058830671404
 20
192.5035788636635
 30
0.0
  0
VERTEX
  5
216
  8
DIMENSIONS
 10
-85.56505296020823
 20
192.6046055506104
 30
0.0
  0
VERTEX
  5
217
  8
DIMENSIONS
 10
-85.63332591374807
 20
192.7037309654334
 30
0.0
  0
VERTEX
  5
218
  8
DIMENSIONS
 10
-85.70960725593096
 20
192.7991114503154
 30
0.0
  0
VERTEX
  5
219
  8
DIMENSIONS
 10
-85.79280231492801
 20
192.8889033474393
 30
0.0
  0
VERTEX
  5
21A
  8
DIMENSIONS
 10
-85.88291109073921
 20
192.9731066568051
 30
0.0
  0
VERTEX
  5
21B
  8
DIMENSIONS
 10
-85.97993358336458
 20
193.0517213784128
 30
0.0
  0
VERTEX
  5
21C
  8
DIMENSIONS
 10
-86.08386979280411
 20
193.1247475122623
 30
0.0
  0
VERTEX
  5
21D
  8
DIMENSIONS
 10
-86.19471971905779
 20
193.1921850583537
 30
0.0
  0
VERTEX
  5
21E
  8
DIMENSIONS
 10
-86.31248336212563
 20
193.2540340166871
 30
0.0
  0
VERTEX
  5
21F
  8
DIMENSIONS
 10
-86.43716072200765
 20
193.3102943872623
 30
0.0
  0
VERTEX
  5
220
  8
DIMENSIONS
 10
-86.6563255450165
 20
193.3845016144009
 30
0.0
  0
VERTEX
  5
221
  8
DIMENSIONS
 10
-86.91190260991326
 20
193.441194092277
 30
0.0
  0
VERTEX
  5
222
  8
DIMENSIONS
 10
-87.20389191669793
 20
193.4803718208906
 30
0.0
  0
VERTEX
  5
223
  8
DIMENSIONS
 10
-87.53229346537049
 20
193.5020348002417
 30
0.0
  0
VERTEX
  5
224
  8
DIMENSIONS
 10
-86.57359140047373
 20
195.4452501394747
 30
0.0
  0
SEQEND
  5
453
  8
DIMENSIONS
  0
POLYLINE
  5
85
  8
DIMENSIONS
 66
     1
 10
0.0
 20
0.0
 30
0.0
 70
     1
  0
VERTEX
  5
225
  8
DIMENSIONS
 10
-84.01090703469202
 20
192.915751614401
 30
0.0
  0
VERTEX
  5
226
  8
DIMENSIONS
 10
-84.0068740332171
 20
193.125899798398
 30
0.0
  0
VERTEX
  5
227
  8
DIMENSIONS
 10
-83.99477502879233
 20
193.3286157368198
 30
0.0
  0
VERTEX
  5
228
  8
DIMENSIONS
 10
-83.97461002141769
 20
193.5238994296664
 30
0.0
  0
VERTEX
  5
229
  8
DIMENSIONS
 10
-83.9463790110932
 20
193.7117508769378
 30
0.0
  0
VERTEX
  5
22A
  8
DIMENSIONS
 10
-83.91008199781886
 20
193.892170078634
 30
0.0
  0
VERTEX
  5
22B
  8
DIMENSIONS
 10
-83.86571898159468
 20
194.0651570347549
 30
0.0
  0
VERTEX
  5
22C
  8
DIMENSIONS
 10
-83.81328996242064
 20
194.2307117453007
 30
0.0
  0
VERTEX
  5
22D
  8
DIMENSIONS
 10
-83.75279494029675
 20
194.3888342102711
 30
0.0
  0
VERTEX
  5
22E
  8
DIMENSIONS
 10
-83.68561665858584
 20
194.5383145292239
 30
0.0
  0
VERTEX
  5
22F
  8
DIMENSIONS
 10
-83.61313786065074
 20
194.6779428017166
 30
0.0
  0
VERTEX
  5
230
  8
DIMENSIONS
 10
-83.53535854649144
 20
194.807719027749
 30
0.0
  0
VERTEX
  5
231
  8
DIMENSIONS
 10
-83.45227871610797
 20
194.9276432073213
 30
0.0
  0
VERTEX
  5
232
  8
DIMENSIONS
 10
-83.3638983695003
 20
195.0377153404334
 30
0.0
  0
VERTEX
  5
233
  8
DIMENSIONS
 10
-83.27021750666844
 20
195.1379354270853
 30
0.0
  0
VERTEX
  5
234
  8
DIMENSIONS
 10
-83.17123612761239
 20
195.228303467277
 30
0.0
  0
VERTEX
  5
235
  8
DIMENSIONS
 10
-83.06695423233215
 20
195.3088194610086
 30
0.0
  0
VERTEX
  5
236
  8
DIMENSIONS
 10
-82.8996422854295
 20
195.4136774993567
 30
0.0
  0
VERTEX
  5
237
  8
DIMENSIONS
 10
-82.72956485180117
 20
195.4885760981768
 30
0.0
  0
VERTEX
  5
238
  8
DIMENSIONS
 10
-82.5567219314472
 20
195.5335152574688
 30
0.0
  0
VERTEX
  5
239
  8
DIMENSIONS
 10
-82.46926341374808
 20
195.5447500472918
 30
0.0
  0
VERTEX
  5
23A
  8
DIMENSIONS
 10
-82.38111352436755
 20
195.5484949772328
 30
0.0
  0
VERTEX
  5
23B
  8
DIMENSIONS
 10
-82.23915187245014
 20
195.5393343024541
 30
0.0
  0
VERTEX
  5
23C
  8
DIMENSIONS
 10
-82.10087753616696
 20
195.5118522781177
 30
0.0
  0
VERTEX
  5
23D
  8
DIMENSIONS
 10
-81.96629051551798
 20
195.466048904224
 30
0.0
  0
VERTEX
  5
23E
  8
DIMENSIONS
 10
-81.83539081050324
 20
195.4019241807726
 30
0.0
  0
VERTEX
  5
23F
  8
DIMENSIONS
 10
-81.70817842112271
 20
195.3194781077638
 30
0.0
  0
VERTEX
  5
240
  8
DIMENSIONS
 10
-81.5846533473764
 20
195.2187106851974
 30
0.0
  0
VERTEX
  5
241
  8
DIMENSIONS
 10
-81.4648155892643
 20
195.0996219130735
 30
0.0
  0
VERTEX
  5
242
  8
DIMENSIONS
 10
-81.34866514678643
 20
194.9622117913921
 30
0.0
  0
VERTEX
  5
243
  8
DIMENSIONS
 10
-81.2147118835121
 20
194.772545493457
 30
0.0
  0
VERTEX
  5
244
  8
DIMENSIONS
 10
-81.098619055341
 20
194.5667471896222
 30
0.0
  0
VERTEX
  5
245
  8
DIMENSIONS
 10
-81.00038666227316
 20
194.3448168798877
 30
0.0
  0
VERTEX
  5
246
  8
DIMENSIONS
 10
-80.92001470430856
 20
194.1067545642535
 30
0.0
  0
VERTEX
  5
247
  8
DIMENSIONS
 10
-80.85750318144719
 20
193.8525602427196
 30
0.0
  0
VERTEX
  5
248
  8
DIMENSIONS
 10
-80.81285209368909
 20
193.5822339152859
 30
0.0
  0
VERTEX
  5
249
  8
DIMENSIONS
 10
-80.78606144103422
 20
193.2957755819526
 30
0.0
  0
VERTEX
  5
24A
  8
DIMENSIONS
 10
-80.7771312234826
 20
192.9931852427195
 30
0.0
  0
VERTEX
  5
24B
  8
DIMENSIONS
 10
-80.78104899634397
 20
192.7797242360824
 30
0.0
  0
VERTEX
  5
24C
  8
DIMENSIONS
 10
-80.79280231492802
 20
192.5744444610086
 30
0.0
  0
VERTEX
  5
24D
  8
DIMENSIONS
 10
-80.81239117923482
 20
192.3773459174983
 30
0.0
  0
VERTEX
  5
24E
  8
DIMENSIONS
 10
-80.8398155892643
 20
192.1884286055514
 30
0.0
  0
VERTEX
  5
24F
  8
DIMENSIONS
 10
-80.87507554501653
 20
192.007692525168
 30
0.0
  0
VERTEX
  5
250
  8
DIMENSIONS
 10
-80.91817104649144
 20
191.8351376763479
 30
0.0
  0
VERTEX
  5
251
  8
DIMENSIONS
 10
-80.96910209368909
 20
191.6707640590913
 30
0.0
  0
VERTEX
  5
252
  8
DIMENSIONS
 10
-81.02786868660944
 20
191.514571673398
 30
0.0
  0
VERTEX
  5
253
  8
DIMENSIONS
 10
-81.09271358889558
 20
191.3676839982505
 30
0.0
  0
VERTEX
  5
254
  8
DIMENSIONS
 10
-81.16187956419056
 20
191.231224512631
 30
0.0
  0
VERTEX
  5
255
  8
DIMENSIONS
 10
-81.23536661249439
 20
191.1051932165396
 30
0.0
  0
VERTEX
  5
256
  8
DIMENSIONS
 10
-81.31317473380707
 20
190.9895901099762
 30
0.0
  0
VERTEX
  5
257
  8
DIMENSIONS
 10
-81.39530392812861
 20
190.8844151929408
 30
0.0
  0
VERTEX
  5
258
  8
DIMENSIONS
 10
-81.48175419545899
 20
190.7896684654334
 30
0.0
  0
VERTEX
  5
259
  8
DIMENSIONS
 10
-81.57252553579822
 20
190.705349927454
 30
0.0
  0
VERTEX
  5
25A
  8
DIMENSIONS
 10
-81.6676179491463
 20
190.6314595790027
 30
0.0
  0
VERTEX
  5
25B
  8
DIMENSIONS
 10
-81.86039541964779
 20
190.5112761350499
 30
0.0
  0
VERTEX
  5
25C
  8
DIMENSIONS
 10
-82.04971603174218
 20
190.4254308179408
 30
0.0
  0
VERTEX
  5
25D
  8
DIMENSIONS
 10
-82.14308001588671
 20
190.3953849569526
 30
0.0
  0
VERTEX
  5
25E
  8
DIMENSIONS
 10
-82.2355797854295
 20
190.3739236276753
 30
0.0
  0
VERTEX
  5
25F
  8
DIMENSIONS
 10
-82.3272153403705
 20
190.3610468301089
 30
0.0
  0
VERTEX
  5
260
  8
DIMENSIONS
 10
-82.41798668070973
 20
190.3567545642535
 30
0.0
  0
VERTEX
  5
261
  8
DIMENSIONS
 10
-82.59307655902832
 20
190.3699482405071
 30
0.0
  0
VERTEX
  5
262
  8
DIMENSIONS
 10
-82.76067657746489
 20
190.4095292692682
 30
0.0
  0
VERTEX
  5
263
  8
DIMENSIONS
 10
-82.92078673601947
 20
190.4754976505367
 30
0.0
  0
VERTEX
  5
264
  8
DIMENSIONS
 10
-83.07340703469202
 20
190.5678533843125
 30
0.0
  0
VERTEX
  5
265
  8
DIMENSIONS
 10
-83.2185374734826
 20
190.6865964705956
 30
0.0
  0
VERTEX
  5
266
  8
DIMENSIONS
 10
-83.35617805239116
 20
190.8317269093862
 30
0.0
  0
VERTEX
  5
267
  8
DIMENSIONS
 10
-83.4863287714177
 20
191.0032447006841
 30
0.0
  0
VERTEX
  5
268
  8
DIMENSIONS
 10
-83.60898963056223
 20
191.2011498444894
 30
0.0
  0
VERTEX
  5
269
  8
DIMENSIONS
 10
-83.70318902215516
 20
191.3836143540765
 30
0.0
  0
VERTEX
  5
26A
  8
DIMENSIONS
 10
-83.78482849486903
 20
191.5751819241354
 30
0.0
  0
VERTEX
  5
26B
  8
DIMENSIONS
 10
-83.85390804870383
 20
191.7758525546664
 30
0.0
  0
VERTEX
  5
26C
  8
DIMENSIONS
 10
-83.91042768365958
 20
191.9856262456694
 30
0.0
  0
VERTEX
  5
26D
  8
DIMENSIONS
 10
-83.95438739973628
 20
192.2045029971443
 30
0.0
  0
VERTEX
  5
26E
  8
DIMENSIONS
 10
-83.98578719693391
 20
192.4324828090912
 30
0.0
  0
VERTEX
  5
26F
  8
DIMENSIONS
 10
-84.00462707525249
 20
192.6695656815101
 30
0.0
  0
SEQEND
  5
454
  8
DIMENSIONS
  0
POLYLINE
  5
86
  8
DIMENSIONS
 66
     1
 10
0.0
 20
0.0
 30
0.0
 70
     1
  0
VERTEX
  5
270
  8
DIMENSIONS
 10
-83.28819317038524
 20
192.8235687235455
 30
0.0
  0
VERTEX
  5
271
  8
DIMENSIONS
 10
-83.2842177832171
 20
192.571390902749
 30
0.0
  0
VERTEX
  5
272
  8
DIMENSIONS
 10
-83.27229162171268
 20
192.3310816291502
 30
0.0
  0
VERTEX
  5
273
  8
DIMENSIONS
 10
-83.25241468587197
 20
192.102640902749
 30
0.0
  0
VERTEX
  5
274
  8
DIMENSIONS
 10
-83.22458697569498
 20
191.8860687235455
 30
0.0
  0
VERTEX
  5
275
  8
DIMENSIONS
 10
-83.1888084911817
 20
191.6813650915396
 30
0.0
  0
VERTEX
  5
276
  8
DIMENSIONS
 10
-83.14507923233215
 20
191.4885300067313
 30
0.0
  0
VERTEX
  5
277
  8
DIMENSIONS
 10
-83.0933991991463
 20
191.3075634691207
 30
0.0
  0
VERTEX
  5
278
  8
DIMENSIONS
 10
-83.03376839162418
 20
191.1384654787077
 30
0.0
  0
VERTEX
  5
279
  8
DIMENSIONS
 10
-82.97799774265663
 20
191.009697503044
 30
0.0
  0
VERTEX
  5
27A
  8
DIMENSIONS
 10
-82.9157742913292
 20
190.8980985908021
 30
0.0
  0
VERTEX
  5
27B
  8
DIMENSIONS
 10
-82.84709803764189
 20
190.8036687419821
 30
0.0
  0
VERTEX
  5
27C
  8
DIMENSIONS
 10
-82.77196898159468
 20
190.7264079565838
 30
0.0
  0
VERTEX
  5
27D
  8
DIMENSIONS
 10
-82.6903871231876
 20
190.6663162346075
 30
0.0
  0
VERTEX
  5
27E
  8
DIMENSIONS
 10
-82.60235246242064
 20
190.6233935760529
 30
0.0
  0
VERTEX
  5
27F
  8
DIMENSIONS
 10
-82.5078649992938
 20
190.5976399809201
 30
0.0
  0
VERTEX
  5
280
  8
DIMENSIONS
 10
-82.40692473380707
 20
190.5890554492092
 30
0.0
  0
VERTEX
  5
281
  8
DIMENSIONS
 10
-82.30644538277463
 20
190.6002326247254
 30
0.0
  0
VERTEX
  5
282
  8
DIMENSIONS
 10
-82.20412237392507
 20
190.6337641512741
 30
0.0
  0
VERTEX
  5
283
  8
DIMENSIONS
 10
-82.0999557072584
 20
190.6896500288552
 30
0.0
  0
VERTEX
  5
284
  8
DIMENSIONS
 10
-81.99394538277463
 20
190.7678902574688
 30
0.0
  0
VERTEX
  5
285
  8
DIMENSIONS
 10
-81.94209250666844
 20
190.8163726966281
 30
0.0
  0
VERTEX
  5
286
  8
DIMENSIONS
 10
-81.89346603174218
 20
190.8724026099762
 30
0.0
  0
VERTEX
  5
287
  8
DIMENSIONS
 10
-81.80589228542951
 20
191.0071048592387
 30
0.0
  0
VERTEX
  5
288
  8
DIMENSIONS
 10
-81.73122414383658
 20
191.1719970052564
 30
0.0
  0
VERTEX
  5
289
  8
DIMENSIONS
 10
-81.66946160696342
 20
191.3670790480293
 30
0.0
  0
VERTEX
  5
28A
  8
DIMENSIONS
 10
-81.62970773528201
 20
191.5337572375573
 30
0.0
  0
VERTEX
  5
28B
  8
DIMENSIONS
 10
-81.59525437982478
 20
191.7166826615986
 30
0.0
  0
VERTEX
  5
28C
  8
DIMENSIONS
 10
-81.54224921758289
 20
192.131275213221
 30
0.0
  0
VERTEX
  5
28D
  8
DIMENSIONS
 10
-81.51044612023776
 20
192.6108567028965
 30
0.0
  0
VERTEX
  5
28E
  8
DIMENSIONS
 10
-81.49984508778938
 20
193.1554271306251
 30
0.0
  0
VERTEX
  5
28F
  8
DIMENSIONS
 10
-81.51090703469204
 20
193.5654105377048
 30
0.0
  0
VERTEX
  5
290
  8
DIMENSIONS
 10
-81.5440928754
 20
193.9399035318051
 30
0.0
  0
VERTEX
  5
291
  8
DIMENSIONS
 10
-81.59940260991326
 20
194.278906112926
 30
0.0
  0
VERTEX
  5
292
  8
DIMENSIONS
 10
-81.6353539373469
 20
194.4350984986193
 30
0.0
  0
VERTEX
  5
293
  8
DIMENSIONS
 10
-81.67683623823186
 20
194.5824182810676
 30
0.0
  0
VERTEX
  5
294
  8
DIMENSIONS
 10
-81.74804752141769
 20
194.7789982958169
 30
0.0
  0
VERTEX
  5
295
  8
DIMENSIONS
 10
-81.82893800814335
 20
194.9446970421296
 30
0.0
  0
VERTEX
  5
296
  8
DIMENSIONS
 10
-81.91950769840884
 20
195.0795145200057
 30
0.0
  0
VERTEX
  5
297
  8
DIMENSIONS
 10
-82.01975659221415
 20
195.1834507294452
 30
0.0
  0
VERTEX
  5
298
  8
DIMENSIONS
 10
-82.09926433557699
 20
195.2366863489142
 30
0.0
  0
VERTEX
  5
299
  8
DIMENSIONS
 10
-82.18660762466253
 20
195.2747117913921
 30
0.0
  0
VERTEX
  5
29A
  8
DIMENSIONS
 10
-82.2817864594708
 20
195.2975270568788
 30
0.0
  0
VERTEX
  5
29B
  8
DIMENSIONS
 10
-82.38480084000176
 20
195.3051321453744
 30
0.0
  0
VERTEX
  5
29C
  8
DIMENSIONS
 10
-82.50671271315812
 20
195.2910742545189
 30
0.0
  0
VERTEX
  5
29D
  8
DIMENSIONS
 10
-82.6217108695003
 20
195.2489005819526
 30
0.0
  0
VERTEX
  5
29E
  8
DIMENSIONS
 10
-82.72979530902832
 20
195.1786111276753
 30
0.0
  0
VERTEX
  5
29F
  8
DIMENSIONS
 10
-82.83096603174218
 20
195.0802058916871
 30
0.0
  0
VERTEX
  5
2A0
  8
DIMENSIONS
 10
-82.89468745504601
 20
194.9982207331325
 30
0.0
  0
VERTEX
  5
2A1
  8
DIMENSIONS
 10
-82.95310836212566
 20
194.9052888562888
 30
0.0
  0
VERTEX
  5
2A2
  8
DIMENSIONS
 10
-83.00622875298112
 20
194.8014102611561
 30
0.0
  0
VERTEX
  5
2A3
  8
DIMENSIONS
 10
-83.05404862761239
 20
194.6865849477343
 30
0.0
  0
VERTEX
  5
2A4
  8
DIMENSIONS
 10
-83.09656798601947
 20
194.5608129160233
 30
0.0
  0
VERTEX
  5
2A5
  8
DIMENSIONS
 10
-83.13378682820236
 20
194.4240941660234
 30
0.0
  0
VERTEX
  5
2A6
  8
DIMENSIONS
 10
-83.19232296389558
 20
194.1178165111561
 30
0.0
  0
VERTEX
  5
2A7
  8
DIMENSIONS
 10
-83.23426617923481
 20
193.7907977058464
 30
0.0
  0
VERTEX
  5
2A8
  8
DIMENSIONS
 10
-83.26422561876282
 20
193.466083472808
 30
0.0
  0
VERTEX
  5
2A9
  8
DIMENSIONS
 10
-83.28220128247963
 20
193.1436738120411
 30
0.0
  0
SEQEND
  5
455
  8
DIMENSIONS
  0
POLYLINE
  5
87
  8
DIMENSIONS
 66
     1
 10
0.0
 20
0.0
 30
0.0
 70
     1
  0
VERTEX
  5
2AA
  8
DIMENSIONS
 10
-79.56400437982478
 20
191.160589372513
 30
0.0
  0
VERTEX
  5
2AB
  8
DIMENSIONS
 10
-79.48080932082772
 20
191.153099512631
 30
0.0
  0
VERTEX
  5
2AC
  8
DIMENSIONS
 10
-79.40452797864484
 20
191.130629932985
 30
0.0
  0
VERTEX
  5
2AD
  8
DIMENSIONS
 10
-79.33516035327611
 20
191.093180633575
 30
0.0
  0
VERTEX
  5
2AE
  8
DIMENSIONS
 10
-79.27270644472154
 20
191.040751614401
 30
0.0
  0
VERTEX
  5
2AF
  8
DIMENSIONS
 10
-79.22108402584249
 20
190.9777215627785
 30
0.0
  0
VERTEX
  5
2B0
  8
DIMENSIONS
 10
-79.1842108695003
 20
190.9084691660233
 30
0.0
  0
VERTEX
  5
2B1
  8
DIMENSIONS
 10
-79.16208697569499
 20
190.8329944241354
 30
0.0
  0
VERTEX
  5
2B2
  8
DIMENSIONS
 10
-79.15471234442656
 20
190.7512973371148
 30
0.0
  0
VERTEX
  5
2B3
  8
DIMENSIONS
 10
-79.16220220430856
 20
190.6696002500942
 30
0.0
  0
VERTEX
  5
2B4
  8
DIMENSIONS
 10
-79.18467178395458
 20
190.5941255082063
 30
0.0
  0
VERTEX
  5
2B5
  8
DIMENSIONS
 10
-79.22212108336461
 20
190.5248731114511
 30
0.0
  0
VERTEX
  5
2B6
  8
DIMENSIONS
 10
-79.27455010253864
 20
190.4618430598287
 30
0.0
  0
VERTEX
  5
2B7
  8
DIMENSIONS
 10
-79.33758015416107
 20
190.4094140406546
 30
0.0
  0
VERTEX
  5
2B8
  8
DIMENSIONS
 10
-79.40683255091623
 20
190.3719647412446
 30
0.0
  0
VERTEX
  5
2B9
  8
DIMENSIONS
 10
-79.48230729280414
 20
190.3494951615986
 30
0.0
  0
VERTEX
  5
2BA
  8
DIMENSIONS
 10
-79.56400437982478
 20
190.3420053017166
 30
0.0
  0
VERTEX
  5
2BB
  8
DIMENSIONS
 10
-79.64570146684542
 20
190.3494951615986
 30
0.0
  0
VERTEX
  5
2BC
  8
DIMENSIONS
 10
-79.72117620873333
 20
190.3719647412446
 30
0.0
  0
VERTEX
  5
2BD
  8
DIMENSIONS
 10
-79.79042860548849
 20
190.4094140406546
 30
0.0
  0
VERTEX
  5
2BE
  8
DIMENSIONS
 10
-79.85345865711092
 20
190.4618430598287
 30
0.0
  0
VERTEX
  5
2BF
  8
DIMENSIONS
 10
-79.90588767628495
 20
190.5248731114511
 30
0.0
  0
VERTEX
  5
2C0
  8
DIMENSIONS
 10
-79.94333697569498
 20
190.5941255082063
 30
0.0
  0
VERTEX
  5
2C1
  8
DIMENSIONS
 10
-79.965806555341
 20
190.6696002500942
 30
0.0
  0
VERTEX
  5
2C2
  8
DIMENSIONS
 10
-79.973296415223
 20
190.7512973371148
 30
0.0
  0
VERTEX
  5
2C3
  8
DIMENSIONS
 10
-79.965806555341
 20
190.8344923961118
 30
0.0
  0
VERTEX
  5
2C4
  8
DIMENSIONS
 10
-79.94333697569498
 20
190.9107737382947
 30
0.0
  0
VERTEX
  5
2C5
  8
DIMENSIONS
 10
-79.90588767628495
 20
190.9801413636635
 30
0.0
  0
VERTEX
  5
2C6
  8
DIMENSIONS
 10
-79.85345865711092
 20
191.0425952722181
 30
0.0
  0
VERTEX
  5
2C7
  8
DIMENSIONS
 10
-79.79042860548849
 20
191.0942176910971
 30
0.0
  0
VERTEX
  5
2C8
  8
DIMENSIONS
 10
-79.72117620873333
 20
191.1310908474393
 30
0.0
  0
VERTEX
  5
2C9
  8
DIMENSIONS
 10
-79.64570146684542
 20
191.1532147412446
 30
0.0
  0
SEQEND
  5
456
  8
DIMENSIONS
  0
POLYLINE
  5
88
  8
DIMENSIONS
 66
     1
 10
0.0
 20
0.0
 30
0.0
 70
     1
  0
VERTEX
  5
2CA
  8
DIMENSIONS
 10
-78.34719022053274
 20
192.915751614401
 30
0.0
  0
VERTEX
  5
2CB
  8
DIMENSIONS
 10
-78.34315721905782
 20
193.125899798398
 30
0.0
  0
VERTEX
  5
2CC
  8
DIMENSIONS
 10
-78.33105821463303
 20
193.3286157368198
 30
0.0
  0
VERTEX
  5
2CD
  8
DIMENSIONS
 10
-78.3108932072584
 20
193.5238994296664
 30
0.0
  0
VERTEX
  5
2CE
  8
DIMENSIONS
 10
-78.28266219693393
 20
193.7117508769378
 30
0.0
  0
VERTEX
  5
2CF
  8
DIMENSIONS
 10
-78.24636518365959
 20
193.892170078634
 30
0.0
  0
VERTEX
  5
2D0
  8
DIMENSIONS
 10
-78.20200216743541
 20
194.0651570347549
 30
0.0
  0
VERTEX
  5
2D1
  8
DIMENSIONS
 10
-78.14957314826137
 20
194.2307117453007
 30
0.0
  0
VERTEX
  5
2D2
  8
DIMENSIONS
 10
-78.08907812613747
 20
194.3888342102711
 30
0.0
  0
VERTEX
  5
2D3
  8
DIMENSIONS
 10
-78.02189984442654
 20
194.5383145292239
 30
0.0
  0
VERTEX
  5
2D4
  8
DIMENSIONS
 10
-77.94942104649144
 20
194.6779428017166
 30
0.0
  0
VERTEX
  5
2D5
  8
DIMENSIONS
 10
-77.87164173233215
 20
194.807719027749
 30
0.0
  0
VERTEX
  5
2D6
  8
DIMENSIONS
 10
-77.78856190194867
 20
194.9276432073213
 30
0.0
  0
VERTEX
  5
2D7
  8
DIMENSIONS
 10
-77.700181555341
 20
195.0377153404334
 30
0.0
  0
VERTEX
  5
2D8
  8
DIMENSIONS
 10
-77.60650069250914
 20
195.1379354270853
 30
0.0
  0
VERTEX
  5
2D9
  8
DIMENSIONS
 10
-77.5075193134531
 20
195.228303467277
 30
0.0
  0
VERTEX
  5
2DA
  8
DIMENSIONS
 10
-77.40323741817286
 20
195.3088194610086
 30
0.0
  0
VERTEX
  5
2DB
  8
DIMENSIONS
 10
-77.2359254712702
 20
195.4136774993567
 30
0.0
  0
VERTEX
  5
2DC
  8
DIMENSIONS
 10
-77.06584803764189
 20
195.4885760981768
 30
0.0
  0
VERTEX
  5
2DD
  8
DIMENSIONS
 10
-76.8930051172879
 20
195.5335152574688
 30
0.0
  0
VERTEX
  5
2DE
  8
DIMENSIONS
 10
-76.80554659958878
 20
195.5447500472918
 30
0.0
  0
VERTEX
  5
2DF
  8
DIMENSIONS
 10
-76.71739671020826
 20
195.5484949772328
 30
0.0
  0
VERTEX
  5
2E0
  8
DIMENSIONS
 10
-76.57543505829086
 20
195.5393343024541
 30
0.0
  0
VERTEX
  5
2E1
  8
DIMENSIONS
 10
-76.43716072200769
 20
195.5118522781177
 30
0.0
  0
VERTEX
  5
2E2
  8
DIMENSIONS
 10
-76.30257370135871
 20
195.466048904224
 30
0.0
  0
VERTEX
  5
2E3
  8
DIMENSIONS
 10
-76.17167399634396
 20
195.4019241807726
 30
0.0
  0
VERTEX
  5
2E4
  8
DIMENSIONS
 10
-76.04446160696341
 20
195.3194781077638
 30
0.0
  0
VERTEX
  5
2E5
  8
DIMENSIONS
 10
-75.92093653321712
 20
195.2187106851974
 30
0.0
  0
VERTEX
  5
2E6
  8
DIMENSIONS
 10
-75.801098775105
 20
195.0996219130735
 30
0.0
  0
VERTEX
  5
2E7
  8
DIMENSIONS
 10
-75.68494833262714
 20
194.9622117913921
 30
0.0
  0
VERTEX
  5
2E8
  8
DIMENSIONS
 10
-75.55099506935281
 20
194.772545493457
 30
0.0
  0
VERTEX
  5
2E9
  8
DIMENSIONS
 10
-75.43490224118172
 20
194.5667471896222
 30
0.0
  0
VERTEX
  5
2EA
  8
DIMENSIONS
 10
-75.33666984811387
 20
194.3448168798877
 30
0.0
  0
VERTEX
  5
2EB
  8
DIMENSIONS
 10
-75.25629789014927
 20
194.1067545642535
 30
0.0
  0
VERTEX
  5
2EC
  8
DIMENSIONS
 10
-75.19378636728791
 20
193.8525602427196
 30
0.0
  0
VERTEX
  5
2ED
  8
DIMENSIONS
 10
-75.1491352795298
 20
193.5822339152859
 30
0.0
  0
VERTEX
  5
2EE
  8
DIMENSIONS
 10
-75.12234462687493
 20
193.2957755819526
 30
0.0
  0
VERTEX
  5
2EF
  8
DIMENSIONS
 10
-75.11341440932331
 20
192.9931852427195
 30
0.0
  0
VERTEX
  5
2F0
  8
DIMENSIONS
 10
-75.11733218218467
 20
192.7797242360824
 30
0.0
  0
VERTEX
  5
2F1
  8
DIMENSIONS
 10
-75.12908550076874
 20
192.5744444610086
 30
0.0
  0
VERTEX
  5
2F2
  8
DIMENSIONS
 10
-75.14867436507552
 20
192.3773459174983
 30
0.0
  0
VERTEX
  5
2F3
  8
DIMENSIONS
 10
-75.17609877510502
 20
192.1884286055514
 30
0.0
  0
VERTEX
  5
2F4
  8
DIMENSIONS
 10
-75.21135873085723
 20
192.007692525168
 30
0.0
  0
VERTEX
  5
2F5
  8
DIMENSIONS
 10
-75.25445423233215
 20
191.8351376763479
 30
0.0
  0
VERTEX
  5
2F6
  8
DIMENSIONS
 10
-75.30538527952979
 20
191.6707640590913
 30
0.0
  0
VERTEX
  5
2F7
  8
DIMENSIONS
 10
-75.36415187245015
 20
191.514571673398
 30
0.0
  0
VERTEX
  5
2F8
  8
DIMENSIONS
 10
-75.42899677473628
 20
191.3676839982505
 30
0.0
  0
VERTEX
  5
2F9
  8
DIMENSIONS
 10
-75.49816275003127
 20
191.231224512631
 30
0.0
  0
VERTEX
  5
2FA
  8
DIMENSIONS
 10
-75.57164979833509
 20
191.1051932165396
 30
0.0
  0
VERTEX
  5
2FB
  8
DIMENSIONS
 10
-75.64945791964777
 20
190.9895901099762
 30
0.0
  0
VERTEX
  5
2FC
  8
DIMENSIONS
 10
-75.73158711396931
 20
190.8844151929408
 30
0.0
  0
VERTEX
  5
2FD
  8
DIMENSIONS
 10
-75.8180373812997
 20
190.7896684654334
 30
0.0
  0
VERTEX
  5
2FE
  8
DIMENSIONS
 10
-75.90880872163893
 20
190.705349927454
 30
0.0
  0
VERTEX
  5
2FF
  8
DIMENSIONS
 10
-76.00390113498702
 20
190.6314595790027
 30
0.0
  0
VERTEX
  5
300
  8
DIMENSIONS
 10
-76.1966786054885
 20
190.5112761350499
 30
0.0
  0
VERTEX
  5
301
  8
DIMENSIONS
 10
-76.3859992175829
 20
190.4254308179408
 30
0.0
  0
VERTEX
  5
302
  8
DIMENSIONS
 10
-76.47936320172744
 20
190.3953849569526
 30
0.0
  0
VERTEX
  5
303
  8
DIMENSIONS
 10
-76.5718629712702
 20
190.3739236276753
 30
0.0
  0
VERTEX
  5
304
  8
DIMENSIONS
 10
-76.66349852621121
 20
190.3610468301089
 30
0.0
  0
VERTEX
  5
305
  8
DIMENSIONS
 10
-76.75426986655044
 20
190.3567545642535
 30
0.0
  0
VERTEX
  5
306
  8
DIMENSIONS
 10
-76.92935974486905
 20
190.3699482405071
 30
0.0
  0
VERTEX
  5
307
  8
DIMENSIONS
 10
-77.09695976330562
 20
190.4095292692682
 30
0.0
  0
VERTEX
  5
308
  8
DIMENSIONS
 10
-77.2570699218602
 20
190.4754976505367
 30
0.0
  0
VERTEX
  5
309
  8
DIMENSIONS
 10
-77.40969022053275
 20
190.5678533843125
 30
0.0
  0
VERTEX
  5
30A
  8
DIMENSIONS
 10
-77.55482065932333
 20
190.6865964705956
 30
0.0
  0
VERTEX
  5
30B
  8
DIMENSIONS
 10
-77.69246123823186
 20
190.8317269093862
 30
0.0
  0
VERTEX
  5
30C
  8
DIMENSIONS
 10
-77.8226119572584
 20
191.0032447006841
 30
0.0
  0
VERTEX
  5
30D
  8
DIMENSIONS
 10
-77.94527281640295
 20
191.2011498444894
 30
0.0
  0
VERTEX
  5
30E
  8
DIMENSIONS
 10
-78.03947220799586
 20
191.3836143540765
 30
0.0
  0
VERTEX
  5
30F
  8
DIMENSIONS
 10
-78.12111168070973
 20
191.5751819241354
 30
0.0
  0
VERTEX
  5
310
  8
DIMENSIONS
 10
-78.19019123454453
 20
191.7758525546664
 30
0.0
  0
VERTEX
  5
311
  8
DIMENSIONS
 10
-78.24671086950029
 20
191.9856262456694
 30
0.0
  0
VERTEX
  5
312
  8
DIMENSIONS
 10
-78.29067058557698
 20
192.2045029971443
 30
0.0
  0
VERTEX
  5
313
  8
DIMENSIONS
 10
-78.32207038277463
 20
192.4324828090912
 30
0.0
  0
VERTEX
  5
314
  8
DIMENSIONS
 10
-78.34091026109321
 20
192.6695656815101
 30
0.0
  0
SEQEND
  5
457
  8
DIMENSIONS
  0
POLYLINE
  5
89
  8
DIMENSIONS
 66
     1
 10
0.0
 20
0.0
 30
0.0
 70
     1
  0
VERTEX
  5
315
  8
DIMENSIONS
 10
-77.62447635622595
 20
192.8235687235455
 30
0.0
  0
VERTEX
  5
316
  8
DIMENSIONS
 10
-77.6205009690578
 20
192.571390902749
 30
0.0
  0
VERTEX
  5
317
  8
DIMENSIONS
 10
-77.60857480755338
 20
192.3310816291502
 30
0.0
  0
VERTEX
  5
318
  8
DIMENSIONS
 10
-77.58869787171267
 20
192.102640902749
 30
0.0
  0
VERTEX
  5
319
  8
DIMENSIONS
 10
-77.56087016153569
 20
191.8860687235455
 30
0.0
  0
VERTEX
  5
31A
  8
DIMENSIONS
 10
-77.5250916770224
 20
191.6813650915396
 30
0.0
  0
VERTEX
  5
31B
  8
DIMENSIONS
 10
-77.48136241817285
 20
191.4885300067313
 30
0.0
  0
VERTEX
  5
31C
  8
DIMENSIONS
 10
-77.429682384987
 20
191.3075634691207
 30
0.0
  0
VERTEX
  5
31D
  8
DIMENSIONS
 10
-77.37005157746489
 20
191.1384654787077
 30
0.0
  0
VERTEX
  5
31E
  8
DIMENSIONS
 10
-77.31428092849734
 20
191.009697503044
 30
0.0
  0
VERTEX
  5
31F
  8
DIMENSIONS
 10
-77.25205747716991
 20
190.8980985908021
 30
0.0
  0
VERTEX
  5
320
  8
DIMENSIONS
 10
-77.1833812234826
 20
190.8036687419821
 30
0.0
  0
VERTEX
  5
321
  8
DIMENSIONS
 10
-77.10825216743541
 20
190.7264079565838
 30
0.0
  0
VERTEX
  5
322
  8
DIMENSIONS
 10
-77.02667030902833
 20
190.6663162346075
 30
0.0
  0
VERTEX
  5
323
  8
DIMENSIONS
 10
-76.93863564826137
 20
190.6233935760529
 30
0.0
  0
VERTEX
  5
324
  8
DIMENSIONS
 10
-76.84414818513451
 20
190.5976399809201
 30
0.0
  0
VERTEX
  5
325
  8
DIMENSIONS
 10
-76.74320791964779
 20
190.5890554492092
 30
0.0
  0
VERTEX
  5
326
  8
DIMENSIONS
 10
-76.64272856861534
 20
190.6002326247254
 30
0.0
  0
VERTEX
  5
327
  8
DIMENSIONS
 10
-76.54040555976579
 20
190.6337641512741
 30
0.0
  0
VERTEX
  5
328
  8
DIMENSIONS
 10
-76.43623889309912
 20
190.6896500288552
 30
0.0
  0
VERTEX
  5
329
  8
DIMENSIONS
 10
-76.33022856861534
 20
190.7678902574688
 30
0.0
  0
VERTEX
  5
32A
  8
DIMENSIONS
 10
-76.27837569250914
 20
190.8163726966281
 30
0.0
  0
VERTEX
  5
32B
  8
DIMENSIONS
 10
-76.22974921758288
 20
190.8724026099762
 30
0.0
  0
VERTEX
  5
32C
  8
DIMENSIONS
 10
-76.1421754712702
 20
191.0071048592387
 30
0.0
  0
VERTEX
  5
32D
  8
DIMENSIONS
 10
-76.06750732967728
 20
191.1719970052564
 30
0.0
  0
VERTEX
  5
32E
  8
DIMENSIONS
 10
-76.00574479280414
 20
191.3670790480293
 30
0.0
  0
VERTEX
  5
32F
  8
DIMENSIONS
 10
-75.96599092112271
 20
191.5337572375573
 30
0.0
  0
VERTEX
  5
330
  8
DIMENSIONS
 10
-75.9315375656655
 20
191.7166826615986
 30
0.0
  0
VERTEX
  5
331
  8
DIMENSIONS
 10
-75.8785324034236
 20
192.131275213221
 30
0.0
  0
VERTEX
  5
332
  8
DIMENSIONS
 10
-75.84672930607847
 20
192.6108567028965
 30
0.0
  0
VERTEX
  5
333
  8
DIMENSIONS
 10
-75.8361282736301
 20
193.1554271306251
 30
0.0
  0
VERTEX
  5
334
  8
DIMENSIONS
 10
-75.84719022053274
 20
193.5654105377048
 30
0.0
  0
VERTEX
  5
335
  8
DIMENSIONS
 10
-75.88037606124071
 20
193.9399035318051
 30
0.0
  0
VERTEX
  5
336
  8
DIMENSIONS
 10
-75.93568579575398
 20
194.278906112926
 30
0.0
  0
VERTEX
  5
337
  8
DIMENSIONS
 10
-75.97163712318762
 20
194.4350984986193
 30
0.0
  0
VERTEX
  5
338
  8
DIMENSIONS
 10
-76.01311942407257
 20
194.5824182810676
 30
0.0
  0
VERTEX
  5
339
  8
DIMENSIONS
 10
-76.0843307072584
 20
194.7789982958169
 30
0.0
  0
VERTEX
  5
33A
  8
DIMENSIONS
 10
-76.16522119398408
 20
194.9446970421296
 30
0.0
  0
VERTEX
  5
33B
  8
DIMENSIONS
 10
-76.25579088424956
 20
195.0795145200057
 30
0.0
  0
VERTEX
  5
33C
  8
DIMENSIONS
 10
-76.35603977805486
 20
195.1834507294452
 30
0.0
  0
VERTEX
  5
33D
  8
DIMENSIONS
 10
-76.4355475214177
 20
195.2366863489142
 30
0.0
  0
VERTEX
  5
33E
  8
DIMENSIONS
 10
-76.52289081050326
 20
195.2747117913921
 30
0.0
  0
VERTEX
  5
33F
  8
DIMENSIONS
 10
-76.61806964531152
 20
195.2975270568788
 30
0.0
  0
VERTEX
  5
340
  8
DIMENSIONS
 10
-76.72108402584247
 20
195.3051321453744
 30
0.0
  0
VERTEX
  5
341
  8
DIMENSIONS
 10
-76.84299589899882
 20
195.2910742545189
 30
0.0
  0
VERTEX
  5
342
  8
DIMENSIONS
 10
-76.957994055341
 20
195.2489005819526
 30
0.0
  0
VERTEX
  5
343
  8
DIMENSIONS
 10
-77.06607849486903
 20
195.1786111276753
 30
0.0
  0
VERTEX
  5
344
  8
DIMENSIONS
 10
-77.16724921758289
 20
195.0802058916871
 30
0.0
  0
VERTEX
  5
345
  8
DIMENSIONS
 10
-77.23097064088672
 20
194.9982207331325
 30
0.0
  0
VERTEX
  5
346
  8
DIMENSIONS
 10
-77.28939154796637
 20
194.9052888562888
 30
0.0
  0
VERTEX
  5
347
  8
DIMENSIONS
 10
-77.34251193882181
 20
194.8014102611561
 30
0.0
  0
VERTEX
  5
348
  8
DIMENSIONS
 10
-77.39033181345309
 20
194.6865849477343
 30
0.0
  0
VERTEX
  5
349
  8
DIMENSIONS
 10
-77.43285117186018
 20
194.5608129160233
 30
0.0
  0
VERTEX
  5
34A
  8
DIMENSIONS
 10
-77.47007001404307
 20
194.4240941660234
 30
0.0
  0
VERTEX
  5
34B
  8
DIMENSIONS
 10
-77.52860614973629
 20
194.1178165111561
 30
0.0
  0
VERTEX
  5
34C
  8
DIMENSIONS
 10
-77.57054936507552
 20
193.7907977058464
 30
0.0
  0
VERTEX
  5
34D
  8
DIMENSIONS
 10
-77.60050880460354
 20
193.466083472808
 30
0.0
  0
VERTEX
  5
34E
  8
DIMENSIONS
 10
-77.61848446832035
 20
193.1436738120411
 30
0.0
  0
SEQEND
  5
458
  8
DIMENSIONS
  0
POLYLINE
  5
8A
  8
DIMENSIONS
 66
     1
 10
0.0
 20
0.0
 30
0.0
  0
VERTEX
  5
34F
  8
DIMENSIONS
 10
-21.31021450844139
 20
193.0484949772328
 30
0.0
  0
VERTEX
  5
350
  8
DIMENSIONS
 10
20.59961554780907
 20
193.0484949772328
 30
0.0
  0
SEQEND
  5
459
  8
DIMENSIONS
  0
POLYLINE
  5
8B
  8
DIMENSIONS
 66
     1
 10
0.0
 20
0.0
 30
0.0
  0
VERTEX
  5
351
  8
DIMENSIONS
 10
-74.4884144093233
 20
193.0484949772328
 30
0.0
  0
VERTEX
  5
352
  8
DIMENSIONS
 10
-25.35529948031613
 20
193.0484949772328
 30
0.0
  0
SEQEND
  5
45A
  8
DIMENSIONS
  0
POLYLINE
  5
8C
  8
DIMENSIONS
 66
     1
 10
0.0
 20
0.0
 30
0.0
  0
VERTEX
  5
353
  8
DIMENSIONS
 10
-25.35529948031613
 20
151.5568379399967
 30
0.0
  0
VERTEX
  5
354
  8
DIMENSIONS
 10
-25.35529948031613
 20
195.5484949772328
 30
0.0
  0
SEQEND
  5
45B
  8
DIMENSIONS
  0
POLYLINE
  5
8D
  8
DIMENSIONS
 66
     1
 10
0.0
 20
0.0
 30
0.0
  0
VERTEX
  5
355
  8
DIMENSIONS
 10
24.6447005196838
 20
151.5568379399967
 30
0.0
  0
VERTEX
  5
356
  8
DIMENSIONS
 10
24.6447005196838
 20
195.5484949772328
 30
0.0
  0
SEQEND
  5
45C
  8
DIMENSIONS
  0
POLYLINE
  5
8E
  8
DIMENSIONS
 66
     1
 10
0.0
 20
0.0
 30
0.0
  0
VERTEX
  5
357
  8
DIMENSIONS
 10
-25.35529948031613
 20
193.0484949772328
 30
0.0
  0
VERTEX
  5
358
  8
DIMENSIONS
 10
-21.31021450844139
 20
191.7984949772328
 30
0.0
  0
SEQEND
  5
45D
  8
DIMENSIONS
  0
POLYLINE
  5
8F
  8
DIMENSIONS
 66
     1
 10
0.0
 20
0.0
 30
0.0
  0
VERTEX
  5
359
  8
DIMENSIONS
 10
-21.31021450844139
 20
191.7984949772328
 30
0.0
  0
VERTEX
  5
35A
  8
DIMENSIONS
 10
-21.31021450844139
 20
194.2984949772328
 30
0.0
  0
SEQEND
  5
45E
  8
DIMENSIONS
  0
POLYLINE
  5
90
  8
DIMENSIONS
 66
     1
 10
0.0
 20
0.0
 30
0.0
  0
VERTEX
  5
35B
  8
DIMENSIONS
 10
-21.31021450844139
 20
194.2984949772328
 30
0.0
  0
VERTEX
  5
35C
  8
DIMENSIONS
 10
-25.35529948031613
 20
193.0484949772328
 30
0.0
  0
SEQEND
  5
45F
  8
DIMENSIONS
  0
POLYLINE
  5
91
  8
DIMENSIONS
 66
     1
 10
0.0
 20
0.0
 30
0.0
  0
VERTEX
  5
35D
  8
DIMENSIONS
 10
24.6447005196838
 20
193.0484949772328
 30
0.0
  0
VERTEX
  5
35E
  8
DIMENSIONS
 10
20.59961554780907
 20
194.2984949772328
 30
0.0
  0
SEQEND
  5
460
  8
DIMENSIONS
  0
POLYLINE
  5
92
  8
DIMENSIONS
 66
     1
 10
0.0
 20
0.0
 30
0.0
  0
VERTEX
  5
35F
  8
DIMENSIONS
 10
20.59961554780907
 20
194.2984949772328
 30
0.0
  0
VERTEX
  5
360
  8
DIMENSIONS
 10
20.59961554780907
 20
191.7984949772328
 30
0.0
  0
SEQEND
  5
461
  8
DIMENSIONS
  0
POLYLINE
  5
93
  8
DIMENSIONS
 66
     1
 10
0.0
 20
0.0
 30
0.0
  0
VERTEX
  5
361
  8
DIMENSIONS
 10
20.59961554780907
 20
191.7984949772328
 30
0.0
  0
VERTEX
  5
362
  8
DIMENSIONS
 10
24.6447005196838
 20
193.0484949772328
 30
0.0
  0
SEQEND
  5
462
  8
DIMENSIONS
  0
POLYLINE
  5
94
  8
DIMENSIONS
 66
     1
 10
0.0
 20
0.0
 30
0.0
 70
     1
  0
VERTEX
  5
363
  8
DIMENSIONS
 10
-48.98244329321462
 20
66.57757462273591
 30
0.0
  0
VERTEX
  5
364
  8
DIMENSIONS
 10
-47.76562913392258
 20
67.17123243984506
 30
0.0
  0
VERTEX
  5
365
  8
DIMENSIONS
 10
-47.64394771799338
 20
67.17123243984506
 30
0.0
  0
VERTEX
  5
366
  8
DIMENSIONS
 10
-47.64394771799338
 20
62.94925603866511
 30
0.0
  0
VERTEX
  5
367
  8
DIMENSIONS
 10
-47.63519034336211
 20
62.60817934249992
 30
0.0
  0
VERTEX
  5
368
  8
DIMENSIONS
 10
-47.62424362507302
 20
62.49709895901909
 30
0.0
  0
VERTEX
  5
369
  8
DIMENSIONS
 10
-47.60891821946831
 20
62.42565721860612
 30
0.0
  0
VERTEX
  5
36A
  8
DIMENSIONS
 10
-47.58667909704943
 20
62.37703074367987
 30
0.0
  0
VERTEX
  5
36B
  8
DIMENSIONS
 10
-47.55499122831786
 20
62.33439615665922
 30
0.0
  0
VERTEX
  5
36C
  8
DIMENSIONS
 10
-47.51385461327362
 20
62.29775345754418
 30
0.0
  0
VERTEX
  5
36D
  8
DIMENSIONS
 10
-47.46326925191669
 20
62.26710264633473
 30
0.0
  0
VERTEX
  5
36E
  8
DIMENSIONS
 10
-47.39367116932081
 20
62.2424437230309
 30
0.0
  0
VERTEX
  5
36F
  8
DIMENSIONS
 10
-47.29549639055975
 20
62.22377668763266
 30
0.0
  0
VERTEX
  5
370
  8
DIMENSIONS
 10
-47.1687449156335
 20
62.21110154014004
 30
0.0
  0
VERTEX
  5
371
  8
DIMENSIONS
 10
-47.01341674454205
 20
62.20441828055302
 30
0.0
  0
VERTEX
  5
372
  8
DIMENSIONS
 10
-47.01341674454205
 20
62.06798760208694
 30
0.0
  0
VERTEX
  5
373
  8
DIMENSIONS
 10
-48.89394771799338
 20
62.06798760208694
 30
0.0
  0
VERTEX
  5
374
  8
DIMENSIONS
 10
-48.89394771799338
 20
62.20441828055302
 30
0.0
  0
VERTEX
  5
375
  8
DIMENSIONS
 10
-48.73262765899634
 20
62.21098631152647
 30
0.0
  0
VERTEX
  5
376
  8
DIMENSIONS
 10
-48.60264978289014
 20
62.22331577317838
 30
0.0
  0
VERTEX
  5
377
  8
DIMENSIONS
 10
-48.5040140896748
 20
62.24140666550878
 30
0.0
  0
VERTEX
  5
378
  8
DIMENSIONS
 10
-48.43672057935031
 20
62.26525898851762
 30
0.0
  0
VERTEX
  5
379
  8
DIMENSIONS
 10
-48.38901593333262
 20
62.29429659913709
 30
0.0
  0
VERTEX
  5
37A
  8
DIMENSIONS
 10
-48.34914683303762
 20
62.32794335429934
 30
0.0
  0
VERTEX
  5
37B
  8
DIMENSIONS
 10
-48.31711327846536
 20
62.36619925400435
 30
0.0
  0
VERTEX
  5
37C
  8
DIMENSIONS
 10
-48.2929152696158
 20
62.40906429825213
 30
0.0
  0
VERTEX
  5
37D
  8
DIMENSIONS
 10
-48.27517006312613
 20
62.47670349441733
 30
0.0
  0
VERTEX
  5
37E
  8
DIMENSIONS
 10
-48.2624949156335
 20
62.58928184987455
 30
0.0
  0
VERTEX
  5
37F
  8
DIMENSIONS
 10
-48.2523547976394
 20
62.94925603866511
 30
0.0
  0
VERTEX
  5
380
  8
DIMENSIONS
 10
-48.2523547976394
 20
65.6483710829129
 30
0.0
  0
VERTEX
  5
381
  8
DIMENSIONS
 10
-48.26157308672494
 20
66.09637993247043
 30
0.0
  0
VERTEX
  5
382
  8
DIMENSIONS
 10
-48.27309594808187
 20
66.2470989590191
 30
0.0
  0
VERTEX
  5
383
  8
DIMENSIONS
 10
-48.28922795398158
 20
66.34896105341437
 30
0.0
  0
VERTEX
  5
384
  8
DIMENSIONS
 10
-48.30478381681343
 20
66.4040403307005
 30
0.0
  0
VERTEX
  5
385
  8
DIMENSIONS
 10
-48.32564019586948
 20
66.45128406226394
 30
0.0
  0
VERTEX
  5
386
  8
DIMENSIONS
 10
-48.35179709114972
 20
66.49069224810464
 30
0.0
  0
VERTEX
  5
387
  8
DIMENSIONS
 10
-48.38325450265415
 20
66.52226488822264
 30
0.0
  0
VERTEX
  5
388
  8
DIMENSIONS
 10
-48.41909060147421
 20
66.54646289707219
 30
0.0
  0
VERTEX
  5
389
  8
DIMENSIONS
 10
-48.45838355870134
 20
66.5637471891076
 30
0.0
  0
VERTEX
  5
38A
  8
DIMENSIONS
 10
-48.54734004837686
 20
66.57757462273591
 30
0.0
  0
VERTEX
  5
38B
  8
DIMENSIONS
 10
-48.62223864719692
 20
66.57043044869461
 30
0.0
  0
VERTEX
  5
38C
  8
DIMENSIONS
 10
-48.71050376519102
 20
66.5489979265707
 30
0.0
  0
VERTEX
  5
38D
  8
DIMENSIONS
 10
-48.81213540235916
 20
66.51327705636422
 30
0.0
  0
VERTEX
  5
38E
  8
DIMENSIONS
 10
-48.92713355870134
 20
66.46326783807514
 30
0.0
  0
SEQEND
  5
463
  8
DIMENSIONS
  0
POLYLINE
  5
95
  8
DIMENSIONS
 66
     1
 10
0.0
 20
0.0
 30
0.0
 70
     1
  0
VERTEX
  5
38F
  8
DIMENSIONS
 10
-42.62919845545651
 20
63.03037698261792
 30
0.0
  0
VERTEX
  5
390
  8
DIMENSIONS
 10
-42.97949344070725
 20
62.06798760208694
 30
0.0
  0
VERTEX
  5
391
  8
DIMENSIONS
 10
-45.92934594808188
 20
62.06798760208694
 30
0.0
  0
VERTEX
  5
392
  8
DIMENSIONS
 10
-45.92934594808188
 20
62.20441828055302
 30
0.0
  0
VERTEX
  5
393
  8
DIMENSIONS
 10
-45.32670029911434
 20
62.77088214485981
 30
0.0
  0
VERTEX
  5
394
  8
DIMENSIONS
 10
-45.06150164498454
 20
63.03371861241143
 30
0.0
  0
VERTEX
  5
395
  8
DIMENSIONS
 10
-44.82038577109073
 20
63.28295810356187
 30
0.0
  0
VERTEX
  5
396
  8
DIMENSIONS
 10
-44.60335267743292
 20
63.51860061831113
 30
0.0
  0
VERTEX
  5
397
  8
DIMENSIONS
 10
-44.41040236401109
 20
63.74064615665922
 30
0.0
  0
VERTEX
  5
398
  8
DIMENSIONS
 10
-44.24153483082524
 20
63.94909471860611
 30
0.0
  0
VERTEX
  5
399
  8
DIMENSIONS
 10
-44.09675007787539
 20
64.14394630415184
 30
0.0
  0
VERTEX
  5
39A
  8
DIMENSIONS
 10
-43.97230317522052
 20
64.3299829007595
 30
0.0
  0
VERTEX
  5
39B
  8
DIMENSIONS
 10
-43.86444919291964
 20
64.51198649589224
 30
0.0
  0
VERTEX
  5
39C
  8
DIMENSIONS
 10
-43.77318813097273
 20
64.68995708955006
 30
0.0
  0
VERTEX
  5
39D
  8
DIMENSIONS
 10
-43.69851998937981
 20
64.86389468173297
 30
0.0
  0
VERTEX
  5
39E
  8
DIMENSIONS
 10
-43.64044476814087
 20
65.03379927244093
 30
0.0
  0
VERTEX
  5
39F
  8
DIMENSIONS
 10
-43.59896246725592
 20
65.19967086167398
 30
0.0
  0
VERTEX
  5
3A0
  8
DIMENSIONS
 10
-43.57407308672495
 20
65.36150944943208
 30
0.0
  0
VERTEX
  5
3A1
  8
DIMENSIONS
 10
-43.56577662654796
 20
65.51931503571527
 30
0.0
  0
VERTEX
  5
3A2
  8
DIMENSIONS
 10
-43.57032815678394
 20
65.6355807068067
 30
0.0
  0
VERTEX
  5
3A3
  8
DIMENSIONS
 10
-43.58398274749191
 20
65.74654586167397
 30
0.0
  0
VERTEX
  5
3A4
  8
DIMENSIONS
 10
-43.60674039867185
 20
65.85221050031703
 30
0.0
  0
VERTEX
  5
3A5
  8
DIMENSIONS
 10
-43.63860111032376
 20
65.95257462273591
 30
0.0
  0
VERTEX
  5
3A6
  8
DIMENSIONS
 10
-43.67956488244766
 20
66.0476382289306
 30
0.0
  0
VERTEX
  5
3A7
  8
DIMENSIONS
 10
-43.72963171504353
 20
66.1374013189011
 30
0.0
  0
VERTEX
  5
3A8
  8
DIMENSIONS
 10
-43.78880160811138
 20
66.2218638926474
 30
0.0
  0
VERTEX
  5
3A9
  8
DIMENSIONS
 10
-43.8570745616512
 20
66.30102595016955
 30
0.0
  0
VERTEX
  5
3AA
  8
DIMENSIONS
 10
-43.93168508893734
 20
66.37275576211644
 30
0.0
  0
VERTEX
  5
3AB
  8
DIMENSIONS
 10
-44.00986770324413
 20
66.4349215991371
 30
0.0
  0
VERTEX
  5
3AC
  8
DIMENSIONS
 10
-44.09162240457156
 20
66.48752346123149
 30
0.0
  0
VERTEX
  5
3AD
  8
DIMENSIONS
 10
-44.17694919291964
 20
66.53056134839963
 30
0.0
  0
VERTEX
  5
3AE
  8
DIMENSIONS
 10
-44.26584806828837
 20
66.56403526064152
 30
0.0
  0
VERTEX
  5
3AF
  8
DIMENSIONS
 10
-44.35831903067775
 20
66.58794519795715
 30
0.0
  0
VERTEX
  5
3B0
  8
DIMENSIONS
 10
-44.45436208008778
 20
66.60229116034654
 30
0.0
  0
VERTEX
  5
3B1
  8
DIMENSIONS
 10
-44.55397721651846
 20
66.60707314780966
 30
0.0
  0
VERTEX
  5
3B2
  8
DIMENSIONS
 10
-44.73361862507303
 20
66.59359140002204
 30
0.0
  0
VERTEX
  5
3B3
  8
DIMENSIONS
 10
-44.90381128731492
 20
66.55314615665921
 30
0.0
  0
VERTEX
  5
3B4
  8
DIMENSIONS
 10
-45.06455520324413
 20
66.48573741772117
 30
0.0
  0
VERTEX
  5
3B5
  8
DIMENSIONS
 10
-45.21585037286064
 20
66.39136518320788
 30
0.0
  0
VERTEX
  5
3B6
  8
DIMENSIONS
 10
-45.28674477735917
 20
66.33429821233767
 30
0.0
  0
VERTEX
  5
3B7
  8
DIMENSIONS
 10
-45.35285719439457
 20
66.27095128202795
 30
0.0
  0
VERTEX
  5
3B8
  8
DIMENSIONS
 10
-45.41418762396684
 20
66.20132439227868
 30
0.0
  0
VERTEX
  5
3B9
  8
DIMENSIONS
 10
-45.47073606607598
 20
66.1254175430899
 30
0.0
  0
VERTEX
  5
3BA
  8
DIMENSIONS
 10
-45.56948698790489
 20
65.95476396639373
 30
0.0
  0
VERTEX
  5
3BB
  8
DIMENSIONS
 10
-45.64910995988129
 20
65.75899055193945
 30
0.0
  0
VERTEX
  5
3BC
  8
DIMENSIONS
 10
-45.78554063834736
 20
65.75899055193945
 30
0.0
  0
VERTEX
  5
3BD
  8
DIMENSIONS
 10
-45.75797219255091
 20
65.92457406963857
 30
0.0
  0
VERTEX
  5
3BE
  8
DIMENSIONS
 10
-45.72135830058926
 20
66.08024792657072
 30
0.0
  0
VERTEX
  5
3BF
  8
DIMENSIONS
 10
-45.67569896246241
 20
66.22601212273591
 30
0.0
  0
VERTEX
  5
3C0
  8
DIMENSIONS
 10
-45.62099417817038
 20
66.36186665813415
 30
0.0
  0
VERTEX
  5
3C1
  8
DIMENSIONS
 10
-45.55724394771315
 20
66.48781153276542
 30
0.0
  0
VERTEX
  5
3C2
  8
DIMENSIONS
 10
-45.48444827109073
 20
66.60384674662971
 30
0.0
  0
VERTEX
  5
3C3
  8
DIMENSIONS
 10
-45.40260714830312
 20
66.70997229972707
 30
0.0
  0
VERTEX
  5
3C4
  8
DIMENSIONS
 10
-45.31172057935031
 20
66.80618819205745
 30
0.0
  0
VERTEX
  5
3C5
  8
DIMENSIONS
 10
-45.2133441505155
 20
66.89174543763266
 30
0.0
  0
VERTEX
  5
3C6
  8
DIMENSIONS
 10
-45.10903344808187
 20
66.96589505046452
 30
0.0
  0
VERTEX
  5
3C7
  8
DIMENSIONS
 10
-44.99878847204943
 20
67.02863703055303
 30
0.0
  0
VERTEX
  5
3C8
  8
DIMENSIONS
 10
-44.88260922241816
 20
67.07997137789816
 30
0.0
  0
VERTEX
  5
3C9
  8
DIMENSIONS
 10
-44.76049569918808
 20
67.11989809249994
 30
0.0
  0
VERTEX
  5
3CA
  8
DIMENSIONS
 10
-44.63244790235917
 20
67.14841717435833
 30
0.0
  0
VERTEX
  5
3CB
  8
DIMENSIONS
 10
-44.49846583193143
 20
67.16552862347338
 30
0.0
  0
VERTEX
  5
3CC
  8
DIMENSIONS
 10
-44.35854948790489
 20
67.17123243984506
 30
0.0
  0
VERTEX
  5
3CD
  8
DIMENSIONS
 10
-44.20958769771315
 20
67.1651253233259
 30
0.0
  0
VERTEX
  5
3CE
  8
DIMENSIONS
 10
-44.06690586696094
 20
67.14680397376836
 30
0.0
  0
VERTEX
  5
3CF
  8
DIMENSIONS
 10
-43.93050399564825
 20
67.1162683911725
 30
0.0
  0
VERTEX
  5
3D0
  8
DIMENSIONS
 10
-43.80038208377509
 20
67.07351857553827
 30
0.0
  0
VERTEX
  5
3D1
  8
DIMENSIONS
 10
-43.67654013134147
 20
67.01855452686571
 30
0.0
  0
VERTEX
  5
3D2
  8
DIMENSIONS
 10
-43.55897813834737
 20
66.95137624515479
 30
0.0
  0
VERTEX
  5
3D3
  8
DIMENSIONS
 10
-43.4476961047928
 20
66.87198373040553
 30
0.0
  0
VERTEX
  5
3D4
  8
DIMENSIONS
 10
-43.34269403067775
 20
66.78037698261792
 30
0.0
  0
VERTEX
  5
3D5
  8
DIMENSIONS
 10
-43.24719831718217
 20
66.68047377465334
 30
0.0
  0
VERTEX
  5
3D6
  8
DIMENSIONS
 10
-43.16443536548601
 20
66.57619187937308
 30
0.0
  0
VERTEX
  5
3D7
  8
DIMENSIONS
 10
-43.09440517558926
 20
66.46753129677721
 30
0.0
  0
VERTEX
  5
3D8
  8
DIMENSIONS
 10
-43.03710774749191
 20
66.3544920268657
 30
0.0
  0
VERTEX
  5
3D9
  8
DIMENSIONS
 10
-42.99254308119397
 20
66.23707406963857
 30
0.0
  0
VERTEX
  5
3DA
  8
DIMENSIONS
 10
-42.96071117669545
 20
66.1152774250958
 30
0.0
  0
VERTEX
  5
3DB
  8
DIMENSIONS
 10
-42.94161203399634
 20
65.98910209323739
 30
0.0
  0
VERTEX
  5
3DC
  8
DIMENSIONS
 10
-42.93524565309663
 20
65.85854807406335
 30
0.0
  0
VERTEX
  5
3DD
  8
DIMENSIONS
 10
-42.94630759999929
 20
65.66865131890111
 30
0.0
  0
VERTEX
  5
3DE
  8
DIMENSIONS
 10
-42.97949344070724
 20
65.47875456373887
 30
0.0
  0
VERTEX
  5
3DF
  8
DIMENSIONS
 10
-43.03480317522052
 20
65.28885780857662
 30
0.0
  0
VERTEX
  5
3E0
  8
DIMENSIONS
 10
-43.1122368035391
 20
65.09896105341437
 30
0.0
  0
VERTEX
  5
3E1
  8
DIMENSIONS
 10
-43.18575265899634
 20
64.94853009839963
 30
0.0
  0
VERTEX
  5
3E2
  8
DIMENSIONS
 10
-43.26986954690194
 20
64.79590979972706
 30
0.0
  0
VERTEX
  5
3E3
  8
DIMENSIONS
 10
-43.36458746725592
 20
64.64110015739668
 30
0.0
  0
VERTEX
  5
3E4
  8
DIMENSIONS
 10
-43.46990642005828
 20
64.48410117140848
 30
0.0
  0
VERTEX
  5
3E5
  8
DIMENSIONS
 10
-43.71234742300814
 20
64.16353516845862
 30
0.0
  0
VERTEX
  5
3E6
  8
DIMENSIONS
 10
-43.9971925557515
 20
63.8342117908775
 30
0.0
  0
VERTEX
  5
3E7
  8
DIMENSIONS
 10
-44.74295214277214
 20
63.03037698261792
 30
0.0
  0
VERTEX
  5
3E8
  8
DIMENSIONS
 10
-44.98654543185769
 20
62.77779586167397
 30
0.0
  0
VERTEX
  5
3E9
  8
DIMENSIONS
 10
-45.14394771799338
 20
62.62477226285391
 30
0.0
  0
VERTEX
  5
3EA
  8
DIMENSIONS
 10
-43.83863798348011
 20
62.62477226285391
 30
0.0
  0
VERTEX
  5
3EB
  8
DIMENSIONS
 10
-43.49986585958631
 20
62.63214689412234
 30
0.0
  0
VERTEX
  5
3EC
  8
DIMENSIONS
 10
-43.28000966489604
 20
62.65427078792765
 30
0.0
  0
VERTEX
  5
3ED
  8
DIMENSIONS
 10
-43.20176943628248
 20
62.67282259471231
 30
0.0
  0
VERTEX
  5
3EE
  8
DIMENSIONS
 10
-43.12744698053025
 20
62.69897948999255
 30
0.0
  0
VERTEX
  5
3EF
  8
DIMENSIONS
 10
-43.0570422976394
 20
62.73274147376836
 30
0.0
  0
VERTEX
  5
3F0
  8
DIMENSIONS
 10
-42.9905553876099
 20
62.77410854603975
 30
0.0
  0
VERTEX
  5
3F1
  8
DIMENSIONS
 10
-42.92810147905533
 20
62.82400253571527
 30
0.0
  0
VERTEX
  5
3F2
  8
DIMENSIONS
 10
-42.86979580058926
 20
62.88334527170346
 30
0.0
  0
VERTEX
  5
3F3
  8
DIMENSIONS
 10
-42.81563835221168
 20
62.95213675400435
 30
0.0
  0
VERTEX
  5
3F4
  8
DIMENSIONS
 10
-42.76562913392259
 20
63.03037698261792
 30
0.0
  0
SEQEND
  5
464
  8
DIMENSIONS
  0
POLYLINE
  5
96
  8
DIMENSIONS
 66
     1
 10
0.0
 20
0.0
 30
0.0
 70
     1
  0
VERTEX
  5
3F5
  8
DIMENSIONS
 10
-41.37182382418807
 20
62.78332683512529
 30
0.0
  0
VERTEX
  5
3F6
  8
DIMENSIONS
 10
-41.28862876519102
 20
62.77583697524329
 30
0.0
  0
VERTEX
  5
3F7
  8
DIMENSIONS
 10
-41.21234742300813
 20
62.75336739559727
 30
0.0
  0
VERTEX
  5
3F8
  8
DIMENSIONS
 10
-41.1429797976394
 20
62.71591809618724
 30
0.0
  0
VERTEX
  5
3F9
  8
DIMENSIONS
 10
-41.08052588908483
 20
62.6634890770132
 30
0.0
  0
VERTEX
  5
3FA
  8
DIMENSIONS
 10
-41.02890347020577
 20
62.60045902539078
 30
0.0
  0
VERTEX
  5
3FB
  8
DIMENSIONS
 10
-40.99203031386358
 20
62.53120662863562
 30
0.0
  0
VERTEX
  5
3FC
  8
DIMENSIONS
 10
-40.96990642005827
 20
62.45573188674771
 30
0.0
  0
VERTEX
  5
3FD
  8
DIMENSIONS
 10
-40.96253178878984
 20
62.37403479972706
 30
0.0
  0
VERTEX
  5
3FE
  8
DIMENSIONS
 10
-40.97002164867185
 20
62.29233771270641
 30
0.0
  0
VERTEX
  5
3FF
  8
DIMENSIONS
 10
-40.99249122831786
 20
62.21686297081851
 30
0.0
  0
VERTEX
  5
400
  8
DIMENSIONS
 10
-41.02994052772789
 20
62.14761057406335
 30
0.0
  0
VERTEX
  5
401
  8
DIMENSIONS
 10
-41.08236954690194
 20
62.08458052244092
 30
0.0
  0
VERTEX
  5
402
  8
DIMENSIONS
 10
-41.14539959852436
 20
62.03215150326687
 30
0.0
  0
VERTEX
  5
403
  8
DIMENSIONS
 10
-41.21465199527952
 20
61.99470220385685
 30
0.0
  0
VERTEX
  5
404
  8
DIMENSIONS
 10
-41.29012673716743
 20
61.97223262421083
 30
0.0
  0
VERTEX
  5
405
  8
DIMENSIONS
 10
-41.37182382418807
 20
61.96474276432883
 30
0.0
  0
VERTEX
  5
406
  8
DIMENSIONS
 10
-41.45352091120871
 20
61.97223262421083
 30
0.0
  0
VERTEX
  5
407
  8
DIMENSIONS
 10
-41.52899565309662
 20
61.99470220385685
 30
0.0
  0
VERTEX
  5
408
  8
DIMENSIONS
 10
-41.59824804985178
 20
62.03215150326687
 30
0.0
  0
VERTEX
  5
409
  8
DIMENSIONS
 10
-41.6612781014742
 20
62.08458052244092
 30
0.0
  0
VERTEX
  5
40A
  8
DIMENSIONS
 10
-41.71370712064825
 20
62.14761057406335
 30
0.0
  0
VERTEX
  5
40B
  8
DIMENSIONS
 10
-41.75115642005828
 20
62.21686297081851
 30
0.0
  0
VERTEX
  5
40C
  8
DIMENSIONS
 10
-41.77362599970429
 20
62.29233771270641
 30
0.0
  0
VERTEX
  5
40D
  8
DIMENSIONS
 10
-41.7811158595863
 20
62.37403479972706
 30
0.0
  0
VERTEX
  5
40E
  8
DIMENSIONS
 10
-41.77362599970429
 20
62.45722985872411
 30
0.0
  0
VERTEX
  5
40F
  8
DIMENSIONS
 10
-41.75115642005828
 20
62.53351120090701
 30
0.0
  0
VERTEX
  5
410
  8
DIMENSIONS
 10
-41.71370712064825
 20
62.60287882627574
 30
0.0
  0
VERTEX
  5
411
  8
DIMENSIONS
 10
-41.6612781014742
 20
62.66533273483031
 30
0.0
  0
VERTEX
  5
412
  8
DIMENSIONS
 10
-41.59824804985178
 20
62.71695515370936
 30
0.0
  0
VERTEX
  5
413
  8
DIMENSIONS
 10
-41.52899565309662
 20
62.75382831005155
 30
0.0
  0
VERTEX
  5
414
  8
DIMENSIONS
 10
-41.45352091120871
 20
62.77595220385685
 30
0.0
  0
SEQEND
  5
465
  8
DIMENSIONS
  0
POLYLINE
  5
97
  8
DIMENSIONS
 66
     1
 10
0.0
 20
0.0
 30
0.0
 70
     1
  0
VERTEX
  5
415
  8
DIMENSIONS
 10
-39.66828400117922
 20
67.06798760208694
 30
0.0
  0
VERTEX
  5
416
  8
DIMENSIONS
 10
-36.98760553510252
 20
67.06798760208694
 30
0.0
  0
VERTEX
  5
417
  8
DIMENSIONS
 10
-36.98760553510252
 20
66.92786960798665
 30
0.0
  0
VERTEX
  5
418
  8
DIMENSIONS
 10
-38.6542722017692
 20
61.96474276432883
 30
0.0
  0
VERTEX
  5
419
  8
DIMENSIONS
 10
-39.06725155280164
 20
61.96474276432883
 30
0.0
  0
VERTEX
  5
41A
  8
DIMENSIONS
 10
-37.57388872094323
 20
66.46695515370936
 30
0.0
  0
VERTEX
  5
41B
  8
DIMENSIONS
 10
-38.94925745250666
 20
66.46695515370936
 30
0.0
  0
VERTEX
  5
41C
  8
DIMENSIONS
 10
-39.14261106607598
 20
66.46073280857661
 30
0.0
  0
VERTEX
  5
41D
  8
DIMENSIONS
 10
-39.30600524011727
 20
66.4420657731784
 30
0.0
  0
VERTEX
  5
41E
  8
DIMENSIONS
 10
-39.43943997463055
 20
66.41095404751468
 30
0.0
  0
VERTEX
  5
41F
  8
DIMENSIONS
 10
-39.5429152696158
 20
66.36739763158548
 30
0.0
  0
VERTEX
  5
420
  8
DIMENSIONS
 10
-39.69017743775739
 20
66.27106651064153
 30
0.0
  0
VERTEX
  5
421
  8
DIMENSIONS
 10
-39.82222942890784
 20
66.1516896669837
 30
0.0
  0
VERTEX
  5
422
  8
DIMENSIONS
 10
-39.93907124306713
 20
66.00926710061202
 30
0.0
  0
VERTEX
  5
423
  8
DIMENSIONS
 10
-40.04070288023527
 20
65.84379881152647
 30
0.0
  0
VERTEX
  5
424
  8
DIMENSIONS
 10
-40.1476350336276
 20
65.88435928350287
 30
0.0
  0
SEQEND
  5
466
  8
DIMENSIONS
  0
POLYLINE
  5
98
  8
DIMENSIONS
 66
     1
 10
0.0
 20
0.0
 30
0.0
  0
VERTEX
  5
425
  8
DIMENSIONS
 10
-29.355
 20
58.32123243984506
 30
0.0
  0
VERTEX
  5
426
  8
DIMENSIONS
 10
-45.48502441415857
 20
58.32123243984506
 30
0.0
  0
SEQEND
  5
467
  8
DIMENSIONS
  0
POLYLINE
  5
99
  8
DIMENSIONS
 66
     1
 10
0.0
 20
0.0
 30
0.0
  0
VERTEX
  5
427
  8
DIMENSIONS
 10
-29.355
 20
71.02123243984505
 30
0.0
  0
VERTEX
  5
428
  8
DIMENSIONS
 10
-45.48502441415857
 20
71.02123243984505
 30
0.0
  0
SEQEND
  5
468
  8
DIMENSIONS
  0
POLYLINE
  5
9A
  8
DIMENSIONS
 66
     1
 10
0.0
 20
0.0
 30
0.0
  0
VERTEX
  5
429
  8
DIMENSIONS
 10
-42.98502441415857
 20
58.32123243984506
 30
0.0
  0
VERTEX
  5
42A
  8
DIMENSIONS
 10
-42.05225342619685
 20
61.33974276432883
 30
0.0
  0
SEQEND
  5
469
  8
DIMENSIONS
  0
POLYLINE
  5
9B
  8
DIMENSIONS
 66
     1
 10
0.0
 20
0.0
 30
0.0
  0
VERTEX
  5
42B
  8
DIMENSIONS
 10
-43.9177954021203
 20
61.33974276432883
 30
0.0
  0
VERTEX
  5
42C
  8
DIMENSIONS
 10
-42.98502441415857
 20
58.32123243984506
 30
0.0
  0
SEQEND
  5
46A
  8
DIMENSIONS
  0
POLYLINE
  5
9C
  8
DIMENSIONS
 66
     1
 10
0.0
 20
0.0
 30
0.0
  0
VERTEX
  5
42D
  8
DIMENSIONS
 10
-42.98502441415857
 20
71.02123243984505
 30
0.0
  0
VERTEX
  5
42E
  8
DIMENSIONS
 10
-43.98160422101778
 20
67.79623243984506
 30
0.0
  0
SEQEND
  5
46B
  8
DIMENSIONS
  0
POLYLINE
  5
9D
  8
DIMENSIONS
 66
     1
 10
0.0
 20
0.0
 30
0.0
  0
VERTEX
  5
42F
  8
DIMENSIONS
 10
-41.98844460729937
 20
67.79623243984506
 30
0.0
  0
VERTEX
  5
430
  8
DIMENSIONS
 10
-42.98502441415857
 20
71.02123243984505
 30
0.0
  0
SEQEND
  5
46C
  8
DIMENSIONS
  0
ENDSEC
  0
EOF
